<svg xmlns="http://www.w3.org/2000/svg" xmlns:xlink="http://www.w3.org/1999/xlink" width="500" zoomAndPan="magnify" viewBox="0 0 375 374.999991" height="500" preserveAspectRatio="xMidYMid meet" version="1.0"><path fill="#ffa62b" d="M 187.496094 7.933594 C 88.734375 7.933594 7.933594 88.734375 7.933594 187.496094 C 7.933594 286.253906 88.734375 367.054688 187.496094 367.054688 C 286.253906 367.054688 367.054688 286.253906 367.054688 187.496094 C 367.054688 88.734375 286.253906 7.933594 187.496094 7.933594 Z M 246.75 270.09375 L 131.832031 270.09375 L 131.832031 246.75 C 180.3125 192.882812 207.246094 173.128906 207.246094 151.582031 C 207.246094 144.398438 203.65625 128.238281 185.699219 128.238281 C 162.355469 128.238281 162.355469 151.582031 162.355469 156.96875 L 128.238281 156.96875 C 128.238281 140.808594 140.808594 103.101562 185.699219 103.101562 C 230.589844 103.101562 239.566406 130.035156 239.566406 149.785156 C 239.566406 176.722656 219.816406 198.269531 173.128906 244.953125 L 244.953125 244.953125 L 244.953125 270.09375 Z M 246.75 270.09375 " fill-opacity="1" fill-rule="nonzero"/></svg>