<svg xmlns="http://www.w3.org/2000/svg" xmlns:xlink="http://www.w3.org/1999/xlink" width="500" zoomAndPan="magnify" viewBox="0 0 375 374.999991" height="500" preserveAspectRatio="xMidYMid meet" version="1.0"><path fill="#ffa62b" d="M 187.5 7.445312 C 88.46875 7.445312 7.445312 88.46875 7.445312 187.5 C 7.445312 286.527344 88.46875 367.550781 187.5 367.550781 C 286.527344 367.550781 367.550781 286.527344 367.550781 187.5 C 367.550781 88.46875 286.527344 7.445312 187.5 7.445312 Z M 185.699219 272.125 C 142.484375 272.125 128.082031 241.515625 129.882812 223.507812 L 162.292969 223.507812 C 160.492188 228.910156 165.890625 245.117188 187.5 245.117188 C 210.90625 245.117188 212.707031 225.308594 212.707031 221.707031 C 212.707031 196.5 189.300781 196.5 185.699219 196.5 L 167.691406 196.5 L 167.691406 171.292969 L 185.699219 171.292969 C 194.699219 171.292969 210.90625 169.492188 210.90625 147.886719 C 210.90625 128.082031 192.898438 126.28125 187.5 126.28125 C 169.492188 126.28125 165.890625 140.683594 165.890625 144.285156 L 131.683594 144.285156 C 131.683594 111.875 164.089844 99.273438 185.699219 99.273438 C 236.113281 99.273438 241.515625 133.484375 241.515625 146.085938 C 241.515625 169.492188 219.910156 180.296875 216.308594 182.097656 C 225.308594 185.699219 243.316406 194.699219 243.316406 221.707031 C 245.117188 261.320312 210.90625 272.125 185.699219 272.125 Z M 185.699219 272.125 " fill-opacity="1" fill-rule="nonzero"/></svg>