<svg xmlns="http://www.w3.org/2000/svg" viewBox="0 0 40 40" id="App-Window-Clock--Streamline-Ultimate" height="40" width="40">
  <desc>
    App Window Clock Streamline Icon: https://streamlinehq.com
  </desc>
  <g id="App-Window-Clock--Streamline-Ultimate.svg">
    <g>
      <path d="M28.75 40A11.25 11.25 0 1 1 40 28.75 11.266666666666667 11.266666666666667 0 0 1 28.75 40Zm0 -19.166666666666668A7.916666666666667 7.916666666666667 0 1 0 36.66666666666667 28.75a7.916666666666667 7.916666666666667 0 0 0 -7.916666666666667 -7.916666666666667Z" fill="#ffa62b" stroke-width="1.6667"></path>
      <path d="M32.083333333333336 30.416666666666668h-3.3333333333333335a1.6666666666666667 1.6666666666666667 0 0 1 -1.6666666666666667 -1.6666666666666667v-4.166666666666667a1.6666666666666667 1.6666666666666667 0 0 1 3.3333333333333335 0V26.666666666666668a0.4166666666666667 0.4166666666666667 0 0 0 0.4166666666666667 0.4166666666666667h1.25a1.6666666666666667 1.6666666666666667 0 0 1 0 3.3333333333333335Z" fill="#ffa62b" stroke-width="1.6667"></path>
    </g>
    <path d="M15.416666666666668 32.03333333333333a1.6666666666666667 1.6666666666666667 0 0 0 -1.5833333333333333 -1.2H5a1.6666666666666667 1.6666666666666667 0 0 1 -1.6666666666666667 -1.6666666666666667V8.75A0.4166666666666667 0.4166666666666667 0 0 1 3.75 8.333333333333334h32.5a0.4166666666666667 0.4166666666666667 0 0 1 0.4166666666666667 0.4166666666666667V16.666666666666668a1.6666666666666667 1.6666666666666667 0 0 0 0.65 1.3 1.6666666666666667 1.6666666666666667 0 0 0 2.6833333333333336 -1.2166666666666668V5a5 5 0 0 0 -5 -5H5a5 5 0 0 0 -5 5v24.166666666666668a5 5 0 0 0 5 5h8.833333333333334a1.6666666666666667 1.6666666666666667 0 0 0 1.5833333333333333 -2.0833333333333335ZM16.083333333333336 3.3333333333333335a1.6666666666666667 1.6666666666666667 0 0 1 2.8333333333333335 0 1.5166666666666668 1.5166666666666668 0 0 1 0 1.6666666666666667 1.6666666666666667 1.6666666666666667 0 0 1 -2.8333333333333335 0 1.5166666666666668 1.5166666666666668 0 0 1 0 -1.6666666666666667Zm-5.833333333333334 0a1.6666666666666667 1.6666666666666667 0 0 1 2.8333333333333335 0 1.5166666666666668 1.5166666666666668 0 0 1 0 1.6666666666666667 1.6666666666666667 1.6666666666666667 0 0 1 -2.8333333333333335 0 1.5166666666666668 1.5166666666666668 0 0 1 0 -1.6666666666666667Zm-5.933333333333334 0.15A1.6666666666666667 1.6666666666666667 0 0 1 7.25 3.3333333333333335a1.5166666666666668 1.5166666666666668 0 0 1 0 1.6666666666666667 1.6666666666666667 1.6666666666666667 0 0 1 -2.8333333333333335 0 1.6666666666666667 1.6666666666666667 0 0 1 -0.25 -0.8333333333333334 1.866666666666667 1.866666666666667 0 0 1 0.15 -0.6833333333333333Z" fill="#ffa62b" stroke-width="1.6667"></path>
  </g>
</svg>