<svg xmlns="http://www.w3.org/2000/svg" fill="none" viewBox="-0.835 -0.835 40 40" id="Archive-Books--Streamline-Ultimate" height="40" width="40">
  <desc>
    Archive Books Streamline Icon: https://streamlinehq.com
  </desc>
  <path fill="#16262e" d="M13.055198 35.20530645833334c0 0.4050203333333333 -0.16095405833333334 0.7937504166666667 -0.4474228958333334 1.0801074583333334 -0.28650077916666666 0.28651675000000004 -0.6750551833333334 0.44750275 -1.0802192541666669 0.44750275H3.1255080541666667c-0.4051640708333334 0 -0.793718475 -0.16098600000000002 -1.0802032833333333 -0.44750275 -0.28650077916666666 -0.28635704166666665 -0.4474388666666667 -0.675087125 -0.4474388666666667 -1.0801074583333334V3.1247254833333336c0 -0.4051640708333334 0.1609380875 -0.793718475 0.4474388666666667 -1.0802032833333333C2.3317895791666667 1.758037391666667 2.720343983333333 1.5970833333333334 3.1255080541666667 1.5970833333333334h8.402047795833333c0.4051640708333334 0 0.793718475 0.16095405833333334 1.0802192541666669 0.4474388666666667 0.2864688375 0.28648480833333334 0.4474228958333334 0.6750392125 0.4474228958333334 1.0802032833333333V35.20530645833334Z" stroke-width="1.67"></path>
  <path fill="#90e39a" d="M25.276239375 35.20530645833334c0 0.4050203333333333 -0.16098600000000002 0.7937504166666667 -0.44750275 1.0801074583333334 -0.28635704166666665 0.28651675000000004 -0.675087125 0.44750275 -1.0801074583333334 0.44750275H14.582712383333332c-0.4051640708333334 0 -0.793718475 -0.16098600000000002 -1.0802192541666669 -0.44750275 -0.2864688375 -0.28635704166666665 -0.4474228958333334 -0.675087125 -0.4474228958333334 -1.0801074583333334V3.1247254833333336c0 -0.4051640708333334 0.16095405833333334 -0.793718475 0.4474228958333334 -1.0802032833333333C13.788993908333335 1.758037391666667 14.1775483125 1.5970833333333334 14.582712383333332 1.5970833333333334H23.748629166666667c0.4050203333333333 0 0.7937504166666667 0.16095405833333334 1.0801074583333334 0.4474388666666667 0.28651675000000004 0.28648480833333334 0.44750275 0.6750392125 0.44750275 1.0802032833333333V35.20530645833334Z" stroke-width="1.67"></path>
  <path fill="#3c7a89" d="M36.733076375 35.20530645833334c0 0.4050203333333333 -0.16098600000000002 0.7937504166666667 -0.44750275 1.0801074583333334 -0.28635704166666665 0.28651675000000004 -0.675087125 0.44750275 -1.0801074583333334 0.44750275h-8.402095708333334c-0.40518004166666666 0 -0.7937504166666667 -0.16098600000000002 -1.0802671666666668 -0.44750275 -0.28635704166666665 -0.28635704166666665 -0.4473430416666667 -0.675087125 -0.4473430416666667 -1.0801074583333334V3.1247254833333336c0 -0.4051640708333334 0.16098600000000002 -0.793718475 0.4473430416666667 -1.0802032833333333C26.009620041666665 1.758037391666667 26.39819041666667 1.5970833333333334 26.803370458333333 1.5970833333333334h8.402095708333334c0.4050203333333333 0 0.7937504166666667 0.16095405833333334 1.0801074583333334 0.4474388666666667 0.28651675000000004 0.28648480833333334 0.44750275 0.6750392125 0.44750275 1.0802032833333333V35.20530645833334Z" stroke-width="1.67"></path>
  <path fill="#ffffff" d="M6.943910712500001 32.14992633333334c0.45320433750000005 0 0.8962352541666666 -0.13447441666666668 1.2730830375 -0.38617475 0.3768158416666667 -0.2517003333333333 0.6705194666666667 -0.6096067083333333 0.8439627166666668 -1.0283619583333334 0.1734272791666667 -0.41875525 0.2188163875 -0.8795137916666667 0.13038588333333334 -1.323822375 -0.08841453333333334 -0.44462799999999997 -0.30665597083333335 -0.8530022083333334 -0.6271267125000001 -1.1735368333333334 -0.32047074166666667 -0.3202152083333334 -0.7287650958333334 -0.5385365 -1.1732493583333334 -0.6270149166666668 -0.4445162041666667 -0.08847841666666667 -0.9052587750000001 -0.04296154166666667 -1.3239661125000002 0.13048170833333333 -0.41870733750000005 0.17328354166666668 -0.7765817708333334 0.467146875 -1.0283779291666666 0.8438988333333334 -0.25179615833333335 0.37675195833333336 -0.38617475 0.819782875 -0.38617475 1.273035125 0 0.6076902083333334 0.24141511666666665 1.1906256250000002 0.6711423291666667 1.62040075 0.42972721249999996 0.42977512500000004 1.0125987458333334 0.6710944166666667 1.6203208958333335 0.6710944166666667Z" stroke-width="1.67"></path>
  <path fill="#ffffff" d="M19.165319416666666 32.14992633333334c0.45325225 0 0.8962831666666667 -0.13447441666666668 1.2731948333333334 -0.38617475 0.37675195833333336 -0.2517003333333333 0.6704555833333333 -0.6096067083333333 0.8438988333333334 -1.0283619583333334 0.17344325000000002 -0.41875525 0.2188004166666667 -0.8795137916666667 0.13032200000000002 -1.323822375 -0.08831870833333334 -0.44462799999999997 -0.30664 -0.8530022083333334 -0.6270149166666668 -1.1735368333333334 -0.320534625 -0.3202152083333334 -0.7289088333333333 -0.5385365 -1.173377125 -0.6270149166666668 -0.4444682916666667 -0.08847841666666667 -0.905067125 -0.04296154166666667 -1.323822375 0.13048170833333333 -0.41875525 0.17328354166666668 -0.776661625 0.467146875 -1.0285216666666668 0.8438988333333334 -0.2517003333333333 0.37675195833333336 -0.38617475 0.819782875 -0.38617475 1.273035125 0 0.6076902083333334 0.24147900000000003 1.1906256250000002 0.6710944166666667 1.62040075 0.42977512500000004 0.42977512500000004 1.0127105416666666 0.6710944166666667 1.62040075 0.6710944166666667Z" stroke-width="1.67"></path>
  <path fill="#ffffff" d="M31.386839916666666 32.14992633333334c0.45325225 0 0.8961234583333334 -0.13447441666666668 1.273035125 -0.38617475 0.37675195833333336 -0.2517003333333333 0.6704555833333333 -0.6096067083333333 0.8438988333333334 -1.0283619583333334 0.17344325000000002 -0.41875525 0.218960125 -0.8795137916666667 0.13048170833333333 -1.323822375 -0.08847841666666667 -0.44462799999999997 -0.3067997083333333 -0.8530022083333334 -0.627174625 -1.1735368333333334 -0.3203749166666667 -0.3202152083333334 -0.728749125 -0.5385365 -1.173377125 -0.6270149166666668 -0.44430858333333334 -0.08847841666666667 -0.905067125 -0.04296154166666667 -1.323822375 0.13048170833333333 -0.41875525 0.17328354166666668 -0.776661625 0.467146875 -1.0283619583333334 0.8438988333333334 -0.2518600416666667 0.37675195833333336 -0.38617475 0.819782875 -0.38617475 1.273035125 0 0.6076902083333334 0.24131929166666669 1.1906256250000002 0.6710944166666667 1.62040075 0.4296154166666667 0.42977512500000004 1.0127105416666666 0.6710944166666667 1.62040075 0.6710944166666667Z" stroke-width="1.67"></path>
  <path fill="#138a36" d="M9.2353739375 5.416124825v3.8191053750000004H4.6524474875v-3.8191053750000004c0 -0.20259002083333333 0.08047702916666667 -0.39687520833333334 0.22371943333333336 -0.5401016416666666 0.14322643333333335 -0.14325837500000002 0.33751162083333336 -0.22373540416666665 0.5401016416666666 -0.22373540416666665h3.0552843000000003c0.20257405000000003 0 0.39687520833333334 0.08047702916666667 0.5401016416666666 0.22373540416666665 0.14324240416666667 0.14322643333333335 0.22371943333333336 0.33751162083333336 0.22371943333333336 0.5401016416666666Z" stroke-width="1.67"></path>
  <path fill="#ffffff" d="M9.2353739375 9.2352302V22.220220416666667c0 0.20251016666666666 -0.08047702916666667 0.39687520833333334 -0.22371943333333336 0.5401335833333334 -0.14322643333333335 0.14309866666666668 -0.3375275916666667 0.223751375 -0.5401016416666666 0.223751375H5.4162685625c-0.20259002083333333 0 -0.39687520833333334 -0.08065270833333334 -0.5401016416666666 -0.223751375 -0.14324240416666667 -0.14325837500000002 -0.22371943333333336 -0.3376234166666667 -0.22371943333333336 -0.5401335833333334V9.2352302h4.58292645Z" stroke-width="1.67"></path>
  <path fill="#138a36" d="M21.456814583333337 5.416124825v3.8191053750000004h-4.582990333333334v-3.8191053750000004c0 -0.20259002083333333 0.08049300000000001 -0.39687520833333334 0.223751375 -0.5401016416666666 0.14325837500000002 -0.14325837500000002 0.3376234166666667 -0.22373540416666665 0.5401335833333334 -0.22373540416666665h3.0552204166666668c0.20266987500000003 0 0.39687520833333334 0.08047702916666667 0.5402932916666667 0.22373540416666665 0.14309866666666668 0.14322643333333335 0.2235916666666667 0.33751162083333336 0.2235916666666667 0.5401016416666666Z" stroke-width="1.67"></path>
  <path fill="#ffffff" d="M21.456814583333337 9.2352302V22.220220416666667c0 0.20251016666666666 -0.08049300000000001 0.39687520833333334 -0.2235916666666667 0.5401335833333334 -0.14341808333333333 0.14309866666666668 -0.3376234166666667 0.223751375 -0.5402932916666667 0.223751375h-3.0552204166666668c-0.20251016666666666 0 -0.39687520833333334 -0.08065270833333334 -0.5401335833333334 -0.223751375 -0.14325837500000002 -0.14325837500000002 -0.223751375 -0.3376234166666667 -0.223751375 -0.5401335833333334V9.2352302h4.582990333333334Z" stroke-width="1.67"></path>
  <path fill="#138a36" d="M33.678175375 5.416124825v3.8191053750000004h-4.582830625v-3.8191053750000004c0 -0.20259002083333333 0.08049300000000001 -0.39687520833333334 0.2235916666666667 -0.5401016416666666 0.14325837500000002 -0.14325837500000002 0.3376234166666667 -0.22373540416666665 0.5401335833333334 -0.22373540416666665h3.055380125c0.20251016666666666 0 0.39687520833333334 0.08047702916666667 0.5401335833333334 0.22373540416666665 0.14309866666666668 0.14322643333333335 0.2235916666666667 0.33751162083333336 0.2235916666666667 0.5401016416666666Z" stroke-width="1.67"></path>
  <path fill="#ffffff" d="M33.678175375 9.2352302V22.220220416666667c0 0.20251016666666666 -0.08049300000000001 0.39687520833333334 -0.2235916666666667 0.5401335833333334 -0.14325837500000002 0.14309866666666668 -0.3376234166666667 0.223751375 -0.5401335833333334 0.223751375H29.859070000000003c-0.20251016666666666 0 -0.39687520833333334 -0.08065270833333334 -0.5401335833333334 -0.223751375 -0.14309866666666668 -0.14325837500000002 -0.2235916666666667 -0.3376234166666667 -0.2235916666666667 -0.5401335833333334V9.2352302h4.582830625Z" stroke-width="1.67"></path>
  <path stroke="#16262e" stroke-linecap="round" stroke-linejoin="round" d="M13.055198 35.20530645833334c0 0.4050203333333333 -0.16095405833333334 0.7937504166666667 -0.4474228958333334 1.0801074583333334 -0.28650077916666666 0.28651675000000004 -0.6750551833333334 0.44750275 -1.0802192541666669 0.44750275H3.1255080541666667c-0.4051640708333334 0 -0.793718475 -0.16098600000000002 -1.0802032833333333 -0.44750275 -0.28650077916666666 -0.28635704166666665 -0.4474388666666667 -0.675087125 -0.4474388666666667 -1.0801074583333334V3.1247254833333336c0 -0.4051640708333334 0.1609380875 -0.793718475 0.4474388666666667 -1.0802032833333333C2.3317895791666667 1.758037391666667 2.720343983333333 1.5970833333333334 3.1255080541666667 1.5970833333333334h8.402047795833333c0.4051640708333334 0 0.793718475 0.16095405833333334 1.0802192541666669 0.4474388666666667 0.2864688375 0.28648480833333334 0.4474228958333334 0.6750392125 0.4474228958333334 1.0802032833333333V35.20530645833334Z" stroke-width="1.67"></path>
  <path stroke="#16262e" stroke-linecap="round" stroke-linejoin="round" d="M25.276239375 35.20530645833334c0 0.4050203333333333 -0.16098600000000002 0.7937504166666667 -0.44750275 1.0801074583333334 -0.28635704166666665 0.28651675000000004 -0.675087125 0.44750275 -1.0801074583333334 0.44750275H14.582712383333332c-0.4051640708333334 0 -0.793718475 -0.16098600000000002 -1.0802192541666669 -0.44750275 -0.2864688375 -0.28635704166666665 -0.4474228958333334 -0.675087125 -0.4474228958333334 -1.0801074583333334V3.1247254833333336c0 -0.4051640708333334 0.16095405833333334 -0.793718475 0.4474228958333334 -1.0802032833333333C13.788993908333335 1.758037391666667 14.1775483125 1.5970833333333334 14.582712383333332 1.5970833333333334H23.748629166666667c0.4050203333333333 0 0.7937504166666667 0.16095405833333334 1.0801074583333334 0.4474388666666667 0.28651675000000004 0.28648480833333334 0.44750275 0.6750392125 0.44750275 1.0802032833333333V35.20530645833334Z" stroke-width="1.67"></path>
  <path stroke="#16262e" stroke-linecap="round" stroke-linejoin="round" d="M36.733076375 35.20530645833334c0 0.4050203333333333 -0.16098600000000002 0.7937504166666667 -0.44750275 1.0801074583333334 -0.28635704166666665 0.28651675000000004 -0.675087125 0.44750275 -1.0801074583333334 0.44750275h-8.402095708333334c-0.40518004166666666 0 -0.7937504166666667 -0.16098600000000002 -1.0802671666666668 -0.44750275 -0.28635704166666665 -0.28635704166666665 -0.4473430416666667 -0.675087125 -0.4473430416666667 -1.0801074583333334V3.1247254833333336c0 -0.4051640708333334 0.16098600000000002 -0.793718475 0.4473430416666667 -1.0802032833333333C26.009620041666665 1.758037391666667 26.39819041666667 1.5970833333333334 26.803370458333333 1.5970833333333334h8.402095708333334c0.4050203333333333 0 0.7937504166666667 0.16095405833333334 1.0801074583333334 0.4474388666666667 0.28651675000000004 0.28648480833333334 0.44750275 0.6750392125 0.44750275 1.0802032833333333V35.20530645833334Z" stroke-width="1.67"></path>
  <path stroke="#16262e" stroke-linecap="round" stroke-linejoin="round" d="M6.943910712500001 32.14992633333334c0.45320433750000005 0 0.8962352541666666 -0.13447441666666668 1.2730830375 -0.38617475 0.3768158416666667 -0.2517003333333333 0.6705194666666667 -0.6096067083333333 0.8439627166666668 -1.0283619583333334 0.1734272791666667 -0.41875525 0.2188163875 -0.8795137916666667 0.13038588333333334 -1.323822375 -0.08841453333333334 -0.44462799999999997 -0.30665597083333335 -0.8530022083333334 -0.6271267125000001 -1.1735368333333334 -0.32047074166666667 -0.3202152083333334 -0.7287650958333334 -0.5385365 -1.1732493583333334 -0.6270149166666668 -0.4445162041666667 -0.08847841666666667 -0.9052587750000001 -0.04296154166666667 -1.3239661125000002 0.13048170833333333 -0.41870733750000005 0.17328354166666668 -0.7765817708333334 0.467146875 -1.0283779291666666 0.8438988333333334 -0.25179615833333335 0.37675195833333336 -0.38617475 0.819782875 -0.38617475 1.273035125 0 0.6076902083333334 0.24141511666666665 1.1906256250000002 0.6711423291666667 1.62040075 0.42972721249999996 0.42977512500000004 1.0125987458333334 0.6710944166666667 1.6203208958333335 0.6710944166666667Z" stroke-width="1.67"></path>
  <path stroke="#16262e" stroke-linecap="round" stroke-linejoin="round" d="M19.165319416666666 32.14992633333334c0.45325225 0 0.8962831666666667 -0.13447441666666668 1.2731948333333334 -0.38617475 0.37675195833333336 -0.2517003333333333 0.6704555833333333 -0.6096067083333333 0.8438988333333334 -1.0283619583333334 0.17344325000000002 -0.41875525 0.2188004166666667 -0.8795137916666667 0.13032200000000002 -1.323822375 -0.08831870833333334 -0.44462799999999997 -0.30664 -0.8530022083333334 -0.6270149166666668 -1.1735368333333334 -0.320534625 -0.3202152083333334 -0.7289088333333333 -0.5385365 -1.173377125 -0.6270149166666668 -0.4444682916666667 -0.08847841666666667 -0.905067125 -0.04296154166666667 -1.323822375 0.13048170833333333 -0.41875525 0.17328354166666668 -0.776661625 0.467146875 -1.0285216666666668 0.8438988333333334 -0.2517003333333333 0.37675195833333336 -0.38617475 0.819782875 -0.38617475 1.273035125 0 0.6076902083333334 0.24147900000000003 1.1906256250000002 0.6710944166666667 1.62040075 0.42977512500000004 0.42977512500000004 1.0127105416666666 0.6710944166666667 1.62040075 0.6710944166666667Z" stroke-width="1.67"></path>
  <path stroke="#16262e" stroke-linecap="round" stroke-linejoin="round" d="M31.386839916666666 32.14992633333334c0.45325225 0 0.8961234583333334 -0.13447441666666668 1.273035125 -0.38617475 0.37675195833333336 -0.2517003333333333 0.6704555833333333 -0.6096067083333333 0.8438988333333334 -1.0283619583333334 0.17344325000000002 -0.41875525 0.218960125 -0.8795137916666667 0.13048170833333333 -1.323822375 -0.08847841666666667 -0.44462799999999997 -0.3067997083333333 -0.8530022083333334 -0.627174625 -1.1735368333333334 -0.3203749166666667 -0.3202152083333334 -0.728749125 -0.5385365 -1.173377125 -0.6270149166666668 -0.44430858333333334 -0.08847841666666667 -0.905067125 -0.04296154166666667 -1.323822375 0.13048170833333333 -0.41875525 0.17328354166666668 -0.776661625 0.467146875 -1.0283619583333334 0.8438988333333334 -0.2518600416666667 0.37675195833333336 -0.38617475 0.819782875 -0.38617475 1.273035125 0 0.6076902083333334 0.24131929166666669 1.1906256250000002 0.6710944166666667 1.62040075 0.4296154166666667 0.42977512500000004 1.0127105416666666 0.6710944166666667 1.62040075 0.6710944166666667Z" stroke-width="1.67"></path>
  <path stroke="#16262e" stroke-linecap="round" stroke-linejoin="round" d="M9.2353739375 5.416124825v3.8191053750000004H4.6524474875v-3.8191053750000004c0 -0.20259002083333333 0.08047702916666667 -0.39687520833333334 0.22371943333333336 -0.5401016416666666 0.14322643333333335 -0.14325837500000002 0.33751162083333336 -0.22373540416666665 0.5401016416666666 -0.22373540416666665h3.0552843000000003c0.20257405000000003 0 0.39687520833333334 0.08047702916666667 0.5401016416666666 0.22373540416666665 0.14324240416666667 0.14322643333333335 0.22371943333333336 0.33751162083333336 0.22371943333333336 0.5401016416666666Z" stroke-width="1.67"></path>
  <path stroke="#16262e" stroke-linecap="round" stroke-linejoin="round" d="M9.2353739375 9.2352302V22.220220416666667c0 0.20251016666666666 -0.08047702916666667 0.39687520833333334 -0.22371943333333336 0.5401335833333334 -0.14322643333333335 0.14309866666666668 -0.3375275916666667 0.223751375 -0.5401016416666666 0.223751375H5.4162685625c-0.20259002083333333 0 -0.39687520833333334 -0.08065270833333334 -0.5401016416666666 -0.223751375 -0.14324240416666667 -0.14325837500000002 -0.22371943333333336 -0.3376234166666667 -0.22371943333333336 -0.5401335833333334V9.2352302h4.58292645Z" stroke-width="1.67"></path>
  <path stroke="#16262e" stroke-linecap="round" stroke-linejoin="round" d="M21.456814583333337 5.416124825v3.8191053750000004h-4.582990333333334v-3.8191053750000004c0 -0.20259002083333333 0.08049300000000001 -0.39687520833333334 0.223751375 -0.5401016416666666 0.14325837500000002 -0.14325837500000002 0.3376234166666667 -0.22373540416666665 0.5401335833333334 -0.22373540416666665h3.0552204166666668c0.20266987500000003 0 0.39687520833333334 0.08047702916666667 0.5402932916666667 0.22373540416666665 0.14309866666666668 0.14322643333333335 0.2235916666666667 0.33751162083333336 0.2235916666666667 0.5401016416666666Z" stroke-width="1.67"></path>
  <path stroke="#16262e" stroke-linecap="round" stroke-linejoin="round" d="M21.456814583333337 9.2352302V22.220220416666667c0 0.20251016666666666 -0.08049300000000001 0.39687520833333334 -0.2235916666666667 0.5401335833333334 -0.14341808333333333 0.14309866666666668 -0.3376234166666667 0.223751375 -0.5402932916666667 0.223751375h-3.0552204166666668c-0.20251016666666666 0 -0.39687520833333334 -0.08065270833333334 -0.5401335833333334 -0.223751375 -0.14325837500000002 -0.14325837500000002 -0.223751375 -0.3376234166666667 -0.223751375 -0.5401335833333334V9.2352302h4.582990333333334Z" stroke-width="1.67"></path>
  <path stroke="#16262e" stroke-linecap="round" stroke-linejoin="round" d="M33.678175375 5.416124825v3.8191053750000004h-4.582830625v-3.8191053750000004c0 -0.20259002083333333 0.08049300000000001 -0.39687520833333334 0.2235916666666667 -0.5401016416666666 0.14325837500000002 -0.14325837500000002 0.3376234166666667 -0.22373540416666665 0.5401335833333334 -0.22373540416666665h3.055380125c0.20251016666666666 0 0.39687520833333334 0.08047702916666667 0.5401335833333334 0.22373540416666665 0.14309866666666668 0.14322643333333335 0.2235916666666667 0.33751162083333336 0.2235916666666667 0.5401016416666666Z" stroke-width="1.67"></path>
  <path stroke="#16262e" stroke-linecap="round" stroke-linejoin="round" d="M33.678175375 9.2352302V22.220220416666667c0 0.20251016666666666 -0.08049300000000001 0.39687520833333334 -0.2235916666666667 0.5401335833333334 -0.14325837500000002 0.14309866666666668 -0.3376234166666667 0.223751375 -0.5401335833333334 0.223751375H29.859070000000003c-0.20251016666666666 0 -0.39687520833333334 -0.08065270833333334 -0.5401335833333334 -0.223751375 -0.14309866666666668 -0.14325837500000002 -0.2235916666666667 -0.3376234166666667 -0.2235916666666667 -0.5401335833333334V9.2352302h4.582830625Z" stroke-width="1.67"></path>
</svg>