<svg xmlns="http://www.w3.org/2000/svg" xmlns:xlink="http://www.w3.org/1999/xlink" width="500" zoomAndPan="magnify" viewBox="0 0 375 374.999991" height="500" preserveAspectRatio="xMidYMid meet" version="1.0"><defs><clipPath id="2f0befb310"><path d="M 8.195312 8.195312 L 366.804688 8.195312 L 366.804688 366.804688 L 8.195312 366.804688 Z M 8.195312 8.195312 " clip-rule="nonzero"/></clipPath><clipPath id="9182550def"><path d="M 366.804688 187.5 L 187.5 8.195312 L 187.5 97.847656 L 8.195312 97.847656 L 8.195312 277.152344 L 187.5 277.152344 L 187.5 366.804688 Z M 366.804688 187.5 " clip-rule="nonzero"/></clipPath><clipPath id="8d4606a8bb"><path d="M 0.195312 0.195312 L 358.804688 0.195312 L 358.804688 358.804688 L 0.195312 358.804688 Z M 0.195312 0.195312 " clip-rule="nonzero"/></clipPath><clipPath id="816c701fe3"><path d="M 358.804688 179.5 L 179.5 0.195312 L 179.5 89.847656 L 0.195312 89.847656 L 0.195312 269.152344 L 179.5 269.152344 L 179.5 358.804688 Z M 358.804688 179.5 " clip-rule="nonzero"/></clipPath><clipPath id="2888d0bd5c"><rect x="0" width="359" y="0" height="359"/></clipPath></defs><g clip-path="url(#2f0befb310)"><g clip-path="url(#9182550def)"><g transform="matrix(1, 0, 0, 1, 8, 8)"><g clip-path="url(#2888d0bd5c)"><g clip-path="url(#8d4606a8bb)"><g clip-path="url(#816c701fe3)"><path fill="#ffffff" d="M 0.195312 0.195312 L 358.804688 0.195312 L 358.804688 358.804688 L 0.195312 358.804688 Z M 0.195312 0.195312 " fill-opacity="1" fill-rule="nonzero"/></g></g></g></g></g></g></svg>