<?xml version="1.0" encoding="UTF-8" standalone="no"?>
<!-- Created with Inkscape (http://www.inkscape.org/) -->

<svg
   version="1.1"
   id="svg1"
   width="482.96457"
   height="479.64832"
   viewBox="0 0 482.96457 479.64832"
   sodipodi:docname="4.9.png"
   inkscape:export-filename="LeashedDogIcon.webp"
   inkscape:export-xdpi="96"
   inkscape:export-ydpi="96"
   xmlns:inkscape="http://www.inkscape.org/namespaces/inkscape"
   xmlns:sodipodi="http://sodipodi.sourceforge.net/DTD/sodipodi-0.dtd"
   xmlns="http://www.w3.org/2000/svg"
   xmlns:svg="http://www.w3.org/2000/svg">
  <defs
     id="defs1" />
  <sodipodi:namedview
     id="namedview1"
     pagecolor="#ffffff"
     bordercolor="#000000"
     borderopacity="0.25"
     inkscape:showpageshadow="2"
     inkscape:pageopacity="0.0"
     inkscape:pagecheckerboard="0"
     inkscape:deskcolor="#d1d1d1"
     showgrid="true"
     inkscape:export-bgcolor="#ffffff00" />
  <g
     inkscape:groupmode="layer"
     id="layer1"
     inkscape:label="Dog Outline"
     style="display:none"
     transform="translate(-6.2249112,-15.478045)">
    <g
       id="g4">
      <path
         style="fill:none;fill-opacity:1;fill-rule:nonzero;stroke:#2323ff;stroke-width:17.0079;stroke-linecap:round;stroke-linejoin:round;stroke-dasharray:none;stroke-opacity:1;paint-order:stroke markers fill"
         d="m 396.08897,56.717993 c -7.25971,-2.395831 -11.45248,-10.115449 -19.57151,-11.62036 -11.14577,-2.065935 -35.43419,0.813433 -40.39768,2.218584 -11.75052,3.326551 -19.84319,6.895714 -28.26409,12.931523 -6.90819,4.951552 -13.75885,9.660842 -17.4944,18.550334 -5.123,12.191186 -4.49539,17.961025 -4.85598,26.256026 -0.36059,8.29499 0.33069,15.44521 -0.1809,23.14269 -0.46338,6.97214 -0.98974,13.99062 -2.61167,20.79923 -3.13025,13.14021 -6.89522,29.61386 -13.79109,42.99044 -5.6042,10.87101 -13.68904,20.31325 -21.95752,29.39625 -9.56564,10.50789 -21.44584,18.87788 -31.72721,28.74917 -11.32871,10.87686 -23.24342,21.35551 -32.98467,33.55608 -8.20073,10.27114 -14.53063,21.80506 -21.17846,33.05474 -7.30103,12.35505 -14.46353,24.82619 -20.51937,37.78137 -3.99661,8.5499 -5.0639,17.93126 -6.95137,27.13829 -3.12117,15.22498 -7.70291,32.7165 -35.455333,34.044 -11.559525,0.55294 -32.768206,-15.29097 -36.083924,-19.56374 -3.997349,-5.15115 -14.172381,-18.57544 -15.077697,-28.1532 -2.162795,9.18776 -2.946372,21.89004 -0.820776,32.5521 1.575546,7.903 5.355876,15.4211 9.849298,22.22433 5.172359,7.83119 11.571932,15.18431 19.288208,20.7863 5.050296,3.6665 10.019772,5.68961 17.099473,7.97461 7.079698,2.285 16.723661,4.28751 25.307221,4.83706 7.15745,0.45825 14.50935,0.3234 21.47695,-1.30731 0,0 8.83306,-2.74884 13.40599,-3.13756 5.12835,-0.43593 10.33822,0.0691 15.41246,0.93054 2.81898,0.47856 6.84362,1.83634 8.25322,2.33775 4.73963,1.68598 8.68287,5.19933 13.54278,6.53656 10.45583,2.87702 21.64314,2.22123 32.50072,2.89694 12.08524,0.75212 24.17551,1.63265 36.30756,1.28649 6.67002,-0.19033 13.30309,1.0893 19.97218,1.3073 9.11815,0.60491 29.07805,4.31211 37.75565,-8.62827 6.73775,-10.0476 -10.49801,-21.82984 -25.03363,-26.277 -9.68476,-3.48734 -19.42028,-2.99323 -29.13752,-2.09172 6.11277,-6.12167 18.67248,-5.75668 26.5384,-11.11216 7.27982,-4.95645 13.92747,-11.31905 18.19383,-18.82531 2.19905,-3.86904 0.41597,-19.41221 -3.25515,-24.53474 -3.19986,-4.46494 -12.88373,-13.07531 -16.23015,-15.62453 0.32929,-2.45676 8.27764,-6.8473 11.68794,-10.95672 5.57808,-6.72159 6.65467,-11.89821 14.08997,-22.09357 1.34138,9.77186 0.90717,21.49364 4.24067,31.63697 3.12897,9.52102 10.157,17.46313 14.50036,26.53848 3.71209,7.75631 6.86886,15.75367 9.8493,23.7931 5.23516,14.1214 10.44422,28.30919 14.08996,42.87989 0.64505,2.57803 1.20789,7.75232 2.23852,10.43224 6.20784,2.78699 9.29202,3.44792 14.0556,3.73161 14.05056,0.2074 17.94487,0.47808 36.37226,0.47808 7.39815,-3.06085 4.45272,-3.04278 5.33505,-5.35999 0.99985,-2.62593 0.51899,-5.76482 -0.54718,-8.36682 -1.39447,-3.40313 -4.30698,-6.16391 -7.25019,-8.49754 -5.87313,-4.6567 -15.21863,-4.85975 -20.10898,-10.4585 -3.07708,-3.52279 -3.65002,-8.55922 -4.51427,-13.07314 -2.85055,-14.88821 -0.81124,-30.27492 -2.05193,-45.36378 -0.66155,-8.04545 -2.0312,-16.02451 -2.87271,-24.05459 -0.52904,-5.04843 -1.58569,-10.09541 -1.36796,-15.16485 0.4249,-9.8924 1.78319,-19.93646 5.19824,-29.28382 0,0 10.77202,-25.32379 14.08996,-38.56576 1.77935,-7.10136 3.58168,-14.54286 4.10389,-21.96287 0.70272,-9.98514 -0.16163,-22.27571 -1.36797,-33.3365 -1.15558,-10.59558 -3.63315,-21.02189 -5.60863,-31.50625 -1.81784,-9.64777 -4.93998,-19.11899 -5.74541,-28.89164 -0.35105,-4.25937 -0.81751,-8.70343 0.41038,-12.81168 1.62176,-5.42602 5.07871,-10.33317 8.89171,-14.64192 3.59667,-4.06426 8.04616,-7.51769 12.85882,-10.19705 6.44689,-3.58916 14.48682,-3.98678 20.92976,-7.5824 3.69045,-2.05957 7.08474,-4.72935 9.8493,-7.843896 3.7284,-4.200468 6.95966,-9.015576 8.75493,-14.249722 1.94184,-5.661418 2.18411,-11.827198 1.91514,-17.779455 -0.13621,-3.014107 1.40499,-7.772271 1.40499,-7.772271 -4.77681,-2.270113 -18.4081,0.151364 -26.02823,-0.07162 -9.62846,-0.281755 -19.62177,-0.0018 -28.72713,-3.00682 z"
         id="path1"
         sodipodi:nodetypes="sssascasasssssssscasszssaassssssscssscacaasscccsassssssssssssssssssscsss" />
      <path
         style="fill:none;fill-opacity:1;stroke:#cfff04;stroke-width:15.4961;stroke-linecap:round;stroke-linejoin:miter;stroke-dasharray:none;stroke-opacity:1;paint-order:normal"
         d="m 300.15437,164.50353 c 0,0 10.07608,6.83786 15.76185,8.61275 9.31466,2.9077 19.31082,3.24051 29.03498,3.01446 7.6825,-0.17859 22.8132,-3.4451 22.8132,-3.4451"
         id="path3"
         sodipodi:nodetypes="cssc" />
    </g>
  </g>
  <g
     inkscape:groupmode="layer"
     id="layer2"
     inkscape:label="Pointer Outline"
     transform="translate(-6.2249112,-15.478045)">
    <path
       style="fill:none;fill-opacity:1;stroke:#ffff33;stroke-width:65.3858;stroke-linecap:round;stroke-linejoin:miter;stroke-dasharray:none;stroke-opacity:1;paint-order:normal"
       d="m 45.630063,455.48724 c 0,36.2945 326.369927,-75.48724 409.445197,-200.77747 2.71346,-4.09231 1.03362,-10.69023 -1.89,-14.65354 C 371.99999,130 38.917813,21.788837 38.917813,53.932305 c 0,33.462907 20.807872,16.73146 41.615744,83.657275 20.807873,66.92583 19.924313,169.70756 0,250.97183 -5.988539,24.42521 -34.903494,39.66717 -34.903494,66.92583 z"
       id="path4"
       sodipodi:nodetypes="sssssss" />
  </g>
</svg>
