<svg xmlns="http://www.w3.org/2000/svg" fill="none" viewBox="-0.835 -0.835 40 40" id="Bookmarks-Document--Streamline-Ultimate" height="40" width="40">
  <desc>
    Bookmarks Document Streamline Icon: https://streamlinehq.com
  </desc>
  <path fill="#e5dada" d="M34.5372465 3.793072916666667c0.3882509583333334 0 0.7606907916666668 0.15424630833333333 1.0350697083333333 0.42878493333333334 0.27453862500000004 0.27455459583333336 0.42881687500000004 0.6469305458333333 0.42881687500000004 1.0352134458333335V34.53692708333333c0 0.3882509583333334 -0.15427825 0.7606907916666668 -0.42881687500000004 1.0352294166666667 -0.2743789166666667 0.2743789166666667 -0.6468187500000001 0.42881687500000004 -1.0350697083333333 0.42881687500000004H3.7933284500000006c-0.38828290000000004 0 -0.7606428791666667 -0.15443795833333332 -1.035197475 -0.42881687500000004 -0.27455459583333336 -0.27453862500000004 -0.42878493333333334 -0.6469784583333333 -0.42878493333333334 -1.0352294166666667V5.257071295833334c0 -0.38828290000000004 0.1542303375 -0.76065885 0.42878493333333334 -1.0352134458333335 0.27455459583333336 -0.27453862500000004 0.646914575 -0.42878493333333334 1.035197475 -0.42878493333333334H34.5372465Z" stroke-width="1.67"></path>
  <path fill="#ffffff" d="M3.465399329166667 35.962803083333334 35.380506499999996 4.055186233333334c-0.24690908333333333 -0.17312383333333334 -0.5417306666666667 -0.26473253333333335 -0.8432600000000001 -0.26204943333333336H3.7933284500000006c-0.38828290000000004 0 -0.7606428791666667 0.15424630833333333 -1.035197475 0.42878493333333334 -0.27455459583333336 0.27455459583333336 -0.42878493333333334 0.646914575 -0.42878493333333334 1.035197475V34.53692708333333c0.00019165000000000002 0.33123508333333335 0.11262631666666667 0.6525682500000001 0.31896948333333336 0.9114554583333333 0.20632719583333334 0.2590469166666667 0.49437714583333336 0.44047558333333336 0.8170838041666667 0.5144205416666667Z" stroke-width="1.67"></path>
  <path stroke="#16262e" stroke-linecap="round" stroke-linejoin="round" d="M18.433216416666667 3.793072916666667h16.10403008333333c0.3882509583333334 0 0.7606907916666668 0.15424630833333333 1.0350697083333333 0.42878493333333334 0.27453862500000004 0.27455459583333336 0.42881687500000004 0.6469305458333333 0.42881687500000004 1.0352134458333335V34.53692708333333c0 0.3882509583333334 -0.15427825 0.7606907916666668 -0.42881687500000004 1.0352294166666667 -0.2743789166666667 0.2743789166666667 -0.6468187500000001 0.42881687500000004 -1.0350697083333333 0.42881687500000004H3.7933284500000006c-0.38828290000000004 0 -0.7606428791666667 -0.15443795833333332 -1.035197475 -0.42881687500000004 -0.27455459583333336 -0.27453862500000004 -0.42878493333333334 -0.6469784583333333 -0.42878493333333334 -1.0352294166666667V5.257071295833334c0 -0.38828290000000004 0.1542303375 -0.76065885 0.42878493333333334 -1.0352134458333335 0.27455459583333336 -0.27453862500000004 0.646914575 -0.42878493333333334 1.035197475 -0.42878493333333334h4.391979166666667" stroke-width="1.67"></path>
  <path fill="#90e39a" d="M18.432577583333334 16.969010416666666c0 0.8052494166666667 -0.43919791666666674 0.9676727916666668 -0.9646383333333334 0.36317675L13.308734979166667 12.577095133333334l-4.16359625 4.752057575c-0.5314294791666667 0.606093125 -0.9647661 0.43919791666666674 -0.9647661 -0.3615796666666667V3.7916674833333337c0 -0.38826692916666666 0.1542303375 -0.7606428791666667 0.42878493333333334 -1.035197475 0.27455459583333336 -0.27453862500000004 0.6469305458333333 -0.42878493333333334 1.0352134458333335 -0.42878493333333334H16.964219166666666c0.3884106666666667 0 0.7606907916666668 0.15424630833333333 1.035389125 0.42878493333333334 0.27453862500000004 0.27455459583333336 0.42865716666666676 0.6469305458333333 0.42865716666666676 1.035197475l0.004312125000000001 13.177342933333335Z" stroke-width="1.67"></path>
  <path fill="#138a36" d="M18.433056708333336 6.7210217625V3.793040975c0 -0.38828290000000004 -0.15427825 -0.7606428791666667 -0.42881687500000004 -1.035197475 -0.27453862500000004 -0.27455459583333336 -0.6469784583333333 -0.4288009041666667 -1.0352294166666667 -0.4288009041666667H9.6490504625c-0.38828290000000004 0 -0.76065885 0.15424630833333333 -1.0352134458333335 0.4288009041666667 -0.27453862500000004 0.27455459583333336 -0.42878493333333334 0.646914575 -0.42878493333333334 1.035197475v2.9279807875h10.248004625Z" stroke-width="1.67"></path>
  <path stroke="#16262e" stroke-linecap="round" stroke-linejoin="round" d="M18.432577583333334 16.969010416666666c0 0.8052494166666667 -0.43919791666666674 0.9676727916666668 -0.9646383333333334 0.36317675L13.308734979166667 12.577095133333334l-4.16359625 4.752057575c-0.5314294791666667 0.606093125 -0.9647661 0.43919791666666674 -0.9647661 -0.3615796666666667V3.7916674833333337c0 -0.38826692916666666 0.1542303375 -0.7606428791666667 0.42878493333333334 -1.035197475 0.27455459583333336 -0.27453862500000004 0.6469305458333333 -0.42878493333333334 1.0352134458333335 -0.42878493333333334H16.964219166666666c0.3884106666666667 0 0.7606907916666668 0.15424630833333333 1.035389125 0.42878493333333334 0.27453862500000004 0.27455459583333336 0.42865716666666676 0.6469305458333333 0.42865716666666676 1.035197475l0.004312125000000001 13.177342933333335Z" stroke-width="1.67"></path>
  <path stroke="#16262e" stroke-linecap="round" stroke-linejoin="round" d="M22.824716458333334 11.111643408333334h8.783958333333334" stroke-width="1.67"></path>
  <path stroke="#16262e" stroke-linecap="round" stroke-linejoin="round" d="M22.824716458333334 16.967573041666668h8.783958333333334" stroke-width="1.67"></path>
  <path stroke="#16262e" stroke-linecap="round" stroke-linejoin="round" d="M6.721325208333334 22.823598500000003h24.887828708333334" stroke-width="1.67"></path>
  <path stroke="#16262e" stroke-linecap="round" stroke-linejoin="round" d="M6.721325208333334 28.679464250000002h24.151413583333333" stroke-width="1.67"></path>
</svg>