<svg xmlns="http://www.w3.org/2000/svg" fill="none" viewBox="-0.835 -0.835 40 40" id="Book-Search--Streamline-Ultimate" height="40" width="40">
  <desc>
    Book Search Streamline Icon: https://streamlinehq.com
  </desc>
  <path fill="#ffffff" d="M30.623114666666666 7.7076519333333335H6.180824295833334c-0.8102962000000001 0 -1.58743695 -0.32189214583333337 -2.1604065666666665 -0.8948777333333334 -0.5729696166666667 -0.5729696166666667 -0.8948777333333334 -1.3500943958333336 -0.8948777333333334 -2.1604065666666665 0 -0.8103121708333334 0.3219081166666667 -1.58743695 0.8948777333333334 -2.1604065666666665C4.593387345833333 1.9189754791666667 5.3705280958333335 1.5970833333333334 6.180824295833334 1.5970833333333334H30.623114666666666v6.110568600000001Z" stroke-width="1.67"></path>
  <path fill="#3c7a89" d="M32.150724875 9.235326024999999V35.20530645833334c0 0.4050203333333333 -0.16098600000000002 0.7937504166666667 -0.4473430416666667 1.0801074583333334 -0.28651675000000004 0.28651675000000004 -0.675087125 0.44750275 -1.0802671666666668 0.44750275H6.180824295833334c-0.8102962000000001 0 -1.58743695 -0.3218122916666667 -2.1604065666666665 -0.8948457916666668 -0.5729696166666667 -0.5730335000000001 -0.8948777333333334 -1.35017425 -0.8948777333333334 -2.1605343333333336V4.6523995750000005c0 0.8102962000000001 0.3219081166666667 1.5874209791666667 0.8948777333333334 2.1604065666666665 0.5729696166666667 0.5729855875 1.3501103666666667 0.8948777333333334 2.1604065666666665 0.8948777333333334H30.623114666666666c0.40518004166666666 0 0.7937504166666667 0.16095405833333334 1.0802671666666668 0.4474228958333334 0.28635704166666665 0.28650077916666666 0.4473430416666667 0.6750551833333334 0.4473430416666667 1.0802192541666669Z" stroke-width="1.67"></path>
  <path fill="#e5dada" d="M8.3445847375 33.67753654166667V7.707683875000001H6.1738131c-0.8103281416666668 0 -1.58743695 -0.32189214583333337 -2.1604225375 -0.8948777333333334 -0.5729696166666667 -0.5729855875 -0.8948617625 -1.3501103666666667 -0.8948617625 -2.1604065666666665V33.67753654166667c0 0.8103600833333333 0.32189214583333337 1.5875008333333334 0.8948617625 2.1605343333333336 0.5729855875 0.5730335000000001 1.3500943958333336 0.8948457916666668 2.1604225375 0.8948457916666668h5.226071908333334c-0.8103281416666668 0 -1.58743695 -0.3218122916666667 -2.1604385083333337 -0.8948457916666668 -0.5729696166666667 -0.5730335000000001 -0.8948617625 -1.35017425 -0.8948617625 -2.1605343333333336Z" stroke-width="1.67"></path>
  <path stroke="#16262e" stroke-linecap="round" stroke-linejoin="round" d="M19.295002583333336 36.73291666666667H6.186286320833333c-0.8103121708333334 0 -1.58743695 -0.3218122916666667 -2.1604065666666665 -0.8948457916666668 -0.5729696166666667 -0.5730335000000001 -0.8948777333333334 -1.35017425 -0.8948777333333334 -2.1605343333333336V4.6523995750000005" stroke-width="1.67"></path>
  <path stroke="#16262e" stroke-linecap="round" stroke-linejoin="round" d="M32.15615495833333 1.5970833333333334H6.186286320833333c-0.8103121708333334 0 -1.58743695 0.32189214583333337 -2.1604065666666665 0.8948777333333334 -0.5729696166666667 0.5729696166666667 -0.8948777333333334 1.3500943958333336 -0.8948777333333334 2.1604065666666665 0 0.8103121708333334 0.3219081166666667 1.58743695 0.8948777333333334 2.1604065666666665 0.5729696166666667 0.5729855875 1.3500943958333336 0.8948777333333334 2.1604065666666665 0.8948777333333334H30.628544750000003c0.40518004166666666 0 0.7937504166666667 0.16095405833333334 1.0802671666666668 0.4474388666666667 0.28635704166666665 0.28648480833333334 0.4473430416666667 0.6750551833333334 0.4473430416666667 1.0802032833333333v9.969473291666667" stroke-width="1.67"></path>
  <path stroke="#16262e" stroke-linecap="round" stroke-linejoin="round" d="M6.186366175000001 4.6523995750000005H30.628704458333335" stroke-width="1.67"></path>
  <path fill="#ffffff" stroke="#16262e" stroke-linecap="round" stroke-linejoin="round" d="M25.327186333333334 33.76777175c1.3685407083333334 0 2.706098 -0.405818875 3.843860166666667 -1.1660305416666668 1.1379218750000002 -0.7602116666666666 2.024622541666667 -1.8409579583333335 2.5483061666666664 -3.1050494166666667 0.5235239166666666 -1.2642511666666667 0.6605536666666667 -2.6553107500000004 0.3936810416666667 -3.9974995833333336 -0.2670323333333333 -1.342029125 -0.9258292083333334 -2.5748177500000002 -1.893502 -3.542490541666667 -0.9676727916666668 -0.9675130833333334 -2.2004614166666667 -1.6264696666666667 -3.542490541666667 -1.893502 -1.3421888333333334 -0.26687262500000003 -2.733248416666667 -0.129842875 -3.9974995833333336 0.39384075 -1.2640914583333334 0.5235239166666666 -2.34483775 1.4103842916666667 -3.1048897083333333 2.5481464583333335 -0.7603713750000001 1.1377621666666669 -1.1660305416666668 2.4754791666666667 -1.1660305416666668 3.843860166666667 0 1.8350487500000001 0.7289088333333333 3.5947151666666666 2.0263793333333333 4.892185666666667 1.2976302083333333 1.2974705 3.0572966249999998 2.0265390416666667 4.892185666666667 2.0265390416666667Z" stroke-width="1.67"></path>
  <path stroke="#16262e" stroke-linecap="round" stroke-linejoin="round" d="m35.21121566666667 36.73291666666667 -4.958624333333334 -4.960221416666667" stroke-width="1.67"></path>
  <path fill="#e3e3e3" d="M25.327186333333334 33.76777175c1.3685407083333334 0 2.706098 -0.405818875 3.843860166666667 -1.1660305416666668 1.1379218750000002 -0.7602116666666666 2.024622541666667 -1.8409579583333335 2.5483061666666664 -3.1050494166666667 0.5235239166666666 -1.2642511666666667 0.6605536666666667 -2.6553107500000004 0.3936810416666667 -3.9974995833333336 -0.2670323333333333 -1.342029125 -0.9258292083333334 -2.5748177500000002 -1.893502 -3.542490541666667 -0.9676727916666668 -0.9675130833333334 -2.2004614166666667 -1.6264696666666667 -3.542490541666667 -1.893502 -1.3421888333333334 -0.26687262500000003 -2.733248416666667 -0.129842875 -3.9974995833333336 0.39384075 -1.2640914583333334 0.5235239166666666 -2.34483775 1.4103842916666667 -3.1048897083333333 2.5481464583333335 -0.7603713750000001 1.1377621666666669 -1.1660305416666668 2.4754791666666667 -1.1660305416666668 3.843860166666667 0 1.8350487500000001 0.7289088333333333 3.5947151666666666 2.0263793333333333 4.892185666666667 1.2976302083333333 1.2974705 3.0572966249999998 2.0265390416666667 4.892185666666667 2.0265390416666667Z" stroke-width="1.67"></path>
  <path fill="#ffffff" d="M25.326547500000004 19.92872525c-1.370776625 -0.00015970833333333334 -2.710729541666667 0.4070965416666667 -3.849609666666667 1.1697038333333334 -1.1390398333333334 0.7627670000000001 -2.0257405 1.8467074583333336 -2.547507625 3.1143125 -0.5219268333333333 1.2674453333333333 -0.6552832916666667 2.6616990833333336 -0.38345970833333337 4.0051655833333335 0.27182358333333334 1.3436262083333335 0.9368490833333334 2.5759357083333336 1.9104310833333333 3.540893458333333l9.776865041666667 -9.776865041666667c-0.64106925 -0.6501726250000001 -1.4051139166666669 -1.1663499583333332 -2.247415666666667 -1.51882625s-1.7462509166666667 -0.5340646666666666 -2.6593034583333335 -0.5343840833333334Z" stroke-width="1.67"></path>
  <path stroke="#16262e" stroke-linecap="round" stroke-linejoin="round" d="M25.327186333333334 33.76777175c1.3685407083333334 0 2.706098 -0.405818875 3.843860166666667 -1.1660305416666668 1.1379218750000002 -0.7602116666666666 2.024622541666667 -1.8409579583333335 2.5483061666666664 -3.1050494166666667 0.5235239166666666 -1.2642511666666667 0.6605536666666667 -2.6553107500000004 0.3936810416666667 -3.9974995833333336 -0.2670323333333333 -1.342029125 -0.9258292083333334 -2.5748177500000002 -1.893502 -3.542490541666667 -0.9676727916666668 -0.9675130833333334 -2.2004614166666667 -1.6264696666666667 -3.542490541666667 -1.893502 -1.3421888333333334 -0.26687262500000003 -2.733248416666667 -0.129842875 -3.9974995833333336 0.39384075 -1.2640914583333334 0.5235239166666666 -2.34483775 1.4103842916666667 -3.1048897083333333 2.5481464583333335 -0.7603713750000001 1.1377621666666669 -1.1660305416666668 2.4754791666666667 -1.1660305416666668 3.843860166666667 0 1.8350487500000001 0.7289088333333333 3.5947151666666666 2.0263793333333333 4.892185666666667 1.2976302083333333 1.2974705 3.0572966249999998 2.0265390416666667 4.892185666666667 2.0265390416666667Z" stroke-width="1.67"></path>
  <path stroke="#16262e" stroke-linecap="round" stroke-linejoin="round" d="m35.21121566666667 36.73291666666667 -4.958624333333334 -4.963255875" stroke-width="1.67"></path>
</svg>