<svg xmlns="http://www.w3.org/2000/svg" viewBox="0 0 40 40" id="Cash-Payment-Bill--Streamline-Ultimate" height="40" width="40">
  <desc>
    Cash Payment Bill Streamline Icon: https://streamlinehq.com
  </desc>
  <g id="Cash-Payment-Bill--Streamline-Ultimate.svg">
    <path d="M39.66666666666667 5a2.5 2.5 0 0 0 -2.5 -2.5h-23.333333333333336A2.5 2.5 0 0 0 11.333333333333334 5v13.333333333333334a2.5 2.5 0 0 0 2.5 2.5h23.333333333333336a2.5 2.5 0 0 0 2.5 -2.5Zm-3.3333333333333335 12.083333333333334a0.4166666666666667 0.4166666666666667 0 0 1 -0.4166666666666667 0.4166666666666667H15.083333333333336a0.4166666666666667 0.4166666666666667 0 0 1 -0.4166666666666667 -0.4166666666666667V6.3a0.4166666666666667 0.4166666666666667 0 0 1 0.4166666666666667 -0.4166666666666667h20.833333333333336a0.4166666666666667 0.4166666666666667 0 0 1 0.4166666666666667 0.4166666666666667Z" fill="#ffa62b" stroke-width="1.6667"></path>
    <path d="M22.166666666666668 11.716666666666667a3.3333333333333335 3.3333333333333335 0 1 0 6.666666666666667 0 3.3333333333333335 3.3333333333333335 0 1 0 -6.666666666666667 0" fill="#ffa62b" stroke-width="1.6667"></path>
    <path d="m33.666666666666664 27.550000000000004 -5.883333333333333 1.95a0.38333333333333336 0.38333333333333336 0 0 0 -0.25 0.23333333333333336A3.3333333333333335 3.3333333333333335 0 0 1 24.5 31.666666666666668h-6.666666666666667a0.8333333333333334 0.8333333333333334 0 0 1 -0.8333333333333334 -0.8333333333333334 0.8333333333333334 0.8333333333333334 0 0 1 0.8333333333333334 -0.8333333333333334h6.666666666666667a1.6666666666666667 1.6666666666666667 0 0 0 0 -3.3333333333333335h-5.833333333333334a11.916666666666668 11.916666666666668 0 0 0 -6.666666666666667 -2.5H8.566666666666666a6.666666666666667 6.666666666666667 0 0 0 -2.9833333333333334 0.8333333333333334l-5 2.5166666666666666a0.4166666666666667 0.4166666666666667 0 0 0 -0.21666666666666667 0.3666666666666667v9.000000000000002a0.43333333333333335 0.43333333333333335 0 0 0 0.21666666666666667 0.3666666666666667 0.4166666666666667 0.4166666666666667 0 0 0 0.4166666666666667 0l5.366666666666667 -3.3333333333333335a1.6666666666666667 1.6666666666666667 0 0 1 1.4166666666666667 -0.16666666666666669c16.666666666666668 5.6 11.05 5.616666666666667 29.783333333333335 -3.85a0.8666666666666667 0.8666666666666667 0 0 0 0.1 -1.5666666666666667 4.133333333333334 4.133333333333334 0 0 0 -4 -0.7833333333333333Z" fill="#ffa62b" stroke-width="1.6667"></path>
  </g>
</svg>