<svg xmlns="http://www.w3.org/2000/svg" xmlns:xlink="http://www.w3.org/1999/xlink" width="500" zoomAndPan="magnify" viewBox="0 0 375 374.999991" height="500" preserveAspectRatio="xMidYMid meet" version="1.0"><path fill="#16697a" d="M 291.175781 64.085938 C 285.054688 69.746094 278.84375 75.480469 271.914062 81.882812 C 269.570312 80.382812 266.804688 78.726562 264.148438 76.902344 C 184.722656 22.390625 74.65625 63.117188 51.535156 156.652344 C 32.226562 234.773438 82.460938 303.78125 149.089844 320.972656 C 218.304688 338.828125 285.507812 305.796875 313.085938 240.84375 C 324.351562 214.3125 326.125 186.746094 319.65625 158.890625 C 317.449219 149.402344 317.710938 141.644531 324.257812 134.125 C 327.84375 130.003906 330.492188 125.070312 334.324219 119.371094 C 336.304688 122.199219 338.066406 123.941406 338.917969 126.042969 C 357.90625 172.816406 357.214844 219.476562 333.421875 263.90625 C 299.886719 326.515625 245.820312 357.644531 175.195312 353.667969 C 69.796875 347.730469 3.839844 250.941406 22.1875 157.394531 C 36.945312 82.144531 107.722656 17.40625 200.21875 24.816406 C 230.417969 27.238281 258.105469 37.726562 282.820312 55.542969 C 284.929688 57.0625 286.992188 58.664062 288.925781 60.394531 C 289.699219 61.085938 290.070312 62.222656 291.175781 64.085938 Z M 291.175781 64.085938 " fill-opacity="1" fill-rule="nonzero"/><path fill="#16697a" d="M 182.6875 211.253906 C 191.222656 201.804688 198.515625 193.464844 206.09375 185.390625 C 249.042969 139.601562 291.976562 93.800781 335.132812 48.214844 C 341.746094 41.234375 349.324219 35.125 356.789062 29.019531 C 359.738281 26.609375 363.601562 25.3125 367.046875 23.511719 C 371.167969 29.1875 368.414062 33.164062 366.203125 36.808594 C 357.925781 50.460938 349.804688 64.238281 340.878906 77.460938 C 298.28125 140.566406 255.550781 203.585938 212.527344 266.402344 C 206.925781 274.578125 199.78125 281.882812 192.507812 288.6875 C 185.378906 295.359375 181.679688 295.050781 173.75 289.445312 C 170.425781 287.097656 167.109375 284.578125 164.34375 281.621094 C 136.695312 252.058594 108.925781 222.597656 81.710938 192.640625 C 70.464844 180.265625 72.273438 172.773438 86.714844 164.484375 C 89.285156 163.007812 92.0625 161.898438 94.695312 160.511719 C 109.226562 152.851562 121.824219 153.910156 133.84375 166.5 C 145.875 179.097656 159.351562 190.324219 172.222656 202.113281 C 175.164062 204.816406 178.234375 207.375 182.6875 211.253906 Z M 182.6875 211.253906 " fill-opacity="1" fill-rule="nonzero"/></svg>