<svg xmlns="http://www.w3.org/2000/svg" xmlns:xlink="http://www.w3.org/1999/xlink" width="500" zoomAndPan="magnify" viewBox="0 0 375 374.999991" height="500" preserveAspectRatio="xMidYMid meet" version="1.0"><defs><clipPath id="e9cdaa7f4e"><path d="M 16.105469 16.105469 L 358.855469 16.105469 L 358.855469 358.855469 L 16.105469 358.855469 Z M 16.105469 16.105469 " clip-rule="nonzero"/></clipPath></defs><g clip-path="url(#e9cdaa7f4e)"><path fill="#3c7a89" d="M 189.816406 358.359375 C 212.191406 358.035156 234.402344 353.316406 254.824219 344.53125 C 275.25 335.742188 293.960938 323.050781 309.503906 307.265625 C 325.042969 291.480469 337.574219 272.683594 345.953125 252.261719 C 354.414062 231.839844 358.726562 209.710938 358.726562 187.578125 C 358.726562 209.710938 354.332031 231.839844 345.871094 252.261719 C 337.410156 272.683594 324.71875 291.398438 309.015625 306.859375 C 293.3125 322.398438 274.515625 334.683594 254.09375 342.902344 C 233.671875 351.121094 211.621094 355.105469 189.734375 354.78125 C 167.847656 354.457031 146.125 349.738281 126.109375 341.113281 C 106.175781 332.488281 87.949219 319.875 72.898438 304.417969 C 57.761719 288.957031 45.722656 270.570312 37.667969 250.554688 C 29.53125 230.621094 25.378906 209.058594 25.378906 187.578125 C 25.378906 166.019531 29.53125 144.539062 37.667969 124.601562 C 45.804688 104.667969 57.84375 86.28125 72.898438 70.820312 C 88.03125 55.363281 106.175781 42.75 126.109375 34.128906 C 146.207031 25.339844 167.929688 20.703125 189.816406 20.375 C 211.703125 20.050781 233.753906 24.039062 254.175781 32.253906 C 274.597656 40.390625 293.390625 52.757812 309.175781 68.300781 C 324.878906 83.839844 337.492188 102.472656 346.035156 122.894531 C 354.578125 143.316406 358.890625 165.449219 358.890625 187.578125 C 358.890625 165.449219 354.578125 143.316406 346.117188 122.894531 C 337.652344 102.390625 325.207031 83.675781 309.664062 67.894531 C 294.125 52.109375 275.410156 39.335938 254.988281 30.628906 C 234.402344 21.679688 212.191406 17.039062 189.816406 16.632812 C 167.441406 16.308594 144.902344 20.296875 123.992188 28.675781 C 103.082031 36.976562 83.71875 49.503906 67.527344 65.289062 C 51.335938 81.074219 38.316406 100.195312 29.449219 121.105469 C 20.660156 142.015625 16.105469 164.796875 16.105469 187.496094 C 16.105469 210.199219 20.660156 232.980469 29.53125 253.890625 C 38.316406 274.800781 51.417969 293.921875 67.609375 309.707031 C 83.800781 325.492188 103.082031 338.019531 124.074219 346.320312 C 144.902344 354.699219 167.441406 358.6875 189.816406 358.359375 Z M 189.816406 358.359375 " fill-opacity="1" fill-rule="nonzero"/></g></svg>