<svg xmlns="http://www.w3.org/2000/svg" xmlns:xlink="http://www.w3.org/1999/xlink" width="500" zoomAndPan="magnify" viewBox="0 0 375 374.999991" height="500" preserveAspectRatio="xMidYMid meet" version="1.0"><defs><clipPath id="d1b20f9523"><path d="M 12 13 L 363 13 L 363 364.449219 L 12 364.449219 Z M 12 13 " clip-rule="nonzero"/></clipPath></defs><g clip-path="url(#d1b20f9523)"><path fill="#e5dada" d="M 232.441406 189.082031 L 353.433594 68.089844 C 365.878906 55.644531 365.878906 35.585938 353.433594 23.144531 C 340.992188 10.699219 320.933594 10.699219 308.492188 23.144531 L 187.496094 144.140625 L 66.5 23.144531 C 54.058594 10.699219 33.996094 10.699219 21.554688 23.144531 C 9.113281 35.585938 9.113281 55.644531 21.554688 68.089844 L 142.550781 189.082031 L 21.554688 310.078125 C 9.113281 322.523438 9.113281 342.582031 21.554688 355.023438 C 27.777344 361.246094 35.902344 364.292969 44.027344 364.292969 C 52.152344 364.292969 60.277344 361.246094 66.5 355.023438 L 187.496094 234.027344 L 308.492188 355.023438 C 314.710938 361.246094 322.835938 364.292969 330.960938 364.292969 C 339.089844 364.292969 347.214844 361.246094 353.433594 355.023438 C 365.878906 342.582031 365.878906 322.523438 353.433594 310.078125 Z M 232.441406 189.082031 " fill-opacity="1" fill-rule="nonzero"/></g></svg>