<svg xmlns="http://www.w3.org/2000/svg" xmlns:xlink="http://www.w3.org/1999/xlink" width="500" zoomAndPan="magnify" viewBox="0 0 375 374.999991" height="500" preserveAspectRatio="xMidYMid meet" version="1.0"><defs><clipPath id="f97451fafb"><path d="M 33.367188 75.429688 L 329.617188 75.429688 L 329.617188 337.179688 L 33.367188 337.179688 Z M 33.367188 75.429688 " clip-rule="nonzero"/></clipPath><clipPath id="2dd7b9a5a3"><path d="M 198.484375 37.5 L 341.632812 37.5 L 341.632812 139.078125 L 198.484375 139.078125 Z M 198.484375 37.5 " clip-rule="nonzero"/></clipPath><clipPath id="24d9a566c1"><path d="M 0.484375 0.5 L 143.632812 0.5 L 143.632812 102.078125 L 0.484375 102.078125 Z M 0.484375 0.5 " clip-rule="nonzero"/></clipPath><clipPath id="d2153f8b42"><rect x="0" width="144" y="0" height="103"/></clipPath><clipPath id="dd64a6712a"><path d="M 103.203125 37.5 L 339 37.5 L 339 254 L 103.203125 254 Z M 103.203125 37.5 " clip-rule="nonzero"/></clipPath></defs><g clip-path="url(#f97451fafb)"><path fill="#154854" d="M 329.832031 265.332031 L 329.832031 98.191406 C 329.832031 97.445312 329.796875 96.699219 329.722656 95.960938 C 329.648438 95.21875 329.539062 94.480469 329.394531 93.75 C 329.25 93.019531 329.066406 92.296875 328.851562 91.582031 C 328.636719 90.871094 328.382812 90.167969 328.097656 89.480469 C 327.8125 88.789062 327.496094 88.117188 327.144531 87.460938 C 326.792969 86.804688 326.410156 86.164062 325.996094 85.542969 C 325.582031 84.925781 325.136719 84.328125 324.664062 83.75 C 324.191406 83.175781 323.691406 82.621094 323.164062 82.09375 C 322.636719 81.566406 322.085938 81.066406 321.511719 80.59375 C 320.933594 80.121094 320.335938 79.679688 319.714844 79.265625 C 319.097656 78.851562 318.457031 78.46875 317.800781 78.117188 C 317.140625 77.765625 316.46875 77.445312 315.78125 77.160156 C 315.089844 76.875 314.390625 76.625 313.675781 76.410156 C 312.964844 76.191406 312.242188 76.011719 311.511719 75.867188 C 310.78125 75.71875 310.042969 75.609375 309.300781 75.539062 C 308.558594 75.464844 307.816406 75.429688 307.070312 75.429688 L 56.207031 75.429688 C 55.460938 75.429688 54.714844 75.464844 53.972656 75.539062 C 53.230469 75.609375 52.496094 75.71875 51.765625 75.867188 C 51.035156 76.011719 50.3125 76.191406 49.597656 76.410156 C 48.882812 76.625 48.183594 76.875 47.496094 77.160156 C 46.804688 77.445312 46.132812 77.765625 45.476562 78.117188 C 44.816406 78.46875 44.179688 78.851562 43.558594 79.265625 C 42.941406 79.679688 42.339844 80.121094 41.765625 80.59375 C 41.1875 81.066406 40.636719 81.566406 40.109375 82.09375 C 39.582031 82.621094 39.082031 83.175781 38.609375 83.75 C 38.136719 84.328125 37.695312 84.925781 37.28125 85.542969 C 36.867188 86.164062 36.484375 86.804688 36.132812 87.460938 C 35.78125 88.117188 35.460938 88.789062 35.175781 89.480469 C 34.890625 90.167969 34.640625 90.871094 34.421875 91.582031 C 34.207031 92.296875 34.027344 93.019531 33.878906 93.75 C 33.734375 94.480469 33.625 95.21875 33.554688 95.960938 C 33.480469 96.699219 33.445312 97.445312 33.445312 98.191406 L 33.445312 265.332031 C 33.445312 266.078125 33.480469 266.820312 33.554688 267.5625 C 33.625 268.304688 33.734375 269.042969 33.878906 269.773438 C 34.027344 270.503906 34.207031 271.226562 34.421875 271.9375 C 34.640625 272.652344 34.890625 273.351562 35.175781 274.042969 C 35.460938 274.730469 35.78125 275.402344 36.132812 276.0625 C 36.484375 276.71875 36.867188 277.359375 37.28125 277.976562 C 37.695312 278.597656 38.136719 279.195312 38.609375 279.773438 C 39.082031 280.347656 39.582031 280.898438 40.109375 281.425781 C 40.636719 281.953125 41.1875 282.453125 41.765625 282.925781 C 42.339844 283.398438 42.941406 283.84375 43.558594 284.257812 C 44.179688 284.671875 44.816406 285.054688 45.476562 285.40625 C 46.132812 285.757812 46.804688 286.074219 47.496094 286.359375 C 48.183594 286.644531 48.882812 286.898438 49.597656 287.113281 C 50.3125 287.328125 51.035156 287.511719 51.765625 287.65625 C 52.496094 287.800781 53.230469 287.910156 53.972656 287.984375 C 54.714844 288.058594 55.460938 288.09375 56.207031 288.09375 L 150.582031 288.09375 L 150.582031 301.265625 C 150.582031 301.867188 150.554688 302.464844 150.492188 303.066406 C 150.433594 303.664062 150.347656 304.257812 150.230469 304.847656 C 150.113281 305.4375 149.964844 306.019531 149.792969 306.597656 C 149.617188 307.171875 149.414062 307.738281 149.183594 308.292969 C 148.953125 308.851562 148.695312 309.394531 148.414062 309.921875 C 148.128906 310.453125 147.820312 310.96875 147.488281 311.46875 C 147.152344 311.96875 146.792969 312.453125 146.414062 312.917969 C 146.03125 313.382812 145.628906 313.828125 145.203125 314.253906 C 144.777344 314.679688 144.332031 315.082031 143.867188 315.464844 C 143.402344 315.84375 142.917969 316.203125 142.417969 316.539062 C 141.917969 316.871094 141.402344 317.179688 140.871094 317.464844 C 140.34375 317.746094 139.800781 318.003906 139.242188 318.234375 C 138.6875 318.464844 138.121094 318.667969 137.546875 318.84375 C 136.96875 319.015625 136.386719 319.164062 135.796875 319.28125 C 135.207031 319.398438 134.613281 319.484375 134.015625 319.542969 C 133.414062 319.601562 132.816406 319.632812 132.214844 319.632812 L 111.660156 319.632812 C 111.074219 319.632812 110.492188 319.660156 109.910156 319.71875 C 109.328125 319.777344 108.75 319.863281 108.175781 319.976562 C 107.601562 320.089844 107.035156 320.230469 106.476562 320.402344 C 105.914062 320.570312 105.367188 320.769531 104.824219 320.992188 C 104.285156 321.214844 103.757812 321.464844 103.242188 321.742188 C 102.726562 322.015625 102.222656 322.316406 101.738281 322.644531 C 101.25 322.96875 100.78125 323.316406 100.328125 323.6875 C 99.878906 324.058594 99.445312 324.449219 99.03125 324.863281 C 98.617188 325.277344 98.226562 325.710938 97.855469 326.164062 C 97.484375 326.613281 97.136719 327.082031 96.808594 327.570312 C 96.484375 328.054688 96.183594 328.558594 95.910156 329.074219 C 95.632812 329.589844 95.382812 330.117188 95.160156 330.65625 C 94.9375 331.199219 94.738281 331.75 94.570312 332.308594 C 94.398438 332.867188 94.257812 333.433594 94.144531 334.007812 C 94.027344 334.582031 93.945312 335.160156 93.886719 335.742188 C 93.828125 336.324219 93.800781 336.90625 93.800781 337.492188 L 269.476562 337.492188 C 269.476562 336.90625 269.449219 336.324219 269.390625 335.742188 C 269.335938 335.160156 269.25 334.582031 269.132812 334.007812 C 269.019531 333.433594 268.878906 332.867188 268.707031 332.308594 C 268.539062 331.746094 268.34375 331.199219 268.117188 330.65625 C 267.894531 330.117188 267.644531 329.589844 267.367188 329.074219 C 267.09375 328.558594 266.792969 328.054688 266.46875 327.570312 C 266.144531 327.082031 265.792969 326.613281 265.421875 326.164062 C 265.050781 325.710938 264.660156 325.277344 264.246094 324.863281 C 263.832031 324.449219 263.398438 324.058594 262.949219 323.6875 C 262.496094 323.316406 262.027344 322.96875 261.539062 322.644531 C 261.054688 322.316406 260.554688 322.015625 260.039062 321.742188 C 259.519531 321.464844 258.992188 321.214844 258.453125 320.992188 C 257.914062 320.769531 257.363281 320.570312 256.800781 320.402344 C 256.242188 320.230469 255.675781 320.089844 255.101562 319.976562 C 254.527344 319.863281 253.949219 319.777344 253.367188 319.71875 C 252.785156 319.660156 252.203125 319.632812 251.617188 319.632812 L 231.0625 319.632812 C 230.460938 319.632812 229.859375 319.601562 229.261719 319.542969 C 228.664062 319.484375 228.066406 319.398438 227.476562 319.28125 C 226.886719 319.164062 226.304688 319.015625 225.730469 318.84375 C 225.152344 318.667969 224.585938 318.464844 224.03125 318.234375 C 223.476562 318.003906 222.933594 317.746094 222.402344 317.464844 C 221.871094 317.179688 221.355469 316.871094 220.855469 316.539062 C 220.355469 316.203125 219.875 315.84375 219.410156 315.464844 C 218.945312 315.082031 218.5 314.679688 218.074219 314.253906 C 217.648438 313.828125 217.242188 313.382812 216.863281 312.917969 C 216.480469 312.453125 216.121094 311.96875 215.789062 311.46875 C 215.453125 310.96875 215.144531 310.453125 214.863281 309.921875 C 214.578125 309.394531 214.320312 308.851562 214.089844 308.292969 C 213.859375 307.738281 213.660156 307.171875 213.484375 306.597656 C 213.308594 306.019531 213.164062 305.4375 213.046875 304.847656 C 212.929688 304.257812 212.839844 303.664062 212.78125 303.066406 C 212.722656 302.46875 212.691406 301.867188 212.691406 301.265625 L 212.691406 288.09375 L 307.070312 288.09375 C 307.816406 288.09375 308.558594 288.058594 309.300781 287.984375 C 310.042969 287.910156 310.78125 287.800781 311.511719 287.65625 C 312.242188 287.511719 312.964844 287.328125 313.675781 287.113281 C 314.390625 286.898438 315.089844 286.644531 315.78125 286.359375 C 316.46875 286.074219 317.140625 285.757812 317.800781 285.40625 C 318.457031 285.054688 319.097656 284.671875 319.714844 284.257812 C 320.335938 283.84375 320.933594 283.398438 321.507812 282.925781 C 322.085938 282.453125 322.636719 281.953125 323.164062 281.425781 C 323.691406 280.898438 324.191406 280.347656 324.664062 279.773438 C 325.136719 279.195312 325.582031 278.597656 325.996094 277.976562 C 326.410156 277.359375 326.792969 276.71875 327.144531 276.0625 C 327.496094 275.402344 327.8125 274.730469 328.097656 274.042969 C 328.382812 273.355469 328.636719 272.652344 328.851562 271.9375 C 329.066406 271.226562 329.25 270.503906 329.394531 269.773438 C 329.539062 269.042969 329.648438 268.304688 329.722656 267.5625 C 329.796875 266.820312 329.832031 266.078125 329.832031 265.332031 Z M 47.335938 256.929688 L 47.335938 99.179688 C 47.335938 98.554688 47.398438 97.929688 47.519531 97.316406 C 47.644531 96.699219 47.824219 96.101562 48.066406 95.519531 C 48.304688 94.941406 48.601562 94.386719 48.949219 93.867188 C 49.296875 93.34375 49.695312 92.859375 50.140625 92.417969 C 50.582031 91.972656 51.066406 91.574219 51.589844 91.226562 C 52.113281 90.878906 52.664062 90.582031 53.242188 90.34375 C 53.824219 90.101562 54.421875 89.921875 55.039062 89.796875 C 55.652344 89.675781 56.277344 89.613281 56.90625 89.613281 L 306.371094 89.613281 C 307 89.613281 307.621094 89.675781 308.238281 89.796875 C 308.851562 89.921875 309.453125 90.101562 310.03125 90.34375 C 310.613281 90.582031 311.164062 90.878906 311.6875 91.226562 C 312.207031 91.574219 312.691406 91.972656 313.136719 92.417969 C 313.582031 92.859375 313.976562 93.34375 314.324219 93.867188 C 314.675781 94.386719 314.96875 94.941406 315.210938 95.519531 C 315.449219 96.101562 315.632812 96.699219 315.753906 97.316406 C 315.878906 97.929688 315.9375 98.554688 315.9375 99.179688 L 315.9375 256.929688 C 315.9375 257.558594 315.878906 258.179688 315.753906 258.796875 C 315.632812 259.414062 315.449219 260.011719 315.210938 260.59375 C 314.96875 261.171875 314.675781 261.722656 314.324219 262.246094 C 313.976562 262.769531 313.582031 263.25 313.136719 263.695312 C 312.691406 264.140625 312.207031 264.535156 311.6875 264.886719 C 311.164062 265.234375 310.613281 265.53125 310.03125 265.769531 C 309.453125 266.011719 308.851562 266.191406 308.238281 266.3125 C 307.621094 266.4375 307 266.496094 306.371094 266.496094 L 56.90625 266.496094 C 56.277344 266.496094 55.652344 266.4375 55.039062 266.3125 C 54.421875 266.191406 53.824219 266.011719 53.242188 265.769531 C 52.664062 265.53125 52.113281 265.234375 51.589844 264.886719 C 51.066406 264.535156 50.582031 264.140625 50.140625 263.695312 C 49.695312 263.25 49.296875 262.769531 48.949219 262.246094 C 48.601562 261.722656 48.304688 261.171875 48.066406 260.59375 C 47.824219 260.011719 47.644531 259.414062 47.519531 258.796875 C 47.398438 258.179688 47.335938 257.558594 47.335938 256.929688 Z M 47.335938 256.929688 " fill-opacity="1" fill-rule="nonzero"/></g><g clip-path="url(#2dd7b9a5a3)"><g transform="matrix(1, 0, 0, 1, 198, 37)"><g clip-path="url(#d2153f8b42)"><g clip-path="url(#24d9a566c1)"><path fill="#ffffff" d="M 0.484375 0.5 L 143.722656 0.5 L 143.722656 102.078125 L 0.484375 102.078125 Z M 0.484375 0.5 " fill-opacity="1" fill-rule="nonzero"/></g></g></g></g><g clip-path="url(#dd64a6712a)"><path fill="#3c7a89" d="M 334.789062 37.613281 L 327.804688 39.226562 C 323.515625 40.507812 318.960938 42.371094 314.140625 44.8125 L 306.714844 48.914062 C 301.628906 51.9375 296.28125 55.542969 290.664062 59.726562 C 279.433594 68.097656 267.140625 78.792969 253.789062 91.808594 C 221.109375 124.554688 192.128906 160.527344 166.847656 199.726562 C 162.359375 190.277344 155.65625 179.160156 146.734375 166.382812 C 141.984375 159.945312 137.09375 155.089844 132.0625 151.820312 C 126.449219 151.144531 117.222656 155.304688 104.386719 164.300781 C 103.566406 165.539062 103.367188 166.496094 103.785156 167.175781 C 115.308594 178.953125 123.363281 188.738281 127.949219 196.53125 C 136.503906 209.949219 145.480469 228.765625 154.875 252.988281 C 155.398438 253.800781 156.058594 254.074219 156.851562 253.8125 L 187.484375 234.523438 C 188.941406 233.519531 190.335938 232.179688 191.667969 230.503906 C 207.070312 187.214844 225.4375 152.011719 246.777344 124.886719 C 253.207031 115.746094 269.058594 99.613281 294.328125 76.492188 C 304.5625 67.371094 319.140625 56.304688 338.058594 43.289062 C 339.15625 40.804688 338.066406 38.914062 334.789062 37.613281 " fill-opacity="0.996" fill-rule="nonzero"/></g></svg>