<?xml version="1.0" encoding="UTF-8" standalone="no"?>
<!-- Created with Inkscape (http://www.inkscape.org/) -->

<svg
   width="466.08017"
   height="470.91037"
   viewBox="0 0 123.31704 124.59504"
   version="1.1"
   id="svg1"
   inkscape:export-filename="..\..\Desktop\master\topLevelProject\baseapp\static\baseapp\images\dot.svg"
   inkscape:export-xdpi="96"
   inkscape:export-ydpi="96"
   inkscape:version="1.3.2 (091e20e, 2023-11-25, custom)"
   sodipodi:docname="m-icon.svg"
   xmlns:inkscape="http://www.inkscape.org/namespaces/inkscape"
   xmlns:sodipodi="http://sodipodi.sourceforge.net/DTD/sodipodi-0.dtd"
   xmlns="http://www.w3.org/2000/svg"
   xmlns:svg="http://www.w3.org/2000/svg">
  <sodipodi:namedview
     id="namedview1"
     pagecolor="#ffffff"
     bordercolor="#000000"
     borderopacity="0.25"
     inkscape:showpageshadow="2"
     inkscape:pageopacity="0.0"
     inkscape:pagecheckerboard="0"
     inkscape:deskcolor="#d1d1d1"
     inkscape:document-units="mm"
     showgrid="true"
     inkscape:zoom="1.2176379"
     inkscape:cx="354.37465"
     inkscape:cy="245.96804"
     inkscape:window-width="1920"
     inkscape:window-height="1057"
     inkscape:window-x="1912"
     inkscape:window-y="-8"
     inkscape:window-maximized="1"
     inkscape:current-layer="layer1">
    <inkscape:grid
       type="axonomgrid"
       id="grid1"
       units="px"
       originx="-2.499563"
       originy="-3.848286"
       spacingx="0"
       spacingy="5.2916666"
       empcolor="#0099e5"
       empopacity="0.30196078"
       color="#0089cd"
       opacity="0.14901961"
       empspacing="3"
       dotted="false"
       gridanglex="30"
       gridanglez="30"
       visible="true" />
  </sodipodi:namedview>
  <defs
     id="defs1" />
  <g
     inkscape:label="Layer 1"
     inkscape:groupmode="layer"
     id="layer1"
     transform="translate(-2.4995631,-3.8482858)">
    <path
       id="path4"
       style="fill:#000005;fill-opacity:0.980031;stroke:none;stroke-width:7;stroke-linecap:round"
       d="M 64.073608,3.8483439 A 61.658386,62.297348 0 0 0 2.499589,66.202677 61.658386,62.297348 0 0 0 64.186263,128.44332 61.658386,62.297348 0 0 0 125.81661,66.145833 l -5.2e-4,-0.113688 A 61.658386,62.297348 0 0 0 64.073608,3.8483439 Z M 57.258521,18.344617 h 13.799157 c 2.104691,0 3.798735,1.614365 3.798735,3.619934 v 33.482711 h 33.482707 c 2.00557,0 3.62045,1.694562 3.62045,3.799251 v 13.798641 c 0,2.104689 -1.61488,3.799251 -3.62045,3.799251 H 74.856413 v 33.482715 c 0,2.00556 -1.694044,3.61993 -3.798735,3.61993 H 57.258521 c -2.104692,0 -3.799252,-1.61437 -3.799252,-3.61993 V 76.844405 H 19.976558 c -2.005567,0 -3.619934,-1.694562 -3.619934,-3.799251 V 59.246513 c 0,-2.104689 1.614367,-3.799251 3.619934,-3.799251 H 53.459269 V 21.964551 c 0,-2.005569 1.69456,-3.619934 3.799252,-3.619934 z" />
  </g>
</svg>
