<?xml version="1.0" encoding="UTF-8" standalone="no"?>
<!-- Created with Inkscape (http://www.inkscape.org/) -->

<svg
   width="297mm"
   height="210mm"
   viewBox="0 0 297 210"
   version="1.1"
   id="svg1"
   xmlns:inkscape="http://www.inkscape.org/namespaces/inkscape"
   xmlns:sodipodi="http://sodipodi.sourceforge.net/DTD/sodipodi-0.dtd"
   xmlns="http://www.w3.org/2000/svg"
   xmlns:svg="http://www.w3.org/2000/svg">
  <sodipodi:namedview
     id="namedview1"
     pagecolor="#ffffff"
     bordercolor="#000000"
     borderopacity="0.25"
     inkscape:showpageshadow="2"
     inkscape:pageopacity="0.0"
     inkscape:pagecheckerboard="0"
     inkscape:deskcolor="#d1d1d1"
     inkscape:document-units="mm"
     showgrid="true">
    <inkscape:grid
       type="axonomgrid"
       id="grid1"
       units="px"
       originx="0"
       originy="0"
       spacingx="0"
       spacingy="7.9375"
       empcolor="#0099e5"
       empopacity="0.30196078"
       color="#0099e5"
       opacity="0.14901961"
       empspacing="1"
       dotted="false"
       gridanglex="30"
       gridanglez="30"
       visible="true"
       snapvisiblegridlinesonly="false" />
  </sodipodi:namedview>
  <defs
     id="defs1" />
  <g
     inkscape:label="Layer 1"
     inkscape:groupmode="layer"
     id="layer1">
    <path
       id="path1"
       style="fill:#263542;stroke:#263542;stroke-width:4.99999;stroke-linecap:round"
       d="M 151.78298,7.4119507 A 106.71197,97.588074 0 0 0 45.216878,105.08919 106.71197,97.588074 0 0 0 128.98127,200.05135 V 118.66666 H 94.818502 V 95.260852 l 32.198548,-0.326595 c 0,0 -1.33947,-24.143713 5.29787,-34.495569 4.95067,-7.721255 13.27296,-17.999328 23.67504,-20.689693 13.25461,-3.428138 41.14478,-2.069641 41.14478,-2.069641 l 0.51779,23.097298 c 0,0 -10.22541,0.190862 -19.2412,0.287838 -7.84235,0.08436 -13.46947,3.358965 -15.94528,6.621301 -5.05177,6.656655 -3.7083,25.571566 -3.7083,25.571566 l 38.54959,-0.933793 -8.54057,26.038206 -25.62221,0.30489 0.5054,83.15358 a 106.71197,97.588074 0 0 0 94.9911,-96.82045 l -5.2e-4,-0.17776 A 106.71197,97.588074 0 0 0 151.78298,7.4119507 Z" />
  </g>
</svg>
