<svg xmlns="http://www.w3.org/2000/svg" fill="none" viewBox="-1.25 -1.25 40 40" id="Facebook-1--Streamline-Plump" height="40" width="40">
  <desc>
    Facebook 1 Streamline Icon: https://streamlinehq.com
  </desc>
  <g id="facebook-1--media-facebook-social">
    <path id="Rectangle 1097" fill="#62a2ce" d="M2.7648437500000003 31.04921875c0.1625 1.9960937500000002 1.6898437499999999 3.5234375 3.6859375 3.6859375C8.97265625 34.93984375 12.996875 35.15625 18.75 35.15625c5.753125 0 9.77734375 -0.21640625000000002 12.29921875 -0.42109375000000004 1.9960937500000002 -0.1625 3.5234375 -1.6898437499999999 3.6859375 -3.6859375C34.93984375 28.52734375 35.15625 24.503125 35.15625 18.75c0 -5.753125 -0.21640625000000002 -9.77734375 -0.42109375000000004 -12.29921875 -0.1625 -1.9960937500000002 -1.6898437499999999 -3.5234375 -3.6859375 -3.6859375C28.52734375 2.56015625 24.503125 2.34375 18.75 2.34375c-5.753125 0 -9.77734375 0.21640625000000002 -12.29921875 0.42109375000000004 -1.9960937500000002 0.1625 -3.5234375 1.6898437499999999 -3.6859375 3.6859375C2.56015625 8.97265625 2.34375 12.996875 2.34375 18.75c0 5.753125 0.21640625000000002 9.77734375 0.42109375000000004 12.29921875Z" stroke-width="2.5"></path>
    <path id="Intersect" fill="#ffffff" d="M23.059375 35.11328125V23.46875h4.32734375c0.69375 0 1.3179687500000001 -0.45625 1.41953125 -1.14296875a10.046875 10.046875 0 0 0 -0.01171875 -2.90234375c-0.1 -0.6734375 -0.7000000000000001 -1.1171875 -1.38125 -1.1171875h-4.3539062500000005c0 -3.9015625 0.64921875 -4.46875 4.30859375 -4.53984375 0.70234375 -0.013281250000000001 1.33203125 -0.4765625 1.434375 -1.171875 0.171875 -1.16796875 0.10312500000000001 -2.1890625 -0.0046875 -2.90625 -0.09921875 -0.6640625 -0.69375 -1.09609375 -1.3640625 -1.08984375 -6.46796875 0.056249999999999994 -10.1515625 0.82109375 -10.1515625 9.7078125h-3.35c-0.6515624999999999 0 -1.2296875 0.4078125 -1.328125 1.0515625000000002 -0.10625000000000001 0.69375 -0.1703125 1.6992187499999998 0.007031249999999999 2.921875 0.1015625 0.70625 0.7374999999999999 1.1890625 1.4515625 1.1890625h3.21953125v11.68359375a218.26015625 218.26015625 0 0 0 5.77734375 -0.0390625Z" stroke-width="2.5"></path>
    <path id="Rectangle 1096" stroke="#2d6a9c" stroke-linecap="round" stroke-linejoin="round" d="M2.7648437500000003 31.04921875c0.1625 1.9960937500000002 1.6898437499999999 3.5234375 3.6859375 3.6859375C8.97265625 34.93984375 12.996875 35.15625 18.75 35.15625c5.753125 0 9.77734375 -0.21640625000000002 12.29921875 -0.42109375000000004 1.9960937500000002 -0.1625 3.5234375 -1.6898437499999999 3.6859375 -3.6859375C34.93984375 28.52734375 35.15625 24.503125 35.15625 18.75c0 -5.753125 -0.21640625000000002 -9.77734375 -0.42109375000000004 -12.29921875 -0.1625 -1.9960937500000002 -1.6898437499999999 -3.5234375 -3.6859375 -3.6859375C28.52734375 2.56015625 24.503125 2.34375 18.75 2.34375c-5.753125 0 -9.77734375 0.21640625000000002 -12.29921875 0.42109375000000004 -1.9960937500000002 0.1625 -3.5234375 1.6898437499999999 -3.6859375 3.6859375C2.56015625 8.97265625 2.34375 12.996875 2.34375 18.75c0 5.753125 0.21640625000000002 9.77734375 0.42109375000000004 12.29921875Z" stroke-width="2.5"></path>
    <path id="Intersect_2" stroke="#2d6a9c" stroke-linecap="round" stroke-linejoin="round" d="M23.059375 35.112500000000004V23.46875h4.32734375c0.69375 0 1.3179687500000001 -0.45703125 1.41953125 -1.14296875a10.0453125 10.0453125 0 0 0 -0.01171875 -2.90234375c-0.1 -0.6734375 -0.7000000000000001 -1.1171875 -1.38125 -1.1171875h-4.3539062500000005c0 -3.9015625 0.64921875 -4.46875 4.30859375 -4.53984375 0.70234375 -0.014062499999999999 1.33203125 -0.4765625 1.434375 -1.171875 0.171875 -1.16796875 0.10312500000000001 -2.1890625 -0.0046875 -2.90625 -0.09921875 -0.6640625 -0.69375 -1.0953125 -1.3640625 -1.08984375 -6.46796875 0.056249999999999994 -10.1515625 0.82109375 -10.1515625 9.7078125h-3.35c-0.6515624999999999 0 -1.2296875 0.4078125 -1.328125 1.0515625000000002 -0.10625000000000001 0.69375 -0.1703125 1.6992187499999998 0.007031249999999999 2.921875 0.1015625 0.70625 0.7374999999999999 1.1890625 1.4515625 1.1890625h3.21953125v11.68359375" stroke-width="2.5"></path>
  </g>
</svg>