<svg xmlns="http://www.w3.org/2000/svg" fill="none" viewBox="-1.25 -1.25 40 40" id="File-Search--Streamline-Plump" height="40" width="40">
  <desc>
    File Search Streamline Icon: https://streamlinehq.com
  </desc>
  <g id="file-search">
    <path id="Subtract" fill="#99c2e0" d="M26.253125 6.479687500000001c-3.0789062499999997 -3.01875 -5.2109375 -3.86875 -5.875 -4.0765625A126.43203125 126.43203125 0 0 0 16.40625 2.34375c-4.89375 0 -8.254687500000001 0.25 -10.35 0.48984375 -1.71953125 0.196875 -3.0078125 1.48671875 -3.196875 3.2070312500000004C2.609375 8.2984375 2.34375 12.088281250000001 2.34375 17.96875c0 5.88046875 0.26640625 9.6703125 0.515625 11.928125000000001 0.1890625 1.7203125 1.47734375 3.01015625 3.196875 3.2070312500000004C8.151562499999999 33.342968750000004 11.512500000000001 33.59375 16.40625 33.59375c0.41328125000000004 0 0.815625 -0.0015625 1.20703125 -0.0054687500000000005A11.30234375 11.30234375 0 0 1 13.671875 25c0 -6.25625 5.071875 -11.328125 11.328125 -11.328125h5.4171875a135.15625 135.15625 0 0 0 -0.0484375 -1.55703125c-0.27421874999999996 -0.765625 -1.21015625 -2.7867187500000004 -4.115625 -5.63515625Z" stroke-width="2.5"></path>
    <path id="Union" fill="#ffffff" d="M31.94140625 28.5890625A7.7796875000000005 7.7796875000000005 0 0 0 32.8125 25c0 -4.31484375 -3.4976562500000004 -7.8125 -7.8125 -7.8125s-7.8125 3.4976562500000004 -7.8125 7.8125 3.4976562500000004 7.8125 7.8125 7.8125c1.3203125 0 2.56328125 -0.328125 3.6539062499999995 -0.90546875 0.7265625 0.87578125 1.4484375 1.7390625 2.24453125 2.5921875 0.84453125 0.90390625 2.1234375 1.015625 3.01796875 0.16093749999999998a24.89140625 24.89140625 0 0 0 0.7945312499999999 -0.7953125c0.85546875 -0.8937499999999999 0.7437499999999999 -2.171875 -0.16093749999999998 -3.0171875 -0.8578125000000001 -0.8015625000000001 -1.7265625 -1.52734375 -2.609375 -2.25859375Z" stroke-width="2.5"></path>
    <path id="Ellipse 17" fill="#99c2e0" d="M28.125 25a3.125 3.125 0 1 1 -6.25 0 3.125 3.125 0 0 1 6.25 0Z" stroke-width="2.5"></path>
    <path id="Intersect" fill="#ffffff" d="M20.3796875 2.40390625c0.665625 0.209375 2.796875 1.0609375 5.871875 4.0757812499999995 2.90625 2.8484374999999997 3.84140625 4.8703125 4.115625 5.635937500000001l0.0125 0.3515625c-1.6304687500000001 0.24296875 -4.56328125 0.056249999999999994 -6.7890625 -0.14921875a3.64375 3.64375 0 0 1 -3.3039062500000003 -3.28984375c-0.209375 -2.1890625 -0.3953125 -5.0515625 -0.140625 -6.63125l0.23359375 0.0078125Z" stroke-width="2.5"></path>
    <path id="Subtract_2" fill-rule="evenodd" stroke="#2d6a9c" stroke-linecap="round" stroke-linejoin="round" d="M32.8125 25a7.7796875000000005 7.7796875000000005 0 0 1 -0.87109375 3.5890625000000003c0.8812499999999999 0.7312500000000001 1.7500000000000002 1.45703125 2.60859375 2.2578125 0.9046875 0.8453125 1.01640625 2.12421875 0.16093749999999998 3.01796875a25.236718749999998 25.236718749999998 0 0 1 -0.7945312499999999 0.7953125c-0.89453125 0.85546875 -2.1734375 0.74296875 -3.01796875 -0.16093749999999998 -0.796875 -0.853125 -1.51796875 -1.7164062500000001 -2.24453125 -2.5921875A7.77890625 7.77890625 0 0 1 25 32.8125c-4.31484375 0 -7.8125 -3.4976562500000004 -7.8125 -7.8125s3.4976562500000004 -7.8125 7.8125 -7.8125 7.8125 3.4976562500000004 7.8125 7.8125Zm-7.8125 3.125a3.125 3.125 0 1 0 0 -6.25 3.125 3.125 0 0 0 0 6.25Z" clip-rule="evenodd" stroke-width="2.5"></path>
    <path id="Subtract_3" stroke="#2d6a9c" stroke-linecap="round" stroke-linejoin="round" d="M16.40625 33.59375c-4.89375 0 -8.254687500000001 -0.25 -10.35 -0.48984375 -1.71953125 -0.196875 -3.0078125 -1.48671875 -3.196875 -3.2070312500000004C2.609375 27.6390625 2.34375 23.849218750000002 2.34375 17.96875c0 -5.88046875 0.26640625 -9.6703125 0.515625 -11.928125000000001 0.1890625 -1.7203125 1.4765625 -3.009375 3.196875 -3.2070312500000004C8.151562499999999 2.59453125 11.512500000000001 2.34375 16.40625 2.34375c1.4578125000000002 0 2.7796874999999996 0.021875000000000002 3.971875 0.059375 0.6640625 0.2078125 2.7960937500000003 1.0578125 5.875 4.0765625 2.90546875 2.8484374999999997 3.84140625 4.86953125 4.115625 5.63515625 0.03125 0.8390625 0.056249999999999994 1.7476562500000001 0.0734375 2.72890625" stroke-width="2.5"></path>
    <path id="Intersect_2" stroke="#2d6a9c" stroke-linecap="round" stroke-linejoin="round" d="M30.379687500000003 12.4671875c-1.6304687500000001 0.24296875 -4.56328125 0.056249999999999994 -6.7890625 -0.14921875a3.64375 3.64375 0 0 1 -3.3039062500000003 -3.28984375c-0.209375 -2.1890625 -0.3953125 -5.0515625 -0.140625 -6.63125" stroke-width="2.5"></path>
  </g>
</svg>