<svg xmlns="http://www.w3.org/2000/svg" fill="none" viewBox="-0.835 -0.835 40 40" id="Folder-Share--Streamline-Ultimate" height="40" width="40">
  <desc>
    Folder Share Streamline Icon: https://streamlinehq.com
  </desc>
  <path fill="#3c7a89" d="M30.623114666666666 27.567095708333333c0.40518004166666666 0 0.7937504166666667 -0.16098600000000002 1.0802671666666668 -0.44750275 0.28651675000000004 -0.28635704166666665 0.44750275 -0.6749274166666667 0.44750275 -1.0801074583333334V7.707667904166667c0 -0.40514810000000007 -0.16098600000000002 -0.793718475 -0.44750275 -1.0802032833333333 -0.28651675000000004 -0.28648480833333334 -0.675087125 -0.4474388666666667 -1.0802671666666668 -0.4474388666666667H15.5269559625c-0.2836260291666667 -0.00014373750000000002 -0.5616143541666667 -0.07926324583333334 -0.8028218500000001 -0.22846277083333336s-0.43611554583333334 -0.36261777083333335 -0.5628920208333333 -0.6163304291666667l-1.4482191958333335 -2.8933560208333335c-0.12677647500000003 -0.25371265833333334 -0.321684525 -0.46713090416666675 -0.5628920208333333 -0.6163304291666667 -0.24120749583333334 -0.149199525 -0.5191958208333334 -0.22831903333333334 -0.8028218500000001 -0.22846277083333336H3.1255080541666667c-0.40514810000000007 0 -0.793718475 0.16095405833333334 -1.0802032833333333 0.4474388666666667 -0.28650077916666666 0.28648480833333334 -0.4474388666666667 0.6750551833333334 -0.4474388666666667 1.0802032833333333V26.0394855c0 0.40518004166666666 0.1609380875 0.7937504166666667 0.4474388666666667 1.0801074583333334 0.28648480833333334 0.28651675000000004 0.6750551833333334 0.44750275 1.0802032833333333 0.44750275H30.623114666666666Z" stroke-width="1.67"></path>
  <path fill="#90e39a" d="M15.5269559625 6.1800257541666666c-0.2836260291666667 -0.00014373750000000002 -0.5616143541666667 -0.07926324583333334 -0.8028218500000001 -0.22846277083333336s-0.43611554583333334 -0.36261777083333335 -0.5628920208333333 -0.6163304291666667l-1.4482191958333335 -2.8933560208333335c-0.12677647500000003 -0.25371265833333334 -0.321684525 -0.46713090416666675 -0.5628920208333333 -0.6163304291666667 -0.24120749583333334 -0.149199525 -0.5191958208333334 -0.22831903333333334 -0.8028218500000001 -0.22846277083333336H3.1255080541666667c-0.40514810000000007 0 -0.793718475 0.16095405833333334 -1.0802032833333333 0.4474388666666667 -0.28650077916666666 0.28648480833333334 -0.4474388666666667 0.6750551833333334 -0.4474388666666667 1.0802032833333333V26.0394855c0 0.40518004166666666 0.1609380875 0.7937504166666667 0.4474388666666667 1.0801074583333334 0.28648480833333334 0.28651675000000004 0.6750551833333334 0.44750275 1.0802032833333333 0.44750275h1.0693590875L25.581921125 6.1800257541666666H15.5269559625Z" stroke-width="1.67"></path>
  <path stroke="#16262e" stroke-linecap="round" stroke-linejoin="round" d="M32.15088458333334 13.818268445833333v-6.110600541666667c0 -0.40514810000000007 -0.16098600000000002 -0.793718475 -0.44750275 -1.0802032833333333 -0.28651675000000004 -0.28648480833333334 -0.675087125 -0.4474388666666667 -1.0802671666666668 -0.4474388666666667H15.5269559625c-0.2836260291666667 -0.00014373750000000002 -0.5616143541666667 -0.07926324583333334 -0.8028218500000001 -0.22846277083333336s-0.43611554583333334 -0.36261777083333335 -0.5628920208333333 -0.6163304291666667l-1.4482191958333335 -2.8933560208333335c-0.12677647500000003 -0.25371265833333334 -0.321684525 -0.46713090416666675 -0.5628920208333333 -0.6163304291666667 -0.24120749583333334 -0.149199525 -0.5191958208333334 -0.22831903333333334 -0.8028218500000001 -0.22846277083333336H3.1255080541666667c-0.40514810000000007 0 -0.793718475 0.16095405833333334 -1.0802032833333333 0.4474388666666667 -0.28650077916666666 0.28648480833333334 -0.4474388666666667 0.6750551833333334 -0.4474388666666667 1.0802032833333333V26.0394855c0 0.40518004166666666 0.1609380875 0.7937504166666667 0.4474388666666667 1.0801074583333334 0.28648480833333334 0.28651675000000004 0.6750551833333334 0.44750275 1.0802032833333333 0.44750275h10.693526991666667" stroke-width="1.67"></path>
  <path fill="#3c7a89" stroke="#16262e" stroke-linecap="round" stroke-linejoin="round" d="M21.838038375 32.14992633333334c0.9116151666666666 0 1.7858585833333336 -0.3620587916666667 2.430441416666667 -1.006641625 0.6445828333333334 -0.6445828333333334 1.006641625 -1.51882625 1.006641625 -2.430441416666667 0 -0.9116151666666666 -0.3620587916666667 -1.786018291666667 -1.006641625 -2.4306011250000004 -0.6445828333333334 -0.6445828333333334 -1.51882625 -1.006641625 -2.430441416666667 -1.006641625 -0.9116151666666666 0 -1.7858585833333336 0.3620587916666667 -2.4306011250000004 1.006641625 -0.6445828333333334 0.6445828333333334 -1.006641625 1.5189859583333334 -1.006641625 2.4306011250000004 0 0.9116151666666666 0.3620587916666667 1.7858585833333336 1.006641625 2.430441416666667 0.6447425416666667 0.6445828333333334 1.5189859583333334 1.006641625 2.4306011250000004 1.006641625Z" stroke-width="1.67"></path>
  <path fill="#3c7a89" stroke="#16262e" stroke-linecap="round" stroke-linejoin="round" d="M33.295993333333335 36.73291666666667c0.45133575000000004 0 0.8983593750000001 -0.08895754166666667 1.3153578333333333 -0.26160225000000004 0.4169984583333334 -0.17280441666666668 0.7958266250000001 -0.425942125 1.1150835833333335 -0.7451990833333334 0.31909725 -0.31909725 0.5723946666666667 -0.698085125 0.7450393750000001 -1.1150835833333335 0.17280441666666668 -0.4169984583333334 0.2617619583333333 -0.8638623750000001 0.2617619583333333 -1.3153578333333333 0 -0.45133575000000004 -0.08895754166666667 -0.8983593750000001 -0.2617619583333333 -1.3153578333333333 -0.17264470833333334 -0.4169984583333334 -0.425942125 -0.7958266250000001 -0.7450393750000001 -1.1150835833333335 -0.31925695833333334 -0.31909725 -0.698085125 -0.5723946666666667 -1.1150835833333335 -0.7450393750000001 -0.4169984583333334 -0.17280441666666668 -0.8640220833333334 -0.2617619583333333 -1.3153578333333333 -0.2617619583333333 -0.9116151666666666 0 -1.7858585833333336 0.3622185 -2.430441416666667 1.0068013333333332 -0.6447425416666667 0.6445828333333334 -1.0068013333333332 1.51882625 -1.0068013333333332 2.430441416666667 0 0.9116151666666666 0.3620587916666667 1.7858585833333336 1.0068013333333332 2.430441416666667 0.6445828333333334 0.6447425416666667 1.51882625 1.0068013333333332 2.430441416666667 1.0068013333333332Z" stroke-width="1.67"></path>
  <path fill="#3c7a89" stroke="#16262e" stroke-linecap="round" stroke-linejoin="round" d="M33.295993333333335 25.27560054166667c0.45133575000000004 0 0.8983593750000001 -0.08895754166666667 1.3153578333333333 -0.26160225000000004 0.4169984583333334 -0.17280441666666668 0.7958266250000001 -0.425942125 1.1150835833333335 -0.7451990833333334 0.31909725 -0.31909725 0.5723946666666667 -0.698085125 0.7450393750000001 -1.1150835833333335 0.17280441666666668 -0.4169984583333334 0.2617619583333333 -0.8640220833333334 0.2617619583333333 -1.3153578333333333 0 -0.45133575000000004 -0.08895754166666667 -0.8983593750000001 -0.2617619583333333 -1.3153578333333333 -0.17264470833333334 -0.4169984583333334 -0.425942125 -0.7959863333333334 -0.7450393750000001 -1.1150835833333335 -0.31925695833333334 -0.31925695833333334 -0.698085125 -0.5723946666666667 -1.1150835833333335 -0.7450393750000001 -0.4169984583333334 -0.17280441666666668 -0.8640220833333334 -0.2617619583333333 -1.3153578333333333 -0.2617619583333333 -0.9116151666666666 0 -1.7858585833333336 0.3622185 -2.430441416666667 1.0068013333333332 -0.6447425416666667 0.6445828333333334 -1.0068013333333332 1.51882625 -1.0068013333333332 2.430441416666667 0 0.9116151666666666 0.3620587916666667 1.7858585833333336 1.0068013333333332 2.430441416666667 0.6445828333333334 0.6445828333333334 1.51882625 1.0068013333333332 2.430441416666667 1.0068013333333332Z" stroke-width="1.67"></path>
  <path stroke="#16262e" stroke-linecap="round" stroke-linejoin="round" d="m24.779706166666667 26.948385625 5.575897041666667 -3.345570166666667" stroke-width="1.67"></path>
  <path stroke="#16262e" stroke-linecap="round" stroke-linejoin="round" d="m25.029330291666668 29.988433750000002 5.077926458333334 2.031809416666667" stroke-width="1.67"></path>
</svg>