<svg xmlns="http://www.w3.org/2000/svg" fill="none" viewBox="-1.25 -1.25 40 40" id="Gallery-2--Streamline-Plump" height="40" width="40">
  <desc>
    Gallery 2 Streamline Icon: https://streamlinehq.com
  </desc>
  <g id="gallery-2--pages-filter-picture-pagination-image">
    <path id="Subtract" fill="#ffffff" d="M6.2875 2.6203125000000003C4.2890625 2.7625 2.7625 4.2890625 2.6203125000000003 6.2875 2.4765625 8.28359375 2.34375 11.225 2.34375 15.234375c0 4.01015625 0.13359375 6.95078125 0.2765625 8.94765625 0.1421875 1.99765625 1.6687500000000002 3.5234375 3.6671875 3.6664062499999996 0.87734375 0.0625 1.9375 0.12421875 3.19140625 0.17265625A148.8828125 148.8828125 0 0 1 9.375 22.265625c0 -4.01015625 0.13359375 -6.95078125 0.2765625 -8.946875 0.1421875 -1.9984374999999999 1.6687500000000002 -3.5249999999999995 3.6671875 -3.6671875C15.3140625 9.5078125 18.255468750000002 9.375 22.265625 9.375c2.2468749999999997 0 4.1578125 0.0421875 5.75546875 0.10390625 -0.0484375 -1.25390625 -0.10937500000000001 -2.3140625000000004 -0.171875 -3.19140625 -0.14296875 -1.9984374999999999 -1.66953125 -3.5249999999999995 -3.66796875 -3.6671875C22.18515625 2.4765625 19.243750000000002 2.34375 15.234375 2.34375c-4.01015625 0 -6.95078125 0.13359375 -8.946875 0.2765625Z" stroke-width="2.5"></path>
    <path id="Rectangle 1098" fill="#99c2e0" d="M9.651562499999999 13.31796875c0.1421875 -1.99765625 1.6687500000000002 -3.5234375 3.6671875 -3.6664062499999996C15.3140625 9.5078125 18.255468750000002 9.375 22.265625 9.375s6.95078125 0.13359375 8.946875 0.2765625c1.9984374999999999 0.1421875 3.5249999999999995 1.6687500000000002 3.6671875 3.6671875 0.14296875 1.9960937500000002 0.2765625 4.9375 0.2765625 8.946875 0 4.01015625 -0.13359375 6.95078125 -0.2765625 8.94765625 -0.1421875 1.99765625 -1.6687500000000002 3.5234375 -3.6671875 3.6664062499999996 -1.9960937500000002 0.14296875 -4.9375 0.2765625 -8.946875 0.2765625 -4.01015625 0 -6.95078125 -0.13359375 -8.94765625 -0.2765625 -1.99765625 -0.1421875 -3.5234375 -1.6687500000000002 -3.6664062499999996 -3.6671875C9.5078125 29.2171875 9.375 26.27578125 9.375 22.265625s0.13359375 -6.95078125 0.2765625 -8.94765625Z" stroke-width="2.5"></path>
    <path id="Ellipse 36" fill="#ffffff" d="M25 17.1875a2.34375 2.34375 0 1 0 4.6875 0 2.34375 2.34375 0 1 0 -4.6875 0" stroke-width="2.5"></path>
    <path id="Intersect" fill="#ffffff" d="M35.035937499999996 28.42890625c-0.046093749999999996 1.078125 -0.1 2.003125 -0.15625 2.78359375 -0.1421875 1.9984374999999999 -1.6687500000000002 3.5249999999999995 -3.6671875 3.6671875 -1.9960937500000002 0.14296875 -4.9375 0.2765625 -8.946875 0.2765625 -4.01015625 0 -6.95078125 -0.13359375 -8.94765625 -0.2765625 -1.99765625 -0.1421875 -3.5234375 -1.6687500000000002 -3.6664062499999996 -3.6671875a99.8984375 99.8984375 0 0 1 -0.18203125 -3.4375000000000004c2.76953125 -2.59921875 4.725 -4.0921875000000005 5.9906250000000005 -4.93671875 1.125 -0.75 2.50390625 -0.6265625 3.54921875 0.22890624999999998 1.04609375 0.85546875 2.6390625 2.2453125000000003 4.9515625 4.45703125 1.5546875 -1.33515625 2.74609375 -2.21796875 3.61328125 -2.796875 1.125 -0.75 2.50390625 -0.625 3.54921875 0.2296875 0.8812499999999999 0.7203125 2.15078125 1.8203125 3.9125 3.471875Z" stroke-width="2.5"></path>
    <path id="Rectangle 1096" stroke="#2d6a9c" stroke-linecap="round" stroke-linejoin="round" d="M27.714062499999997 5.46875c-0.43125 -1.58125 -1.7890625 -2.7234375 -3.49453125 -2.8460937499999996C22.22265625 2.47890625 19.26953125 2.34375 15.234375 2.34375c-4.010937500000001 0 -6.9515625 0.13359375 -8.94765625 0.2765625 -1.99765625 0.1421875 -3.5249999999999995 1.6687500000000002 -3.6671875 3.6671875C2.4765625 8.28359375 2.34375 11.225 2.34375 15.234375c0 4.03515625 0.1359375 6.987500000000001 0.27890624999999997 8.984375 0.12265625 1.7054687499999999 1.265625 3.0640625 2.8460937499999996 3.49453125" stroke-width="2.5"></path>
    <path id="Rectangle 1097" stroke="#2d6a9c" stroke-linecap="round" stroke-linejoin="round" d="M9.651562499999999 13.31796875c0.1421875 -1.99765625 1.6687500000000002 -3.5234375 3.6671875 -3.6664062499999996C15.3140625 9.5078125 18.255468750000002 9.375 22.265625 9.375s6.95078125 0.13359375 8.946875 0.2765625c1.9984374999999999 0.1421875 3.5249999999999995 1.6687500000000002 3.6671875 3.6671875 0.14296875 1.9960937500000002 0.2765625 4.9375 0.2765625 8.946875 0 4.01015625 -0.13359375 6.95078125 -0.2765625 8.94765625 -0.1421875 1.99765625 -1.6687500000000002 3.5234375 -3.6671875 3.6664062499999996 -1.9960937500000002 0.14296875 -4.9375 0.2765625 -8.946875 0.2765625 -4.01015625 0 -6.95078125 -0.13359375 -8.94765625 -0.2765625 -1.99765625 -0.1421875 -3.5234375 -1.6687500000000002 -3.6664062499999996 -3.6671875C9.5078125 29.2171875 9.375 26.27578125 9.375 22.265625s0.13359375 -6.95078125 0.2765625 -8.94765625Z" stroke-width="2.5"></path>
    <path id="Intersect_2" stroke="#2d6a9c" stroke-linecap="round" stroke-linejoin="round" d="M35.035937499999996 28.42890625c-1.76171875 -1.6515624999999998 -3.03125 -2.7515625 -3.9125 -3.471875 -1.0453125 -0.85546875 -2.4234375 -0.9796875 -3.54921875 -0.22890624999999998 -0.8671875000000001 0.578125 -2.0578125 1.4609375 -3.61328125 2.7960937500000003 -2.3125 -2.21171875 -3.90625 -3.6015625000000004 -4.9515625 -4.45703125 -1.0453125 -0.85546875 -2.4234375 -0.9789062499999999 -3.54921875 -0.22890624999999998 -1.265625 0.84375 -3.22109375 2.3375 -5.9906250000000005 4.9359375" stroke-width="2.5"></path>
    <path id="Ellipse 35" stroke="#2d6a9c" stroke-linecap="round" stroke-linejoin="round" d="M25 17.1875a2.34375 2.34375 0 1 0 4.6875 0 2.34375 2.34375 0 1 0 -4.6875 0" stroke-width="2.5"></path>
  </g>
</svg>