<svg xmlns="http://www.w3.org/2000/svg" fill="none" viewBox="-1.25 -1.25 40 40" id="Hierarchy-1--Streamline-Plump" height="40" width="40">
  <desc>
    Hierarchy 1 Streamline Icon: https://streamlinehq.com
  </desc>
  <g id="hierarchy-1--node-organization-links-structure-link-nodes-network-hierarchy">
    <path id="Rectangle 125" fill="#99c2e0" d="M13.184375000000001 15.23125c-0.0625 -0.896875 -0.6476562499999999 -1.59453125 -1.5375 -1.72578125C10.84140625 13.386718750000002 9.6171875 13.28125 7.8125 13.28125c-1.8046875 0 -3.02890625 0.10546875 -3.834375 0.22421875 -0.8906249999999999 0.13125 -1.4749999999999999 0.828125 -1.5375 1.72578125C2.38828125 15.987499999999999 2.34375 17.11328125 2.34375 18.75c0 1.6367187500000002 0.04453125 2.7625 0.096875 3.51875 0.0625 0.896875 0.6476562499999999 1.59453125 1.5375 1.72578125C4.7835937500000005 24.11328125 6.0078125 24.21875 7.8125 24.21875c1.8046875 0 3.02890625 -0.10546875 3.834375 -0.22421875 0.8906249999999999 -0.13125 1.4749999999999999 -0.828125 1.5375 -1.72578125 0.05234375 -0.75625 0.096875 -1.8820312499999998 0.096875 -3.51875 0 -1.6367187500000002 -0.04453125 -2.7625 -0.096875 -3.51875Z" stroke-width="2.5"></path>
    <path id="Rectangle 1097" fill="#99c2e0" d="M24.315625 4.29375c0.0625 -0.89765625 0.6476562499999999 -1.59453125 1.5375 -1.72578125C26.658593749999998 2.44921875 27.8828125 2.34375 29.6875 2.34375c1.8046875 0 3.02890625 0.10546875 3.834375 0.22421875 0.8906249999999999 0.13125 1.4749999999999999 0.828125 1.5375 1.72578125 0.05234375 0.75625 0.096875 1.8820312499999998 0.096875 3.51875 0 1.6367187500000002 -0.04453125 2.7625 -0.096875 3.51875 -0.0625 0.89765625 -0.6476562499999999 1.59453125 -1.5375 1.72578125C32.71640625 13.175781249999998 31.4921875 13.28125 29.6875 13.28125c-1.8046875 0 -3.02890625 -0.10546875 -3.834375 -0.22421875 -0.8906249999999999 -0.13125 -1.4749999999999999 -0.828125 -1.5375 -1.72578125C24.26328125 10.575 24.21875 9.44921875 24.21875 7.8125c0 -1.6367187500000002 0.04453125 -2.7625 0.096875 -3.51875Z" stroke-width="2.5"></path>
    <path id="Rectangle 1099" fill="#99c2e0" d="M24.315625 33.20625c0.0625 0.89765625 0.6476562499999999 1.59453125 1.5375 1.72578125C26.658593749999998 35.05078125 27.8828125 35.15625 29.6875 35.15625c1.8046875 0 3.02890625 -0.10546875 3.834375 -0.22421875 0.8906249999999999 -0.13125 1.4749999999999999 -0.828125 1.5375 -1.72578125 0.05234375 -0.75625 0.096875 -1.8820312499999998 0.096875 -3.51875 0 -1.6367187500000002 -0.04453125 -2.7625 -0.096875 -3.51875 -0.0625 -0.89765625 -0.6476562499999999 -1.59453125 -1.5375 -1.72578125C32.71640625 24.32421875 31.4921875 24.21875 29.6875 24.21875c-1.8046875 0 -3.02890625 0.10546875 -3.834375 0.22421875 -0.8906249999999999 0.13125 -1.4749999999999999 0.828125 -1.5375 1.72578125C24.26328125 26.924999999999997 24.21875 28.05078125 24.21875 29.6875c0 1.6367187500000002 0.04453125 2.7625 0.096875 3.51875Z" stroke-width="2.5"></path>
    <path id="Rectangle 1100" stroke="#2d6a9c" stroke-linecap="round" stroke-linejoin="round" d="M13.184375000000001 15.23125c-0.0625 -0.896875 -0.6476562499999999 -1.59453125 -1.5375 -1.72578125C10.84140625 13.386718750000002 9.6171875 13.28125 7.8125 13.28125c-1.8046875 0 -3.02890625 0.10546875 -3.834375 0.22421875 -0.8906249999999999 0.13125 -1.4749999999999999 0.828125 -1.5375 1.72578125C2.38828125 15.987499999999999 2.34375 17.11328125 2.34375 18.75c0 1.6367187500000002 0.04453125 2.7625 0.096875 3.51875 0.0625 0.896875 0.6476562499999999 1.59453125 1.5375 1.72578125C4.7835937500000005 24.11328125 6.0078125 24.21875 7.8125 24.21875c1.8046875 0 3.02890625 -0.10546875 3.834375 -0.22421875 0.8906249999999999 -0.13125 1.4749999999999999 -0.828125 1.5375 -1.72578125 0.05234375 -0.75625 0.096875 -1.8820312499999998 0.096875 -3.51875 0 -1.6367187500000002 -0.04453125 -2.7625 -0.096875 -3.51875Z" stroke-width="2.5"></path>
    <path id="Rectangle 1101" stroke="#2d6a9c" stroke-linecap="round" stroke-linejoin="round" d="M24.315625 4.29375c0.0625 -0.89765625 0.6476562499999999 -1.59453125 1.5375 -1.72578125C26.658593749999998 2.44921875 27.8828125 2.34375 29.6875 2.34375c1.8046875 0 3.02890625 0.10546875 3.834375 0.22421875 0.8906249999999999 0.13125 1.4749999999999999 0.828125 1.5375 1.72578125 0.05234375 0.75625 0.096875 1.8820312499999998 0.096875 3.51875 0 1.6367187500000002 -0.04453125 2.7625 -0.096875 3.51875 -0.0625 0.89765625 -0.6476562499999999 1.59453125 -1.5375 1.72578125C32.71640625 13.175781249999998 31.4921875 13.28125 29.6875 13.28125c-1.8046875 0 -3.02890625 -0.10546875 -3.834375 -0.22421875 -0.8906249999999999 -0.13125 -1.4749999999999999 -0.828125 -1.5375 -1.72578125C24.26328125 10.575 24.21875 9.44921875 24.21875 7.8125c0 -1.6367187500000002 0.04453125 -2.7625 0.096875 -3.51875Z" stroke-width="2.5"></path>
    <path id="Rectangle 1102" stroke="#2d6a9c" stroke-linecap="round" stroke-linejoin="round" d="M24.315625 33.20625c0.0625 0.89765625 0.6476562499999999 1.59453125 1.5375 1.72578125C26.658593749999998 35.05078125 27.8828125 35.15625 29.6875 35.15625c1.8046875 0 3.02890625 -0.10546875 3.834375 -0.22421875 0.8906249999999999 -0.13125 1.4749999999999999 -0.828125 1.5375 -1.72578125 0.05234375 -0.75625 0.096875 -1.8820312499999998 0.096875 -3.51875 0 -1.6367187500000002 -0.04453125 -2.7625 -0.096875 -3.51875 -0.0625 -0.89765625 -0.6476562499999999 -1.59453125 -1.5375 -1.72578125C32.71640625 24.32421875 31.4921875 24.21875 29.6875 24.21875c-1.8046875 0 -3.02890625 0.10546875 -3.834375 0.22421875 -0.8906249999999999 0.13125 -1.4749999999999999 0.828125 -1.5375 1.72578125C24.26328125 26.924999999999997 24.21875 28.05078125 24.21875 29.6875c0 1.6367187500000002 0.04453125 2.7625 0.096875 3.51875Z" stroke-width="2.5"></path>
    <path id="Subtract" stroke="#2d6a9c" stroke-linecap="round" stroke-linejoin="round" d="m24.2703125 26.97890625 -11.040625 -5.5203125" stroke-width="2.5"></path>
    <path id="Subtract_2" stroke="#2d6a9c" stroke-linecap="round" stroke-linejoin="round" d="m24.2703125 10.52109375 -11.040625 5.5203125" stroke-width="2.5"></path>
  </g>
</svg>