<?xml version="1.0" encoding="UTF-8" standalone="no"?>
<!-- Created with Inkscape (http://www.inkscape.org/) -->

<svg
   width="297mm"
   height="210mm"
   viewBox="0 0 297 210"
   version="1.1"
   id="svg1"
   xmlns:inkscape="http://www.inkscape.org/namespaces/inkscape"
   xmlns:sodipodi="http://sodipodi.sourceforge.net/DTD/sodipodi-0.dtd"
   xmlns="http://www.w3.org/2000/svg"
   xmlns:svg="http://www.w3.org/2000/svg">
  <sodipodi:namedview
     id="namedview1"
     pagecolor="#ffffff"
     bordercolor="#000000"
     borderopacity="0.25"
     inkscape:showpageshadow="2"
     inkscape:pageopacity="0.0"
     inkscape:pagecheckerboard="0"
     inkscape:deskcolor="#d1d1d1"
     inkscape:document-units="mm"
     showgrid="true">
    <inkscape:grid
       type="axonomgrid"
       id="grid1"
       units="px"
       originx="0"
       originy="0"
       spacingx="0"
       spacingy="7.9375"
       empcolor="#0099e5"
       empopacity="0.30196078"
       color="#0099e5"
       opacity="0.14901961"
       empspacing="1"
       dotted="false"
       gridanglex="30"
       gridanglez="30"
       visible="true"
       snapvisiblegridlinesonly="false" />
  </sodipodi:namedview>
  <defs
     id="defs1" />
  <g
     inkscape:label="Layer 1"
     inkscape:groupmode="layer"
     id="layer1">
    <g
       id="g4">
      <path
         id="rect2"
         style="fill:#263542;stroke-width:4.99999;stroke-linecap:round"
         d="M 77.609282,16.556646 H 222.13502 c 26.1795,0 47.25542,21.075921 47.25542,47.255429 v 81.058575 c 0,26.1795 -21.07592,47.25542 -47.25542,47.25542 H 77.609282 c -26.179508,0 -47.255429,-21.07592 -47.255429,-47.25542 V 63.812075 c 0,-26.179508 21.075921,-47.255429 47.255429,-47.255429 z" />
      <path
         id="path2"
         style="fill:#ffffff;stroke-width:5;stroke-linecap:round"
         d="M 225.92924,47.600357 A 11.210229,11.363794 0 0 1 214.72412,58.96415 11.210229,11.363794 0 0 1 203.50879,47.610724 11.210229,11.363794 0 0 1 214.70367,36.236573 11.210229,11.363794 0 0 1 225.92922,47.579624" />
      <path
         id="path3"
         style="fill:#ffffff;stroke-width:4.99999;stroke-linecap:round"
         d="m 211.95957,104.34136 a 62.087421,55.478115 0 0 1 -62.0591,55.47811 62.087421,55.478115 0 0 1 -62.115719,-55.4275 62.087421,55.478115 0 0 1 62.002439,-55.528671 62.087421,55.478115 0 0 1 62.17227,55.376841" />
      <path
         id="path4"
         style="fill:#263542;stroke-width:4.99999;stroke-linecap:round"
         d="M 202.15458,104.34136 A 52.282436,46.716892 0 0 1 149.89599,151.05825 52.282436,46.716892 0 0 1 97.589732,104.38398 52.282436,46.716892 0 0 1 149.8006,57.624513 52.282436,46.716892 0 0 1 202.1545,104.25613" />
    </g>
  </g>
</svg>
