<svg xmlns="http://www.w3.org/2000/svg" fill="none" viewBox="-0.835 -0.835 40 40" id="Lock-Hierarchy--Streamline-Ultimate" height="40" width="40">
  <desc>
    Lock Hierarchy Streamline Icon: https://streamlinehq.com
  </desc>
  <path stroke="#16262e" stroke-linecap="round" stroke-linejoin="round" d="M7.452789375000001 27.21685533333333V23.556979166666668c0 -0.19420533333333334 0.07712315416666667 -0.38042525 0.21440843750000002 -0.5177744166666667 0.13726931250000002 -0.13718945833333335 0.3234572875 -0.21432858333333338 0.5175987375 -0.21432858333333338H30.144628500000003c0.19420533333333334 0 0.38042525 0.077139125 0.5177744166666667 0.21432858333333338 0.13718945833333335 0.13734916666666666 0.21432858333333338 0.32356908333333334 0.21432858333333338 0.5177744166666667v3.659876166666667" stroke-width="1.67"></path>
  <path stroke="#16262e" stroke-linecap="round" stroke-linejoin="round" d="M19.165 18.432897v8.783958333333334" stroke-width="1.67"></path>
  <path fill="#ffef5e" d="M26.484752333333336 16.969010416666666c0 0.3882509583333334 -0.15427825 0.7606907916666668 -0.42881687500000004 1.0352294166666667s-0.6469784583333333 0.42881687500000004 -1.0352294166666667 0.42881687500000004H13.308766920833335c-0.38828290000000004 0 -0.7606428791666667 -0.15427825 -1.035197475 -0.42881687500000004 -0.27455459583333336 -0.27453862500000004 -0.4288009041666667 -0.6469784583333333 -0.4288009041666667 -1.0352294166666667V9.6490504625c0 -0.38828290000000004 0.15424630833333333 -0.76065885 0.4288009041666667 -1.0352134458333335 0.27455459583333336 -0.27453862500000004 0.646914575 -0.42878493333333334 1.035197475 -0.42878493333333334h11.711939120833334c0.3882509583333334 0 0.7606907916666668 0.15424630833333333 1.0352294166666667 0.42878493333333334 0.27453862500000004 0.27455459583333336 0.42881687500000004 0.6469305458333333 0.42881687500000004 1.0352134458333335V16.969010416666666Z" stroke-width="1.67"></path>
  <path fill="#fbed00" d="M19.164680583333336 8.185052083333334H13.308766920833335c-0.38828290000000004 0 -0.7606428791666667 0.15424630833333333 -1.035197475 0.42878493333333334 -0.27455459583333336 0.27455459583333336 -0.4288009041666667 0.6469305458333333 -0.4288009041666667 1.0352134458333335V16.969010416666666c0 0.3882509583333334 0.15424630833333333 0.7606907916666668 0.4288009041666667 1.0352294166666667s0.646914575 0.42881687500000004 1.035197475 0.42881687500000004h5.855913662500001V8.185052083333334Z" stroke-width="1.67"></path>
  <path stroke="#16262e" stroke-linecap="round" stroke-linejoin="round" d="M26.484752333333336 16.969010416666666c0 0.3882509583333334 -0.15427825 0.7606907916666668 -0.42881687500000004 1.0352294166666667s-0.6469784583333333 0.42881687500000004 -1.0352294166666667 0.42881687500000004H13.308766920833335c-0.38828290000000004 0 -0.7606428791666667 -0.15427825 -1.035197475 -0.42881687500000004 -0.27455459583333336 -0.27453862500000004 -0.4288009041666667 -0.6469784583333333 -0.4288009041666667 -1.0352294166666667V9.6490504625c0 -0.38828290000000004 0.15424630833333333 -0.76065885 0.4288009041666667 -1.0352134458333335 0.27455459583333336 -0.27453862500000004 0.646914575 -0.42878493333333334 1.035197475 -0.42878493333333334h11.711939120833334c0.3882509583333334 0 0.7606907916666668 0.15424630833333333 1.0352294166666667 0.42878493333333334 0.27453862500000004 0.27455459583333336 0.42881687500000004 0.6469305458333333 0.42881687500000004 1.0352134458333335V16.969010416666666Z" stroke-width="1.67"></path>
  <path fill="#3c7a89" stroke="#16262e" stroke-linecap="round" stroke-linejoin="round" d="M19.165319416666666 14.772956950000001c0.8084435833333333 0 1.4638865833333334 -0.6554589708333334 1.4638865833333334 -1.4639983791666666 0 -0.8085234375 -0.655443 -1.4639824083333335 -1.4638865833333334 -1.4639824083333335 -0.8086032916666667 0 -1.4640462916666668 0.6554589708333334 -1.4640462916666668 1.4639824083333335 0 0.8085394083333335 0.655443 1.4639983791666666 1.4640462916666668 1.4639983791666666Z" stroke-width="1.67"></path>
  <path stroke="#16262e" stroke-linecap="round" stroke-linejoin="round" d="M23.556979166666668 8.185115966666668v-1.4639983791666666c0 -1.1648167583333333 -0.46283475 -2.2819286375 -1.286450625 -3.105592425S20.329752875 2.3291384208333334 19.165 2.3291384208333334c-1.164752875 0 -2.281912666666667 0.46272295416666664 -3.1055285416666667 1.2863867416666666 -0.8237276708333333 0.8236637875 -1.286450625 1.940775666666667 -1.286450625 3.105592425v1.4639983791666666" stroke-width="1.67"></path>
  <path fill="#90e39a" stroke="#16262e" stroke-linecap="round" stroke-linejoin="round" d="M7.452789375000001 36.000813666666666c2.425618225 0 4.391979166666667 -1.9661692916666669 4.391979166666667 -4.391979166666667 0 -2.4256501666666668 -1.9663609416666668 -4.391979166666667 -4.391979166666667 -4.391979166666667s-4.391979166666667 1.9663290000000002 -4.391979166666667 4.391979166666667c0 2.425809875 1.9663609416666668 4.391979166666667 4.391979166666667 4.391979166666667Z" stroke-width="1.67"></path>
  <path fill="#138a36" stroke="#16262e" stroke-linecap="round" stroke-linejoin="round" d="M19.165 36.000813666666666c2.4256501666666668 0 4.391979166666667 -1.9661692916666669 4.391979166666667 -4.391979166666667 0 -2.4256501666666668 -1.9663290000000002 -4.391979166666667 -4.391979166666667 -4.391979166666667s-4.391979166666667 1.9663290000000002 -4.391979166666667 4.391979166666667c0 2.425809875 1.9663290000000002 4.391979166666667 4.391979166666667 4.391979166666667Z" stroke-width="1.67"></path>
  <path fill="#138a36" stroke="#16262e" stroke-linecap="round" stroke-linejoin="round" d="M30.877210625000004 36.000813666666666c2.4256501666666668 0 4.391979166666667 -1.9661692916666669 4.391979166666667 -4.391979166666667 0 -2.4256501666666668 -1.9663290000000002 -4.391979166666667 -4.391979166666667 -4.391979166666667s-4.391979166666667 1.9663290000000002 -4.391979166666667 4.391979166666667c0 2.425809875 1.9663290000000002 4.391979166666667 4.391979166666667 4.391979166666667Z" stroke-width="1.67"></path>
</svg>