<svg xmlns="http://www.w3.org/2000/svg" xmlns:xlink="http://www.w3.org/1999/xlink" width="80" zoomAndPan="magnify" viewBox="0 0 60 37.5" height="50" preserveAspectRatio="xMidYMid meet" version="1.0"><defs><g/><clipPath id="0a5e3959aa"><path d="M 6.339844 1.484375 L 36.6875 1.484375 L 36.6875 31.832031 L 6.339844 31.832031 Z M 6.339844 1.484375 " clip-rule="nonzero"/></clipPath><clipPath id="b95c47e074"><path d="M 0.261719 0.34375 L 23 0.34375 L 23 18 L 0.261719 18 Z M 0.261719 0.34375 " clip-rule="nonzero"/></clipPath><clipPath id="b194908a5f"><rect x="0" width="28" y="0" height="23"/></clipPath><clipPath id="3e270a4128"><path d="M 0.15625 1 L 2 1 L 2 4 L 0.15625 4 Z M 0.15625 1 " clip-rule="nonzero"/></clipPath><clipPath id="25eba5a81b"><rect x="0" width="29" y="0" height="6"/></clipPath><clipPath id="0949339f90"><path d="M 5 31 L 57 31 L 57 37.007812 L 5 37.007812 Z M 5 31 " clip-rule="nonzero"/></clipPath><clipPath id="47d5655500"><path d="M 0.367188 1 L 4 1 L 4 5 L 0.367188 5 Z M 0.367188 1 " clip-rule="nonzero"/></clipPath><clipPath id="63bf45519a"><rect x="0" width="52" y="0" height="7"/></clipPath></defs><g clip-path="url(#0a5e3959aa)"><path fill="#254e70" d="M 21.53125 31.863281 C 13.140625 31.863281 6.339844 25.019531 6.339844 16.675781 C 6.339844 8.328125 13.140625 1.484375 21.53125 1.484375 C 29.921875 1.484375 36.722656 8.28125 36.722656 16.675781 C 36.722656 25.066406 29.875 31.863281 21.53125 31.863281 Z M 21.53125 2.421875 C 13.65625 2.421875 7.277344 8.796875 7.277344 16.675781 C 7.277344 24.550781 13.65625 30.925781 21.53125 30.925781 C 29.40625 30.925781 35.785156 24.550781 35.785156 16.675781 C 35.785156 8.796875 29.359375 2.421875 21.53125 2.421875 Z M 21.53125 2.421875 " fill-opacity="1" fill-rule="nonzero"/></g><g transform="matrix(1, 0, 0, 1, 7, 7)"><g clip-path="url(#b194908a5f)"><g clip-path="url(#b95c47e074)"><g fill="#254e70" fill-opacity="1"><g transform="translate(1.492666, 16.972008)"><g><path d="M 5.046875 0.015625 C 4.242188 0.0351562 3.644531 -0.140625 3.25 -0.515625 C 2.863281 -0.890625 2.640625 -1.394531 2.578125 -2.03125 C 2.523438 -2.664062 2.601562 -3.363281 2.8125 -4.125 C 3.03125 -4.882812 3.347656 -5.632812 3.765625 -6.375 C 4.210938 -7.207031 4.640625 -7.976562 5.046875 -8.6875 C 5.453125 -9.394531 5.785156 -10.078125 6.046875 -10.734375 C 6.316406 -11.390625 6.460938 -12.050781 6.484375 -12.71875 C 6.503906 -13.425781 6.375 -13.972656 6.09375 -14.359375 C 5.820312 -14.753906 5.472656 -15 5.046875 -15.09375 C 4.984375 -15.113281 4.914062 -15.125 4.84375 -15.125 C 4.78125 -15.132812 4.710938 -15.140625 4.640625 -15.140625 C 4.179688 -15.140625 3.707031 -15.003906 3.21875 -14.734375 C 2.738281 -14.472656 2.375 -14.175781 2.125 -13.84375 C 1.78125 -13.445312 1.566406 -13 1.484375 -12.5 C 1.410156 -12.007812 1.472656 -11.582031 1.671875 -11.21875 C 1.878906 -10.851562 2.226562 -10.671875 2.71875 -10.671875 C 2.882812 -10.671875 3.0625 -10.695312 3.25 -10.75 C 3.4375 -10.800781 3.648438 -10.878906 3.890625 -10.984375 C 3.742188 -10.148438 3.425781 -9.519531 2.9375 -9.09375 C 2.445312 -8.664062 1.941406 -8.453125 1.421875 -8.453125 C 0.960938 -8.453125 0.53125 -8.625 0.125 -8.96875 C -0.28125 -9.3125 -0.550781 -9.84375 -0.6875 -10.5625 C -0.789062 -11.300781 -0.71875 -12 -0.46875 -12.65625 C -0.226562 -13.3125 0.140625 -13.894531 0.640625 -14.40625 C 1.140625 -14.914062 1.726562 -15.3125 2.40625 -15.59375 C 3.082031 -15.882812 3.804688 -16.03125 4.578125 -16.03125 C 5.117188 -16.03125 5.648438 -15.957031 6.171875 -15.8125 C 6.703125 -15.675781 7.171875 -15.441406 7.578125 -15.109375 C 7.984375 -14.773438 8.257812 -14.316406 8.40625 -13.734375 C 8.5625 -13.128906 8.570312 -12.5 8.4375 -11.84375 C 8.3125 -11.1875 8.046875 -10.421875 7.640625 -9.546875 C 7.234375 -8.679688 6.707031 -7.625 6.0625 -6.375 C 5.75 -5.789062 5.503906 -5.226562 5.328125 -4.6875 C 5.148438 -4.15625 5.085938 -3.71875 5.140625 -3.375 C 5.191406 -3.03125 5.414062 -2.859375 5.8125 -2.859375 C 6.1875 -2.859375 6.550781 -2.976562 6.90625 -3.21875 C 7.269531 -3.457031 7.613281 -3.757812 7.9375 -4.125 C 8.257812 -4.5 8.550781 -4.878906 8.8125 -5.265625 C 9.082031 -5.660156 9.300781 -6 9.46875 -6.28125 C 9.96875 -7.101562 10.441406 -7.988281 10.890625 -8.9375 C 11.347656 -9.894531 11.769531 -10.804688 12.15625 -11.671875 C 12.300781 -12.023438 12.453125 -12.4375 12.609375 -12.90625 C 12.765625 -13.382812 12.859375 -13.835938 12.890625 -14.265625 C 12.929688 -14.691406 12.859375 -15.019531 12.671875 -15.25 L 15.609375 -15.25 C 15.253906 -14.5 14.851562 -13.640625 14.40625 -12.671875 C 13.96875 -11.710938 13.53125 -10.707031 13.09375 -9.65625 C 12.71875 -8.769531 12.367188 -7.921875 12.046875 -7.109375 C 11.722656 -6.304688 11.492188 -5.582031 11.359375 -4.9375 C 11.234375 -4.300781 11.257812 -3.796875 11.4375 -3.421875 C 11.625 -3.054688 12.035156 -2.875 12.671875 -2.875 C 13.179688 -2.875 13.679688 -3.050781 14.171875 -3.40625 C 14.660156 -3.769531 15.125 -4.25 15.5625 -4.84375 C 16.007812 -5.445312 16.421875 -6.101562 16.796875 -6.8125 C 17.179688 -7.519531 17.53125 -8.210938 17.84375 -8.890625 C 18.15625 -9.597656 18.421875 -10.320312 18.640625 -11.0625 C 18.859375 -11.8125 18.992188 -12.515625 19.046875 -13.171875 C 19.097656 -13.828125 19.023438 -14.367188 18.828125 -14.796875 C 18.628906 -15.222656 18.269531 -15.460938 17.75 -15.515625 C 17.789062 -15.859375 17.992188 -16.113281 18.359375 -16.28125 C 18.734375 -16.445312 19.109375 -16.53125 19.484375 -16.53125 C 19.835938 -16.53125 20.109375 -16.46875 20.296875 -16.34375 C 20.753906 -16.03125 21.046875 -15.554688 21.171875 -14.921875 C 21.304688 -14.285156 21.316406 -13.566406 21.203125 -12.765625 C 21.085938 -11.960938 20.890625 -11.140625 20.609375 -10.296875 C 20.328125 -9.460938 19.992188 -8.675781 19.609375 -7.9375 C 19.359375 -7.445312 19.019531 -6.859375 18.59375 -6.171875 C 18.164062 -5.492188 17.675781 -4.796875 17.125 -4.078125 C 16.582031 -3.359375 16 -2.6875 15.375 -2.0625 C 14.757812 -1.4375 14.128906 -0.929688 13.484375 -0.546875 C 12.835938 -0.171875 12.195312 0.015625 11.5625 0.015625 C 10.394531 0.015625 9.617188 -0.320312 9.234375 -1 C 8.859375 -1.675781 8.785156 -2.625 9.015625 -3.84375 C 8.660156 -3.1875 8.273438 -2.566406 7.859375 -1.984375 C 7.441406 -1.410156 6.992188 -0.941406 6.515625 -0.578125 C 6.046875 -0.222656 5.554688 -0.0234375 5.046875 0.015625 Z M 5.046875 0.015625 "/></g></g></g></g></g></g><g transform="matrix(1, 0, 0, 1, 27, 18)"><g clip-path="url(#25eba5a81b)"><g clip-path="url(#3e270a4128)"><g fill="#254e70" fill-opacity="1"><g transform="translate(0.278169, 3.734232)"><g><path d="M 0.515625 0.03125 C 0.429688 0.03125 0.363281 0.0078125 0.3125 -0.03125 C 0.269531 -0.0820312 0.25 -0.15625 0.25 -0.25 L 0.25 -2.1875 C 0.25 -2.28125 0.269531 -2.347656 0.3125 -2.390625 C 0.363281 -2.441406 0.429688 -2.46875 0.515625 -2.46875 C 0.597656 -2.46875 0.660156 -2.441406 0.703125 -2.390625 C 0.753906 -2.347656 0.78125 -2.28125 0.78125 -2.1875 L 0.78125 -0.25 C 0.78125 -0.15625 0.753906 -0.0820312 0.703125 -0.03125 C 0.660156 0.0078125 0.597656 0.03125 0.515625 0.03125 Z M 0.515625 0.03125 "/></g></g></g></g><g fill="#254e70" fill-opacity="1"><g transform="translate(2.341693, 3.734232)"><g><path d="M 1.109375 0.03125 C 1.015625 0.03125 0.914062 0.0234375 0.8125 0.015625 C 0.71875 0.00390625 0.625 -0.015625 0.53125 -0.046875 C 0.4375 -0.078125 0.359375 -0.113281 0.296875 -0.15625 C 0.242188 -0.175781 0.207031 -0.207031 0.1875 -0.25 C 0.164062 -0.300781 0.15625 -0.347656 0.15625 -0.390625 C 0.164062 -0.441406 0.179688 -0.484375 0.203125 -0.515625 C 0.234375 -0.554688 0.269531 -0.582031 0.3125 -0.59375 C 0.363281 -0.601562 0.414062 -0.59375 0.46875 -0.5625 C 0.5625 -0.507812 0.664062 -0.46875 0.78125 -0.4375 C 0.894531 -0.414062 1.003906 -0.40625 1.109375 -0.40625 C 1.285156 -0.40625 1.40625 -0.429688 1.46875 -0.484375 C 1.539062 -0.535156 1.578125 -0.601562 1.578125 -0.6875 C 1.578125 -0.75 1.550781 -0.796875 1.5 -0.828125 C 1.445312 -0.867188 1.359375 -0.90625 1.234375 -0.9375 L 0.84375 -1.015625 C 0.625 -1.066406 0.460938 -1.144531 0.359375 -1.25 C 0.253906 -1.363281 0.203125 -1.515625 0.203125 -1.703125 C 0.203125 -1.816406 0.222656 -1.921875 0.265625 -2.015625 C 0.316406 -2.109375 0.382812 -2.1875 0.46875 -2.25 C 0.5625 -2.320312 0.664062 -2.375 0.78125 -2.40625 C 0.90625 -2.445312 1.039062 -2.46875 1.1875 -2.46875 C 1.3125 -2.46875 1.4375 -2.453125 1.5625 -2.421875 C 1.6875 -2.390625 1.796875 -2.347656 1.890625 -2.296875 C 1.941406 -2.265625 1.972656 -2.226562 1.984375 -2.1875 C 2.003906 -2.144531 2.007812 -2.101562 2 -2.0625 C 2 -2.019531 1.984375 -1.976562 1.953125 -1.9375 C 1.921875 -1.90625 1.882812 -1.882812 1.84375 -1.875 C 1.800781 -1.875 1.75 -1.882812 1.6875 -1.90625 C 1.613281 -1.945312 1.53125 -1.976562 1.4375 -2 C 1.351562 -2.019531 1.269531 -2.03125 1.1875 -2.03125 C 1.082031 -2.03125 0.992188 -2.015625 0.921875 -1.984375 C 0.859375 -1.960938 0.804688 -1.925781 0.765625 -1.875 C 0.734375 -1.832031 0.71875 -1.78125 0.71875 -1.71875 C 0.71875 -1.65625 0.742188 -1.601562 0.796875 -1.5625 C 0.847656 -1.519531 0.929688 -1.484375 1.046875 -1.453125 L 1.4375 -1.375 C 1.664062 -1.332031 1.832031 -1.253906 1.9375 -1.140625 C 2.050781 -1.035156 2.109375 -0.894531 2.109375 -0.71875 C 2.109375 -0.601562 2.082031 -0.5 2.03125 -0.40625 C 1.988281 -0.3125 1.921875 -0.226562 1.828125 -0.15625 C 1.742188 -0.09375 1.640625 -0.046875 1.515625 -0.015625 C 1.398438 0.015625 1.265625 0.03125 1.109375 0.03125 Z M 1.109375 0.03125 "/></g></g></g><g fill="#254e70" fill-opacity="1"><g transform="translate(5.593909, 3.734232)"><g><path d="M 0.53125 0 C 0.4375 0 0.363281 -0.0195312 0.3125 -0.0625 C 0.269531 -0.113281 0.25 -0.1875 0.25 -0.28125 L 0.25 -2.15625 C 0.25 -2.25 0.269531 -2.316406 0.3125 -2.359375 C 0.363281 -2.410156 0.4375 -2.4375 0.53125 -2.4375 L 1.734375 -2.4375 C 1.796875 -2.4375 1.84375 -2.414062 1.875 -2.375 C 1.914062 -2.34375 1.9375 -2.296875 1.9375 -2.234375 C 1.9375 -2.160156 1.914062 -2.101562 1.875 -2.0625 C 1.84375 -2.03125 1.796875 -2.015625 1.734375 -2.015625 L 0.75 -2.015625 L 0.75 -1.453125 L 1.65625 -1.453125 C 1.71875 -1.453125 1.765625 -1.429688 1.796875 -1.390625 C 1.835938 -1.359375 1.859375 -1.304688 1.859375 -1.234375 C 1.859375 -1.160156 1.835938 -1.109375 1.796875 -1.078125 C 1.765625 -1.046875 1.71875 -1.03125 1.65625 -1.03125 L 0.75 -1.03125 L 0.75 -0.421875 L 1.734375 -0.421875 C 1.796875 -0.421875 1.84375 -0.398438 1.875 -0.359375 C 1.914062 -0.328125 1.9375 -0.273438 1.9375 -0.203125 C 1.9375 -0.140625 1.914062 -0.0859375 1.875 -0.046875 C 1.84375 -0.015625 1.796875 0 1.734375 0 Z M 0.53125 0 "/></g></g></g><g fill="#254e70" fill-opacity="1"><g transform="translate(8.721726, 3.734232)"><g/></g></g><g fill="#254e70" fill-opacity="1"><g transform="translate(10.72305, 3.734232)"><g><path d="M 0.515625 0.03125 C 0.429688 0.03125 0.363281 0.0078125 0.3125 -0.03125 C 0.269531 -0.0820312 0.25 -0.15625 0.25 -0.25 L 0.25 -2.1875 C 0.25 -2.28125 0.269531 -2.347656 0.3125 -2.390625 C 0.363281 -2.441406 0.429688 -2.46875 0.515625 -2.46875 C 0.597656 -2.46875 0.660156 -2.441406 0.703125 -2.390625 C 0.753906 -2.347656 0.78125 -2.28125 0.78125 -2.1875 L 0.78125 -1.453125 L 1.90625 -1.453125 L 1.90625 -2.1875 C 1.90625 -2.28125 1.925781 -2.347656 1.96875 -2.390625 C 2.019531 -2.441406 2.085938 -2.46875 2.171875 -2.46875 C 2.265625 -2.46875 2.332031 -2.441406 2.375 -2.390625 C 2.425781 -2.347656 2.453125 -2.28125 2.453125 -2.1875 L 2.453125 -0.25 C 2.453125 -0.15625 2.425781 -0.0820312 2.375 -0.03125 C 2.332031 0.0078125 2.265625 0.03125 2.171875 0.03125 C 2.085938 0.03125 2.019531 0.0078125 1.96875 -0.03125 C 1.925781 -0.0820312 1.90625 -0.15625 1.90625 -0.25 L 1.90625 -1.015625 L 0.78125 -1.015625 L 0.78125 -0.25 C 0.78125 -0.15625 0.753906 -0.0820312 0.703125 -0.03125 C 0.660156 0.0078125 0.597656 0.03125 0.515625 0.03125 Z M 0.515625 0.03125 "/></g></g></g><g fill="#254e70" fill-opacity="1"><g transform="translate(14.455581, 3.734232)"><g><path d="M 0.3125 0.03125 C 0.25 0.03125 0.195312 0.015625 0.15625 -0.015625 C 0.113281 -0.046875 0.0859375 -0.0820312 0.078125 -0.125 C 0.0664062 -0.175781 0.078125 -0.234375 0.109375 -0.296875 L 1 -2.234375 C 1.03125 -2.316406 1.070312 -2.375 1.125 -2.40625 C 1.175781 -2.445312 1.234375 -2.46875 1.296875 -2.46875 C 1.367188 -2.46875 1.425781 -2.445312 1.46875 -2.40625 C 1.519531 -2.375 1.566406 -2.316406 1.609375 -2.234375 L 2.5 -0.296875 C 2.53125 -0.234375 2.539062 -0.175781 2.53125 -0.125 C 2.519531 -0.0820312 2.492188 -0.046875 2.453125 -0.015625 C 2.421875 0.015625 2.375 0.03125 2.3125 0.03125 C 2.226562 0.03125 2.164062 0.015625 2.125 -0.015625 C 2.082031 -0.0546875 2.046875 -0.117188 2.015625 -0.203125 L 1.8125 -0.671875 L 2.015625 -0.53125 L 0.578125 -0.53125 L 0.796875 -0.671875 L 0.59375 -0.203125 C 0.550781 -0.117188 0.507812 -0.0546875 0.46875 -0.015625 C 0.4375 0.015625 0.382812 0.03125 0.3125 0.03125 Z M 1.296875 -1.859375 L 0.859375 -0.8125 L 0.765625 -0.953125 L 1.84375 -0.953125 L 1.75 -0.8125 Z M 1.296875 -1.859375 "/></g></g></g><g fill="#254e70" fill-opacity="1"><g transform="translate(18.094812, 3.734232)"><g><path d="M 0.5 0.03125 C 0.414062 0.03125 0.351562 0.0078125 0.3125 -0.03125 C 0.269531 -0.0820312 0.25 -0.148438 0.25 -0.234375 L 0.25 -2.203125 C 0.25 -2.285156 0.269531 -2.347656 0.3125 -2.390625 C 0.351562 -2.441406 0.410156 -2.46875 0.484375 -2.46875 C 0.546875 -2.46875 0.59375 -2.453125 0.625 -2.421875 C 0.65625 -2.398438 0.691406 -2.363281 0.734375 -2.3125 L 1.953125 -0.765625 L 1.859375 -0.765625 L 1.859375 -2.203125 C 1.859375 -2.285156 1.878906 -2.347656 1.921875 -2.390625 C 1.960938 -2.441406 2.023438 -2.46875 2.109375 -2.46875 C 2.191406 -2.46875 2.253906 -2.441406 2.296875 -2.390625 C 2.335938 -2.347656 2.359375 -2.285156 2.359375 -2.203125 L 2.359375 -0.21875 C 2.359375 -0.144531 2.335938 -0.0820312 2.296875 -0.03125 C 2.253906 0.0078125 2.203125 0.03125 2.140625 0.03125 C 2.078125 0.03125 2.023438 0.0195312 1.984375 0 C 1.941406 -0.03125 1.898438 -0.0703125 1.859375 -0.125 L 0.65625 -1.671875 L 0.75 -1.671875 L 0.75 -0.234375 C 0.75 -0.148438 0.726562 -0.0820312 0.6875 -0.03125 C 0.644531 0.0078125 0.582031 0.03125 0.5 0.03125 Z M 0.5 0.03125 "/></g></g></g><g fill="#254e70" fill-opacity="1"><g transform="translate(21.734044, 3.734232)"><g><path d="M 0.53125 0 C 0.4375 0 0.363281 -0.0195312 0.3125 -0.0625 C 0.269531 -0.113281 0.25 -0.1875 0.25 -0.28125 L 0.25 -2.15625 C 0.25 -2.25 0.269531 -2.316406 0.3125 -2.359375 C 0.363281 -2.410156 0.4375 -2.4375 0.53125 -2.4375 L 1.203125 -2.4375 C 1.617188 -2.4375 1.9375 -2.328125 2.15625 -2.109375 C 2.382812 -1.898438 2.5 -1.601562 2.5 -1.21875 C 2.5 -1.019531 2.46875 -0.84375 2.40625 -0.6875 C 2.351562 -0.539062 2.269531 -0.414062 2.15625 -0.3125 C 2.050781 -0.207031 1.914062 -0.128906 1.75 -0.078125 C 1.59375 -0.0234375 1.410156 0 1.203125 0 Z M 0.78125 -0.4375 L 1.171875 -0.4375 C 1.296875 -0.4375 1.40625 -0.453125 1.5 -0.484375 C 1.601562 -0.515625 1.6875 -0.5625 1.75 -0.625 C 1.8125 -0.695312 1.859375 -0.78125 1.890625 -0.875 C 1.921875 -0.96875 1.9375 -1.082031 1.9375 -1.21875 C 1.9375 -1.476562 1.867188 -1.671875 1.734375 -1.796875 C 1.609375 -1.929688 1.421875 -2 1.171875 -2 L 0.78125 -2 Z M 0.78125 -0.4375 "/></g></g></g><g fill="#254e70" fill-opacity="1"><g transform="translate(25.445841, 3.734232)"><g><path d="M 1.109375 0.03125 C 1.015625 0.03125 0.914062 0.0234375 0.8125 0.015625 C 0.71875 0.00390625 0.625 -0.015625 0.53125 -0.046875 C 0.4375 -0.078125 0.359375 -0.113281 0.296875 -0.15625 C 0.242188 -0.175781 0.207031 -0.207031 0.1875 -0.25 C 0.164062 -0.300781 0.15625 -0.347656 0.15625 -0.390625 C 0.164062 -0.441406 0.179688 -0.484375 0.203125 -0.515625 C 0.234375 -0.554688 0.269531 -0.582031 0.3125 -0.59375 C 0.363281 -0.601562 0.414062 -0.59375 0.46875 -0.5625 C 0.5625 -0.507812 0.664062 -0.46875 0.78125 -0.4375 C 0.894531 -0.414062 1.003906 -0.40625 1.109375 -0.40625 C 1.285156 -0.40625 1.40625 -0.429688 1.46875 -0.484375 C 1.539062 -0.535156 1.578125 -0.601562 1.578125 -0.6875 C 1.578125 -0.75 1.550781 -0.796875 1.5 -0.828125 C 1.445312 -0.867188 1.359375 -0.90625 1.234375 -0.9375 L 0.84375 -1.015625 C 0.625 -1.066406 0.460938 -1.144531 0.359375 -1.25 C 0.253906 -1.363281 0.203125 -1.515625 0.203125 -1.703125 C 0.203125 -1.816406 0.222656 -1.921875 0.265625 -2.015625 C 0.316406 -2.109375 0.382812 -2.1875 0.46875 -2.25 C 0.5625 -2.320312 0.664062 -2.375 0.78125 -2.40625 C 0.90625 -2.445312 1.039062 -2.46875 1.1875 -2.46875 C 1.3125 -2.46875 1.4375 -2.453125 1.5625 -2.421875 C 1.6875 -2.390625 1.796875 -2.347656 1.890625 -2.296875 C 1.941406 -2.265625 1.972656 -2.226562 1.984375 -2.1875 C 2.003906 -2.144531 2.007812 -2.101562 2 -2.0625 C 2 -2.019531 1.984375 -1.976562 1.953125 -1.9375 C 1.921875 -1.90625 1.882812 -1.882812 1.84375 -1.875 C 1.800781 -1.875 1.75 -1.882812 1.6875 -1.90625 C 1.613281 -1.945312 1.53125 -1.976562 1.4375 -2 C 1.351562 -2.019531 1.269531 -2.03125 1.1875 -2.03125 C 1.082031 -2.03125 0.992188 -2.015625 0.921875 -1.984375 C 0.859375 -1.960938 0.804688 -1.925781 0.765625 -1.875 C 0.734375 -1.832031 0.71875 -1.78125 0.71875 -1.71875 C 0.71875 -1.65625 0.742188 -1.601562 0.796875 -1.5625 C 0.847656 -1.519531 0.929688 -1.484375 1.046875 -1.453125 L 1.4375 -1.375 C 1.664062 -1.332031 1.832031 -1.253906 1.9375 -1.140625 C 2.050781 -1.035156 2.109375 -0.894531 2.109375 -0.71875 C 2.109375 -0.601562 2.082031 -0.5 2.03125 -0.40625 C 1.988281 -0.3125 1.921875 -0.226562 1.828125 -0.15625 C 1.742188 -0.09375 1.640625 -0.046875 1.515625 -0.015625 C 1.398438 0.015625 1.265625 0.03125 1.109375 0.03125 Z M 1.109375 0.03125 "/></g></g></g></g></g><g clip-path="url(#0949339f90)"><g transform="matrix(1, 0, 0, 1, 5, 31)"><g clip-path="url(#63bf45519a)"><g clip-path="url(#47d5655500)"><g fill="#254e70" fill-opacity="1"><g transform="translate(0.426345, 4.78576)"><g><path d="M 0.625 0 C 0.53125 0 0.457031 -0.0234375 0.40625 -0.078125 C 0.351562 -0.128906 0.328125 -0.203125 0.328125 -0.296875 L 0.328125 -2.765625 C 0.328125 -2.859375 0.351562 -2.929688 0.40625 -2.984375 C 0.457031 -3.035156 0.53125 -3.0625 0.625 -3.0625 L 1.46875 -3.0625 C 1.976562 -3.0625 2.375 -2.925781 2.65625 -2.65625 C 2.9375 -2.394531 3.078125 -2.019531 3.078125 -1.53125 C 3.078125 -1.289062 3.039062 -1.070312 2.96875 -0.875 C 2.894531 -0.6875 2.789062 -0.523438 2.65625 -0.390625 C 2.519531 -0.265625 2.351562 -0.164062 2.15625 -0.09375 C 1.957031 -0.03125 1.726562 0 1.46875 0 Z M 0.890625 -0.453125 L 1.4375 -0.453125 C 1.613281 -0.453125 1.769531 -0.472656 1.90625 -0.515625 C 2.039062 -0.566406 2.148438 -0.632812 2.234375 -0.71875 C 2.328125 -0.8125 2.394531 -0.925781 2.4375 -1.0625 C 2.476562 -1.195312 2.5 -1.351562 2.5 -1.53125 C 2.5 -1.894531 2.410156 -2.164062 2.234375 -2.34375 C 2.054688 -2.519531 1.789062 -2.609375 1.4375 -2.609375 L 0.890625 -2.609375 Z M 0.890625 -0.453125 "/></g></g></g></g><g fill="#254e70" fill-opacity="1"><g transform="translate(4.16504, 4.78576)"><g><path d="M 0.609375 0.03125 C 0.523438 0.03125 0.457031 0.00390625 0.40625 -0.046875 C 0.351562 -0.0976562 0.328125 -0.164062 0.328125 -0.25 L 0.328125 -2.8125 C 0.328125 -2.90625 0.351562 -2.972656 0.40625 -3.015625 C 0.457031 -3.066406 0.523438 -3.09375 0.609375 -3.09375 C 0.703125 -3.09375 0.769531 -3.066406 0.8125 -3.015625 C 0.863281 -2.972656 0.890625 -2.90625 0.890625 -2.8125 L 0.890625 -0.25 C 0.890625 -0.164062 0.863281 -0.0976562 0.8125 -0.046875 C 0.769531 0.00390625 0.703125 0.03125 0.609375 0.03125 Z M 0.609375 0.03125 "/></g></g></g><g fill="#254e70" fill-opacity="1"><g transform="translate(5.821945, 4.78576)"><g><path d="M 1.8125 0.046875 C 1.46875 0.046875 1.175781 -0.015625 0.9375 -0.140625 C 0.707031 -0.273438 0.53125 -0.457031 0.40625 -0.6875 C 0.289062 -0.925781 0.234375 -1.207031 0.234375 -1.53125 C 0.234375 -1.769531 0.269531 -1.984375 0.34375 -2.171875 C 0.414062 -2.367188 0.515625 -2.535156 0.640625 -2.671875 C 0.773438 -2.816406 0.941406 -2.925781 1.140625 -3 C 1.335938 -3.070312 1.554688 -3.109375 1.796875 -3.109375 C 1.960938 -3.109375 2.125 -3.085938 2.28125 -3.046875 C 2.445312 -3.003906 2.601562 -2.9375 2.75 -2.84375 C 2.800781 -2.8125 2.832031 -2.769531 2.84375 -2.71875 C 2.863281 -2.675781 2.867188 -2.628906 2.859375 -2.578125 C 2.847656 -2.535156 2.828125 -2.5 2.796875 -2.46875 C 2.765625 -2.4375 2.722656 -2.414062 2.671875 -2.40625 C 2.628906 -2.394531 2.578125 -2.40625 2.515625 -2.4375 C 2.398438 -2.5 2.285156 -2.546875 2.171875 -2.578125 C 2.066406 -2.609375 1.941406 -2.625 1.796875 -2.625 C 1.585938 -2.625 1.40625 -2.578125 1.25 -2.484375 C 1.101562 -2.398438 0.992188 -2.273438 0.921875 -2.109375 C 0.847656 -1.953125 0.8125 -1.757812 0.8125 -1.53125 C 0.8125 -1.164062 0.894531 -0.890625 1.0625 -0.703125 C 1.238281 -0.523438 1.492188 -0.4375 1.828125 -0.4375 C 1.941406 -0.4375 2.054688 -0.445312 2.171875 -0.46875 C 2.296875 -0.488281 2.414062 -0.519531 2.53125 -0.5625 L 2.421875 -0.3125 L 2.421875 -1.25 L 1.953125 -1.25 C 1.878906 -1.25 1.820312 -1.265625 1.78125 -1.296875 C 1.738281 -1.335938 1.71875 -1.390625 1.71875 -1.453125 C 1.71875 -1.515625 1.738281 -1.5625 1.78125 -1.59375 C 1.820312 -1.632812 1.878906 -1.65625 1.953125 -1.65625 L 2.65625 -1.65625 C 2.726562 -1.65625 2.785156 -1.632812 2.828125 -1.59375 C 2.867188 -1.550781 2.890625 -1.492188 2.890625 -1.421875 L 2.890625 -0.375 C 2.890625 -0.3125 2.875 -0.253906 2.84375 -0.203125 C 2.820312 -0.160156 2.785156 -0.132812 2.734375 -0.125 C 2.609375 -0.0703125 2.460938 -0.03125 2.296875 0 C 2.128906 0.03125 1.96875 0.046875 1.8125 0.046875 Z M 1.8125 0.046875 "/></g></g></g><g fill="#254e70" fill-opacity="1"><g transform="translate(9.447877, 4.78576)"><g><path d="M 0.609375 0.03125 C 0.523438 0.03125 0.457031 0.00390625 0.40625 -0.046875 C 0.351562 -0.0976562 0.328125 -0.164062 0.328125 -0.25 L 0.328125 -2.8125 C 0.328125 -2.90625 0.351562 -2.972656 0.40625 -3.015625 C 0.457031 -3.066406 0.523438 -3.09375 0.609375 -3.09375 C 0.703125 -3.09375 0.769531 -3.066406 0.8125 -3.015625 C 0.863281 -2.972656 0.890625 -2.90625 0.890625 -2.8125 L 0.890625 -0.25 C 0.890625 -0.164062 0.863281 -0.0976562 0.8125 -0.046875 C 0.769531 0.00390625 0.703125 0.03125 0.609375 0.03125 Z M 0.609375 0.03125 "/></g></g></g><g fill="#254e70" fill-opacity="1"><g transform="translate(11.104782, 4.78576)"><g><path d="M 1.34375 0.03125 C 1.257812 0.03125 1.191406 0.00390625 1.140625 -0.046875 C 1.097656 -0.0976562 1.078125 -0.164062 1.078125 -0.25 L 1.078125 -2.59375 L 0.21875 -2.59375 C 0.144531 -2.59375 0.0859375 -2.613281 0.046875 -2.65625 C 0.00390625 -2.695312 -0.015625 -2.753906 -0.015625 -2.828125 C -0.015625 -2.898438 0.00390625 -2.957031 0.046875 -3 C 0.0859375 -3.039062 0.144531 -3.0625 0.21875 -3.0625 L 2.46875 -3.0625 C 2.550781 -3.0625 2.613281 -3.039062 2.65625 -3 C 2.695312 -2.957031 2.71875 -2.898438 2.71875 -2.828125 C 2.71875 -2.753906 2.695312 -2.695312 2.65625 -2.65625 C 2.613281 -2.613281 2.550781 -2.59375 2.46875 -2.59375 L 1.625 -2.59375 L 1.625 -0.25 C 1.625 -0.164062 1.597656 -0.0976562 1.546875 -0.046875 C 1.503906 0.00390625 1.4375 0.03125 1.34375 0.03125 Z M 1.34375 0.03125 "/></g></g></g><g fill="#254e70" fill-opacity="1"><g transform="translate(13.893561, 4.78576)"><g><path d="M 0.359375 0.03125 C 0.296875 0.03125 0.242188 0.015625 0.203125 -0.015625 C 0.160156 -0.046875 0.132812 -0.0859375 0.125 -0.140625 C 0.113281 -0.191406 0.125 -0.253906 0.15625 -0.328125 L 1.296875 -2.859375 C 1.335938 -2.941406 1.382812 -3 1.4375 -3.03125 C 1.488281 -3.070312 1.550781 -3.09375 1.625 -3.09375 C 1.6875 -3.09375 1.742188 -3.070312 1.796875 -3.03125 C 1.847656 -3 1.894531 -2.941406 1.9375 -2.859375 L 3.09375 -0.328125 C 3.125 -0.253906 3.132812 -0.191406 3.125 -0.140625 C 3.113281 -0.0859375 3.085938 -0.046875 3.046875 -0.015625 C 3.003906 0.015625 2.953125 0.03125 2.890625 0.03125 C 2.804688 0.03125 2.738281 0.015625 2.6875 -0.015625 C 2.644531 -0.0546875 2.609375 -0.117188 2.578125 -0.203125 L 2.296875 -0.859375 L 2.53125 -0.703125 L 0.703125 -0.703125 L 0.9375 -0.859375 L 0.65625 -0.203125 C 0.613281 -0.117188 0.570312 -0.0546875 0.53125 -0.015625 C 0.5 0.015625 0.441406 0.03125 0.359375 0.03125 Z M 1.609375 -2.453125 L 1 -1.015625 L 0.890625 -1.15625 L 2.34375 -1.15625 L 2.234375 -1.015625 L 1.625 -2.453125 Z M 1.609375 -2.453125 "/></g></g></g><g fill="#254e70" fill-opacity="1"><g transform="translate(17.55419, 4.78576)"><g><path d="M 0.609375 0 C 0.523438 0 0.457031 -0.0234375 0.40625 -0.078125 C 0.351562 -0.128906 0.328125 -0.195312 0.328125 -0.28125 L 0.328125 -2.796875 C 0.328125 -2.890625 0.351562 -2.957031 0.40625 -3 C 0.457031 -3.050781 0.523438 -3.078125 0.609375 -3.078125 C 0.703125 -3.078125 0.769531 -3.050781 0.8125 -3 C 0.863281 -2.957031 0.890625 -2.890625 0.890625 -2.796875 L 0.890625 -0.46875 L 2.15625 -0.46875 C 2.226562 -0.46875 2.285156 -0.445312 2.328125 -0.40625 C 2.367188 -0.375 2.390625 -0.316406 2.390625 -0.234375 C 2.390625 -0.160156 2.367188 -0.101562 2.328125 -0.0625 C 2.285156 -0.0195312 2.226562 0 2.15625 0 Z M 0.609375 0 "/></g></g></g><g fill="#254e70" fill-opacity="1"><g transform="translate(20.425472, 4.78576)"><g/></g></g><g fill="#254e70" fill-opacity="1"><g transform="translate(22.034669, 4.78576)"><g><path d="M 1.765625 0.046875 C 1.441406 0.046875 1.164062 -0.015625 0.9375 -0.140625 C 0.707031 -0.273438 0.53125 -0.457031 0.40625 -0.6875 C 0.289062 -0.925781 0.234375 -1.207031 0.234375 -1.53125 C 0.234375 -1.769531 0.265625 -1.984375 0.328125 -2.171875 C 0.398438 -2.367188 0.5 -2.535156 0.625 -2.671875 C 0.757812 -2.816406 0.921875 -2.925781 1.109375 -3 C 1.304688 -3.070312 1.523438 -3.109375 1.765625 -3.109375 C 1.921875 -3.109375 2.070312 -3.085938 2.21875 -3.046875 C 2.375 -3.003906 2.507812 -2.945312 2.625 -2.875 C 2.6875 -2.832031 2.726562 -2.785156 2.75 -2.734375 C 2.769531 -2.679688 2.773438 -2.628906 2.765625 -2.578125 C 2.753906 -2.523438 2.726562 -2.476562 2.6875 -2.4375 C 2.65625 -2.40625 2.613281 -2.390625 2.5625 -2.390625 C 2.507812 -2.390625 2.453125 -2.410156 2.390625 -2.453125 C 2.296875 -2.503906 2.195312 -2.539062 2.09375 -2.5625 C 1.988281 -2.59375 1.882812 -2.609375 1.78125 -2.609375 C 1.570312 -2.609375 1.394531 -2.566406 1.25 -2.484375 C 1.113281 -2.398438 1.007812 -2.273438 0.9375 -2.109375 C 0.863281 -1.953125 0.828125 -1.757812 0.828125 -1.53125 C 0.828125 -1.300781 0.863281 -1.101562 0.9375 -0.9375 C 1.007812 -0.78125 1.113281 -0.660156 1.25 -0.578125 C 1.394531 -0.492188 1.570312 -0.453125 1.78125 -0.453125 C 1.882812 -0.453125 1.988281 -0.460938 2.09375 -0.484375 C 2.207031 -0.515625 2.3125 -0.5625 2.40625 -0.625 C 2.46875 -0.65625 2.523438 -0.671875 2.578125 -0.671875 C 2.628906 -0.671875 2.671875 -0.648438 2.703125 -0.609375 C 2.742188 -0.578125 2.769531 -0.535156 2.78125 -0.484375 C 2.789062 -0.441406 2.785156 -0.394531 2.765625 -0.34375 C 2.742188 -0.300781 2.707031 -0.257812 2.65625 -0.21875 C 2.539062 -0.132812 2.398438 -0.0664062 2.234375 -0.015625 C 2.078125 0.0234375 1.921875 0.046875 1.765625 0.046875 Z M 1.765625 0.046875 "/></g></g></g><g fill="#254e70" fill-opacity="1"><g transform="translate(25.317944, 4.78576)"><g><path d="M 1.703125 0.046875 C 1.410156 0.046875 1.148438 -0.015625 0.921875 -0.140625 C 0.703125 -0.273438 0.53125 -0.460938 0.40625 -0.703125 C 0.289062 -0.941406 0.234375 -1.21875 0.234375 -1.53125 C 0.234375 -1.769531 0.265625 -1.984375 0.328125 -2.171875 C 0.398438 -2.367188 0.5 -2.535156 0.625 -2.671875 C 0.757812 -2.816406 0.914062 -2.925781 1.09375 -3 C 1.28125 -3.070312 1.484375 -3.109375 1.703125 -3.109375 C 2.003906 -3.109375 2.265625 -3.039062 2.484375 -2.90625 C 2.703125 -2.78125 2.867188 -2.597656 2.984375 -2.359375 C 3.109375 -2.128906 3.171875 -1.851562 3.171875 -1.53125 C 3.171875 -1.289062 3.132812 -1.070312 3.0625 -0.875 C 3 -0.6875 2.898438 -0.519531 2.765625 -0.375 C 2.640625 -0.238281 2.488281 -0.132812 2.3125 -0.0625 C 2.132812 0.0078125 1.929688 0.046875 1.703125 0.046875 Z M 1.703125 -0.4375 C 1.890625 -0.4375 2.050781 -0.476562 2.1875 -0.5625 C 2.320312 -0.644531 2.421875 -0.769531 2.484375 -0.9375 C 2.554688 -1.101562 2.59375 -1.300781 2.59375 -1.53125 C 2.59375 -1.875 2.515625 -2.140625 2.359375 -2.328125 C 2.203125 -2.523438 1.984375 -2.625 1.703125 -2.625 C 1.515625 -2.625 1.351562 -2.582031 1.21875 -2.5 C 1.09375 -2.414062 0.992188 -2.289062 0.921875 -2.125 C 0.847656 -1.957031 0.8125 -1.757812 0.8125 -1.53125 C 0.8125 -1.1875 0.890625 -0.914062 1.046875 -0.71875 C 1.203125 -0.53125 1.421875 -0.4375 1.703125 -0.4375 Z M 1.703125 -0.4375 "/></g></g></g><g fill="#254e70" fill-opacity="1"><g transform="translate(29.15639, 4.78576)"><g><path d="M 0.59375 0.03125 C 0.507812 0.03125 0.441406 0.0078125 0.390625 -0.03125 C 0.347656 -0.0820312 0.328125 -0.148438 0.328125 -0.234375 L 0.328125 -2.8125 C 0.328125 -2.90625 0.347656 -2.972656 0.390625 -3.015625 C 0.441406 -3.066406 0.503906 -3.09375 0.578125 -3.09375 C 0.640625 -3.09375 0.6875 -3.078125 0.71875 -3.046875 C 0.757812 -3.023438 0.800781 -2.988281 0.84375 -2.9375 L 2.515625 -0.78125 L 2.390625 -0.78125 L 2.390625 -2.828125 C 2.390625 -2.910156 2.410156 -2.972656 2.453125 -3.015625 C 2.503906 -3.066406 2.570312 -3.09375 2.65625 -3.09375 C 2.738281 -3.09375 2.800781 -3.066406 2.84375 -3.015625 C 2.894531 -2.972656 2.921875 -2.910156 2.921875 -2.828125 L 2.921875 -0.21875 C 2.921875 -0.144531 2.898438 -0.0820312 2.859375 -0.03125 C 2.816406 0.0078125 2.757812 0.03125 2.6875 0.03125 C 2.625 0.03125 2.570312 0.0195312 2.53125 0 C 2.488281 -0.03125 2.445312 -0.0703125 2.40625 -0.125 L 0.75 -2.296875 L 0.84375 -2.296875 L 0.84375 -0.234375 C 0.84375 -0.148438 0.820312 -0.0820312 0.78125 -0.03125 C 0.738281 0.0078125 0.675781 0.03125 0.59375 0.03125 Z M 0.59375 0.03125 "/></g></g></g><g fill="#254e70" fill-opacity="1"><g transform="translate(32.834368, 4.78576)"><g><path d="M 1.765625 0.046875 C 1.441406 0.046875 1.164062 -0.015625 0.9375 -0.140625 C 0.707031 -0.273438 0.53125 -0.457031 0.40625 -0.6875 C 0.289062 -0.925781 0.234375 -1.207031 0.234375 -1.53125 C 0.234375 -1.769531 0.265625 -1.984375 0.328125 -2.171875 C 0.398438 -2.367188 0.5 -2.535156 0.625 -2.671875 C 0.757812 -2.816406 0.921875 -2.925781 1.109375 -3 C 1.304688 -3.070312 1.523438 -3.109375 1.765625 -3.109375 C 1.921875 -3.109375 2.070312 -3.085938 2.21875 -3.046875 C 2.375 -3.003906 2.507812 -2.945312 2.625 -2.875 C 2.6875 -2.832031 2.726562 -2.785156 2.75 -2.734375 C 2.769531 -2.679688 2.773438 -2.628906 2.765625 -2.578125 C 2.753906 -2.523438 2.726562 -2.476562 2.6875 -2.4375 C 2.65625 -2.40625 2.613281 -2.390625 2.5625 -2.390625 C 2.507812 -2.390625 2.453125 -2.410156 2.390625 -2.453125 C 2.296875 -2.503906 2.195312 -2.539062 2.09375 -2.5625 C 1.988281 -2.59375 1.882812 -2.609375 1.78125 -2.609375 C 1.570312 -2.609375 1.394531 -2.566406 1.25 -2.484375 C 1.113281 -2.398438 1.007812 -2.273438 0.9375 -2.109375 C 0.863281 -1.953125 0.828125 -1.757812 0.828125 -1.53125 C 0.828125 -1.300781 0.863281 -1.101562 0.9375 -0.9375 C 1.007812 -0.78125 1.113281 -0.660156 1.25 -0.578125 C 1.394531 -0.492188 1.570312 -0.453125 1.78125 -0.453125 C 1.882812 -0.453125 1.988281 -0.460938 2.09375 -0.484375 C 2.207031 -0.515625 2.3125 -0.5625 2.40625 -0.625 C 2.46875 -0.65625 2.523438 -0.671875 2.578125 -0.671875 C 2.628906 -0.671875 2.671875 -0.648438 2.703125 -0.609375 C 2.742188 -0.578125 2.769531 -0.535156 2.78125 -0.484375 C 2.789062 -0.441406 2.785156 -0.394531 2.765625 -0.34375 C 2.742188 -0.300781 2.707031 -0.257812 2.65625 -0.21875 C 2.539062 -0.132812 2.398438 -0.0664062 2.234375 -0.015625 C 2.078125 0.0234375 1.921875 0.046875 1.765625 0.046875 Z M 1.765625 0.046875 "/></g></g></g><g fill="#254e70" fill-opacity="1"><g transform="translate(36.217425, 4.78576)"><g><path d="M 0.609375 0.03125 C 0.523438 0.03125 0.457031 0.00390625 0.40625 -0.046875 C 0.351562 -0.0976562 0.328125 -0.164062 0.328125 -0.25 L 0.328125 -2.8125 C 0.328125 -2.90625 0.351562 -2.972656 0.40625 -3.015625 C 0.457031 -3.066406 0.523438 -3.09375 0.609375 -3.09375 C 0.703125 -3.09375 0.769531 -3.066406 0.8125 -3.015625 C 0.863281 -2.972656 0.890625 -2.90625 0.890625 -2.8125 L 0.890625 -0.25 C 0.890625 -0.164062 0.863281 -0.0976562 0.8125 -0.046875 C 0.769531 0.00390625 0.703125 0.03125 0.609375 0.03125 Z M 0.609375 0.03125 "/></g></g></g><g fill="#254e70" fill-opacity="1"><g transform="translate(37.87433, 4.78576)"><g><path d="M 0.625 0 C 0.53125 0 0.457031 -0.0234375 0.40625 -0.078125 C 0.351562 -0.128906 0.328125 -0.203125 0.328125 -0.296875 L 0.328125 -2.765625 C 0.328125 -2.859375 0.351562 -2.929688 0.40625 -2.984375 C 0.457031 -3.035156 0.53125 -3.0625 0.625 -3.0625 L 2.1875 -3.0625 C 2.257812 -3.0625 2.3125 -3.039062 2.34375 -3 C 2.382812 -2.96875 2.40625 -2.914062 2.40625 -2.84375 C 2.40625 -2.769531 2.382812 -2.710938 2.34375 -2.671875 C 2.3125 -2.640625 2.257812 -2.625 2.1875 -2.625 L 0.875 -2.625 L 0.875 -1.78125 L 2.078125 -1.78125 C 2.160156 -1.78125 2.21875 -1.757812 2.25 -1.71875 C 2.289062 -1.675781 2.3125 -1.625 2.3125 -1.5625 C 2.3125 -1.488281 2.289062 -1.429688 2.25 -1.390625 C 2.21875 -1.347656 2.160156 -1.328125 2.078125 -1.328125 L 0.875 -1.328125 L 0.875 -0.4375 L 2.1875 -0.4375 C 2.257812 -0.4375 2.3125 -0.414062 2.34375 -0.375 C 2.382812 -0.34375 2.40625 -0.289062 2.40625 -0.21875 C 2.40625 -0.144531 2.382812 -0.0859375 2.34375 -0.046875 C 2.3125 -0.015625 2.257812 0 2.1875 0 Z M 0.625 0 "/></g></g></g><g fill="#254e70" fill-opacity="1"><g transform="translate(40.897411, 4.78576)"><g><path d="M 0.609375 0.03125 C 0.523438 0.03125 0.457031 0.00390625 0.40625 -0.046875 C 0.351562 -0.0976562 0.328125 -0.164062 0.328125 -0.25 L 0.328125 -2.78125 C 0.328125 -2.875 0.351562 -2.941406 0.40625 -2.984375 C 0.457031 -3.035156 0.523438 -3.0625 0.609375 -3.0625 L 1.65625 -3.0625 C 2 -3.0625 2.257812 -2.976562 2.4375 -2.8125 C 2.625 -2.65625 2.71875 -2.429688 2.71875 -2.140625 C 2.71875 -1.953125 2.675781 -1.789062 2.59375 -1.65625 C 2.507812 -1.519531 2.390625 -1.414062 2.234375 -1.34375 C 2.078125 -1.269531 1.882812 -1.234375 1.65625 -1.234375 L 1.703125 -1.296875 L 1.84375 -1.296875 C 1.96875 -1.296875 2.070312 -1.265625 2.15625 -1.203125 C 2.25 -1.148438 2.328125 -1.0625 2.390625 -0.9375 L 2.71875 -0.34375 C 2.75 -0.28125 2.765625 -0.21875 2.765625 -0.15625 C 2.765625 -0.101562 2.742188 -0.0546875 2.703125 -0.015625 C 2.660156 0.015625 2.597656 0.03125 2.515625 0.03125 C 2.441406 0.03125 2.378906 0.015625 2.328125 -0.015625 C 2.273438 -0.046875 2.234375 -0.0976562 2.203125 -0.171875 L 1.765625 -0.984375 C 1.710938 -1.078125 1.648438 -1.140625 1.578125 -1.171875 C 1.503906 -1.203125 1.410156 -1.21875 1.296875 -1.21875 L 0.890625 -1.21875 L 0.890625 -0.25 C 0.890625 -0.164062 0.863281 -0.0976562 0.8125 -0.046875 C 0.769531 0.00390625 0.703125 0.03125 0.609375 0.03125 Z M 0.890625 -1.640625 L 1.5625 -1.640625 C 1.769531 -1.640625 1.921875 -1.679688 2.015625 -1.765625 C 2.117188 -1.847656 2.171875 -1.96875 2.171875 -2.125 C 2.171875 -2.289062 2.117188 -2.414062 2.015625 -2.5 C 1.921875 -2.582031 1.769531 -2.625 1.5625 -2.625 L 0.890625 -2.625 Z M 0.890625 -1.640625 "/></g></g></g><g fill="#254e70" fill-opacity="1"><g transform="translate(44.284795, 4.78576)"><g><path d="M 1.8125 0.046875 C 1.46875 0.046875 1.175781 -0.015625 0.9375 -0.140625 C 0.707031 -0.273438 0.53125 -0.457031 0.40625 -0.6875 C 0.289062 -0.925781 0.234375 -1.207031 0.234375 -1.53125 C 0.234375 -1.769531 0.269531 -1.984375 0.34375 -2.171875 C 0.414062 -2.367188 0.515625 -2.535156 0.640625 -2.671875 C 0.773438 -2.816406 0.941406 -2.925781 1.140625 -3 C 1.335938 -3.070312 1.554688 -3.109375 1.796875 -3.109375 C 1.960938 -3.109375 2.125 -3.085938 2.28125 -3.046875 C 2.445312 -3.003906 2.601562 -2.9375 2.75 -2.84375 C 2.800781 -2.8125 2.832031 -2.769531 2.84375 -2.71875 C 2.863281 -2.675781 2.867188 -2.628906 2.859375 -2.578125 C 2.847656 -2.535156 2.828125 -2.5 2.796875 -2.46875 C 2.765625 -2.4375 2.722656 -2.414062 2.671875 -2.40625 C 2.628906 -2.394531 2.578125 -2.40625 2.515625 -2.4375 C 2.398438 -2.5 2.285156 -2.546875 2.171875 -2.578125 C 2.066406 -2.609375 1.941406 -2.625 1.796875 -2.625 C 1.585938 -2.625 1.40625 -2.578125 1.25 -2.484375 C 1.101562 -2.398438 0.992188 -2.273438 0.921875 -2.109375 C 0.847656 -1.953125 0.8125 -1.757812 0.8125 -1.53125 C 0.8125 -1.164062 0.894531 -0.890625 1.0625 -0.703125 C 1.238281 -0.523438 1.492188 -0.4375 1.828125 -0.4375 C 1.941406 -0.4375 2.054688 -0.445312 2.171875 -0.46875 C 2.296875 -0.488281 2.414062 -0.519531 2.53125 -0.5625 L 2.421875 -0.3125 L 2.421875 -1.25 L 1.953125 -1.25 C 1.878906 -1.25 1.820312 -1.265625 1.78125 -1.296875 C 1.738281 -1.335938 1.71875 -1.390625 1.71875 -1.453125 C 1.71875 -1.515625 1.738281 -1.5625 1.78125 -1.59375 C 1.820312 -1.632812 1.878906 -1.65625 1.953125 -1.65625 L 2.65625 -1.65625 C 2.726562 -1.65625 2.785156 -1.632812 2.828125 -1.59375 C 2.867188 -1.550781 2.890625 -1.492188 2.890625 -1.421875 L 2.890625 -0.375 C 2.890625 -0.3125 2.875 -0.253906 2.84375 -0.203125 C 2.820312 -0.160156 2.785156 -0.132812 2.734375 -0.125 C 2.609375 -0.0703125 2.460938 -0.03125 2.296875 0 C 2.128906 0.03125 1.96875 0.046875 1.8125 0.046875 Z M 1.8125 0.046875 "/></g></g></g><g fill="#254e70" fill-opacity="1"><g transform="translate(47.91073, 4.78576)"><g><path d="M 0.625 0 C 0.53125 0 0.457031 -0.0234375 0.40625 -0.078125 C 0.351562 -0.128906 0.328125 -0.203125 0.328125 -0.296875 L 0.328125 -2.765625 C 0.328125 -2.859375 0.351562 -2.929688 0.40625 -2.984375 C 0.457031 -3.035156 0.53125 -3.0625 0.625 -3.0625 L 2.1875 -3.0625 C 2.257812 -3.0625 2.3125 -3.039062 2.34375 -3 C 2.382812 -2.96875 2.40625 -2.914062 2.40625 -2.84375 C 2.40625 -2.769531 2.382812 -2.710938 2.34375 -2.671875 C 2.3125 -2.640625 2.257812 -2.625 2.1875 -2.625 L 0.875 -2.625 L 0.875 -1.78125 L 2.078125 -1.78125 C 2.160156 -1.78125 2.21875 -1.757812 2.25 -1.71875 C 2.289062 -1.675781 2.3125 -1.625 2.3125 -1.5625 C 2.3125 -1.488281 2.289062 -1.429688 2.25 -1.390625 C 2.21875 -1.347656 2.160156 -1.328125 2.078125 -1.328125 L 0.875 -1.328125 L 0.875 -0.4375 L 2.1875 -0.4375 C 2.257812 -0.4375 2.3125 -0.414062 2.34375 -0.375 C 2.382812 -0.34375 2.40625 -0.289062 2.40625 -0.21875 C 2.40625 -0.144531 2.382812 -0.0859375 2.34375 -0.046875 C 2.3125 -0.015625 2.257812 0 2.1875 0 Z M 0.625 0 "/></g></g></g></g></g></g></svg>