<?xml version="1.0" encoding="UTF-8" standalone="no"?>
<!-- Created with Inkscape (http://www.inkscape.org/) -->

<svg
   width="455.17969"
   height="460.3183"
   viewBox="0 0 120.43295 121.79255"
   version="1.1"
   id="svg1"
   inkscape:export-filename="m-icon.svg"
   inkscape:export-xdpi="96"
   inkscape:export-ydpi="96"
   xmlns:inkscape="http://www.inkscape.org/namespaces/inkscape"
   xmlns:sodipodi="http://sodipodi.sourceforge.net/DTD/sodipodi-0.dtd"
   xmlns="http://www.w3.org/2000/svg"
   xmlns:svg="http://www.w3.org/2000/svg">
  <sodipodi:namedview
     id="namedview1"
     pagecolor="#ffffff"
     bordercolor="#000000"
     borderopacity="0.25"
     inkscape:showpageshadow="2"
     inkscape:pageopacity="0.0"
     inkscape:pagecheckerboard="0"
     inkscape:deskcolor="#d1d1d1"
     inkscape:document-units="mm"
     showgrid="true">
    <inkscape:grid
       type="axonomgrid"
       id="grid1"
       units="px"
       originx="-5.9309038"
       originy="-5.2513589"
       spacingx="0"
       spacingy="5.2916666"
       empcolor="#0099e5"
       empopacity="0.30196078"
       color="#0089cd"
       opacity="0.14901961"
       empspacing="3"
       dotted="false"
       gridanglex="30"
       gridanglez="30"
       visible="true" />
  </sodipodi:namedview>
  <defs
     id="defs1" />
  <g
     inkscape:label="Layer 1"
     inkscape:groupmode="layer"
     id="layer1"
     transform="translate(-5.9309042,-5.2513589)">
    <path
       id="path1"
       style="fill:#000000;fill-opacity:1;stroke-width:7.00003;stroke-linecap:round"
       d="m 75.070353,5.251359 c 1.314458,3.9061287 2.243648,12.430176 2.276864,22.395016 l 0.02325,7.035229 A 33.176144,33.531078 0 0 1 97.24574,54.712423 l 7.3241,-0.02429 c 9.39803,-0.03133 17.53916,0.741206 21.71909,1.909961 A 60.930817,61.582691 0 0 0 75.070353,5.251359 Z M 56.809969,5.3309408 A 60.930817,61.582691 0 0 0 5.9309041,57.001172 C 10.100394,55.80326 18.241966,54.975797 27.646375,54.94445 l 7.3241,-0.02429 A 33.176144,33.531078 0 0 1 54.711389,34.759635 l -0.02325,-7.037813 C 54.65497,17.772337 55.524854,9.253976 56.809969,5.3309408 Z M 126.36386,75.289461 c -4.1686,1.198363 -12.31197,2.026401 -21.71857,2.057756 l -7.323582,0.02429 a 33.176144,33.531078 0 0 1 -19.74143,20.160009 l 0.02325,7.038324 c 0.03315,9.94654 -0.836314,18.46265 -2.120801,22.38727 A 60.930817,61.582691 0 0 0 126.36386,75.289461 Z M 6.005835,75.694604 A 60.930817,61.582691 0 0 0 57.222864,127.04392 C 55.907761,123.13947 54.977676,114.61321 54.94445,104.64529 L 54.92119,97.610579 A 33.176144,33.531078 0 0 1 35.04644,77.579244 l -7.324618,0.02429 c -9.395827,0.03132 -17.53518,-0.74063 -21.715987,-1.908928 z" />
  </g>
</svg>
