<svg xmlns="http://www.w3.org/2000/svg" xmlns:xlink="http://www.w3.org/1999/xlink" width="500" zoomAndPan="magnify" viewBox="0 0 375 374.999991" height="500" preserveAspectRatio="xMidYMid meet" version="1.0"><defs><clipPath id="18daf0d277"><path d="M 51.539062 51.539062 L 323.460938 51.539062 L 323.460938 323.460938 L 51.539062 323.460938 Z M 51.539062 51.539062 " clip-rule="nonzero"/></clipPath><clipPath id="8693c05e4b"><path d="M 187.5 51.539062 C 112.410156 51.539062 51.539062 112.410156 51.539062 187.5 C 51.539062 262.589844 112.410156 323.460938 187.5 323.460938 C 262.589844 323.460938 323.460938 262.589844 323.460938 187.5 C 323.460938 112.410156 262.589844 51.539062 187.5 51.539062 Z M 187.5 51.539062 " clip-rule="nonzero"/></clipPath><clipPath id="568a2513f8"><path d="M 72.675781 72.675781 L 302.324219 72.675781 L 302.324219 302.324219 L 72.675781 302.324219 Z M 72.675781 72.675781 " clip-rule="nonzero"/></clipPath><clipPath id="8a23c7eb66"><path d="M 187.5 72.675781 C 124.082031 72.675781 72.675781 124.082031 72.675781 187.5 C 72.675781 250.914062 124.082031 302.324219 187.5 302.324219 C 250.914062 302.324219 302.324219 250.914062 302.324219 187.5 C 302.324219 124.082031 250.914062 72.675781 187.5 72.675781 Z M 187.5 72.675781 " clip-rule="nonzero"/></clipPath><clipPath id="63a9904802"><path d="M 95.933594 122.074219 L 279.683594 122.074219 L 279.683594 253.324219 L 95.933594 253.324219 Z M 95.933594 122.074219 " clip-rule="nonzero"/></clipPath></defs><g clip-path="url(#18daf0d277)"><g clip-path="url(#8693c05e4b)"><path fill="#263542" d="M 51.539062 51.539062 L 323.460938 51.539062 L 323.460938 323.460938 L 51.539062 323.460938 Z M 51.539062 51.539062 " fill-opacity="1" fill-rule="nonzero"/></g></g><g clip-path="url(#568a2513f8)"><g clip-path="url(#8a23c7eb66)"><path fill="#ffffff" d="M 72.675781 72.675781 L 302.324219 72.675781 L 302.324219 302.324219 L 72.675781 302.324219 Z M 72.675781 72.675781 " fill-opacity="1" fill-rule="nonzero"/></g></g><g clip-path="url(#63a9904802)"><path fill="#263542" d="M 115.585938 122.09375 C 104.734375 122.09375 95.933594 130.878906 95.933594 141.746094 C 96.179688 171.542969 95.9375 203.082031 95.933594 233.449219 C 95.933594 243.910156 104.070312 252.375 114.359375 253 L 260.511719 253.101562 C 270.992188 252.679688 279.34375 244.046875 279.34375 233.449219 L 279.34375 138.371094 C 277.753906 129.105469 269.710938 122.09375 260 122.09375 C 211.890625 122.117188 163.71875 122.097656 115.585938 122.09375 Z M 115.28125 132.433594 L 260.617188 132.433594 L 190.300781 202.746094 C 189.019531 204.03125 186.976562 204.03125 185.695312 202.746094 L 115.277344 132.433594 Z M 269.519531 137.445312 L 269.519531 232.734375 C 269.519531 238.414062 267.476562 241.617188 263.378906 242.765625 L 213.84375 193.125 L 269.519531 137.449219 Z M 106.886719 137.855469 L 161.644531 192.613281 L 111.597656 242.660156 C 108.171875 241.503906 106.980469 238.746094 106.890625 234.984375 L 106.890625 137.855469 Z M 168.605469 199.46875 L 185.699219 216.664062 C 186.980469 217.945312 189.019531 217.945312 190.304688 216.664062 L 206.882812 200.082031 L 250.078125 243.277344 L 124.800781 243.277344 L 168.609375 199.46875 Z M 168.605469 199.46875 " fill-opacity="1" fill-rule="nonzero"/></g></svg>