<svg xmlns="http://www.w3.org/2000/svg" xmlns:xlink="http://www.w3.org/1999/xlink" width="500" zoomAndPan="magnify" viewBox="0 0 375 374.999991" height="500" preserveAspectRatio="xMidYMid meet" version="1.0"><defs><clipPath id="38d7f0b511"><path d="M 5.949219 5.949219 L 369.050781 5.949219 L 369.050781 369.050781 L 5.949219 369.050781 Z M 5.949219 5.949219 " clip-rule="nonzero"/></clipPath><clipPath id="071effdd9b"><path d="M 187.5 5.949219 C 87.230469 5.949219 5.949219 87.230469 5.949219 187.5 C 5.949219 287.769531 87.230469 369.050781 187.5 369.050781 C 287.769531 369.050781 369.050781 287.769531 369.050781 187.5 C 369.050781 87.230469 287.769531 5.949219 187.5 5.949219 Z M 187.5 5.949219 " clip-rule="nonzero"/></clipPath><clipPath id="2a0809c67b"><path d="M 34.171875 34.171875 L 340.828125 34.171875 L 340.828125 340.828125 L 34.171875 340.828125 Z M 34.171875 34.171875 " clip-rule="nonzero"/></clipPath><clipPath id="f6086ba1a4"><path d="M 187.5 34.171875 C 102.820312 34.171875 34.171875 102.820312 34.171875 187.5 C 34.171875 272.179688 102.820312 340.828125 187.5 340.828125 C 272.179688 340.828125 340.828125 272.179688 340.828125 187.5 C 340.828125 102.820312 272.179688 34.171875 187.5 34.171875 Z M 187.5 34.171875 " clip-rule="nonzero"/></clipPath><clipPath id="e9c3a176de"><path d="M 65.230469 100.132812 L 310.597656 100.132812 L 310.597656 275.394531 L 65.230469 275.394531 Z M 65.230469 100.132812 " clip-rule="nonzero"/></clipPath></defs><g clip-path="url(#38d7f0b511)"><g clip-path="url(#071effdd9b)"><path fill="#263542" d="M 5.949219 5.949219 L 369.050781 5.949219 L 369.050781 369.050781 L 5.949219 369.050781 Z M 5.949219 5.949219 " fill-opacity="1" fill-rule="nonzero"/></g></g><g clip-path="url(#2a0809c67b)"><g clip-path="url(#f6086ba1a4)"><path fill="#ffffff" d="M 34.171875 34.171875 L 340.828125 34.171875 L 340.828125 340.828125 L 34.171875 340.828125 Z M 34.171875 34.171875 " fill-opacity="1" fill-rule="nonzero"/></g></g><g clip-path="url(#e9c3a176de)"><path fill="#263542" d="M 91.472656 100.164062 C 76.980469 100.164062 65.230469 111.894531 65.230469 126.402344 C 65.554688 166.195312 65.230469 208.308594 65.230469 248.859375 C 65.230469 262.824219 76.09375 274.128906 89.832031 274.964844 L 284.996094 275.101562 C 298.988281 274.535156 310.144531 263.007812 310.144531 248.859375 L 310.144531 121.894531 C 308.019531 109.523438 297.28125 100.164062 284.3125 100.164062 C 220.066406 100.191406 155.742188 100.164062 91.472656 100.164062 Z M 91.0625 113.964844 L 285.132812 113.964844 L 191.238281 207.859375 C 189.527344 209.574219 186.804688 209.574219 185.089844 207.859375 Z M 297.023438 120.664062 L 297.023438 247.902344 C 297.023438 255.484375 294.292969 259.765625 288.824219 261.296875 L 222.675781 195.011719 Z M 79.855469 121.210938 L 152.976562 194.328125 L 86.144531 261.160156 C 81.570312 259.617188 79.976562 255.933594 79.859375 250.910156 L 79.859375 121.210938 Z M 162.269531 203.484375 L 185.09375 226.441406 C 186.808594 228.15625 189.53125 228.15625 191.246094 226.441406 L 213.386719 204.300781 L 271.0625 261.980469 L 103.777344 261.980469 L 162.273438 203.484375 Z M 162.269531 203.484375 " fill-opacity="1" fill-rule="nonzero"/></g></svg>