<?xml version="1.0" encoding="UTF-8" standalone="no"?>
<!-- Created with Inkscape (http://www.inkscape.org/) -->

<svg
   width="210mm"
   height="297mm"
   viewBox="0 0 210 297"
   version="1.1"
   id="svg1"
   inkscape:export-filename="medal.png"
   inkscape:export-xdpi="96"
   inkscape:export-ydpi="96"
   inkscape:version="1.3.2 (091e20e, 2023-11-25, custom)"
   sodipodi:docname="medal.svg"
   xmlns:inkscape="http://www.inkscape.org/namespaces/inkscape"
   xmlns:sodipodi="http://sodipodi.sourceforge.net/DTD/sodipodi-0.dtd"
   xmlns:xlink="http://www.w3.org/1999/xlink"
   xmlns="http://www.w3.org/2000/svg"
   xmlns:svg="http://www.w3.org/2000/svg">
  <sodipodi:namedview
     id="namedview1"
     pagecolor="#ffffff"
     bordercolor="#000000"
     borderopacity="0.25"
     inkscape:showpageshadow="2"
     inkscape:pageopacity="0.0"
     inkscape:pagecheckerboard="0"
     inkscape:deskcolor="#d1d1d1"
     inkscape:document-units="mm"
     inkscape:zoom="0.51717104"
     inkscape:cx="42.539118"
     inkscape:cy="455.36192"
     inkscape:window-width="1920"
     inkscape:window-height="1017"
     inkscape:window-x="-8"
     inkscape:window-y="-8"
     inkscape:window-maximized="1"
     inkscape:current-layer="layer1" />
  <defs
     id="defs1">
    <linearGradient
       id="linearGradient1"
       inkscape:collect="always">
      <stop
         style="stop-color:#334aee;stop-opacity:1;"
         offset="0"
         id="stop1" />
      <stop
         style="stop-color:#0f1e85;stop-opacity:1;"
         offset="1"
         id="stop2" />
    </linearGradient>
    <inkscape:path-effect
       effect="powerstroke"
       id="path-effect8"
       is_visible="true"
       lpeversion="1.3"
       scale_width="1"
       interpolator_type="CentripetalCatmullRom"
       interpolator_beta="0.2"
       start_linecap_type="zerowidth"
       end_linecap_type="zerowidth"
       offset_points="2.0431872,3.5815389 | 0.29862923,0.22867759"
       linejoin_type="round"
       miter_limit="4"
       not_jump="false"
       sort_points="true"
       message="&lt;b&gt;Ctrl + click&lt;/b&gt; on existing node and move it" />
    <inkscape:path-effect
       effect="powerstroke"
       id="path-effect7"
       is_visible="true"
       lpeversion="1.3"
       scale_width="1"
       interpolator_type="CentripetalCatmullRom"
       interpolator_beta="0.2"
       start_linecap_type="zerowidth"
       end_linecap_type="zerowidth"
       offset_points="0.2864655,1.9752639 | 0.8978436,0.21846937 | 3.1666785,-3.8888134 | 1.4984833,-0.9040749 | 3.4762582,-3.6302061 | 5.3237486,1.0573533 | 4.5973854,3.3976874 | 4.1725155,0.94606954"
       linejoin_type="miter"
       miter_limit="4"
       not_jump="false"
       sort_points="true"
       message="&lt;b&gt;Ctrl + click&lt;/b&gt; on existing node and move it" />
    <inkscape:path-effect
       effect="powerstroke"
       id="path-effect5"
       is_visible="true"
       lpeversion="1.3"
       scale_width="0.4"
       interpolator_type="CentripetalCatmullRom"
       interpolator_beta="0.2"
       start_linecap_type="zerowidth"
       end_linecap_type="zerowidth"
       offset_points="0.46051177,-71.439651 | 0.62175898,2.2436705 | 1.6929203,-6.2643303e-14"
       linejoin_type="round"
       miter_limit="4"
       not_jump="false"
       sort_points="true"
       message="&lt;b&gt;Ctrl + click&lt;/b&gt; on existing node and move it" />
    <inkscape:path-effect
       effect="fill_between_many"
       method="bsplinespiro"
       autoreverse="false"
       close="false"
       join="false"
       linkedpaths="#path5,0,1"
       id="path-effect6" />
    <linearGradient
       inkscape:collect="always"
       xlink:href="#linearGradient1"
       id="linearGradient2"
       x1="44.158417"
       y1="148.29594"
       x2="186.74014"
       y2="148.29594"
       gradientUnits="userSpaceOnUse" />
  </defs>
  <g
     inkscape:label="Layer 1"
     inkscape:groupmode="layer"
     id="layer1">
    <g
       id="g8"
       transform="matrix(1.4728395,0,0,1.3075495,-65.038261,-45.404283)"
       style="stroke-width:0.720598;fill:url(#linearGradient2);fill-opacity:1">
      <path
         style="fill:url(#linearGradient2);fill-rule:nonzero;stroke:none;stroke-width:1.58532;stroke-linecap:round;stroke-linejoin:round;stroke-dasharray:none;stroke-opacity:1;paint-order:stroke markers fill;fill-opacity:1"
         id="path4"
         inkscape:path-effect="#path-effect8"
         sodipodi:type="arc"
         sodipodi:cx="106.89058"
         sodipodi:cy="242.37514"
         sodipodi:rx="24.048937"
         sodipodi:ry="23.942543"
         d="m 130.26219,242.37514 c 0.0647,1.65966 0.2273,5.18691 -1.429,9.22756 -0.2206,0.53817 -0.47204,1.08139 -0.75756,1.62506 -0.95516,1.81872 -2.41929,3.85382 -4.52135,5.73433 -2.03542,1.82088 -4.6221,3.44936 -7.71118,4.50418 -2.69468,0.92013 -5.71993,1.38334 -8.95252,1.15891 -3.02376,-0.20993 -5.88242,-1.01899 -8.460361,-2.32767 -2.507502,-1.27293 -4.707264,-2.99716 -6.511507,-5.03477 -1.817084,-2.05211 -3.204367,-4.38829 -4.129495,-6.86712 -0.965074,-2.58588 -1.416442,-5.29269 -1.380473,-8.02048 0.0065,-0.49119 0.02872,-0.97366 0.06518,-1.44702 0.167335,-2.17302 0.656383,-4.35949 1.518842,-6.48699 0.962336,-2.37387 2.377388,-4.6392 4.245932,-6.63218 1.788118,-1.9072 3.96426,-3.53361 6.459804,-4.71908 2.477132,-1.17671 5.240202,-1.90468 8.192082,-2.0487 3.03229,-0.14794 5.90999,0.32156 8.52685,1.2537 2.80794,1.00021 5.2691,2.5151 7.31221,4.32162 2.34919,2.07715 4.07852,4.47473 5.26874,6.88575 1.63751,3.31704 2.17126,6.46791 2.26381,8.8729 z m 1.35466,0 c 0.0918,-2.52255 -0.12547,-5.95827 -1.51597,-9.76614 -1.01288,-2.77376 -2.62934,-5.67483 -5.03903,-8.33508 -2.09528,-2.31315 -4.76084,-4.40452 -7.97626,-5.94056 -2.99963,-1.43295 -6.43984,-2.36116 -10.19501,-2.50934 -3.65755,-0.14434 -7.223116,0.45586 -10.529783,1.71434 -3.326342,1.26597 -6.317687,3.17034 -8.828666,5.5431 -2.623445,2.47904 -4.667414,5.41535 -6.061836,8.58864 -1.250356,2.84544 -1.948849,5.81022 -2.141768,8.75498 -0.04191,0.63981 -0.06046,1.29018 -0.05399,1.95006 0.03615,3.68241 0.85162,7.29102 2.399296,10.61855 1.480874,3.18391 3.591476,6.02154 6.178278,8.35372 2.569825,2.31687 5.558043,4.08908 8.776963,5.2274 3.312566,1.17143 6.790263,1.64545 10.261503,1.43537 3.70744,-0.22437 6.9944,-1.22157 9.76935,-2.60413 3.17849,-1.58362 5.67798,-3.6626 7.57728,-5.75799 1.9633,-2.16599 3.29724,-4.35573 4.24453,-6.20996 0.28473,-0.55734 0.5456,-1.10847 0.78433,-1.65149 1.78578,-4.06186 2.28385,-7.59518 2.35078,-9.41147 z"
         transform="translate(0,-6.1913517)" />
      <path
         style="fill:url(#linearGradient2);fill-rule:nonzero;stroke:none;stroke-width:1.4412;stroke-linecap:round;stroke-linejoin:round;stroke-dasharray:none;stroke-opacity:1;paint-order:stroke markers fill;fill-opacity:1"
         d="m 44.495737,34.728378 c -0.146261,0.01575 -0.434185,0.876671 -0.304688,5.052151 0.129498,4.175479 0.705938,11.774288 1.978902,21.604949 0.303122,2.34091 0.642423,4.784833 1.018449,7.302866 1.887648,12.640501 5.300652,31.426166 10.229972,51.331906 2.593259,10.47218 5.618293,21.29559 9.068446,31.63666 3.393906,10.17248 7.148797,19.72764 11.261739,28.03427 4.217505,8.51781 8.69518,15.48819 13.423987,20.5608 0.88859,0.9532 1.782657,1.83575 2.682117,2.64708 1.597583,1.44106 3.207011,2.64767 4.827129,3.6219 2.64503,1.59055 5.32523,2.56576 8.037,2.92527 1.01284,0.12827 2.05174,0.10294 3.11086,-0.0597 1.06979,-0.16428 2.16571,-0.4695 3.28305,-0.90325 2.24148,-0.87013 4.59437,-2.26737 7.02752,-4.12618 4.71781,-3.60418 9.87965,-9.05452 15.28387,-16.14479 4.93392,-6.47324 10.21687,-14.51109 15.564,-23.95875 4.65067,-8.21711 9.47041,-17.7203 14.02129,-28.10559 -1.2e-4,2.8e-4 0.15725,-0.35943 0.15713,-0.35915 3.90652,-8.94472 7.85356,-19.10653 11.12863,-29.63272 2.84701,-9.150391 5.18916,-18.596779 6.4286,-27.411341 0.57791,-4.110002 0.91417,-8.072199 0.94736,-11.77634 0.0321,-3.580857 -0.21941,-6.900007 -0.80013,-9.859485 -0.56531,-2.880971 -1.43481,-5.380548 -2.62496,-7.435295 -1.15924,-2.001377 -2.61393,-3.567186 -4.38648,-4.675905 l 2.84928,-2.150244 c 2.58305,7.752736 3.45754,15.088442 2.66065,21.606324 -0.78922,6.455185 -3.20539,11.958924 -6.97853,16.066007 -1.93581,2.107146 -4.19011,3.803278 -6.68397,5.063501 -2.60286,1.315305 -5.41534,2.130442 -8.33639,2.478657 -4.2777,0.509941 -8.62088,0.0085 -12.83226,-1.209104 0.84371,4.885016 1.17999,9.739671 1.2437,14.187855 0.0379,2.64823 -0.0201,5.2072 -0.13682,7.61395 -0.28258,5.82872 -0.91309,11.2476 -1.56274,15.68211 -1.11087,7.58292 -2.60944,14.57219 -4.14629,20.58537 -1.5598,6.10295 -3.68372,13.25639 -6.5906,21.25142 -0.47996,1.32004 -0.98068,2.65684 -1.5016,4.0056 -2.45387,6.35362 -5.29978,12.82449 -8.35703,18.76978 -2.71725,5.2841 -5.52007,9.99003 -8.16494,13.55767 -1.26853,1.71111 -2.49719,3.15521 -3.6561,4.26722 -0.5756,0.55231 -1.13804,1.0266 -1.68324,1.41176 -0.54353,0.38398 -1.08054,0.68687 -1.60336,0.88633 -0.52702,0.20105 -1.0544,0.3036 -1.56243,0.25962 -0.25644,-0.0222 -0.50167,-0.0818 -0.72963,-0.18141 -0.22902,-0.10006 -0.42959,-0.23564 -0.60214,-0.39926 -0.1724,-0.16348 -0.31293,-0.35112 -0.42824,-0.55371 -0.11562,-0.20315 -0.20802,-0.42507 -0.28269,-0.66017 -0.1494,-0.47038 -0.23856,-1.02853 -0.28346,-1.65561 l 0.0102,0.0367 c 0.41706,-0.15572 -0.71378,-4.42672 -2.29007,-9.91574 -0.85633,-2.98195 -1.72099,-6.00359 -2.71455,-9.52862 -3.20972,-11.38773 -7.594998,-27.51243 -11.408795,-42.78863 -1.409708,-5.6466 -2.937391,-11.96812 -4.326109,-18.22477 -0.370148,-1.66764 -0.734721,-3.34584 -1.088924,-5.02454 -1.50737,-7.14397 -2.836746,-14.3426 -3.616115,-20.850168 -0.368917,-3.080382 -0.612738,-5.990457 -0.696256,-8.658403 -0.08165,-2.608179 -0.0088,-4.946197 0.237442,-6.967554 0.243017,-1.995036 0.645477,-3.602175 1.183794,-4.839641 0.26412,-0.60715 0.555929,-1.11371 0.869099,-1.531014 0.309958,-0.413023 0.64951,-0.750443 1.023967,-1.017486 l 2.890459,-2.061321 -2.614368,-1.782917 C 79.01972,69.364677 74.041677,65.335522 69.494467,61.206593 68.110788,59.950193 66.775286,58.691968 65.503185,57.45062 62.593551,54.611328 59.710659,51.628805 56.939901,48.645264 52.557574,43.926391 48.99986,39.79188 47.007185,37.48405 c -2.055636,-2.380748 -2.44673,-2.804973 -2.511448,-2.755672 -0.04806,0.03661 0.212302,0.562151 2.084495,3.096838 1.835686,2.485262 5.064072,6.66629 9.304191,11.749113 2.633462,3.156849 5.337191,6.27808 8.093328,9.340885 1.198782,1.332168 2.442104,2.705322 3.722289,4.096699 4.196181,4.56065 8.742055,9.265836 13.398074,13.374613 l 0.276082,-3.844233 c -0.886117,0.451718 -1.679405,1.046962 -2.381461,1.759035 -0.702391,0.712416 -1.305099,1.533059 -1.820595,2.430938 -1.034404,1.801703 -1.74155,3.95555 -2.20778,6.306502 -0.475802,2.399223 -0.71428,5.073006 -0.769352,7.918065 -0.05651,2.919127 0.07955,6.050553 0.362943,9.298537 0.598095,6.85477 1.861151,14.32698 3.425129,21.60505 0.36843,1.71452 0.754651,3.42336 1.154508,5.11723 1.515354,6.41931 3.219879,12.65031 4.910267,18.35601 4.654911,15.71208 10.153119,30.60341 14.665426,42.07719 1.300639,3.30723 2.569219,6.45269 3.711169,9.21518 2.18656,5.28951 4.09238,9.28757 4.50944,9.13185 l 0.0102,0.0367 c 0.18732,0.5798 0.40863,1.02522 0.64897,1.33629 0.11814,0.15292 0.23672,0.26781 0.35115,0.34839 0.11387,0.0802 0.21883,0.1231 0.31133,0.13978 0.0916,0.0165 0.1686,0.008 0.23864,-0.0134 0.0673,-0.0201 0.13652,-0.0543 0.20785,-0.0958 0.14014,-0.0815 0.33949,-0.22076 0.58454,-0.44018 0.25043,-0.22423 0.54064,-0.52426 0.87615,-0.92544 0.33397,-0.39933 0.69813,-0.88132 1.09271,-1.45267 0.79651,-1.15335 1.68276,-2.62125 2.6405,-4.3824 2.00009,-3.67788 4.1949,-8.41694 6.39522,-13.76409 2.47898,-6.02436 4.80531,-12.42513 6.89826,-18.7524 0.44212,-1.33658 0.86982,-2.65757 1.28368,-3.96075 2.4771,-7.80007 4.40775,-14.98006 5.82555,-20.81444 1.40252,-5.77146 2.89657,-12.65417 3.99665,-19.84609 0.65102,-4.25613 1.28597,-9.40412 1.58235,-14.91333 0.12219,-2.27112 0.19391,-4.67107 0.18129,-7.14105 -0.0315,-6.164742 -0.5889,-12.914425 -2.27541,-19.227997 l -2.18374,-8.175018 7.43046,3.843465 c 5.25772,2.719597 10.64604,4.178769 15.70698,3.855868 2.21889,-0.141571 4.3382,-0.625293 6.30696,-1.46902 1.8854,-0.807998 3.64234,-1.95065 5.20804,-3.446754 3.04719,-2.91173 5.37505,-7.178035 6.37098,-12.748166 1.00759,-5.635366 0.60029,-12.342122 -1.53669,-19.775928 l -1.45473,-5.060497 4.30402,2.91026 c 2.30994,1.561915 4.08254,3.664356 5.40497,6.131626 1.3476,2.514204 2.23512,5.419156 2.76433,8.567059 0.54466,3.239857 0.71758,6.783884 0.59991,10.508749 -0.12189,3.858491 -0.55655,7.940706 -1.22892,12.128825 -1.44095,8.975493 -3.98497,18.517387 -7.00126,27.693988 -3.47342,10.56735 -7.58631,20.71251 -11.65144,29.673 -1.4e-4,2.9e-4 -0.16298,0.35865 -0.1631,0.35893 -4.72353,10.37833 -9.69561,19.85852 -14.48544,28.05092 -5.50679,9.41866 -10.93413,17.41988 -16.00642,23.85308 -5.55476,7.04513 -10.86457,12.44452 -15.72664,15.9728 -2.50787,1.8199 -4.93197,3.16798 -7.23546,3.97491 -1.14786,0.40209 -2.26896,0.67091 -3.35723,0.7952 -1.07757,0.12308 -2.12415,0.10458 -3.13311,-0.0675 -2.70058,-0.44434 -5.33355,-1.50378 -7.900385,-3.15882 -1.573103,-1.01431 -3.127653,-2.25636 -4.663554,-3.72705 -0.864911,-0.82818 -1.721115,-1.72786 -2.56862,-2.69793 C 87.076089,194.72179 82.895096,187.66326 79.020013,179.0892 75.239399,170.72415 71.84398,161.12471 68.800451,150.92581 65.705332,140.55402 63.022166,129.7236 60.708572,119.24948 56.358256,99.554699 53.172986,80.401272 51.089872,68.067704 50.670481,65.584606 50.253146,63.131364 49.85847,60.830693 48.136592,50.793434 46.870328,43.784457 45.95848,39.564248 c -0.899315,-4.1622 -1.299541,-4.853441 -1.462743,-4.83587 z"
         id="path6"
         sodipodi:nodetypes="csccscc"
         inkscape:path-effect="#path-effect7"
         inkscape:original-d="m 44.495737,34.728378 c 0,0 18.106734,168.174902 62.221673,174.727162 32.15262,4.77553 102.52743,-144.888218 70.18027,-166.045067 9.61629,30.935719 -9.97789,50.164869 -35.52386,37.483949 13.52346,48.817248 -30.92362,144.445568 -34.65641,124.943578 0,0 -44.3349,-119.782589 -24.193101,-131.281079 C 63.59668,59.802645 44.495737,34.728378 44.495737,34.728378" />
    </g>
    <path
       style="fill:#ffba19;fill-opacity:1;stroke:#f1ec09;stroke-width:0.499999;stroke-linecap:round;stroke-linejoin:round;paint-order:stroke markers fill"
       id="path2"
       sodipodi:type="arc"
       sodipodi:cx="94.069962"
       sodipodi:cy="263.66458"
       sodipodi:rx="33.061977"
       sodipodi:ry="29.864473"
       sodipodi:start="0"
       sodipodi:end="6.2813608"
       sodipodi:open="true"
       sodipodi:arc-type="arc"
       d="M 127.13194,263.66458 A 33.061977,29.864473 0 0 1 94.085042,293.52905 33.061977,29.864473 0 0 1 61.007998,263.69183 33.061977,29.864473 0 0 1 94.02472,233.80014 33.061977,29.864473 0 0 1 127.13188,263.61009" />
  </g>
</svg>
