<svg xmlns="http://www.w3.org/2000/svg" xmlns:xlink="http://www.w3.org/1999/xlink" width="500" zoomAndPan="magnify" viewBox="0 0 375 374.999991" height="500" preserveAspectRatio="xMidYMid meet" version="1.0"><defs><clipPath id="f9cdecba00"><path d="M 5.96875 37.5 L 368.957031 37.5 L 368.957031 97.753906 L 5.96875 97.753906 Z M 5.96875 37.5 " clip-rule="nonzero"/></clipPath><clipPath id="762b6cfc99"><path d="M 5.96875 157 L 368.957031 157 L 368.957031 218 L 5.96875 218 Z M 5.96875 157 " clip-rule="nonzero"/></clipPath><clipPath id="ed8e5eca84"><path d="M 5.96875 277.109375 L 368.957031 277.109375 L 368.957031 337.5 L 5.96875 337.5 Z M 5.96875 277.109375 " clip-rule="nonzero"/></clipPath></defs><g clip-path="url(#f9cdecba00)"><path fill="#16262e" d="M 339.027344 97.511719 L 35.976562 97.511719 C 19.402344 97.511719 5.96875 84.078125 5.96875 67.503906 C 5.96875 50.9375 19.402344 37.503906 35.976562 37.503906 L 339.027344 37.503906 C 355.601562 37.503906 369.03125 50.9375 369.03125 67.503906 C 369.03125 84.078125 355.601562 97.511719 339.027344 97.511719 " fill-opacity="1" fill-rule="nonzero"/></g><g clip-path="url(#762b6cfc99)"><path fill="#16262e" d="M 339.027344 217.535156 L 35.976562 217.535156 C 19.402344 217.535156 5.96875 204.101562 5.96875 187.527344 C 5.96875 170.953125 19.402344 157.523438 35.976562 157.523438 L 339.027344 157.523438 C 355.601562 157.523438 369.03125 170.953125 369.03125 187.527344 C 369.03125 204.101562 355.601562 217.535156 339.027344 217.535156 " fill-opacity="1" fill-rule="nonzero"/></g><g clip-path="url(#ed8e5eca84)"><path fill="#16262e" d="M 339.027344 337.558594 L 35.976562 337.558594 C 19.402344 337.558594 5.96875 324.125 5.96875 307.550781 C 5.96875 290.976562 19.402344 277.546875 35.976562 277.546875 L 339.027344 277.546875 C 355.601562 277.546875 369.03125 290.976562 369.03125 307.550781 C 369.03125 324.125 355.601562 337.558594 339.027344 337.558594 " fill-opacity="1" fill-rule="nonzero"/></g></svg>