<svg xmlns="http://www.w3.org/2000/svg" viewBox="0 0 40 40" id="Money-Bag-Dollar--Streamline-Ultimate" height="40" width="40">
  <desc>
    Money Bag Dollar Streamline Icon: https://streamlinehq.com
  </desc>
  <g id="Money-Bag-Dollar--Streamline-Ultimate.svg">
    <path d="M15 13.333333333333334h10a1.6666666666666667 1.6666666666666667 0 0 0 0 -3.3333333333333335H15a1.6666666666666667 1.6666666666666667 0 0 0 0 3.3333333333333335Z" fill="#ffa62b" stroke-width="1.6667"></path>
    <path d="M15.783333333333335 7.5a0.8333333333333334 0.8333333333333334 0 0 0 0.8333333333333334 0.7333333333333334H23.333333333333336a0.8500000000000001 0.8500000000000001 0 0 0 0.8333333333333334 -0.7333333333333334 15.283333333333333 15.283333333333333 0 0 1 2 -5 0.7833333333333333 0.7833333333333333 0 0 0 -0.11666666666666668 -0.95 0.8333333333333334 0.8333333333333334 0 0 0 -0.8833333333333334 -0.3l-3.1 1.3333333333333335a0.38333333333333336 0.38333333333333336 0 0 1 -0.33333333333333337 0 0.4166666666666667 0.4166666666666667 0 0 1 -0.23333333333333336 -0.21666666666666667L20.76666666666667 0.5166666666666667a0.8333333333333334 0.8333333333333334 0 0 0 -1.5333333333333334 0l-0.7333333333333334 1.8500000000000003a0.4166666666666667 0.4166666666666667 0 0 1 -0.23333333333333336 0.21666666666666667 0.38333333333333336 0.38333333333333336 0 0 1 -0.33333333333333337 0L14.833333333333334 1.25a0.8333333333333334 0.8333333333333334 0 0 0 -0.9333333333333335 0.21666666666666667 0.7833333333333333 0.7833333333333333 0 0 0 -0.11666666666666668 0.95 15.283333333333333 15.283333333333333 0 0 1 2 5.083333333333333Z" fill="#ffa62b" stroke-width="1.6667"></path>
    <path d="M25.733333333333334 15.2a0.9666666666666667 0.9666666666666667 0 0 0 -0.6 -0.2H14.866666666666667a0.9666666666666667 0.9666666666666667 0 0 0 -0.6 0.2c-4.25 3.3333333333333335 -9.000000000000002 9.000000000000002 -9.000000000000002 14.000000000000002C5.2666666666666675 36.25 9.2 40 20 40s14.733333333333334 -3.75 14.733333333333334 -10.8c0 -5 -4.733333333333333 -10.75 -9.000000000000002 -14.000000000000002ZM21.666666666666668 33.55a0.43333333333333335 0.43333333333333335 0 0 0 -0.35 0.4166666666666667v0.6166666666666667a1.25 1.25 0 0 1 -2.5 0v-0.5333333333333333a0.4166666666666667 0.4166666666666667 0 0 0 -0.4166666666666667 -0.4166666666666667h-0.9833333333333333a1.25 1.25 0 0 1 0 -2.5h3.5833333333333335a1.1166666666666667 1.1166666666666667 0 0 0 0.4166666666666667 -2.166666666666667l-3.6333333333333337 -1.45a3.6000000000000005 3.6000000000000005 0 0 1 0.55 -6.8999999999999995 0.43333333333333335 0.43333333333333335 0 0 0 0.35 -0.4166666666666667v-0.6166666666666667a1.25 1.25 0 0 1 2.5 0v0.5333333333333333a0.4166666666666667 0.4166666666666667 0 0 0 0.4166666666666667 0.4166666666666667h0.9833333333333333a1.25 1.25 0 0 1 0 2.5h-3.5166666666666666a1.1166666666666667 1.1166666666666667 0 0 0 -0.4166666666666667 2.166666666666667l3.6333333333333337 1.45a3.6000000000000005 3.6000000000000005 0 0 1 -0.6166666666666667 6.8999999999999995Z" fill="#ffa62b" stroke-width="1.6667"></path>
  </g>
</svg>