<svg xmlns="http://www.w3.org/2000/svg" xmlns:xlink="http://www.w3.org/1999/xlink" width="500" zoomAndPan="magnify" viewBox="0 0 375 374.999991" height="500" preserveAspectRatio="xMidYMid meet" version="1.0"><defs><clipPath id="d9112eaf10"><path d="M 10 10 L 365 10 L 365 365 L 10 365 Z M 10 10 " clip-rule="nonzero"/></clipPath><clipPath id="a0b06fc26a"><path d="M 189.714844 -10.394531 L 385.40625 185.296875 L 185.472656 385.230469 L -10.21875 189.539062 Z M 189.714844 -10.394531 " clip-rule="nonzero"/></clipPath><clipPath id="87d75c872a"><path d="M 189.71875 -12.878906 L 387.34375 184.746094 L 185.992188 386.097656 L -11.632812 188.472656 Z M 189.71875 -12.878906 " clip-rule="nonzero"/></clipPath><clipPath id="4a2c57c9af"><path d="M 224.71875 24.605469 L 350.386719 150.277344 C 359.671875 159.558594 364.886719 172.148438 364.886719 185.277344 C 364.886719 198.402344 359.671875 210.996094 350.386719 220.277344 L 220.28125 350.382812 C 211 359.667969 198.40625 364.882812 185.28125 364.882812 C 172.152344 364.882812 159.5625 359.667969 150.28125 350.382812 L 24.613281 224.714844 C 15.328125 215.433594 10.113281 202.84375 10.113281 189.714844 C 10.113281 176.585938 15.328125 163.996094 24.613281 154.714844 L 154.71875 24.605469 C 164 15.324219 176.589844 10.109375 189.71875 10.109375 C 202.847656 10.109375 215.4375 15.324219 224.71875 24.605469 Z M 224.71875 24.605469 " clip-rule="nonzero"/></clipPath><clipPath id="501c2e29df"><path d="M 71.917969 126.722656 L 193.417969 126.722656 L 193.417969 248.222656 L 71.917969 248.222656 Z M 71.917969 126.722656 " clip-rule="nonzero"/></clipPath><clipPath id="496457d68f"><path d="M 132.691406 126.722656 C 99.128906 126.722656 71.917969 153.929688 71.917969 187.496094 C 71.917969 221.058594 99.128906 248.269531 132.691406 248.269531 C 166.257812 248.269531 193.464844 221.058594 193.464844 187.496094 C 193.464844 153.929688 166.257812 126.722656 132.691406 126.722656 Z M 132.691406 126.722656 " clip-rule="nonzero"/></clipPath><clipPath id="d764ac4b72"><path d="M 162 57 L 306 57 L 306 200 L 162 200 Z M 162 57 " clip-rule="nonzero"/></clipPath><clipPath id="504a3b2fa8"><path d="M 177.90625 50.554688 L 311.625 184.273438 L 289.441406 206.457031 L 155.722656 72.742188 Z M 177.90625 50.554688 " clip-rule="nonzero"/></clipPath><clipPath id="c0c8843dcb"><path d="M 189 61.648438 L 300.519531 173.167969 C 303.460938 176.109375 305.113281 180.097656 305.113281 184.261719 C 305.113281 188.421875 303.460938 192.410156 300.519531 195.351562 C 297.578125 198.292969 293.585938 199.945312 289.425781 199.945312 C 285.265625 199.945312 281.277344 198.292969 278.335938 195.351562 L 166.816406 83.832031 C 163.875 80.890625 162.222656 76.902344 162.222656 72.742188 C 162.222656 68.582031 163.875 64.589844 166.816406 61.648438 C 169.757812 58.707031 173.746094 57.054688 177.90625 57.054688 C 182.070312 57.054688 186.058594 58.707031 189 61.648438 Z M 189 61.648438 " clip-rule="nonzero"/></clipPath><clipPath id="a9d8f9d4f4"><path d="M 173 171 L 306 171 L 306 304 L 173 304 Z M 173 171 " clip-rule="nonzero"/></clipPath><clipPath id="86f2e439b4"><path d="M 166.570312 287.765625 L 289.453125 164.882812 L 311.640625 187.066406 L 188.753906 309.949219 Z M 166.570312 287.765625 " clip-rule="nonzero"/></clipPath><clipPath id="a8e23bd5fc"><path d="M 177.664062 276.671875 L 278.335938 176 C 281.277344 173.058594 285.269531 171.40625 289.429688 171.40625 C 293.589844 171.40625 297.578125 173.058594 300.519531 176 C 303.464844 178.941406 305.117188 182.933594 305.117188 187.09375 C 305.117188 191.253906 303.460938 195.242188 300.519531 198.183594 L 199.847656 298.859375 C 196.90625 301.800781 192.914062 303.453125 188.753906 303.453125 C 184.59375 303.453125 180.605469 301.800781 177.664062 298.859375 C 174.722656 295.914062 173.066406 291.925781 173.066406 287.765625 C 173.066406 283.605469 174.722656 279.613281 177.664062 276.671875 Z M 177.664062 276.671875 " clip-rule="nonzero"/></clipPath></defs><g clip-path="url(#d9112eaf10)"><g clip-path="url(#a0b06fc26a)"><g clip-path="url(#87d75c872a)"><g clip-path="url(#4a2c57c9af)"><path stroke-linecap="butt" transform="matrix(0.53033, 0.53033, -0.53033, 0.53033, 189.719114, -10.393351)" fill="none" stroke-linejoin="miter" d="M 65.995182 -0.000769455 L 302.960674 0.00291339 C 320.46525 -0.000769455 337.251672 6.952448 349.629724 19.3305 C 362.004094 31.704869 368.960993 48.494974 368.957311 65.99955 L 368.957311 311.32879 C 368.960993 328.833367 362.004094 345.623471 349.629724 357.997841 C 337.251672 370.375893 320.46525 377.32911 302.960674 377.325427 L 65.998865 377.325427 C 48.494288 377.32911 31.707867 370.375893 19.329814 357.997841 C 6.951762 345.619788 -0.00145515 328.833367 0.0022277 311.32879 L -0.00145515 65.995868 C -0.00145515 48.494974 6.951762 31.708552 19.329814 19.3305 C 31.707867 6.952448 48.494288 -0.000769455 65.995182 -0.000769455 Z M 65.995182 -0.000769455 " stroke="#263542" stroke-width="64" stroke-opacity="1" stroke-miterlimit="4"/></g></g></g></g><g clip-path="url(#501c2e29df)"><g clip-path="url(#496457d68f)"><path stroke-linecap="butt" transform="matrix(0.75, 0, 0, 0.75, 71.919242, 126.721002)" fill="none" stroke-linejoin="miter" d="M 81.029557 0.00220556 C 36.279554 0.00220556 -0.0016979 36.27825 -0.0016979 81.033461 C -0.0016979 125.783464 36.279554 162.064716 81.029557 162.064716 C 125.784769 162.064716 162.060813 125.783464 162.060813 81.033461 C 162.060813 36.27825 125.784769 0.00220556 81.029557 0.00220556 Z M 81.029557 0.00220556 " stroke="#263542" stroke-width="60" stroke-opacity="1" stroke-miterlimit="4"/></g></g><g clip-path="url(#d764ac4b72)"><g clip-path="url(#504a3b2fa8)"><g clip-path="url(#c0c8843dcb)"><path fill="#263542" d="M 177.90625 50.554688 L 311.625 184.273438 L 289.441406 206.457031 L 155.722656 72.742188 Z M 177.90625 50.554688 " fill-opacity="1" fill-rule="nonzero"/></g></g></g><g clip-path="url(#a9d8f9d4f4)"><g clip-path="url(#86f2e439b4)"><g clip-path="url(#a8e23bd5fc)"><path fill="#263542" d="M 166.570312 287.765625 L 289.453125 164.882812 L 311.640625 187.066406 L 188.753906 309.949219 Z M 166.570312 287.765625 " fill-opacity="1" fill-rule="nonzero"/></g></g></g></svg>