<svg xmlns="http://www.w3.org/2000/svg" fill="none" viewBox="-1.25 -1.25 40 40" id="Padlock-Key--Streamline-Plump" height="40" width="40">
  <desc>
    Padlock Key Streamline Icon: https://streamlinehq.com
  </desc>
  <g id="padlock-key--combination-combo-key-keyhole-lock-secure-security-square-unlock-unlocked">
    <path id="Subtract" fill="#99c2e0" d="M31.190625 34.909375c1.9617187500000002 -0.1046875 3.5296874999999996 -1.51640625 3.70703125 -3.4734374999999997 0.140625 -1.54140625 0.25859375 -3.6640625000000004 0.25859375 -6.4359375 0 -2.77109375 -0.11796875 -4.89453125 -0.2578125 -6.4359375 -0.178125 -1.95703125 -1.74609375 -3.3687500000000004 -3.7078125 -3.4734374999999997C28.896093750000002 14.96875 25.33125 14.84375 20.3125 14.84375c-5.01953125 0 -8.58359375 0.125 -10.878124999999999 0.246875 -1.9617187500000002 0.10546875 -3.5296874999999996 1.51640625 -3.70703125 3.4734374999999997a55.3203125 55.3203125 0 0 0 -0.146875 2.04140625A8.60625 8.60625 0 0 1 7.8125 20.3125a8.578125 8.578125 0 0 1 6.62890625 3.125L24.21875 23.4375a5.46875 5.46875 0 0 1 5.46875 5.46875v3.90625a5.4609375 5.4609375 0 0 1 -0.45468749999999997 2.1875c0.7335937499999999 -0.0296875 1.3851562499999999 -0.06015625 1.9578124999999997 -0.09062500000000001Z" stroke-width="2.5"></path>
    <path id="Subtract_2" fill="#ffffff" d="m24.4484375 11.71171875 0.18593749999999998 3.1656249999999995 6.114062499999999 0.190625 -0.34375 -4.1273437500000005A9.375 9.375 0 0 0 21.060156250000002 2.34375h-1.496875a9.375 9.375 0 0 0 -9.342968749999999 8.596874999999999l-0.34375 4.1273437500000005 6.11328125 -0.190625 0.18671875 -3.1656249999999995a4.14296875 4.14296875 0 0 1 8.27109375 0Z" stroke-width="2.5"></path>
    <path id="Rectangle 1096" stroke="#2d6a9c" stroke-linecap="round" stroke-linejoin="round" d="M5.6484375 19.53125c0.025 -0.34453125 0.051562500000000004 -0.6671874999999999 0.078125 -0.9671875 0.178125 -1.95703125 1.74609375 -3.36796875 3.7078125 -3.4734374999999997C11.72890625 14.96875 15.293750000000001 14.84375 20.3125 14.84375c5.01953125 0 8.58359375 0.125 10.878124999999999 0.246875 1.9617187500000002 0.10546875 3.5296874999999996 1.51640625 3.70703125 3.4734374999999997 0.140625 1.54140625 0.25859375 3.6640625000000004 0.25859375 6.4359375 0 2.77109375 -0.11875 4.89453125 -0.2578125 6.4359375 -0.178125 1.95703125 -1.74609375 3.3687500000000004 -3.7078125 3.4734374999999997 -0.3421875 0.01796875 -0.71328125 0.03671875 -1.1125 0.05468750000000001" stroke-width="2.5"></path>
    <path id="Subtract_3" stroke="#2d6a9c" stroke-linecap="round" stroke-linejoin="round" d="m24.634375 14.87734375 -0.18593749999999998 -3.1656249999999995a4.14296875 4.14296875 0 0 0 -8.27109375 0l-0.18671875 3.1656249999999995m14.7578125 0.190625 -0.34375 -4.1273437500000005A9.375 9.375 0 0 0 21.060156250000002 2.34375h-1.496875a9.375 9.375 0 0 0 -9.342968749999999 8.596874999999999l-0.34375 4.1273437500000005" stroke-width="2.5"></path>
    <path id="Union" fill="#ffffff" d="M7.8125 34.375a5.46875 5.46875 0 1 1 4.942187499999999 -7.8125L24.21875 26.5625a2.34375 2.34375 0 0 1 2.34375 2.34375v3.90625a2.34375 2.34375 0 1 1 -4.6875 0v-1.5625h-0.78125v1.5625a2.34375 2.34375 0 1 1 -4.6875 0v-1.5625h-3.6515625000000003A5.46875 5.46875 0 0 1 7.8125 34.375Z" stroke-width="2.5"></path>
    <path id="Union_2" stroke="#2d6a9c" stroke-linecap="round" stroke-linejoin="round" d="M7.8125 34.375a5.46875 5.46875 0 1 1 4.942187499999999 -7.8125L18.75 26.5625l5.46875 0a2.34375 2.34375 0 0 1 2.34375 2.34375v3.90625a2.34375 2.34375 0 1 1 -4.6875 0v-1.5625h-0.78125v1.5625a2.34375 2.34375 0 1 1 -4.6875 0v-1.5625h-3.6515625000000003A5.46875 5.46875 0 0 1 7.8125 34.375Z" stroke-width="2.5"></path>
    <path id="Vector 1452" stroke="#2d6a9c" stroke-linecap="round" stroke-linejoin="round" d="m7.03125 28.90625 1.5625 0" stroke-width="2.5"></path>
  </g>
</svg>