<?xml version="1.0" encoding="UTF-8" standalone="no"?>
<!-- Created with Inkscape (http://www.inkscape.org/) -->

<svg
   width="210mm"
   height="297mm"
   viewBox="0 0 210 297"
   version="1.1"
   id="svg1"
   inkscape:version="1.3.2 (091e20e, 2023-11-25, custom)"
   sodipodi:docname="pawicon.svg"
   xmlns:inkscape="http://www.inkscape.org/namespaces/inkscape"
   xmlns:sodipodi="http://sodipodi.sourceforge.net/DTD/sodipodi-0.dtd"
   xmlns="http://www.w3.org/2000/svg"
   xmlns:svg="http://www.w3.org/2000/svg">
  <sodipodi:namedview
     id="namedview1"
     pagecolor="#ffffff"
     bordercolor="#000000"
     borderopacity="0.25"
     inkscape:showpageshadow="2"
     inkscape:pageopacity="0.0"
     inkscape:pagecheckerboard="0"
     inkscape:deskcolor="#d1d1d1"
     inkscape:document-units="mm"
     showgrid="false"
     showguides="true"
     inkscape:zoom="0.76702441"
     inkscape:cx="-20.859832"
     inkscape:cy="497.37661"
     inkscape:window-width="1920"
     inkscape:window-height="1057"
     inkscape:window-x="1912"
     inkscape:window-y="-8"
     inkscape:window-maximized="1"
     inkscape:current-layer="layer1">
    <sodipodi:guide
       position="0,210"
       orientation="0,793.70081"
       id="guide1"
       inkscape:locked="false" />
    <sodipodi:guide
       position="210,210"
       orientation="1122.5197,0"
       id="guide2"
       inkscape:locked="false" />
    <sodipodi:guide
       position="210,-86.999992"
       orientation="0,-793.70081"
       id="guide3"
       inkscape:locked="false" />
    <sodipodi:guide
       position="0,-86.999992"
       orientation="-1122.5197,0"
       id="guide4"
       inkscape:locked="false" />
    <inkscape:grid
       type="axonomgrid"
       id="grid4"
       units="px"
       originx="0"
       originy="0"
       spacingx="0"
       spacingy="6.6145834"
       empcolor="#0099e5"
       empopacity="0.30196078"
       color="#0099e5"
       opacity="0.14901961"
       empspacing="5"
       dotted="false"
       gridanglex="30"
       gridanglez="30"
       visible="false" />
  </sodipodi:namedview>
  <defs
     id="defs1">
    <inkscape:path-effect
       effect="powerstroke"
       id="path-effect151"
       is_visible="true"
       lpeversion="1.3"
       scale_width="1"
       interpolator_type="CentripetalCatmullRom"
       interpolator_beta="0.2"
       start_linecap_type="zerowidth"
       end_linecap_type="zerowidth"
       offset_points="2.2942657,0.43654897 | 3.3121188,-1.602016"
       linejoin_type="round"
       miter_limit="4"
       not_jump="false"
       sort_points="true"
       message="&lt;b&gt;Ctrl + click&lt;/b&gt; on existing node and move it" />
    <inkscape:path-effect
       effect="powerstroke"
       id="path-effect149"
       is_visible="true"
       lpeversion="1.3"
       scale_width="1"
       interpolator_type="CentripetalCatmullRom"
       interpolator_beta="0.2"
       start_linecap_type="zerowidth"
       end_linecap_type="zerowidth"
       offset_points="2.2942657,0.43654897 | 3.3121188,-1.602016"
       linejoin_type="round"
       miter_limit="4"
       not_jump="false"
       sort_points="true"
       message="&lt;b&gt;Ctrl + click&lt;/b&gt; on existing node and move it" />
    <inkscape:path-effect
       effect="powerstroke"
       id="path-effect147"
       is_visible="true"
       lpeversion="1.3"
       scale_width="1"
       interpolator_type="CentripetalCatmullRom"
       interpolator_beta="0.2"
       start_linecap_type="zerowidth"
       end_linecap_type="zerowidth"
       offset_points="2.2942657,0.43654897 | 3.3121188,-1.602016"
       linejoin_type="round"
       miter_limit="4"
       not_jump="false"
       sort_points="true"
       message="&lt;b&gt;Ctrl + click&lt;/b&gt; on existing node and move it" />
    <inkscape:path-effect
       effect="powerstroke"
       id="path-effect145"
       is_visible="true"
       lpeversion="1.3"
       scale_width="1"
       interpolator_type="CentripetalCatmullRom"
       interpolator_beta="0.2"
       start_linecap_type="zerowidth"
       end_linecap_type="zerowidth"
       offset_points="2.2942657,0.43654897 | 3.3121188,-1.602016"
       linejoin_type="round"
       miter_limit="4"
       not_jump="false"
       sort_points="true"
       message="&lt;b&gt;Ctrl + click&lt;/b&gt; on existing node and move it" />
    <inkscape:path-effect
       effect="powerstroke"
       id="path-effect142"
       is_visible="true"
       lpeversion="1.3"
       scale_width="1"
       interpolator_type="CentripetalCatmullRom"
       interpolator_beta="0.2"
       start_linecap_type="zerowidth"
       end_linecap_type="zerowidth"
       offset_points="2.2942657,0.43654897 | 3.3121188,-1.602016"
       linejoin_type="round"
       miter_limit="4"
       not_jump="false"
       sort_points="true"
       message="&lt;b&gt;Ctrl + click&lt;/b&gt; on existing node and move it" />
    <inkscape:path-effect
       effect="fillet_chamfer"
       id="path-effect50"
       is_visible="true"
       lpeversion="1"
       nodesatellites_param="F,0,0,1,0,6.6145833,0,1 @ F,0,0,1,0,6.6145833,0,1 @ F,0,0,1,0,6.6145833,0,1 @ F,0,0,1,0,6.6145833,0,1"
       radius="25"
       unit="px"
       method="auto"
       mode="F"
       chamfer_steps="1"
       flexible="false"
       use_knot_distance="true"
       apply_no_radius="true"
       apply_with_radius="true"
       only_selected="false"
       hide_knots="false" />
    <inkscape:path-effect
       effect="fillet_chamfer"
       id="path-effect48"
       is_visible="true"
       lpeversion="1"
       nodesatellites_param="F,0,0,1,0,6.6145833,0,1 @ F,0,0,1,0,6.6145833,0,1 @ F,0,0,1,0,6.6145833,0,1 @ F,0,0,1,0,6.6145833,0,1"
       radius="25"
       unit="px"
       method="auto"
       mode="F"
       chamfer_steps="1"
       flexible="false"
       use_knot_distance="true"
       apply_no_radius="true"
       apply_with_radius="true"
       only_selected="false"
       hide_knots="false" />
    <inkscape:path-effect
       effect="interpolate_points"
       id="path-effect43"
       is_visible="true"
       lpeversion="1"
       interpolator_type="CentripetalCatmullRom" />
    <inkscape:path-effect
       effect="fillet_chamfer"
       id="path-effect42"
       is_visible="true"
       lpeversion="1"
       nodesatellites_param="F,0,0,1,0,6.6145833,0,1 @ F,0,0,1,0,6.6145833,0,1 @ F,0,0,1,0,6.6145833,0,1 @ F,0,0,1,0,6.6145833,0,1"
       radius="25"
       unit="px"
       method="auto"
       mode="F"
       chamfer_steps="1"
       flexible="false"
       use_knot_distance="true"
       apply_no_radius="true"
       apply_with_radius="true"
       only_selected="false"
       hide_knots="false" />
    <inkscape:path-effect
       effect="fillet_chamfer"
       id="path-effect41"
       is_visible="true"
       lpeversion="1"
       nodesatellites_param="F,0,0,1,0,5.2916667,0,1 @ F,0,0,1,0,5.2916667,0,1 @ F,0,0,1,0,5.2916667,0,1 @ F,0,0,1,0,5.2916667,0,1"
       radius="20"
       unit="px"
       method="auto"
       mode="F"
       chamfer_steps="1"
       flexible="false"
       use_knot_distance="true"
       apply_no_radius="true"
       apply_with_radius="true"
       only_selected="false"
       hide_knots="false" />
    <inkscape:path-effect
       effect="fill_between_many"
       method="bsplinespiro"
       autoreverse="false"
       close="false"
       join="false"
       linkedpaths="#path142,0,1"
       id="path-effect143" />
  </defs>
  <g
     inkscape:label="Layer 1"
     inkscape:groupmode="layer"
     id="layer1">
    <g
       id="g151">
      <path
         id="path142"
         style="opacity:1;fill-opacity:0.968627;fill-rule:nonzero;stroke:none;stroke-width:0.2;stroke-linecap:round;stroke-linejoin:round;stroke-opacity:0.6;paint-order:stroke markers fill"
         d="m 74.882907,93.653313 c 0.02476,2.165644 -0.172185,5.056159 -1.023555,8.180437 -0.618819,2.27089 -1.562828,4.57637 -2.898427,6.62746 -1.158747,1.7795 -2.576962,3.30871 -4.213917,4.37735 -1.514317,0.98857 -3.198143,1.57069 -5.001364,1.59187 -1.748033,0.0205 -3.459229,-0.48638 -5.069475,-1.48536 -1.614023,-1.00133 -3.096957,-2.47987 -4.365418,-4.3386 -1.308786,-1.91782 -2.353074,-4.18651 -3.088199,-6.65819 -0.790596,-2.658191 -1.201724,-5.472352 -1.258361,-8.294967 -0.06432,-3.156684 0.647516,-5.842627 1.595638,-8.010763 0.19166,-0.438281 0.39394,-0.857657 0.603032,-1.258004 1.035923,-1.983471 2.325344,-3.721231 3.702049,-5.193598 1.831519,-1.958785 3.883639,-3.520462 5.908239,-4.644288 2.20718,-1.225174 4.477465,-1.985488 6.606878,-2.174828 1.12209,-0.09977 2.176744,-0.04237 3.159547,0.187005 1.002646,0.234008 1.913073,0.643585 2.708793,1.22039 0.395958,0.287024 0.758618,0.611989 1.086408,0.970682 0.325908,0.356633 0.619875,0.752156 0.881137,1.182355 0.50252,0.827462 0.870982,1.761001 1.129273,2.771216 0.526073,2.057553 0.585932,4.408551 0.458155,6.730555 -0.169236,3.075416 -0.71903,6.535769 -0.920433,8.219278 z m 2.701082,0 c -0.214802,-1.8369 -0.805,-5.15607 -1.749235,-8.223126 -0.705048,-2.290129 -1.550191,-4.274843 -2.565419,-5.852913 -0.486134,-0.755645 -0.97361,-1.36026 -1.45735,-1.861674 -0.25006,-0.259196 -0.495702,-0.487322 -0.735424,-0.692743 -0.24054,-0.206123 -0.485135,-0.39546 -0.734504,-0.568291 -0.492357,-0.34124 -1.043786,-0.646519 -1.680249,-0.890162 -0.631769,-0.241847 -1.379833,-0.435577 -2.28178,-0.535333 -1.722616,-0.190523 -3.826447,-0.03588 -6.119983,0.658061 -2.089171,0.632109 -4.364721,1.725666 -6.488134,3.402674 -1.592708,1.257872 -3.129965,2.870868 -4.366956,4.86129 -0.249099,0.400822 -0.491797,0.824323 -0.723815,1.270575 -1.147665,2.207358 -2.065219,5.034667 -2.129653,8.431638 -0.0566,2.940994 0.270009,5.913376 1.018687,8.757231 0.695472,2.64175 1.743448,5.1225 3.121514,7.26681 1.333648,2.07518 2.966718,3.81815 4.844816,5.04989 1.885138,1.23635 3.987057,1.93659 6.209139,1.95731 2.2936,0.0214 4.416533,-0.68119 6.277251,-1.8508 1.996908,-1.25522 3.666839,-3.02856 4.996318,-5.01115 1.53422,-2.28791 2.60504,-4.83173 3.311284,-7.29753 0.972735,-3.396238 1.228783,-6.530873 1.253493,-8.871757 z"
         sodipodi:nodetypes="sssss"
         inkscape:path-effect="#path-effect142"
         inkscape:original-d="m 76.233448,93.653313 c -10e-7,12.097347 -6.486412,21.904177 -14.487804,21.904177 -8.001393,0 -14.487804,-9.80683 -14.487805,-21.904177 0,-12.097346 11.120794,-19.952863 19.122188,-19.952862 8.001393,0 9.853421,7.855517 9.853421,19.952862 z"
         inkscape:linked-fill="path143"
         transform="translate(-16.557491,15.1777)" />
      <path
         id="path143"
         style="opacity:1;fill-opacity:0.968627;fill-rule:nonzero;stroke:none;stroke-width:0.2;stroke-linecap:round;stroke-linejoin:round;stroke-opacity:0.6;paint-order:stroke markers fill"
         d="m 74.882907,93.653313 c 0.02476,2.165644 -0.172185,5.056159 -1.023555,8.180437 -0.618819,2.27089 -1.562828,4.57637 -2.898427,6.62746 -1.158747,1.7795 -2.576962,3.30871 -4.213917,4.37735 -1.514317,0.98857 -3.198143,1.57069 -5.001364,1.59187 -1.748033,0.0205 -3.459229,-0.48638 -5.069475,-1.48536 -1.614023,-1.00133 -3.096957,-2.47987 -4.365418,-4.3386 -1.308786,-1.91782 -2.353074,-4.18651 -3.088199,-6.65819 -0.790596,-2.658191 -1.201724,-5.472352 -1.258361,-8.294967 -0.06432,-3.156684 0.647516,-5.842627 1.595638,-8.010763 0.19166,-0.438281 0.39394,-0.857657 0.603032,-1.258004 1.035923,-1.983471 2.325344,-3.721231 3.702049,-5.193598 1.831519,-1.958785 3.883639,-3.520462 5.908239,-4.644288 2.20718,-1.225174 4.477465,-1.985488 6.606878,-2.174828 1.12209,-0.09977 2.176744,-0.04237 3.159547,0.187005 1.002646,0.234008 1.913073,0.643585 2.708793,1.22039 0.395958,0.287024 0.758618,0.611989 1.086408,0.970682 0.325908,0.356633 0.619875,0.752156 0.881137,1.182355 0.50252,0.827462 0.870982,1.761001 1.129273,2.771216 0.526073,2.057553 0.585932,4.408551 0.458155,6.730555 -0.169236,3.075416 -0.71903,6.535769 -0.920433,8.219278 z m 2.701082,0 c -0.214802,-1.8369 -0.805,-5.15607 -1.749235,-8.223126 -0.705048,-2.290129 -1.550191,-4.274843 -2.565419,-5.852913 -0.486134,-0.755645 -0.97361,-1.36026 -1.45735,-1.861674 -0.25006,-0.259196 -0.495702,-0.487322 -0.735424,-0.692743 -0.24054,-0.206123 -0.485135,-0.39546 -0.734504,-0.568291 -0.492357,-0.34124 -1.043786,-0.646519 -1.680249,-0.890162 -0.631769,-0.241847 -1.379833,-0.435577 -2.28178,-0.535333 -1.722616,-0.190523 -3.826447,-0.03588 -6.119983,0.658061 -2.089171,0.632109 -4.364721,1.725666 -6.488134,3.402674 -1.592708,1.257872 -3.129965,2.870868 -4.366956,4.86129 -0.249099,0.400822 -0.491797,0.824323 -0.723815,1.270575 -1.147665,2.207358 -2.065219,5.034667 -2.129653,8.431638 -0.0566,2.940994 0.270009,5.913376 1.018687,8.757231 0.695472,2.64175 1.743448,5.1225 3.121514,7.26681 1.333648,2.07518 2.966718,3.81815 4.844816,5.04989 1.885138,1.23635 3.987057,1.93659 6.209139,1.95731 2.2936,0.0214 4.416533,-0.68119 6.277251,-1.8508 1.996908,-1.25522 3.666839,-3.02856 4.996318,-5.01115 1.53422,-2.28791 2.60504,-4.83173 3.311284,-7.29753 0.972735,-3.396238 1.228783,-6.530873 1.253493,-8.871757 z"
         sodipodi:nodetypes="sssss"
         inkscape:path-effect="#path-effect145"
         inkscape:original-d="m 76.233448,93.653313 c -10e-7,12.097347 -6.486412,21.904177 -14.487804,21.904177 -8.001393,0 -14.487804,-9.80683 -14.487805,-21.904177 0,-12.097346 11.120794,-19.952863 19.122188,-19.952862 8.001393,0 9.853421,7.855517 9.853421,19.952862 z"
         inkscape:linked-fill="path143"
         transform="translate(56.03406,-1.4981583)" />
      <path
         id="path145"
         style="opacity:1;fill-opacity:0.968627;fill-rule:nonzero;stroke:none;stroke-width:0.2;stroke-linecap:round;stroke-linejoin:round;stroke-opacity:0.6;paint-order:stroke markers fill"
         d="m 74.882907,93.653313 c 0.02476,2.165644 -0.172185,5.056159 -1.023555,8.180437 -0.618819,2.27089 -1.562828,4.57637 -2.898427,6.62746 -1.158747,1.7795 -2.576962,3.30871 -4.213917,4.37735 -1.514317,0.98857 -3.198143,1.57069 -5.001364,1.59187 -1.748033,0.0205 -3.459229,-0.48638 -5.069475,-1.48536 -1.614023,-1.00133 -3.096957,-2.47987 -4.365418,-4.3386 -1.308786,-1.91782 -2.353074,-4.18651 -3.088199,-6.65819 -0.790596,-2.658191 -1.201724,-5.472352 -1.258361,-8.294967 -0.06432,-3.156684 0.647516,-5.842627 1.595638,-8.010763 0.19166,-0.438281 0.39394,-0.857657 0.603032,-1.258004 1.035923,-1.983471 2.325344,-3.721231 3.702049,-5.193598 1.831519,-1.958785 3.883639,-3.520462 5.908239,-4.644288 2.20718,-1.225174 4.477465,-1.985488 6.606878,-2.174828 1.12209,-0.09977 2.176744,-0.04237 3.159547,0.187005 1.002646,0.234008 1.913073,0.643585 2.708793,1.22039 0.395958,0.287024 0.758618,0.611989 1.086408,0.970682 0.325908,0.356633 0.619875,0.752156 0.881137,1.182355 0.50252,0.827462 0.870982,1.761001 1.129273,2.771216 0.526073,2.057553 0.585932,4.408551 0.458155,6.730555 -0.169236,3.075416 -0.71903,6.535769 -0.920433,8.219278 z m 2.701082,0 c -0.214802,-1.8369 -0.805,-5.15607 -1.749235,-8.223126 -0.705048,-2.290129 -1.550191,-4.274843 -2.565419,-5.852913 -0.486134,-0.755645 -0.97361,-1.36026 -1.45735,-1.861674 -0.25006,-0.259196 -0.495702,-0.487322 -0.735424,-0.692743 -0.24054,-0.206123 -0.485135,-0.39546 -0.734504,-0.568291 -0.492357,-0.34124 -1.043786,-0.646519 -1.680249,-0.890162 -0.631769,-0.241847 -1.379833,-0.435577 -2.28178,-0.535333 -1.722616,-0.190523 -3.826447,-0.03588 -6.119983,0.658061 -2.089171,0.632109 -4.364721,1.725666 -6.488134,3.402674 -1.592708,1.257872 -3.129965,2.870868 -4.366956,4.86129 -0.249099,0.400822 -0.491797,0.824323 -0.723815,1.270575 -1.147665,2.207358 -2.065219,5.034667 -2.129653,8.431638 -0.0566,2.940994 0.270009,5.913376 1.018687,8.757231 0.695472,2.64175 1.743448,5.1225 3.121514,7.26681 1.333648,2.07518 2.966718,3.81815 4.844816,5.04989 1.885138,1.23635 3.987057,1.93659 6.209139,1.95731 2.2936,0.0214 4.416533,-0.68119 6.277251,-1.8508 1.996908,-1.25522 3.666839,-3.02856 4.996318,-5.01115 1.53422,-2.28791 2.60504,-4.83173 3.311284,-7.29753 0.972735,-3.396238 1.228783,-6.530873 1.253493,-8.871757 z"
         sodipodi:nodetypes="sssss"
         inkscape:path-effect="#path-effect147"
         inkscape:original-d="m 76.233448,93.653313 c -10e-7,12.097347 -6.486412,21.904177 -14.487804,21.904177 -8.001393,0 -14.487804,-9.80683 -14.487805,-21.904177 0,-12.097346 11.120794,-19.952863 19.122188,-19.952862 8.001393,0 9.853421,7.855517 9.853421,19.952862 z"
         inkscape:linked-fill="path145"
         transform="translate(19.552066,-4.1919922)" />
      <path
         id="path147"
         style="opacity:1;fill-opacity:0.968627;fill-rule:nonzero;stroke:none;stroke-width:0.2;stroke-linecap:round;stroke-linejoin:round;stroke-opacity:0.6;paint-order:stroke markers fill"
         d="m 74.882907,93.653313 c 0.02476,2.165644 -0.172185,5.056159 -1.023555,8.180437 -0.618819,2.27089 -1.562828,4.57637 -2.898427,6.62746 -1.158747,1.7795 -2.576962,3.30871 -4.213917,4.37735 -1.514317,0.98857 -3.198143,1.57069 -5.001364,1.59187 -1.748033,0.0205 -3.459229,-0.48638 -5.069475,-1.48536 -1.614023,-1.00133 -3.096957,-2.47987 -4.365418,-4.3386 -1.308786,-1.91782 -2.353074,-4.18651 -3.088199,-6.65819 -0.790596,-2.658191 -1.201724,-5.472352 -1.258361,-8.294967 -0.06432,-3.156684 0.647516,-5.842627 1.595638,-8.010763 0.19166,-0.438281 0.39394,-0.857657 0.603032,-1.258004 1.035923,-1.983471 2.325344,-3.721231 3.702049,-5.193598 1.831519,-1.958785 3.883639,-3.520462 5.908239,-4.644288 2.20718,-1.225174 4.477465,-1.985488 6.606878,-2.174828 1.12209,-0.09977 2.176744,-0.04237 3.159547,0.187005 1.002646,0.234008 1.913073,0.643585 2.708793,1.22039 0.395958,0.287024 0.758618,0.611989 1.086408,0.970682 0.325908,0.356633 0.619875,0.752156 0.881137,1.182355 0.50252,0.827462 0.870982,1.761001 1.129273,2.771216 0.526073,2.057553 0.585932,4.408551 0.458155,6.730555 -0.169236,3.075416 -0.71903,6.535769 -0.920433,8.219278 z m 2.701082,0 c -0.214802,-1.8369 -0.805,-5.15607 -1.749235,-8.223126 -0.705048,-2.290129 -1.550191,-4.274843 -2.565419,-5.852913 -0.486134,-0.755645 -0.97361,-1.36026 -1.45735,-1.861674 -0.25006,-0.259196 -0.495702,-0.487322 -0.735424,-0.692743 -0.24054,-0.206123 -0.485135,-0.39546 -0.734504,-0.568291 -0.492357,-0.34124 -1.043786,-0.646519 -1.680249,-0.890162 -0.631769,-0.241847 -1.379833,-0.435577 -2.28178,-0.535333 -1.722616,-0.190523 -3.826447,-0.03588 -6.119983,0.658061 -2.089171,0.632109 -4.364721,1.725666 -6.488134,3.402674 -1.592708,1.257872 -3.129965,2.870868 -4.366956,4.86129 -0.249099,0.400822 -0.491797,0.824323 -0.723815,1.270575 -1.147665,2.207358 -2.065219,5.034667 -2.129653,8.431638 -0.0566,2.940994 0.270009,5.913376 1.018687,8.757231 0.695472,2.64175 1.743448,5.1225 3.121514,7.26681 1.333648,2.07518 2.966718,3.81815 4.844816,5.04989 1.885138,1.23635 3.987057,1.93659 6.209139,1.95731 2.2936,0.0214 4.416533,-0.68119 6.277251,-1.8508 1.996908,-1.25522 3.666839,-3.02856 4.996318,-5.01115 1.53422,-2.28791 2.60504,-4.83173 3.311284,-7.29753 0.972735,-3.396238 1.228783,-6.530873 1.253493,-8.871757 z"
         sodipodi:nodetypes="sssss"
         inkscape:path-effect="#path-effect149"
         inkscape:original-d="m 76.233448,93.653313 c -10e-7,12.097347 -6.486412,21.904177 -14.487804,21.904177 -8.001393,0 -14.487804,-9.80683 -14.487805,-21.904177 0,-12.097346 11.120794,-19.952863 19.122188,-19.952862 8.001393,0 9.853421,7.855517 9.853421,19.952862 z"
         inkscape:linked-fill="path147"
         transform="translate(78.471149,34.015356)" />
      <path
         id="path149"
         style="opacity:1;fill-opacity:0.968627;fill-rule:nonzero;stroke:none;stroke-width:0.0899549;stroke-linecap:round;stroke-linejoin:round;stroke-opacity:0.6;paint-order:stroke markers fill"
         d="m 74.882907,93.653313 c 0.02476,2.165644 -0.172185,5.056159 -1.023555,8.180437 -0.618819,2.27089 -1.562828,4.57637 -2.898427,6.62746 -1.158747,1.7795 -2.576962,3.30871 -4.213917,4.37735 -1.514317,0.98857 -3.198143,1.57069 -5.001364,1.59187 -1.748033,0.0205 -3.459229,-0.48638 -5.069475,-1.48536 -1.614023,-1.00133 -3.096957,-2.47987 -4.365418,-4.3386 -1.308786,-1.91782 -2.353074,-4.18651 -3.088199,-6.65819 -0.790596,-2.658191 -1.201724,-5.472352 -1.258361,-8.294967 -0.06432,-3.156684 0.647516,-5.842627 1.595638,-8.010763 0.19166,-0.438281 0.39394,-0.857657 0.603032,-1.258004 1.035923,-1.983471 2.325344,-3.721231 3.702049,-5.193598 1.831519,-1.958785 3.883639,-3.520462 5.908239,-4.644288 2.20718,-1.225174 4.477465,-1.985488 6.606878,-2.174828 1.12209,-0.09977 2.176744,-0.04237 3.159547,0.187005 1.002646,0.234008 1.913073,0.643585 2.708793,1.22039 0.395958,0.287024 0.758618,0.611989 1.086408,0.970682 0.325908,0.356633 0.619875,0.752156 0.881137,1.182355 0.50252,0.827462 0.870982,1.761001 1.129273,2.771216 0.526073,2.057553 0.585932,4.408551 0.458155,6.730555 -0.169236,3.075416 -0.71903,6.535769 -0.920433,8.219278 z m 2.701082,0 c -0.214802,-1.8369 -0.805,-5.15607 -1.749235,-8.223126 -0.705048,-2.290129 -1.550191,-4.274843 -2.565419,-5.852913 -0.486134,-0.755645 -0.97361,-1.36026 -1.45735,-1.861674 -0.25006,-0.259196 -0.495702,-0.487322 -0.735424,-0.692743 -0.24054,-0.206123 -0.485135,-0.39546 -0.734504,-0.568291 -0.492357,-0.34124 -1.043786,-0.646519 -1.680249,-0.890162 -0.631769,-0.241847 -1.379833,-0.435577 -2.28178,-0.535333 -1.722616,-0.190523 -3.826447,-0.03588 -6.119983,0.658061 -2.089171,0.632109 -4.364721,1.725666 -6.488134,3.402674 -1.592708,1.257872 -3.129965,2.870868 -4.366956,4.86129 -0.249099,0.400822 -0.491797,0.824323 -0.723815,1.270575 -1.147665,2.207358 -2.065219,5.034667 -2.129653,8.431638 -0.0566,2.940994 0.270009,5.913376 1.018687,8.757231 0.695472,2.64175 1.743448,5.1225 3.121514,7.26681 1.333648,2.07518 2.966718,3.81815 4.844816,5.04989 1.885138,1.23635 3.987057,1.93659 6.209139,1.95731 2.2936,0.0214 4.416533,-0.68119 6.277251,-1.8508 1.996908,-1.25522 3.666839,-3.02856 4.996318,-5.01115 1.53422,-2.28791 2.60504,-4.83173 3.311284,-7.29753 0.972735,-3.396238 1.228783,-6.530873 1.253493,-8.871757 z"
         sodipodi:nodetypes="sssss"
         inkscape:path-effect="#path-effect151"
         inkscape:original-d="m 76.233448,93.653313 c -10e-7,12.097347 -6.486412,21.904177 -14.487804,21.904177 -8.001393,0 -14.487804,-9.80683 -14.487805,-21.904177 0,-12.097346 11.120794,-19.952863 19.122188,-19.952862 8.001393,0 9.853421,7.855517 9.853421,19.952862 z"
         inkscape:linked-fill="path149"
         transform="matrix(2.744812,0,0,1.8009341,-85.873936,-13.218656)" />
    </g>
  </g>
</svg>
