<svg xmlns="http://www.w3.org/2000/svg" fill="none" viewBox="-1.25 -1.25 40 40" id="Payment-Recieve-7--Streamline-Plump" height="40" width="40">
  <desc>
    Payment Recieve 7 Streamline Icon: https://streamlinehq.com
  </desc>
  <g id="payment-recieve-7--deposit-payment-finance-atm-withdraw-dollar">
    <path id="Rectangle 1096" fill="#99c2e0" d="M2.6546875 31.4140625c0.1921875 1.94921875 1.7640625 3.35 3.72109375 3.45703125C8.8921875 35.009375 12.9390625 35.15625 18.75 35.15625c5.8109375 0 9.8578125 -0.146875 12.375 -0.28515625 1.95625 -0.10703125000000001 3.528125 -1.5078125 3.7203124999999995 -3.45703125 0.165625 -1.67890625 0.31093750000000003 -4.04921875 0.31093750000000003 -7.195312500000001 0 -3.14609375 -0.1453125 -5.51640625 -0.31093750000000003 -7.195312500000001 -0.1921875 -1.94921875 -1.7640625 -3.35 -3.72109375 -3.45703125C28.6078125 13.428125 24.560937499999998 13.28125 18.75 13.28125c-5.8109375 0 -9.8578125 0.146875 -12.375 0.28515625 -1.95625 0.10703125000000001 -3.528125 1.5078125 -3.7203124999999995 3.45703125C2.4890625 18.703125 2.34375 21.072656249999998 2.34375 24.21875c0 3.14609375 0.1453125 5.51640625 0.31093750000000003 7.195312500000001Z" stroke-width="2.5"></path>
    <path id="Rectangle 1095" stroke="#2d6a9c" stroke-linecap="round" stroke-linejoin="round" d="M2.6546875 31.4140625c0.1921875 1.94921875 1.7640625 3.35 3.72109375 3.45703125C8.8921875 35.009375 12.9390625 35.15625 18.75 35.15625c5.8109375 0 9.8578125 -0.146875 12.375 -0.28515625 1.95625 -0.10703125000000001 3.528125 -1.5078125 3.7203124999999995 -3.45703125 0.165625 -1.67890625 0.31093750000000003 -4.04921875 0.31093750000000003 -7.195312500000001 0 -3.14609375 -0.1453125 -5.51640625 -0.31093750000000003 -7.195312500000001 -0.1921875 -1.94921875 -1.7640625 -3.35 -3.72109375 -3.45703125C28.6078125 13.428125 24.560937499999998 13.28125 18.75 13.28125c-5.8109375 0 -9.8578125 0.146875 -12.375 0.28515625 -1.95625 0.10703125000000001 -3.528125 1.5078125 -3.7203124999999995 3.45703125C2.4890625 18.703125 2.34375 21.072656249999998 2.34375 24.21875c0 3.14609375 0.1453125 5.51640625 0.31093750000000003 7.195312500000001Z" stroke-width="2.5"></path>
    <path id="Vector 1565" stroke="#2d6a9c" stroke-linecap="round" stroke-linejoin="round" d="m18.75 7.03125 0 -4.6875" stroke-width="2.5"></path>
    <path id="Vector 1566" stroke="#2d6a9c" stroke-linecap="round" stroke-linejoin="round" d="M25 9.375V4.6875" stroke-width="2.5"></path>
    <path id="Vector 1567" stroke="#2d6a9c" stroke-linecap="round" stroke-linejoin="round" d="M12.5 9.375V4.6875" stroke-width="2.5"></path>
    <path id="Vector" stroke="#2d6a9c" stroke-linecap="round" stroke-linejoin="round" d="M21.875 20.535937500000003S20.625 19.53125 18.75 19.53125c-1.5625 0 -3.125 1.0046875 -3.125 2.34375 0 3.3484374999999997 6.25 1.3390625 6.25 4.6875 0 1.3390625 -1.5625 2.34375 -3.125 2.34375 -1.875 0 -3.125 -1.0046875 -3.125 -1.0046875" stroke-width="2.5"></path>
    <path id="Vector 837" stroke="#2d6a9c" stroke-linecap="round" stroke-linejoin="round" d="M18.75 19.53125v-1.5625" stroke-width="2.5"></path>
    <path id="Vector 838" stroke="#2d6a9c" stroke-linecap="round" stroke-linejoin="round" d="M18.75 30.46875v-1.5625" stroke-width="2.5"></path>
    <path id="Vector 1568" stroke="#2d6a9c" stroke-linecap="round" stroke-linejoin="round" d="M28.90625 24.21875h-0.78125" stroke-width="2.5"></path>
    <path id="Vector 1569" stroke="#2d6a9c" stroke-linecap="round" stroke-linejoin="round" d="M8.59375 24.21875h0.78125" stroke-width="2.5"></path>
  </g>
</svg>