<svg xmlns="http://www.w3.org/2000/svg" xmlns:xlink="http://www.w3.org/1999/xlink" width="500" zoomAndPan="magnify" viewBox="0 0 375 374.999991" height="500" preserveAspectRatio="xMidYMid meet" version="1.0"><defs><clipPath id="929657051f"><path d="M 4.136719 4.136719 L 370.863281 4.136719 L 370.863281 370.863281 L 4.136719 370.863281 Z M 4.136719 4.136719 " clip-rule="nonzero"/></clipPath><clipPath id="512e6d0236"><path d="M 187.5 4.136719 C 86.230469 4.136719 4.136719 86.230469 4.136719 187.5 C 4.136719 288.769531 86.230469 370.863281 187.5 370.863281 C 288.769531 370.863281 370.863281 288.769531 370.863281 187.5 C 370.863281 86.230469 288.769531 4.136719 187.5 4.136719 Z M 187.5 4.136719 " clip-rule="nonzero"/></clipPath><clipPath id="b34a2754ff"><path d="M 32.640625 32.640625 L 342.359375 32.640625 L 342.359375 342.359375 L 32.640625 342.359375 Z M 32.640625 32.640625 " clip-rule="nonzero"/></clipPath><clipPath id="5311755f9d"><path d="M 187.5 32.640625 C 101.972656 32.640625 32.640625 101.972656 32.640625 187.5 C 32.640625 273.027344 101.972656 342.359375 187.5 342.359375 C 273.027344 342.359375 342.359375 273.027344 342.359375 187.5 C 342.359375 101.972656 273.027344 32.640625 187.5 32.640625 Z M 187.5 32.640625 " clip-rule="nonzero"/></clipPath></defs><g clip-path="url(#929657051f)"><g clip-path="url(#512e6d0236)"><path fill="#263542" d="M 4.136719 4.136719 L 370.863281 4.136719 L 370.863281 370.863281 L 4.136719 370.863281 Z M 4.136719 4.136719 " fill-opacity="1" fill-rule="nonzero"/></g></g><g clip-path="url(#b34a2754ff)"><g clip-path="url(#5311755f9d)"><path fill="#ffffff" d="M 32.640625 32.640625 L 342.359375 32.640625 L 342.359375 342.359375 L 32.640625 342.359375 Z M 32.640625 32.640625 " fill-opacity="1" fill-rule="nonzero"/></g></g><path fill="#263542" d="M 249.949219 210.957031 C 246.121094 208.714844 241.417969 208.761719 237.609375 211.023438 L 218.320312 222.515625 C 214.003906 225.089844 208.609375 224.789062 204.652344 221.695312 C 197.808594 216.351562 186.789062 207.355469 177.199219 197.769531 C 167.613281 188.183594 158.617188 177.164062 153.273438 170.316406 C 150.183594 166.359375 149.878906 160.964844 152.453125 156.648438 L 163.945312 137.359375 C 166.21875 133.550781 166.234375 128.808594 163.992188 124.984375 L 135.691406 76.640625 C 132.949219 71.964844 127.5 69.664062 122.230469 70.957031 C 117.113281 72.199219 110.464844 75.234375 103.5 82.210938 C 81.683594 104.027344 70.097656 140.820312 152.132812 222.855469 C 234.167969 304.890625 270.953125 293.3125 292.777344 271.488281 C 299.761719 264.503906 302.789062 257.847656 304.042969 252.71875 C 305.3125 247.460938 303.050781 242.050781 298.386719 239.316406 C 286.734375 232.5 261.601562 217.785156 249.949219 210.957031 Z M 249.949219 210.957031 " fill-opacity="1" fill-rule="nonzero"/></svg>