<svg xmlns="http://www.w3.org/2000/svg" xmlns:xlink="http://www.w3.org/1999/xlink" width="500" zoomAndPan="magnify" viewBox="0 0 375 374.999991" height="500" preserveAspectRatio="xMidYMid meet" version="1.0"><defs><clipPath id="98183e5d16"><path d="M 51.539062 51.539062 L 323.460938 51.539062 L 323.460938 323.460938 L 51.539062 323.460938 Z M 51.539062 51.539062 " clip-rule="nonzero"/></clipPath><clipPath id="07471d2628"><path d="M 187.5 51.539062 C 112.410156 51.539062 51.539062 112.410156 51.539062 187.5 C 51.539062 262.589844 112.410156 323.460938 187.5 323.460938 C 262.589844 323.460938 323.460938 262.589844 323.460938 187.5 C 323.460938 112.410156 262.589844 51.539062 187.5 51.539062 Z M 187.5 51.539062 " clip-rule="nonzero"/></clipPath><clipPath id="37aa1c6ea0"><path d="M 72.675781 72.675781 L 302.324219 72.675781 L 302.324219 302.324219 L 72.675781 302.324219 Z M 72.675781 72.675781 " clip-rule="nonzero"/></clipPath><clipPath id="d61f20d714"><path d="M 187.5 72.675781 C 124.082031 72.675781 72.675781 124.082031 72.675781 187.5 C 72.675781 250.914062 124.082031 302.324219 187.5 302.324219 C 250.914062 302.324219 302.324219 250.914062 302.324219 187.5 C 302.324219 124.082031 250.914062 72.675781 187.5 72.675781 Z M 187.5 72.675781 " clip-rule="nonzero"/></clipPath><clipPath id="7ba3d2b471"><path d="M 113 100.121094 L 274.871094 100.121094 L 274.871094 262 L 113 262 Z M 113 100.121094 " clip-rule="nonzero"/></clipPath></defs><g clip-path="url(#98183e5d16)"><g clip-path="url(#07471d2628)"><path fill="#263542" d="M 51.539062 51.539062 L 323.460938 51.539062 L 323.460938 323.460938 L 51.539062 323.460938 Z M 51.539062 51.539062 " fill-opacity="1" fill-rule="nonzero"/></g></g><g clip-path="url(#37aa1c6ea0)"><g clip-path="url(#d61f20d714)"><path fill="#ffffff" d="M 72.675781 72.675781 L 302.324219 72.675781 L 302.324219 302.324219 L 72.675781 302.324219 Z M 72.675781 72.675781 " fill-opacity="1" fill-rule="nonzero"/></g></g><g clip-path="url(#7ba3d2b471)"><path fill="#263542" d="M 233.804688 204.894531 C 230.964844 203.230469 227.480469 203.265625 224.65625 204.941406 L 210.351562 213.464844 C 207.152344 215.371094 203.152344 215.148438 200.21875 212.855469 C 195.144531 208.890625 186.972656 202.222656 179.863281 195.113281 C 172.753906 188.007812 166.085938 179.835938 162.121094 174.761719 C 159.828125 171.824219 159.605469 167.824219 161.515625 164.625 L 170.035156 150.324219 C 171.71875 147.5 171.734375 143.984375 170.070312 141.144531 L 149.085938 105.300781 C 147.050781 101.832031 143.011719 100.128906 139.105469 101.085938 C 135.308594 102.007812 130.378906 104.257812 125.214844 109.429688 C 109.039062 125.605469 100.449219 152.886719 161.277344 213.714844 C 222.101562 274.542969 249.378906 265.957031 265.558594 249.777344 C 270.738281 244.597656 272.984375 239.664062 273.914062 235.859375 C 274.855469 231.960938 273.179688 227.945312 269.71875 225.917969 C 261.078125 220.867188 242.445312 209.953125 233.804688 204.894531 Z M 233.804688 204.894531 " fill-opacity="1" fill-rule="nonzero"/></g></svg>