<svg xmlns="http://www.w3.org/2000/svg" xmlns:xlink="http://www.w3.org/1999/xlink" width="500" zoomAndPan="magnify" viewBox="0 0 375 374.999991" height="500" preserveAspectRatio="xMidYMid meet" version="1.0"><defs><clipPath id="96348eaf76"><path d="M 5.042969 5.042969 L 369.957031 5.042969 L 369.957031 369.957031 L 5.042969 369.957031 Z M 5.042969 5.042969 " clip-rule="nonzero"/></clipPath><clipPath id="73556286de"><path d="M 187.5 5.042969 C 86.730469 5.042969 5.042969 86.730469 5.042969 187.5 C 5.042969 288.269531 86.730469 369.957031 187.5 369.957031 C 288.269531 369.957031 369.957031 288.269531 369.957031 187.5 C 369.957031 86.730469 288.269531 5.042969 187.5 5.042969 Z M 187.5 5.042969 " clip-rule="nonzero"/></clipPath><clipPath id="be2c616dbc"><path d="M 33.40625 33.40625 L 341.59375 33.40625 L 341.59375 341.59375 L 33.40625 341.59375 Z M 33.40625 33.40625 " clip-rule="nonzero"/></clipPath><clipPath id="c87902965f"><path d="M 187.5 33.40625 C 102.394531 33.40625 33.40625 102.394531 33.40625 187.5 C 33.40625 272.605469 102.394531 341.59375 187.5 341.59375 C 272.605469 341.59375 341.59375 272.605469 341.59375 187.5 C 341.59375 102.394531 272.605469 33.40625 187.5 33.40625 Z M 187.5 33.40625 " clip-rule="nonzero"/></clipPath><clipPath id="5358854a39"><path d="M 89 51.917969 L 285 51.917969 L 285 322.664062 L 89 322.664062 Z M 89 51.917969 " clip-rule="nonzero"/></clipPath></defs><g clip-path="url(#96348eaf76)"><g clip-path="url(#73556286de)"><path fill="#263542" d="M 5.042969 5.042969 L 369.957031 5.042969 L 369.957031 369.957031 L 5.042969 369.957031 Z M 5.042969 5.042969 " fill-opacity="1" fill-rule="nonzero"/></g></g><g clip-path="url(#be2c616dbc)"><g clip-path="url(#c87902965f)"><path fill="#ffffff" d="M 33.40625 33.40625 L 341.59375 33.40625 L 341.59375 341.59375 L 33.40625 341.59375 Z M 33.40625 33.40625 " fill-opacity="1" fill-rule="nonzero"/></g></g><g clip-path="url(#5358854a39)"><path fill="#263542" d="M 187.042969 51.460938 C 185.441406 51.464844 183.84375 51.503906 182.246094 51.585938 C 180.648438 51.664062 179.050781 51.785156 177.460938 51.941406 C 175.867188 52.101562 174.277344 52.300781 172.695312 52.535156 C 171.113281 52.769531 169.539062 53.046875 167.96875 53.359375 C 166.398438 53.671875 164.839844 54.023438 163.285156 54.414062 C 161.734375 54.804688 160.191406 55.234375 158.660156 55.699219 C 157.128906 56.164062 155.609375 56.667969 154.105469 57.207031 C 152.597656 57.746094 151.105469 58.324219 149.628906 58.9375 C 148.148438 59.550781 146.6875 60.199219 145.242188 60.882812 C 143.792969 61.570312 142.367188 62.289062 140.953125 63.042969 C 139.542969 63.800781 138.152344 64.589844 136.78125 65.410156 C 135.40625 66.234375 134.054688 67.089844 132.726562 67.980469 C 131.394531 68.871094 130.085938 69.792969 128.800781 70.746094 C 127.515625 71.699219 126.253906 72.683594 125.019531 73.699219 C 123.78125 74.714844 122.570312 75.757812 121.386719 76.835938 C 120.199219 77.910156 119.039062 79.011719 117.910156 80.144531 C 116.777344 81.277344 115.675781 82.433594 114.597656 83.621094 C 113.523438 84.804688 112.480469 86.015625 111.464844 87.253906 C 110.449219 88.492188 109.464844 89.75 108.511719 91.039062 C 107.558594 92.324219 106.636719 93.628906 105.746094 94.960938 C 104.855469 96.289062 104 97.640625 103.175781 99.015625 C 102.351562 100.386719 101.5625 101.777344 100.808594 103.191406 C 100.054688 104.601562 99.335938 106.03125 98.648438 107.476562 C 97.964844 108.921875 97.316406 110.382812 96.703125 111.863281 C 96.089844 113.339844 95.511719 114.832031 94.972656 116.339844 C 94.433594 117.847656 93.929688 119.363281 93.464844 120.894531 C 92.996094 122.425781 92.570312 123.96875 92.179688 125.519531 C 91.789062 127.074219 91.4375 128.632812 91.125 130.203125 C 90.8125 131.773438 90.535156 133.347656 90.300781 134.929688 C 90.0625 136.515625 89.867188 138.101562 89.707031 139.695312 C 89.550781 141.285156 89.429688 142.882812 89.351562 144.480469 C 89.269531 146.078125 89.230469 147.679688 89.226562 149.277344 C 89.226562 224.035156 178.417969 314.09375 182.222656 317.886719 L 187.042969 322.710938 L 191.867188 317.886719 C 195.664062 314.09375 284.859375 224.03125 284.859375 149.277344 C 284.859375 147.679688 284.816406 146.078125 284.738281 144.480469 C 284.65625 142.882812 284.539062 141.285156 284.378906 139.695312 C 284.21875 138.101562 284.023438 136.515625 283.785156 134.929688 C 283.550781 133.347656 283.277344 131.773438 282.960938 130.203125 C 282.648438 128.632812 282.296875 127.074219 281.90625 125.519531 C 281.515625 123.96875 281.089844 122.425781 280.625 120.894531 C 280.15625 119.363281 279.65625 117.847656 279.113281 116.339844 C 278.574219 114.832031 278 113.339844 277.386719 111.863281 C 276.773438 110.382812 276.121094 108.921875 275.4375 107.476562 C 274.753906 106.03125 274.03125 104.601562 273.277344 103.191406 C 272.523438 101.777344 271.734375 100.386719 270.910156 99.015625 C 270.085938 97.640625 269.230469 96.289062 268.339844 94.960938 C 267.453125 93.628906 266.53125 92.324219 265.578125 91.039062 C 264.625 89.75 263.636719 88.492188 262.625 87.253906 C 261.609375 86.015625 260.5625 84.804688 259.488281 83.621094 C 258.414062 82.433594 257.308594 81.277344 256.179688 80.144531 C 255.046875 79.011719 253.886719 77.910156 252.703125 76.835938 C 251.515625 75.757812 250.304688 74.714844 249.066406 73.699219 C 247.832031 72.683594 246.570312 71.699219 245.285156 70.746094 C 244 69.792969 242.691406 68.871094 241.363281 67.980469 C 240.03125 67.089844 238.679688 66.234375 237.308594 65.410156 C 235.933594 64.589844 234.542969 63.800781 233.132812 63.042969 C 231.722656 62.289062 230.292969 61.570312 228.847656 60.882812 C 227.398438 60.199219 225.9375 59.550781 224.460938 58.9375 C 222.980469 58.324219 221.488281 57.746094 219.980469 57.207031 C 218.476562 56.667969 216.957031 56.164062 215.425781 55.699219 C 213.894531 55.234375 212.351562 54.804688 210.800781 54.414062 C 209.25 54.023438 207.6875 53.671875 206.117188 53.359375 C 204.550781 53.046875 202.972656 52.769531 201.390625 52.535156 C 199.808594 52.300781 198.21875 52.101562 196.628906 51.941406 C 195.035156 51.785156 193.441406 51.664062 191.839844 51.585938 C 190.242188 51.503906 188.644531 51.464844 187.042969 51.460938 Z M 187.042969 201.597656 C 185.328125 201.597656 183.621094 201.515625 181.914062 201.347656 C 180.210938 201.179688 178.515625 200.929688 176.835938 200.59375 C 175.15625 200.257812 173.496094 199.84375 171.855469 199.347656 C 170.214844 198.847656 168.605469 198.273438 167.019531 197.617188 C 165.4375 196.960938 163.890625 196.230469 162.378906 195.421875 C 160.867188 194.613281 159.402344 193.734375 157.976562 192.78125 C 156.550781 191.828125 155.175781 190.808594 153.851562 189.722656 C 152.527344 188.636719 151.257812 187.488281 150.046875 186.273438 C 148.835938 185.0625 147.6875 183.796875 146.597656 182.46875 C 145.511719 181.144531 144.492188 179.769531 143.539062 178.347656 C 142.589844 176.921875 141.707031 175.453125 140.902344 173.941406 C 140.09375 172.429688 139.363281 170.882812 138.707031 169.300781 C 138.050781 167.71875 137.472656 166.105469 136.976562 164.464844 C 136.480469 162.828125 136.0625 161.167969 135.726562 159.484375 C 135.394531 157.804688 135.144531 156.113281 134.976562 154.40625 C 134.808594 152.703125 134.722656 150.992188 134.722656 149.277344 C 134.722656 147.566406 134.808594 145.855469 134.976562 144.152344 C 135.144531 142.445312 135.394531 140.753906 135.726562 139.070312 C 136.0625 137.390625 136.480469 135.730469 136.976562 134.089844 C 137.472656 132.449219 138.050781 130.839844 138.707031 129.257812 C 139.363281 127.671875 140.09375 126.125 140.902344 124.613281 C 141.707031 123.105469 142.589844 121.636719 143.539062 120.210938 C 144.492188 118.785156 145.511719 117.410156 146.597656 116.085938 C 147.6875 114.761719 148.835938 113.496094 150.046875 112.28125 C 151.257812 111.070312 152.527344 109.921875 153.851562 108.835938 C 155.175781 107.746094 156.550781 106.726562 157.976562 105.777344 C 159.402344 104.824219 160.867188 103.945312 162.378906 103.136719 C 163.890625 102.328125 165.4375 101.597656 167.019531 100.941406 C 168.605469 100.285156 170.214844 99.707031 171.855469 99.210938 C 173.496094 98.714844 175.15625 98.296875 176.835938 97.964844 C 178.515625 97.628906 180.210938 97.378906 181.914062 97.210938 C 183.621094 97.042969 185.328125 96.957031 187.042969 96.957031 C 188.757812 96.957031 190.464844 97.042969 192.171875 97.210938 C 193.878906 97.378906 195.570312 97.628906 197.25 97.964844 C 198.929688 98.296875 200.589844 98.714844 202.230469 99.210938 C 203.871094 99.707031 205.484375 100.285156 207.066406 100.941406 C 208.648438 101.597656 210.195312 102.328125 211.707031 103.136719 C 213.21875 103.945312 214.6875 104.824219 216.109375 105.777344 C 217.535156 106.726562 218.910156 107.746094 220.234375 108.835938 C 221.558594 109.921875 222.828125 111.070312 224.039062 112.28125 C 225.25 113.496094 226.402344 114.761719 227.488281 116.085938 C 228.574219 117.410156 229.59375 118.785156 230.546875 120.210938 C 231.5 121.636719 232.378906 123.105469 233.1875 124.613281 C 233.992188 126.125 234.726562 127.671875 235.382812 129.257812 C 236.035156 130.839844 236.613281 132.449219 237.109375 134.089844 C 237.609375 135.730469 238.023438 137.390625 238.359375 139.070312 C 238.691406 140.753906 238.945312 142.445312 239.113281 144.152344 C 239.28125 145.855469 239.363281 147.566406 239.363281 149.277344 C 239.363281 150.992188 239.277344 152.699219 239.105469 154.40625 C 238.9375 156.109375 238.683594 157.800781 238.347656 159.480469 C 238.011719 161.160156 237.597656 162.820312 237.097656 164.460938 C 236.597656 166.097656 236.023438 167.710938 235.367188 169.292969 C 234.710938 170.875 233.976562 172.421875 233.167969 173.929688 C 232.359375 175.441406 231.480469 176.910156 230.527344 178.332031 C 229.578125 179.757812 228.558594 181.128906 227.46875 182.453125 C 226.382812 183.777344 225.234375 185.046875 224.023438 186.257812 C 222.8125 187.46875 221.542969 188.617188 220.21875 189.707031 C 218.894531 190.792969 217.523438 191.8125 216.097656 192.761719 C 214.671875 193.714844 213.207031 194.597656 211.695312 195.402344 C 210.183594 196.210938 208.640625 196.945312 207.058594 197.601562 C 205.472656 198.257812 203.863281 198.835938 202.226562 199.332031 C 200.585938 199.832031 198.925781 200.25 197.246094 200.585938 C 195.566406 200.917969 193.875 201.171875 192.171875 201.34375 C 190.464844 201.511719 188.757812 201.597656 187.042969 201.597656 Z M 187.042969 201.597656 " fill-opacity="1" fill-rule="nonzero"/></g></svg>