<svg xmlns="http://www.w3.org/2000/svg" xmlns:xlink="http://www.w3.org/1999/xlink" width="500" zoomAndPan="magnify" viewBox="0 0 375 374.999991" height="500" preserveAspectRatio="xMidYMid meet" version="1.0"><defs><clipPath id="7f9caaa0bc"><path d="M 51.539062 51.539062 L 323.460938 51.539062 L 323.460938 323.460938 L 51.539062 323.460938 Z M 51.539062 51.539062 " clip-rule="nonzero"/></clipPath><clipPath id="910b76e563"><path d="M 187.5 51.539062 C 112.410156 51.539062 51.539062 112.410156 51.539062 187.5 C 51.539062 262.589844 112.410156 323.460938 187.5 323.460938 C 262.589844 323.460938 323.460938 262.589844 323.460938 187.5 C 323.460938 112.410156 262.589844 51.539062 187.5 51.539062 Z M 187.5 51.539062 " clip-rule="nonzero"/></clipPath><clipPath id="ad2fef26e5"><path d="M 72.675781 72.675781 L 302.324219 72.675781 L 302.324219 302.324219 L 72.675781 302.324219 Z M 72.675781 72.675781 " clip-rule="nonzero"/></clipPath><clipPath id="8bdb29eef0"><path d="M 187.5 72.675781 C 124.082031 72.675781 72.675781 124.082031 72.675781 187.5 C 72.675781 250.914062 124.082031 302.324219 187.5 302.324219 C 250.914062 302.324219 302.324219 250.914062 302.324219 187.5 C 302.324219 124.082031 250.914062 72.675781 187.5 72.675781 Z M 187.5 72.675781 " clip-rule="nonzero"/></clipPath><clipPath id="524cd9a9f6"><path d="M 114 86.46875 L 261 86.46875 L 261 288.21875 L 114 288.21875 Z M 114 86.46875 " clip-rule="nonzero"/></clipPath></defs><g clip-path="url(#7f9caaa0bc)"><g clip-path="url(#910b76e563)"><path fill="#263542" d="M 51.539062 51.539062 L 323.460938 51.539062 L 323.460938 323.460938 L 51.539062 323.460938 Z M 51.539062 51.539062 " fill-opacity="1" fill-rule="nonzero"/></g></g><g clip-path="url(#ad2fef26e5)"><g clip-path="url(#8bdb29eef0)"><path fill="#ffffff" d="M 72.675781 72.675781 L 302.324219 72.675781 L 302.324219 302.324219 L 72.675781 302.324219 Z M 72.675781 72.675781 " fill-opacity="1" fill-rule="nonzero"/></g></g><g clip-path="url(#524cd9a9f6)"><path fill="#263542" d="M 187.160156 86.128906 C 185.96875 86.132812 184.777344 86.160156 183.585938 86.222656 C 182.394531 86.28125 181.203125 86.371094 180.019531 86.488281 C 178.832031 86.605469 177.648438 86.753906 176.46875 86.929688 C 175.289062 87.105469 174.113281 87.3125 172.945312 87.542969 C 171.777344 87.777344 170.613281 88.039062 169.457031 88.332031 C 168.300781 88.621094 167.152344 88.941406 166.011719 89.285156 C 164.871094 89.632812 163.738281 90.007812 162.613281 90.410156 C 161.492188 90.8125 160.378906 91.242188 159.277344 91.699219 C 158.175781 92.15625 157.089844 92.640625 156.011719 93.152344 C 154.933594 93.660156 153.867188 94.199219 152.816406 94.761719 C 151.765625 95.324219 150.726562 95.910156 149.707031 96.523438 C 148.683594 97.136719 147.675781 97.777344 146.683594 98.4375 C 145.691406 99.101562 144.71875 99.789062 143.761719 100.5 C 142.804688 101.210938 141.863281 101.945312 140.941406 102.699219 C 140.019531 103.457031 139.117188 104.234375 138.234375 105.035156 C 137.351562 105.835938 136.488281 106.660156 135.644531 107.503906 C 134.800781 108.347656 133.976562 109.210938 133.175781 110.09375 C 132.375 110.976562 131.597656 111.878906 130.839844 112.800781 C 130.085938 113.722656 129.351562 114.664062 128.640625 115.621094 C 127.929688 116.578125 127.242188 117.550781 126.578125 118.542969 C 125.917969 119.535156 125.277344 120.542969 124.664062 121.5625 C 124.050781 122.585938 123.464844 123.625 122.902344 124.675781 C 122.339844 125.726562 121.800781 126.792969 121.292969 127.871094 C 120.78125 128.945312 120.296875 130.035156 119.839844 131.136719 C 119.382812 132.238281 118.953125 133.351562 118.550781 134.472656 C 118.148438 135.597656 117.773438 136.730469 117.429688 137.871094 C 117.082031 139.011719 116.761719 140.160156 116.472656 141.316406 C 116.179688 142.472656 115.917969 143.636719 115.683594 144.804688 C 115.453125 145.972656 115.246094 147.148438 115.070312 148.328125 C 114.894531 149.507812 114.746094 150.691406 114.628906 151.878906 C 114.511719 153.0625 114.421875 154.253906 114.363281 155.445312 C 114.304688 156.636719 114.273438 157.828125 114.269531 159.019531 C 114.269531 214.726562 180.734375 281.832031 183.566406 284.660156 L 187.160156 288.253906 L 190.753906 284.660156 C 193.585938 281.832031 260.046875 214.722656 260.046875 159.019531 C 260.046875 157.828125 260.015625 156.636719 259.957031 155.445312 C 259.898438 154.253906 259.808594 153.0625 259.691406 151.878906 C 259.574219 150.691406 259.425781 149.507812 259.25 148.328125 C 259.074219 147.148438 258.867188 145.972656 258.632812 144.804688 C 258.402344 143.636719 258.140625 142.472656 257.847656 141.316406 C 257.558594 140.160156 257.238281 139.011719 256.890625 137.871094 C 256.546875 136.730469 256.171875 135.597656 255.769531 134.472656 C 255.367188 133.351562 254.9375 132.238281 254.480469 131.136719 C 254.023438 130.035156 253.539062 128.945312 253.027344 127.871094 C 252.515625 126.792969 251.980469 125.726562 251.417969 124.675781 C 250.855469 123.625 250.265625 122.585938 249.652344 121.5625 C 249.039062 120.542969 248.402344 119.535156 247.738281 118.542969 C 247.078125 117.550781 246.390625 116.578125 245.679688 115.621094 C 244.96875 114.664062 244.234375 113.722656 243.480469 112.800781 C 242.722656 111.878906 241.945312 110.976562 241.140625 110.09375 C 240.339844 109.210938 239.519531 108.347656 238.675781 107.503906 C 237.832031 106.660156 236.96875 105.835938 236.085938 105.035156 C 235.203125 104.234375 234.300781 103.457031 233.378906 102.699219 C 232.457031 101.945312 231.515625 101.210938 230.558594 100.5 C 229.601562 99.789062 228.625 99.101562 227.636719 98.4375 C 226.644531 97.777344 225.636719 97.136719 224.613281 96.523438 C 223.59375 95.910156 222.554688 95.324219 221.503906 94.761719 C 220.453125 94.199219 219.386719 93.660156 218.308594 93.152344 C 217.230469 92.640625 216.140625 92.15625 215.039062 91.699219 C 213.9375 91.242188 212.828125 90.8125 211.703125 90.410156 C 210.582031 90.007812 209.449219 89.632812 208.308594 89.285156 C 207.167969 88.941406 206.019531 88.621094 204.863281 88.332031 C 203.707031 88.039062 202.542969 87.777344 201.375 87.542969 C 200.203125 87.3125 199.03125 87.105469 197.851562 86.929688 C 196.671875 86.753906 195.488281 86.605469 194.300781 86.488281 C 193.113281 86.371094 191.925781 86.28125 190.734375 86.222656 C 189.542969 86.160156 188.351562 86.132812 187.160156 86.128906 Z M 187.160156 198.007812 C 185.882812 198.007812 184.609375 197.945312 183.339844 197.820312 C 182.066406 197.691406 180.804688 197.507812 179.554688 197.257812 C 178.300781 197.007812 177.0625 196.699219 175.84375 196.328125 C 174.621094 195.957031 173.417969 195.527344 172.238281 195.039062 C 171.058594 194.550781 169.90625 194.003906 168.78125 193.402344 C 167.65625 192.800781 166.5625 192.144531 165.5 191.4375 C 164.4375 190.726562 163.414062 189.964844 162.425781 189.15625 C 161.441406 188.347656 160.496094 187.488281 159.59375 186.585938 C 158.6875 185.683594 157.832031 184.738281 157.023438 183.753906 C 156.210938 182.765625 155.453125 181.742188 154.742188 180.679688 C 154.035156 179.617188 153.378906 178.523438 152.777344 177.398438 C 152.175781 176.269531 151.628906 175.117188 151.140625 173.9375 C 150.652344 172.757812 150.222656 171.558594 149.851562 170.335938 C 149.480469 169.113281 149.171875 167.878906 148.921875 166.625 C 148.671875 165.371094 148.484375 164.109375 148.359375 162.839844 C 148.234375 161.570312 148.171875 160.296875 148.171875 159.019531 C 148.171875 157.742188 148.234375 156.46875 148.359375 155.199219 C 148.484375 153.925781 148.671875 152.664062 148.921875 151.414062 C 149.171875 150.160156 149.480469 148.921875 149.851562 147.703125 C 150.222656 146.480469 150.652344 145.277344 151.140625 144.097656 C 151.628906 142.917969 152.175781 141.765625 152.777344 140.640625 C 153.378906 139.515625 154.035156 138.421875 154.742188 137.359375 C 155.453125 136.296875 156.210938 135.273438 157.023438 134.285156 C 157.832031 133.300781 158.6875 132.355469 159.59375 131.449219 C 160.496094 130.546875 161.441406 129.691406 162.425781 128.882812 C 163.414062 128.070312 164.4375 127.3125 165.5 126.601562 C 166.5625 125.894531 167.65625 125.238281 168.78125 124.636719 C 169.90625 124.035156 171.058594 123.488281 172.238281 123 C 173.417969 122.511719 174.621094 122.082031 175.84375 121.710938 C 177.0625 121.339844 178.300781 121.03125 179.554688 120.78125 C 180.804688 120.53125 182.066406 120.34375 183.339844 120.21875 C 184.609375 120.09375 185.882812 120.03125 187.160156 120.03125 C 188.4375 120.03125 189.710938 120.09375 190.980469 120.21875 C 192.253906 120.34375 193.511719 120.53125 194.765625 120.78125 C 196.019531 121.03125 197.253906 121.339844 198.476562 121.710938 C 199.699219 122.082031 200.898438 122.511719 202.078125 123 C 203.257812 123.488281 204.410156 124.035156 205.539062 124.636719 C 206.664062 125.238281 207.757812 125.894531 208.820312 126.601562 C 209.882812 127.3125 210.90625 128.070312 211.894531 128.882812 C 212.878906 129.691406 213.824219 130.546875 214.726562 131.449219 C 215.628906 132.355469 216.488281 133.300781 217.296875 134.285156 C 218.105469 135.273438 218.867188 136.296875 219.578125 137.359375 C 220.285156 138.421875 220.941406 139.515625 221.542969 140.640625 C 222.144531 141.765625 222.691406 142.917969 223.179688 144.097656 C 223.667969 145.277344 224.097656 146.480469 224.46875 147.703125 C 224.839844 148.921875 225.148438 150.160156 225.398438 151.414062 C 225.648438 152.664062 225.835938 153.925781 225.960938 155.199219 C 226.085938 156.46875 226.148438 157.742188 226.148438 159.019531 C 226.144531 160.296875 226.082031 161.570312 225.957031 162.839844 C 225.828125 164.109375 225.640625 165.371094 225.390625 166.621094 C 225.140625 167.875 224.828125 169.109375 224.457031 170.332031 C 224.085938 171.554688 223.65625 172.753906 223.167969 173.933594 C 222.679688 175.109375 222.132812 176.261719 221.53125 177.390625 C 220.929688 178.515625 220.273438 179.609375 219.5625 180.667969 C 218.855469 181.730469 218.09375 182.753906 217.285156 183.742188 C 216.472656 184.726562 215.617188 185.671875 214.714844 186.574219 C 213.8125 187.476562 212.867188 188.332031 211.882812 189.144531 C 210.894531 189.953125 209.871094 190.710938 208.808594 191.421875 C 207.75 192.132812 206.65625 192.789062 205.53125 193.390625 C 204.402344 193.992188 203.25 194.539062 202.074219 195.027344 C 200.894531 195.515625 199.695312 195.945312 198.472656 196.316406 C 197.25 196.6875 196.015625 197 194.761719 197.25 C 193.511719 197.5 192.25 197.6875 190.980469 197.816406 C 189.710938 197.941406 188.4375 198.003906 187.160156 198.007812 Z M 187.160156 198.007812 " fill-opacity="1" fill-rule="nonzero"/></g></svg>