<?xml version="1.0" encoding="UTF-8" standalone="no"?>
<!-- Created with Inkscape (http://www.inkscape.org/) -->

<svg
   width="210mm"
   height="297mm"
   viewBox="0 0 210 297"
   version="1.1"
   id="svg1"
   inkscape:version="1.3.2 (091e20e, 2023-11-25, custom)"
   sodipodi:docname="arrow.svg"
   inkscape:export-filename="rally.svg"
   inkscape:export-xdpi="96"
   inkscape:export-ydpi="96"
   xmlns:inkscape="http://www.inkscape.org/namespaces/inkscape"
   xmlns:sodipodi="http://sodipodi.sourceforge.net/DTD/sodipodi-0.dtd"
   xmlns="http://www.w3.org/2000/svg"
   xmlns:svg="http://www.w3.org/2000/svg">
  <sodipodi:namedview
     id="namedview1"
     pagecolor="#ffffff"
     bordercolor="#000000"
     borderopacity="0.25"
     inkscape:showpageshadow="2"
     inkscape:pageopacity="0.0"
     inkscape:pagecheckerboard="0"
     inkscape:deskcolor="#d1d1d1"
     inkscape:document-units="mm"
     inkscape:zoom="0.51717104"
     inkscape:cx="145.01972"
     inkscape:cy="484.36587"
     inkscape:window-width="1920"
     inkscape:window-height="1017"
     inkscape:window-x="-8"
     inkscape:window-y="-8"
     inkscape:window-maximized="1"
     inkscape:current-layer="layer1" />
  <defs
     id="defs1">
    <inkscape:path-effect
       effect="powerstroke"
       id="path-effect72"
       is_visible="true"
       lpeversion="1.3"
       scale_width="1"
       interpolator_type="CentripetalCatmullRom"
       interpolator_beta="0.2"
       start_linecap_type="round"
       end_linecap_type="round"
       offset_points="0.011607308,2.8591963 | 2.4617083,3.534792 | 2.8403751,5.0695843 | 2.2068065,2 | 4.8,2"
       linejoin_type="round"
       miter_limit="4"
       not_jump="false"
       sort_points="true"
       message="&lt;b&gt;Ctrl + click&lt;/b&gt; on existing node and move it" />
    <inkscape:path-effect
       effect="powerstroke"
       id="path-effect71"
       is_visible="true"
       lpeversion="1.3"
       scale_width="1"
       interpolator_type="CentripetalCatmullRom"
       interpolator_beta="0.2"
       start_linecap_type="zerowidth"
       end_linecap_type="zerowidth"
       offset_points="0.2,2 | 3.4841916,2.5683492 | 3.4841916,2.5683492 | 5.1312461,1.5128978"
       linejoin_type="round"
       miter_limit="4"
       not_jump="false"
       sort_points="true"
       message="&lt;b&gt;Ctrl + click&lt;/b&gt; on existing node and move it" />
    <inkscape:path-effect
       effect="powerstroke"
       id="path-effect70"
       is_visible="true"
       lpeversion="1.3"
       scale_width="1"
       interpolator_type="CentripetalCatmullRom"
       interpolator_beta="0.2"
       start_linecap_type="zerowidth"
       end_linecap_type="round"
       offset_points="0.77875684,1.8658673 | 1.3271436,1.786274 | 2.1792331,3.35676 | 2.9208299,4.8074664"
       linejoin_type="bevel"
       miter_limit="4"
       not_jump="false"
       sort_points="true"
       message="&lt;b&gt;Ctrl + click&lt;/b&gt; on existing node and move it" />
  </defs>
  <g
     inkscape:label="Layer 1"
     inkscape:groupmode="layer"
     id="layer1">
    <g
       id="g72"
       transform="matrix(1.1732992,0,0,1.548273,2.2841609,-94.499297)"
       style="stroke-width:0.741945">
      <path
         style="fill:#000000;fill-opacity:1;fill-rule:nonzero;stroke:none;stroke-width:2.14778;stroke-linecap:round;stroke-linejoin:round;stroke-dasharray:none;stroke-opacity:1;paint-order:stroke markers fill"
         d="m 32.255358,241.46953 c 0.836563,-0.69347 2.724165,-1.56162 5.019378,-4.16084 2.5856,-2.92808 7.518454,-10.12534 13.447961,-19.22425 6.683941,-1.05537 14.245765,-2.36772 21.657337,-3.69529 a 3.1035891,2.8694248 11.548352 0 0 1.891061,-1.14557 c 4.869982,-6.57742 9.601534,-13.04745 13.471379,-18.31698 4.317184,-0.98345 7.829482,-1.77089 10.070517,-2.23119 0.282075,-0.0579 -0.268777,0.065 0,0 2.330609,-0.5637 6.681689,-1.57983 11.765389,-2.77744 a 2.4905683,2.0174896 8.3072408 0 0 1.26854,-0.75327 c 4.50938,-5.49654 9.91805,-12.11598 13.93204,-17.19876 0.7404,-0.0582 1.44542,-0.11615 2.10846,-0.17365 7.42454,-0.64387 15.99761,-1.7871 19.19713,-2.14452 -3.21608,-0.14661 -11.84571,-0.72458 -19.2965,-0.87965 -0.89958,-0.0187 -1.87576,-0.0332 -2.91228,-0.0441 a 1.3960692,1.8153748 26.810901 0 0 -1.20003,0.57568 c -4.30217,4.60662 -9.97633,10.90122 -14.77323,16.24776 -4.82116,0.92081 -8.912586,1.70898 -11.160153,2.12407 -0.271928,0.0502 0.281189,-0.0621 0,0 -2.404939,0.53111 -6.309703,1.3167 -11.11631,2.26893 a 2.4936239,2.8043169 15.903129 0 0 -1.570135,0.99848 c -3.926019,5.03598 -8.814534,11.27468 -13.811315,17.72498 -7.556972,1.19052 -15.199598,2.4407 -21.831167,3.63832 a 3.1393107,2.9414693 9.6071656 0 0 -2.057565,1.36339 c -6.086232,9.75767 -10.831552,17.76236 -12.455497,21.49513 -1.383324,3.17968 -1.370842,5.25732 -1.64501,6.30878 z"
         id="path64"
         sodipodi:nodetypes="ccccccc"
         inkscape:path-effect="#path-effect71"
         inkscape:original-d="m 32.255358,241.46953 16.66097,-26.17406 22.967651,-3.85883 14.297782,-18.88854 22.916369,-4.88368 14.83191,-17.28867 22.15451,-0.72798"
         transform="matrix(1.2198052,0,0,1.5652817,-16.055742,-137.41245)" />
      <path
         style="fill:#000000;fill-opacity:1;fill-rule:nonzero;stroke:none;stroke-width:2.07198;stroke-linecap:round;stroke-linejoin:round;stroke-dasharray:none;stroke-opacity:1;paint-order:stroke markers fill"
         d="m 41.298899,242.55479 c 0.0059,0.001 0.01344,0.002 0.02241,0.001 0.0086,-3.2e-4 0.01869,-0.001 0.03018,-0.003 0.02182,-0.004 0.04895,-0.01 0.08205,-0.0198 0.06067,-0.0179 0.14154,-0.0472 0.247528,-0.0911 0.186117,-0.077 0.448895,-0.19865 0.815184,-0.38209 0.620259,-0.31063 1.523213,-0.7914 2.823168,-1.51429 2.18596,-1.21559 5.329315,-3.02366 9.748836,-5.61661 7.867867,-4.61611 18.33554,-10.87026 30.619768,-18.21615 14.455252,-8.64416 23.592242,-14.10676 35.378422,-21.10505 0.16009,-0.0951 3.6645,-2.1746 3.82459,-2.26966 4.36739,-2.59046 8.32361,-4.93514 11.83727,-7.00754 3.68684,-2.17454 6.94846,-4.08598 9.73326,-5.69296 0.66882,7.62015 1.4616,15.9166 2.18858,25.1755 0.36761,4.682 0.73704,9.62175 1.06302,14.2082 0.57526,8.0937 1.01512,15.04703 1.15623,18.93678 -4.67421,-0.0564 -9.26511,-0.10913 -13.71147,-0.15371 -23.69171,-0.23753 -57.414275,-0.72976 -68.691039,-0.73062 -3.684125,-2.8e-4 -6.109645,0.0641 -7.331575,0.0769 a 4.8074664,4.8074664 90 0 0 0.1008,9.6144 c 1.221929,-0.0128 3.648265,6.6e-4 7.331574,-0.0769 11.274268,-0.23729 44.9791,-1.43644 68.66062,-2.17064 5.35734,-0.16609 10.9244,-0.34838 16.59414,-0.53695 l 2.94836,-3.28331 c -0.35424,0.0382 -1.67318,-9.63877 -3.0684,-22.0419 -0.51767,-4.60196 -1.03096,-9.45076 -1.49359,-14.15684 -1.02134,-10.38949 -1.68168,-19.79265 -2.2454,-28.10688 l -2.79845,-1.50118 c -3.34415,1.83757 -7.50425,4.22442 -12.39701,7.12477 -3.52674,2.09059 -7.46278,4.46491 -11.80431,7.12741 -1.21366,0.74428 -2.47833,1.52279 -3.79312,2.33499 -10.011,6.1842 -22.332938,13.9552 -34.882914,21.96949 -11.882492,7.58804 -22.489232,14.44861 -29.937679,19.32336 -4.268254,2.79343 -7.326174,4.82082 -9.38056,6.20421 -1.23165,0.82937 -2.075335,1.40884 -2.639893,1.80606 -0.333957,0.23497 -0.567144,0.40399 -0.726645,0.52396 -0.09089,0.0684 -0.157565,0.12058 -0.205428,0.16005 -0.02614,0.0216 -0.04657,0.0392 -0.06236,0.0537 -0.0083,0.008 -0.0153,0.0143 -0.02119,0.0202 -0.0062,0.006 -0.01088,0.0113 -0.01496,0.016 z"
         id="path65"
         sodipodi:nodetypes="cccc"
         inkscape:path-effect="#path-effect70"
         inkscape:original-d="m 41.298899,242.55479 c 1.293898,-0.43129 79.614681,-49.82813 106.785651,-65.01948 2.0533,26.87271 5.70651,64.45173 5.70651,64.45173 l -92.605344,0.97089"
         transform="matrix(1.2325724,0,0,1.6644902,-19.252522,-164.63373)" />
    </g>
    <path
       style="fill:#000000;fill-opacity:1;fill-rule:nonzero;stroke:none;stroke-width:3.05486;stroke-linecap:round;stroke-linejoin:round;stroke-dasharray:none;stroke-opacity:1;paint-order:stroke markers fill"
       d="m 97.430121,148.49109 c -0.145488,0.001 -0.330442,0.002 -0.872925,0.009 -3.644619,0.0467 -36.451348,0.83596 -72.318311,1.54266 -0.184709,-7.2557 -0.359497,-17.05456 -0.280111,-23.98819 14.402107,0.0484 26.143913,0.13316 34.215373,0.26369 22.044644,0.35651 28.050903,1.06442 44.273203,1.53479 19.75198,0.57272 35.29661,1.31701 65.76961,1.53479 6.40757,0.0458 14.07182,0.059 22.74891,0.045 -0.0765,0.7838 0.44044,9.48173 1.0079,17.92908 -13.7564,0.75714 -25.97862,1.45264 -31.58846,1.59819 -4.45869,0.11567 -7.35566,0.0603 -8.82679,0.0724 a 2,2 90 0 0 0.0328,3.99986 c 1.47114,-0.0121 4.36681,-0.11492 8.8268,-0.0724 6.11095,0.0583 20.07349,0.64025 35.31958,1.22267 a 3.3287019,3.7930284 3.7486748 0 0 3.4832,-3.48097 c 0.81449,-9.40226 1.64799,-19.62365 1.8246,-26.3383 a 5.1163861,5.0168497 0.81588957 0 0 -5.10371,-5.14899 c -10.74065,-0.0285 -20.11822,-0.0201 -27.72481,0.0343 -30.473,0.21778 -46.01763,0.96207 -65.76961,1.53479 -16.2223,0.47037 -22.228559,1.17828 -44.273203,1.53479 -8.387563,0.13564 -20.738586,0.22188 -35.919645,0.26921 a 1.6976171,1.7358007 89.363119 0 0 -1.730805,1.73079 c 0.135728,6.96765 -0.04845,17.66001 -0.304838,27.79938 a 2.0535666,1.9854118 0.67441649 0 0 2.056397,2.03552 c 36.648138,-0.0314 70.627656,0.0933 74.340288,0.065 0.542512,-0.004 0.727438,-0.007 0.872925,-0.009 a 2.8591963,2.8591963 90 0 0 -0.05835,-5.7181 z"
       id="path66"
       sodipodi:nodetypes="cccccc"
       inkscape:path-effect="#path-effect72"
       inkscape:original-d="m 97.459295,151.35014 -75.20481,0.7674 V 124.31816 H 195.94178 l -0.23289,26.35236 -44.13398,0.36176"
       transform="matrix(1.0603948,0,0,1.6168449,-12.14178,-152.82882)" />
    <path
       style="fill:none;fill-opacity:1;stroke:#000000;stroke-width:6.6;stroke-linecap:round;stroke-linejoin:round;stroke-dasharray:none;stroke-opacity:1;paint-order:stroke markers fill"
       d="m 12.959296,106.06947 0.959,162.29192"
       id="path69" />
    <path
       style="fill:none;fill-opacity:1;stroke:#000000;stroke-width:4.9;stroke-linecap:round;stroke-linejoin:round;stroke-dasharray:none;stroke-opacity:1;paint-order:stroke markers fill"
       d="m 26.87824,105.02756 0.281486,110.26841"
       id="path70" />
  </g>
</svg>
