<svg xmlns="http://www.w3.org/2000/svg" fill="none" viewBox="-0.835 -0.835 40 40" id="Ranking-Stars-Ribbon--Streamline-Ultimate" height="40" width="40">
  <desc>
    Ranking Stars Ribbon Streamline Icon: https://streamlinehq.com
  </desc>
  <path fill="#90e39a" d="M7.685899658333334 26.917721625C7.285670575000001 29.761967333333338 1.5970833333333334 31.18417004166667 1.5970833333333334 31.18417004166667l3.8188658125000003 2.2913354583333336 -1.527546325 3.0550607083333334s6.873974433333333 -0.76372525 6.873974433333333 -3.8187859583333332c0.004391979166666666 -0.20187133333333337 -0.03213331666666667 -0.402465 -0.10735594166666668 -0.5896431666666666 -0.07520665416666666 -0.18749758333333336 -0.1875774375 -0.35742725000000003 -0.3302928041666667 -0.5003662083333333 -0.14274730833333335 -0.14261954166666668 -0.31288459583333333 -0.25505420833333337 -0.5001905291666667 -0.33027683333333335 -0.18730593333333334 -0.07506291666666667 -0.3878996 -0.11179583333333334 -0.58970705 -0.107324" stroke-width="1.67"></path>
  <path stroke="#191919" stroke-linecap="round" stroke-linejoin="round" d="M7.685899658333334 26.917721625C7.285670575000001 29.761967333333338 1.5970833333333334 31.18417004166667 1.5970833333333334 31.18417004166667l3.8188658125000003 2.2913354583333336 -1.527546325 3.0550607083333334s6.873974433333333 -0.76372525 6.873974433333333 -3.8187859583333332c0.004391979166666666 -0.20187133333333337 -0.03213331666666667 -0.402465 -0.10735594166666668 -0.5896431666666666 -0.07520665416666666 -0.18749758333333336 -0.1875774375 -0.35742725000000003 -0.3302928041666667 -0.5003662083333333 -0.14274730833333335 -0.14261954166666668 -0.31288459583333333 -0.25505420833333337 -0.5001905291666667 -0.33027683333333335 -0.18730593333333334 -0.07506291666666667 -0.3878996 -0.11179583333333334 -0.58970705 -0.107324" stroke-width="1.67"></path>
  <path fill="#90e39a" d="M30.64371704166667 26.917721625c0.40022908333333335 2.8442457083333332 6.0887205 4.266448416666667 6.0887205 4.266448416666667l-3.8187859583333332 2.2913354583333336 1.5274505 3.0550607083333334s-6.873846666666667 -0.76372525 -6.873846666666667 -3.8187859583333332c-0.004471833333333334 -0.20187133333333337 0.032101375 -0.402465 0.107324 -0.5896431666666666 0.07522262500000002 -0.18749758333333336 0.18765729166666667 -0.35742725000000003 0.33027683333333335 -0.5003662083333333 0.14261954166666668 -0.14261954166666668 0.312868625 -0.25505420833333337 0.5002065 -0.33027683333333335 0.18733787500000001 -0.07506291666666667 0.3879315416666667 -0.11179583333333334 0.5896431666666666 -0.107324" stroke-width="1.67"></path>
  <path stroke="#191919" stroke-linecap="round" stroke-linejoin="round" d="M30.64371704166667 26.917721625c0.40022908333333335 2.8442457083333332 6.0887205 4.266448416666667 6.0887205 4.266448416666667l-3.8187859583333332 2.2913354583333336 1.5274505 3.0550607083333334s-6.873846666666667 -0.76372525 -6.873846666666667 -3.8187859583333332c-0.004471833333333334 -0.20187133333333337 0.032101375 -0.402465 0.107324 -0.5896431666666666 0.07522262500000002 -0.18749758333333336 0.18765729166666667 -0.35742725000000003 0.33027683333333335 -0.5003662083333333 0.14261954166666668 -0.14261954166666668 0.312868625 -0.25505420833333337 0.5002065 -0.33027683333333335 0.18733787500000001 -0.07506291666666667 0.3879315416666667 -0.11179583333333334 0.5896431666666666 -0.107324" stroke-width="1.67"></path>
  <path fill="#138a36" stroke="#191919" stroke-linecap="round" stroke-linejoin="round" d="M19.164680583333336 26.602936500000002c7.637731625000001 0 9.929067083333333 4.582670916666667 9.929067083333333 4.582670916666667l2.63039625 -7.234468083333334c0.12345454166666667 -0.3393802083333333 0.122656 -0.7118200416666667 -0.002235916666666667 -1.0505614166666668 -0.12521133333333334 -0.33906079166666664 -0.36621120833333337 -0.6227027916666668 -0.6805172083333333 -0.8007775833333333 -3.6317675 -2.0282958333333334 -7.717106666666667 -3.1064867916666667 -11.876710208333334 -3.1345954583333335 -4.159747279166667 0.02810866666666667 -8.244958679166666 1.1062996250000001 -11.87674215 3.1345954583333335 -0.3143698833333333 0.17807479166666668 -0.5554655833333334 0.46171679166666674 -0.6804692958333334 0.8007775833333333 -0.1250037125 0.338741375 -0.12585016666666665 0.7111812083333333 -0.0023477125000000002 1.0505614166666668l2.6304441625 7.234468083333334s2.2913354583333336 -4.582670916666667 9.929114995833334 -4.582670916666667Z" stroke-width="1.67"></path>
  <path fill="#ffef5e" stroke="#191919" stroke-linecap="round" stroke-linejoin="round" d="M18.821786791666668 2.0812870583333334c0.187817 -0.37577773750000004 0.49493612500000006 -0.37577773750000004 0.6827531250000001 0l1.9506775833333334 3.899821966666667h4.582670916666667c0.4200329166666667 0 0.47816675000000003 0.19094728333333333 0.1284055 0.42313125833333337l-3.947191458333333 2.6319773625000003 2.022386625 5.393765658333334c0.152840875 0.3941122541666667 -0.012137833333333334 0.5147878708333333 -0.35279570833333335 0.2703862083333334l-4.724811333333334 -3.3728323791666672 -4.724635654166667 3.3743496083333335c-0.3421751041666667 0.24441763333333336 -0.5010369833333334 0.12220881666666668 -0.3528755625 -0.2703702375l2.0224505083333333 -5.395298858333334 -3.947159516666667 -2.6319773625000003c-0.34980916250000005 -0.233717175 -0.29175518333333333 -0.42313125833333337 0.12830967499999998 -0.42313125833333337h4.5825750916666665l1.9492402083333333 -3.899821966666667Z" stroke-width="1.67"></path>
  <path fill="#ffef5e" stroke="#191919" stroke-linecap="round" stroke-linejoin="round" d="M6.623775358333334 7.436962279166666c0.17719639583333333 -0.3803613666666667 0.46743435 -0.3803613666666667 0.646147975 0l1.4588078583333335 3.1268815458333337h2.8000065000000003c0.4200648583333333 0 0.5208887291666667 0.24288443333333334 0.22301671666666664 0.5407564458333334L9.3214247875 13.53492989166667l0.9852726500000001 3.4248174416666672c0.11609198750000001 0.40326354166666667 -0.080972125 0.55291025 -0.4384153458333333 0.32995741666666667L6.946082745833334 15.465755729166666 4.028467029166667 17.28970475c-0.35592599166666666 0.22295283333333335 -0.5529741333333333 0.07634058333333334 -0.4384153458333333 -0.32995741666666667l0.9791717916666667 -3.4248174416666672 -2.4318628208333335 -2.4303296208333336c-0.29635478333333337 -0.3055060708333333 -0.1970641125 -0.5407564458333334 0.22301671666666664 -0.5407564458333334h2.801523729166667l1.4618742583333335 -3.1268815458333337Z" stroke-width="1.67"></path>
  <path fill="#ffef5e" stroke="#191919" stroke-linecap="round" stroke-linejoin="round" d="M31.06199316666667 7.436962279166666c0.17711654166666668 -0.3803613666666667 0.4674662916666667 -0.3803613666666667 0.6461799166666667 0l1.4587759166666667 3.1268815458333337h2.8000065000000003c0.4200329166666667 0 0.5208088750000001 0.24288443333333334 0.22295283333333335 0.5407564458333334l-2.4302817083333337 2.4303296208333336 0.9791717916666667 3.4248174416666672c0.11610795833333334 0.40326354166666667 -0.080972125 0.55291025 -0.43839937500000004 0.32995741666666667L31.384284583333333 15.465755729166666l-2.917711541666667 1.8239490208333335c-0.35583016666666667 0.22295283333333335 -0.55291025 0.07634058333333334 -0.43839937500000004 -0.32995741666666667l0.9791717916666667 -3.4248174416666672L26.575466666666667 11.104600270833334c-0.2962589583333333 -0.3055060708333333 -0.196920375 -0.5407564458333334 0.22311254166666666 -0.5407564458333334h2.801443875l1.4619700833333333 -3.1268815458333337Z" stroke-width="1.67"></path>
</svg>