<svg xmlns="http://www.w3.org/2000/svg" xmlns:xlink="http://www.w3.org/1999/xlink" width="500" zoomAndPan="magnify" viewBox="0 0 375 374.999991" height="500" preserveAspectRatio="xMidYMid meet" version="1.0"><defs><g/><clipPath id="8b37f22bc6"><path d="M 80.589844 139.402344 L 371.578125 139.402344 L 371.578125 235.402344 L 80.589844 235.402344 Z M 80.589844 139.402344 " clip-rule="nonzero"/></clipPath><clipPath id="85346f9b1e"><path d="M 97.835938 139.402344 L 353.953125 139.402344 C 358.53125 139.402344 362.917969 141.21875 366.152344 144.453125 C 369.386719 147.6875 371.203125 152.074219 371.203125 156.652344 L 371.203125 218.339844 C 371.203125 222.914062 369.386719 227.304688 366.152344 230.539062 C 362.917969 233.773438 358.53125 235.589844 353.953125 235.589844 L 97.835938 235.589844 C 93.261719 235.589844 88.875 233.773438 85.640625 230.539062 C 82.40625 227.304688 80.589844 222.914062 80.589844 218.339844 L 80.589844 156.652344 C 80.589844 152.074219 82.40625 147.6875 85.640625 144.453125 C 88.875 141.21875 93.261719 139.402344 97.835938 139.402344 Z M 97.835938 139.402344 " clip-rule="nonzero"/></clipPath><clipPath id="4dc142615f"><path d="M 3.78125 135.324219 L 108.128906 135.324219 L 108.128906 239.675781 L 3.78125 239.675781 Z M 3.78125 135.324219 " clip-rule="nonzero"/></clipPath><clipPath id="1dcd592656"><path d="M 55.957031 135.324219 C 27.140625 135.324219 3.78125 158.683594 3.78125 187.5 C 3.78125 216.316406 27.140625 239.675781 55.957031 239.675781 C 84.769531 239.675781 108.128906 216.316406 108.128906 187.5 C 108.128906 158.683594 84.769531 135.324219 55.957031 135.324219 Z M 55.957031 135.324219 " clip-rule="nonzero"/></clipPath><clipPath id="8fc944bcc0"><path d="M 111.863281 164.898438 L 159.363281 164.898438 L 159.363281 210.101562 L 111.863281 210.101562 Z M 111.863281 164.898438 " clip-rule="nonzero"/></clipPath><clipPath id="1b6e217bdf"><path d="M 135.578125 164.898438 L 141.175781 182.164062 L 159.289062 182.164062 L 144.632812 192.835938 L 150.234375 210.101562 L 135.578125 199.429688 L 120.921875 210.101562 L 126.519531 192.835938 L 111.863281 182.164062 L 129.976562 182.164062 Z M 135.578125 164.898438 " clip-rule="nonzero"/></clipPath><clipPath id="e0907ee12d"><path d="M 111.863281 164.898438 L 159.113281 164.898438 L 159.113281 209.898438 L 111.863281 209.898438 Z M 111.863281 164.898438 " clip-rule="nonzero"/></clipPath><clipPath id="51f80adff0"><path d="M 135.574219 164.898438 L 141.171875 182.160156 L 159.285156 182.160156 L 144.632812 192.832031 L 150.230469 210.097656 L 135.574219 199.425781 L 120.921875 210.097656 L 126.519531 192.832031 L 111.863281 182.160156 L 129.976562 182.160156 Z M 135.574219 164.898438 " clip-rule="nonzero"/></clipPath><clipPath id="419f1835d4"><path d="M 162.121094 164.898438 L 209.625 164.898438 L 209.625 210.101562 L 162.121094 210.101562 Z M 162.121094 164.898438 " clip-rule="nonzero"/></clipPath><clipPath id="d2272ed059"><path d="M 185.835938 164.898438 L 191.433594 182.164062 L 209.550781 182.164062 L 194.894531 192.835938 L 200.492188 210.101562 L 185.835938 199.429688 L 171.179688 210.101562 L 176.777344 192.835938 L 162.121094 182.164062 L 180.238281 182.164062 Z M 185.835938 164.898438 " clip-rule="nonzero"/></clipPath><clipPath id="df5ada8b42"><path d="M 162.125 164.898438 L 209.371094 164.898438 L 209.371094 209.898438 L 162.125 209.898438 Z M 162.125 164.898438 " clip-rule="nonzero"/></clipPath><clipPath id="9d09828e77"><path d="M 185.835938 164.898438 L 191.433594 182.160156 L 209.546875 182.160156 L 194.890625 192.832031 L 200.488281 210.097656 L 185.835938 199.425781 L 171.179688 210.097656 L 176.777344 192.832031 L 162.125 182.160156 L 180.238281 182.160156 Z M 185.835938 164.898438 " clip-rule="nonzero"/></clipPath><clipPath id="ebb2369b4f"><path d="M 212.472656 164.898438 L 259.972656 164.898438 L 259.972656 210.101562 L 212.472656 210.101562 Z M 212.472656 164.898438 " clip-rule="nonzero"/></clipPath><clipPath id="0d0c09a248"><path d="M 236.183594 164.898438 L 241.785156 182.164062 L 259.898438 182.164062 L 245.242188 192.835938 L 250.839844 210.101562 L 236.183594 199.429688 L 221.527344 210.101562 L 227.128906 192.835938 L 212.472656 182.164062 L 230.585938 182.164062 Z M 236.183594 164.898438 " clip-rule="nonzero"/></clipPath><clipPath id="b74f49859a"><path d="M 212.472656 164.898438 L 259.722656 164.898438 L 259.722656 209.898438 L 212.472656 209.898438 Z M 212.472656 164.898438 " clip-rule="nonzero"/></clipPath><clipPath id="902d13444d"><path d="M 236.183594 164.898438 L 241.78125 182.160156 L 259.894531 182.160156 L 245.242188 192.832031 L 250.839844 210.097656 L 236.183594 199.425781 L 221.53125 210.097656 L 227.128906 192.832031 L 212.472656 182.160156 L 230.585938 182.160156 Z M 236.183594 164.898438 " clip-rule="nonzero"/></clipPath><clipPath id="d9fcb6b0d9"><path d="M 262.777344 164.898438 L 310.277344 164.898438 L 310.277344 210.101562 L 262.777344 210.101562 Z M 262.777344 164.898438 " clip-rule="nonzero"/></clipPath><clipPath id="b68bedef7d"><path d="M 286.488281 164.898438 L 292.089844 182.164062 L 310.203125 182.164062 L 295.546875 192.835938 L 301.144531 210.101562 L 286.488281 199.429688 L 271.832031 210.101562 L 277.433594 192.835938 L 262.777344 182.164062 L 280.890625 182.164062 Z M 286.488281 164.898438 " clip-rule="nonzero"/></clipPath><clipPath id="1b41fb0370"><path d="M 262.777344 164.898438 L 310.027344 164.898438 L 310.027344 209.898438 L 262.777344 209.898438 Z M 262.777344 164.898438 " clip-rule="nonzero"/></clipPath><clipPath id="b7fa247686"><path d="M 286.488281 164.898438 L 292.085938 182.160156 L 310.199219 182.160156 L 295.546875 192.832031 L 301.144531 210.097656 L 286.488281 199.425781 L 271.835938 210.097656 L 277.433594 192.832031 L 262.777344 182.160156 L 280.890625 182.160156 Z M 286.488281 164.898438 " clip-rule="nonzero"/></clipPath><clipPath id="c4782fc4db"><path d="M 313.035156 164.898438 L 360.535156 164.898438 L 360.535156 210.101562 L 313.035156 210.101562 Z M 313.035156 164.898438 " clip-rule="nonzero"/></clipPath><clipPath id="7425f534d0"><path d="M 336.75 164.898438 L 342.347656 182.164062 L 360.464844 182.164062 L 345.808594 192.835938 L 351.40625 210.101562 L 336.75 199.429688 L 322.09375 210.101562 L 327.691406 192.835938 L 313.035156 182.164062 L 331.152344 182.164062 Z M 336.75 164.898438 " clip-rule="nonzero"/></clipPath><clipPath id="1e271f31e0"><path d="M 313.039062 164.898438 L 360.285156 164.898438 L 360.285156 209.898438 L 313.039062 209.898438 Z M 313.039062 164.898438 " clip-rule="nonzero"/></clipPath><clipPath id="9e71703671"><path d="M 336.75 164.898438 L 342.347656 182.160156 L 360.460938 182.160156 L 345.804688 192.832031 L 351.402344 210.097656 L 336.75 199.425781 L 322.09375 210.097656 L 327.691406 192.832031 L 313.039062 182.160156 L 331.152344 182.160156 Z M 336.75 164.898438 " clip-rule="nonzero"/></clipPath></defs><g clip-path="url(#8b37f22bc6)"><g clip-path="url(#85346f9b1e)"><path stroke-linecap="butt" transform="matrix(0.75, 0, 0, 0.75, 80.588138, 139.402169)" fill="none" stroke-linejoin="miter" d="M 22.997068 0.000232672 L 364.486674 0.000232672 C 370.590841 0.000232672 376.4398 2.422108 380.7523 6.734608 C 385.0648 11.047108 387.486675 16.896067 387.486675 23.000234 L 387.486675 105.25024 C 387.486675 111.349198 385.0648 117.203365 380.7523 121.515866 C 376.4398 125.828366 370.590841 128.250241 364.486674 128.250241 L 22.997068 128.250241 C 16.898109 128.250241 11.049151 125.828366 6.73665 121.515866 C 2.42415 117.203365 0.00227486 111.349198 0.00227486 105.25024 L 0.00227486 23.000234 C 0.00227486 16.896067 2.42415 11.047108 6.73665 6.734608 C 11.049151 2.422108 16.898109 0.000232672 22.997068 0.000232672 Z M 22.997068 0.000232672 " stroke="#000000" stroke-width="20" stroke-opacity="1" stroke-miterlimit="4"/></g></g><g clip-path="url(#4dc142615f)"><g clip-path="url(#1dcd592656)"><path fill="#081b31" d="M 3.78125 135.324219 L 108.128906 135.324219 L 108.128906 239.675781 L 3.78125 239.675781 Z M 3.78125 135.324219 " fill-opacity="1" fill-rule="nonzero"/></g></g><g clip-path="url(#8fc944bcc0)"><g clip-path="url(#1b6e217bdf)"><path fill="#ffc145" d="M 111.863281 164.898438 L 159.363281 164.898438 L 159.363281 210.101562 L 111.863281 210.101562 Z M 111.863281 164.898438 " fill-opacity="1" fill-rule="nonzero"/></g></g><g clip-path="url(#e0907ee12d)"><g clip-path="url(#51f80adff0)"><path stroke-linecap="butt" transform="matrix(0.75, 0, 0, 0.75, 111.864108, 164.897495)" fill="none" stroke-linejoin="miter" d="M 31.613484 0.00125697 L 39.077026 23.016883 L 63.228069 23.016883 L 43.691609 37.246051 L 51.155152 60.266886 L 31.613484 46.037718 L 12.077024 60.266886 L 19.540566 37.246051 L -0.00110174 23.016883 L 24.149942 23.016883 Z M 31.613484 0.00125697 " stroke="#ffc145" stroke-width="8" stroke-opacity="1" stroke-miterlimit="4"/></g></g><g clip-path="url(#419f1835d4)"><g clip-path="url(#d2272ed059)"><path fill="#ffc145" d="M 162.121094 164.898438 L 209.625 164.898438 L 209.625 210.101562 L 162.121094 210.101562 Z M 162.121094 164.898438 " fill-opacity="1" fill-rule="nonzero"/></g></g><g clip-path="url(#df5ada8b42)"><g clip-path="url(#9d09828e77)"><path stroke-linecap="butt" transform="matrix(0.75, 0, 0, 0.75, 162.124359, 164.897495)" fill="none" stroke-linejoin="miter" d="M 31.615439 0.00125697 L 39.078982 23.016883 L 63.230025 23.016883 L 43.688357 37.246051 L 51.151899 60.266886 L 31.615439 46.037718 L 12.073772 60.266886 L 19.537314 37.246051 L 0.000854062 23.016883 L 24.151897 23.016883 Z M 31.615439 0.00125697 " stroke="#ffc145" stroke-width="8" stroke-opacity="1" stroke-miterlimit="4"/></g></g><g clip-path="url(#ebb2369b4f)"><g clip-path="url(#0d0c09a248)"><path fill="#ffc145" d="M 212.472656 164.898438 L 259.972656 164.898438 L 259.972656 210.101562 L 212.472656 210.101562 Z M 212.472656 164.898438 " fill-opacity="1" fill-rule="nonzero"/></g></g><g clip-path="url(#b74f49859a)"><g clip-path="url(#902d13444d)"><path stroke-linecap="butt" transform="matrix(0.75, 0, 0, 0.75, 212.473013, 164.897495)" fill="none" stroke-linejoin="miter" d="M 31.61411 0.00125697 L 39.077652 23.016883 L 63.228695 23.016883 L 43.692236 37.246051 L 51.155778 60.266886 L 31.61411 46.037718 L 12.07765 60.266886 L 19.541192 37.246051 L -0.000475597 23.016883 L 24.150568 23.016883 Z M 31.61411 0.00125697 " stroke="#ffc145" stroke-width="8" stroke-opacity="1" stroke-miterlimit="4"/></g></g><g clip-path="url(#d9fcb6b0d9)"><g clip-path="url(#b68bedef7d)"><path fill="#ffc145" d="M 262.777344 164.898438 L 310.277344 164.898438 L 310.277344 210.101562 L 262.777344 210.101562 Z M 262.777344 164.898438 " fill-opacity="1" fill-rule="nonzero"/></g></g><g clip-path="url(#1b41fb0370)"><g clip-path="url(#b7fa247686)"><path stroke-linecap="butt" transform="matrix(0.75, 0, 0, 0.75, 262.777605, 164.897495)" fill="none" stroke-linejoin="miter" d="M 31.614237 0.00125697 L 39.077779 23.016883 L 63.228823 23.016883 L 43.692363 37.246051 L 51.155905 60.266886 L 31.614237 46.037718 L 12.077778 60.266886 L 19.54132 37.246051 L -0.000348126 23.016883 L 24.150695 23.016883 Z M 31.614237 0.00125697 " stroke="#ffc145" stroke-width="8" stroke-opacity="1" stroke-miterlimit="4"/></g></g><g clip-path="url(#c4782fc4db)"><g clip-path="url(#7425f534d0)"><path fill="#ffc145" d="M 313.035156 164.898438 L 360.535156 164.898438 L 360.535156 210.101562 L 313.035156 210.101562 Z M 313.035156 164.898438 " fill-opacity="1" fill-rule="nonzero"/></g></g><g clip-path="url(#1e271f31e0)"><g clip-path="url(#9e71703671)"><path stroke-linecap="butt" transform="matrix(0.75, 0, 0, 0.75, 313.037826, 164.897495)" fill="none" stroke-linejoin="miter" d="M 31.616235 0.00125697 L 39.079777 23.016883 L 63.23082 23.016883 L 43.689152 37.246051 L 51.152694 60.266886 L 31.616235 46.037718 L 12.074567 60.266886 L 19.538109 37.246051 L 0.00164927 23.016883 L 24.152693 23.016883 Z M 31.616235 0.00125697 " stroke="#ffc145" stroke-width="8" stroke-opacity="1" stroke-miterlimit="4"/></g></g><g fill="#ffc145" fill-opacity="1"><g transform="translate(16.868419, 205.874986)"><g><path d="M 20.8125 0 L 20.8125 -10.140625 L 1.859375 -10.140625 L 1.859375 -14.515625 L 18.546875 -39.71875 L 25.3125 -39.71875 L 25.3125 -14.15625 L 30.65625 -14.15625 L 30.65625 -10.140625 L 25.3125 -10.140625 L 25.3125 0 Z M 6.0625 -14.15625 L 20.8125 -14.15625 L 20.8125 -35.875 Z M 6.0625 -14.15625 "/></g></g></g><g fill="#ffc145" fill-opacity="1"><g transform="translate(49.861997, 205.874986)"><g><path d="M 3.1875 0 L 3.1875 -6.125 L 9 -6.125 L 9 0 Z M 3.1875 0 "/></g></g></g><g fill="#ffc145" fill-opacity="1"><g transform="translate(62.03962, 205.874986)"><g><path d="M 15.359375 0.484375 C 12.835938 0.484375 10.738281 0.00390625 9.0625 -0.953125 C 7.382812 -1.921875 6.070312 -3.15625 5.125 -4.65625 C 4.1875 -6.15625 3.539062 -7.679688 3.1875 -9.234375 L 8.21875 -9.234375 C 8.5 -8.398438 8.910156 -7.570312 9.453125 -6.75 C 9.992188 -5.925781 10.742188 -5.242188 11.703125 -4.703125 C 12.660156 -4.171875 13.878906 -3.90625 15.359375 -3.90625 C 17.835938 -3.90625 19.847656 -4.625 21.390625 -6.0625 C 22.929688 -7.5 24.070312 -9.4375 24.8125 -11.875 C 25.550781 -14.320312 25.921875 -17.046875 25.921875 -20.046875 C 24.960938 -18.398438 23.550781 -17.046875 21.6875 -15.984375 C 19.832031 -14.929688 17.785156 -14.40625 15.546875 -14.40625 C 13.054688 -14.40625 10.78125 -14.953125 8.71875 -16.046875 C 6.664062 -17.148438 5.039062 -18.671875 3.84375 -20.609375 C 2.644531 -22.546875 2.046875 -24.773438 2.046875 -27.296875 C 2.046875 -29.773438 2.664062 -31.984375 3.90625 -33.921875 C 5.144531 -35.867188 6.800781 -37.398438 8.875 -38.515625 C 10.957031 -39.640625 13.238281 -40.203125 15.71875 -40.203125 C 20.5625 -40.203125 24.222656 -38.441406 26.703125 -34.921875 C 29.179688 -31.398438 30.421875 -26.378906 30.421875 -19.859375 C 30.421875 -13.578125 29.160156 -8.613281 26.640625 -4.96875 C 24.117188 -1.332031 20.359375 0.484375 15.359375 0.484375 Z M 15.71875 -18.65625 C 17.394531 -18.65625 18.929688 -19.003906 20.328125 -19.703125 C 21.734375 -20.410156 22.847656 -21.394531 23.671875 -22.65625 C 24.492188 -23.914062 24.90625 -25.363281 24.90625 -27 C 24.90625 -28.757812 24.492188 -30.296875 23.671875 -31.609375 C 22.847656 -32.929688 21.742188 -33.960938 20.359375 -34.703125 C 18.984375 -35.441406 17.4375 -35.8125 15.71875 -35.8125 C 14.039062 -35.8125 12.507812 -35.453125 11.125 -34.734375 C 9.75 -34.015625 8.640625 -33.015625 7.796875 -31.734375 C 6.960938 -30.453125 6.546875 -28.972656 6.546875 -27.296875 C 6.546875 -25.660156 6.960938 -24.191406 7.796875 -22.890625 C 8.640625 -21.585938 9.75 -20.554688 11.125 -19.796875 C 12.507812 -19.035156 14.039062 -18.65625 15.71875 -18.65625 Z M 15.71875 -18.65625 "/></g></g></g></svg>