<?xml version="1.0" encoding="UTF-8" standalone="no"?>
<!-- Created with Inkscape (http://www.inkscape.org/) -->

<svg
   width="210mm"
   height="297mm"
   viewBox="0 0 210 297"
   version="1.1"
   id="svg1"
   inkscape:version="1.3.2 (091e20e, 2023-11-25, custom)"
   sodipodi:docname="arrow.svg"
   inkscape:export-filename="scent.svg"
   inkscape:export-xdpi="96"
   inkscape:export-ydpi="96"
   xmlns:inkscape="http://www.inkscape.org/namespaces/inkscape"
   xmlns:sodipodi="http://sodipodi.sourceforge.net/DTD/sodipodi-0.dtd"
   xmlns="http://www.w3.org/2000/svg"
   xmlns:svg="http://www.w3.org/2000/svg">
  <sodipodi:namedview
     id="namedview1"
     pagecolor="#ffffff"
     bordercolor="#000000"
     borderopacity="0.25"
     inkscape:showpageshadow="2"
     inkscape:pageopacity="0.0"
     inkscape:pagecheckerboard="0"
     inkscape:deskcolor="#d1d1d1"
     inkscape:document-units="mm"
     inkscape:zoom="0.51717104"
     inkscape:cx="145.01972"
     inkscape:cy="484.36587"
     inkscape:window-width="1920"
     inkscape:window-height="1017"
     inkscape:window-x="-8"
     inkscape:window-y="-8"
     inkscape:window-maximized="1"
     inkscape:current-layer="layer1" />
  <defs
     id="defs1">
    <inkscape:path-effect
       effect="powerstroke"
       id="path-effect86"
       is_visible="true"
       lpeversion="1.3"
       scale_width="1"
       interpolator_type="CentripetalCatmullRom"
       interpolator_beta="0.2"
       start_linecap_type="zerowidth"
       end_linecap_type="zerowidth"
       offset_points="8.3002658,-1.2619675 | 11.105724,1.9105573 | 1.6339298,3.0118935 | 0.0037509214,0.19731433"
       linejoin_type="round"
       miter_limit="4"
       not_jump="false"
       sort_points="true"
       message="&lt;b&gt;Ctrl + click&lt;/b&gt; on existing node and move it" />
    <inkscape:path-effect
       effect="powerstroke"
       id="path-effect84"
       is_visible="true"
       lpeversion="1.3"
       scale_width="1"
       interpolator_type="CentripetalCatmullRom"
       interpolator_beta="0.2"
       start_linecap_type="zerowidth"
       end_linecap_type="zerowidth"
       offset_points="8.3002658,-1.2619675 | 11.105724,1.9105573 | 1.6339298,3.0118935 | 0.0037509214,0.19731433"
       linejoin_type="round"
       miter_limit="4"
       not_jump="false"
       sort_points="true"
       message="&lt;b&gt;Ctrl + click&lt;/b&gt; on existing node and move it" />
    <inkscape:path-effect
       effect="powerstroke"
       id="path-effect82"
       is_visible="true"
       lpeversion="1.3"
       scale_width="1"
       interpolator_type="CentripetalCatmullRom"
       interpolator_beta="0.2"
       start_linecap_type="zerowidth"
       end_linecap_type="zerowidth"
       offset_points="8.3002658,-1.2619675 | 11.105724,1.9105573 | 1.6339298,3.0118935 | 0.0037509214,0.19731433"
       linejoin_type="round"
       miter_limit="4"
       not_jump="false"
       sort_points="true"
       message="&lt;b&gt;Ctrl + click&lt;/b&gt; on existing node and move it" />
    <inkscape:path-effect
       effect="powerstroke"
       id="path-effect78"
       is_visible="true"
       lpeversion="1.3"
       scale_width="1"
       interpolator_type="CentripetalCatmullRom"
       interpolator_beta="0.2"
       start_linecap_type="zerowidth"
       end_linecap_type="zerowidth"
       offset_points="0.53682614,-1.1073402 | 2.0161631,-3.6383796 | 2.8,0"
       linejoin_type="round"
       miter_limit="4"
       not_jump="false"
       sort_points="true"
       message="&lt;b&gt;Ctrl + click&lt;/b&gt; on existing node and move it" />
    <inkscape:path-effect
       effect="powerstroke"
       id="path-effect77"
       is_visible="true"
       lpeversion="1.3"
       scale_width="1"
       interpolator_type="CentripetalCatmullRom"
       interpolator_beta="0.2"
       start_linecap_type="zerowidth"
       end_linecap_type="zerowidth"
       offset_points="0.40934355,0.86802817 | 2.7773108,7.5801239 | 1.2693313,2.3191797 | 4.8157986,1.0864174"
       linejoin_type="round"
       miter_limit="4"
       not_jump="false"
       sort_points="true"
       message="&lt;b&gt;Ctrl + click&lt;/b&gt; on existing node and move it" />
    <inkscape:path-effect
       effect="powerstroke"
       id="path-effect76"
       is_visible="true"
       lpeversion="1.3"
       scale_width="1"
       interpolator_type="CentripetalCatmullRom"
       interpolator_beta="0.2"
       start_linecap_type="zerowidth"
       end_linecap_type="round"
       offset_points="0.54975276,2.0852195 | 3.4329926,-2.821274 | 4.6840167,-1.9987584 | 8.8,2.25 | 7.3881486,2.8100523"
       linejoin_type="round"
       miter_limit="4"
       not_jump="false"
       sort_points="true"
       message="&lt;b&gt;Ctrl + click&lt;/b&gt; on existing node and move it" />
  </defs>
  <g
     inkscape:label="Layer 1"
     inkscape:groupmode="layer"
     id="layer1">
    <path
       style="fill:#000000;fill-opacity:1;fill-rule:nonzero;stroke:none;stroke-width:3.5;stroke-linecap:round;stroke-linejoin:round;stroke-dasharray:none;stroke-opacity:1;paint-order:stroke markers fill"
       d="m 67.543053,155.11837 c 0.04874,0.14294 0.712678,0.0118 4.274239,-0.71863 1.623424,-0.33292 3.625346,-0.73258 5.837813,-1.1021 1.202864,-0.2009 2.524222,-0.40628 3.90454,-0.58596 3.415283,-0.44458 7.432229,-0.76417 11.052122,-0.39897 1.676016,0.16909 3.251752,0.48372 4.62505,0.99011 1.322455,0.48765 2.40733,1.13483 3.212893,1.94988 0.3584,0.41485 0.54854,0.7752 0.63215,1.08513 0.0798,0.29582 0.0655,0.55454 0.0121,0.81712 -0.008,0.0413 -0.0179,0.0833 -0.0285,0.12621 -0.0563,0.22805 -0.15579,0.49542 -0.29674,0.82088 -0.1727,0.39879 -0.36985,0.8026 -0.64699,1.38968 -0.485843,1.02921 -1.200799,2.57888 -1.729621,4.55745 -0.516414,1.93215 -0.88162,4.35055 -0.743311,7.32632 -0.239374,-0.0984 -0.331301,-0.23299 -0.566736,-0.1371 -0.20709,0.0843 -0.523555,0.36108 -1.016303,0.75308 -0.50673,0.40312 -1.110145,0.85888 -1.913111,1.39294 -0.781093,0.51952 -1.660261,1.05185 -2.635956,1.5868 -1.954877,1.07181 -4.0618,2.02475 -6.048929,2.77138 -0.211212,0.0794 -0.418943,0.15559 -0.622986,0.22875 -0.733004,0.26281 -1.394088,0.47744 -1.989614,0.65241 -0.738282,0.21691 -1.335502,0.34868 -1.602672,0.43043 l 3.425932,0.63867 c -1.023297,-0.38657 -1.943263,-0.51674 -2.63229,-0.54405 -0.680674,-0.027 -1.222248,0.0419 -1.585064,0.12618 -0.756446,0.17571 -0.927662,0.42568 -0.931642,0.75712 -0.002,0.1674 0.03085,0.36599 0.0059,0.55431 -0.02488,0.188 -0.108944,0.35728 -0.298167,0.41881 -0.185301,0.0602 -0.456156,0.007 -0.786085,-0.22291 -0.327865,-0.22851 -0.698101,-0.62068 -1.080593,-1.20555 a 4.4823885,3.3983868 44.552997 0 0 -6.899695,-0.89426 c -0.462125,1.04584 -0.67393,2.07231 -0.680339,3.04801 -0.0063,0.9597 0.185974,1.7859 0.433345,2.46811 0.242797,0.66959 0.555459,1.24449 0.825341,1.70144 0.277465,0.46978 0.534926,0.86157 0.74133,1.20758 0.204859,0.34341 0.365518,0.64699 0.459912,0.92976 0.09366,0.28056 0.136574,0.58096 0.05243,0.92908 -0.04506,0.18642 -0.127475,0.38987 -0.261362,0.60895 -0.118744,0.1943 -0.278219,0.40377 -0.489414,0.62632 -0.325943,0.34346 -0.769864,0.71272 -1.366692,1.1023 -0.0045,-0.006 -0.0091,-0.012 -0.01368,-0.018 -0.199068,-0.26064 -0.420631,-0.48504 -0.654589,-0.68502 -0.448154,-0.38309 -0.958334,-0.68936 -1.449123,-0.98199 -0.490553,-0.29249 -0.975789,-0.57908 -1.414624,-0.92863 -0.442235,-0.35225 -0.828233,-0.7619 -1.109228,-1.2863 -0.335185,-0.63217 -0.552682,-1.3767 -0.691985,-2.10855 -0.149656,-0.78624 -0.211947,-1.56981 -0.236068,-2.21906 -0.06588,-1.77341 0.05996,-2.4524 0.0058,-2.4583 -0.0542,-0.006 -0.184912,0.67589 -0.142031,2.46247 0.01567,0.65303 0.06685,1.44568 0.198469,2.24572 0.122136,0.74239 0.317299,1.51484 0.631962,2.19364 0.266467,0.58037 0.640202,1.05167 1.066871,1.47856 0.418418,0.41863 0.882098,0.78848 1.303392,1.15576 0.436547,0.38058 0.80613,0.74065 1.070266,1.14416 0.133583,0.20407 0.232972,0.40891 0.299198,0.61941 0.06805,0.2163 0.100507,0.43676 0.10054,0.66712 a 0.66441922,0.81852932 75.612903 0 0 1.133022,0.52065 c 1.051173,-0.46745 1.881097,-0.93209 2.540675,-1.40393 0.326706,-0.23372 0.615743,-0.47212 0.871307,-0.71726 0.288325,-0.27657 0.540721,-0.56579 0.75839,-0.87254 0.418865,-0.59029 0.684782,-1.2114 0.847248,-1.8678 0.159189,-0.64316 0.20912,-1.28091 0.231121,-1.87189 0.02204,-0.59207 0.01813,-1.14507 0.05099,-1.63176 0.03338,-0.49448 0.101874,-0.89839 0.235499,-1.20852 0.134301,-0.3117 0.310938,-0.47309 0.506059,-0.5454 0.191114,-0.0708 0.373363,-0.0553 0.616982,-0.10198 l -6.899694,-0.89426 c 0.155763,1.04392 0.365357,2.02454 0.652059,2.94057 0.289534,0.92508 0.663835,1.80225 1.149983,2.61899 0.494585,0.83091 1.08637,1.56894 1.77565,2.21872 0.693673,0.65392 1.42787,1.16375 2.15183,1.57442 1.449901,0.82248 2.707501,1.19836 3.313728,1.50685 0.306514,0.15597 0.455162,0.29051 0.38307,0.38019 -0.06804,0.0846 -0.369575,0.12268 -0.854747,-0.021 l 3.425936,0.63867 c 1.542946,-0.0159 3.083714,-0.2445 4.532613,-0.58339 1.165089,-0.27251 2.332523,-0.63083 3.476695,-1.05401 0.323275,-0.11957 0.64632,-0.2449 0.968659,-0.37567 2.942033,-1.19349 5.909477,-2.87342 8.53162,-4.85743 1.328464,-1.00516 2.593104,-2.10705 3.734984,-3.28926 1.14844,-1.18899 2.20575,-2.49348 3.07716,-3.89626 0.87713,-1.41199 1.61572,-3.00461 2.01748,-4.72833 0.41414,-1.77684 0.46726,-3.69289 -0.0653,-5.58975 -0.72108,-1.88072 -1.16357,-3.46634 -1.45224,-4.86223 -0.31469,-1.52178 -0.44528,-2.79254 -0.58148,-4.15756 -0.0679,-0.6803 -0.13838,-1.38871 -0.23969,-2.05911 -0.0904,-0.59793 -0.20864,-1.1924 -0.38434,-1.77955 -0.0327,-0.1092 -0.0677,-0.21801 -0.10517,-0.32641 -0.24995,-0.72235 -0.59719,-1.38294 -1.06896,-1.99773 -0.47691,-0.62147 -1.05285,-1.15915 -1.71097,-1.64906 -1.35306,-1.10478 -2.947257,-1.82166 -4.590925,-2.28449 -1.712165,-0.48212 -3.554424,-0.70983 -5.382102,-0.77937 -3.937621,-0.14983 -8.13744,0.42337 -11.572908,1.11385 -1.403341,0.28205 -2.728825,0.59358 -3.932971,0.90802 -2.206276,0.57613 -4.188709,1.19628 -5.765267,1.74775 -3.462228,1.21108 -4.008562,1.6968 -3.983404,1.77058 z"
       id="path75"
       sodipodi:nodetypes="cassccsc"
       inkscape:path-effect="#path-effect77"
       inkscape:original-d="m 67.543053,155.11837 c 0,0 25.575273,-8.72038 34.067117,-1.17101 4.119,3.66186 -0.3345,6.91359 1.37095,16.47723 1.27554,7.1528 -14.025757,15.63749 -21.335117,16.02639 -2.213811,-0.99334 -5.794338,0.84673 -7.939743,-5.66743 -2.795969,4.30561 3.936925,7.70769 -3.782265,11.61128 -0.575848,-2.34192 -3.391333,-2.70221 -4.496857,-4.93277 -1.270846,-2.56413 -0.80535,-6.84387 -0.80535,-6.84387"
       transform="translate(9.4056029,-7.9585871)" />
    <path
       style="fill:#000000;fill-opacity:1;fill-rule:nonzero;stroke:none;stroke-width:4.5;stroke-linecap:round;stroke-linejoin:round;stroke-dasharray:none;stroke-opacity:1;paint-order:stroke markers fill"
       d="m 3.0749087,154.64981 c 0.045298,0.16776 0.8079976,0.40269 4.9285799,-0.12523 4.8962694,-0.62729 10.8793934,-1.72168 24.2947604,-4.00079 7.262484,-1.23381 20.362593,-3.46618 36.744793,-5.43398 -1.953056,0.71376 -3.740966,1.42913 -5.369596,2.14546 -2.79929,1.23124 -5.089971,2.44851 -6.937274,3.64666 -1.79137,1.16187 -3.152517,2.29718 -4.156841,3.39861 -0.982123,1.07709 -1.609313,2.10698 -1.968415,3.07374 -0.352869,0.94998 -0.435069,1.80677 -0.3721,2.55351 0.06177,0.73258 0.262333,1.35269 0.473924,1.85806 0.105834,0.25278 0.2152,0.4788 0.316106,0.68407 0.09719,0.19771 0.196141,0.39482 0.264362,0.56294 0.03117,0.0567 0.0749,0.10076 0.125881,0.13815 0.05102,0.0374 0.115107,0.0722 0.191028,0.10459 0.07664,0.0327 0.167604,0.0638 0.27377,0.0928 0.10631,0.0291 0.226975,0.0559 0.36262,0.0802 0.272201,0.0487 0.597743,0.0858 0.97455,0.1115 0.376694,0.0257 0.798954,0.0394 1.260111,0.0422 0.927252,0.006 1.998414,-0.0327 3.142329,-0.10313 1.154317,-0.0711 2.375558,-0.17447 3.586532,-0.29647 2.488137,-0.25067 4.907465,-0.57707 6.676837,-0.86931 1.883458,-0.31108 3.006114,-0.57802 2.980214,-0.71459 l 2.290374,3.23994 c 0.152068,0.0216 -0.08067,0.84354 -0.398749,1.94493 -0.285764,0.9895 -0.569652,1.95862 -0.878104,3.14684 -0.116501,0.44878 -0.226144,0.90029 -0.326943,1.35263 -0.42438,1.90439 -0.653659,3.65346 -0.645729,5.17594 0.0043,0.83248 0.07955,1.55985 0.214551,2.18748 0.140257,0.65205 0.343531,1.19007 0.595943,1.63147 0.762301,1.27901 1.875356,2.57488 3.298742,3.76919 1.305597,1.09547 2.926651,2.14848 4.789649,2.97003 1.207275,0.53238 2.54428,0.9789 3.947984,1.24781 0.465944,0.0893 0.939324,0.16096 1.416894,0.21127 1.67153,0.17607 3.414244,0.0918 5.046911,-0.43691 1.217077,-0.43923 2.305061,-0.71905 3.306657,-0.89048 0.968152,-0.1657 1.82593,-0.22528 2.623647,-0.24241 0.77192,-0.0166 1.473487,0.007 2.159518,0.006 0.666438,-6.9e-4 1.334067,-0.024 2.050175,-0.13602 0.70669,-0.11056 1.47952,-0.31022 2.36617,-0.67355 0.87672,-0.35925 1.86277,-0.87771 3.00422,-1.62619 2.19527,-1.43951 4.93416,-3.70868 8.56228,-7.28771 1.36943,1.15171 2.45389,2.48978 3.27605,3.97844 0.88605,1.60435 1.47404,3.39534 1.78304,5.34029 0.62452,3.93091 0.11379,8.52193 -1.42829,13.50483 -1.58397,5.11823 -4.2389,10.59615 -7.80384,16.1473 -3.68564,5.73911 -8.29015,11.47553 -13.616254,16.97618 -3.969133,2.69232 -8.064715,5.54413 -11.996834,8.17417 -2.390439,1.59887 -4.676464,3.08966 -6.901735,4.47878 -1.840391,1.14886 -3.67353,2.24933 -5.478102,3.26718 -4.029764,2.27294 -7.797556,4.06556 -11.150738,5.11361 -1.677776,0.5244 -3.193379,0.84372 -4.546509,0.96119 -1.372374,0.11915 -2.534989,0.0271 -3.518038,-0.23714 -2.263003,-0.63607 -4.681507,-0.91126 -7.098235,-0.95635 -2.515796,-0.0469 -5.096841,0.15445 -7.604452,0.49625 -5.453761,0.74337 -10.872416,2.19473 -15.132958,3.52477 -6.517907,2.03473 -11.969621,4.31614 -13.6615891,5.0138 -2.9668305,1.22335 -3.2651459,1.37888 -3.2762199,1.38388 a 2.25,2.25 90 0 0 1.8503324,4.10198 c -0.011074,0.005 0.2281648,-0.16544 3.1163766,-1.31544 1.703949,-0.67847 6.9652,-2.68574 13.365995,-4.48291 4.167235,-1.17005 9.329906,-2.39472 14.391866,-2.95522 2.321846,-0.25709 4.621616,-0.37434 6.788611,-0.28276 2.09059,0.0883 4.011508,0.36929 5.687439,0.8792 1.748712,0.53042 3.611821,0.68282 5.528198,0.55049 1.881523,-0.12992 3.83419,-0.53542 5.820748,-1.14352 3.93645,-1.20497 8.120501,-3.2419 12.294333,-5.6723 1.888154,-1.09947 3.782115,-2.28423 5.655038,-3.51469 2.260609,-1.48516 4.569139,-3.08866 6.936766,-4.79299 4.05658,-2.92013 7.894502,-5.84944 11.844105,-8.84281 a 0.2417681,1.3332645 59.115618 0 0 0.34346,-0.30028 c 5.431656,-5.93517 10.076006,-12.14789 13.710216,-18.374 3.47261,-5.94925 5.98847,-11.85521 7.35039,-17.39749 1.3266,-5.39856 1.54859,-10.42163 0.5022,-14.70671 -0.51777,-2.12028 -1.34237,-4.04265 -2.47948,-5.72462 -1.13528,-1.67927 -2.57052,-3.10201 -4.29707,-4.24413 a 0.51170159,0.46884592 37.102181 0 0 -0.64174,0.0606 c -3.50546,3.97493 -6.08475,6.58187 -8.13025,8.33808 -1.03605,0.88953 -1.94349,1.56803 -2.77261,2.09733 -0.84198,0.53751 -1.60518,0.92241 -2.34074,1.21763 -0.747931,0.30018 -1.454839,0.50241 -2.150058,0.67334 -0.708776,0.17425 -1.397272,0.31562 -2.097263,0.48421 -0.722813,0.17408 -1.449959,0.37353 -2.25292,0.65498 -0.827476,0.29003 -1.729452,0.66538 -2.752913,1.17674 -2.039767,1.03089 -4.272154,1.43976 -6.394122,1.45898 -0.605534,0.005 -1.204592,-0.0206 -1.792245,-0.0733 -1.765267,-0.15814 -3.454149,-0.5397 -4.983674,-1.03679 -2.356727,-0.76592 -4.486579,-1.85271 -6.273203,-3.08283 -1.936893,-1.33359 -3.637089,-2.94821 -4.908451,-4.78618 -0.701934,-1.02024 -1.180236,-2.14987 -1.484576,-3.3203 -0.290576,-1.11749 -0.426978,-2.28804 -0.445905,-3.47489 -0.03416,-2.14211 0.314004,-4.39929 0.884788,-6.59054 0.137799,-0.52901 0.287861,-1.05128 0.447182,-1.5627 0.399809,-1.28338 0.871922,-2.48669 1.332261,-3.4765 0.547878,-1.17805 1.063347,-2.00839 1.222197,-1.98578 a 4.0836097,2.2650931 83.758989 0 1 2.290374,3.23994 c -0.02627,-0.1385 -1.206133,-0.17994 -3.153421,-0.21405 -1.786337,-0.0313 -4.3566,-0.0582 -6.871422,-0.17509 -1.24355,-0.0578 -2.503218,-0.13849 -3.693399,-0.25521 -1.178228,-0.11554 -2.293906,-0.26688 -3.26166,-0.46761 -0.481841,-0.0999 -0.928668,-0.21246 -1.329053,-0.33946 -0.399324,-0.12667 -0.755495,-0.26869 -1.054439,-0.42841 -0.149561,-0.0799 -0.285858,-0.16482 -0.406252,-0.25505 -0.120342,-0.0902 -0.225845,-0.1865 -0.312411,-0.28902 -0.08676,-0.10273 -0.154644,-0.21193 -0.198236,-0.32627 -0.04391,-0.11517 -0.06133,-0.2308 -0.05225,-0.34409 0.02631,-0.165 0.02725,-0.3678 0.01833,-0.59573 -0.0089,-0.22805 -0.02743,-0.48001 -0.04032,-0.74796 -0.02636,-0.54819 -0.02756,-1.13487 0.09193,-1.77149 0.119633,-0.63738 0.355671,-1.30118 0.790501,-2.00566 0.441061,-0.71458 1.095407,-1.48348 2.062901,-2.30583 0.99364,-0.84456 2.316001,-1.74397 4.06731,-2.69208 1.806836,-0.97817 4.046761,-1.99543 6.803856,-3.04598 5.923804,-2.25717 13.971523,-4.56782 24.537245,-6.90538 a 1.8565731,1.8382626 36.572837 0 0 -0.558002,-3.64184 c -26.205073,1.7487 -46.684005,5.06573 -57.186596,7.07573 -12.510136,2.39421 -20.29774,4.6843 -24.052399,6.01723 -3.9426114,1.39967 -4.4748257,2.04504 -4.4295273,2.2128 z"
       id="path76"
       sodipodi:nodetypes="ccscssccsc"
       inkscape:path-effect="#path-effect76"
       inkscape:original-d="m 3.0749087,154.64981 c 0,0 35.7528233,-9.65393 85.8087283,-13.46357 -44.361879,10.29876 -38.113949,19.13504 -37.752195,21.84819 0.361754,2.71316 19.953209,0.84011 19.953209,0.84011 0,0 -5.574752,11.98417 -1.697489,17.925 4.124529,6.31969 14.426885,10.61104 21.425936,7.64073 9.118436,-3.86977 8.923564,2.50253 23.446612,-12.90655 12.98826,9.40338 6.05065,34.80008 -16.22439,58.42547 -15.112682,10.83545 -34.86991,25.85025 -45.911717,22.63844 -15.522254,-4.51506 -45.0618708,8.80974 -45.0618708,8.80974" />
    <path
       style="fill:#000000;fill-opacity:1;fill-rule:nonzero;stroke:none;stroke-width:1;stroke-linecap:round;stroke-linejoin:round;stroke-dasharray:none;stroke-opacity:1;paint-order:stroke markers fill"
       d="m 50.115053,282.57398 c -0.01361,-0.10147 0.877746,-0.34076 4.136633,-1.35653 2.292998,-0.71471 5.633421,-1.84595 8.960446,-3.54367 0.468851,-0.23924 0.935552,-0.48889 1.397399,-0.74931 1.037512,-0.58502 2.121745,-1.27311 3.169935,-2.06828 1.332033,-1.01049 2.61294,-2.1993 3.662625,-3.57349 0.961841,-1.25919 1.719199,-2.66004 2.156142,-4.2158 0.410094,-1.46016 0.547293,-3.08753 0.284896,-4.92338 a 2.3067257,2.1520266 27.075356 0 1 4.201701,-1.19986 c 1.40007,2.29669 2.688045,4.3652 3.581357,5.93218 0.905159,1.58777 1.626639,3.02855 2.007657,4.4607 0.200371,0.75314 0.308396,1.50699 0.306906,2.27684 -0.0015,0.79802 -0.120952,1.54678 -0.320419,2.24662 -0.207451,0.72784 -0.496686,1.38554 -0.807943,1.9662 -0.337055,0.62878 -0.725146,1.21367 -1.120262,1.74471 -0.235427,0.35773 -0.480603,0.70392 -0.733961,1.03885 -1.72269,2.27727 -3.921948,4.15727 -6.375574,5.72237 -2.842383,1.81307 -6.072249,3.2297 -9.408645,4.345 -7.037754,2.3526 -14.895268,3.47908 -21.524213,4.02165 -7.935301,0.6495 -14.881215,0.52432 -18.763854,0.44775 -1.048712,-0.0207 -1.934968,-0.0399 -2.722425,-0.0494 -4.681657,-0.0569 -5.320741,0.0946 -5.320741,0.0946 0,0 0.645786,0.28444 5.320741,-0.0946 0.773449,-0.0627 1.678055,-0.15415 2.706704,-0.27477 3.747517,-0.43945 10.805388,-1.47287 18.313899,-3.17381 6.421869,-1.45478 13.683195,-3.51094 19.85959,-6.37402 2.920138,-1.35364 5.524578,-2.85367 7.678916,-4.50784 1.851767,-1.42184 3.299881,-2.90281 4.35195,-4.4387 0.154118,-0.22499 0.300801,-0.45298 0.43968,-0.6841 0.270614,-0.51754 0.518093,-0.97169 0.711384,-1.33586 0.209021,-0.3938 0.278675,-0.53383 0.405414,-0.77696 0.06749,-0.12946 0.185544,-0.34473 0.231378,-0.44668 0.06639,-0.14766 0.130535,-0.33981 0.153871,-0.65415 0.04826,-0.65012 -0.09326,-1.65689 -0.585983,-3.26463 -0.491209,-1.60281 -1.279794,-3.64156 -2.350845,-6.19463 l 4.201702,-1.19985 c 0.09951,2.49055 -0.344869,4.67783 -1.1321,6.57514 -0.830015,2.00043 -2.031218,3.65658 -3.348405,5.02081 -1.434098,1.48531 -3.054723,2.67529 -4.611384,3.6258 -1.232161,0.75237 -2.469495,1.38208 -3.617303,1.90648 -0.512575,0.23418 -1.027187,0.45482 -1.540736,0.66255 -3.645118,1.4745 -7.161264,2.27944 -9.572002,2.69007 -3.608367,0.61464 -4.377281,0.3731 -4.384131,0.32204 z"
       id="path77"
       sodipodi:nodetypes="ccac"
       inkscape:path-effect="#path-effect78"
       inkscape:original-d="m 50.115053,282.57398 c 0,0 27.408596,-3.67751 25.987068,-20.61668 5.14458,10.06292 5.376197,11.1899 2.541038,15.65008 -11.482768,18.06431 -61.760446,17.5843 -61.760446,17.5843"
       inkscape:linked-fill="path79" />
    <path
       style="opacity:1;fill:#000000;fill-opacity:1;fill-rule:nonzero;stroke:none;stroke-width:3.50339;stroke-linecap:round;stroke-linejoin:round;stroke-dasharray:none;stroke-opacity:1;paint-order:stroke markers fill"
       d="m 125.02059,84.515324 c -0.009,0.01052 -0.0184,0.02469 -0.0558,0.0635 -0.23995,0.248747 -1.8801,1.528915 -4.14948,5.198457 -1.15753,1.87171 -2.46929,4.393033 -3.61317,7.470343 -0.94204,2.534296 -1.77738,5.473844 -2.22415,8.558774 -0.4048,2.79517 -0.49978,5.78218 9.6e-4,8.64687 0.21865,1.28201 0.60894,2.48196 1.13223,3.61413 0.5148,1.11381 1.14866,2.14136 1.84848,3.1004 1.37576,1.88535 3.05135,3.55899 4.54905,5.04691 0.83832,0.83285 1.60086,1.58646 2.32818,2.36149 0.60397,0.64359 1.17802,1.29716 1.68968,1.96842 0.51812,0.67974 0.96978,1.37419 1.32991,2.09955 0.33923,0.68327 0.60516,1.40939 0.76809,2.20247 0.045,0.21229 0.056,0.44308 0.0138,0.72292 -0.0423,0.28076 -0.14088,0.62797 -0.33307,1.06485 -0.18667,0.42435 -0.44443,0.89505 -0.78463,1.43813 -0.33191,0.52982 -0.70839,1.0758 -1.1423,1.69404 -0.77587,1.10547 -1.82116,2.54874 -2.59958,4.02724 -0.39074,0.74214 -0.75243,1.55936 -1.01048,2.43915 -0.25432,0.8671 -0.41183,1.80801 -0.39171,2.8071 0.0378,2.04169 0.59294,4.04179 1.3587,5.90568 0.74577,1.81519 1.72241,3.57494 2.71432,5.20613 0.97099,1.59678 1.96833,3.09025 2.78824,4.38936 0.40682,0.6446 0.76044,1.22579 1.0531,1.75262 0.29418,0.52957 0.49674,0.95061 0.63248,1.2964 0.0346,0.0533 0.0709,0.15474 0.0894,0.31782 0.0184,0.16257 0.0174,0.37096 -0.011,0.62783 -0.0573,0.51849 -0.2166,1.15895 -0.46991,1.92013 -0.25029,0.75208 -0.57701,1.5778 -0.9515,2.47466 -0.37064,0.88763 -0.78266,1.83167 -1.19534,2.81031 -0.81663,1.93662 -1.64824,4.03774 -2.14274,6.1126 -0.24716,1.03703 -0.41327,2.07956 -0.45009,3.10368 -0.0368,1.02354 0.0555,2.03178 0.32685,2.99706 0.37868,1.41574 1.02454,2.67558 1.84808,3.81343 0.82174,1.13537 1.82419,2.1546 2.92486,3.09302 2.19136,1.86834 4.85528,3.48271 7.38768,5.06119 1.27972,0.79766 2.53665,1.59213 3.71417,2.4196 1.18015,0.82931 2.27746,1.68965 3.2311,2.61427 0.95669,0.92758 1.77074,1.92175 2.37763,3.01626 0.60995,1.10004 1.01295,2.30568 1.13768,3.65007 0.093,0.85361 -0.0125,1.7656 -0.26847,2.70558 -0.25735,0.94525 -0.66566,1.91515 -1.1726,2.88029 -1.02458,1.95066 -2.45558,3.88876 -3.8788,5.58955 -1.44904,1.73165 -2.91377,3.24543 -3.9845,4.31633 -1.10596,1.10613 -1.81289,1.76212 -1.7873,1.81298 l -0.90785,-1.4342 c -0.0362,-0.0451 1.52086,-0.83725 3.76341,-2.11658 2.35268,-1.34217 5.36011,-3.15942 8.32391,-5.28504 3.10539,-2.22716 5.99539,-4.67371 8.07639,-7.17822 1.07582,-1.29476 1.90204,-2.56527 2.44116,-3.79391 0.27448,-0.62555 0.47152,-1.23336 0.59131,-1.8228 0.12153,-0.598 0.16368,-1.1775 0.12672,-1.7404 -0.0381,-0.5808 -0.14838,-1.10239 -0.31435,-1.5764 -0.16906,-0.48284 -0.40023,-0.9286 -0.68586,-1.34552 -0.59009,-0.86133 -1.43034,-1.62149 -2.45725,-2.30937 -0.4257,-0.28516 -0.88156,-0.55684 -1.36193,-0.81762 -0.72669,-0.3945 -1.51014,-0.76431 -2.33236,-1.11872 -1.40129,-0.60402 -2.91639,-1.16366 -4.43672,-1.71866 -1.57087,-0.57344 -3.1338,-1.13717 -4.64981,-1.75761 -1.54893,-0.63391 -3.02468,-1.31762 -4.35497,-2.10595 -1.36314,-0.8078 -2.57352,-1.72568 -3.54353,-2.80696 -0.99768,-1.11212 -1.72475,-2.37962 -2.10523,-3.83676 -0.39551,-1.51117 -0.39043,-2.97888 -0.12036,-4.3782 0.27508,-1.42529 0.82712,-2.79834 1.52647,-4.1122 0.71359,-1.3406 1.59873,-2.65282 2.54288,-3.92542 0.95945,-1.29322 2.00916,-2.58405 3.02863,-3.83885 1.04472,-1.28589 2.07026,-2.54916 3.0105,-3.82015 0.94991,-1.28405 1.80878,-2.57096 2.49153,-3.87097 0.68939,-1.31264 1.20764,-2.65444 1.45113,-4.03239 0.24617,-1.39315 0.21221,-2.82896 -0.21449,-4.30202 -0.14926,-0.65524 -0.44575,-1.22888 -0.85606,-1.73145 -0.40726,-0.49885 -0.91259,-0.91067 -1.46109,-1.25997 -0.54653,-0.34804 -1.14498,-0.63976 -1.75062,-0.89795 -0.60191,-0.25661 -1.22634,-0.48644 -1.82544,-0.70564 -0.6022,-0.22034 -1.17159,-0.42739 -1.70429,-0.64934 -0.52703,-0.21959 -0.98383,-0.43997 -1.36447,-0.6767 -0.3763,-0.23401 -0.64032,-0.46085 -0.81977,-0.68138 -0.16791,-0.20636 -0.26619,-0.41222 -0.32378,-0.64116 -0.22103,-0.70873 -0.28558,-1.41103 -0.22196,-2.12826 0.0116,-0.13074 0.0276,-0.26303 0.048,-0.397 0.12979,-0.85193 0.43799,-1.76709 0.93213,-2.77419 0.47827,-0.97478 1.10663,-1.98794 1.85987,-3.07269 0.73705,-1.06144 1.54195,-2.11907 2.40693,-3.25882 0.82575,-1.08804 1.70165,-2.24506 2.49665,-3.40828 0.78433,-1.1476 1.52825,-2.35563 2.1142,-3.60323 0.57894,-1.23267 1.0229,-2.54387 1.18802,-3.91431 0.16521,-1.37125 0.0478,-2.77681 -0.46218,-4.1863 -0.4993,-1.37913 -1.27604,-2.5173 -2.24065,-3.45792 -0.95451,-0.93077 -2.07585,-1.65211 -3.26142,-2.23524 -1.18622,-0.58346 -2.46867,-1.04392 -3.7636,-1.43684 -1.29979,-0.39439 -2.65491,-0.73311 -3.96757,-1.05589 -1.34368,-0.33041 -2.63514,-0.64236 -3.88716,-0.99729 -1.26236,-0.35786 -2.43491,-0.74604 -3.49525,-1.20845 -1.07738,-0.46984 -2.01462,-1.00607 -2.79558,-1.64236 -0.7941,-0.647 -1.43161,-1.40142 -1.89063,-2.30624 -0.38489,-0.74303 -0.63094,-1.4075 -0.77878,-2.02271 -0.15296,-0.63654 -0.20525,-1.23946 -0.18435,-1.83662 0.0219,-0.62591 0.12495,-1.2537 0.28213,-1.901522 0.16554,-0.682245 0.39212,-1.390175 0.64118,-2.120744 0.61866,-1.814744 1.17249,-3.255206 1.72474,-5.340734 0.69068,-2.608328 1.04697,-5.104363 1.18838,-7.668198 z m -0.0523,0.120954 c -0.22077,2.523305 -0.69693,4.983978 -1.53294,7.474316 -0.65776,1.959352 -1.33691,3.394959 -2.10792,5.120428 -0.31604,0.707279 -0.63113,1.434184 -0.8858,2.151596 -0.24342,0.685752 -0.44626,1.401562 -0.55534,2.157202 -0.10509,0.72797 -0.12401,1.49695 -0.01,2.3274 0.11025,0.80207 0.3428,1.64901 0.73009,2.5655 0.53238,1.22631 1.30831,2.26496 2.27338,3.1523 0.93964,0.86396 2.04188,1.56952 3.24047,2.16947 1.17725,0.58928 2.45054,1.07825 3.76053,1.51705 1.29267,0.43301 2.62571,0.81863 3.93599,1.20221 1.30347,0.38159 2.57278,0.75786 3.77061,1.17796 1.19266,0.41828 2.28226,0.86909 3.23727,1.3917 0.95307,0.52155 1.73787,1.0962 2.34982,1.74835 0.60528,0.64504 1.05186,1.37637 1.32861,2.24104 0.27592,0.86246 0.31763,1.70984 0.18399,2.57027 -0.13694,0.8817 -0.46294,1.80438 -0.95229,2.78204 -0.49622,0.99139 -1.1437,2.0065 -1.88635,3.05386 -0.75427,1.06377 -1.59083,2.13882 -2.43786,3.2305 -0.86581,1.11589 -1.73566,2.24044 -2.53529,3.38259 -0.82128,1.17307 -1.57107,2.36841 -2.16379,3.59228 -0.6145,1.26883 -1.06622,2.58096 -1.24674,3.93529 -0.0285,0.21362 -0.0502,0.42795 -0.0647,0.64295 -0.081,1.20157 0.064,2.40942 0.48288,3.60673 0.29531,0.81825 0.7663,1.47597 1.32557,1.99564 0.55876,0.51919 1.19418,0.89088 1.81707,1.16878 0.63143,0.28172 1.29504,0.48676 1.93099,0.64896 0.64287,0.16396 1.30425,0.2955 1.92095,0.41388 0.63909,0.12268 1.22705,0.23075 1.80075,0.35728 0.56955,0.1256 1.08692,0.26155 1.54765,0.42674 0.4585,0.16439 0.85458,0.35559 1.18042,0.58863 0.3216,0.23002 0.59881,0.51741 0.79984,0.90314 0.48157,1.21377 0.65057,2.44993 0.55815,3.7264 -0.092,1.27107 -0.44273,2.5722 -0.99223,3.91029 -0.5434,1.32325 -1.27145,2.65964 -2.10946,4.01887 -0.82817,1.34328 -1.74762,2.68359 -2.68979,4.04975 -0.92019,1.3343 -1.86198,2.69313 -2.71262,4.04399 -0.83821,1.33111 -1.5973,2.66893 -2.18098,4.00324 -0.57298,1.30987 -0.97382,2.60896 -1.12165,3.89518 -0.14416,1.25432 -0.0482,2.49758 0.36559,3.74078 0.38913,1.16331 1.04731,2.15322 1.92763,3.02331 0.86441,0.85438 1.95026,1.60025 3.22442,2.27901 1.24508,0.66328 2.64402,1.24913 4.16048,1.81063 1.49319,0.55289 3.0184,1.05323 4.62552,1.59428 1.53209,0.51579 3.12112,1.06307 4.61089,1.67326 0.87773,0.35952 1.74071,0.74867 2.55967,1.17846 0.54211,0.28451 1.0718,0.59045 1.5783,0.92185 1.21624,0.79578 2.33672,1.76289 3.17208,2.97673 0.4074,0.59198 0.74615,1.24149 0.99408,1.95503 0.24362,0.70113 0.39618,1.45436 0.4445,2.26329 0.0484,0.80964 -0.0204,1.61808 -0.19077,2.41954 -0.16754,0.78793 -0.43267,1.56622 -0.77879,2.33154 -0.67594,1.49455 -1.66609,2.95133 -2.86461,4.35286 -2.30803,2.69896 -5.4267,5.23564 -8.65143,7.45257 -3.091,2.125 -6.22544,3.91821 -8.66208,5.1951 -2.33311,1.22263 -3.96824,1.93757 -4.00444,1.89244 a 8.5651573,4.7722245 86.791201 0 1 -0.90785,-1.4342 c 0.0249,0.0495 0.78692,-0.49935 1.9537,-1.49083 1.13245,-0.96232 2.65676,-2.35184 4.17982,-3.96346 1.49446,-1.58134 3.00129,-3.39102 4.12094,-5.21879 0.55367,-0.90385 1.01431,-1.81475 1.3318,-2.70725 0.31515,-0.88592 0.49144,-1.75956 0.47431,-2.5963 -0.0495,-1.33256 -0.37518,-2.55855 -0.92435,-3.70656 -0.54676,-1.14296 -1.31122,-2.20056 -2.23172,-3.20155 -0.91657,-0.99672 -1.9827,-1.93181 -3.13254,-2.83591 -1.14609,-0.90117 -2.37213,-1.76905 -3.61067,-2.6341 -2.48194,-1.73348 -4.96987,-3.42695 -6.97349,-5.34141 -0.99609,-0.95178 -1.8547,-1.94203 -2.52533,-2.99818 -0.66937,-1.05416 -1.14631,-2.1646 -1.39116,-3.36598 -0.14254,-0.77177 -0.14753,-1.58732 -0.0431,-2.43843 0.10482,-0.85392 0.31964,-1.74174 0.61491,-2.65219 0.59478,-1.83396 1.50273,-3.72115 2.44993,-5.56232 0.42287,-0.82199 0.98843,-1.88783 1.4113,-2.70981 0.45368,-0.87907 0.88664,-1.74577 1.248,-2.56795 0.3609,-0.82117 0.67381,-1.64988 0.86191,-2.44552 0.0955,-0.40398 0.16386,-0.81988 0.18563,-1.23876 0.0219,-0.42098 -0.002,-0.8616 -0.10361,-1.30476 -0.14013,-0.65682 -0.37678,-1.33518 -0.65382,-2.00324 -0.28149,-0.67878 -0.62243,-1.38878 -0.98665,-2.10635 -0.75182,-1.48122 -1.65196,-3.0988 -2.40379,-4.58002 -0.82457,-1.62126 -1.54743,-3.19757 -2.04811,-4.72116 -0.5179,-1.57602 -0.74738,-2.94786 -0.67859,-4.12666 0.0322,-0.36538 0.12858,-0.748 0.29054,-1.15937 0.16755,-0.42555 0.40372,-0.87795 0.70845,-1.3678 0.65046,-1.04561 1.49408,-2.08193 2.43097,-3.27943 0.4728,-0.6043 0.95834,-1.23734 1.41069,-1.89133 0.46674,-0.67479 0.91414,-1.39454 1.28772,-2.15907 0.38806,-0.79415 0.70673,-1.6574 0.87934,-2.58699 0.18177,-0.97895 0.19414,-1.99426 -0.013,-3.02639 -0.28037,-1.39346 -0.74626,-2.639 -1.3118,-3.75165 -0.5942,-1.16904 -1.30261,-2.19937 -2.02899,-3.10394 -0.71556,-0.89108 -1.47733,-1.69528 -2.20672,-2.40889 -0.86717,-0.84842 -1.77164,-1.64869 -2.64722,-2.41237 -1.65439,-1.44295 -3.13684,-2.702 -4.38969,-4.08996 -0.61491,-0.68122 -1.14999,-1.36858 -1.59408,-2.08521 -0.44855,-0.72385 -0.81005,-1.48681 -1.06478,-2.31496 -0.64439,-2.2244 -0.86945,-4.74169 -0.79347,-7.31563 0.0832,-2.81788 0.52311,-5.61773 1.10557,-8.116372 0.70321,-3.016635 1.60458,-5.5799 2.4282,-7.537004 1.60711,-3.818871 2.85847,-5.383038 3.07821,-5.637804 0.0337,-0.03903 0.0481,-0.05018 0.057,-0.05937 z"
       id="path81"
       inkscape:path-effect="#path-effect82"
       inkscape:original-d="m 125.16687,84.650425 c -5.01284,5.427703 -10.17682,19.426925 -7.95859,29.302065 1.91198,8.51177 12.71094,11.73027 14.44445,20.28017 1.03061,5.08312 -6.57133,9.41789 -6.6213,14.83191 -0.0603,6.53372 6.57364,14.06452 7.6589,18.04381 1.08526,3.97929 -7.36918,13.69681 -5.71469,20.64192 2.49252,10.46292 21.00653,13.14276 21.70523,23.87576 0.43894,6.74277 -11.57612,16.64068 -11.57612,16.64068 0,0 24.92595,-11.72204 24.23751,-22.7905 -0.68575,-11.02519 -23.65498,-8.93645 -26.76979,-19.53471 -3.2077,-10.91433 15.94419,-21.05803 12.29964,-31.83435 -1.40464,-4.15328 -9.81972,-2.71668 -11.21438,-6.87332 -3.04866,-9.0862 13.62176,-17.7116 10.49087,-26.76979 -3.10776,-8.99127 -20.58523,-5.84528 -24.59927,-14.47016 -3.04473,-6.54215 2.74701,-9.12108 3.61754,-21.343485 z"
       sodipodi:nodetypes="cssasaacssssssc"
       transform="matrix(0.3398276,0.56502474,-0.55455841,0.34624126,209.70509,-3.0933593)" />
    <path
       style="opacity:1;fill:#000000;fill-opacity:1;fill-rule:nonzero;stroke:none;stroke-width:2.6446;stroke-linecap:round;stroke-linejoin:round;stroke-dasharray:none;stroke-opacity:1;paint-order:stroke markers fill"
       d="m 125.02059,84.515324 c -0.009,0.01052 -0.0184,0.02469 -0.0558,0.0635 -0.23995,0.248747 -1.8801,1.528915 -4.14948,5.198457 -1.15753,1.87171 -2.46929,4.393033 -3.61317,7.470343 -0.94204,2.534296 -1.77738,5.473844 -2.22415,8.558774 -0.4048,2.79517 -0.49978,5.78218 9.6e-4,8.64687 0.21865,1.28201 0.60894,2.48196 1.13223,3.61413 0.5148,1.11381 1.14866,2.14136 1.84848,3.1004 1.37576,1.88535 3.05135,3.55899 4.54905,5.04691 0.83832,0.83285 1.60086,1.58646 2.32818,2.36149 0.60397,0.64359 1.17802,1.29716 1.68968,1.96842 0.51812,0.67974 0.96978,1.37419 1.32991,2.09955 0.33923,0.68327 0.60516,1.40939 0.76809,2.20247 0.045,0.21229 0.056,0.44308 0.0138,0.72292 -0.0423,0.28076 -0.14088,0.62797 -0.33307,1.06485 -0.18667,0.42435 -0.44443,0.89505 -0.78463,1.43813 -0.33191,0.52982 -0.70839,1.0758 -1.1423,1.69404 -0.77587,1.10547 -1.82116,2.54874 -2.59958,4.02724 -0.39074,0.74214 -0.75243,1.55936 -1.01048,2.43915 -0.25432,0.8671 -0.41183,1.80801 -0.39171,2.8071 0.0378,2.04169 0.59294,4.04179 1.3587,5.90568 0.74577,1.81519 1.72241,3.57494 2.71432,5.20613 0.97099,1.59678 1.96833,3.09025 2.78824,4.38936 0.40682,0.6446 0.76044,1.22579 1.0531,1.75262 0.29418,0.52957 0.49674,0.95061 0.63248,1.2964 0.0346,0.0533 0.0709,0.15474 0.0894,0.31782 0.0184,0.16257 0.0174,0.37096 -0.011,0.62783 -0.0573,0.51849 -0.2166,1.15895 -0.46991,1.92013 -0.25029,0.75208 -0.57701,1.5778 -0.9515,2.47466 -0.37064,0.88763 -0.78266,1.83167 -1.19534,2.81031 -0.81663,1.93662 -1.64824,4.03774 -2.14274,6.1126 -0.24716,1.03703 -0.41327,2.07956 -0.45009,3.10368 -0.0368,1.02354 0.0555,2.03178 0.32685,2.99706 0.37868,1.41574 1.02454,2.67558 1.84808,3.81343 0.82174,1.13537 1.82419,2.1546 2.92486,3.09302 2.19136,1.86834 4.85528,3.48271 7.38768,5.06119 1.27972,0.79766 2.53665,1.59213 3.71417,2.4196 1.18015,0.82931 2.27746,1.68965 3.2311,2.61427 0.95669,0.92758 1.77074,1.92175 2.37763,3.01626 0.60995,1.10004 1.01295,2.30568 1.13768,3.65007 0.093,0.85361 -0.0125,1.7656 -0.26847,2.70558 -0.25735,0.94525 -0.66566,1.91515 -1.1726,2.88029 -1.02458,1.95066 -2.45558,3.88876 -3.8788,5.58955 -1.44904,1.73165 -2.91377,3.24543 -3.9845,4.31633 -1.10596,1.10613 -1.81289,1.76212 -1.7873,1.81298 l -0.90785,-1.4342 c -0.0362,-0.0451 1.52086,-0.83725 3.76341,-2.11658 2.35268,-1.34217 5.36011,-3.15942 8.32391,-5.28504 3.10539,-2.22716 5.99539,-4.67371 8.07639,-7.17822 1.07582,-1.29476 1.90204,-2.56527 2.44116,-3.79391 0.27448,-0.62555 0.47152,-1.23336 0.59131,-1.8228 0.12153,-0.598 0.16368,-1.1775 0.12672,-1.7404 -0.0381,-0.5808 -0.14838,-1.10239 -0.31435,-1.5764 -0.16906,-0.48284 -0.40023,-0.9286 -0.68586,-1.34552 -0.59009,-0.86133 -1.43034,-1.62149 -2.45725,-2.30937 -0.4257,-0.28516 -0.88156,-0.55684 -1.36193,-0.81762 -0.72669,-0.3945 -1.51014,-0.76431 -2.33236,-1.11872 -1.40129,-0.60402 -2.91639,-1.16366 -4.43672,-1.71866 -1.57087,-0.57344 -3.1338,-1.13717 -4.64981,-1.75761 -1.54893,-0.63391 -3.02468,-1.31762 -4.35497,-2.10595 -1.36314,-0.8078 -2.57352,-1.72568 -3.54353,-2.80696 -0.99768,-1.11212 -1.72475,-2.37962 -2.10523,-3.83676 -0.39551,-1.51117 -0.39043,-2.97888 -0.12036,-4.3782 0.27508,-1.42529 0.82712,-2.79834 1.52647,-4.1122 0.71359,-1.3406 1.59873,-2.65282 2.54288,-3.92542 0.95945,-1.29322 2.00916,-2.58405 3.02863,-3.83885 1.04472,-1.28589 2.07026,-2.54916 3.0105,-3.82015 0.94991,-1.28405 1.80878,-2.57096 2.49153,-3.87097 0.68939,-1.31264 1.20764,-2.65444 1.45113,-4.03239 0.24617,-1.39315 0.21221,-2.82896 -0.21449,-4.30202 -0.14926,-0.65524 -0.44575,-1.22888 -0.85606,-1.73145 -0.40726,-0.49885 -0.91259,-0.91067 -1.46109,-1.25997 -0.54653,-0.34804 -1.14498,-0.63976 -1.75062,-0.89795 -0.60191,-0.25661 -1.22634,-0.48644 -1.82544,-0.70564 -0.6022,-0.22034 -1.17159,-0.42739 -1.70429,-0.64934 -0.52703,-0.21959 -0.98383,-0.43997 -1.36447,-0.6767 -0.3763,-0.23401 -0.64032,-0.46085 -0.81977,-0.68138 -0.16791,-0.20636 -0.26619,-0.41222 -0.32378,-0.64116 -0.22103,-0.70873 -0.28558,-1.41103 -0.22196,-2.12826 0.0116,-0.13074 0.0276,-0.26303 0.048,-0.397 0.12979,-0.85193 0.43799,-1.76709 0.93213,-2.77419 0.47827,-0.97478 1.10663,-1.98794 1.85987,-3.07269 0.73705,-1.06144 1.54195,-2.11907 2.40693,-3.25882 0.82575,-1.08804 1.70165,-2.24506 2.49665,-3.40828 0.78433,-1.1476 1.52825,-2.35563 2.1142,-3.60323 0.57894,-1.23267 1.0229,-2.54387 1.18802,-3.91431 0.16521,-1.37125 0.0478,-2.77681 -0.46218,-4.1863 -0.4993,-1.37913 -1.27604,-2.5173 -2.24065,-3.45792 -0.95451,-0.93077 -2.07585,-1.65211 -3.26142,-2.23524 -1.18622,-0.58346 -2.46867,-1.04392 -3.7636,-1.43684 -1.29979,-0.39439 -2.65491,-0.73311 -3.96757,-1.05589 -1.34368,-0.33041 -2.63514,-0.64236 -3.88716,-0.99729 -1.26236,-0.35786 -2.43491,-0.74604 -3.49525,-1.20845 -1.07738,-0.46984 -2.01462,-1.00607 -2.79558,-1.64236 -0.7941,-0.647 -1.43161,-1.40142 -1.89063,-2.30624 -0.38489,-0.74303 -0.63094,-1.4075 -0.77878,-2.02271 -0.15296,-0.63654 -0.20525,-1.23946 -0.18435,-1.83662 0.0219,-0.62591 0.12495,-1.2537 0.28213,-1.901522 0.16554,-0.682245 0.39212,-1.390175 0.64118,-2.120744 0.61866,-1.814744 1.17249,-3.255206 1.72474,-5.340734 0.69068,-2.608328 1.04697,-5.104363 1.18838,-7.668198 z m -0.0523,0.120954 c -0.22077,2.523305 -0.69693,4.983978 -1.53294,7.474316 -0.65776,1.959352 -1.33691,3.394959 -2.10792,5.120428 -0.31604,0.707279 -0.63113,1.434184 -0.8858,2.151596 -0.24342,0.685752 -0.44626,1.401562 -0.55534,2.157202 -0.10509,0.72797 -0.12401,1.49695 -0.01,2.3274 0.11025,0.80207 0.3428,1.64901 0.73009,2.5655 0.53238,1.22631 1.30831,2.26496 2.27338,3.1523 0.93964,0.86396 2.04188,1.56952 3.24047,2.16947 1.17725,0.58928 2.45054,1.07825 3.76053,1.51705 1.29267,0.43301 2.62571,0.81863 3.93599,1.20221 1.30347,0.38159 2.57278,0.75786 3.77061,1.17796 1.19266,0.41828 2.28226,0.86909 3.23727,1.3917 0.95307,0.52155 1.73787,1.0962 2.34982,1.74835 0.60528,0.64504 1.05186,1.37637 1.32861,2.24104 0.27592,0.86246 0.31763,1.70984 0.18399,2.57027 -0.13694,0.8817 -0.46294,1.80438 -0.95229,2.78204 -0.49622,0.99139 -1.1437,2.0065 -1.88635,3.05386 -0.75427,1.06377 -1.59083,2.13882 -2.43786,3.2305 -0.86581,1.11589 -1.73566,2.24044 -2.53529,3.38259 -0.82128,1.17307 -1.57107,2.36841 -2.16379,3.59228 -0.6145,1.26883 -1.06622,2.58096 -1.24674,3.93529 -0.0285,0.21362 -0.0502,0.42795 -0.0647,0.64295 -0.081,1.20157 0.064,2.40942 0.48288,3.60673 0.29531,0.81825 0.7663,1.47597 1.32557,1.99564 0.55876,0.51919 1.19418,0.89088 1.81707,1.16878 0.63143,0.28172 1.29504,0.48676 1.93099,0.64896 0.64287,0.16396 1.30425,0.2955 1.92095,0.41388 0.63909,0.12268 1.22705,0.23075 1.80075,0.35728 0.56955,0.1256 1.08692,0.26155 1.54765,0.42674 0.4585,0.16439 0.85458,0.35559 1.18042,0.58863 0.3216,0.23002 0.59881,0.51741 0.79984,0.90314 0.48157,1.21377 0.65057,2.44993 0.55815,3.7264 -0.092,1.27107 -0.44273,2.5722 -0.99223,3.91029 -0.5434,1.32325 -1.27145,2.65964 -2.10946,4.01887 -0.82817,1.34328 -1.74762,2.68359 -2.68979,4.04975 -0.92019,1.3343 -1.86198,2.69313 -2.71262,4.04399 -0.83821,1.33111 -1.5973,2.66893 -2.18098,4.00324 -0.57298,1.30987 -0.97382,2.60896 -1.12165,3.89518 -0.14416,1.25432 -0.0482,2.49758 0.36559,3.74078 0.38913,1.16331 1.04731,2.15322 1.92763,3.02331 0.86441,0.85438 1.95026,1.60025 3.22442,2.27901 1.24508,0.66328 2.64402,1.24913 4.16048,1.81063 1.49319,0.55289 3.0184,1.05323 4.62552,1.59428 1.53209,0.51579 3.12112,1.06307 4.61089,1.67326 0.87773,0.35952 1.74071,0.74867 2.55967,1.17846 0.54211,0.28451 1.0718,0.59045 1.5783,0.92185 1.21624,0.79578 2.33672,1.76289 3.17208,2.97673 0.4074,0.59198 0.74615,1.24149 0.99408,1.95503 0.24362,0.70113 0.39618,1.45436 0.4445,2.26329 0.0484,0.80964 -0.0204,1.61808 -0.19077,2.41954 -0.16754,0.78793 -0.43267,1.56622 -0.77879,2.33154 -0.67594,1.49455 -1.66609,2.95133 -2.86461,4.35286 -2.30803,2.69896 -5.4267,5.23564 -8.65143,7.45257 -3.091,2.125 -6.22544,3.91821 -8.66208,5.1951 -2.33311,1.22263 -3.96824,1.93757 -4.00444,1.89244 a 8.5651573,4.7722245 86.791201 0 1 -0.90785,-1.4342 c 0.0249,0.0495 0.78692,-0.49935 1.9537,-1.49083 1.13245,-0.96232 2.65676,-2.35184 4.17982,-3.96346 1.49446,-1.58134 3.00129,-3.39102 4.12094,-5.21879 0.55367,-0.90385 1.01431,-1.81475 1.3318,-2.70725 0.31515,-0.88592 0.49144,-1.75956 0.47431,-2.5963 -0.0495,-1.33256 -0.37518,-2.55855 -0.92435,-3.70656 -0.54676,-1.14296 -1.31122,-2.20056 -2.23172,-3.20155 -0.91657,-0.99672 -1.9827,-1.93181 -3.13254,-2.83591 -1.14609,-0.90117 -2.37213,-1.76905 -3.61067,-2.6341 -2.48194,-1.73348 -4.96987,-3.42695 -6.97349,-5.34141 -0.99609,-0.95178 -1.8547,-1.94203 -2.52533,-2.99818 -0.66937,-1.05416 -1.14631,-2.1646 -1.39116,-3.36598 -0.14254,-0.77177 -0.14753,-1.58732 -0.0431,-2.43843 0.10482,-0.85392 0.31964,-1.74174 0.61491,-2.65219 0.59478,-1.83396 1.50273,-3.72115 2.44993,-5.56232 0.42287,-0.82199 0.98843,-1.88783 1.4113,-2.70981 0.45368,-0.87907 0.88664,-1.74577 1.248,-2.56795 0.3609,-0.82117 0.67381,-1.64988 0.86191,-2.44552 0.0955,-0.40398 0.16386,-0.81988 0.18563,-1.23876 0.0219,-0.42098 -0.002,-0.8616 -0.10361,-1.30476 -0.14013,-0.65682 -0.37678,-1.33518 -0.65382,-2.00324 -0.28149,-0.67878 -0.62243,-1.38878 -0.98665,-2.10635 -0.75182,-1.48122 -1.65196,-3.0988 -2.40379,-4.58002 -0.82457,-1.62126 -1.54743,-3.19757 -2.04811,-4.72116 -0.5179,-1.57602 -0.74738,-2.94786 -0.67859,-4.12666 0.0322,-0.36538 0.12858,-0.748 0.29054,-1.15937 0.16755,-0.42555 0.40372,-0.87795 0.70845,-1.3678 0.65046,-1.04561 1.49408,-2.08193 2.43097,-3.27943 0.4728,-0.6043 0.95834,-1.23734 1.41069,-1.89133 0.46674,-0.67479 0.91414,-1.39454 1.28772,-2.15907 0.38806,-0.79415 0.70673,-1.6574 0.87934,-2.58699 0.18177,-0.97895 0.19414,-1.99426 -0.013,-3.02639 -0.28037,-1.39346 -0.74626,-2.639 -1.3118,-3.75165 -0.5942,-1.16904 -1.30261,-2.19937 -2.02899,-3.10394 -0.71556,-0.89108 -1.47733,-1.69528 -2.20672,-2.40889 -0.86717,-0.84842 -1.77164,-1.64869 -2.64722,-2.41237 -1.65439,-1.44295 -3.13684,-2.702 -4.38969,-4.08996 -0.61491,-0.68122 -1.14999,-1.36858 -1.59408,-2.08521 -0.44855,-0.72385 -0.81005,-1.48681 -1.06478,-2.31496 -0.64439,-2.2244 -0.86945,-4.74169 -0.79347,-7.31563 0.0832,-2.81788 0.52311,-5.61773 1.10557,-8.116372 0.70321,-3.016635 1.60458,-5.5799 2.4282,-7.537004 1.60711,-3.818871 2.85847,-5.383038 3.07821,-5.637804 0.0337,-0.03903 0.0481,-0.05018 0.057,-0.05937 z"
       id="path82"
       inkscape:path-effect="#path-effect84"
       inkscape:original-d="m 125.16687,84.650425 c -5.01284,5.427703 -10.17682,19.426925 -7.95859,29.302065 1.91198,8.51177 12.71094,11.73027 14.44445,20.28017 1.03061,5.08312 -6.57133,9.41789 -6.6213,14.83191 -0.0603,6.53372 6.57364,14.06452 7.6589,18.04381 1.08526,3.97929 -7.36918,13.69681 -5.71469,20.64192 2.49252,10.46292 21.00653,13.14276 21.70523,23.87576 0.43894,6.74277 -11.57612,16.64068 -11.57612,16.64068 0,0 24.92595,-11.72204 24.23751,-22.7905 -0.68575,-11.02519 -23.65498,-8.93645 -26.76979,-19.53471 -3.2077,-10.91433 15.94419,-21.05803 12.29964,-31.83435 -1.40464,-4.15328 -9.81972,-2.71668 -11.21438,-6.87332 -3.04866,-9.0862 13.62176,-17.7116 10.49087,-26.76979 -3.10776,-8.99127 -20.58523,-5.84528 -24.59927,-14.47016 -3.04473,-6.54215 2.74701,-9.12108 3.61754,-21.343485 z"
       sodipodi:nodetypes="cssasaacssssssc"
       transform="matrix(0.42884905,0.78573953,-0.69983087,0.48149298,210.12079,-82.779729)" />
    <path
       style="opacity:1;fill:#000000;fill-opacity:1;fill-rule:nonzero;stroke:none;stroke-width:4.48446;stroke-linecap:round;stroke-linejoin:round;stroke-dasharray:none;stroke-opacity:1;paint-order:stroke markers fill"
       d="m 125.02059,84.515324 c -0.009,0.01052 -0.0184,0.02469 -0.0558,0.0635 -0.23995,0.248747 -1.8801,1.528915 -4.14948,5.198457 -1.15753,1.87171 -2.46929,4.393033 -3.61317,7.470343 -0.94204,2.534296 -1.77738,5.473844 -2.22415,8.558774 -0.4048,2.79517 -0.49978,5.78218 9.6e-4,8.64687 0.21865,1.28201 0.60894,2.48196 1.13223,3.61413 0.5148,1.11381 1.14866,2.14136 1.84848,3.1004 1.37576,1.88535 3.05135,3.55899 4.54905,5.04691 0.83832,0.83285 1.60086,1.58646 2.32818,2.36149 0.60397,0.64359 1.17802,1.29716 1.68968,1.96842 0.51812,0.67974 0.96978,1.37419 1.32991,2.09955 0.33923,0.68327 0.60516,1.40939 0.76809,2.20247 0.045,0.21229 0.056,0.44308 0.0138,0.72292 -0.0423,0.28076 -0.14088,0.62797 -0.33307,1.06485 -0.18667,0.42435 -0.44443,0.89505 -0.78463,1.43813 -0.33191,0.52982 -0.70839,1.0758 -1.1423,1.69404 -0.77587,1.10547 -1.82116,2.54874 -2.59958,4.02724 -0.39074,0.74214 -0.75243,1.55936 -1.01048,2.43915 -0.25432,0.8671 -0.41183,1.80801 -0.39171,2.8071 0.0378,2.04169 0.59294,4.04179 1.3587,5.90568 0.74577,1.81519 1.72241,3.57494 2.71432,5.20613 0.97099,1.59678 1.96833,3.09025 2.78824,4.38936 0.40682,0.6446 0.76044,1.22579 1.0531,1.75262 0.29418,0.52957 0.49674,0.95061 0.63248,1.2964 0.0346,0.0533 0.0709,0.15474 0.0894,0.31782 0.0184,0.16257 0.0174,0.37096 -0.011,0.62783 -0.0573,0.51849 -0.2166,1.15895 -0.46991,1.92013 -0.25029,0.75208 -0.57701,1.5778 -0.9515,2.47466 -0.37064,0.88763 -0.78266,1.83167 -1.19534,2.81031 -0.81663,1.93662 -1.64824,4.03774 -2.14274,6.1126 -0.24716,1.03703 -0.41327,2.07956 -0.45009,3.10368 -0.0368,1.02354 0.0555,2.03178 0.32685,2.99706 0.37868,1.41574 1.02454,2.67558 1.84808,3.81343 0.82174,1.13537 1.82419,2.1546 2.92486,3.09302 2.19136,1.86834 4.85528,3.48271 7.38768,5.06119 1.27972,0.79766 2.53665,1.59213 3.71417,2.4196 1.18015,0.82931 2.27746,1.68965 3.2311,2.61427 0.95669,0.92758 1.77074,1.92175 2.37763,3.01626 0.60995,1.10004 1.01295,2.30568 1.13768,3.65007 0.093,0.85361 -0.0125,1.7656 -0.26847,2.70558 -0.25735,0.94525 -0.66566,1.91515 -1.1726,2.88029 -1.02458,1.95066 -2.45558,3.88876 -3.8788,5.58955 -1.44904,1.73165 -2.91377,3.24543 -3.9845,4.31633 -1.10596,1.10613 -1.81289,1.76212 -1.7873,1.81298 l -0.90785,-1.4342 c -0.0362,-0.0451 1.52086,-0.83725 3.76341,-2.11658 2.35268,-1.34217 5.36011,-3.15942 8.32391,-5.28504 3.10539,-2.22716 5.99539,-4.67371 8.07639,-7.17822 1.07582,-1.29476 1.90204,-2.56527 2.44116,-3.79391 0.27448,-0.62555 0.47152,-1.23336 0.59131,-1.8228 0.12153,-0.598 0.16368,-1.1775 0.12672,-1.7404 -0.0381,-0.5808 -0.14838,-1.10239 -0.31435,-1.5764 -0.16906,-0.48284 -0.40023,-0.9286 -0.68586,-1.34552 -0.59009,-0.86133 -1.43034,-1.62149 -2.45725,-2.30937 -0.4257,-0.28516 -0.88156,-0.55684 -1.36193,-0.81762 -0.72669,-0.3945 -1.51014,-0.76431 -2.33236,-1.11872 -1.40129,-0.60402 -2.91639,-1.16366 -4.43672,-1.71866 -1.57087,-0.57344 -3.1338,-1.13717 -4.64981,-1.75761 -1.54893,-0.63391 -3.02468,-1.31762 -4.35497,-2.10595 -1.36314,-0.8078 -2.57352,-1.72568 -3.54353,-2.80696 -0.99768,-1.11212 -1.72475,-2.37962 -2.10523,-3.83676 -0.39551,-1.51117 -0.39043,-2.97888 -0.12036,-4.3782 0.27508,-1.42529 0.82712,-2.79834 1.52647,-4.1122 0.71359,-1.3406 1.59873,-2.65282 2.54288,-3.92542 0.95945,-1.29322 2.00916,-2.58405 3.02863,-3.83885 1.04472,-1.28589 2.07026,-2.54916 3.0105,-3.82015 0.94991,-1.28405 1.80878,-2.57096 2.49153,-3.87097 0.68939,-1.31264 1.20764,-2.65444 1.45113,-4.03239 0.24617,-1.39315 0.21221,-2.82896 -0.21449,-4.30202 -0.14926,-0.65524 -0.44575,-1.22888 -0.85606,-1.73145 -0.40726,-0.49885 -0.91259,-0.91067 -1.46109,-1.25997 -0.54653,-0.34804 -1.14498,-0.63976 -1.75062,-0.89795 -0.60191,-0.25661 -1.22634,-0.48644 -1.82544,-0.70564 -0.6022,-0.22034 -1.17159,-0.42739 -1.70429,-0.64934 -0.52703,-0.21959 -0.98383,-0.43997 -1.36447,-0.6767 -0.3763,-0.23401 -0.64032,-0.46085 -0.81977,-0.68138 -0.16791,-0.20636 -0.26619,-0.41222 -0.32378,-0.64116 -0.22103,-0.70873 -0.28558,-1.41103 -0.22196,-2.12826 0.0116,-0.13074 0.0276,-0.26303 0.048,-0.397 0.12979,-0.85193 0.43799,-1.76709 0.93213,-2.77419 0.47827,-0.97478 1.10663,-1.98794 1.85987,-3.07269 0.73705,-1.06144 1.54195,-2.11907 2.40693,-3.25882 0.82575,-1.08804 1.70165,-2.24506 2.49665,-3.40828 0.78433,-1.1476 1.52825,-2.35563 2.1142,-3.60323 0.57894,-1.23267 1.0229,-2.54387 1.18802,-3.91431 0.16521,-1.37125 0.0478,-2.77681 -0.46218,-4.1863 -0.4993,-1.37913 -1.27604,-2.5173 -2.24065,-3.45792 -0.95451,-0.93077 -2.07585,-1.65211 -3.26142,-2.23524 -1.18622,-0.58346 -2.46867,-1.04392 -3.7636,-1.43684 -1.29979,-0.39439 -2.65491,-0.73311 -3.96757,-1.05589 -1.34368,-0.33041 -2.63514,-0.64236 -3.88716,-0.99729 -1.26236,-0.35786 -2.43491,-0.74604 -3.49525,-1.20845 -1.07738,-0.46984 -2.01462,-1.00607 -2.79558,-1.64236 -0.7941,-0.647 -1.43161,-1.40142 -1.89063,-2.30624 -0.38489,-0.74303 -0.63094,-1.4075 -0.77878,-2.02271 -0.15296,-0.63654 -0.20525,-1.23946 -0.18435,-1.83662 0.0219,-0.62591 0.12495,-1.2537 0.28213,-1.901522 0.16554,-0.682245 0.39212,-1.390175 0.64118,-2.120744 0.61866,-1.814744 1.17249,-3.255206 1.72474,-5.340734 0.69068,-2.608328 1.04697,-5.104363 1.18838,-7.668198 z m -0.0523,0.120954 c -0.22077,2.523305 -0.69693,4.983978 -1.53294,7.474316 -0.65776,1.959352 -1.33691,3.394959 -2.10792,5.120428 -0.31604,0.707279 -0.63113,1.434184 -0.8858,2.151596 -0.24342,0.685752 -0.44626,1.401562 -0.55534,2.157202 -0.10509,0.72797 -0.12401,1.49695 -0.01,2.3274 0.11025,0.80207 0.3428,1.64901 0.73009,2.5655 0.53238,1.22631 1.30831,2.26496 2.27338,3.1523 0.93964,0.86396 2.04188,1.56952 3.24047,2.16947 1.17725,0.58928 2.45054,1.07825 3.76053,1.51705 1.29267,0.43301 2.62571,0.81863 3.93599,1.20221 1.30347,0.38159 2.57278,0.75786 3.77061,1.17796 1.19266,0.41828 2.28226,0.86909 3.23727,1.3917 0.95307,0.52155 1.73787,1.0962 2.34982,1.74835 0.60528,0.64504 1.05186,1.37637 1.32861,2.24104 0.27592,0.86246 0.31763,1.70984 0.18399,2.57027 -0.13694,0.8817 -0.46294,1.80438 -0.95229,2.78204 -0.49622,0.99139 -1.1437,2.0065 -1.88635,3.05386 -0.75427,1.06377 -1.59083,2.13882 -2.43786,3.2305 -0.86581,1.11589 -1.73566,2.24044 -2.53529,3.38259 -0.82128,1.17307 -1.57107,2.36841 -2.16379,3.59228 -0.6145,1.26883 -1.06622,2.58096 -1.24674,3.93529 -0.0285,0.21362 -0.0502,0.42795 -0.0647,0.64295 -0.081,1.20157 0.064,2.40942 0.48288,3.60673 0.29531,0.81825 0.7663,1.47597 1.32557,1.99564 0.55876,0.51919 1.19418,0.89088 1.81707,1.16878 0.63143,0.28172 1.29504,0.48676 1.93099,0.64896 0.64287,0.16396 1.30425,0.2955 1.92095,0.41388 0.63909,0.12268 1.22705,0.23075 1.80075,0.35728 0.56955,0.1256 1.08692,0.26155 1.54765,0.42674 0.4585,0.16439 0.85458,0.35559 1.18042,0.58863 0.3216,0.23002 0.59881,0.51741 0.79984,0.90314 0.48157,1.21377 0.65057,2.44993 0.55815,3.7264 -0.092,1.27107 -0.44273,2.5722 -0.99223,3.91029 -0.5434,1.32325 -1.27145,2.65964 -2.10946,4.01887 -0.82817,1.34328 -1.74762,2.68359 -2.68979,4.04975 -0.92019,1.3343 -1.86198,2.69313 -2.71262,4.04399 -0.83821,1.33111 -1.5973,2.66893 -2.18098,4.00324 -0.57298,1.30987 -0.97382,2.60896 -1.12165,3.89518 -0.14416,1.25432 -0.0482,2.49758 0.36559,3.74078 0.38913,1.16331 1.04731,2.15322 1.92763,3.02331 0.86441,0.85438 1.95026,1.60025 3.22442,2.27901 1.24508,0.66328 2.64402,1.24913 4.16048,1.81063 1.49319,0.55289 3.0184,1.05323 4.62552,1.59428 1.53209,0.51579 3.12112,1.06307 4.61089,1.67326 0.87773,0.35952 1.74071,0.74867 2.55967,1.17846 0.54211,0.28451 1.0718,0.59045 1.5783,0.92185 1.21624,0.79578 2.33672,1.76289 3.17208,2.97673 0.4074,0.59198 0.74615,1.24149 0.99408,1.95503 0.24362,0.70113 0.39618,1.45436 0.4445,2.26329 0.0484,0.80964 -0.0204,1.61808 -0.19077,2.41954 -0.16754,0.78793 -0.43267,1.56622 -0.77879,2.33154 -0.67594,1.49455 -1.66609,2.95133 -2.86461,4.35286 -2.30803,2.69896 -5.4267,5.23564 -8.65143,7.45257 -3.091,2.125 -6.22544,3.91821 -8.66208,5.1951 -2.33311,1.22263 -3.96824,1.93757 -4.00444,1.89244 a 8.5651573,4.7722245 86.791201 0 1 -0.90785,-1.4342 c 0.0249,0.0495 0.78692,-0.49935 1.9537,-1.49083 1.13245,-0.96232 2.65676,-2.35184 4.17982,-3.96346 1.49446,-1.58134 3.00129,-3.39102 4.12094,-5.21879 0.55367,-0.90385 1.01431,-1.81475 1.3318,-2.70725 0.31515,-0.88592 0.49144,-1.75956 0.47431,-2.5963 -0.0495,-1.33256 -0.37518,-2.55855 -0.92435,-3.70656 -0.54676,-1.14296 -1.31122,-2.20056 -2.23172,-3.20155 -0.91657,-0.99672 -1.9827,-1.93181 -3.13254,-2.83591 -1.14609,-0.90117 -2.37213,-1.76905 -3.61067,-2.6341 -2.48194,-1.73348 -4.96987,-3.42695 -6.97349,-5.34141 -0.99609,-0.95178 -1.8547,-1.94203 -2.52533,-2.99818 -0.66937,-1.05416 -1.14631,-2.1646 -1.39116,-3.36598 -0.14254,-0.77177 -0.14753,-1.58732 -0.0431,-2.43843 0.10482,-0.85392 0.31964,-1.74174 0.61491,-2.65219 0.59478,-1.83396 1.50273,-3.72115 2.44993,-5.56232 0.42287,-0.82199 0.98843,-1.88783 1.4113,-2.70981 0.45368,-0.87907 0.88664,-1.74577 1.248,-2.56795 0.3609,-0.82117 0.67381,-1.64988 0.86191,-2.44552 0.0955,-0.40398 0.16386,-0.81988 0.18563,-1.23876 0.0219,-0.42098 -0.002,-0.8616 -0.10361,-1.30476 -0.14013,-0.65682 -0.37678,-1.33518 -0.65382,-2.00324 -0.28149,-0.67878 -0.62243,-1.38878 -0.98665,-2.10635 -0.75182,-1.48122 -1.65196,-3.0988 -2.40379,-4.58002 -0.82457,-1.62126 -1.54743,-3.19757 -2.04811,-4.72116 -0.5179,-1.57602 -0.74738,-2.94786 -0.67859,-4.12666 0.0322,-0.36538 0.12858,-0.748 0.29054,-1.15937 0.16755,-0.42555 0.40372,-0.87795 0.70845,-1.3678 0.65046,-1.04561 1.49408,-2.08193 2.43097,-3.27943 0.4728,-0.6043 0.95834,-1.23734 1.41069,-1.89133 0.46674,-0.67479 0.91414,-1.39454 1.28772,-2.15907 0.38806,-0.79415 0.70673,-1.6574 0.87934,-2.58699 0.18177,-0.97895 0.19414,-1.99426 -0.013,-3.02639 -0.28037,-1.39346 -0.74626,-2.639 -1.3118,-3.75165 -0.5942,-1.16904 -1.30261,-2.19937 -2.02899,-3.10394 -0.71556,-0.89108 -1.47733,-1.69528 -2.20672,-2.40889 -0.86717,-0.84842 -1.77164,-1.64869 -2.64722,-2.41237 -1.65439,-1.44295 -3.13684,-2.702 -4.38969,-4.08996 -0.61491,-0.68122 -1.14999,-1.36858 -1.59408,-2.08521 -0.44855,-0.72385 -0.81005,-1.48681 -1.06478,-2.31496 -0.64439,-2.2244 -0.86945,-4.74169 -0.79347,-7.31563 0.0832,-2.81788 0.52311,-5.61773 1.10557,-8.116372 0.70321,-3.016635 1.60458,-5.5799 2.4282,-7.537004 1.60711,-3.818871 2.85847,-5.383038 3.07821,-5.637804 0.0337,-0.03903 0.0481,-0.05018 0.057,-0.05937 z"
       id="path84"
       inkscape:path-effect="#path-effect86"
       inkscape:original-d="m 125.16687,84.650425 c -5.01284,5.427703 -10.17682,19.426925 -7.95859,29.302065 1.91198,8.51177 12.71094,11.73027 14.44445,20.28017 1.03061,5.08312 -6.57133,9.41789 -6.6213,14.83191 -0.0603,6.53372 6.57364,14.06452 7.6589,18.04381 1.08526,3.97929 -7.36918,13.69681 -5.71469,20.64192 2.49252,10.46292 21.00653,13.14276 21.70523,23.87576 0.43894,6.74277 -11.57612,16.64068 -11.57612,16.64068 0,0 24.92595,-11.72204 24.23751,-22.7905 -0.68575,-11.02519 -23.65498,-8.93645 -26.76979,-19.53471 -3.2077,-10.91433 15.94419,-21.05803 12.29964,-31.83435 -1.40464,-4.15328 -9.81972,-2.71668 -11.21438,-6.87332 -3.04866,-9.0862 13.62176,-17.7116 10.49087,-26.76979 -3.10776,-8.99127 -20.58523,-5.84528 -24.59927,-14.47016 -3.04473,-6.54215 2.74701,-9.12108 3.61754,-21.343485 z"
       sodipodi:nodetypes="cssasaacssssssc"
       transform="matrix(0.24429549,0.43056764,-0.50653214,0.18400867,212.10456,76.61835)" />
  </g>
</svg>
