<?xml version="1.0" encoding="UTF-8" standalone="no"?>
<!-- Created with Inkscape (http://www.inkscape.org/) -->

<svg
   width="500"
   height="500"
   viewBox="0 0 132.29166 132.29167"
   version="1.1"
   id="svg1"
   inkscape:export-filename="selectarrow.svg"
   inkscape:export-xdpi="1200"
   inkscape:export-ydpi="1200"
   sodipodi:docname="selectarrow.svg"
   inkscape:version="1.3.2 (091e20e, 2023-11-25, custom)"
   xmlns:inkscape="http://www.inkscape.org/namespaces/inkscape"
   xmlns:sodipodi="http://sodipodi.sourceforge.net/DTD/sodipodi-0.dtd"
   xmlns="http://www.w3.org/2000/svg"
   xmlns:svg="http://www.w3.org/2000/svg">
  <sodipodi:namedview
     id="namedview1"
     pagecolor="#ffffff"
     bordercolor="#000000"
     borderopacity="0.25"
     inkscape:showpageshadow="2"
     inkscape:pageopacity="0.0"
     inkscape:pagecheckerboard="0"
     inkscape:deskcolor="#d1d1d1"
     inkscape:document-units="mm"
     showgrid="true"
     inkscape:zoom="1.1610693"
     inkscape:cx="212.3043"
     inkscape:cy="176.99202"
     inkscape:window-width="1920"
     inkscape:window-height="1017"
     inkscape:window-x="-8"
     inkscape:window-y="-8"
     inkscape:window-maximized="1"
     inkscape:current-layer="layer1">
    <inkscape:grid
       type="axonomgrid"
       id="grid1"
       units="px"
       originx="0"
       originy="0"
       spacingx="0"
       spacingy="2"
       empcolor="#0099e5"
       empopacity="0.30196078"
       color="#0099e5"
       opacity="0.14901961"
       empspacing="5"
       dotted="false"
       gridanglex="30"
       gridanglez="30"
       visible="true" />
  </sodipodi:namedview>
  <defs
     id="defs1">
    <inkscape:path-effect
       effect="fillet_chamfer"
       id="path-effect5"
       is_visible="true"
       lpeversion="1"
       nodesatellites_param="F,0,0,1,0,5.8208333,0,1 @ F,0,0,1,0,5.8208333,0,1 @ F,0,0,1,0,5.8208333,0,1 @ F,0,0,1,0,5.8208333,0,1 @ F,0,0,1,0,5.8208333,0,1 @ F,0,0,1,0,5.8208333,0,1 @ F,0,0,1,0,5.8208333,0,1"
       radius="22"
       unit="px"
       method="auto"
       mode="F"
       chamfer_steps="1"
       flexible="false"
       use_knot_distance="true"
       apply_no_radius="true"
       apply_with_radius="true"
       only_selected="false"
       hide_knots="false" />
  </defs>
  <g
     inkscape:label="Layer 1"
     inkscape:groupmode="layer"
     id="layer1">
    <path
       id="path6"
       style="fill:#000000;fill-opacity:1;stroke:none;stroke-width:7;stroke-linecap:round;stroke-dasharray:none;stroke-opacity:1"
       d="M 65.767045 3.1357259 A 63.814613 63.814613 0 0 0 2.0396688 67.008313 A 63.814613 63.814613 0 0 0 65.883317 130.76514 A 63.814613 63.814613 0 0 0 129.66857 66.950435 L 129.66857 66.833647 A 63.814613 63.814613 0 0 0 65.767045 3.1357259 z M 64.273596 27.413314 A 3.3765013 5.5887883 0 0 1 65.559306 27.807088 L 113.76257 59.469238 A 2.2138482 3.6643638 0 0 1 113.92896 66.158752 L 65.392908 105.95684 A 3.0859144 5.1078085 0 0 1 60.937366 101.37986 L 60.937366 86.733207 A 4.9725649 8.2305943 0 0 0 55.965059 78.502702 L 21.52065 78.502702 A 4.9725649 8.2305943 0 0 1 16.548344 70.272196 L 16.548344 58.45328 A 4.9725649 8.2305943 0 0 1 21.52065 50.222774 L 55.965059 50.222774 A 4.9725649 8.2305943 0 0 0 60.937366 41.992269 L 60.937366 33.001603 A 3.3765013 5.5887883 0 0 1 64.273596 27.413314 z " />
  </g>
</svg>
