<svg xmlns="http://www.w3.org/2000/svg" xmlns:xlink="http://www.w3.org/1999/xlink" width="500" zoomAndPan="magnify" viewBox="0 0 375 374.999991" height="500" preserveAspectRatio="xMidYMid meet" version="1.0"><defs><clipPath id="4c6270e4ec"><path d="M 1 1.578125 L 293 1.578125 L 293 343.421875 L 1 343.421875 Z M 1 1.578125 " clip-rule="nonzero"/></clipPath><clipPath id="c7d21f0d62"><path d="M 7 8.839844 L 287 8.839844 L 287 336.160156 L 7 336.160156 Z M 7 8.839844 " clip-rule="nonzero"/></clipPath><clipPath id="12ab8c7862"><rect x="0" width="294" y="0" height="344"/></clipPath><clipPath id="2489127f86"><path d="M 196.601562 8.5625 L 346.886719 8.5625 L 346.886719 115.320312 L 196.601562 115.320312 Z M 196.601562 8.5625 " clip-rule="nonzero"/></clipPath><clipPath id="c795e6566b"><path d="M 0.601562 0.5625 L 150.886719 0.5625 L 150.886719 107.320312 L 0.601562 107.320312 Z M 0.601562 0.5625 " clip-rule="nonzero"/></clipPath><clipPath id="1a44803b1e"><rect x="0" width="151" y="0" height="108"/></clipPath><clipPath id="fd3321a524"><path d="M 103.203125 37.5 L 339 37.5 L 339 254 L 103.203125 254 Z M 103.203125 37.5 " clip-rule="nonzero"/></clipPath></defs><g transform="matrix(1, 0, 0, 1, 49, 15)"><g clip-path="url(#12ab8c7862)"><path fill="#ffffff" d="M 283.203125 40.632812 C 261.226562 18.652344 147.082031 7.3125 147.082031 7.3125 C 147.082031 7.3125 32.933594 18.652344 10.957031 40.632812 C 10.957031 40.632812 -1.90625 158.902344 19.464844 219.292969 C 52.078125 311.457031 147.082031 337.691406 147.082031 337.691406 C 147.082031 337.691406 242.082031 311.457031 274.699219 219.292969 C 296.070312 158.902344 283.203125 40.632812 283.203125 40.632812 " fill-opacity="1" fill-rule="nonzero"/><g clip-path="url(#4c6270e4ec)"><path fill="#154854" d="M 283.203125 40.632812 L 287.230469 36.605469 C 285.460938 34.839844 283.398438 33.285156 281.089844 31.820312 C 276.761719 29.09375 271.535156 26.703125 265.621094 24.484375 C 255.277344 20.621094 242.824219 17.308594 229.871094 14.464844 C 210.453125 10.203125 189.941406 7.007812 174.246094 4.867188 C 158.558594 2.730469 147.691406 1.648438 147.640625 1.644531 C 147.308594 1.609375 146.851562 1.609375 146.515625 1.644531 C 146.429688 1.652344 117.796875 4.496094 86.257812 10.121094 C 70.484375 12.941406 53.992188 16.445312 39.855469 20.703125 C 32.785156 22.832031 26.300781 25.148438 20.726562 27.722656 C 17.9375 29.007812 15.375 30.359375 13.066406 31.820312 C 10.757812 33.285156 8.699219 34.839844 6.929688 36.605469 C 6.019531 37.519531 5.433594 38.730469 5.296875 40.019531 C 5.285156 40.140625 1.425781 75.582031 1.425781 117.789062 C 1.425781 135.324219 2.089844 154.027344 3.992188 171.910156 C 5.902344 189.796875 9.023438 206.839844 14.09375 221.191406 C 22.511719 244.976562 34.972656 264.539062 48.875 280.425781 C 69.746094 304.265625 93.820312 319.886719 112.699219 329.597656 C 131.574219 339.304688 145.285156 343.101562 145.566406 343.183594 C 146.554688 343.453125 147.605469 343.453125 148.59375 343.183594 C 148.96875 343.070312 173.214844 336.363281 201.757812 317.832031 C 216.027344 308.558594 231.375 296.320312 245.285156 280.425781 C 259.1875 264.539062 271.648438 244.976562 280.0625 221.191406 C 285.136719 206.839844 288.257812 189.796875 290.164062 171.914062 C 292.070312 154.039062 292.734375 135.332031 292.734375 117.796875 C 292.734375 75.585938 288.875 40.140625 288.863281 40.019531 C 288.71875 38.730469 288.140625 37.519531 287.230469 36.605469 L 283.203125 40.632812 L 277.542969 41.246094 L 277.550781 41.339844 C 277.765625 43.324219 281.351562 77.566406 281.34375 117.796875 C 281.351562 135.039062 280.6875 153.382812 278.839844 170.710938 C 277.003906 188.03125 273.957031 204.339844 269.332031 217.390625 C 261.433594 239.691406 249.792969 257.972656 236.710938 272.929688 C 217.101562 295.347656 194.21875 310.234375 176.257812 319.46875 C 167.277344 324.085938 159.53125 327.289062 154.070312 329.332031 C 151.339844 330.347656 149.175781 331.078125 147.71875 331.546875 C 146.984375 331.78125 146.429688 331.949219 146.066406 332.058594 C 145.886719 332.113281 145.753906 332.152344 145.664062 332.175781 L 145.574219 332.199219 L 145.5625 332.203125 L 146.539062 335.730469 L 145.566406 332.203125 L 145.5625 332.203125 L 146.539062 335.730469 L 145.566406 332.203125 L 147.082031 337.691406 L 148.59375 332.203125 C 148.234375 332.109375 124.925781 325.523438 97.964844 307.867188 C 84.484375 299.039062 70.09375 287.460938 57.140625 272.578125 C 44.1875 257.6875 32.664062 239.519531 24.832031 217.390625 C 20.207031 204.339844 17.15625 188.027344 15.320312 170.703125 C 13.472656 153.378906 12.808594 135.035156 12.816406 117.789062 C 12.816406 97.027344 13.765625 77.859375 14.71875 63.894531 C 15.195312 56.917969 15.671875 51.242188 16.027344 47.3125 C 16.203125 45.351562 16.355469 43.828125 16.457031 42.796875 C 16.511719 42.28125 16.550781 41.890625 16.578125 41.632812 C 16.589844 41.5 16.601562 41.402344 16.609375 41.339844 L 16.617188 41.246094 L 10.957031 40.632812 L 14.980469 44.65625 C 15.964844 43.675781 17.371094 42.570312 19.148438 41.449219 C 22.480469 39.335938 27.09375 37.179688 32.53125 35.152344 C 42.058594 31.578125 54.105469 28.355469 66.730469 25.589844 C 85.675781 21.425781 105.949219 18.261719 121.453125 16.148438 C 129.199219 15.09375 135.761719 14.296875 140.378906 13.769531 C 142.6875 13.503906 144.511719 13.300781 145.753906 13.171875 C 146.375 13.105469 146.847656 13.054688 147.167969 13.023438 C 147.488281 12.992188 147.640625 12.972656 147.640625 12.972656 L 147.082031 7.3125 L 146.515625 12.972656 C 146.515625 12.972656 146.621094 12.988281 146.828125 13.003906 C 150.097656 13.335938 178.625 16.332031 208.8125 21.859375 C 223.902344 24.621094 239.414062 28.027344 252.273438 31.984375 C 258.695312 33.964844 264.460938 36.082031 269.109375 38.269531 C 271.433594 39.359375 273.476562 40.46875 275.175781 41.550781 C 276.878906 42.636719 278.226562 43.707031 279.175781 44.65625 L 283.203125 40.632812 L 277.542969 41.246094 L 283.203125 40.632812 " fill-opacity="1" fill-rule="nonzero"/></g><path fill="#ffffff" d="M 277.414062 46.234375 C 256.371094 25.191406 147.082031 14.332031 147.082031 14.332031 C 147.082031 14.332031 37.789062 25.191406 16.746094 46.234375 C 16.746094 46.234375 4.433594 159.476562 24.894531 217.296875 C 56.121094 305.539062 147.082031 330.660156 147.082031 330.660156 C 147.082031 330.660156 238.039062 305.539062 269.269531 217.296875 C 289.730469 159.476562 277.414062 46.234375 277.414062 46.234375 " fill-opacity="1" fill-rule="nonzero"/><g clip-path="url(#c7d21f0d62)"><path fill="#154854" d="M 277.414062 46.234375 L 281.269531 42.378906 C 279.574219 40.691406 277.601562 39.199219 275.390625 37.796875 C 271.246094 35.1875 266.242188 32.898438 260.578125 30.773438 C 250.675781 27.074219 238.75 23.90625 226.351562 21.179688 C 207.757812 17.097656 188.117188 14.042969 173.089844 11.992188 C 158.070312 9.945312 147.664062 8.910156 147.617188 8.90625 C 147.300781 8.871094 146.859375 8.871094 146.542969 8.90625 C 146.457031 8.914062 119.042969 11.636719 88.84375 17.023438 C 73.742188 19.722656 57.953125 23.078125 44.417969 27.15625 C 37.648438 29.191406 31.441406 31.410156 26.101562 33.875 C 23.433594 35.105469 20.980469 36.402344 18.769531 37.796875 C 16.558594 39.199219 14.585938 40.691406 12.890625 42.378906 C 12.019531 43.253906 11.460938 44.417969 11.328125 45.648438 C 11.316406 45.765625 7.625 79.699219 7.625 120.109375 C 7.625 136.898438 8.257812 154.808594 10.082031 171.929688 C 11.90625 189.054688 14.898438 205.375 19.753906 219.113281 C 27.8125 241.886719 39.738281 260.617188 53.054688 275.828125 C 73.035156 298.652344 96.085938 313.609375 114.160156 322.910156 C 132.234375 332.203125 145.363281 335.839844 145.628906 335.914062 C 146.574219 336.175781 147.585938 336.175781 148.53125 335.914062 C 148.886719 335.808594 172.105469 329.386719 199.433594 311.644531 C 213.097656 302.761719 227.789062 291.046875 241.105469 275.828125 C 254.421875 260.617188 266.351562 241.886719 274.40625 219.113281 C 279.261719 205.375 282.253906 189.054688 284.078125 171.933594 C 285.902344 154.816406 286.535156 136.90625 286.535156 120.117188 C 286.535156 79.703125 282.84375 45.765625 282.832031 45.648438 C 282.695312 44.417969 282.140625 43.253906 281.269531 42.378906 L 277.414062 46.234375 L 271.992188 46.824219 L 272 46.914062 C 272.207031 48.8125 275.636719 81.597656 275.632812 120.117188 C 275.636719 136.625 275.003906 154.191406 273.234375 170.777344 C 271.476562 187.363281 268.558594 202.980469 264.128906 215.476562 C 256.570312 236.828125 245.425781 254.332031 232.898438 268.648438 C 214.121094 290.113281 192.214844 304.367188 175.015625 313.210938 C 166.417969 317.632812 159.003906 320.699219 153.773438 322.652344 C 151.15625 323.628906 149.089844 324.328125 147.691406 324.773438 C 146.988281 325 146.457031 325.160156 146.113281 325.261719 C 145.9375 325.320312 145.808594 325.351562 145.722656 325.378906 L 145.636719 325.398438 L 145.625 325.402344 L 146.5625 328.78125 L 145.628906 325.402344 L 145.625 325.402344 L 146.5625 328.78125 L 145.628906 325.402344 L 147.082031 330.660156 L 148.53125 325.402344 C 148.183594 325.316406 125.867188 319.007812 100.054688 302.101562 C 87.144531 293.648438 73.367188 282.5625 60.964844 268.3125 C 48.566406 254.058594 37.53125 236.660156 30.035156 215.476562 C 25.605469 202.980469 22.683594 187.359375 20.925781 170.773438 C 19.15625 154.1875 18.523438 136.621094 18.527344 120.109375 C 18.527344 100.230469 19.4375 81.878906 20.347656 68.507812 C 20.804688 61.828125 21.261719 56.390625 21.601562 52.632812 C 21.773438 50.753906 21.917969 49.296875 22.015625 48.308594 C 22.066406 47.816406 22.105469 47.441406 22.128906 47.191406 C 22.140625 47.066406 22.152344 46.972656 22.160156 46.914062 L 22.167969 46.824219 L 16.746094 46.234375 L 20.601562 50.089844 C 21.542969 49.148438 22.886719 48.09375 24.589844 47.019531 C 27.78125 44.996094 32.199219 42.929688 37.40625 40.988281 C 46.523438 37.566406 58.0625 34.480469 70.148438 31.832031 C 88.289062 27.84375 107.699219 24.816406 122.542969 22.792969 C 129.960938 21.785156 136.242188 21.023438 140.664062 20.515625 C 142.875 20.257812 144.621094 20.066406 145.808594 19.945312 C 146.40625 19.878906 146.855469 19.828125 147.164062 19.800781 C 147.46875 19.769531 147.617188 19.753906 147.617188 19.753906 L 147.082031 14.332031 L 146.542969 19.753906 C 146.542969 19.753906 146.640625 19.765625 146.839844 19.78125 C 149.96875 20.101562 177.28125 22.96875 206.1875 28.261719 C 220.632812 30.90625 235.484375 34.164062 247.796875 37.957031 C 253.949219 39.851562 259.46875 41.878906 263.917969 43.972656 C 266.144531 45.015625 268.101562 46.078125 269.726562 47.117188 C 271.359375 48.15625 272.648438 49.179688 273.554688 50.089844 L 277.414062 46.234375 L 271.992188 46.824219 L 277.414062 46.234375 " fill-opacity="1" fill-rule="nonzero"/></g></g></g><g clip-path="url(#2489127f86)"><g transform="matrix(1, 0, 0, 1, 196, 8)"><g clip-path="url(#1a44803b1e)"><g clip-path="url(#c795e6566b)"><path fill="#ffffff" d="M 0.601562 0.5625 L 150.726562 0.5625 L 150.726562 107.320312 L 0.601562 107.320312 Z M 0.601562 0.5625 " fill-opacity="1" fill-rule="nonzero"/></g></g></g></g><g clip-path="url(#fd3321a524)"><path fill="#3c7a89" d="M 334.789062 37.613281 L 327.804688 39.226562 C 323.515625 40.507812 318.960938 42.371094 314.140625 44.8125 L 306.714844 48.914062 C 301.628906 51.9375 296.28125 55.542969 290.664062 59.726562 C 279.433594 68.097656 267.140625 78.792969 253.789062 91.808594 C 221.109375 124.554688 192.128906 160.527344 166.847656 199.726562 C 162.359375 190.277344 155.65625 179.160156 146.734375 166.382812 C 141.984375 159.945312 137.09375 155.089844 132.0625 151.820312 C 126.449219 151.144531 117.222656 155.304688 104.386719 164.300781 C 103.566406 165.539062 103.367188 166.496094 103.785156 167.175781 C 115.308594 178.953125 123.363281 188.738281 127.949219 196.53125 C 136.503906 209.949219 145.480469 228.765625 154.875 252.988281 C 155.398438 253.800781 156.058594 254.074219 156.851562 253.8125 L 187.484375 234.523438 C 188.941406 233.519531 190.335938 232.179688 191.667969 230.503906 C 207.070312 187.214844 225.4375 152.011719 246.777344 124.886719 C 253.207031 115.746094 269.058594 99.613281 294.328125 76.492188 C 304.5625 67.371094 319.140625 56.304688 338.058594 43.289062 C 339.15625 40.804688 338.066406 38.914062 334.789062 37.613281 " fill-opacity="0.996" fill-rule="nonzero"/></g></svg>