<svg xmlns="http://www.w3.org/2000/svg" fill="none" viewBox="-0.835 -0.835 40 40" id="Shield-Check-1--Streamline-Ultimate" height="40" width="40">
  <desc>
    Shield Check 1 Streamline Icon: https://streamlinehq.com
  </desc>
  <path fill="#e5dada" d="M3.1255399958333334 6.601512016666667V18.26743916666667c0.04487804166666667 3.8547203333333337 1.2733385708333336 7.602595791666667 3.518997445833334 10.735913583333334 2.2456748458333333 3.133317791666667 5.400058166666668 5.500993833333333 9.035978083333333 6.7821740833333335l1.7123608083333333 0.6322852916666667c1.1439907916666667 0.42019262500000004 2.399937125 0.42019262500000004 3.5439279166666666 0l1.7123927500000002 -0.6322852916666667c3.635919916666667 -1.28118025 6.790319208333333 -3.6488562916666667 9.035978083333333 -6.7821740833333335 2.245658875 -3.133317791666667 3.4741353750000004 -6.881193250000001 3.5190134166666667 -10.735913583333334V6.601512016666667c-0.001437375 -0.4583469458333334 -0.137508875 -0.9061531416666667 -0.3911257083333334 -1.2879359125 -0.25361683333333335 -0.3817827708333334 -0.613759125 -0.6807408 -1.0355488333333334 -0.8598057833333332 -4.62738925 -1.9313688458333336 -9.59879025 -2.9026750020833334 -14.612673666666666 -2.85501005 -5.013915358333334 -0.04766495208333334 -9.985268445833333 0.9236412041666667 -14.612561870833334 2.85501005 -0.4219015041666667 0.17906498333333334 -0.7819639416666667 0.47802301250000007 -1.0355967458333333 0.8598057833333332 -0.25360086249999997 0.3817827708333334 -0.3896084791666667 0.8295889666666667 -0.39114167916666664 1.2879359125Z" stroke-width="1.67"></path>
  <path fill="#ffffff" d="M19.164840291666668 1.5987602708333335c-5.013915358333334 -0.04766495208333334 -9.985268445833333 0.9236412041666667 -14.612561870833334 2.85501005 -0.4219015041666667 0.17906498333333334 -0.7819639416666667 0.47802301250000007 -1.0355967458333333 0.8598057833333332 -0.25360086249999997 0.3817827708333334 -0.3896084791666667 0.8295889666666667 -0.39114167916666664 1.2879359125V18.26743916666667c0.04487804166666667 3.8547203333333337 1.2733385708333336 7.602595791666667 3.518997445833334 10.735913583333334 2.2456748458333333 3.133317791666667 5.400058166666668 5.500993833333333 9.035978083333333 6.7821740833333335l1.7123608083333333 0.6322852916666667c0.5676034166666667 0.20809995833333333 1.1674679166666666 0.3146254166666667 1.7719639583333333 0.314785125V1.5987602708333335Z" stroke-width="1.67"></path>
  <path stroke="#16262e" stroke-linecap="round" stroke-linejoin="round" d="M3.1255399958333334 6.601512016666667V18.26743916666667c0.04487804166666667 3.8547203333333337 1.2733385708333336 7.602595791666667 3.518997445833334 10.735913583333334 2.2456748458333333 3.133317791666667 5.400058166666668 5.500993833333333 9.035978083333333 6.7821740833333335l1.7123608083333333 0.6322852916666667c1.1439907916666667 0.42019262500000004 2.399937125 0.42019262500000004 3.5439279166666666 0l1.7123927500000002 -0.6322852916666667c3.635919916666667 -1.28118025 6.790319208333333 -3.6488562916666667 9.035978083333333 -6.7821740833333335 2.245658875 -3.133317791666667 3.4741353750000004 -6.881193250000001 3.5190134166666667 -10.735913583333334V6.601512016666667c-0.001437375 -0.4583469458333334 -0.137508875 -0.9061531416666667 -0.3911257083333334 -1.2879359125 -0.25361683333333335 -0.3817827708333334 -0.613759125 -0.6807408 -1.0355488333333334 -0.8598057833333332 -4.62738925 -1.9313688458333336 -9.59879025 -2.9026750020833334 -14.612673666666666 -2.85501005 -5.013915358333334 -0.04766495208333334 -9.985268445833333 0.9236412041666667 -14.612561870833334 2.85501005 -0.4219015041666667 0.17906498333333334 -0.7819639416666667 0.47802301250000007 -1.0355967458333333 0.8598057833333332 -0.25360086249999997 0.3817827708333334 -0.3896084791666667 0.8295889666666667 -0.39114167916666664 1.2879359125Z" stroke-width="1.67"></path>
  <path fill="#3c7a89" d="M19.164361166666666 24.512035c4.2182165000000005 0 7.637731625000001 -3.4195151249999998 7.637731625000001 -7.637731625000001 0 -4.218200529166666 -3.4195151249999998 -7.637747595833334 -7.637731625000001 -7.637747595833334 -4.218200529166666 0 -7.637747595833334 3.4195470666666665 -7.637747595833334 7.637747595833334 0 4.2182165000000005 3.4195470666666665 7.637731625000001 7.637747595833334 7.637731625000001Z" stroke-width="1.67"></path>
  <path fill="#90e39a" d="M19.164361166666666 24.512035c-2.0257405 0 -3.968336841666667 -0.8046105833333335 -5.400697 -2.237034625 -1.4323761291666666 -1.4322643333333334 -2.2370505958333333 -3.3749565 -2.2370505958333333 -5.400697 0 -2.025644675 0.8046744666666666 -3.968336841666667 2.2370505958333333 -5.400697 1.4323601583333334 -1.4323761291666666 3.3749565 -2.2370505958333333 5.400697 -2.2370505958333333V24.512035Z" stroke-width="1.67"></path>
  <path stroke="#16262e" stroke-linecap="round" stroke-linejoin="round" d="M26.80209279166667 16.874303375c0 1.510681125 -0.4478221666666667 2.987344375 -1.2870894583333332 4.243450416666667 -0.8394269999999999 1.2559463333333334 -2.0322885416666665 2.2349584166666667 -3.4278199583333335 2.812942875 -1.3955314166666668 0.5779844583333333 -2.9311270416666666 0.7293879583333334 -4.41274125 0.43456637500000006 -1.4817739166666666 -0.294661875 -2.8426166833333335 -1.021973625 -3.9107779583333335 -2.090262666666667 -1.068161275 -1.0681293333333333 -1.795600791666667 -2.4290040416666665 -2.0902946083333336 -3.91061825 -0.2947097875 -1.4816142083333335 -0.143450025 -3.0172896875000004 0.4346142875 -4.412916929166667 0.5780962541666668 -1.3956112708333335 1.5570604250000002 -2.5884728125 2.8130706416666666 -3.4277241333333337 1.2559623041666668 -0.8392513208333334 2.7327852625 -1.2871852833333335 4.2433066791666665 -1.2871852833333335" stroke-width="1.67"></path>
  <path stroke="#16262e" stroke-linecap="round" stroke-linejoin="round" d="m16.109619875 16.110578125 2.4746806250000004 1.8559705416666665c0.15651416666666668 0.117385625 0.3523165833333333 0.17008937500000001 0.5468413333333333 0.14741079166666665 0.19452475000000002 -0.022838291666666666 0.37275925 -0.11914241666666667 0.4979705833333334 -0.26958766666666667l7.173459500000001 -8.6078160125" stroke-width="1.67"></path>
</svg>