<svg xmlns="http://www.w3.org/2000/svg" xmlns:xlink="http://www.w3.org/1999/xlink" width="1024" zoomAndPan="magnify" viewBox="0 0 768 576" height="768" preserveAspectRatio="xMidYMid meet" version="1.0"><defs><clipPath id="76c010032a"><path d="M 205.910156 96 L 589.910156 96 L 589.910156 479.867188 L 205.910156 479.867188 Z M 205.910156 96 " clip-rule="nonzero"/></clipPath><clipPath id="b82fecd1a9"><path d="M 263 495 L 289 495 L 289 530 L 263 530 Z M 263 495 " clip-rule="nonzero"/></clipPath><clipPath id="bd2d42fef8"><path d="M 229.671875 518.496094 L 258.597656 469.382812 L 307.714844 498.308594 L 278.789062 547.421875 Z M 229.671875 518.496094 " clip-rule="nonzero"/></clipPath><clipPath id="2bf93ad437"><path d="M 229.671875 518.496094 L 258.597656 469.382812 L 307.714844 498.308594 L 278.789062 547.421875 Z M 229.671875 518.496094 " clip-rule="nonzero"/></clipPath><clipPath id="47bb333474"><path d="M 229.671875 518.496094 L 258.597656 469.382812 L 307.714844 498.308594 L 278.789062 547.421875 Z M 229.671875 518.496094 " clip-rule="nonzero"/></clipPath><clipPath id="696da21949"><path d="M 266 506 L 280 506 L 280 516 L 266 516 Z M 266 506 " clip-rule="nonzero"/></clipPath><clipPath id="fde5c3bb4c"><path d="M 229.671875 518.496094 L 258.597656 469.382812 L 307.714844 498.308594 L 278.789062 547.421875 Z M 229.671875 518.496094 " clip-rule="nonzero"/></clipPath><clipPath id="5e306453d0"><path d="M 229.671875 518.496094 L 258.597656 469.382812 L 307.714844 498.308594 L 278.789062 547.421875 Z M 229.671875 518.496094 " clip-rule="nonzero"/></clipPath><clipPath id="a05ff914e9"><path d="M 229.671875 518.496094 L 258.597656 469.382812 L 307.714844 498.308594 L 278.789062 547.421875 Z M 229.671875 518.496094 " clip-rule="nonzero"/></clipPath><clipPath id="03afd7f405"><path d="M 250 492 L 273 492 L 273 517 L 250 517 Z M 250 492 " clip-rule="nonzero"/></clipPath><clipPath id="def66e3e0a"><path d="M 229.671875 518.496094 L 258.597656 469.382812 L 307.714844 498.308594 L 278.789062 547.421875 Z M 229.671875 518.496094 " clip-rule="nonzero"/></clipPath><clipPath id="1c1ad04cfa"><path d="M 229.671875 518.496094 L 258.597656 469.382812 L 307.714844 498.308594 L 278.789062 547.421875 Z M 229.671875 518.496094 " clip-rule="nonzero"/></clipPath><clipPath id="27f4fb51fa"><path d="M 229.671875 518.496094 L 258.597656 469.382812 L 307.714844 498.308594 L 278.789062 547.421875 Z M 229.671875 518.496094 " clip-rule="nonzero"/></clipPath><clipPath id="75c50a0f96"><path d="M 250 500 L 268 500 L 268 517 L 250 517 Z M 250 500 " clip-rule="nonzero"/></clipPath><clipPath id="5668034543"><path d="M 229.671875 518.496094 L 258.597656 469.382812 L 307.714844 498.308594 L 278.789062 547.421875 Z M 229.671875 518.496094 " clip-rule="nonzero"/></clipPath><clipPath id="938c263675"><path d="M 229.671875 518.496094 L 258.597656 469.382812 L 307.714844 498.308594 L 278.789062 547.421875 Z M 229.671875 518.496094 " clip-rule="nonzero"/></clipPath><clipPath id="abeccf2e9c"><path d="M 229.671875 518.496094 L 258.597656 469.382812 L 307.714844 498.308594 L 278.789062 547.421875 Z M 229.671875 518.496094 " clip-rule="nonzero"/></clipPath><clipPath id="70a0c5bc6b"><path d="M 249 491 L 274 491 L 274 518 L 249 518 Z M 249 491 " clip-rule="nonzero"/></clipPath><clipPath id="28e11a08b2"><path d="M 229.671875 518.496094 L 258.597656 469.382812 L 307.714844 498.308594 L 278.789062 547.421875 Z M 229.671875 518.496094 " clip-rule="nonzero"/></clipPath><clipPath id="a7be5a068e"><path d="M 229.671875 518.496094 L 258.597656 469.382812 L 307.714844 498.308594 L 278.789062 547.421875 Z M 229.671875 518.496094 " clip-rule="nonzero"/></clipPath><clipPath id="35fb9b1136"><path d="M 229.671875 518.496094 L 258.597656 469.382812 L 307.714844 498.308594 L 278.789062 547.421875 Z M 229.671875 518.496094 " clip-rule="nonzero"/></clipPath><clipPath id="92d3600155"><path d="M 259 502 L 264 502 L 264 507 L 259 507 Z M 259 502 " clip-rule="nonzero"/></clipPath><clipPath id="68a8e4ab03"><path d="M 229.671875 518.496094 L 258.597656 469.382812 L 307.714844 498.308594 L 278.789062 547.421875 Z M 229.671875 518.496094 " clip-rule="nonzero"/></clipPath><clipPath id="6fcd730ca0"><path d="M 229.671875 518.496094 L 258.597656 469.382812 L 307.714844 498.308594 L 278.789062 547.421875 Z M 229.671875 518.496094 " clip-rule="nonzero"/></clipPath><clipPath id="a7a97289cd"><path d="M 229.671875 518.496094 L 258.597656 469.382812 L 307.714844 498.308594 L 278.789062 547.421875 Z M 229.671875 518.496094 " clip-rule="nonzero"/></clipPath><clipPath id="845dcb4c33"><path d="M 258 500 L 265 500 L 265 508 L 258 508 Z M 258 500 " clip-rule="nonzero"/></clipPath><clipPath id="10c3f31f90"><path d="M 229.671875 518.496094 L 258.597656 469.382812 L 307.714844 498.308594 L 278.789062 547.421875 Z M 229.671875 518.496094 " clip-rule="nonzero"/></clipPath><clipPath id="d0e43df93c"><path d="M 229.671875 518.496094 L 258.597656 469.382812 L 307.714844 498.308594 L 278.789062 547.421875 Z M 229.671875 518.496094 " clip-rule="nonzero"/></clipPath><clipPath id="ed8ea3d085"><path d="M 229.671875 518.496094 L 258.597656 469.382812 L 307.714844 498.308594 L 278.789062 547.421875 Z M 229.671875 518.496094 " clip-rule="nonzero"/></clipPath><clipPath id="9250243bd8"><path d="M 245 491 L 260 491 L 260 508 L 245 508 Z M 245 491 " clip-rule="nonzero"/></clipPath><clipPath id="a1b8db86db"><path d="M 229.671875 518.496094 L 258.597656 469.382812 L 307.714844 498.308594 L 278.789062 547.421875 Z M 229.671875 518.496094 " clip-rule="nonzero"/></clipPath><clipPath id="48291ad144"><path d="M 229.671875 518.496094 L 258.597656 469.382812 L 307.714844 498.308594 L 278.789062 547.421875 Z M 229.671875 518.496094 " clip-rule="nonzero"/></clipPath><clipPath id="1978308a0f"><path d="M 229.671875 518.496094 L 258.597656 469.382812 L 307.714844 498.308594 L 278.789062 547.421875 Z M 229.671875 518.496094 " clip-rule="nonzero"/></clipPath><clipPath id="3b385a4a83"><path d="M 269 525 L 282 525 L 282 539 L 269 539 Z M 269 525 " clip-rule="nonzero"/></clipPath><clipPath id="185423e9c3"><path d="M 229.671875 518.496094 L 258.597656 469.382812 L 307.714844 498.308594 L 278.789062 547.421875 Z M 229.671875 518.496094 " clip-rule="nonzero"/></clipPath><clipPath id="1405600714"><path d="M 229.671875 518.496094 L 258.597656 469.382812 L 307.714844 498.308594 L 278.789062 547.421875 Z M 229.671875 518.496094 " clip-rule="nonzero"/></clipPath><clipPath id="246aed5f65"><path d="M 229.671875 518.496094 L 258.597656 469.382812 L 307.714844 498.308594 L 278.789062 547.421875 Z M 229.671875 518.496094 " clip-rule="nonzero"/></clipPath><clipPath id="adcb1195cd"><path d="M 268 524 L 283 524 L 283 540 L 268 540 Z M 268 524 " clip-rule="nonzero"/></clipPath><clipPath id="fdfd7e2587"><path d="M 229.671875 518.496094 L 258.597656 469.382812 L 307.714844 498.308594 L 278.789062 547.421875 Z M 229.671875 518.496094 " clip-rule="nonzero"/></clipPath><clipPath id="d12d291404"><path d="M 229.671875 518.496094 L 258.597656 469.382812 L 307.714844 498.308594 L 278.789062 547.421875 Z M 229.671875 518.496094 " clip-rule="nonzero"/></clipPath><clipPath id="c95593f16e"><path d="M 229.671875 518.496094 L 258.597656 469.382812 L 307.714844 498.308594 L 278.789062 547.421875 Z M 229.671875 518.496094 " clip-rule="nonzero"/></clipPath><clipPath id="a46a65dc87"><path d="M 277 511 L 291 511 L 291 524 L 277 524 Z M 277 511 " clip-rule="nonzero"/></clipPath><clipPath id="d20748819c"><path d="M 229.671875 518.496094 L 258.597656 469.382812 L 307.714844 498.308594 L 278.789062 547.421875 Z M 229.671875 518.496094 " clip-rule="nonzero"/></clipPath><clipPath id="593188e283"><path d="M 229.671875 518.496094 L 258.597656 469.382812 L 307.714844 498.308594 L 278.789062 547.421875 Z M 229.671875 518.496094 " clip-rule="nonzero"/></clipPath><clipPath id="11b34bd59b"><path d="M 229.671875 518.496094 L 258.597656 469.382812 L 307.714844 498.308594 L 278.789062 547.421875 Z M 229.671875 518.496094 " clip-rule="nonzero"/></clipPath><clipPath id="0ae3586076"><path d="M 276 509 L 292 509 L 292 525 L 276 525 Z M 276 509 " clip-rule="nonzero"/></clipPath><clipPath id="6c0ba223af"><path d="M 229.671875 518.496094 L 258.597656 469.382812 L 307.714844 498.308594 L 278.789062 547.421875 Z M 229.671875 518.496094 " clip-rule="nonzero"/></clipPath><clipPath id="86a615b0fa"><path d="M 229.671875 518.496094 L 258.597656 469.382812 L 307.714844 498.308594 L 278.789062 547.421875 Z M 229.671875 518.496094 " clip-rule="nonzero"/></clipPath><clipPath id="638b2c7115"><path d="M 229.671875 518.496094 L 258.597656 469.382812 L 307.714844 498.308594 L 278.789062 547.421875 Z M 229.671875 518.496094 " clip-rule="nonzero"/></clipPath><clipPath id="b4af66df8d"><path d="M 286 496 L 299 496 L 299 510 L 286 510 Z M 286 496 " clip-rule="nonzero"/></clipPath><clipPath id="03d1ba993f"><path d="M 229.671875 518.496094 L 258.597656 469.382812 L 307.714844 498.308594 L 278.789062 547.421875 Z M 229.671875 518.496094 " clip-rule="nonzero"/></clipPath><clipPath id="3173c739e3"><path d="M 229.671875 518.496094 L 258.597656 469.382812 L 307.714844 498.308594 L 278.789062 547.421875 Z M 229.671875 518.496094 " clip-rule="nonzero"/></clipPath><clipPath id="b949bd5899"><path d="M 229.671875 518.496094 L 258.597656 469.382812 L 307.714844 498.308594 L 278.789062 547.421875 Z M 229.671875 518.496094 " clip-rule="nonzero"/></clipPath><clipPath id="a78fbf9e47"><path d="M 284 495 L 300 495 L 300 511 L 284 511 Z M 284 495 " clip-rule="nonzero"/></clipPath><clipPath id="8375b936f8"><path d="M 229.671875 518.496094 L 258.597656 469.382812 L 307.714844 498.308594 L 278.789062 547.421875 Z M 229.671875 518.496094 " clip-rule="nonzero"/></clipPath><clipPath id="6d18fa2471"><path d="M 229.671875 518.496094 L 258.597656 469.382812 L 307.714844 498.308594 L 278.789062 547.421875 Z M 229.671875 518.496094 " clip-rule="nonzero"/></clipPath><clipPath id="6b9af68662"><path d="M 229.671875 518.496094 L 258.597656 469.382812 L 307.714844 498.308594 L 278.789062 547.421875 Z M 229.671875 518.496094 " clip-rule="nonzero"/></clipPath><clipPath id="accefd5f5e"><path d="M 507 475 L 572 475 L 572 541 L 507 541 Z M 507 475 " clip-rule="nonzero"/></clipPath><clipPath id="bc019def70"><path d="M 535.234375 548.570312 L 498.597656 504.902344 L 542.265625 468.269531 L 578.902344 511.9375 Z M 535.234375 548.570312 " clip-rule="nonzero"/></clipPath><clipPath id="ce9f7537dd"><path d="M 535.234375 548.570312 L 498.597656 504.902344 L 542.265625 468.269531 L 578.902344 511.9375 Z M 535.234375 548.570312 " clip-rule="nonzero"/></clipPath><clipPath id="0511e02764"><path d="M 535.234375 548.570312 L 498.597656 504.902344 L 542.265625 468.269531 L 578.902344 511.9375 Z M 535.234375 548.570312 " clip-rule="nonzero"/></clipPath><clipPath id="01034c3faa"><path d="M 507 504 L 572 504 L 572 541 L 507 541 Z M 507 504 " clip-rule="nonzero"/></clipPath><clipPath id="19fc11c9ca"><path d="M 535.234375 548.570312 L 498.597656 504.902344 L 542.265625 468.269531 L 578.902344 511.9375 Z M 535.234375 548.570312 " clip-rule="nonzero"/></clipPath><clipPath id="92cc82be38"><path d="M 535.234375 548.570312 L 498.597656 504.902344 L 542.265625 468.269531 L 578.902344 511.9375 Z M 535.234375 548.570312 " clip-rule="nonzero"/></clipPath><clipPath id="993622a458"><path d="M 535.234375 548.570312 L 498.597656 504.902344 L 542.265625 468.269531 L 578.902344 511.9375 Z M 535.234375 548.570312 " clip-rule="nonzero"/></clipPath><clipPath id="7818237b02"><path d="M 506 474 L 573 474 L 573 542 L 506 542 Z M 506 474 " clip-rule="nonzero"/></clipPath><clipPath id="73069d6bc0"><path d="M 535.234375 548.570312 L 498.597656 504.902344 L 542.265625 468.269531 L 578.902344 511.9375 Z M 535.234375 548.570312 " clip-rule="nonzero"/></clipPath><clipPath id="08bc11d7bc"><path d="M 535.234375 548.570312 L 498.597656 504.902344 L 542.265625 468.269531 L 578.902344 511.9375 Z M 535.234375 548.570312 " clip-rule="nonzero"/></clipPath><clipPath id="77287f3aad"><path d="M 535.234375 548.570312 L 498.597656 504.902344 L 542.265625 468.269531 L 578.902344 511.9375 Z M 535.234375 548.570312 " clip-rule="nonzero"/></clipPath><clipPath id="7509927463"><path d="M 521 510 L 547 510 L 547 535 L 521 535 Z M 521 510 " clip-rule="nonzero"/></clipPath><clipPath id="c4471cf1f5"><path d="M 535.234375 548.570312 L 498.597656 504.902344 L 542.265625 468.269531 L 578.902344 511.9375 Z M 535.234375 548.570312 " clip-rule="nonzero"/></clipPath><clipPath id="ae102de413"><path d="M 535.234375 548.570312 L 498.597656 504.902344 L 542.265625 468.269531 L 578.902344 511.9375 Z M 535.234375 548.570312 " clip-rule="nonzero"/></clipPath><clipPath id="c3003dccfd"><path d="M 535.234375 548.570312 L 498.597656 504.902344 L 542.265625 468.269531 L 578.902344 511.9375 Z M 535.234375 548.570312 " clip-rule="nonzero"/></clipPath><clipPath id="00ec25c023"><path d="M 521 520 L 536 520 L 536 535 L 521 535 Z M 521 520 " clip-rule="nonzero"/></clipPath><clipPath id="b32f575d5d"><path d="M 535.234375 548.570312 L 498.597656 504.902344 L 542.265625 468.269531 L 578.902344 511.9375 Z M 535.234375 548.570312 " clip-rule="nonzero"/></clipPath><clipPath id="c3c89ef4df"><path d="M 535.234375 548.570312 L 498.597656 504.902344 L 542.265625 468.269531 L 578.902344 511.9375 Z M 535.234375 548.570312 " clip-rule="nonzero"/></clipPath><clipPath id="898140771a"><path d="M 535.234375 548.570312 L 498.597656 504.902344 L 542.265625 468.269531 L 578.902344 511.9375 Z M 535.234375 548.570312 " clip-rule="nonzero"/></clipPath><clipPath id="fc1e1b6e75"><path d="M 520 509 L 549 509 L 549 537 L 520 537 Z M 520 509 " clip-rule="nonzero"/></clipPath><clipPath id="218260e66a"><path d="M 535.234375 548.570312 L 498.597656 504.902344 L 542.265625 468.269531 L 578.902344 511.9375 Z M 535.234375 548.570312 " clip-rule="nonzero"/></clipPath><clipPath id="34f61ff9fc"><path d="M 535.234375 548.570312 L 498.597656 504.902344 L 542.265625 468.269531 L 578.902344 511.9375 Z M 535.234375 548.570312 " clip-rule="nonzero"/></clipPath><clipPath id="8c6893506a"><path d="M 535.234375 548.570312 L 498.597656 504.902344 L 542.265625 468.269531 L 578.902344 511.9375 Z M 535.234375 548.570312 " clip-rule="nonzero"/></clipPath><clipPath id="54a20725df"><path d="M 517 501 L 528 501 L 528 513 L 517 513 Z M 517 501 " clip-rule="nonzero"/></clipPath><clipPath id="75c36c3048"><path d="M 535.234375 548.570312 L 498.597656 504.902344 L 542.265625 468.269531 L 578.902344 511.9375 Z M 535.234375 548.570312 " clip-rule="nonzero"/></clipPath><clipPath id="675bc65a41"><path d="M 535.234375 548.570312 L 498.597656 504.902344 L 542.265625 468.269531 L 578.902344 511.9375 Z M 535.234375 548.570312 " clip-rule="nonzero"/></clipPath><clipPath id="e857154a6b"><path d="M 535.234375 548.570312 L 498.597656 504.902344 L 542.265625 468.269531 L 578.902344 511.9375 Z M 535.234375 548.570312 " clip-rule="nonzero"/></clipPath><clipPath id="6d21bceaf4"><path d="M 523 495 L 535 495 L 535 508 L 523 508 Z M 523 495 " clip-rule="nonzero"/></clipPath><clipPath id="2f977212b4"><path d="M 535.234375 548.570312 L 498.597656 504.902344 L 542.265625 468.269531 L 578.902344 511.9375 Z M 535.234375 548.570312 " clip-rule="nonzero"/></clipPath><clipPath id="c003a27f45"><path d="M 535.234375 548.570312 L 498.597656 504.902344 L 542.265625 468.269531 L 578.902344 511.9375 Z M 535.234375 548.570312 " clip-rule="nonzero"/></clipPath><clipPath id="1352ee08cb"><path d="M 535.234375 548.570312 L 498.597656 504.902344 L 542.265625 468.269531 L 578.902344 511.9375 Z M 535.234375 548.570312 " clip-rule="nonzero"/></clipPath><clipPath id="3ff7d47272"><path d="M 530 490 L 556 490 L 556 520 L 530 520 Z M 530 490 " clip-rule="nonzero"/></clipPath><clipPath id="d732863177"><path d="M 535.234375 548.570312 L 498.597656 504.902344 L 542.265625 468.269531 L 578.902344 511.9375 Z M 535.234375 548.570312 " clip-rule="nonzero"/></clipPath><clipPath id="1652428398"><path d="M 535.234375 548.570312 L 498.597656 504.902344 L 542.265625 468.269531 L 578.902344 511.9375 Z M 535.234375 548.570312 " clip-rule="nonzero"/></clipPath><clipPath id="e10464f5ba"><path d="M 535.234375 548.570312 L 498.597656 504.902344 L 542.265625 468.269531 L 578.902344 511.9375 Z M 535.234375 548.570312 " clip-rule="nonzero"/></clipPath><clipPath id="6b47c52b38"><path d="M 537 485 L 562 485 L 562 515 L 537 515 Z M 537 485 " clip-rule="nonzero"/></clipPath><clipPath id="e1fbbad241"><path d="M 535.234375 548.570312 L 498.597656 504.902344 L 542.265625 468.269531 L 578.902344 511.9375 Z M 535.234375 548.570312 " clip-rule="nonzero"/></clipPath><clipPath id="f02ea5f9d4"><path d="M 535.234375 548.570312 L 498.597656 504.902344 L 542.265625 468.269531 L 578.902344 511.9375 Z M 535.234375 548.570312 " clip-rule="nonzero"/></clipPath><clipPath id="aa5f89d2a2"><path d="M 535.234375 548.570312 L 498.597656 504.902344 L 542.265625 468.269531 L 578.902344 511.9375 Z M 535.234375 548.570312 " clip-rule="nonzero"/></clipPath><clipPath id="5ab24912ab"><path d="M 515 44 L 568 44 L 568 97 L 515 97 Z M 515 44 " clip-rule="nonzero"/></clipPath><clipPath id="a71a75c918"><path d="M 577.71875 57.195312 L 549.171875 106.53125 L 499.835938 77.984375 L 528.382812 28.648438 Z M 577.71875 57.195312 " clip-rule="nonzero"/></clipPath><clipPath id="c369f7ff62"><path d="M 577.71875 57.195312 L 549.171875 106.53125 L 499.835938 77.984375 L 528.382812 28.648438 Z M 577.71875 57.195312 " clip-rule="nonzero"/></clipPath><clipPath id="dfb1639971"><path d="M 577.71875 57.195312 L 549.171875 106.53125 L 499.835938 77.984375 L 528.382812 28.648438 Z M 577.71875 57.195312 " clip-rule="nonzero"/></clipPath><clipPath id="e39eac13be"><path d="M 517 44 L 568 44 L 568 81 L 517 81 Z M 517 44 " clip-rule="nonzero"/></clipPath><clipPath id="b2075efd91"><path d="M 577.71875 57.195312 L 549.171875 106.53125 L 499.835938 77.984375 L 528.382812 28.648438 Z M 577.71875 57.195312 " clip-rule="nonzero"/></clipPath><clipPath id="01ec9ebbf2"><path d="M 577.71875 57.195312 L 549.171875 106.53125 L 499.835938 77.984375 L 528.382812 28.648438 Z M 577.71875 57.195312 " clip-rule="nonzero"/></clipPath><clipPath id="23120c7737"><path d="M 577.71875 57.195312 L 549.171875 106.53125 L 499.835938 77.984375 L 528.382812 28.648438 Z M 577.71875 57.195312 " clip-rule="nonzero"/></clipPath><clipPath id="aa07359fc6"><path d="M 514 43 L 569 43 L 569 98 L 514 98 Z M 514 43 " clip-rule="nonzero"/></clipPath><clipPath id="3d80c68c5c"><path d="M 577.71875 57.195312 L 549.171875 106.53125 L 499.835938 77.984375 L 528.382812 28.648438 Z M 577.71875 57.195312 " clip-rule="nonzero"/></clipPath><clipPath id="aede4a65f5"><path d="M 577.71875 57.195312 L 549.171875 106.53125 L 499.835938 77.984375 L 528.382812 28.648438 Z M 577.71875 57.195312 " clip-rule="nonzero"/></clipPath><clipPath id="b29a98eaff"><path d="M 577.71875 57.195312 L 549.171875 106.53125 L 499.835938 77.984375 L 528.382812 28.648438 Z M 577.71875 57.195312 " clip-rule="nonzero"/></clipPath><clipPath id="bf0744f616"><path d="M 530 58 L 553 58 L 553 81 L 530 81 Z M 530 58 " clip-rule="nonzero"/></clipPath><clipPath id="90ab808cd3"><path d="M 577.71875 57.195312 L 549.171875 106.53125 L 499.835938 77.984375 L 528.382812 28.648438 Z M 577.71875 57.195312 " clip-rule="nonzero"/></clipPath><clipPath id="0ba70449c1"><path d="M 577.71875 57.195312 L 549.171875 106.53125 L 499.835938 77.984375 L 528.382812 28.648438 Z M 577.71875 57.195312 " clip-rule="nonzero"/></clipPath><clipPath id="40bd3d8ad9"><path d="M 577.71875 57.195312 L 549.171875 106.53125 L 499.835938 77.984375 L 528.382812 28.648438 Z M 577.71875 57.195312 " clip-rule="nonzero"/></clipPath><clipPath id="33822f8c58"><path d="M 532 58 L 553 58 L 553 75 L 532 75 Z M 532 58 " clip-rule="nonzero"/></clipPath><clipPath id="a6cad17a1a"><path d="M 577.71875 57.195312 L 549.171875 106.53125 L 499.835938 77.984375 L 528.382812 28.648438 Z M 577.71875 57.195312 " clip-rule="nonzero"/></clipPath><clipPath id="cfef06d972"><path d="M 577.71875 57.195312 L 549.171875 106.53125 L 499.835938 77.984375 L 528.382812 28.648438 Z M 577.71875 57.195312 " clip-rule="nonzero"/></clipPath><clipPath id="c85f42506b"><path d="M 577.71875 57.195312 L 549.171875 106.53125 L 499.835938 77.984375 L 528.382812 28.648438 Z M 577.71875 57.195312 " clip-rule="nonzero"/></clipPath><clipPath id="62adb79a0c"><path d="M 529 57 L 554 57 L 554 80 L 529 80 Z M 529 57 " clip-rule="nonzero"/></clipPath><clipPath id="9792b21fc6"><path d="M 577.71875 57.195312 L 549.171875 106.53125 L 499.835938 77.984375 L 528.382812 28.648438 Z M 577.71875 57.195312 " clip-rule="nonzero"/></clipPath><clipPath id="bc80cb0609"><path d="M 577.71875 57.195312 L 549.171875 106.53125 L 499.835938 77.984375 L 528.382812 28.648438 Z M 577.71875 57.195312 " clip-rule="nonzero"/></clipPath><clipPath id="90eac78773"><path d="M 577.71875 57.195312 L 549.171875 106.53125 L 499.835938 77.984375 L 528.382812 28.648438 Z M 577.71875 57.195312 " clip-rule="nonzero"/></clipPath><clipPath id="6aa403efe9"><path d="M 538 64 L 547 64 L 547 86 L 538 86 Z M 538 64 " clip-rule="nonzero"/></clipPath><clipPath id="b55016c35c"><path d="M 577.71875 57.195312 L 549.171875 106.53125 L 499.835938 77.984375 L 528.382812 28.648438 Z M 577.71875 57.195312 " clip-rule="nonzero"/></clipPath><clipPath id="ede7d31800"><path d="M 577.71875 57.195312 L 549.171875 106.53125 L 499.835938 77.984375 L 528.382812 28.648438 Z M 577.71875 57.195312 " clip-rule="nonzero"/></clipPath><clipPath id="03c0693b04"><path d="M 577.71875 57.195312 L 549.171875 106.53125 L 499.835938 77.984375 L 528.382812 28.648438 Z M 577.71875 57.195312 " clip-rule="nonzero"/></clipPath><clipPath id="c7d285c325"><path d="M 272 36 L 299 36 L 299 74 L 272 74 Z M 272 36 " clip-rule="nonzero"/></clipPath><clipPath id="3470bfd82b"><path d="M 279.085938 28.621094 L 307.671875 77.933594 L 258.359375 106.519531 L 229.773438 57.207031 Z M 279.085938 28.621094 " clip-rule="nonzero"/></clipPath><clipPath id="f170de19fc"><path d="M 279.085938 28.621094 L 307.671875 77.933594 L 258.359375 106.519531 L 229.773438 57.207031 Z M 279.085938 28.621094 " clip-rule="nonzero"/></clipPath><clipPath id="35536a8fc4"><path d="M 279.085938 28.621094 L 307.671875 77.933594 L 258.359375 106.519531 L 229.773438 57.207031 Z M 279.085938 28.621094 " clip-rule="nonzero"/></clipPath><clipPath id="bccd7c6ee7"><path d="M 237 37 L 292 37 L 292 96 L 237 96 Z M 237 37 " clip-rule="nonzero"/></clipPath><clipPath id="4f06364f14"><path d="M 279.085938 28.621094 L 307.671875 77.933594 L 258.359375 106.519531 L 229.773438 57.207031 Z M 279.085938 28.621094 " clip-rule="nonzero"/></clipPath><clipPath id="33877f898c"><path d="M 279.085938 28.621094 L 307.671875 77.933594 L 258.359375 106.519531 L 229.773438 57.207031 Z M 279.085938 28.621094 " clip-rule="nonzero"/></clipPath><clipPath id="36fc1c8dfa"><path d="M 279.085938 28.621094 L 307.671875 77.933594 L 258.359375 106.519531 L 229.773438 57.207031 Z M 279.085938 28.621094 " clip-rule="nonzero"/></clipPath><clipPath id="ca54674938"><path d="M 237 37 L 276 37 L 276 71 L 237 71 Z M 237 37 " clip-rule="nonzero"/></clipPath><clipPath id="1a45b5e47a"><path d="M 279.085938 28.621094 L 307.671875 77.933594 L 258.359375 106.519531 L 229.773438 57.207031 Z M 279.085938 28.621094 " clip-rule="nonzero"/></clipPath><clipPath id="9ee0e155d4"><path d="M 279.085938 28.621094 L 307.671875 77.933594 L 258.359375 106.519531 L 229.773438 57.207031 Z M 279.085938 28.621094 " clip-rule="nonzero"/></clipPath><clipPath id="1e17b38400"><path d="M 279.085938 28.621094 L 307.671875 77.933594 L 258.359375 106.519531 L 229.773438 57.207031 Z M 279.085938 28.621094 " clip-rule="nonzero"/></clipPath><clipPath id="25ccd5b4a7"><path d="M 236 36 L 277 36 L 277 82 L 236 82 Z M 236 36 " clip-rule="nonzero"/></clipPath><clipPath id="a29a6c3aa2"><path d="M 279.085938 28.621094 L 307.671875 77.933594 L 258.359375 106.519531 L 229.773438 57.207031 Z M 279.085938 28.621094 " clip-rule="nonzero"/></clipPath><clipPath id="dab157dd81"><path d="M 279.085938 28.621094 L 307.671875 77.933594 L 258.359375 106.519531 L 229.773438 57.207031 Z M 279.085938 28.621094 " clip-rule="nonzero"/></clipPath><clipPath id="2ef3d1a888"><path d="M 279.085938 28.621094 L 307.671875 77.933594 L 258.359375 106.519531 L 229.773438 57.207031 Z M 279.085938 28.621094 " clip-rule="nonzero"/></clipPath><clipPath id="a62f3323c0"><path d="M 271 35 L 301 35 L 301 85 L 271 85 Z M 271 35 " clip-rule="nonzero"/></clipPath><clipPath id="7242e36b99"><path d="M 279.085938 28.621094 L 307.671875 77.933594 L 258.359375 106.519531 L 229.773438 57.207031 Z M 279.085938 28.621094 " clip-rule="nonzero"/></clipPath><clipPath id="e0242bdf43"><path d="M 279.085938 28.621094 L 307.671875 77.933594 L 258.359375 106.519531 L 229.773438 57.207031 Z M 279.085938 28.621094 " clip-rule="nonzero"/></clipPath><clipPath id="725d5a0dff"><path d="M 279.085938 28.621094 L 307.671875 77.933594 L 258.359375 106.519531 L 229.773438 57.207031 Z M 279.085938 28.621094 " clip-rule="nonzero"/></clipPath><clipPath id="0478238d55"><path d="M 276 40 L 296 40 L 296 73 L 276 73 Z M 276 40 " clip-rule="nonzero"/></clipPath><clipPath id="79856564c4"><path d="M 279.085938 28.621094 L 307.671875 77.933594 L 258.359375 106.519531 L 229.773438 57.207031 Z M 279.085938 28.621094 " clip-rule="nonzero"/></clipPath><clipPath id="f5467271fc"><path d="M 279.085938 28.621094 L 307.671875 77.933594 L 258.359375 106.519531 L 229.773438 57.207031 Z M 279.085938 28.621094 " clip-rule="nonzero"/></clipPath><clipPath id="0b9707b845"><path d="M 279.085938 28.621094 L 307.671875 77.933594 L 258.359375 106.519531 L 229.773438 57.207031 Z M 279.085938 28.621094 " clip-rule="nonzero"/></clipPath><clipPath id="6fef84b2bb"><path d="M 253 70 L 274 70 L 274 91 L 253 91 Z M 253 70 " clip-rule="nonzero"/></clipPath><clipPath id="8af8a8833b"><path d="M 279.085938 28.621094 L 307.671875 77.933594 L 258.359375 106.519531 L 229.773438 57.207031 Z M 279.085938 28.621094 " clip-rule="nonzero"/></clipPath><clipPath id="d143a20f10"><path d="M 279.085938 28.621094 L 307.671875 77.933594 L 258.359375 106.519531 L 229.773438 57.207031 Z M 279.085938 28.621094 " clip-rule="nonzero"/></clipPath><clipPath id="e6a089c693"><path d="M 279.085938 28.621094 L 307.671875 77.933594 L 258.359375 106.519531 L 229.773438 57.207031 Z M 279.085938 28.621094 " clip-rule="nonzero"/></clipPath><clipPath id="4ba3e36814"><path d="M 252 69 L 275 69 L 275 92 L 252 92 Z M 252 69 " clip-rule="nonzero"/></clipPath><clipPath id="88bfaef008"><path d="M 279.085938 28.621094 L 307.671875 77.933594 L 258.359375 106.519531 L 229.773438 57.207031 Z M 279.085938 28.621094 " clip-rule="nonzero"/></clipPath><clipPath id="3e018e144e"><path d="M 279.085938 28.621094 L 307.671875 77.933594 L 258.359375 106.519531 L 229.773438 57.207031 Z M 279.085938 28.621094 " clip-rule="nonzero"/></clipPath><clipPath id="450a10f992"><path d="M 279.085938 28.621094 L 307.671875 77.933594 L 258.359375 106.519531 L 229.773438 57.207031 Z M 279.085938 28.621094 " clip-rule="nonzero"/></clipPath><clipPath id="15ff6a7a3f"><path d="M 257 89 L 263 89 L 263 102 L 257 102 Z M 257 89 " clip-rule="nonzero"/></clipPath><clipPath id="a72667e86d"><path d="M 279.085938 28.621094 L 307.671875 77.933594 L 258.359375 106.519531 L 229.773438 57.207031 Z M 279.085938 28.621094 " clip-rule="nonzero"/></clipPath><clipPath id="27dfe933d0"><path d="M 279.085938 28.621094 L 307.671875 77.933594 L 258.359375 106.519531 L 229.773438 57.207031 Z M 279.085938 28.621094 " clip-rule="nonzero"/></clipPath><clipPath id="61de336abe"><path d="M 279.085938 28.621094 L 307.671875 77.933594 L 258.359375 106.519531 L 229.773438 57.207031 Z M 279.085938 28.621094 " clip-rule="nonzero"/></clipPath><clipPath id="168889a3aa"><path d="M 253 70 L 274 70 L 274 91 L 253 91 Z M 253 70 " clip-rule="nonzero"/></clipPath><clipPath id="af5601b50b"><path d="M 279.085938 28.621094 L 307.671875 77.933594 L 258.359375 106.519531 L 229.773438 57.207031 Z M 279.085938 28.621094 " clip-rule="nonzero"/></clipPath><clipPath id="5f5c96a542"><path d="M 279.085938 28.621094 L 307.671875 77.933594 L 258.359375 106.519531 L 229.773438 57.207031 Z M 279.085938 28.621094 " clip-rule="nonzero"/></clipPath><clipPath id="ea4ad4b680"><path d="M 279.085938 28.621094 L 307.671875 77.933594 L 258.359375 106.519531 L 229.773438 57.207031 Z M 279.085938 28.621094 " clip-rule="nonzero"/></clipPath><clipPath id="15bd93e350"><path d="M 254 70 L 274 70 L 274 84 L 254 84 Z M 254 70 " clip-rule="nonzero"/></clipPath><clipPath id="c28bd02912"><path d="M 279.085938 28.621094 L 307.671875 77.933594 L 258.359375 106.519531 L 229.773438 57.207031 Z M 279.085938 28.621094 " clip-rule="nonzero"/></clipPath><clipPath id="1007f3dbdd"><path d="M 279.085938 28.621094 L 307.671875 77.933594 L 258.359375 106.519531 L 229.773438 57.207031 Z M 279.085938 28.621094 " clip-rule="nonzero"/></clipPath><clipPath id="70a3fbf7a2"><path d="M 279.085938 28.621094 L 307.671875 77.933594 L 258.359375 106.519531 L 229.773438 57.207031 Z M 279.085938 28.621094 " clip-rule="nonzero"/></clipPath><clipPath id="7e0e49505e"><path d="M 252 69 L 275 69 L 275 92 L 252 92 Z M 252 69 " clip-rule="nonzero"/></clipPath><clipPath id="64b6eb9e08"><path d="M 279.085938 28.621094 L 307.671875 77.933594 L 258.359375 106.519531 L 229.773438 57.207031 Z M 279.085938 28.621094 " clip-rule="nonzero"/></clipPath><clipPath id="55da54d440"><path d="M 279.085938 28.621094 L 307.671875 77.933594 L 258.359375 106.519531 L 229.773438 57.207031 Z M 279.085938 28.621094 " clip-rule="nonzero"/></clipPath><clipPath id="ee2e400070"><path d="M 279.085938 28.621094 L 307.671875 77.933594 L 258.359375 106.519531 L 229.773438 57.207031 Z M 279.085938 28.621094 " clip-rule="nonzero"/></clipPath><clipPath id="68bb6cc03e"><path d="M 257 89 L 263 89 L 263 102 L 257 102 Z M 257 89 " clip-rule="nonzero"/></clipPath><clipPath id="c88aaed591"><path d="M 279.085938 28.621094 L 307.671875 77.933594 L 258.359375 106.519531 L 229.773438 57.207031 Z M 279.085938 28.621094 " clip-rule="nonzero"/></clipPath><clipPath id="a09c6657fd"><path d="M 279.085938 28.621094 L 307.671875 77.933594 L 258.359375 106.519531 L 229.773438 57.207031 Z M 279.085938 28.621094 " clip-rule="nonzero"/></clipPath><clipPath id="6717942c62"><path d="M 279.085938 28.621094 L 307.671875 77.933594 L 258.359375 106.519531 L 229.773438 57.207031 Z M 279.085938 28.621094 " clip-rule="nonzero"/></clipPath></defs><g clip-path="url(#76c010032a)"><path fill="#90e39a" d="M 241.824219 177.632812 C 241.671875 176.714844 241.902344 175.792969 242.4375 175.023438 C 247.121094 168.503906 252.335938 162.285156 257.785156 156.453125 C 258.398438 155.761719 259.320312 155.378906 260.242188 155.304688 C 261.164062 155.304688 262.082031 155.609375 262.773438 156.222656 C 263.464844 156.839844 263.847656 157.757812 263.847656 158.679688 C 263.847656 159.601562 263.542969 160.519531 262.925781 161.210938 C 257.632812 166.8125 252.644531 172.875 248.117188 179.09375 C 247.425781 180.011719 246.351562 180.550781 245.277344 180.550781 C 244.511719 180.550781 243.820312 180.320312 243.207031 179.859375 C 242.4375 179.398438 241.976562 178.632812 241.824219 177.632812 Z M 317.410156 120.769531 C 317.949219 120.769531 318.410156 120.695312 318.945312 120.464844 C 325.929688 117.164062 333.21875 114.246094 340.511719 111.867188 C 342.351562 111.253906 343.351562 109.261719 342.734375 107.417969 C 342.121094 105.578125 340.125 104.578125 338.285156 105.191406 C 330.6875 107.648438 323.167969 110.640625 315.878906 114.09375 C 315.03125 114.476562 314.417969 115.167969 314.035156 116.089844 C 313.730469 117.011719 313.730469 117.929688 314.1875 118.777344 C 314.804688 120.003906 316.03125 120.769531 317.410156 120.769531 Z M 277.585938 146.171875 C 278.429688 146.171875 279.195312 145.863281 279.808594 145.328125 C 285.71875 140.414062 292.089844 135.8125 298.535156 131.667969 C 300.144531 130.59375 300.683594 128.445312 299.609375 126.832031 C 298.535156 125.222656 296.386719 124.683594 294.773438 125.757812 C 288.019531 130.054688 281.5 134.8125 275.28125 139.957031 C 273.824219 141.183594 273.59375 143.410156 274.820312 144.945312 C 275.589844 145.710938 276.511719 146.171875 277.585938 146.171875 Z M 214.429688 311.160156 C 213.429688 303.5625 212.972656 295.734375 212.972656 287.984375 C 212.972656 286.066406 211.359375 284.453125 209.441406 284.453125 C 207.523438 284.453125 205.910156 286.066406 205.910156 287.984375 C 205.910156 296.042969 206.449219 304.097656 207.445312 312.003906 C 207.675781 313.769531 209.132812 315.074219 210.976562 315.074219 C 211.128906 315.074219 211.28125 315.074219 211.4375 315.074219 C 213.277344 314.84375 214.660156 313.078125 214.429688 311.160156 Z M 362.304688 106.113281 C 362.535156 106.113281 362.765625 106.113281 362.996094 106.035156 C 370.515625 104.578125 378.34375 103.582031 386.015625 103.121094 C 386.9375 103.042969 387.78125 102.660156 388.472656 101.96875 C 389.085938 101.277344 389.394531 100.359375 389.316406 99.4375 C 389.238281 98.515625 388.777344 97.597656 388.089844 96.980469 C 387.398438 96.367188 386.476562 96.0625 385.554688 96.136719 C 377.5 96.675781 369.515625 97.671875 361.613281 99.128906 C 359.695312 99.515625 358.46875 101.355469 358.851562 103.273438 C 359.15625 104.960938 360.617188 106.113281 362.304688 106.113281 Z M 221.257812 221.835938 C 221.640625 221.988281 222.101562 222.066406 222.5625 222.066406 C 224.019531 222.066406 225.324219 221.222656 225.863281 219.839844 C 228.703125 212.625 232 205.566406 235.761719 198.8125 C 236.222656 197.96875 236.300781 197.050781 236.070312 196.128906 C 235.839844 195.207031 235.226562 194.441406 234.378906 194.054688 C 233.535156 193.597656 232.617188 193.519531 231.695312 193.75 C 230.773438 193.980469 230.007812 194.59375 229.621094 195.4375 C 225.785156 202.496094 222.332031 209.789062 219.339844 217.308594 C 218.574219 219.074219 219.417969 221.066406 221.257812 221.835938 Z M 569.804688 219.304688 C 570.34375 220.683594 571.648438 221.527344 573.105469 221.527344 C 573.566406 221.527344 574.027344 221.453125 574.410156 221.296875 C 575.253906 220.914062 575.945312 220.300781 576.328125 219.378906 C 576.710938 218.535156 576.710938 217.539062 576.328125 216.695312 C 573.335938 209.25 569.882812 201.960938 566.046875 194.898438 C 565.585938 194.054688 564.816406 193.519531 563.894531 193.210938 C 562.976562 192.980469 562.054688 193.058594 561.210938 193.519531 C 560.367188 193.980469 559.753906 194.746094 559.523438 195.667969 C 559.292969 196.589844 559.367188 197.507812 559.828125 198.355469 C 563.589844 205.03125 566.964844 212.089844 569.804688 219.304688 Z M 547.398438 178.707031 C 548.089844 179.628906 549.164062 180.167969 550.238281 180.167969 C 551.003906 180.167969 551.695312 179.9375 552.308594 179.476562 C 553.078125 178.9375 553.535156 178.09375 553.691406 177.171875 C 553.84375 176.253906 553.613281 175.332031 553.078125 174.566406 C 548.320312 168.117188 543.175781 161.824219 537.652344 155.992188 C 537.039062 155.304688 536.117188 154.917969 535.195312 154.917969 C 534.273438 154.917969 533.355469 155.226562 532.664062 155.839844 C 531.972656 156.453125 531.589844 157.375 531.589844 158.296875 C 531.589844 159.21875 531.894531 160.136719 532.511719 160.828125 C 537.804688 166.507812 542.792969 172.492188 547.398438 178.707031 Z M 581.394531 264.117188 C 581.621094 265.882812 583.15625 267.1875 584.921875 267.1875 C 585.078125 267.1875 585.230469 267.1875 585.382812 267.1875 C 587.300781 266.957031 588.683594 265.191406 588.453125 263.273438 C 587.457031 255.292969 585.921875 247.3125 583.925781 239.5625 C 583.464844 237.71875 581.546875 236.570312 579.628906 237.03125 C 578.707031 237.261719 577.941406 237.875 577.480469 238.640625 C 577.019531 239.484375 576.867188 240.40625 577.09375 241.328125 C 578.9375 248.769531 580.394531 256.445312 581.394531 264.117188 Z M 409.269531 103.121094 C 417.019531 103.582031 424.769531 104.578125 432.289062 105.960938 C 432.519531 106.035156 432.75 106.035156 432.980469 106.035156 C 434.667969 106.035156 436.125 104.808594 436.433594 103.199219 C 436.585938 102.277344 436.433594 101.355469 435.894531 100.589844 C 435.359375 99.820312 434.59375 99.285156 433.671875 99.128906 C 425.691406 97.519531 417.710938 96.519531 409.730469 96.0625 C 408.808594 95.984375 407.886719 96.292969 407.195312 96.90625 C 406.503906 97.519531 406.046875 98.441406 405.96875 99.359375 C 405.890625 100.28125 406.199219 101.203125 406.8125 101.894531 C 407.425781 102.660156 408.269531 103.042969 409.269531 103.121094 Z M 454.773438 111.640625 C 462.140625 114.019531 469.355469 116.855469 476.414062 120.15625 C 476.875 120.386719 477.410156 120.464844 477.871094 120.464844 C 479.253906 120.464844 480.480469 119.695312 481.09375 118.46875 C 481.941406 116.703125 481.171875 114.632812 479.40625 113.789062 C 472.117188 110.410156 464.597656 107.417969 457 104.960938 C 456.078125 104.65625 455.15625 104.730469 454.3125 105.191406 C 453.46875 105.652344 452.855469 106.34375 452.546875 107.265625 C 451.933594 109.105469 452.933594 111.101562 454.773438 111.640625 Z M 496.75 131.359375 C 503.273438 135.503906 509.566406 140.109375 515.550781 145.019531 C 516.164062 145.558594 517.007812 145.863281 517.777344 145.863281 C 518.851562 145.863281 519.847656 145.402344 520.460938 144.558594 C 521.691406 143.023438 521.460938 140.800781 520 139.570312 C 513.785156 134.429688 507.261719 129.671875 500.511719 125.453125 C 499.742188 124.914062 498.746094 124.761719 497.824219 124.992188 C 496.902344 125.222656 496.136719 125.757812 495.597656 126.527344 C 495.0625 127.292969 494.910156 128.292969 495.136719 129.210938 C 495.445312 130.054688 495.984375 130.898438 496.75 131.359375 Z M 210.4375 267.800781 C 210.59375 267.800781 210.746094 267.800781 210.898438 267.800781 C 212.664062 267.800781 214.199219 266.496094 214.429688 264.730469 C 215.351562 257.058594 216.808594 249.382812 218.726562 241.941406 C 219.1875 240.023438 218.035156 238.105469 216.195312 237.644531 C 214.273438 237.183594 212.355469 238.335938 211.894531 240.175781 C 209.902344 247.925781 208.441406 255.90625 207.445312 263.886719 C 207.292969 264.808594 207.597656 265.730469 208.136719 266.496094 C 208.671875 267.265625 209.515625 267.726562 210.4375 267.800781 Z M 535.273438 413.222656 C 534.351562 413.222656 533.429688 413.683594 532.816406 414.296875 C 527.523438 419.898438 521.84375 425.269531 515.859375 430.179688 C 515.167969 430.792969 514.707031 431.640625 514.628906 432.558594 C 514.554688 433.480469 514.859375 434.402344 515.398438 435.167969 C 516.089844 436.011719 517.085938 436.472656 518.082031 436.472656 C 518.925781 436.472656 519.695312 436.167969 520.308594 435.628906 C 526.449219 430.488281 532.355469 424.960938 537.882812 419.128906 C 538.496094 418.441406 538.878906 417.519531 538.804688 416.597656 C 538.804688 415.675781 538.34375 414.757812 537.730469 414.140625 C 537.039062 413.527344 536.195312 413.222656 535.273438 413.222656 Z M 564.816406 375.464844 C 563.128906 374.546875 560.980469 375.160156 560.058594 376.847656 C 556.300781 383.601562 552.15625 390.199219 547.628906 396.414062 C 546.476562 397.949219 546.859375 400.175781 548.394531 401.328125 C 549.007812 401.789062 549.699219 402.019531 550.46875 402.019531 C 551.617188 402.019531 552.691406 401.480469 553.304688 400.558594 C 558.0625 394.035156 562.363281 387.207031 566.273438 380.222656 C 566.734375 379.378906 566.8125 378.460938 566.582031 377.539062 C 566.273438 376.695312 565.660156 375.925781 564.816406 375.464844 Z M 455.15625 463.640625 C 447.789062 466.019531 440.269531 467.9375 432.671875 469.394531 C 431.753906 469.546875 430.910156 470.085938 430.449219 470.851562 C 429.910156 471.621094 429.757812 472.539062 429.910156 473.460938 C 430.21875 475.148438 431.675781 476.300781 433.363281 476.300781 C 433.59375 476.300781 433.824219 476.300781 434.054688 476.222656 C 441.957031 474.765625 449.785156 472.695312 457.382812 470.238281 C 459.226562 469.625 460.222656 467.628906 459.609375 465.789062 C 458.996094 464.097656 457 463.101562 455.15625 463.640625 Z M 218.804688 333.949219 C 218.574219 333.03125 217.957031 332.261719 217.191406 331.800781 C 216.347656 331.339844 215.425781 331.1875 214.503906 331.417969 C 212.585938 331.878906 211.511719 333.796875 211.972656 335.714844 C 213.96875 343.464844 216.5 351.21875 219.417969 358.660156 C 219.953125 360.042969 221.257812 360.886719 222.714844 360.886719 C 223.175781 360.886719 223.636719 360.808594 224.019531 360.65625 C 224.863281 360.273438 225.554688 359.65625 225.941406 358.738281 C 226.324219 357.894531 226.324219 356.894531 226.015625 356.050781 C 223.101562 348.839844 220.722656 341.394531 218.804688 333.949219 Z M 581.394531 331.1875 C 579.472656 330.726562 577.554688 331.878906 577.09375 333.71875 C 575.175781 341.242188 572.796875 348.609375 569.957031 355.820312 C 569.574219 356.664062 569.652344 357.664062 570.035156 358.507812 C 570.417969 359.351562 571.109375 360.042969 571.953125 360.347656 C 572.335938 360.503906 572.796875 360.578125 573.257812 360.578125 C 574.714844 360.578125 576.019531 359.734375 576.558594 358.351562 C 579.472656 350.910156 582.007812 343.160156 584 335.410156 C 584.460938 333.566406 583.3125 331.648438 581.394531 331.1875 Z M 586.457031 283.761719 C 584.539062 283.761719 582.925781 285.375 582.925781 287.292969 L 582.925781 287.753906 C 582.925781 295.503906 582.46875 303.332031 581.46875 310.929688 C 581.238281 312.847656 582.621094 314.613281 584.539062 314.84375 C 584.691406 314.84375 584.847656 314.84375 584.921875 314.84375 C 586.6875 314.84375 588.222656 313.539062 588.453125 311.773438 C 589.449219 303.871094 589.910156 295.734375 589.910156 287.753906 L 589.910156 287.292969 C 589.910156 285.375 588.375 283.761719 586.457031 283.761719 Z M 497.058594 443.917969 C 490.535156 448.0625 483.703125 451.820312 476.722656 455.121094 C 474.957031 455.964844 474.1875 458.035156 475.03125 459.800781 C 475.648438 461.03125 476.875 461.796875 478.257812 461.796875 C 478.792969 461.796875 479.253906 461.71875 479.789062 461.488281 C 487.003906 458.113281 494.140625 454.199219 500.894531 449.824219 C 502.503906 448.75 503.042969 446.601562 501.96875 444.992188 C 500.894531 443.378906 498.746094 442.84375 497.058594 443.917969 Z M 235.914062 377 C 234.996094 375.3125 232.847656 374.699219 231.15625 375.621094 C 229.46875 376.539062 228.855469 378.6875 229.777344 380.378906 C 233.613281 387.359375 237.988281 394.191406 242.746094 400.714844 C 243.4375 401.632812 244.511719 402.171875 245.585938 402.171875 C 246.351562 402.171875 247.042969 401.941406 247.65625 401.480469 C 249.191406 400.328125 249.574219 398.105469 248.425781 396.570312 C 243.820312 390.351562 239.597656 383.753906 235.914062 377 Z M 263.15625 414.449219 C 262.542969 413.757812 261.621094 413.375 260.703125 413.375 C 259.78125 413.375 258.859375 413.683594 258.167969 414.296875 C 257.480469 414.910156 257.09375 415.832031 257.09375 416.75 C 257.09375 417.671875 257.402344 418.59375 258.015625 419.285156 C 263.542969 425.117188 269.449219 430.640625 275.589844 435.78125 C 276.203125 436.320312 277.046875 436.625 277.816406 436.625 C 278.890625 436.625 279.886719 436.167969 280.5 435.324219 C 281.113281 434.632812 281.34375 433.710938 281.269531 432.714844 C 281.191406 431.792969 280.730469 430.949219 280.039062 430.335938 C 274.132812 425.421875 268.453125 420.050781 263.15625 414.449219 Z M 409.652344 472.308594 C 401.902344 472.769531 394.074219 472.769531 386.398438 472.308594 C 384.480469 472.234375 382.792969 473.769531 382.714844 475.609375 C 382.5625 477.527344 384.097656 479.21875 386.015625 479.371094 C 389.929688 479.601562 393.996094 479.753906 397.988281 479.753906 C 402.054688 479.753906 406.121094 479.601562 410.113281 479.371094 C 412.03125 479.214844 413.566406 477.605469 413.410156 475.609375 C 413.257812 473.691406 411.570312 472.234375 409.652344 472.308594 Z M 319.253906 455.199219 C 312.269531 451.898438 305.441406 448.136719 298.917969 443.992188 C 298.152344 443.457031 297.152344 443.304688 296.230469 443.535156 C 295.3125 443.761719 294.542969 444.300781 294.007812 445.066406 C 293.46875 445.835938 293.316406 446.832031 293.546875 447.753906 C 293.777344 448.675781 294.3125 449.441406 295.082031 449.980469 C 301.835938 454.277344 308.972656 458.191406 316.183594 461.644531 C 316.644531 461.875 317.183594 461.949219 317.71875 461.949219 C 319.101562 461.949219 320.328125 461.183594 320.941406 459.957031 C 321.785156 458.113281 321.019531 456.042969 319.253906 455.199219 Z M 363.378906 469.472656 C 355.78125 468.011719 348.261719 466.09375 340.894531 463.714844 C 339.972656 463.410156 339.050781 463.484375 338.207031 463.945312 C 337.363281 464.40625 336.75 465.097656 336.441406 466.019531 C 336.136719 466.9375 336.214844 467.859375 336.671875 468.703125 C 337.132812 469.546875 337.824219 470.160156 338.746094 470.46875 C 346.34375 472.925781 354.246094 474.917969 362.074219 476.453125 C 362.304688 476.53125 362.535156 476.53125 362.765625 476.53125 C 364.453125 476.53125 365.910156 475.304688 366.21875 473.691406 C 366.523438 471.695312 365.296875 469.855469 363.378906 469.472656 Z M 363.378906 469.472656 " fill-opacity="1" fill-rule="nonzero"/></g><g clip-path="url(#b82fecd1a9)"><g clip-path="url(#bd2d42fef8)"><g clip-path="url(#2bf93ad437)"><g clip-path="url(#47bb333474)"><path stroke-linecap="round" transform="matrix(0.723135, -1.227885, 1.227885, 0.723135, 231.301514, 518.075326)" fill="none" stroke-linejoin="round" d="M 7.452635 27.216397 L 7.452007 23.558291 C 7.452185 23.364128 7.528947 23.175763 7.66828 23.039624 C 7.80386 22.902514 7.9902 22.824586 8.184363 22.824765 L 30.144258 22.823905 C 30.338421 22.824083 30.524424 22.902237 30.662925 23.040178 C 30.800035 23.175758 30.8756 23.363489 30.877784 23.556261 L 30.876051 27.215758 " stroke="#16262e" stroke-width="1.67" stroke-opacity="1" stroke-miterlimit="4"/></g></g></g></g><g clip-path="url(#696da21949)"><g clip-path="url(#fde5c3bb4c)"><g clip-path="url(#5e306453d0)"><g clip-path="url(#a05ff914e9)"><path stroke-linecap="round" transform="matrix(0.723135, -1.227885, 1.227885, 0.723135, 231.301514, 518.075326)" fill="none" stroke-linejoin="round" d="M 19.165459 18.431897 L 19.165524 27.215382 " stroke="#16262e" stroke-width="1.67" stroke-opacity="1" stroke-miterlimit="4"/></g></g></g></g><g clip-path="url(#03afd7f405)"><g clip-path="url(#def66e3e0a)"><g clip-path="url(#1c1ad04cfa)"><g clip-path="url(#27f4fb51fa)"><path fill="#ffef5e" d="M 271.289062 497.824219 C 271.765625 498.105469 272.113281 498.566406 272.25 499.101562 C 272.390625 499.636719 272.308594 500.207031 272.027344 500.683594 L 263.558594 515.0625 C 263.277344 515.539062 262.820312 515.886719 262.285156 516.023438 C 261.75 516.164062 261.179688 516.082031 260.703125 515.800781 L 251.714844 510.507812 C 251.238281 510.226562 250.890625 509.769531 250.753906 509.234375 C 250.613281 508.699219 250.695312 508.128906 250.976562 507.652344 L 259.445312 493.273438 C 259.726562 492.796875 260.183594 492.449219 260.71875 492.3125 C 261.257812 492.171875 261.824219 492.25 262.300781 492.53125 Z M 271.289062 497.824219 " fill-opacity="1" fill-rule="nonzero"/></g></g></g></g><g clip-path="url(#75c50a0f96)"><g clip-path="url(#5668034543)"><g clip-path="url(#938c263675)"><g clip-path="url(#abeccf2e9c)"><path fill="#fbed00" d="M 255.210938 500.460938 L 250.976562 507.652344 C 250.695312 508.128906 250.613281 508.699219 250.753906 509.234375 C 250.890625 509.769531 251.238281 510.226562 251.714844 510.507812 L 260.703125 515.800781 C 261.179688 516.082031 261.75 516.164062 262.285156 516.023438 C 262.820312 515.886719 263.277344 515.539062 263.558594 515.0625 L 267.792969 507.871094 Z M 255.210938 500.460938 " fill-opacity="1" fill-rule="nonzero"/></g></g></g></g><g clip-path="url(#70a0c5bc6b)"><g clip-path="url(#28e11a08b2)"><g clip-path="url(#a7be5a068e)"><g clip-path="url(#35fb9b1136)"><path stroke-linecap="round" transform="matrix(0.723135, -1.227885, 1.227885, 0.723135, 231.301514, 518.075326)" fill="none" stroke-linejoin="round" d="M 26.485644 16.968089 C 26.485288 17.356416 26.330372 17.730784 26.05546 18.004033 C 25.781938 18.279643 25.407867 18.433137 25.019541 18.43278 L 13.309014 18.432404 C 12.920688 18.432048 12.54771 18.279494 12.274462 18.004581 C 11.998852 17.73106 11.845358 17.356989 11.845715 16.968662 L 11.845428 9.648698 C 11.845784 9.260371 11.998338 8.887394 12.273251 8.614145 C 12.546772 8.338535 12.920843 8.185041 13.30917 8.185398 L 25.019696 8.185774 C 25.408023 8.186131 25.781 8.338684 26.054248 8.613597 C 26.33125 8.88948 26.485714 9.259798 26.485358 9.648125 Z M 26.485644 16.968089 " stroke="#16262e" stroke-width="1.67" stroke-opacity="1" stroke-miterlimit="4"/></g></g></g></g><g clip-path="url(#92d3600155)"><g clip-path="url(#68a8e4ab03)"><g clip-path="url(#6fcd730ca0)"><g clip-path="url(#a7a97289cd)"><path fill="#3c7a89" d="M 263.300781 505.226562 C 263.882812 504.234375 263.554688 502.953125 262.5625 502.371094 C 261.566406 501.785156 260.289062 502.117188 259.703125 503.109375 C 259.121094 504.101562 259.449219 505.378906 260.445312 505.964844 C 261.4375 506.550781 262.714844 506.21875 263.300781 505.226562 Z M 263.300781 505.226562 " fill-opacity="1" fill-rule="nonzero"/></g></g></g></g><g clip-path="url(#845dcb4c33)"><g clip-path="url(#10c3f31f90)"><g clip-path="url(#d0e43df93c)"><g clip-path="url(#ed8ea3d085)"><path stroke-linecap="round" transform="matrix(0.723135, -1.227885, 1.227885, 0.723135, 231.301514, 518.075326)" fill="none" stroke-linejoin="round" d="M 19.16483 14.773791 C 19.972059 14.772403 20.629959 14.11772 20.628571 13.310491 C 20.628155 12.499509 19.972501 11.845362 19.163881 11.844387 C 18.356652 11.845775 17.701114 12.499067 17.70153 13.310049 C 17.700556 14.118669 18.35621 14.772816 19.16483 14.773791 Z M 19.16483 14.773791 " stroke="#16262e" stroke-width="1.67" stroke-opacity="1" stroke-miterlimit="4"/></g></g></g></g><g clip-path="url(#9250243bd8)"><g clip-path="url(#a1b8db86db)"><g clip-path="url(#48291ad144)"><g clip-path="url(#1978308a0f)"><path stroke-linecap="round" transform="matrix(0.723135, -1.227885, 1.227885, 0.723135, 231.301514, 518.075326)" fill="none" stroke-linejoin="round" d="M 23.556176 8.185553 L 23.556397 6.722033 C 23.557466 5.557053 23.093652 4.439985 22.270154 3.614276 C 21.445685 2.792321 20.330086 2.329515 19.165107 2.328446 C 18.001518 2.329739 16.883058 2.79119 16.061103 3.61566 C 15.235395 4.439158 14.77398 5.557119 14.772911 6.722098 L 14.77269 8.185619 " stroke="#16262e" stroke-width="1.67" stroke-opacity="1" stroke-miterlimit="4"/></g></g></g></g><g clip-path="url(#3b385a4a83)"><g clip-path="url(#185423e9c3)"><g clip-path="url(#1405600714)"><g clip-path="url(#246aed5f65)"><path fill="#90e39a" d="M 280.894531 534.957031 C 282.648438 531.980469 281.65625 528.144531 278.679688 526.390625 C 275.699219 524.632812 271.863281 525.628906 270.109375 528.605469 C 268.355469 531.585938 269.347656 535.421875 272.328125 537.175781 C 275.304688 538.929688 279.140625 537.9375 280.894531 534.957031 Z M 280.894531 534.957031 " fill-opacity="1" fill-rule="nonzero"/></g></g></g></g><g clip-path="url(#adcb1195cd)"><g clip-path="url(#fdfd7e2587)"><g clip-path="url(#d12d291404)"><g clip-path="url(#c95593f16e)"><path stroke-linecap="round" transform="matrix(0.723135, -1.227885, 1.227885, 0.723135, 231.301514, 518.075326)" fill="none" stroke-linejoin="round" d="M 7.452701 35.999882 C 9.87717 36.000443 11.843364 34.034452 11.843925 31.609983 C 11.845458 29.181762 9.877104 27.216958 7.452635 27.216397 C 5.025805 27.217227 3.05961 29.183218 3.06044 31.610049 C 3.059879 34.034518 5.02587 36.000712 7.452701 35.999882 Z M 7.452701 35.999882 " stroke="#16262e" stroke-width="1.67" stroke-opacity="1" stroke-miterlimit="4"/></g></g></g></g><g clip-path="url(#a46a65dc87)"><g clip-path="url(#d20748819c)"><g clip-path="url(#593188e283)"><g clip-path="url(#11b34bd59b)"><path fill="#138a36" d="M 289.367188 520.578125 C 291.121094 517.597656 290.128906 513.761719 287.148438 512.007812 C 284.171875 510.253906 280.332031 511.246094 278.578125 514.222656 C 276.824219 517.203125 277.816406 521.039062 280.796875 522.792969 C 283.773438 524.546875 287.609375 523.554688 289.367188 520.578125 Z M 289.367188 520.578125 " fill-opacity="1" fill-rule="nonzero"/></g></g></g></g><g clip-path="url(#0ae3586076)"><g clip-path="url(#6c0ba223af)"><g clip-path="url(#86a615b0fa)"><g clip-path="url(#638b2c7115)"><path stroke-linecap="round" transform="matrix(0.723135, -1.227885, 1.227885, 0.723135, 231.301514, 518.075326)" fill="none" stroke-linejoin="round" d="M 19.164619 36.002621 C 21.591449 36.001791 23.557644 34.035799 23.556814 31.608969 C 23.557375 29.1845 21.589993 27.215943 19.165524 27.215382 C 16.738694 27.216212 14.772499 29.182204 14.773329 31.609034 C 14.772768 34.033503 16.738759 35.999698 19.164619 36.002621 Z M 19.164619 36.002621 " stroke="#16262e" stroke-width="1.67" stroke-opacity="1" stroke-miterlimit="4"/></g></g></g></g><g clip-path="url(#b4af66df8d)"><g clip-path="url(#03d1ba993f)"><g clip-path="url(#3173c739e3)"><g clip-path="url(#b949bd5899)"><path fill="#138a36" d="M 297.835938 506.195312 C 299.589844 503.214844 298.597656 499.378906 295.617188 497.625 C 292.640625 495.871094 288.804688 496.863281 287.050781 499.84375 C 285.296875 502.820312 286.289062 506.65625 289.265625 508.410156 C 292.246094 510.167969 296.082031 509.171875 297.835938 506.195312 Z M 297.835938 506.195312 " fill-opacity="1" fill-rule="nonzero"/></g></g></g></g><g clip-path="url(#a78fbf9e47)"><g clip-path="url(#8375b936f8)"><g clip-path="url(#6d18fa2471)"><g clip-path="url(#6b9af68662)"><path stroke-linecap="round" transform="matrix(0.723135, -1.227885, 1.227885, 0.723135, 231.301514, 518.075326)" fill="none" stroke-linejoin="round" d="M 30.877507 36.001606 C 33.304338 36.000776 35.270533 34.034784 35.269703 31.607954 C 35.270264 29.183485 33.304273 27.21729 30.877442 27.21812 C 28.452973 27.217559 26.486779 29.183551 26.486217 31.608019 C 26.484685 34.036241 28.453039 36.001045 30.877507 36.001606 Z M 30.877507 36.001606 " stroke="#16262e" stroke-width="1.67" stroke-opacity="1" stroke-miterlimit="4"/></g></g></g></g><g clip-path="url(#accefd5f5e)"><g clip-path="url(#bc019def70)"><g clip-path="url(#ce9f7537dd)"><g clip-path="url(#0511e02764)"><path fill="#e5dada" d="M 507.890625 505.71875 C 507.535156 505.292969 507.363281 504.746094 507.410156 504.195312 C 507.457031 503.644531 507.722656 503.132812 508.148438 502.777344 L 540.113281 475.960938 C 540.535156 475.605469 541.082031 475.433594 541.636719 475.480469 C 542.1875 475.53125 542.695312 475.796875 543.050781 476.21875 L 571.207031 509.78125 C 571.5625 510.207031 571.738281 510.753906 571.6875 511.304688 C 571.640625 511.855469 571.375 512.367188 570.953125 512.722656 L 538.988281 539.539062 C 538.5625 539.894531 538.015625 540.066406 537.464844 540.019531 C 536.914062 539.96875 536.402344 539.703125 536.046875 539.28125 Z M 507.890625 505.71875 " fill-opacity="1" fill-rule="nonzero"/></g></g></g></g><g clip-path="url(#01034c3faa)"><g clip-path="url(#19fc11c9ca)"><g clip-path="url(#92cc82be38)"><g clip-path="url(#993622a458)"><path fill="#ffffff" d="M 571.46875 510.175781 L 507.402344 504.558594 C 507.441406 504.984375 507.609375 505.390625 507.890625 505.71875 L 536.046875 539.28125 C 536.402344 539.703125 536.914062 539.96875 537.464844 540.019531 C 538.015625 540.066406 538.5625 539.894531 538.988281 539.539062 L 570.953125 512.722656 C 571.3125 512.417969 571.558594 512 571.652344 511.539062 C 571.746094 511.074219 571.683594 510.59375 571.46875 510.175781 Z M 571.46875 510.175781 " fill-opacity="1" fill-rule="nonzero"/></g></g></g></g><g clip-path="url(#7818237b02)"><g clip-path="url(#73069d6bc0)"><g clip-path="url(#08bc11d7bc)"><g clip-path="url(#77287f3aad)"><path stroke-linecap="round" transform="matrix(-0.915879, -1.091691, 1.091691, -0.915879, 535.380986, 546.895437)" fill="none" stroke-linejoin="round" d="M 18.433232 3.794344 L 34.536209 3.792862 C 34.925443 3.793798 35.296971 3.948055 35.571937 4.221676 C 35.846902 4.495297 36.002203 4.868903 36.001267 5.258137 L 36.000925 34.537958 C 36.00175 34.925092 35.847494 35.296621 35.572111 35.573686 C 35.296389 35.84689 34.924545 36.000091 34.537411 36.000916 L 3.794355 36.000296 C 3.405121 35.99936 3.03183 35.847203 2.758627 35.571482 C 2.483661 35.297861 2.32836 34.924255 2.327535 34.537121 L 2.327877 5.2573 C 2.328813 4.868066 2.48307 4.496537 2.756691 4.221572 C 3.032412 3.948369 3.406018 3.793067 3.793152 3.792242 L 8.186721 3.792737 " stroke="#16262e" stroke-width="1.67" stroke-opacity="1" stroke-miterlimit="4"/></g></g></g></g><g clip-path="url(#7509927463)"><g clip-path="url(#c4471cf1f5)"><g clip-path="url(#ae102de413)"><g clip-path="url(#c3003dccfd)"><path fill="#90e39a" d="M 537.023438 511.230469 C 537.902344 510.492188 538.484375 510.824219 538.304688 511.953125 L 536.921875 520.847656 L 545.921875 521.039062 C 547.070312 521.066406 547.285156 521.691406 546.410156 522.425781 L 532.027344 534.492188 C 531.605469 534.847656 531.054688 535.019531 530.503906 534.972656 C 529.953125 534.925781 529.445312 534.660156 529.089844 534.234375 L 522.386719 526.242188 C 522.027344 525.820312 521.855469 525.273438 521.90625 524.722656 C 521.953125 524.167969 522.21875 523.660156 522.640625 523.304688 Z M 537.023438 511.230469 " fill-opacity="1" fill-rule="nonzero"/></g></g></g></g><g clip-path="url(#00ec25c023)"><g clip-path="url(#b32f575d5d)"><g clip-path="url(#c3c89ef4df)"><g clip-path="url(#898140771a)"><path fill="#138a36" d="M 525.835938 520.617188 L 522.640625 523.296875 C 522.214844 523.652344 521.949219 524.164062 521.902344 524.714844 C 521.855469 525.265625 522.027344 525.8125 522.382812 526.238281 L 529.085938 534.230469 C 529.441406 534.652344 529.953125 534.917969 530.503906 534.964844 C 531.054688 535.015625 531.601562 534.839844 532.023438 534.484375 L 535.222656 531.804688 Z M 525.835938 520.617188 " fill-opacity="1" fill-rule="nonzero"/></g></g></g></g><g clip-path="url(#fc1e1b6e75)"><g clip-path="url(#218260e66a)"><g clip-path="url(#34f61ff9fc)"><g clip-path="url(#8c6893506a)"><path stroke-linecap="round" transform="matrix(-0.915879, -1.091691, 1.091691, -0.915879, 535.380986, 546.895437)" fill="none" stroke-linejoin="round" d="M 18.43317 16.969088 C 18.433664 17.774589 17.992644 17.93774 17.466773 17.331963 L 13.308647 12.576816 L 9.146446 17.329007 C 8.613763 17.93409 8.180852 17.767697 8.180697 16.966058 L 8.180759 3.791314 C 8.179933 3.40418 8.335952 3.030551 8.609573 2.755586 C 8.883194 2.48062 9.255038 2.327419 9.644272 2.328356 L 16.964312 2.329407 C 17.353208 2.326482 17.724736 2.480738 17.99794 2.756459 C 18.275005 3.031842 18.428206 3.403686 18.429032 3.79082 Z M 18.43317 16.969088 " stroke="#16262e" stroke-width="1.67" stroke-opacity="1" stroke-miterlimit="4"/></g></g></g></g><g clip-path="url(#54a20725df)"><g clip-path="url(#75c36c3048)"><g clip-path="url(#675bc65a41)"><g clip-path="url(#e857154a6b)"><path stroke-linecap="round" transform="matrix(-0.915879, -1.091691, 1.091691, -0.915879, 535.380986, 546.895437)" fill="none" stroke-linejoin="round" d="M 22.825411 11.111017 L 31.608687 11.112346 " stroke="#16262e" stroke-width="1.67" stroke-opacity="1" stroke-miterlimit="4"/></g></g></g></g><g clip-path="url(#6d21bceaf4)"><g clip-path="url(#2f977212b4)"><g clip-path="url(#c003a27f45)"><g clip-path="url(#1352ee08cb)"><path stroke-linecap="round" transform="matrix(-0.915879, -1.091691, 1.091691, -0.915879, 535.380986, 546.895437)" fill="none" stroke-linejoin="round" d="M 22.824638 16.967821 L 31.609675 16.96705 " stroke="#16262e" stroke-width="1.67" stroke-opacity="1" stroke-miterlimit="4"/></g></g></g></g><g clip-path="url(#3ff7d47272)"><g clip-path="url(#d732863177)"><g clip-path="url(#1652428398)"><g clip-path="url(#e10464f5ba)"><path stroke-linecap="round" transform="matrix(-0.915879, -1.091691, 1.091691, -0.915879, 535.380986, 546.895437)" fill="none" stroke-linejoin="round" d="M 6.72265 22.824008 L 31.608902 22.823854 " stroke="#16262e" stroke-width="1.67" stroke-opacity="1" stroke-miterlimit="4"/></g></g></g></g><g clip-path="url(#6b47c52b38)"><g clip-path="url(#e1fbbad241)"><g clip-path="url(#f02ea5f9d4)"><g clip-path="url(#aa5f89d2a2)"><path stroke-linecap="round" transform="matrix(-0.915879, -1.091691, 1.091691, -0.915879, 535.380986, 546.895437)" fill="none" stroke-linejoin="round" d="M 6.721877 28.680812 L 30.87248 28.678927 " stroke="#16262e" stroke-width="1.67" stroke-opacity="1" stroke-miterlimit="4"/></g></g></g></g><g clip-path="url(#5ab24912ab)"><g clip-path="url(#a71a75c918)"><g clip-path="url(#c369f7ff62)"><g clip-path="url(#dfb1639971)"><path fill="#e5dada" d="M 565.71875 56.773438 L 551.332031 48.445312 C 546.542969 45.75 541.042969 44.589844 535.578125 45.125 C 530.109375 45.660156 524.9375 47.859375 520.761719 51.429688 L 518.761719 53.089844 C 517.425781 54.203125 516.53125 55.75 516.230469 57.460938 L 515.789062 60.023438 C 514.777344 65.425781 515.445312 71.003906 517.707031 76.011719 C 519.96875 81.015625 523.714844 85.207031 528.4375 88.011719 L 542.824219 96.339844 C 543.390625 96.664062 544.042969 96.816406 544.695312 96.773438 C 545.34375 96.734375 545.972656 96.503906 546.492188 96.109375 C 552.179688 91.78125 556.921875 86.34375 560.441406 80.125 C 564.082031 73.976562 566.429688 67.148438 567.351562 60.0625 C 567.429688 59.417969 567.320312 58.757812 567.027344 58.171875 C 566.738281 57.589844 566.285156 57.101562 565.71875 56.773438 Z M 565.71875 56.773438 " fill-opacity="1" fill-rule="nonzero"/></g></g></g></g><g clip-path="url(#e39eac13be)"><g clip-path="url(#b2075efd91)"><g clip-path="url(#01ec9ebbf2)"><g clip-path="url(#23120c7737)"><path fill="#ffffff" d="M 560.441406 80.125 C 564.082031 73.976562 566.429688 67.148438 567.351562 60.0625 C 567.429688 59.417969 567.320312 58.757812 567.027344 58.171875 C 566.738281 57.589844 566.285156 57.101562 565.71875 56.773438 L 551.332031 48.445312 C 546.542969 45.75 541.042969 44.589844 535.578125 45.125 C 530.109375 45.660156 524.9375 47.859375 520.761719 51.429688 L 518.761719 53.089844 C 518.101562 53.640625 517.539062 54.304688 517.109375 55.050781 Z M 560.441406 80.125 " fill-opacity="1" fill-rule="nonzero"/></g></g></g></g><g clip-path="url(#aa07359fc6)"><g clip-path="url(#3d80c68c5c)"><g clip-path="url(#aede4a65f5)"><g clip-path="url(#b29a98eaff)"><path stroke-linecap="round" transform="matrix(-0.713663, 1.233414, -1.233414, -0.713663, 576.092328, 57.62804)" fill="none" stroke-linejoin="round" d="M 3.126701 6.601325 L 3.124355 18.266825 C 3.170321 22.122998 4.398608 25.871469 6.644284 29.002768 C 8.891332 32.13644 12.044805 34.504954 15.681012 35.786564 L 17.392301 36.417915 C 18.53803 36.838109 19.791994 36.837804 20.936938 36.419192 L 22.648548 35.786715 C 26.285534 34.502586 29.438964 32.136427 31.685859 29.002651 C 33.930383 25.870247 35.159705 22.121778 35.203513 18.2675 L 35.205858 6.602001 C 35.203728 6.144015 35.066996 5.694237 34.811631 5.3131 C 34.560011 4.932964 34.198993 4.631961 33.776764 4.455052 C 29.148963 2.521548 24.179551 1.552122 19.165306 1.599915 C 14.15121 1.549444 9.178681 2.523206 4.550646 4.453605 C 4.131697 4.632671 3.769154 4.931118 3.516215 5.314997 C 3.264277 5.69513 3.126943 6.141967 3.126701 6.601325 Z M 3.126701 6.601325 " stroke="#16262e" stroke-width="1.67" stroke-opacity="1" stroke-miterlimit="4"/></g></g></g></g><g clip-path="url(#bf0744f616)"><g clip-path="url(#90ab808cd3)"><g clip-path="url(#0ba70449c1)"><g clip-path="url(#40bd3d8ad9)"><path fill="#3c7a89" d="M 532.183594 63.773438 C 529.171875 68.976562 530.949219 75.632812 536.152344 78.644531 C 541.355469 81.652344 548.011719 79.875 551.023438 74.675781 C 554.035156 69.472656 552.257812 62.8125 547.054688 59.800781 C 541.851562 56.792969 535.191406 58.570312 532.183594 63.773438 Z M 532.183594 63.773438 " fill-opacity="1" fill-rule="nonzero"/></g></g></g></g><g clip-path="url(#33822f8c58)"><g clip-path="url(#a6cad17a1a)"><g clip-path="url(#cfef06d972)"><g clip-path="url(#c85f42506b)"><path fill="#90e39a" d="M 532.183594 63.773438 C 533.628906 61.273438 536.007812 59.453125 538.796875 58.707031 C 541.585938 57.964844 544.554688 58.355469 547.054688 59.800781 C 549.550781 61.25 551.375 63.628906 552.117188 66.417969 C 552.863281 69.203125 552.46875 72.175781 551.023438 74.675781 Z M 532.183594 63.773438 " fill-opacity="1" fill-rule="nonzero"/></g></g></g></g><g clip-path="url(#62adb79a0c)"><g clip-path="url(#9792b21fc6)"><g clip-path="url(#bc80cb0609)"><g clip-path="url(#90eac78773)"><path stroke-linecap="round" transform="matrix(-0.713663, 1.233414, -1.233414, -0.713663, 576.092328, 57.62804)" fill="none" stroke-linejoin="round" d="M 26.802445 16.873552 C 26.802435 18.384228 26.355811 19.861951 25.514937 21.118074 C 24.676436 22.372823 23.482155 23.352042 22.087826 23.930786 C 20.692124 24.507156 19.156438 24.660967 17.674431 24.365672 C 16.192423 24.070376 14.831514 23.343971 13.762864 22.274278 C 12.695587 21.206956 11.967753 19.845053 11.674835 18.364519 C 11.378172 16.882986 11.531391 15.347003 12.108347 13.952219 C 12.687676 12.556062 13.666254 11.362779 14.919433 10.523668 C 16.176358 9.685556 17.654684 9.235564 19.165359 9.235574 " stroke="#16262e" stroke-width="1.67" stroke-opacity="1" stroke-miterlimit="4"/></g></g></g></g><g clip-path="url(#6aa403efe9)"><g clip-path="url(#b55016c35c)"><g clip-path="url(#ede7d31800)"><g clip-path="url(#03c0693b04)"><path stroke-linecap="round" transform="matrix(-0.713663, 1.233414, -1.233414, -0.713663, 576.092328, 57.62804)" fill="none" stroke-linejoin="round" d="M 16.110044 16.111809 L 18.583788 17.967851 C 18.739458 18.083636 18.937972 18.136627 19.130636 18.113827 C 19.325672 18.089654 19.505369 17.995181 19.630018 17.843883 L 26.802391 9.237893 " stroke="#16262e" stroke-width="1.67" stroke-opacity="1" stroke-miterlimit="4"/></g></g></g></g><path fill="#3c7a89" d="M 625.378906 275.914062 C 624.800781 275.914062 624.246094 276.144531 623.835938 276.550781 C 623.429688 276.960938 623.199219 277.511719 623.199219 278.089844 L 623.199219 304.214844 C 623.199219 304.789062 623.429688 305.34375 623.835938 305.753906 C 624.246094 306.160156 624.800781 306.390625 625.378906 306.390625 L 646.890625 306.390625 C 647.292969 306.390625 647.6875 306.503906 648.03125 306.714844 C 648.375 306.929688 648.65625 307.234375 648.835938 307.59375 L 650.898438 311.71875 C 651.078125 312.078125 651.355469 312.382812 651.699219 312.59375 C 652.042969 312.808594 652.441406 312.921875 652.84375 312.921875 L 664.5625 312.921875 C 665.136719 312.921875 665.691406 312.691406 666.101562 312.285156 C 666.507812 311.875 666.738281 311.320312 666.738281 310.742188 L 666.738281 278.089844 C 666.738281 277.511719 666.507812 276.960938 666.101562 276.550781 C 665.691406 276.144531 665.136719 275.914062 664.5625 275.914062 Z M 625.378906 275.914062 " fill-opacity="1" fill-rule="nonzero"/><path fill="#90e39a" d="M 646.890625 306.390625 C 647.292969 306.390625 647.6875 306.503906 648.03125 306.714844 C 648.375 306.929688 648.65625 307.234375 648.835938 307.59375 L 650.898438 311.71875 C 651.078125 312.078125 651.355469 312.382812 651.699219 312.59375 C 652.042969 312.808594 652.441406 312.921875 652.84375 312.921875 L 664.5625 312.921875 C 665.136719 312.921875 665.691406 312.691406 666.101562 312.285156 C 666.507812 311.875 666.738281 311.320312 666.738281 310.742188 L 666.738281 278.089844 C 666.738281 277.511719 666.507812 276.960938 666.101562 276.550781 C 665.691406 276.144531 665.136719 275.914062 664.5625 275.914062 L 663.039062 275.914062 L 632.5625 306.390625 Z M 646.890625 306.390625 " fill-opacity="1" fill-rule="nonzero"/><path stroke-linecap="round" transform="matrix(-1.425, 0, 0, -1.425, 669.014924, 315.196764)" fill="none" stroke-linejoin="round" d="M 32.151371 13.819548 L 32.151371 7.70661 C 32.151371 7.30365 31.989638 6.914395 31.704551 6.626566 C 31.416722 6.341479 31.027467 6.179746 30.621766 6.179746 L 15.525823 6.179746 C 15.243477 6.179746 14.966613 6.100251 14.725385 5.952224 C 14.484157 5.801457 14.286788 5.587641 14.160692 5.335448 L 12.713323 2.440711 C 12.587227 2.188518 12.3926 1.974702 12.151372 1.826676 C 11.910144 1.675909 11.630538 1.596413 11.348192 1.596413 L 3.124508 1.596413 C 2.721548 1.596413 2.332293 1.758145 2.044464 2.043233 C 1.759377 2.331062 1.597644 2.720316 1.597644 3.126018 L 1.597644 26.039943 C 1.597644 26.445644 1.759377 26.832158 2.044464 27.119987 C 2.332293 27.405074 2.721548 27.566807 3.124508 27.566807 L 13.818038 27.566807 " stroke="#16262e" stroke-width="1.67" stroke-opacity="1" stroke-miterlimit="4"/><path stroke-linecap="round" transform="matrix(-1.425, 0, 0, -1.425, 669.014924, 315.196764)" fill-opacity="1" fill="#3c7a89" fill-rule="nonzero" stroke-linejoin="round" d="M 21.838871 32.15014 C 22.748959 32.15014 23.623411 31.788298 24.267599 31.144109 C 24.911788 30.499921 25.276371 29.625469 25.276371 28.71264 C 25.276371 27.802552 24.911788 26.928101 24.267599 26.281171 C 23.623411 25.636982 22.748959 25.27514 21.838871 25.27514 C 20.926042 25.27514 20.051591 25.636982 19.407402 26.281171 C 18.763213 26.928101 18.401371 27.802552 18.401371 28.71264 C 18.401371 29.625469 18.763213 30.499921 19.407402 31.144109 C 20.051591 31.788298 20.926042 32.15014 21.838871 32.15014 Z M 21.838871 32.15014 " stroke="#16262e" stroke-width="1.67" stroke-opacity="1" stroke-miterlimit="4"/><path stroke-linecap="round" transform="matrix(-1.425, 0, 0, -1.425, 669.014924, 315.196764)" fill-opacity="1" fill="#3c7a89" fill-rule="nonzero" stroke-linejoin="round" d="M 33.297204 36.733473 C 33.746765 36.733473 34.193586 36.643012 34.610252 36.470315 C 35.02966 36.297618 35.40795 36.045425 35.725932 35.727442 C 36.046656 35.406719 36.298849 35.028429 36.471546 34.611763 C 36.644243 34.195096 36.731963 33.748276 36.731963 33.295973 C 36.731963 32.84367 36.644243 32.39685 36.471546 31.980184 C 36.298849 31.563517 36.046656 31.185228 35.725932 30.864504 C 35.40795 30.546521 35.02966 30.291587 34.610252 30.11889 C 34.193586 29.946193 33.746765 29.858473 33.297204 29.858473 C 32.384375 29.858473 31.509923 30.220315 30.865735 30.864504 C 30.221546 31.508692 29.859704 32.383144 29.859704 33.295973 C 29.859704 34.206061 30.221546 35.080512 30.865735 35.727442 C 31.509923 36.371631 32.384375 36.733473 33.297204 36.733473 Z M 33.297204 36.733473 " stroke="#16262e" stroke-width="1.67" stroke-opacity="1" stroke-miterlimit="4"/><path stroke-linecap="round" transform="matrix(-1.425, 0, 0, -1.425, 669.014924, 315.196764)" fill-opacity="1" fill="#3c7a89" fill-rule="nonzero" stroke-linejoin="round" d="M 33.297204 25.27514 C 33.746765 25.27514 34.193586 25.187421 34.610252 25.014723 C 35.02966 24.842026 35.40795 24.587092 35.725932 24.269109 C 36.046656 23.948386 36.298849 23.570096 36.471546 23.15343 C 36.644243 22.736763 36.731963 22.289943 36.731963 21.83764 C 36.731963 21.388079 36.644243 20.941259 36.471546 20.521851 C 36.298849 20.105184 36.046656 19.726895 35.725932 19.408912 C 35.40795 19.088189 35.02966 18.835996 34.610252 18.663298 C 34.193586 18.490601 33.746765 18.40014 33.297204 18.40014 C 32.384375 18.40014 31.509923 18.761982 30.865735 19.408912 C 30.221546 20.053101 29.859704 20.927553 29.859704 21.83764 C 29.859704 22.750469 30.221546 23.624921 30.865735 24.269109 C 31.509923 24.913298 32.384375 25.27514 33.297204 25.27514 Z M 33.297204 25.27514 " stroke="#16262e" stroke-width="1.67" stroke-opacity="1" stroke-miterlimit="4"/><path stroke-linecap="round" transform="matrix(-1.425, 0, 0, -1.425, 669.014924, 315.196764)" fill="none" stroke-linejoin="round" d="M 24.780209 26.947289 L 30.355867 23.602991 " stroke="#16262e" stroke-width="1.67" stroke-opacity="1" stroke-miterlimit="4"/><path stroke-linecap="round" transform="matrix(-1.425, 0, 0, -1.425, 669.014924, 315.196764)" fill="none" stroke-linejoin="round" d="M 25.029661 29.987311 L 30.106415 32.021302 " stroke="#16262e" stroke-width="1.67" stroke-opacity="1" stroke-miterlimit="4"/><g clip-path="url(#c7d285c325)"><g clip-path="url(#3470bfd82b)"><g clip-path="url(#f170de19fc)"><g clip-path="url(#35536a8fc4)"><path fill="#ffffff" d="M 291.035156 73.507812 L 273.570312 43.375 C 272.992188 42.378906 272.832031 41.1875 273.128906 40.074219 C 273.425781 38.957031 274.152344 38.003906 275.152344 37.425781 C 276.152344 36.847656 277.339844 36.6875 278.457031 36.984375 C 279.570312 37.28125 280.523438 38.011719 281.101562 39.007812 L 298.570312 69.144531 Z M 291.035156 73.507812 " fill-opacity="1" fill-rule="nonzero"/></g></g></g></g><g clip-path="url(#bccd7c6ee7)"><g clip-path="url(#4f06364f14)"><g clip-path="url(#33877f898c)"><g clip-path="url(#36fc1c8dfa)"><path fill="#3c7a89" d="M 290.246094 76.484375 L 258.226562 95.042969 C 257.730469 95.332031 257.132812 95.414062 256.578125 95.265625 C 256.019531 95.117188 255.542969 94.75 255.253906 94.253906 L 237.785156 64.117188 C 237.207031 63.121094 237.046875 61.933594 237.34375 60.816406 C 237.640625 59.699219 238.371094 58.746094 239.367188 58.167969 L 275.152344 37.425781 C 274.152344 38.003906 273.425781 38.957031 273.128906 40.074219 C 272.832031 41.1875 272.988281 42.378906 273.570312 43.375 L 291.035156 73.507812 C 291.328125 74.007812 291.40625 74.601562 291.257812 75.160156 C 291.109375 75.71875 290.746094 76.195312 290.246094 76.484375 Z M 290.246094 76.484375 " fill-opacity="1" fill-rule="nonzero"/></g></g></g></g><g clip-path="url(#ca54674938)"><g clip-path="url(#1a45b5e47a)"><g clip-path="url(#9ee0e155d4)"><g clip-path="url(#1e17b38400)"><path fill="#e5dada" d="M 243.097656 64.601562 L 275.117188 46.042969 L 273.5625 43.367188 C 272.984375 42.367188 272.828125 41.179688 273.125 40.0625 C 273.421875 38.949219 274.148438 37.996094 275.148438 37.417969 L 239.363281 58.160156 C 238.363281 58.738281 237.636719 59.691406 237.339844 60.808594 C 237.042969 61.921875 237.203125 63.109375 237.78125 64.109375 L 241.515625 70.554688 C 240.9375 69.554688 240.777344 68.367188 241.074219 67.25 C 241.371094 66.132812 242.101562 65.183594 243.097656 64.601562 Z M 243.097656 64.601562 " fill-opacity="1" fill-rule="nonzero"/></g></g></g></g><g clip-path="url(#25ccd5b4a7)"><g clip-path="url(#a29a6c3aa2)"><g clip-path="url(#dab157dd81)"><g clip-path="url(#2ef3d1a888)"><path stroke-linecap="round" transform="matrix(0.714644, 1.232846, -1.232846, 0.714644, 278.654578, 30.247824)" fill="none" stroke-linejoin="round" d="M 19.293684 36.73325 L 6.185805 36.733025 C 5.375218 36.732087 4.597891 36.411402 4.026468 35.839361 C 3.452675 35.265945 3.131083 34.487023 3.130647 33.678807 L 3.131493 4.652836 " stroke="#16262e" stroke-width="1.67" stroke-opacity="1" stroke-miterlimit="4"/></g></g></g></g><g clip-path="url(#a62f3323c0)"><g clip-path="url(#7242e36b99)"><g clip-path="url(#e0242bdf43)"><g clip-path="url(#725d5a0dff)"><path stroke-linecap="round" transform="matrix(0.714644, 1.232846, -1.232846, 0.714644, 278.654578, 30.247824)" fill="none" stroke-linejoin="round" d="M 32.154622 1.597619 L 6.185712 1.597677 C 5.375124 1.596739 4.598573 1.919705 4.026532 2.491128 C 3.453116 3.064922 3.132431 3.842248 3.131493 4.652836 C 3.130555 5.463424 3.453521 6.239975 4.024943 6.812016 C 4.598737 7.385432 5.374689 7.708488 6.186652 7.707055 L 30.62753 7.708417 C 31.034199 7.706515 31.422175 7.868043 31.709072 8.154751 C 31.995969 8.441459 32.157452 8.829734 32.156983 9.235028 L 32.156457 19.205936 " stroke="#16262e" stroke-width="1.67" stroke-opacity="1" stroke-miterlimit="4"/></g></g></g></g><g clip-path="url(#0478238d55)"><g clip-path="url(#79856564c4)"><g clip-path="url(#f5467271fc)"><g clip-path="url(#0b9707b845)"><path stroke-linecap="round" transform="matrix(0.714644, 1.232846, -1.232846, 0.714644, 278.654578, 30.247824)" fill="none" stroke-linejoin="round" d="M 6.186182 4.652366 L 30.628435 4.651357 " stroke="#16262e" stroke-width="1.67" stroke-opacity="1" stroke-miterlimit="4"/></g></g></g></g><g clip-path="url(#6fef84b2bb)"><g clip-path="url(#8af8a8833b)"><g clip-path="url(#d143a20f10)"><g clip-path="url(#e6a089c693)"><path fill="#ffffff" d="M 255.125 85.605469 C 256.101562 87.292969 257.558594 88.652344 259.308594 89.511719 C 261.058594 90.371094 263.023438 90.691406 264.957031 90.433594 C 266.890625 90.175781 268.703125 89.347656 270.167969 88.0625 C 271.632812 86.773438 272.679688 85.078125 273.179688 83.195312 C 273.683594 81.3125 273.613281 79.320312 272.984375 77.472656 C 272.355469 75.628906 271.191406 74.011719 269.640625 72.828125 C 268.09375 71.644531 266.226562 70.945312 264.28125 70.820312 C 262.335938 70.695312 260.394531 71.152344 258.710938 72.128906 C 256.445312 73.441406 254.796875 75.597656 254.125 78.125 C 253.453125 80.652344 253.8125 83.34375 255.125 85.605469 Z M 255.125 85.605469 " fill-opacity="1" fill-rule="nonzero"/></g></g></g></g><g clip-path="url(#4ba3e36814)"><g clip-path="url(#88bfaef008)"><g clip-path="url(#3e018e144e)"><g clip-path="url(#450a10f992)"><path stroke-linecap="round" transform="matrix(0.714644, 1.232846, -1.232846, 0.714644, 278.654578, 30.247824)" fill="none" stroke-linejoin="round" d="M 25.328251 33.767605 C 26.696462 33.768595 28.034551 33.362402 29.172183 32.602373 C 30.309815 31.842345 31.195778 30.762165 31.719749 29.497496 C 32.243719 28.232828 32.378821 26.840967 32.114096 25.499333 C 31.846999 24.156324 31.18616 22.924102 30.219021 21.957915 C 29.253257 20.989357 28.019002 20.330929 26.675909 20.062503 C 25.335187 19.795453 23.943678 19.933044 22.679316 20.458019 C 21.416328 20.980622 20.33469 21.868162 19.574179 23.005221 C 18.813669 24.14228 18.4079 25.481803 18.408285 26.847642 C 18.40779 28.685075 19.136767 30.44474 20.434729 31.742108 C 21.732691 33.039477 23.49319 33.768485 25.328251 33.767605 Z M 25.328251 33.767605 " stroke="#16262e" stroke-width="1.67" stroke-opacity="1" stroke-miterlimit="4"/></g></g></g></g><g clip-path="url(#15ff6a7a3f)"><g clip-path="url(#a72667e86d)"><g clip-path="url(#27dfe933d0)"><g clip-path="url(#61de336abe)"><path stroke-linecap="round" transform="matrix(0.714644, 1.232846, -1.232846, 0.714644, 278.654578, 30.247824)" fill="none" stroke-linejoin="round" d="M 35.211776 36.733872 L 30.252793 31.771269 " stroke="#16262e" stroke-width="1.67" stroke-opacity="1" stroke-miterlimit="4"/></g></g></g></g><g clip-path="url(#168889a3aa)"><g clip-path="url(#af5601b50b)"><g clip-path="url(#5f5c96a542)"><g clip-path="url(#ea4ad4b680)"><path fill="#e3e3e3" d="M 255.125 85.605469 C 256.101562 87.292969 257.558594 88.652344 259.308594 89.511719 C 261.058594 90.371094 263.023438 90.691406 264.957031 90.433594 C 266.890625 90.175781 268.703125 89.347656 270.167969 88.0625 C 271.632812 86.773438 272.679688 85.078125 273.179688 83.195312 C 273.683594 81.3125 273.613281 79.320312 272.984375 77.472656 C 272.355469 75.628906 271.191406 74.011719 269.640625 72.828125 C 268.09375 71.644531 266.226562 70.945312 264.28125 70.820312 C 262.335938 70.695312 260.394531 71.152344 258.710938 72.128906 C 256.445312 73.441406 254.796875 75.597656 254.125 78.125 C 253.453125 80.652344 253.8125 83.34375 255.125 85.605469 Z M 255.125 85.605469 " fill-opacity="1" fill-rule="nonzero"/></g></g></g></g><g clip-path="url(#15bd93e350)"><g clip-path="url(#c28bd02912)"><g clip-path="url(#1007f3dbdd)"><g clip-path="url(#70a3fbf7a2)"><path fill="#ffffff" d="M 272.183594 75.714844 C 271.207031 74.023438 269.746094 72.664062 267.992188 71.804688 C 266.238281 70.945312 264.265625 70.625 262.332031 70.886719 C 260.394531 71.152344 258.582031 71.984375 257.121094 73.277344 C 255.65625 74.574219 254.613281 76.273438 254.121094 78.164062 L 273.160156 83.230469 C 273.503906 81.976562 273.59375 80.664062 273.425781 79.375 C 273.257812 78.082031 272.835938 76.839844 272.183594 75.714844 Z M 272.183594 75.714844 " fill-opacity="1" fill-rule="nonzero"/></g></g></g></g><g clip-path="url(#7e0e49505e)"><g clip-path="url(#64b6eb9e08)"><g clip-path="url(#55da54d440)"><g clip-path="url(#ee2e400070)"><path stroke-linecap="round" transform="matrix(0.714644, 1.232846, -1.232846, 0.714644, 278.654578, 30.247824)" fill="none" stroke-linejoin="round" d="M 25.328251 33.767605 C 26.696462 33.768595 28.034551 33.362402 29.172183 32.602373 C 30.309815 31.842345 31.195778 30.762165 31.719749 29.497496 C 32.243719 28.232828 32.378821 26.840967 32.114096 25.499333 C 31.846999 24.156324 31.18616 22.924102 30.219021 21.957915 C 29.253257 20.989357 28.019002 20.330929 26.675909 20.062503 C 25.335187 19.795453 23.943678 19.933044 22.679316 20.458019 C 21.416328 20.980622 20.33469 21.868162 19.574179 23.005221 C 18.813669 24.14228 18.4079 25.481803 18.408285 26.847642 C 18.40779 28.685075 19.136767 30.44474 20.434729 31.742108 C 21.732691 33.039477 23.49319 33.768485 25.328251 33.767605 Z M 25.328251 33.767605 " stroke="#16262e" stroke-width="1.67" stroke-opacity="1" stroke-miterlimit="4"/></g></g></g></g><g clip-path="url(#68bb6cc03e)"><g clip-path="url(#c88aaed591)"><g clip-path="url(#a09c6657fd)"><g clip-path="url(#6717942c62)"><path stroke-linecap="round" transform="matrix(0.714644, 1.232846, -1.232846, 0.714644, 278.654578, 30.247824)" fill="none" stroke-linejoin="round" d="M 35.211776 36.733872 L 30.252793 31.771269 " stroke="#16262e" stroke-width="1.67" stroke-opacity="1" stroke-miterlimit="4"/></g></g></g></g><path fill="#16262e" d="M 145.703125 310.707031 C 145.703125 311.285156 145.472656 311.839844 145.0625 312.25 C 144.65625 312.65625 144.101562 312.886719 143.523438 312.886719 L 131.550781 312.886719 C 130.972656 312.886719 130.421875 312.65625 130.011719 312.25 C 129.605469 311.839844 129.375 311.285156 129.375 310.707031 L 129.375 264.992188 C 129.375 264.417969 129.605469 263.863281 130.011719 263.453125 C 130.421875 263.046875 130.972656 262.816406 131.550781 262.816406 L 143.523438 262.816406 C 144.101562 262.816406 144.65625 263.046875 145.0625 263.453125 C 145.472656 263.863281 145.703125 264.417969 145.703125 264.992188 Z M 145.703125 310.707031 " fill-opacity="1" fill-rule="nonzero"/><path fill="#90e39a" d="M 163.117188 310.707031 C 163.117188 311.285156 162.886719 311.839844 162.480469 312.25 C 162.070312 312.65625 161.515625 312.886719 160.941406 312.886719 L 147.878906 312.886719 C 147.300781 312.886719 146.746094 312.65625 146.339844 312.25 C 145.929688 311.839844 145.703125 311.285156 145.703125 310.707031 L 145.703125 264.992188 C 145.703125 264.417969 145.929688 263.863281 146.339844 263.453125 C 146.746094 263.046875 147.300781 262.816406 147.878906 262.816406 L 160.941406 262.816406 C 161.515625 262.816406 162.070312 263.046875 162.480469 263.453125 C 162.886719 263.863281 163.117188 264.417969 163.117188 264.992188 Z M 163.117188 310.707031 " fill-opacity="1" fill-rule="nonzero"/><path fill="#3c7a89" d="M 179.441406 310.707031 C 179.441406 311.285156 179.214844 311.839844 178.804688 312.25 C 178.398438 312.65625 177.84375 312.886719 177.265625 312.886719 L 165.292969 312.886719 C 164.714844 312.886719 164.160156 312.65625 163.753906 312.25 C 163.34375 311.839844 163.117188 311.285156 163.117188 310.707031 L 163.117188 264.992188 C 163.117188 264.417969 163.34375 263.863281 163.753906 263.453125 C 164.160156 263.046875 164.714844 262.816406 165.292969 262.816406 L 177.265625 262.816406 C 177.84375 262.816406 178.398438 263.046875 178.804688 263.453125 C 179.214844 263.863281 179.441406 264.417969 179.441406 264.992188 Z M 179.441406 310.707031 " fill-opacity="1" fill-rule="nonzero"/><path fill="#ffffff" d="M 136.992188 306.355469 C 137.640625 306.355469 138.269531 306.164062 138.808594 305.804688 C 139.34375 305.445312 139.761719 304.9375 140.011719 304.339844 C 140.257812 303.742188 140.320312 303.085938 140.195312 302.453125 C 140.070312 301.820312 139.757812 301.238281 139.300781 300.78125 C 138.84375 300.324219 138.261719 300.011719 137.628906 299.886719 C 136.996094 299.761719 136.339844 299.824219 135.742188 300.074219 C 135.148438 300.320312 134.636719 300.738281 134.277344 301.277344 C 133.917969 301.8125 133.726562 302.445312 133.726562 303.089844 C 133.726562 303.957031 134.070312 304.785156 134.683594 305.398438 C 135.296875 306.011719 136.128906 306.355469 136.992188 306.355469 Z M 136.992188 306.355469 " fill-opacity="1" fill-rule="nonzero"/><path fill="#ffffff" d="M 154.410156 306.355469 C 155.054688 306.355469 155.6875 306.164062 156.222656 305.804688 C 156.761719 305.445312 157.179688 304.9375 157.425781 304.339844 C 157.671875 303.742188 157.738281 303.085938 157.609375 302.453125 C 157.484375 301.820312 157.175781 301.238281 156.71875 300.78125 C 156.261719 300.324219 155.679688 300.011719 155.046875 299.886719 C 154.414062 299.761719 153.757812 299.824219 153.160156 300.074219 C 152.5625 300.320312 152.050781 300.738281 151.695312 301.277344 C 151.335938 301.8125 151.144531 302.445312 151.144531 303.089844 C 151.144531 303.957031 151.488281 304.785156 152.097656 305.398438 C 152.710938 306.011719 153.542969 306.355469 154.410156 306.355469 Z M 154.410156 306.355469 " fill-opacity="1" fill-rule="nonzero"/><path fill="#ffffff" d="M 171.824219 306.355469 C 172.46875 306.355469 173.101562 306.164062 173.636719 305.804688 C 174.175781 305.445312 174.59375 304.9375 174.839844 304.339844 C 175.089844 303.742188 175.152344 303.085938 175.027344 302.453125 C 174.902344 301.820312 174.589844 301.238281 174.132812 300.78125 C 173.675781 300.324219 173.09375 300.011719 172.460938 299.886719 C 171.828125 299.761719 171.171875 299.824219 170.574219 300.074219 C 169.976562 300.320312 169.46875 300.738281 169.109375 301.277344 C 168.75 301.8125 168.558594 302.445312 168.558594 303.089844 C 168.558594 303.957031 168.902344 304.785156 169.515625 305.398438 C 170.128906 306.011719 170.957031 306.355469 171.824219 306.355469 Z M 171.824219 306.355469 " fill-opacity="1" fill-rule="nonzero"/><path fill="#138a36" d="M 140.257812 268.257812 L 140.257812 273.703125 L 133.726562 273.703125 L 133.726562 268.257812 C 133.726562 267.96875 133.84375 267.695312 134.046875 267.488281 C 134.25 267.285156 134.527344 267.171875 134.816406 267.171875 L 139.171875 267.171875 C 139.457031 267.171875 139.734375 267.285156 139.941406 267.488281 C 140.144531 267.695312 140.257812 267.96875 140.257812 268.257812 Z M 140.257812 268.257812 " fill-opacity="1" fill-rule="nonzero"/><path fill="#ffffff" d="M 140.257812 273.703125 L 140.257812 292.207031 C 140.257812 292.492188 140.144531 292.769531 139.941406 292.976562 C 139.734375 293.179688 139.457031 293.292969 139.171875 293.292969 L 134.816406 293.292969 C 134.527344 293.292969 134.25 293.179688 134.046875 292.976562 C 133.84375 292.769531 133.726562 292.492188 133.726562 292.207031 L 133.726562 273.703125 Z M 140.257812 273.703125 " fill-opacity="1" fill-rule="nonzero"/><path fill="#138a36" d="M 157.675781 268.257812 L 157.675781 273.703125 L 151.144531 273.703125 L 151.144531 268.257812 C 151.144531 267.96875 151.257812 267.695312 151.460938 267.488281 C 151.667969 267.285156 151.941406 267.171875 152.230469 267.171875 L 156.585938 267.171875 C 156.875 267.171875 157.152344 267.285156 157.355469 267.488281 C 157.558594 267.695312 157.675781 267.96875 157.675781 268.257812 Z M 157.675781 268.257812 " fill-opacity="1" fill-rule="nonzero"/><path fill="#ffffff" d="M 157.675781 273.703125 L 157.675781 292.207031 C 157.675781 292.492188 157.558594 292.769531 157.355469 292.976562 C 157.152344 293.179688 156.875 293.292969 156.585938 293.292969 L 152.230469 293.292969 C 151.941406 293.292969 151.667969 293.179688 151.460938 292.976562 C 151.257812 292.769531 151.144531 292.492188 151.144531 292.207031 L 151.144531 273.703125 Z M 157.675781 273.703125 " fill-opacity="1" fill-rule="nonzero"/><path fill="#138a36" d="M 175.089844 268.257812 L 175.089844 273.703125 L 168.558594 273.703125 L 168.558594 268.257812 C 168.558594 267.96875 168.671875 267.695312 168.878906 267.488281 C 169.082031 267.285156 169.359375 267.171875 169.648438 267.171875 L 174 267.171875 C 174.289062 267.171875 174.566406 267.285156 174.769531 267.488281 C 174.976562 267.695312 175.089844 267.96875 175.089844 268.257812 Z M 175.089844 268.257812 " fill-opacity="1" fill-rule="nonzero"/><path fill="#ffffff" d="M 175.089844 273.703125 L 175.089844 292.207031 C 175.089844 292.492188 174.976562 292.769531 174.769531 292.976562 C 174.566406 293.179688 174.289062 293.292969 174 293.292969 L 169.648438 293.292969 C 169.359375 293.292969 169.082031 293.179688 168.878906 292.976562 C 168.671875 292.769531 168.558594 292.492188 168.558594 292.207031 L 168.558594 273.703125 Z M 175.089844 273.703125 " fill-opacity="1" fill-rule="nonzero"/><path stroke-linecap="round" transform="matrix(1.425, 0, 0, 1.425, 127.098026, 260.541338)" fill="none" stroke-linejoin="round" d="M 13.056209 35.203994 C 13.056209 35.609696 12.894477 35.99895 12.606648 36.286779 C 12.32156 36.571867 11.932306 36.733599 11.526604 36.733599 L 3.12474 36.733599 C 2.719039 36.733599 2.332526 36.571867 2.044697 36.286779 C 1.759609 35.99895 1.597876 35.609696 1.597876 35.203994 L 1.597876 3.123403 C 1.597876 2.720443 1.759609 2.331188 2.044697 2.043359 C 2.332526 1.758272 2.719039 1.596539 3.12474 1.596539 L 11.526604 1.596539 C 11.932306 1.596539 12.32156 1.758272 12.606648 2.043359 C 12.894477 2.331188 13.056209 2.720443 13.056209 3.123403 Z M 13.056209 35.203994 " stroke="#16262e" stroke-width="1.67" stroke-opacity="1" stroke-miterlimit="4"/><path stroke-linecap="round" transform="matrix(1.425, 0, 0, 1.425, 127.098026, 260.541338)" fill="none" stroke-linejoin="round" d="M 25.276604 35.203994 C 25.276604 35.609696 25.114871 35.99895 24.829783 36.286779 C 24.541954 36.571867 24.1527 36.733599 23.74974 36.733599 L 14.583073 36.733599 C 14.177372 36.733599 13.788117 36.571867 13.503029 36.286779 C 13.215201 35.99895 13.056209 35.609696 13.056209 35.203994 L 13.056209 3.123403 C 13.056209 2.720443 13.215201 2.331188 13.503029 2.043359 C 13.788117 1.758272 14.177372 1.596539 14.583073 1.596539 L 23.74974 1.596539 C 24.1527 1.596539 24.541954 1.758272 24.829783 2.043359 C 25.114871 2.331188 25.276604 2.720443 25.276604 3.123403 Z M 25.276604 35.203994 " stroke="#16262e" stroke-width="1.67" stroke-opacity="1" stroke-miterlimit="4"/><path stroke-linecap="round" transform="matrix(1.425, 0, 0, 1.425, 127.098026, 260.541338)" fill="none" stroke-linejoin="round" d="M 36.732195 35.203994 C 36.732195 35.609696 36.573204 35.99895 36.285375 36.286779 C 36.000287 36.571867 35.611033 36.733599 35.205331 36.733599 L 26.803468 36.733599 C 26.397766 36.733599 26.008511 36.571867 25.723424 36.286779 C 25.435595 35.99895 25.276604 35.609696 25.276604 35.203994 L 25.276604 3.123403 C 25.276604 2.720443 25.435595 2.331188 25.723424 2.043359 C 26.008511 1.758272 26.397766 1.596539 26.803468 1.596539 L 35.205331 1.596539 C 35.611033 1.596539 36.000287 1.758272 36.285375 2.043359 C 36.573204 2.331188 36.732195 2.720443 36.732195 3.123403 Z M 36.732195 35.203994 " stroke="#16262e" stroke-width="1.67" stroke-opacity="1" stroke-miterlimit="4"/><path stroke-linecap="round" transform="matrix(1.425, 0, 0, 1.425, 127.098026, 260.541338)" fill="none" stroke-linejoin="round" d="M 6.943271 32.150266 C 7.398315 32.150266 7.839653 32.015946 8.217942 31.763753 C 8.59349 31.51156 8.886802 31.1552 9.06224 30.735792 C 9.234938 30.316384 9.278797 29.855858 9.191078 29.411779 C 9.103359 28.9677 8.88406 28.559257 8.563337 28.238534 C 8.242613 27.91781 7.83417 27.698512 7.390091 27.610792 C 6.946012 27.523073 6.485486 27.566933 6.066078 27.742371 C 5.649411 27.915069 5.290311 28.20838 5.038118 28.58667 C 4.785925 28.962218 4.651604 29.406297 4.651604 29.858599 C 4.651604 30.467152 4.892832 31.048292 5.323205 31.478665 C 5.753578 31.909038 6.33746 32.150266 6.943271 32.150266 Z M 6.943271 32.150266 " stroke="#16262e" stroke-width="1.67" stroke-opacity="1" stroke-miterlimit="4"/><path stroke-linecap="round" transform="matrix(1.425, 0, 0, 1.425, 127.098026, 260.541338)" fill="none" stroke-linejoin="round" d="M 19.166406 32.150266 C 19.618709 32.150266 20.062788 32.015946 20.438336 31.763753 C 20.816626 31.51156 21.109937 31.1552 21.282634 30.735792 C 21.455332 30.316384 21.501933 29.855858 21.411472 29.411779 C 21.323753 28.9677 21.107196 28.559257 20.786472 28.238534 C 20.465748 27.91781 20.057306 27.698512 19.613227 27.610792 C 19.169148 27.523073 18.708621 27.566933 18.289213 27.742371 C 17.869806 27.915069 17.510705 28.20838 17.261253 28.58667 C 17.00906 28.962218 16.87474 29.406297 16.87474 29.858599 C 16.87474 30.467152 17.115968 31.048292 17.543599 31.478665 C 17.973972 31.909038 18.557854 32.150266 19.166406 32.150266 Z M 19.166406 32.150266 " stroke="#16262e" stroke-width="1.67" stroke-opacity="1" stroke-miterlimit="4"/><path stroke-linecap="round" transform="matrix(1.425, 0, 0, 1.425, 127.098026, 260.541338)" fill="none" stroke-linejoin="round" d="M 31.386801 32.150266 C 31.839103 32.150266 32.283182 32.015946 32.65873 31.763753 C 33.03702 31.51156 33.330331 31.1552 33.503029 30.735792 C 33.678467 30.316384 33.722327 29.855858 33.634608 29.411779 C 33.546888 28.9677 33.32759 28.559257 33.006866 28.238534 C 32.686143 27.91781 32.2777 27.698512 31.833621 27.610792 C 31.389542 27.523073 30.929016 27.566933 30.509608 27.742371 C 30.0902 27.915069 29.73384 28.20838 29.481647 28.58667 C 29.229454 28.962218 29.095134 29.406297 29.095134 29.858599 C 29.095134 30.467152 29.336362 31.048292 29.766735 31.478665 C 30.197108 31.909038 30.778248 32.150266 31.386801 32.150266 Z M 31.386801 32.150266 " stroke="#16262e" stroke-width="1.67" stroke-opacity="1" stroke-miterlimit="4"/><path stroke-linecap="round" transform="matrix(1.425, 0, 0, 1.425, 127.098026, 260.541338)" fill="none" stroke-linejoin="round" d="M 9.234938 5.41507 L 9.234938 9.236341 L 4.651604 9.236341 L 4.651604 5.41507 C 4.651604 5.212219 4.733841 5.020333 4.876385 4.875048 C 5.018929 4.732504 5.213556 4.653008 5.416407 4.653008 L 8.472876 4.653008 C 8.672986 4.653008 8.867613 4.732504 9.012898 4.875048 C 9.155442 5.020333 9.234938 5.212219 9.234938 5.41507 Z M 9.234938 5.41507 " stroke="#16262e" stroke-width="1.67" stroke-opacity="1" stroke-miterlimit="4"/><path stroke-linecap="round" transform="matrix(1.425, 0, 0, 1.425, 127.098026, 260.541338)" fill="none" stroke-linejoin="round" d="M 9.234938 9.236341 L 9.234938 22.221538 C 9.234938 22.421648 9.155442 22.616275 9.012898 22.76156 C 8.867613 22.904104 8.672986 22.9836 8.472876 22.9836 L 5.416407 22.9836 C 5.213556 22.9836 5.018929 22.904104 4.876385 22.76156 C 4.733841 22.616275 4.651604 22.421648 4.651604 22.221538 L 4.651604 9.236341 Z M 9.234938 9.236341 " stroke="#16262e" stroke-width="1.67" stroke-opacity="1" stroke-miterlimit="4"/><path stroke-linecap="round" transform="matrix(1.425, 0, 0, 1.425, 127.098026, 260.541338)" fill="none" stroke-linejoin="round" d="M 21.458073 5.41507 L 21.458073 9.236341 L 16.87474 9.236341 L 16.87474 5.41507 C 16.87474 5.212219 16.954235 5.020333 17.096779 4.875048 C 17.242064 4.732504 17.43395 4.653008 17.636801 4.653008 L 20.69327 4.653008 C 20.896121 4.653008 21.090748 4.732504 21.233292 4.875048 C 21.375836 5.020333 21.458073 5.212219 21.458073 5.41507 Z M 21.458073 5.41507 " stroke="#16262e" stroke-width="1.67" stroke-opacity="1" stroke-miterlimit="4"/><path stroke-linecap="round" transform="matrix(1.425, 0, 0, 1.425, 127.098026, 260.541338)" fill="none" stroke-linejoin="round" d="M 21.458073 9.236341 L 21.458073 22.221538 C 21.458073 22.421648 21.375836 22.616275 21.233292 22.76156 C 21.090748 22.904104 20.896121 22.9836 20.69327 22.9836 L 17.636801 22.9836 C 17.43395 22.9836 17.242064 22.904104 17.096779 22.76156 C 16.954235 22.616275 16.87474 22.421648 16.87474 22.221538 L 16.87474 9.236341 Z M 21.458073 9.236341 " stroke="#16262e" stroke-width="1.67" stroke-opacity="1" stroke-miterlimit="4"/><path stroke-linecap="round" transform="matrix(1.425, 0, 0, 1.425, 127.098026, 260.541338)" fill="none" stroke-linejoin="round" d="M 33.678467 5.41507 L 33.678467 9.236341 L 29.095134 9.236341 L 29.095134 5.41507 C 29.095134 5.212219 29.17463 5.020333 29.319915 4.875048 C 29.462459 4.732504 29.657086 4.653008 29.859937 4.653008 L 32.913665 4.653008 C 33.116516 4.653008 33.311143 4.732504 33.453687 4.875048 C 33.598972 5.020333 33.678467 5.212219 33.678467 5.41507 Z M 33.678467 5.41507 " stroke="#16262e" stroke-width="1.67" stroke-opacity="1" stroke-miterlimit="4"/><path stroke-linecap="round" transform="matrix(1.425, 0, 0, 1.425, 127.098026, 260.541338)" fill="none" stroke-linejoin="round" d="M 33.678467 9.236341 L 33.678467 22.221538 C 33.678467 22.421648 33.598972 22.616275 33.453687 22.76156 C 33.311143 22.904104 33.116516 22.9836 32.913665 22.9836 L 29.859937 22.9836 C 29.657086 22.9836 29.462459 22.904104 29.319915 22.76156 C 29.17463 22.616275 29.095134 22.421648 29.095134 22.221538 L 29.095134 9.236341 Z M 33.678467 9.236341 " stroke="#16262e" stroke-width="1.67" stroke-opacity="1" stroke-miterlimit="4"/></svg>