<svg xmlns="http://www.w3.org/2000/svg" xmlns:xlink="http://www.w3.org/1999/xlink" width="1024" zoomAndPan="magnify" viewBox="0 0 768 576" height="768" preserveAspectRatio="xMidYMid meet" version="1.0"><defs><clipPath id="7c75c1f3b4"><path d="M 205.910156 96 L 589.910156 96 L 589.910156 479.867188 L 205.910156 479.867188 Z M 205.910156 96 " clip-rule="nonzero"/></clipPath><clipPath id="a8828885fb"><path d="M 263 495 L 289 495 L 289 530 L 263 530 Z M 263 495 " clip-rule="nonzero"/></clipPath><clipPath id="a8e198abe8"><path d="M 229.671875 518.496094 L 258.597656 469.382812 L 307.714844 498.308594 L 278.789062 547.421875 Z M 229.671875 518.496094 " clip-rule="nonzero"/></clipPath><clipPath id="6469ae6904"><path d="M 229.671875 518.496094 L 258.597656 469.382812 L 307.714844 498.308594 L 278.789062 547.421875 Z M 229.671875 518.496094 " clip-rule="nonzero"/></clipPath><clipPath id="5cdb6ffd45"><path d="M 229.671875 518.496094 L 258.597656 469.382812 L 307.714844 498.308594 L 278.789062 547.421875 Z M 229.671875 518.496094 " clip-rule="nonzero"/></clipPath><clipPath id="1e2280bd3d"><path d="M 266 506 L 280 506 L 280 516 L 266 516 Z M 266 506 " clip-rule="nonzero"/></clipPath><clipPath id="dfc7350483"><path d="M 229.671875 518.496094 L 258.597656 469.382812 L 307.714844 498.308594 L 278.789062 547.421875 Z M 229.671875 518.496094 " clip-rule="nonzero"/></clipPath><clipPath id="a31a7def13"><path d="M 229.671875 518.496094 L 258.597656 469.382812 L 307.714844 498.308594 L 278.789062 547.421875 Z M 229.671875 518.496094 " clip-rule="nonzero"/></clipPath><clipPath id="70176b6cbd"><path d="M 229.671875 518.496094 L 258.597656 469.382812 L 307.714844 498.308594 L 278.789062 547.421875 Z M 229.671875 518.496094 " clip-rule="nonzero"/></clipPath><clipPath id="d6386ca82b"><path d="M 250 492 L 273 492 L 273 517 L 250 517 Z M 250 492 " clip-rule="nonzero"/></clipPath><clipPath id="3731f20c2e"><path d="M 229.671875 518.496094 L 258.597656 469.382812 L 307.714844 498.308594 L 278.789062 547.421875 Z M 229.671875 518.496094 " clip-rule="nonzero"/></clipPath><clipPath id="fb9c79d07d"><path d="M 229.671875 518.496094 L 258.597656 469.382812 L 307.714844 498.308594 L 278.789062 547.421875 Z M 229.671875 518.496094 " clip-rule="nonzero"/></clipPath><clipPath id="4f3a35a307"><path d="M 229.671875 518.496094 L 258.597656 469.382812 L 307.714844 498.308594 L 278.789062 547.421875 Z M 229.671875 518.496094 " clip-rule="nonzero"/></clipPath><clipPath id="274b9a5e79"><path d="M 250 500 L 268 500 L 268 517 L 250 517 Z M 250 500 " clip-rule="nonzero"/></clipPath><clipPath id="58870c6bd3"><path d="M 229.671875 518.496094 L 258.597656 469.382812 L 307.714844 498.308594 L 278.789062 547.421875 Z M 229.671875 518.496094 " clip-rule="nonzero"/></clipPath><clipPath id="f71b86d26d"><path d="M 229.671875 518.496094 L 258.597656 469.382812 L 307.714844 498.308594 L 278.789062 547.421875 Z M 229.671875 518.496094 " clip-rule="nonzero"/></clipPath><clipPath id="585d91c52d"><path d="M 229.671875 518.496094 L 258.597656 469.382812 L 307.714844 498.308594 L 278.789062 547.421875 Z M 229.671875 518.496094 " clip-rule="nonzero"/></clipPath><clipPath id="91f3d4bae4"><path d="M 249 491 L 274 491 L 274 518 L 249 518 Z M 249 491 " clip-rule="nonzero"/></clipPath><clipPath id="72c5b54813"><path d="M 229.671875 518.496094 L 258.597656 469.382812 L 307.714844 498.308594 L 278.789062 547.421875 Z M 229.671875 518.496094 " clip-rule="nonzero"/></clipPath><clipPath id="e09758eac7"><path d="M 229.671875 518.496094 L 258.597656 469.382812 L 307.714844 498.308594 L 278.789062 547.421875 Z M 229.671875 518.496094 " clip-rule="nonzero"/></clipPath><clipPath id="0dd4ef283b"><path d="M 229.671875 518.496094 L 258.597656 469.382812 L 307.714844 498.308594 L 278.789062 547.421875 Z M 229.671875 518.496094 " clip-rule="nonzero"/></clipPath><clipPath id="6b0149d9d8"><path d="M 259 502 L 264 502 L 264 507 L 259 507 Z M 259 502 " clip-rule="nonzero"/></clipPath><clipPath id="2b50aeb905"><path d="M 229.671875 518.496094 L 258.597656 469.382812 L 307.714844 498.308594 L 278.789062 547.421875 Z M 229.671875 518.496094 " clip-rule="nonzero"/></clipPath><clipPath id="dd7fcb515b"><path d="M 229.671875 518.496094 L 258.597656 469.382812 L 307.714844 498.308594 L 278.789062 547.421875 Z M 229.671875 518.496094 " clip-rule="nonzero"/></clipPath><clipPath id="b0b02a7835"><path d="M 229.671875 518.496094 L 258.597656 469.382812 L 307.714844 498.308594 L 278.789062 547.421875 Z M 229.671875 518.496094 " clip-rule="nonzero"/></clipPath><clipPath id="b49205b1be"><path d="M 258 500 L 265 500 L 265 508 L 258 508 Z M 258 500 " clip-rule="nonzero"/></clipPath><clipPath id="939d5a5d8c"><path d="M 229.671875 518.496094 L 258.597656 469.382812 L 307.714844 498.308594 L 278.789062 547.421875 Z M 229.671875 518.496094 " clip-rule="nonzero"/></clipPath><clipPath id="99e1ca2a8e"><path d="M 229.671875 518.496094 L 258.597656 469.382812 L 307.714844 498.308594 L 278.789062 547.421875 Z M 229.671875 518.496094 " clip-rule="nonzero"/></clipPath><clipPath id="ebadb3d0d6"><path d="M 229.671875 518.496094 L 258.597656 469.382812 L 307.714844 498.308594 L 278.789062 547.421875 Z M 229.671875 518.496094 " clip-rule="nonzero"/></clipPath><clipPath id="4e1dce09e3"><path d="M 245 491 L 260 491 L 260 508 L 245 508 Z M 245 491 " clip-rule="nonzero"/></clipPath><clipPath id="7cb4935c10"><path d="M 229.671875 518.496094 L 258.597656 469.382812 L 307.714844 498.308594 L 278.789062 547.421875 Z M 229.671875 518.496094 " clip-rule="nonzero"/></clipPath><clipPath id="0631d3c8e6"><path d="M 229.671875 518.496094 L 258.597656 469.382812 L 307.714844 498.308594 L 278.789062 547.421875 Z M 229.671875 518.496094 " clip-rule="nonzero"/></clipPath><clipPath id="f13aaf4579"><path d="M 229.671875 518.496094 L 258.597656 469.382812 L 307.714844 498.308594 L 278.789062 547.421875 Z M 229.671875 518.496094 " clip-rule="nonzero"/></clipPath><clipPath id="7fb8ef7970"><path d="M 269 525 L 282 525 L 282 539 L 269 539 Z M 269 525 " clip-rule="nonzero"/></clipPath><clipPath id="0dfc6ca4e7"><path d="M 229.671875 518.496094 L 258.597656 469.382812 L 307.714844 498.308594 L 278.789062 547.421875 Z M 229.671875 518.496094 " clip-rule="nonzero"/></clipPath><clipPath id="e1931b8ff9"><path d="M 229.671875 518.496094 L 258.597656 469.382812 L 307.714844 498.308594 L 278.789062 547.421875 Z M 229.671875 518.496094 " clip-rule="nonzero"/></clipPath><clipPath id="99a8114ad4"><path d="M 229.671875 518.496094 L 258.597656 469.382812 L 307.714844 498.308594 L 278.789062 547.421875 Z M 229.671875 518.496094 " clip-rule="nonzero"/></clipPath><clipPath id="7e297e5e93"><path d="M 268 524 L 283 524 L 283 540 L 268 540 Z M 268 524 " clip-rule="nonzero"/></clipPath><clipPath id="145ab1f3c8"><path d="M 229.671875 518.496094 L 258.597656 469.382812 L 307.714844 498.308594 L 278.789062 547.421875 Z M 229.671875 518.496094 " clip-rule="nonzero"/></clipPath><clipPath id="1a87d97e4e"><path d="M 229.671875 518.496094 L 258.597656 469.382812 L 307.714844 498.308594 L 278.789062 547.421875 Z M 229.671875 518.496094 " clip-rule="nonzero"/></clipPath><clipPath id="9e5731c0b9"><path d="M 229.671875 518.496094 L 258.597656 469.382812 L 307.714844 498.308594 L 278.789062 547.421875 Z M 229.671875 518.496094 " clip-rule="nonzero"/></clipPath><clipPath id="68a6ea69d4"><path d="M 277 511 L 291 511 L 291 524 L 277 524 Z M 277 511 " clip-rule="nonzero"/></clipPath><clipPath id="87f85e70d7"><path d="M 229.671875 518.496094 L 258.597656 469.382812 L 307.714844 498.308594 L 278.789062 547.421875 Z M 229.671875 518.496094 " clip-rule="nonzero"/></clipPath><clipPath id="d9d7fa6058"><path d="M 229.671875 518.496094 L 258.597656 469.382812 L 307.714844 498.308594 L 278.789062 547.421875 Z M 229.671875 518.496094 " clip-rule="nonzero"/></clipPath><clipPath id="b4faf9d0e0"><path d="M 229.671875 518.496094 L 258.597656 469.382812 L 307.714844 498.308594 L 278.789062 547.421875 Z M 229.671875 518.496094 " clip-rule="nonzero"/></clipPath><clipPath id="1a0870f340"><path d="M 276 509 L 292 509 L 292 525 L 276 525 Z M 276 509 " clip-rule="nonzero"/></clipPath><clipPath id="ba96151f8b"><path d="M 229.671875 518.496094 L 258.597656 469.382812 L 307.714844 498.308594 L 278.789062 547.421875 Z M 229.671875 518.496094 " clip-rule="nonzero"/></clipPath><clipPath id="7eafb1e3e3"><path d="M 229.671875 518.496094 L 258.597656 469.382812 L 307.714844 498.308594 L 278.789062 547.421875 Z M 229.671875 518.496094 " clip-rule="nonzero"/></clipPath><clipPath id="1d084d1546"><path d="M 229.671875 518.496094 L 258.597656 469.382812 L 307.714844 498.308594 L 278.789062 547.421875 Z M 229.671875 518.496094 " clip-rule="nonzero"/></clipPath><clipPath id="206e9dbab2"><path d="M 286 496 L 299 496 L 299 510 L 286 510 Z M 286 496 " clip-rule="nonzero"/></clipPath><clipPath id="bc1113608e"><path d="M 229.671875 518.496094 L 258.597656 469.382812 L 307.714844 498.308594 L 278.789062 547.421875 Z M 229.671875 518.496094 " clip-rule="nonzero"/></clipPath><clipPath id="6e060cfda1"><path d="M 229.671875 518.496094 L 258.597656 469.382812 L 307.714844 498.308594 L 278.789062 547.421875 Z M 229.671875 518.496094 " clip-rule="nonzero"/></clipPath><clipPath id="fce43260fa"><path d="M 229.671875 518.496094 L 258.597656 469.382812 L 307.714844 498.308594 L 278.789062 547.421875 Z M 229.671875 518.496094 " clip-rule="nonzero"/></clipPath><clipPath id="d1b01376f3"><path d="M 284 495 L 300 495 L 300 511 L 284 511 Z M 284 495 " clip-rule="nonzero"/></clipPath><clipPath id="6c209260d7"><path d="M 229.671875 518.496094 L 258.597656 469.382812 L 307.714844 498.308594 L 278.789062 547.421875 Z M 229.671875 518.496094 " clip-rule="nonzero"/></clipPath><clipPath id="16be1a2361"><path d="M 229.671875 518.496094 L 258.597656 469.382812 L 307.714844 498.308594 L 278.789062 547.421875 Z M 229.671875 518.496094 " clip-rule="nonzero"/></clipPath><clipPath id="5d68c8f4e5"><path d="M 229.671875 518.496094 L 258.597656 469.382812 L 307.714844 498.308594 L 278.789062 547.421875 Z M 229.671875 518.496094 " clip-rule="nonzero"/></clipPath><clipPath id="903f1235d5"><path d="M 507 475 L 572 475 L 572 541 L 507 541 Z M 507 475 " clip-rule="nonzero"/></clipPath><clipPath id="709b98c929"><path d="M 535.234375 548.570312 L 498.597656 504.902344 L 542.265625 468.269531 L 578.902344 511.9375 Z M 535.234375 548.570312 " clip-rule="nonzero"/></clipPath><clipPath id="621efe49c5"><path d="M 535.234375 548.570312 L 498.597656 504.902344 L 542.265625 468.269531 L 578.902344 511.9375 Z M 535.234375 548.570312 " clip-rule="nonzero"/></clipPath><clipPath id="db881d4a1c"><path d="M 535.234375 548.570312 L 498.597656 504.902344 L 542.265625 468.269531 L 578.902344 511.9375 Z M 535.234375 548.570312 " clip-rule="nonzero"/></clipPath><clipPath id="83cda29d8c"><path d="M 507 504 L 572 504 L 572 541 L 507 541 Z M 507 504 " clip-rule="nonzero"/></clipPath><clipPath id="62f0867e9a"><path d="M 535.234375 548.570312 L 498.597656 504.902344 L 542.265625 468.269531 L 578.902344 511.9375 Z M 535.234375 548.570312 " clip-rule="nonzero"/></clipPath><clipPath id="b4cf61ca56"><path d="M 535.234375 548.570312 L 498.597656 504.902344 L 542.265625 468.269531 L 578.902344 511.9375 Z M 535.234375 548.570312 " clip-rule="nonzero"/></clipPath><clipPath id="06ffda3407"><path d="M 535.234375 548.570312 L 498.597656 504.902344 L 542.265625 468.269531 L 578.902344 511.9375 Z M 535.234375 548.570312 " clip-rule="nonzero"/></clipPath><clipPath id="a2da59bec3"><path d="M 506 474 L 573 474 L 573 542 L 506 542 Z M 506 474 " clip-rule="nonzero"/></clipPath><clipPath id="c08cfe9623"><path d="M 535.234375 548.570312 L 498.597656 504.902344 L 542.265625 468.269531 L 578.902344 511.9375 Z M 535.234375 548.570312 " clip-rule="nonzero"/></clipPath><clipPath id="2610feaac5"><path d="M 535.234375 548.570312 L 498.597656 504.902344 L 542.265625 468.269531 L 578.902344 511.9375 Z M 535.234375 548.570312 " clip-rule="nonzero"/></clipPath><clipPath id="00d8d1696c"><path d="M 535.234375 548.570312 L 498.597656 504.902344 L 542.265625 468.269531 L 578.902344 511.9375 Z M 535.234375 548.570312 " clip-rule="nonzero"/></clipPath><clipPath id="5b9bd7192f"><path d="M 521 510 L 547 510 L 547 535 L 521 535 Z M 521 510 " clip-rule="nonzero"/></clipPath><clipPath id="ef523b4acd"><path d="M 535.234375 548.570312 L 498.597656 504.902344 L 542.265625 468.269531 L 578.902344 511.9375 Z M 535.234375 548.570312 " clip-rule="nonzero"/></clipPath><clipPath id="846ea03122"><path d="M 535.234375 548.570312 L 498.597656 504.902344 L 542.265625 468.269531 L 578.902344 511.9375 Z M 535.234375 548.570312 " clip-rule="nonzero"/></clipPath><clipPath id="2183e4fcd4"><path d="M 535.234375 548.570312 L 498.597656 504.902344 L 542.265625 468.269531 L 578.902344 511.9375 Z M 535.234375 548.570312 " clip-rule="nonzero"/></clipPath><clipPath id="9217336063"><path d="M 521 520 L 536 520 L 536 535 L 521 535 Z M 521 520 " clip-rule="nonzero"/></clipPath><clipPath id="0c7ae5bf23"><path d="M 535.234375 548.570312 L 498.597656 504.902344 L 542.265625 468.269531 L 578.902344 511.9375 Z M 535.234375 548.570312 " clip-rule="nonzero"/></clipPath><clipPath id="98662d1e25"><path d="M 535.234375 548.570312 L 498.597656 504.902344 L 542.265625 468.269531 L 578.902344 511.9375 Z M 535.234375 548.570312 " clip-rule="nonzero"/></clipPath><clipPath id="2e73056f99"><path d="M 535.234375 548.570312 L 498.597656 504.902344 L 542.265625 468.269531 L 578.902344 511.9375 Z M 535.234375 548.570312 " clip-rule="nonzero"/></clipPath><clipPath id="71adc0f8d7"><path d="M 520 509 L 549 509 L 549 537 L 520 537 Z M 520 509 " clip-rule="nonzero"/></clipPath><clipPath id="1eb0e9438a"><path d="M 535.234375 548.570312 L 498.597656 504.902344 L 542.265625 468.269531 L 578.902344 511.9375 Z M 535.234375 548.570312 " clip-rule="nonzero"/></clipPath><clipPath id="4ffdf50047"><path d="M 535.234375 548.570312 L 498.597656 504.902344 L 542.265625 468.269531 L 578.902344 511.9375 Z M 535.234375 548.570312 " clip-rule="nonzero"/></clipPath><clipPath id="1aaeb2a16e"><path d="M 535.234375 548.570312 L 498.597656 504.902344 L 542.265625 468.269531 L 578.902344 511.9375 Z M 535.234375 548.570312 " clip-rule="nonzero"/></clipPath><clipPath id="bc70c97b74"><path d="M 517 501 L 528 501 L 528 513 L 517 513 Z M 517 501 " clip-rule="nonzero"/></clipPath><clipPath id="a2254c8911"><path d="M 535.234375 548.570312 L 498.597656 504.902344 L 542.265625 468.269531 L 578.902344 511.9375 Z M 535.234375 548.570312 " clip-rule="nonzero"/></clipPath><clipPath id="48f6b6b511"><path d="M 535.234375 548.570312 L 498.597656 504.902344 L 542.265625 468.269531 L 578.902344 511.9375 Z M 535.234375 548.570312 " clip-rule="nonzero"/></clipPath><clipPath id="f223afd3f6"><path d="M 535.234375 548.570312 L 498.597656 504.902344 L 542.265625 468.269531 L 578.902344 511.9375 Z M 535.234375 548.570312 " clip-rule="nonzero"/></clipPath><clipPath id="534ae4da6a"><path d="M 523 495 L 535 495 L 535 508 L 523 508 Z M 523 495 " clip-rule="nonzero"/></clipPath><clipPath id="acc2f8b31f"><path d="M 535.234375 548.570312 L 498.597656 504.902344 L 542.265625 468.269531 L 578.902344 511.9375 Z M 535.234375 548.570312 " clip-rule="nonzero"/></clipPath><clipPath id="8ed67cac7f"><path d="M 535.234375 548.570312 L 498.597656 504.902344 L 542.265625 468.269531 L 578.902344 511.9375 Z M 535.234375 548.570312 " clip-rule="nonzero"/></clipPath><clipPath id="317e878326"><path d="M 535.234375 548.570312 L 498.597656 504.902344 L 542.265625 468.269531 L 578.902344 511.9375 Z M 535.234375 548.570312 " clip-rule="nonzero"/></clipPath><clipPath id="86e8262cb5"><path d="M 530 490 L 556 490 L 556 520 L 530 520 Z M 530 490 " clip-rule="nonzero"/></clipPath><clipPath id="94bb3f2561"><path d="M 535.234375 548.570312 L 498.597656 504.902344 L 542.265625 468.269531 L 578.902344 511.9375 Z M 535.234375 548.570312 " clip-rule="nonzero"/></clipPath><clipPath id="25c7d398dd"><path d="M 535.234375 548.570312 L 498.597656 504.902344 L 542.265625 468.269531 L 578.902344 511.9375 Z M 535.234375 548.570312 " clip-rule="nonzero"/></clipPath><clipPath id="c012e1baa5"><path d="M 535.234375 548.570312 L 498.597656 504.902344 L 542.265625 468.269531 L 578.902344 511.9375 Z M 535.234375 548.570312 " clip-rule="nonzero"/></clipPath><clipPath id="ed7f57c1df"><path d="M 537 485 L 562 485 L 562 515 L 537 515 Z M 537 485 " clip-rule="nonzero"/></clipPath><clipPath id="adf48c0101"><path d="M 535.234375 548.570312 L 498.597656 504.902344 L 542.265625 468.269531 L 578.902344 511.9375 Z M 535.234375 548.570312 " clip-rule="nonzero"/></clipPath><clipPath id="58e1a15309"><path d="M 535.234375 548.570312 L 498.597656 504.902344 L 542.265625 468.269531 L 578.902344 511.9375 Z M 535.234375 548.570312 " clip-rule="nonzero"/></clipPath><clipPath id="3a7b53af98"><path d="M 535.234375 548.570312 L 498.597656 504.902344 L 542.265625 468.269531 L 578.902344 511.9375 Z M 535.234375 548.570312 " clip-rule="nonzero"/></clipPath><clipPath id="1cfec7f87e"><path d="M 515 44 L 568 44 L 568 97 L 515 97 Z M 515 44 " clip-rule="nonzero"/></clipPath><clipPath id="37180108ce"><path d="M 577.71875 57.195312 L 549.171875 106.53125 L 499.835938 77.984375 L 528.382812 28.648438 Z M 577.71875 57.195312 " clip-rule="nonzero"/></clipPath><clipPath id="dd487661c1"><path d="M 577.71875 57.195312 L 549.171875 106.53125 L 499.835938 77.984375 L 528.382812 28.648438 Z M 577.71875 57.195312 " clip-rule="nonzero"/></clipPath><clipPath id="e6ef97316b"><path d="M 577.71875 57.195312 L 549.171875 106.53125 L 499.835938 77.984375 L 528.382812 28.648438 Z M 577.71875 57.195312 " clip-rule="nonzero"/></clipPath><clipPath id="82363922a6"><path d="M 517 44 L 568 44 L 568 81 L 517 81 Z M 517 44 " clip-rule="nonzero"/></clipPath><clipPath id="ef96162a96"><path d="M 577.71875 57.195312 L 549.171875 106.53125 L 499.835938 77.984375 L 528.382812 28.648438 Z M 577.71875 57.195312 " clip-rule="nonzero"/></clipPath><clipPath id="2ad16d2b33"><path d="M 577.71875 57.195312 L 549.171875 106.53125 L 499.835938 77.984375 L 528.382812 28.648438 Z M 577.71875 57.195312 " clip-rule="nonzero"/></clipPath><clipPath id="892bafaf65"><path d="M 577.71875 57.195312 L 549.171875 106.53125 L 499.835938 77.984375 L 528.382812 28.648438 Z M 577.71875 57.195312 " clip-rule="nonzero"/></clipPath><clipPath id="7db53f6124"><path d="M 514 43 L 569 43 L 569 98 L 514 98 Z M 514 43 " clip-rule="nonzero"/></clipPath><clipPath id="f3e263ae8b"><path d="M 577.71875 57.195312 L 549.171875 106.53125 L 499.835938 77.984375 L 528.382812 28.648438 Z M 577.71875 57.195312 " clip-rule="nonzero"/></clipPath><clipPath id="1086b097a8"><path d="M 577.71875 57.195312 L 549.171875 106.53125 L 499.835938 77.984375 L 528.382812 28.648438 Z M 577.71875 57.195312 " clip-rule="nonzero"/></clipPath><clipPath id="ca05461382"><path d="M 577.71875 57.195312 L 549.171875 106.53125 L 499.835938 77.984375 L 528.382812 28.648438 Z M 577.71875 57.195312 " clip-rule="nonzero"/></clipPath><clipPath id="1bc701c845"><path d="M 530 58 L 553 58 L 553 81 L 530 81 Z M 530 58 " clip-rule="nonzero"/></clipPath><clipPath id="ce376ec95f"><path d="M 577.71875 57.195312 L 549.171875 106.53125 L 499.835938 77.984375 L 528.382812 28.648438 Z M 577.71875 57.195312 " clip-rule="nonzero"/></clipPath><clipPath id="4bee829d49"><path d="M 577.71875 57.195312 L 549.171875 106.53125 L 499.835938 77.984375 L 528.382812 28.648438 Z M 577.71875 57.195312 " clip-rule="nonzero"/></clipPath><clipPath id="73d318b908"><path d="M 577.71875 57.195312 L 549.171875 106.53125 L 499.835938 77.984375 L 528.382812 28.648438 Z M 577.71875 57.195312 " clip-rule="nonzero"/></clipPath><clipPath id="71b0dc20bc"><path d="M 532 58 L 553 58 L 553 75 L 532 75 Z M 532 58 " clip-rule="nonzero"/></clipPath><clipPath id="66d7b33a5d"><path d="M 577.71875 57.195312 L 549.171875 106.53125 L 499.835938 77.984375 L 528.382812 28.648438 Z M 577.71875 57.195312 " clip-rule="nonzero"/></clipPath><clipPath id="b326aa2fe3"><path d="M 577.71875 57.195312 L 549.171875 106.53125 L 499.835938 77.984375 L 528.382812 28.648438 Z M 577.71875 57.195312 " clip-rule="nonzero"/></clipPath><clipPath id="32caa79234"><path d="M 577.71875 57.195312 L 549.171875 106.53125 L 499.835938 77.984375 L 528.382812 28.648438 Z M 577.71875 57.195312 " clip-rule="nonzero"/></clipPath><clipPath id="40374c67de"><path d="M 529 57 L 554 57 L 554 80 L 529 80 Z M 529 57 " clip-rule="nonzero"/></clipPath><clipPath id="9dd910f00b"><path d="M 577.71875 57.195312 L 549.171875 106.53125 L 499.835938 77.984375 L 528.382812 28.648438 Z M 577.71875 57.195312 " clip-rule="nonzero"/></clipPath><clipPath id="5c43575ac1"><path d="M 577.71875 57.195312 L 549.171875 106.53125 L 499.835938 77.984375 L 528.382812 28.648438 Z M 577.71875 57.195312 " clip-rule="nonzero"/></clipPath><clipPath id="45a0319ca5"><path d="M 577.71875 57.195312 L 549.171875 106.53125 L 499.835938 77.984375 L 528.382812 28.648438 Z M 577.71875 57.195312 " clip-rule="nonzero"/></clipPath><clipPath id="ffaaaebd7d"><path d="M 538 64 L 547 64 L 547 86 L 538 86 Z M 538 64 " clip-rule="nonzero"/></clipPath><clipPath id="9d000098d4"><path d="M 577.71875 57.195312 L 549.171875 106.53125 L 499.835938 77.984375 L 528.382812 28.648438 Z M 577.71875 57.195312 " clip-rule="nonzero"/></clipPath><clipPath id="4480510108"><path d="M 577.71875 57.195312 L 549.171875 106.53125 L 499.835938 77.984375 L 528.382812 28.648438 Z M 577.71875 57.195312 " clip-rule="nonzero"/></clipPath><clipPath id="f8eb255d06"><path d="M 577.71875 57.195312 L 549.171875 106.53125 L 499.835938 77.984375 L 528.382812 28.648438 Z M 577.71875 57.195312 " clip-rule="nonzero"/></clipPath><clipPath id="08aa195040"><path d="M 272 36 L 299 36 L 299 74 L 272 74 Z M 272 36 " clip-rule="nonzero"/></clipPath><clipPath id="2ad1b8f596"><path d="M 279.085938 28.621094 L 307.671875 77.933594 L 258.359375 106.519531 L 229.773438 57.207031 Z M 279.085938 28.621094 " clip-rule="nonzero"/></clipPath><clipPath id="1a5be7fe20"><path d="M 279.085938 28.621094 L 307.671875 77.933594 L 258.359375 106.519531 L 229.773438 57.207031 Z M 279.085938 28.621094 " clip-rule="nonzero"/></clipPath><clipPath id="ffa1c3b94f"><path d="M 279.085938 28.621094 L 307.671875 77.933594 L 258.359375 106.519531 L 229.773438 57.207031 Z M 279.085938 28.621094 " clip-rule="nonzero"/></clipPath><clipPath id="7a87f684ee"><path d="M 237 37 L 292 37 L 292 96 L 237 96 Z M 237 37 " clip-rule="nonzero"/></clipPath><clipPath id="417d5f9b98"><path d="M 279.085938 28.621094 L 307.671875 77.933594 L 258.359375 106.519531 L 229.773438 57.207031 Z M 279.085938 28.621094 " clip-rule="nonzero"/></clipPath><clipPath id="1d5a3c8de1"><path d="M 279.085938 28.621094 L 307.671875 77.933594 L 258.359375 106.519531 L 229.773438 57.207031 Z M 279.085938 28.621094 " clip-rule="nonzero"/></clipPath><clipPath id="162fd457ea"><path d="M 279.085938 28.621094 L 307.671875 77.933594 L 258.359375 106.519531 L 229.773438 57.207031 Z M 279.085938 28.621094 " clip-rule="nonzero"/></clipPath><clipPath id="4cdf708d4a"><path d="M 237 37 L 276 37 L 276 71 L 237 71 Z M 237 37 " clip-rule="nonzero"/></clipPath><clipPath id="2e892547b4"><path d="M 279.085938 28.621094 L 307.671875 77.933594 L 258.359375 106.519531 L 229.773438 57.207031 Z M 279.085938 28.621094 " clip-rule="nonzero"/></clipPath><clipPath id="b2332d632d"><path d="M 279.085938 28.621094 L 307.671875 77.933594 L 258.359375 106.519531 L 229.773438 57.207031 Z M 279.085938 28.621094 " clip-rule="nonzero"/></clipPath><clipPath id="93a79d0bdb"><path d="M 279.085938 28.621094 L 307.671875 77.933594 L 258.359375 106.519531 L 229.773438 57.207031 Z M 279.085938 28.621094 " clip-rule="nonzero"/></clipPath><clipPath id="e6c563e995"><path d="M 236 36 L 277 36 L 277 82 L 236 82 Z M 236 36 " clip-rule="nonzero"/></clipPath><clipPath id="d3c54c351b"><path d="M 279.085938 28.621094 L 307.671875 77.933594 L 258.359375 106.519531 L 229.773438 57.207031 Z M 279.085938 28.621094 " clip-rule="nonzero"/></clipPath><clipPath id="c3a4615386"><path d="M 279.085938 28.621094 L 307.671875 77.933594 L 258.359375 106.519531 L 229.773438 57.207031 Z M 279.085938 28.621094 " clip-rule="nonzero"/></clipPath><clipPath id="5f8f34e943"><path d="M 279.085938 28.621094 L 307.671875 77.933594 L 258.359375 106.519531 L 229.773438 57.207031 Z M 279.085938 28.621094 " clip-rule="nonzero"/></clipPath><clipPath id="599cbd9b1a"><path d="M 271 35 L 301 35 L 301 85 L 271 85 Z M 271 35 " clip-rule="nonzero"/></clipPath><clipPath id="8bd8b8e00f"><path d="M 279.085938 28.621094 L 307.671875 77.933594 L 258.359375 106.519531 L 229.773438 57.207031 Z M 279.085938 28.621094 " clip-rule="nonzero"/></clipPath><clipPath id="e3fb791eed"><path d="M 279.085938 28.621094 L 307.671875 77.933594 L 258.359375 106.519531 L 229.773438 57.207031 Z M 279.085938 28.621094 " clip-rule="nonzero"/></clipPath><clipPath id="b2715aa5e2"><path d="M 279.085938 28.621094 L 307.671875 77.933594 L 258.359375 106.519531 L 229.773438 57.207031 Z M 279.085938 28.621094 " clip-rule="nonzero"/></clipPath><clipPath id="79131ebd04"><path d="M 276 40 L 296 40 L 296 73 L 276 73 Z M 276 40 " clip-rule="nonzero"/></clipPath><clipPath id="9dc5c2b0d5"><path d="M 279.085938 28.621094 L 307.671875 77.933594 L 258.359375 106.519531 L 229.773438 57.207031 Z M 279.085938 28.621094 " clip-rule="nonzero"/></clipPath><clipPath id="787598fd47"><path d="M 279.085938 28.621094 L 307.671875 77.933594 L 258.359375 106.519531 L 229.773438 57.207031 Z M 279.085938 28.621094 " clip-rule="nonzero"/></clipPath><clipPath id="a28cb89b50"><path d="M 279.085938 28.621094 L 307.671875 77.933594 L 258.359375 106.519531 L 229.773438 57.207031 Z M 279.085938 28.621094 " clip-rule="nonzero"/></clipPath><clipPath id="6e44b409ab"><path d="M 253 70 L 274 70 L 274 91 L 253 91 Z M 253 70 " clip-rule="nonzero"/></clipPath><clipPath id="623bf7a556"><path d="M 279.085938 28.621094 L 307.671875 77.933594 L 258.359375 106.519531 L 229.773438 57.207031 Z M 279.085938 28.621094 " clip-rule="nonzero"/></clipPath><clipPath id="0c1926656a"><path d="M 279.085938 28.621094 L 307.671875 77.933594 L 258.359375 106.519531 L 229.773438 57.207031 Z M 279.085938 28.621094 " clip-rule="nonzero"/></clipPath><clipPath id="54335247e0"><path d="M 279.085938 28.621094 L 307.671875 77.933594 L 258.359375 106.519531 L 229.773438 57.207031 Z M 279.085938 28.621094 " clip-rule="nonzero"/></clipPath><clipPath id="c81984f99e"><path d="M 252 69 L 275 69 L 275 92 L 252 92 Z M 252 69 " clip-rule="nonzero"/></clipPath><clipPath id="aacd18da0e"><path d="M 279.085938 28.621094 L 307.671875 77.933594 L 258.359375 106.519531 L 229.773438 57.207031 Z M 279.085938 28.621094 " clip-rule="nonzero"/></clipPath><clipPath id="41c288050b"><path d="M 279.085938 28.621094 L 307.671875 77.933594 L 258.359375 106.519531 L 229.773438 57.207031 Z M 279.085938 28.621094 " clip-rule="nonzero"/></clipPath><clipPath id="831839f1ea"><path d="M 279.085938 28.621094 L 307.671875 77.933594 L 258.359375 106.519531 L 229.773438 57.207031 Z M 279.085938 28.621094 " clip-rule="nonzero"/></clipPath><clipPath id="726ba928dc"><path d="M 257 89 L 263 89 L 263 102 L 257 102 Z M 257 89 " clip-rule="nonzero"/></clipPath><clipPath id="7090bf97f1"><path d="M 279.085938 28.621094 L 307.671875 77.933594 L 258.359375 106.519531 L 229.773438 57.207031 Z M 279.085938 28.621094 " clip-rule="nonzero"/></clipPath><clipPath id="015249f013"><path d="M 279.085938 28.621094 L 307.671875 77.933594 L 258.359375 106.519531 L 229.773438 57.207031 Z M 279.085938 28.621094 " clip-rule="nonzero"/></clipPath><clipPath id="6f547bbda4"><path d="M 279.085938 28.621094 L 307.671875 77.933594 L 258.359375 106.519531 L 229.773438 57.207031 Z M 279.085938 28.621094 " clip-rule="nonzero"/></clipPath><clipPath id="8dc2b32e4c"><path d="M 253 70 L 274 70 L 274 91 L 253 91 Z M 253 70 " clip-rule="nonzero"/></clipPath><clipPath id="8132324862"><path d="M 279.085938 28.621094 L 307.671875 77.933594 L 258.359375 106.519531 L 229.773438 57.207031 Z M 279.085938 28.621094 " clip-rule="nonzero"/></clipPath><clipPath id="a69ecf1fb3"><path d="M 279.085938 28.621094 L 307.671875 77.933594 L 258.359375 106.519531 L 229.773438 57.207031 Z M 279.085938 28.621094 " clip-rule="nonzero"/></clipPath><clipPath id="566411720f"><path d="M 279.085938 28.621094 L 307.671875 77.933594 L 258.359375 106.519531 L 229.773438 57.207031 Z M 279.085938 28.621094 " clip-rule="nonzero"/></clipPath><clipPath id="4bf8effd57"><path d="M 254 70 L 274 70 L 274 84 L 254 84 Z M 254 70 " clip-rule="nonzero"/></clipPath><clipPath id="96d44b22c7"><path d="M 279.085938 28.621094 L 307.671875 77.933594 L 258.359375 106.519531 L 229.773438 57.207031 Z M 279.085938 28.621094 " clip-rule="nonzero"/></clipPath><clipPath id="c7745cd8a6"><path d="M 279.085938 28.621094 L 307.671875 77.933594 L 258.359375 106.519531 L 229.773438 57.207031 Z M 279.085938 28.621094 " clip-rule="nonzero"/></clipPath><clipPath id="3bb059616e"><path d="M 279.085938 28.621094 L 307.671875 77.933594 L 258.359375 106.519531 L 229.773438 57.207031 Z M 279.085938 28.621094 " clip-rule="nonzero"/></clipPath><clipPath id="cbe1c0e546"><path d="M 252 69 L 275 69 L 275 92 L 252 92 Z M 252 69 " clip-rule="nonzero"/></clipPath><clipPath id="a411601983"><path d="M 279.085938 28.621094 L 307.671875 77.933594 L 258.359375 106.519531 L 229.773438 57.207031 Z M 279.085938 28.621094 " clip-rule="nonzero"/></clipPath><clipPath id="752f35ec3b"><path d="M 279.085938 28.621094 L 307.671875 77.933594 L 258.359375 106.519531 L 229.773438 57.207031 Z M 279.085938 28.621094 " clip-rule="nonzero"/></clipPath><clipPath id="cbf56bc163"><path d="M 279.085938 28.621094 L 307.671875 77.933594 L 258.359375 106.519531 L 229.773438 57.207031 Z M 279.085938 28.621094 " clip-rule="nonzero"/></clipPath><clipPath id="379994202f"><path d="M 257 89 L 263 89 L 263 102 L 257 102 Z M 257 89 " clip-rule="nonzero"/></clipPath><clipPath id="ca5eebd3fd"><path d="M 279.085938 28.621094 L 307.671875 77.933594 L 258.359375 106.519531 L 229.773438 57.207031 Z M 279.085938 28.621094 " clip-rule="nonzero"/></clipPath><clipPath id="1a32f39425"><path d="M 279.085938 28.621094 L 307.671875 77.933594 L 258.359375 106.519531 L 229.773438 57.207031 Z M 279.085938 28.621094 " clip-rule="nonzero"/></clipPath><clipPath id="92f69569b3"><path d="M 279.085938 28.621094 L 307.671875 77.933594 L 258.359375 106.519531 L 229.773438 57.207031 Z M 279.085938 28.621094 " clip-rule="nonzero"/></clipPath></defs><g clip-path="url(#7c75c1f3b4)"><path fill="#90e39a" d="M 241.824219 177.632812 C 241.671875 176.714844 241.902344 175.792969 242.4375 175.023438 C 247.121094 168.503906 252.335938 162.285156 257.785156 156.453125 C 258.398438 155.761719 259.320312 155.378906 260.242188 155.304688 C 261.164062 155.304688 262.082031 155.609375 262.773438 156.222656 C 263.464844 156.839844 263.847656 157.757812 263.847656 158.679688 C 263.847656 159.601562 263.542969 160.519531 262.925781 161.210938 C 257.632812 166.8125 252.644531 172.875 248.117188 179.09375 C 247.425781 180.011719 246.351562 180.550781 245.277344 180.550781 C 244.511719 180.550781 243.820312 180.320312 243.207031 179.859375 C 242.4375 179.398438 241.976562 178.632812 241.824219 177.632812 Z M 317.410156 120.769531 C 317.949219 120.769531 318.410156 120.695312 318.945312 120.464844 C 325.929688 117.164062 333.21875 114.246094 340.511719 111.867188 C 342.351562 111.253906 343.351562 109.261719 342.734375 107.417969 C 342.121094 105.578125 340.125 104.578125 338.285156 105.191406 C 330.6875 107.648438 323.167969 110.640625 315.878906 114.09375 C 315.03125 114.476562 314.417969 115.167969 314.035156 116.089844 C 313.730469 117.011719 313.730469 117.929688 314.1875 118.777344 C 314.804688 120.003906 316.03125 120.769531 317.410156 120.769531 Z M 277.585938 146.171875 C 278.429688 146.171875 279.195312 145.863281 279.808594 145.328125 C 285.71875 140.414062 292.089844 135.8125 298.535156 131.667969 C 300.144531 130.59375 300.683594 128.445312 299.609375 126.832031 C 298.535156 125.222656 296.386719 124.683594 294.773438 125.757812 C 288.019531 130.054688 281.5 134.8125 275.28125 139.957031 C 273.824219 141.183594 273.59375 143.410156 274.820312 144.945312 C 275.589844 145.710938 276.511719 146.171875 277.585938 146.171875 Z M 214.429688 311.160156 C 213.429688 303.5625 212.972656 295.734375 212.972656 287.984375 C 212.972656 286.066406 211.359375 284.453125 209.441406 284.453125 C 207.523438 284.453125 205.910156 286.066406 205.910156 287.984375 C 205.910156 296.042969 206.449219 304.097656 207.445312 312.003906 C 207.675781 313.769531 209.132812 315.074219 210.976562 315.074219 C 211.128906 315.074219 211.28125 315.074219 211.4375 315.074219 C 213.277344 314.84375 214.660156 313.078125 214.429688 311.160156 Z M 362.304688 106.113281 C 362.535156 106.113281 362.765625 106.113281 362.996094 106.035156 C 370.515625 104.578125 378.34375 103.582031 386.015625 103.121094 C 386.9375 103.042969 387.78125 102.660156 388.472656 101.96875 C 389.085938 101.277344 389.394531 100.359375 389.316406 99.4375 C 389.238281 98.515625 388.777344 97.597656 388.089844 96.980469 C 387.398438 96.367188 386.476562 96.0625 385.554688 96.136719 C 377.5 96.675781 369.515625 97.671875 361.613281 99.128906 C 359.695312 99.515625 358.46875 101.355469 358.851562 103.273438 C 359.15625 104.960938 360.617188 106.113281 362.304688 106.113281 Z M 221.257812 221.835938 C 221.640625 221.988281 222.101562 222.066406 222.5625 222.066406 C 224.019531 222.066406 225.324219 221.222656 225.863281 219.839844 C 228.703125 212.625 232 205.566406 235.761719 198.8125 C 236.222656 197.96875 236.300781 197.050781 236.070312 196.128906 C 235.839844 195.207031 235.226562 194.441406 234.378906 194.054688 C 233.535156 193.597656 232.617188 193.519531 231.695312 193.75 C 230.773438 193.980469 230.007812 194.59375 229.621094 195.4375 C 225.785156 202.496094 222.332031 209.789062 219.339844 217.308594 C 218.574219 219.074219 219.417969 221.066406 221.257812 221.835938 Z M 569.804688 219.304688 C 570.34375 220.683594 571.648438 221.527344 573.105469 221.527344 C 573.566406 221.527344 574.027344 221.453125 574.410156 221.296875 C 575.253906 220.914062 575.945312 220.300781 576.328125 219.378906 C 576.710938 218.535156 576.710938 217.539062 576.328125 216.695312 C 573.335938 209.25 569.882812 201.960938 566.046875 194.898438 C 565.585938 194.054688 564.816406 193.519531 563.894531 193.210938 C 562.976562 192.980469 562.054688 193.058594 561.210938 193.519531 C 560.367188 193.980469 559.753906 194.746094 559.523438 195.667969 C 559.292969 196.589844 559.367188 197.507812 559.828125 198.355469 C 563.589844 205.03125 566.964844 212.089844 569.804688 219.304688 Z M 547.398438 178.707031 C 548.089844 179.628906 549.164062 180.167969 550.238281 180.167969 C 551.003906 180.167969 551.695312 179.9375 552.308594 179.476562 C 553.078125 178.9375 553.535156 178.09375 553.691406 177.171875 C 553.84375 176.253906 553.613281 175.332031 553.078125 174.566406 C 548.320312 168.117188 543.175781 161.824219 537.652344 155.992188 C 537.039062 155.304688 536.117188 154.917969 535.195312 154.917969 C 534.273438 154.917969 533.355469 155.226562 532.664062 155.839844 C 531.972656 156.453125 531.589844 157.375 531.589844 158.296875 C 531.589844 159.21875 531.894531 160.136719 532.511719 160.828125 C 537.804688 166.507812 542.792969 172.492188 547.398438 178.707031 Z M 581.394531 264.117188 C 581.621094 265.882812 583.15625 267.1875 584.921875 267.1875 C 585.078125 267.1875 585.230469 267.1875 585.382812 267.1875 C 587.300781 266.957031 588.683594 265.191406 588.453125 263.273438 C 587.457031 255.292969 585.921875 247.3125 583.925781 239.5625 C 583.464844 237.71875 581.546875 236.570312 579.628906 237.03125 C 578.707031 237.261719 577.941406 237.875 577.480469 238.640625 C 577.019531 239.484375 576.867188 240.40625 577.09375 241.328125 C 578.9375 248.769531 580.394531 256.445312 581.394531 264.117188 Z M 409.269531 103.121094 C 417.019531 103.582031 424.769531 104.578125 432.289062 105.960938 C 432.519531 106.035156 432.75 106.035156 432.980469 106.035156 C 434.667969 106.035156 436.125 104.808594 436.433594 103.199219 C 436.585938 102.277344 436.433594 101.355469 435.894531 100.589844 C 435.359375 99.820312 434.59375 99.285156 433.671875 99.128906 C 425.691406 97.519531 417.710938 96.519531 409.730469 96.0625 C 408.808594 95.984375 407.886719 96.292969 407.195312 96.90625 C 406.503906 97.519531 406.046875 98.441406 405.96875 99.359375 C 405.890625 100.28125 406.199219 101.203125 406.8125 101.894531 C 407.425781 102.660156 408.269531 103.042969 409.269531 103.121094 Z M 454.773438 111.640625 C 462.140625 114.019531 469.355469 116.855469 476.414062 120.15625 C 476.875 120.386719 477.410156 120.464844 477.871094 120.464844 C 479.253906 120.464844 480.480469 119.695312 481.09375 118.46875 C 481.941406 116.703125 481.171875 114.632812 479.40625 113.789062 C 472.117188 110.410156 464.597656 107.417969 457 104.960938 C 456.078125 104.65625 455.15625 104.734375 454.3125 105.191406 C 453.46875 105.652344 452.855469 106.34375 452.546875 107.265625 C 451.933594 109.105469 452.933594 111.101562 454.773438 111.640625 Z M 496.75 131.359375 C 503.273438 135.503906 509.566406 140.109375 515.550781 145.019531 C 516.164062 145.558594 517.007812 145.863281 517.777344 145.863281 C 518.851562 145.863281 519.847656 145.402344 520.460938 144.558594 C 521.691406 143.023438 521.460938 140.800781 520 139.570312 C 513.785156 134.429688 507.261719 129.671875 500.511719 125.453125 C 499.742188 124.914062 498.746094 124.761719 497.824219 124.992188 C 496.902344 125.222656 496.136719 125.757812 495.597656 126.527344 C 495.0625 127.292969 494.910156 128.292969 495.136719 129.210938 C 495.445312 130.054688 495.984375 130.898438 496.75 131.359375 Z M 210.4375 267.800781 C 210.59375 267.800781 210.746094 267.800781 210.898438 267.800781 C 212.664062 267.800781 214.199219 266.496094 214.429688 264.730469 C 215.351562 257.058594 216.808594 249.382812 218.726562 241.941406 C 219.1875 240.023438 218.035156 238.105469 216.195312 237.644531 C 214.273438 237.183594 212.355469 238.335938 211.894531 240.175781 C 209.902344 247.925781 208.441406 255.90625 207.445312 263.886719 C 207.292969 264.808594 207.597656 265.730469 208.136719 266.496094 C 208.671875 267.265625 209.515625 267.726562 210.4375 267.800781 Z M 535.273438 413.222656 C 534.351562 413.222656 533.429688 413.683594 532.816406 414.296875 C 527.523438 419.898438 521.84375 425.269531 515.859375 430.179688 C 515.167969 430.792969 514.707031 431.640625 514.628906 432.558594 C 514.554688 433.480469 514.859375 434.402344 515.398438 435.167969 C 516.089844 436.011719 517.085938 436.472656 518.082031 436.472656 C 518.925781 436.472656 519.695312 436.167969 520.308594 435.628906 C 526.449219 430.488281 532.355469 424.960938 537.882812 419.128906 C 538.496094 418.441406 538.878906 417.519531 538.804688 416.597656 C 538.804688 415.675781 538.34375 414.757812 537.730469 414.140625 C 537.039062 413.527344 536.195312 413.222656 535.273438 413.222656 Z M 564.816406 375.464844 C 563.128906 374.546875 560.980469 375.160156 560.058594 376.847656 C 556.300781 383.601562 552.15625 390.199219 547.628906 396.414062 C 546.476562 397.949219 546.859375 400.175781 548.394531 401.328125 C 549.007812 401.789062 549.699219 402.019531 550.46875 402.019531 C 551.617188 402.019531 552.691406 401.480469 553.304688 400.558594 C 558.0625 394.035156 562.363281 387.207031 566.273438 380.222656 C 566.734375 379.378906 566.8125 378.460938 566.582031 377.539062 C 566.273438 376.695312 565.660156 375.925781 564.816406 375.464844 Z M 455.15625 463.640625 C 447.789062 466.019531 440.269531 467.9375 432.671875 469.394531 C 431.753906 469.546875 430.910156 470.085938 430.449219 470.851562 C 429.910156 471.621094 429.757812 472.539062 429.910156 473.460938 C 430.21875 475.148438 431.675781 476.300781 433.363281 476.300781 C 433.59375 476.300781 433.824219 476.300781 434.054688 476.222656 C 441.957031 474.765625 449.785156 472.695312 457.382812 470.238281 C 459.226562 469.625 460.222656 467.628906 459.609375 465.789062 C 458.996094 464.097656 457 463.101562 455.15625 463.640625 Z M 218.804688 333.949219 C 218.574219 333.03125 217.957031 332.261719 217.191406 331.800781 C 216.347656 331.339844 215.425781 331.1875 214.503906 331.417969 C 212.585938 331.878906 211.511719 333.796875 211.972656 335.714844 C 213.96875 343.464844 216.5 351.21875 219.417969 358.660156 C 219.953125 360.042969 221.257812 360.886719 222.714844 360.886719 C 223.175781 360.886719 223.636719 360.808594 224.019531 360.65625 C 224.863281 360.273438 225.554688 359.65625 225.941406 358.738281 C 226.324219 357.894531 226.324219 356.894531 226.015625 356.050781 C 223.101562 348.839844 220.722656 341.394531 218.804688 333.949219 Z M 581.394531 331.1875 C 579.472656 330.726562 577.554688 331.878906 577.09375 333.71875 C 575.175781 341.242188 572.796875 348.609375 569.957031 355.820312 C 569.574219 356.664062 569.652344 357.664062 570.035156 358.507812 C 570.417969 359.351562 571.109375 360.042969 571.953125 360.347656 C 572.335938 360.503906 572.796875 360.578125 573.257812 360.578125 C 574.714844 360.578125 576.019531 359.734375 576.558594 358.351562 C 579.472656 350.910156 582.007812 343.160156 584 335.410156 C 584.460938 333.566406 583.3125 331.648438 581.394531 331.1875 Z M 586.457031 283.761719 C 584.539062 283.761719 582.925781 285.375 582.925781 287.292969 L 582.925781 287.753906 C 582.925781 295.503906 582.46875 303.332031 581.46875 310.929688 C 581.238281 312.847656 582.621094 314.613281 584.539062 314.84375 C 584.691406 314.84375 584.847656 314.84375 584.921875 314.84375 C 586.6875 314.84375 588.222656 313.539062 588.453125 311.773438 C 589.449219 303.871094 589.910156 295.734375 589.910156 287.753906 L 589.910156 287.292969 C 589.910156 285.375 588.375 283.761719 586.457031 283.761719 Z M 497.058594 443.917969 C 490.535156 448.0625 483.703125 451.820312 476.722656 455.121094 C 474.957031 455.964844 474.1875 458.035156 475.03125 459.800781 C 475.648438 461.03125 476.875 461.796875 478.257812 461.796875 C 478.792969 461.796875 479.253906 461.71875 479.789062 461.488281 C 487.003906 458.113281 494.140625 454.199219 500.894531 449.824219 C 502.503906 448.75 503.042969 446.601562 501.96875 444.992188 C 500.894531 443.378906 498.746094 442.84375 497.058594 443.917969 Z M 235.914062 377 C 234.996094 375.3125 232.847656 374.699219 231.15625 375.621094 C 229.46875 376.539062 228.855469 378.6875 229.777344 380.378906 C 233.613281 387.359375 237.988281 394.191406 242.746094 400.714844 C 243.4375 401.632812 244.511719 402.171875 245.585938 402.171875 C 246.351562 402.171875 247.042969 401.941406 247.65625 401.480469 C 249.191406 400.328125 249.574219 398.105469 248.425781 396.570312 C 243.820312 390.355469 239.597656 383.753906 235.914062 377 Z M 263.15625 414.449219 C 262.542969 413.757812 261.621094 413.375 260.703125 413.375 C 259.78125 413.375 258.859375 413.683594 258.167969 414.296875 C 257.480469 414.910156 257.09375 415.832031 257.09375 416.75 C 257.09375 417.671875 257.402344 418.59375 258.015625 419.285156 C 263.542969 425.117188 269.449219 430.640625 275.589844 435.78125 C 276.203125 436.320312 277.046875 436.625 277.816406 436.625 C 278.890625 436.625 279.886719 436.167969 280.5 435.324219 C 281.113281 434.632812 281.34375 433.710938 281.269531 432.714844 C 281.191406 431.792969 280.730469 430.949219 280.039062 430.335938 C 274.132812 425.421875 268.453125 420.050781 263.15625 414.449219 Z M 409.652344 472.308594 C 401.902344 472.769531 394.074219 472.769531 386.398438 472.308594 C 384.480469 472.234375 382.792969 473.769531 382.714844 475.609375 C 382.5625 477.527344 384.097656 479.21875 386.015625 479.371094 C 389.929688 479.601562 393.996094 479.753906 397.988281 479.753906 C 402.054688 479.753906 406.121094 479.601562 410.113281 479.371094 C 412.03125 479.214844 413.566406 477.605469 413.410156 475.609375 C 413.257812 473.691406 411.570312 472.234375 409.652344 472.308594 Z M 319.253906 455.199219 C 312.269531 451.898438 305.441406 448.136719 298.917969 443.992188 C 298.152344 443.457031 297.152344 443.304688 296.230469 443.535156 C 295.3125 443.761719 294.542969 444.300781 294.007812 445.066406 C 293.46875 445.835938 293.316406 446.832031 293.546875 447.753906 C 293.777344 448.675781 294.3125 449.441406 295.082031 449.980469 C 301.835938 454.277344 308.972656 458.191406 316.183594 461.644531 C 316.644531 461.875 317.183594 461.949219 317.71875 461.949219 C 319.101562 461.949219 320.328125 461.183594 320.941406 459.957031 C 321.785156 458.113281 321.019531 456.042969 319.253906 455.199219 Z M 363.378906 469.472656 C 355.78125 468.011719 348.261719 466.09375 340.894531 463.714844 C 339.972656 463.410156 339.050781 463.484375 338.207031 463.945312 C 337.363281 464.40625 336.75 465.097656 336.441406 466.019531 C 336.136719 466.9375 336.214844 467.859375 336.671875 468.703125 C 337.132812 469.546875 337.824219 470.160156 338.746094 470.46875 C 346.34375 472.925781 354.246094 474.917969 362.074219 476.453125 C 362.304688 476.53125 362.535156 476.53125 362.765625 476.53125 C 364.453125 476.53125 365.910156 475.304688 366.21875 473.691406 C 366.523438 471.695312 365.296875 469.855469 363.378906 469.472656 Z M 363.378906 469.472656 " fill-opacity="1" fill-rule="nonzero"/></g><g clip-path="url(#a8828885fb)"><g clip-path="url(#a8e198abe8)"><g clip-path="url(#6469ae6904)"><g clip-path="url(#5cdb6ffd45)"><path stroke-linecap="round" transform="matrix(0.723135, -1.227885, 1.227885, 0.723135, 231.301514, 518.075326)" fill="none" stroke-linejoin="round" d="M 7.452635 27.216397 L 7.452007 23.558291 C 7.452185 23.364128 7.528947 23.175763 7.66828 23.039624 C 7.80386 22.902514 7.9902 22.824586 8.184363 22.824765 L 30.144258 22.823905 C 30.338421 22.824083 30.524424 22.902237 30.662925 23.040178 C 30.800035 23.175758 30.8756 23.363489 30.877784 23.556261 L 30.876051 27.215758 " stroke="#16262e" stroke-width="1.67" stroke-opacity="1" stroke-miterlimit="4"/></g></g></g></g><g clip-path="url(#1e2280bd3d)"><g clip-path="url(#dfc7350483)"><g clip-path="url(#a31a7def13)"><g clip-path="url(#70176b6cbd)"><path stroke-linecap="round" transform="matrix(0.723135, -1.227885, 1.227885, 0.723135, 231.301514, 518.075326)" fill="none" stroke-linejoin="round" d="M 19.165459 18.431897 L 19.165524 27.215382 " stroke="#16262e" stroke-width="1.67" stroke-opacity="1" stroke-miterlimit="4"/></g></g></g></g><g clip-path="url(#d6386ca82b)"><g clip-path="url(#3731f20c2e)"><g clip-path="url(#fb9c79d07d)"><g clip-path="url(#4f3a35a307)"><path fill="#ffef5e" d="M 271.289062 497.824219 C 271.765625 498.105469 272.113281 498.566406 272.25 499.101562 C 272.390625 499.636719 272.308594 500.207031 272.027344 500.683594 L 263.558594 515.0625 C 263.277344 515.539062 262.820312 515.886719 262.285156 516.023438 C 261.75 516.164062 261.179688 516.082031 260.703125 515.800781 L 251.714844 510.507812 C 251.238281 510.226562 250.890625 509.769531 250.753906 509.234375 C 250.613281 508.699219 250.695312 508.128906 250.976562 507.652344 L 259.445312 493.273438 C 259.726562 492.796875 260.183594 492.449219 260.71875 492.3125 C 261.257812 492.171875 261.824219 492.25 262.300781 492.53125 Z M 271.289062 497.824219 " fill-opacity="1" fill-rule="nonzero"/></g></g></g></g><g clip-path="url(#274b9a5e79)"><g clip-path="url(#58870c6bd3)"><g clip-path="url(#f71b86d26d)"><g clip-path="url(#585d91c52d)"><path fill="#fbed00" d="M 255.210938 500.460938 L 250.976562 507.652344 C 250.695312 508.128906 250.613281 508.699219 250.753906 509.234375 C 250.890625 509.769531 251.238281 510.226562 251.714844 510.507812 L 260.703125 515.800781 C 261.179688 516.082031 261.75 516.164062 262.285156 516.023438 C 262.820312 515.886719 263.277344 515.539062 263.558594 515.0625 L 267.792969 507.871094 Z M 255.210938 500.460938 " fill-opacity="1" fill-rule="nonzero"/></g></g></g></g><g clip-path="url(#91f3d4bae4)"><g clip-path="url(#72c5b54813)"><g clip-path="url(#e09758eac7)"><g clip-path="url(#0dd4ef283b)"><path stroke-linecap="round" transform="matrix(0.723135, -1.227885, 1.227885, 0.723135, 231.301514, 518.075326)" fill="none" stroke-linejoin="round" d="M 26.485644 16.968089 C 26.485288 17.356416 26.330372 17.730784 26.05546 18.004033 C 25.781938 18.279643 25.407867 18.433137 25.019541 18.43278 L 13.309014 18.432404 C 12.920688 18.432048 12.54771 18.279494 12.274462 18.004581 C 11.998852 17.73106 11.845358 17.356989 11.845715 16.968662 L 11.845428 9.648698 C 11.845784 9.260371 11.998338 8.887394 12.273251 8.614145 C 12.546772 8.338535 12.920843 8.185041 13.30917 8.185398 L 25.019696 8.185774 C 25.408023 8.186131 25.781 8.338684 26.054248 8.613597 C 26.33125 8.88948 26.485714 9.259798 26.485358 9.648125 Z M 26.485644 16.968089 " stroke="#16262e" stroke-width="1.67" stroke-opacity="1" stroke-miterlimit="4"/></g></g></g></g><g clip-path="url(#6b0149d9d8)"><g clip-path="url(#2b50aeb905)"><g clip-path="url(#dd7fcb515b)"><g clip-path="url(#b0b02a7835)"><path fill="#3c7a89" d="M 263.300781 505.226562 C 263.882812 504.234375 263.554688 502.953125 262.5625 502.371094 C 261.566406 501.785156 260.289062 502.117188 259.703125 503.109375 C 259.121094 504.101562 259.449219 505.378906 260.445312 505.964844 C 261.4375 506.550781 262.714844 506.21875 263.300781 505.226562 Z M 263.300781 505.226562 " fill-opacity="1" fill-rule="nonzero"/></g></g></g></g><g clip-path="url(#b49205b1be)"><g clip-path="url(#939d5a5d8c)"><g clip-path="url(#99e1ca2a8e)"><g clip-path="url(#ebadb3d0d6)"><path stroke-linecap="round" transform="matrix(0.723135, -1.227885, 1.227885, 0.723135, 231.301514, 518.075326)" fill="none" stroke-linejoin="round" d="M 19.16483 14.773791 C 19.972059 14.772403 20.629959 14.11772 20.628571 13.310491 C 20.628155 12.499509 19.972501 11.845362 19.163881 11.844387 C 18.356652 11.845775 17.701114 12.499067 17.70153 13.310049 C 17.700556 14.118669 18.35621 14.772816 19.16483 14.773791 Z M 19.16483 14.773791 " stroke="#16262e" stroke-width="1.67" stroke-opacity="1" stroke-miterlimit="4"/></g></g></g></g><g clip-path="url(#4e1dce09e3)"><g clip-path="url(#7cb4935c10)"><g clip-path="url(#0631d3c8e6)"><g clip-path="url(#f13aaf4579)"><path stroke-linecap="round" transform="matrix(0.723135, -1.227885, 1.227885, 0.723135, 231.301514, 518.075326)" fill="none" stroke-linejoin="round" d="M 23.556176 8.185553 L 23.556397 6.722033 C 23.557466 5.557053 23.093652 4.439985 22.270154 3.614276 C 21.445685 2.792321 20.330086 2.329515 19.165107 2.328446 C 18.001518 2.329739 16.883058 2.79119 16.061103 3.61566 C 15.235395 4.439158 14.77398 5.557119 14.772911 6.722098 L 14.77269 8.185619 " stroke="#16262e" stroke-width="1.67" stroke-opacity="1" stroke-miterlimit="4"/></g></g></g></g><g clip-path="url(#7fb8ef7970)"><g clip-path="url(#0dfc6ca4e7)"><g clip-path="url(#e1931b8ff9)"><g clip-path="url(#99a8114ad4)"><path fill="#90e39a" d="M 280.894531 534.957031 C 282.648438 531.980469 281.65625 528.144531 278.679688 526.390625 C 275.699219 524.632812 271.863281 525.628906 270.109375 528.605469 C 268.355469 531.585938 269.347656 535.421875 272.328125 537.175781 C 275.304688 538.929688 279.140625 537.9375 280.894531 534.957031 Z M 280.894531 534.957031 " fill-opacity="1" fill-rule="nonzero"/></g></g></g></g><g clip-path="url(#7e297e5e93)"><g clip-path="url(#145ab1f3c8)"><g clip-path="url(#1a87d97e4e)"><g clip-path="url(#9e5731c0b9)"><path stroke-linecap="round" transform="matrix(0.723135, -1.227885, 1.227885, 0.723135, 231.301514, 518.075326)" fill="none" stroke-linejoin="round" d="M 7.452701 35.999882 C 9.87717 36.000443 11.843364 34.034452 11.843925 31.609983 C 11.845458 29.181762 9.877104 27.216958 7.452635 27.216397 C 5.025805 27.217227 3.05961 29.183218 3.06044 31.610049 C 3.059879 34.034518 5.02587 36.000712 7.452701 35.999882 Z M 7.452701 35.999882 " stroke="#16262e" stroke-width="1.67" stroke-opacity="1" stroke-miterlimit="4"/></g></g></g></g><g clip-path="url(#68a6ea69d4)"><g clip-path="url(#87f85e70d7)"><g clip-path="url(#d9d7fa6058)"><g clip-path="url(#b4faf9d0e0)"><path fill="#138a36" d="M 289.367188 520.578125 C 291.121094 517.597656 290.128906 513.761719 287.148438 512.007812 C 284.171875 510.253906 280.332031 511.246094 278.578125 514.222656 C 276.824219 517.203125 277.816406 521.039062 280.796875 522.792969 C 283.773438 524.546875 287.609375 523.554688 289.367188 520.578125 Z M 289.367188 520.578125 " fill-opacity="1" fill-rule="nonzero"/></g></g></g></g><g clip-path="url(#1a0870f340)"><g clip-path="url(#ba96151f8b)"><g clip-path="url(#7eafb1e3e3)"><g clip-path="url(#1d084d1546)"><path stroke-linecap="round" transform="matrix(0.723135, -1.227885, 1.227885, 0.723135, 231.301514, 518.075326)" fill="none" stroke-linejoin="round" d="M 19.164619 36.002621 C 21.591449 36.001791 23.557644 34.035799 23.556814 31.608969 C 23.557375 29.1845 21.589993 27.215943 19.165524 27.215382 C 16.738694 27.216212 14.772499 29.182204 14.773329 31.609034 C 14.772768 34.033503 16.738759 35.999698 19.164619 36.002621 Z M 19.164619 36.002621 " stroke="#16262e" stroke-width="1.67" stroke-opacity="1" stroke-miterlimit="4"/></g></g></g></g><g clip-path="url(#206e9dbab2)"><g clip-path="url(#bc1113608e)"><g clip-path="url(#6e060cfda1)"><g clip-path="url(#fce43260fa)"><path fill="#138a36" d="M 297.835938 506.195312 C 299.589844 503.214844 298.597656 499.378906 295.617188 497.625 C 292.640625 495.871094 288.804688 496.863281 287.050781 499.84375 C 285.296875 502.820312 286.289062 506.65625 289.265625 508.410156 C 292.246094 510.167969 296.082031 509.171875 297.835938 506.195312 Z M 297.835938 506.195312 " fill-opacity="1" fill-rule="nonzero"/></g></g></g></g><g clip-path="url(#d1b01376f3)"><g clip-path="url(#6c209260d7)"><g clip-path="url(#16be1a2361)"><g clip-path="url(#5d68c8f4e5)"><path stroke-linecap="round" transform="matrix(0.723135, -1.227885, 1.227885, 0.723135, 231.301514, 518.075326)" fill="none" stroke-linejoin="round" d="M 30.877507 36.001606 C 33.304338 36.000776 35.270533 34.034784 35.269703 31.607954 C 35.270264 29.183485 33.304273 27.21729 30.877442 27.21812 C 28.452973 27.217559 26.486779 29.183551 26.486217 31.608019 C 26.484685 34.036241 28.453039 36.001045 30.877507 36.001606 Z M 30.877507 36.001606 " stroke="#16262e" stroke-width="1.67" stroke-opacity="1" stroke-miterlimit="4"/></g></g></g></g><g clip-path="url(#903f1235d5)"><g clip-path="url(#709b98c929)"><g clip-path="url(#621efe49c5)"><g clip-path="url(#db881d4a1c)"><path fill="#e5dada" d="M 507.890625 505.71875 C 507.535156 505.292969 507.363281 504.746094 507.410156 504.195312 C 507.457031 503.644531 507.722656 503.132812 508.148438 502.777344 L 540.113281 475.960938 C 540.535156 475.605469 541.082031 475.433594 541.636719 475.480469 C 542.1875 475.53125 542.695312 475.796875 543.050781 476.21875 L 571.207031 509.78125 C 571.5625 510.207031 571.738281 510.753906 571.6875 511.304688 C 571.640625 511.855469 571.375 512.363281 570.953125 512.722656 L 538.988281 539.539062 C 538.5625 539.894531 538.015625 540.066406 537.464844 540.019531 C 536.914062 539.96875 536.402344 539.703125 536.046875 539.28125 Z M 507.890625 505.71875 " fill-opacity="1" fill-rule="nonzero"/></g></g></g></g><g clip-path="url(#83cda29d8c)"><g clip-path="url(#62f0867e9a)"><g clip-path="url(#b4cf61ca56)"><g clip-path="url(#06ffda3407)"><path fill="#ffffff" d="M 571.46875 510.175781 L 507.402344 504.558594 C 507.441406 504.984375 507.609375 505.390625 507.890625 505.71875 L 536.046875 539.28125 C 536.402344 539.703125 536.914062 539.96875 537.464844 540.015625 C 538.015625 540.066406 538.5625 539.894531 538.988281 539.539062 L 570.953125 512.722656 C 571.3125 512.417969 571.558594 512 571.652344 511.539062 C 571.746094 511.074219 571.683594 510.59375 571.46875 510.175781 Z M 571.46875 510.175781 " fill-opacity="1" fill-rule="nonzero"/></g></g></g></g><g clip-path="url(#a2da59bec3)"><g clip-path="url(#c08cfe9623)"><g clip-path="url(#2610feaac5)"><g clip-path="url(#00d8d1696c)"><path stroke-linecap="round" transform="matrix(-0.915879, -1.091691, 1.091691, -0.915879, 535.380986, 546.895365)" fill="none" stroke-linejoin="round" d="M 18.433193 3.794311 L 34.53617 3.792829 C 34.925404 3.793766 35.296933 3.948022 35.571898 4.221643 C 35.846863 4.495265 36.002165 4.86887 36.001228 5.258104 L 36.000886 34.537926 C 36.001711 34.92506 35.847455 35.296588 35.572072 35.573654 C 35.296351 35.846857 34.924507 36.000058 34.537373 36.000883 L 3.794316 36.000264 C 3.405082 35.999327 3.031791 35.847171 2.758588 35.57145 C 2.483623 35.297828 2.330421 34.925984 2.327496 34.537089 L 2.327838 5.257267 C 2.328775 4.868033 2.483031 4.496505 2.756652 4.221539 C 3.032374 3.948336 3.405979 3.793035 3.793113 3.79221 L 8.186682 3.792705 " stroke="#16262e" stroke-width="1.67" stroke-opacity="1" stroke-miterlimit="4"/></g></g></g></g><g clip-path="url(#5b9bd7192f)"><g clip-path="url(#ef523b4acd)"><g clip-path="url(#846ea03122)"><g clip-path="url(#2183e4fcd4)"><path fill="#90e39a" d="M 537.023438 511.230469 C 537.902344 510.492188 538.484375 510.824219 538.304688 511.953125 L 536.921875 520.847656 L 545.921875 521.039062 C 547.070312 521.066406 547.285156 521.691406 546.410156 522.425781 L 532.027344 534.492188 C 531.605469 534.847656 531.054688 535.019531 530.503906 534.972656 C 529.953125 534.925781 529.445312 534.660156 529.089844 534.234375 L 522.386719 526.242188 C 522.027344 525.820312 521.855469 525.273438 521.90625 524.722656 C 521.953125 524.167969 522.21875 523.660156 522.640625 523.304688 Z M 537.023438 511.230469 " fill-opacity="1" fill-rule="nonzero"/></g></g></g></g><g clip-path="url(#9217336063)"><g clip-path="url(#0c7ae5bf23)"><g clip-path="url(#98662d1e25)"><g clip-path="url(#2e73056f99)"><path fill="#138a36" d="M 525.835938 520.617188 L 522.640625 523.296875 C 522.214844 523.652344 521.949219 524.164062 521.902344 524.714844 C 521.855469 525.265625 522.027344 525.8125 522.382812 526.238281 L 529.085938 534.226562 C 529.441406 534.652344 529.953125 534.917969 530.503906 534.964844 C 531.054688 535.015625 531.601562 534.839844 532.023438 534.484375 L 535.222656 531.804688 Z M 525.835938 520.617188 " fill-opacity="1" fill-rule="nonzero"/></g></g></g></g><g clip-path="url(#71adc0f8d7)"><g clip-path="url(#1eb0e9438a)"><g clip-path="url(#4ffdf50047)"><g clip-path="url(#1aaeb2a16e)"><path stroke-linecap="round" transform="matrix(-0.915879, -1.091691, 1.091691, -0.915879, 535.380986, 546.895365)" fill="none" stroke-linejoin="round" d="M 18.433131 16.969055 C 18.433625 17.774557 17.992605 17.937707 17.466735 17.331931 L 13.308609 12.576784 L 9.146408 17.328975 C 8.613724 17.934057 8.180814 17.767665 8.180658 16.966025 L 8.18072 3.791281 C 8.179895 3.404147 8.335913 3.030519 8.609534 2.755553 C 8.883156 2.480588 9.254999 2.327387 9.644233 2.328323 L 16.964273 2.329374 C 17.353169 2.326449 17.724698 2.480706 17.997901 2.756427 C 18.274966 3.03181 18.428168 3.403654 18.428993 3.790788 Z M 18.433131 16.969055 " stroke="#16262e" stroke-width="1.67" stroke-opacity="1" stroke-miterlimit="4"/></g></g></g></g><g clip-path="url(#bc70c97b74)"><g clip-path="url(#a2254c8911)"><g clip-path="url(#48f6b6b511)"><g clip-path="url(#f223afd3f6)"><path stroke-linecap="round" transform="matrix(-0.915879, -1.091691, 1.091691, -0.915879, 535.380986, 546.895365)" fill="none" stroke-linejoin="round" d="M 22.825373 11.110985 L 31.608648 11.112313 " stroke="#16262e" stroke-width="1.67" stroke-opacity="1" stroke-miterlimit="4"/></g></g></g></g><g clip-path="url(#534ae4da6a)"><g clip-path="url(#acc2f8b31f)"><g clip-path="url(#8ed67cac7f)"><g clip-path="url(#317e878326)"><path stroke-linecap="round" transform="matrix(-0.915879, -1.091691, 1.091691, -0.915879, 535.380986, 546.895365)" fill="none" stroke-linejoin="round" d="M 22.824599 16.967789 L 31.609637 16.967018 " stroke="#16262e" stroke-width="1.67" stroke-opacity="1" stroke-miterlimit="4"/></g></g></g></g><g clip-path="url(#86e8262cb5)"><g clip-path="url(#94bb3f2561)"><g clip-path="url(#25c7d398dd)"><g clip-path="url(#c012e1baa5)"><path stroke-linecap="round" transform="matrix(-0.915879, -1.091691, 1.091691, -0.915879, 535.380986, 546.895365)" fill="none" stroke-linejoin="round" d="M 6.722611 22.823975 L 31.608864 22.823822 " stroke="#16262e" stroke-width="1.67" stroke-opacity="1" stroke-miterlimit="4"/></g></g></g></g><g clip-path="url(#ed7f57c1df)"><g clip-path="url(#adf48c0101)"><g clip-path="url(#58e1a15309)"><g clip-path="url(#3a7b53af98)"><path stroke-linecap="round" transform="matrix(-0.915879, -1.091691, 1.091691, -0.915879, 535.380986, 546.895365)" fill="none" stroke-linejoin="round" d="M 6.721838 28.68078 L 30.872442 28.678894 " stroke="#16262e" stroke-width="1.67" stroke-opacity="1" stroke-miterlimit="4"/></g></g></g></g><g clip-path="url(#1cfec7f87e)"><g clip-path="url(#37180108ce)"><g clip-path="url(#dd487661c1)"><g clip-path="url(#e6ef97316b)"><path fill="#e5dada" d="M 565.71875 56.773438 L 551.332031 48.445312 C 546.542969 45.75 541.042969 44.589844 535.578125 45.125 C 530.109375 45.660156 524.9375 47.859375 520.761719 51.429688 L 518.761719 53.089844 C 517.425781 54.203125 516.53125 55.75 516.230469 57.460938 L 515.789062 60.023438 C 514.777344 65.425781 515.445312 71.003906 517.707031 76.011719 C 519.96875 81.015625 523.714844 85.207031 528.4375 88.011719 L 542.824219 96.339844 C 543.390625 96.664062 544.042969 96.816406 544.695312 96.773438 C 545.34375 96.734375 545.972656 96.503906 546.492188 96.109375 C 552.179688 91.78125 556.921875 86.34375 560.441406 80.125 C 564.082031 73.976562 566.429688 67.148438 567.351562 60.0625 C 567.429688 59.417969 567.320312 58.757812 567.027344 58.171875 C 566.738281 57.589844 566.285156 57.101562 565.71875 56.773438 Z M 565.71875 56.773438 " fill-opacity="1" fill-rule="nonzero"/></g></g></g></g><g clip-path="url(#82363922a6)"><g clip-path="url(#ef96162a96)"><g clip-path="url(#2ad16d2b33)"><g clip-path="url(#892bafaf65)"><path fill="#ffffff" d="M 560.441406 80.125 C 564.082031 73.976562 566.429688 67.148438 567.351562 60.0625 C 567.429688 59.417969 567.320312 58.757812 567.027344 58.171875 C 566.738281 57.589844 566.285156 57.101562 565.71875 56.773438 L 551.332031 48.445312 C 546.542969 45.75 541.042969 44.589844 535.578125 45.125 C 530.109375 45.660156 524.9375 47.859375 520.761719 51.429688 L 518.761719 53.089844 C 518.101562 53.640625 517.539062 54.304688 517.109375 55.050781 Z M 560.441406 80.125 " fill-opacity="1" fill-rule="nonzero"/></g></g></g></g><g clip-path="url(#7db53f6124)"><g clip-path="url(#f3e263ae8b)"><g clip-path="url(#1086b097a8)"><g clip-path="url(#ca05461382)"><path stroke-linecap="round" transform="matrix(-0.713663, 1.233414, -1.233414, -0.713663, 576.092328, 57.628074)" fill="none" stroke-linejoin="round" d="M 3.12668 6.601337 L 3.124335 18.266837 C 3.1703 22.12301 4.398588 25.871481 6.644263 29.00278 C 8.891311 32.136452 12.044785 34.504966 15.680992 35.786576 L 17.392281 36.417926 C 18.53801 36.838121 19.791974 36.837816 20.936917 36.419203 L 22.648528 35.786726 C 26.285513 34.502598 29.438943 32.136439 31.685839 29.002662 C 33.930362 25.870259 35.159684 22.121789 35.203492 18.267512 L 35.205838 6.602012 C 35.203707 6.144027 35.066976 5.694248 34.81161 5.313112 C 34.55999 4.932976 34.198973 4.631972 33.776743 4.455064 C 29.148943 2.52156 24.179531 1.552134 19.165285 1.599927 C 14.151189 1.549456 9.178661 2.523218 4.550626 4.453616 C 4.131676 4.632683 3.769133 4.93113 3.516195 5.315009 C 3.264257 5.695142 3.126922 6.141979 3.12668 6.601337 Z M 3.12668 6.601337 " stroke="#16262e" stroke-width="1.67" stroke-opacity="1" stroke-miterlimit="4"/></g></g></g></g><g clip-path="url(#1bc701c845)"><g clip-path="url(#ce376ec95f)"><g clip-path="url(#4bee829d49)"><g clip-path="url(#73d318b908)"><path fill="#3c7a89" d="M 532.183594 63.773438 C 529.171875 68.976562 530.949219 75.632812 536.152344 78.644531 C 541.355469 81.652344 548.011719 79.875 551.023438 74.675781 C 554.035156 69.472656 552.257812 62.8125 547.054688 59.800781 C 541.851562 56.792969 535.191406 58.570312 532.183594 63.773438 Z M 532.183594 63.773438 " fill-opacity="1" fill-rule="nonzero"/></g></g></g></g><g clip-path="url(#71b0dc20bc)"><g clip-path="url(#66d7b33a5d)"><g clip-path="url(#b326aa2fe3)"><g clip-path="url(#32caa79234)"><path fill="#90e39a" d="M 532.183594 63.773438 C 533.628906 61.273438 536.007812 59.453125 538.796875 58.707031 C 541.585938 57.964844 544.554688 58.355469 547.054688 59.800781 C 549.550781 61.25 551.375 63.628906 552.117188 66.417969 C 552.863281 69.203125 552.46875 72.175781 551.023438 74.675781 Z M 532.183594 63.773438 " fill-opacity="1" fill-rule="nonzero"/></g></g></g></g><g clip-path="url(#40374c67de)"><g clip-path="url(#9dd910f00b)"><g clip-path="url(#5c43575ac1)"><g clip-path="url(#45a0319ca5)"><path stroke-linecap="round" transform="matrix(-0.713663, 1.233414, -1.233414, -0.713663, 576.092328, 57.628074)" fill="none" stroke-linejoin="round" d="M 26.802425 16.873564 C 26.802415 18.38424 26.355791 19.861963 25.514917 21.118086 C 24.676415 22.372835 23.482134 23.352054 22.087805 23.930797 C 20.692104 24.507168 19.156417 24.660979 17.67441 24.365683 C 16.192403 24.070388 14.831494 23.343983 13.762844 22.274289 C 12.695567 21.206968 11.967733 19.845065 11.674815 18.364531 C 11.378151 16.882997 11.53137 15.347015 12.108327 13.952231 C 12.687656 12.556074 13.666234 11.362791 14.921785 10.522307 C 16.176337 9.685568 17.654664 9.235576 19.165339 9.235586 " stroke="#16262e" stroke-width="1.67" stroke-opacity="1" stroke-miterlimit="4"/></g></g></g></g><g clip-path="url(#ffaaaebd7d)"><g clip-path="url(#9d000098d4)"><g clip-path="url(#4480510108)"><g clip-path="url(#f8eb255d06)"><path stroke-linecap="round" transform="matrix(-0.713663, 1.233414, -1.233414, -0.713663, 576.092328, 57.628074)" fill="none" stroke-linejoin="round" d="M 16.110024 16.111821 L 18.583768 17.967863 C 18.739438 18.083648 18.937951 18.136639 19.130615 18.113838 C 19.325652 18.089665 19.505349 17.995192 19.629997 17.843894 L 26.802371 9.237905 " stroke="#16262e" stroke-width="1.67" stroke-opacity="1" stroke-miterlimit="4"/></g></g></g></g><path fill="#3c7a89" d="M 625.378906 275.914062 C 624.800781 275.914062 624.246094 276.144531 623.835938 276.550781 C 623.429688 276.960938 623.199219 277.511719 623.199219 278.089844 L 623.199219 304.214844 C 623.199219 304.789062 623.429688 305.34375 623.835938 305.753906 C 624.246094 306.160156 624.800781 306.390625 625.378906 306.390625 L 646.890625 306.390625 C 647.292969 306.390625 647.6875 306.503906 648.03125 306.714844 C 648.375 306.929688 648.65625 307.234375 648.835938 307.59375 L 650.898438 311.71875 C 651.078125 312.078125 651.355469 312.382812 651.699219 312.59375 C 652.042969 312.808594 652.441406 312.921875 652.84375 312.921875 L 664.5625 312.921875 C 665.136719 312.921875 665.691406 312.691406 666.101562 312.285156 C 666.507812 311.875 666.738281 311.320312 666.738281 310.742188 L 666.738281 278.089844 C 666.738281 277.511719 666.507812 276.960938 666.101562 276.550781 C 665.691406 276.144531 665.136719 275.914062 664.5625 275.914062 Z M 625.378906 275.914062 " fill-opacity="1" fill-rule="nonzero"/><path fill="#90e39a" d="M 646.890625 306.390625 C 647.292969 306.390625 647.6875 306.503906 648.03125 306.714844 C 648.375 306.929688 648.65625 307.234375 648.835938 307.59375 L 650.898438 311.71875 C 651.078125 312.078125 651.355469 312.382812 651.699219 312.59375 C 652.042969 312.808594 652.441406 312.921875 652.84375 312.921875 L 664.5625 312.921875 C 665.136719 312.921875 665.691406 312.691406 666.101562 312.285156 C 666.507812 311.875 666.738281 311.320312 666.738281 310.742188 L 666.738281 278.089844 C 666.738281 277.511719 666.507812 276.960938 666.101562 276.550781 C 665.691406 276.144531 665.136719 275.914062 664.5625 275.914062 L 663.039062 275.914062 L 632.5625 306.390625 Z M 646.890625 306.390625 " fill-opacity="1" fill-rule="nonzero"/><path stroke-linecap="round" transform="matrix(-1.425, -0.000000000000000177, 0.000000000000000177, -1.425, 669.014924, 315.196824)" fill="none" stroke-linejoin="round" d="M 32.151371 13.819591 L 32.151371 7.706652 C 32.151371 7.303692 31.989638 6.914437 31.704551 6.626608 C 31.416722 6.341521 31.027467 6.179788 30.621766 6.179788 L 15.525823 6.179788 C 15.243477 6.179788 14.966613 6.100293 14.725385 5.952266 C 14.484157 5.801499 14.286788 5.587683 14.160692 5.33549 L 12.713323 2.440753 C 12.587227 2.18856 12.3926 1.974745 12.151372 1.826718 C 11.910144 1.675951 11.630538 1.596455 11.348192 1.596455 L 3.124508 1.596455 C 2.721548 1.596455 2.332293 1.758188 2.044464 2.043275 C 1.759377 2.331104 1.597644 2.720359 1.597644 3.12606 L 1.597644 26.039985 C 1.597644 26.445687 1.759377 26.8322 2.044464 27.120029 C 2.332293 27.405116 2.721548 27.566849 3.124508 27.566849 L 13.818038 27.566849 " stroke="#16262e" stroke-width="1.67" stroke-opacity="1" stroke-miterlimit="4"/><path stroke-linecap="round" transform="matrix(-1.425, -0.000000000000000177, 0.000000000000000177, -1.425, 669.014924, 315.196824)" fill-opacity="1" fill="#3c7a89" fill-rule="nonzero" stroke-linejoin="round" d="M 21.838871 32.150182 C 22.748959 32.150182 23.623411 31.78834 24.267599 31.144151 C 24.911788 30.499963 25.276371 29.625511 25.276371 28.712682 C 25.276371 27.802594 24.911788 26.928143 24.267599 26.281213 C 23.623411 25.637024 22.748959 25.275182 21.838871 25.275182 C 20.926042 25.275182 20.051591 25.637024 19.407402 26.281213 C 18.763213 26.928143 18.401371 27.802594 18.401371 28.712682 C 18.401371 29.625511 18.763213 30.499963 19.407402 31.144151 C 20.051591 31.78834 20.926042 32.150182 21.838871 32.150182 Z M 21.838871 32.150182 " stroke="#16262e" stroke-width="1.67" stroke-opacity="1" stroke-miterlimit="4"/><path stroke-linecap="round" transform="matrix(-1.425, -0.000000000000000177, 0.000000000000000177, -1.425, 669.014924, 315.196824)" fill-opacity="1" fill="#3c7a89" fill-rule="nonzero" stroke-linejoin="round" d="M 33.297204 36.733515 C 33.746765 36.733515 34.193586 36.643055 34.610252 36.470357 C 35.02966 36.29766 35.40795 36.045467 35.725932 35.727484 C 36.046656 35.406761 36.298849 35.028471 36.471546 34.611805 C 36.644243 34.195138 36.731963 33.748318 36.731963 33.296015 C 36.731963 32.843713 36.644243 32.396892 36.471546 31.980226 C 36.298849 31.563559 36.046656 31.18527 35.725932 30.864546 C 35.40795 30.546564 35.02966 30.291629 34.610252 30.118932 C 34.193586 29.946235 33.746765 29.858515 33.297204 29.858515 C 32.384375 29.858515 31.509923 30.220357 30.865735 30.864546 C 30.221546 31.508735 29.859704 32.383186 29.859704 33.296015 C 29.859704 34.206103 30.221546 35.080555 30.865735 35.727484 C 31.509923 36.371673 32.384375 36.733515 33.297204 36.733515 Z M 33.297204 36.733515 " stroke="#16262e" stroke-width="1.67" stroke-opacity="1" stroke-miterlimit="4"/><path stroke-linecap="round" transform="matrix(-1.425, -0.000000000000000177, 0.000000000000000177, -1.425, 669.014924, 315.196824)" fill-opacity="1" fill="#3c7a89" fill-rule="nonzero" stroke-linejoin="round" d="M 33.297204 25.275182 C 33.746765 25.275182 34.193586 25.187463 34.610252 25.014766 C 35.02966 24.842068 35.40795 24.587134 35.725932 24.269152 C 36.046656 23.948428 36.298849 23.570138 36.471546 23.153472 C 36.644243 22.736805 36.731963 22.289985 36.731963 21.837682 C 36.731963 21.388121 36.644243 20.941301 36.471546 20.521893 C 36.298849 20.105226 36.046656 19.726937 35.725932 19.408954 C 35.40795 19.088231 35.02966 18.836038 34.610252 18.66334 C 34.193586 18.490643 33.746765 18.400182 33.297204 18.400182 C 32.384375 18.400182 31.509923 18.762025 30.865735 19.408954 C 30.221546 20.053143 29.859704 20.927595 29.859704 21.837682 C 29.859704 22.750511 30.221546 23.624963 30.865735 24.269152 C 31.509923 24.91334 32.384375 25.275182 33.297204 25.275182 Z M 33.297204 25.275182 " stroke="#16262e" stroke-width="1.67" stroke-opacity="1" stroke-miterlimit="4"/><path stroke-linecap="round" transform="matrix(-1.425, -0.000000000000000177, 0.000000000000000177, -1.425, 669.014924, 315.196824)" fill="none" stroke-linejoin="round" d="M 24.780209 26.947331 L 30.355867 23.603033 " stroke="#16262e" stroke-width="1.67" stroke-opacity="1" stroke-miterlimit="4"/><path stroke-linecap="round" transform="matrix(-1.425, -0.000000000000000177, 0.000000000000000177, -1.425, 669.014924, 315.196824)" fill="none" stroke-linejoin="round" d="M 25.029661 29.987353 L 30.106415 32.021344 " stroke="#16262e" stroke-width="1.67" stroke-opacity="1" stroke-miterlimit="4"/><g clip-path="url(#08aa195040)"><g clip-path="url(#2ad1b8f596)"><g clip-path="url(#1a5be7fe20)"><g clip-path="url(#ffa1c3b94f)"><path fill="#ffffff" d="M 291.035156 73.507812 L 273.570312 43.375 C 272.992188 42.378906 272.832031 41.1875 273.128906 40.074219 C 273.425781 38.957031 274.152344 38.003906 275.152344 37.425781 C 276.152344 36.847656 277.339844 36.6875 278.457031 36.984375 C 279.570312 37.28125 280.523438 38.011719 281.101562 39.007812 L 298.570312 69.144531 Z M 291.035156 73.507812 " fill-opacity="1" fill-rule="nonzero"/></g></g></g></g><g clip-path="url(#7a87f684ee)"><g clip-path="url(#417d5f9b98)"><g clip-path="url(#1d5a3c8de1)"><g clip-path="url(#162fd457ea)"><path fill="#3c7a89" d="M 290.246094 76.484375 L 258.226562 95.042969 C 257.730469 95.332031 257.132812 95.414062 256.578125 95.265625 C 256.019531 95.117188 255.542969 94.75 255.253906 94.253906 L 237.785156 64.117188 C 237.207031 63.121094 237.046875 61.933594 237.34375 60.816406 C 237.640625 59.699219 238.371094 58.746094 239.367188 58.167969 L 275.152344 37.425781 C 274.152344 38.003906 273.425781 38.957031 273.128906 40.074219 C 272.832031 41.1875 272.988281 42.378906 273.570312 43.375 L 291.035156 73.507812 C 291.328125 74.007812 291.40625 74.601562 291.257812 75.160156 C 291.109375 75.71875 290.746094 76.195312 290.246094 76.484375 Z M 290.246094 76.484375 " fill-opacity="1" fill-rule="nonzero"/></g></g></g></g><g clip-path="url(#4cdf708d4a)"><g clip-path="url(#2e892547b4)"><g clip-path="url(#b2332d632d)"><g clip-path="url(#93a79d0bdb)"><path fill="#e5dada" d="M 243.097656 64.601562 L 275.117188 46.042969 L 273.5625 43.367188 C 272.984375 42.367188 272.828125 41.179688 273.125 40.0625 C 273.421875 38.949219 274.148438 37.996094 275.148438 37.417969 L 239.363281 58.160156 C 238.363281 58.738281 237.636719 59.691406 237.339844 60.808594 C 237.042969 61.921875 237.203125 63.109375 237.78125 64.109375 L 241.515625 70.554688 C 240.9375 69.554688 240.777344 68.367188 241.074219 67.25 C 241.371094 66.132812 242.101562 65.183594 243.097656 64.601562 Z M 243.097656 64.601562 " fill-opacity="1" fill-rule="nonzero"/></g></g></g></g><g clip-path="url(#e6c563e995)"><g clip-path="url(#d3c54c351b)"><g clip-path="url(#c3a4615386)"><g clip-path="url(#5f8f34e943)"><path stroke-linecap="round" transform="matrix(0.714644, 1.232846, -1.232846, 0.714644, 278.654578, 30.247813)" fill="none" stroke-linejoin="round" d="M 19.29369 36.733254 L 6.185812 36.733029 C 5.375224 36.732091 4.597897 36.411406 4.026475 35.839365 C 3.452681 35.265949 3.13109 34.487026 3.130653 33.67881 L 3.1315 4.65284 " stroke="#16262e" stroke-width="1.67" stroke-opacity="1" stroke-miterlimit="4"/></g></g></g></g><g clip-path="url(#599cbd9b1a)"><g clip-path="url(#8bd8b8e00f)"><g clip-path="url(#e3fb791eed)"><g clip-path="url(#b2715aa5e2)"><path stroke-linecap="round" transform="matrix(0.714644, 1.232846, -1.232846, 0.714644, 278.654578, 30.247813)" fill="none" stroke-linejoin="round" d="M 32.154629 1.597623 L 6.185719 1.597681 C 5.375131 1.596743 4.59858 1.919709 4.026539 2.491132 C 3.453123 3.064926 3.132438 3.842252 3.1315 4.65284 C 3.130562 5.463427 3.453528 6.239979 4.02495 6.81202 C 4.598744 7.385436 5.374696 7.708492 6.186658 7.707059 L 30.627537 7.708421 C 31.034205 7.706519 31.422181 7.868047 31.709078 8.154755 C 31.995975 8.441463 32.157458 8.829738 32.156989 9.235032 L 32.156464 19.20594 " stroke="#16262e" stroke-width="1.67" stroke-opacity="1" stroke-miterlimit="4"/></g></g></g></g><g clip-path="url(#79131ebd04)"><g clip-path="url(#9dc5c2b0d5)"><g clip-path="url(#787598fd47)"><g clip-path="url(#a28cb89b50)"><path stroke-linecap="round" transform="matrix(0.714644, 1.232846, -1.232846, 0.714644, 278.654578, 30.247813)" fill="none" stroke-linejoin="round" d="M 6.186189 4.65237 L 30.628442 4.651361 " stroke="#16262e" stroke-width="1.67" stroke-opacity="1" stroke-miterlimit="4"/></g></g></g></g><g clip-path="url(#6e44b409ab)"><g clip-path="url(#623bf7a556)"><g clip-path="url(#0c1926656a)"><g clip-path="url(#54335247e0)"><path fill="#ffffff" d="M 255.125 85.605469 C 256.101562 87.292969 257.558594 88.652344 259.308594 89.511719 C 261.058594 90.371094 263.023438 90.691406 264.957031 90.433594 C 266.890625 90.175781 268.703125 89.347656 270.167969 88.0625 C 271.632812 86.773438 272.679688 85.078125 273.179688 83.195312 C 273.683594 81.3125 273.613281 79.320312 272.984375 77.472656 C 272.355469 75.628906 271.191406 74.011719 269.640625 72.828125 C 268.09375 71.644531 266.226562 70.945312 264.28125 70.820312 C 262.335938 70.695312 260.394531 71.152344 258.710938 72.128906 C 256.445312 73.441406 254.796875 75.597656 254.125 78.125 C 253.453125 80.652344 253.8125 83.34375 255.125 85.605469 Z M 255.125 85.605469 " fill-opacity="1" fill-rule="nonzero"/></g></g></g></g><g clip-path="url(#c81984f99e)"><g clip-path="url(#aacd18da0e)"><g clip-path="url(#41c288050b)"><g clip-path="url(#831839f1ea)"><path stroke-linecap="round" transform="matrix(0.714644, 1.232846, -1.232846, 0.714644, 278.654578, 30.247813)" fill="none" stroke-linejoin="round" d="M 25.328258 33.767609 C 26.696468 33.768599 28.034558 33.362406 29.17219 32.602377 C 30.309822 31.842349 31.195785 30.762169 31.719756 29.4975 C 32.243726 28.232832 32.378828 26.840971 32.114103 25.499337 C 31.847006 24.156328 31.186166 22.924106 30.219028 21.957919 C 29.253264 20.989361 28.019009 20.330933 26.675916 20.062507 C 25.335193 19.795457 23.943684 19.933048 22.679322 20.458023 C 21.416335 20.980626 20.334696 21.868166 19.574186 23.005225 C 18.813676 24.142284 18.407907 25.481807 18.408291 26.847646 C 18.407797 28.685078 19.136773 30.444744 20.434735 31.742112 C 21.732697 33.039481 23.493197 33.768489 25.328258 33.767609 Z M 25.328258 33.767609 " stroke="#16262e" stroke-width="1.67" stroke-opacity="1" stroke-miterlimit="4"/></g></g></g></g><g clip-path="url(#726ba928dc)"><g clip-path="url(#7090bf97f1)"><g clip-path="url(#015249f013)"><g clip-path="url(#6f547bbda4)"><path stroke-linecap="round" transform="matrix(0.714644, 1.232846, -1.232846, 0.714644, 278.654578, 30.247813)" fill="none" stroke-linejoin="round" d="M 35.211782 36.733876 L 30.252799 31.771273 " stroke="#16262e" stroke-width="1.67" stroke-opacity="1" stroke-miterlimit="4"/></g></g></g></g><g clip-path="url(#8dc2b32e4c)"><g clip-path="url(#8132324862)"><g clip-path="url(#a69ecf1fb3)"><g clip-path="url(#566411720f)"><path fill="#e3e3e3" d="M 255.125 85.605469 C 256.101562 87.292969 257.558594 88.652344 259.308594 89.511719 C 261.058594 90.371094 263.023438 90.691406 264.957031 90.433594 C 266.890625 90.175781 268.703125 89.347656 270.167969 88.0625 C 271.632812 86.773438 272.679688 85.078125 273.179688 83.195312 C 273.683594 81.3125 273.613281 79.320312 272.984375 77.472656 C 272.355469 75.628906 271.191406 74.011719 269.640625 72.828125 C 268.09375 71.644531 266.226562 70.945312 264.28125 70.820312 C 262.335938 70.695312 260.394531 71.152344 258.710938 72.128906 C 256.445312 73.441406 254.796875 75.597656 254.125 78.125 C 253.453125 80.652344 253.8125 83.34375 255.125 85.605469 Z M 255.125 85.605469 " fill-opacity="1" fill-rule="nonzero"/></g></g></g></g><g clip-path="url(#4bf8effd57)"><g clip-path="url(#96d44b22c7)"><g clip-path="url(#c7745cd8a6)"><g clip-path="url(#3bb059616e)"><path fill="#ffffff" d="M 272.183594 75.714844 C 271.207031 74.023438 269.746094 72.664062 267.992188 71.804688 C 266.238281 70.945312 264.265625 70.625 262.332031 70.886719 C 260.394531 71.152344 258.582031 71.984375 257.121094 73.277344 C 255.65625 74.574219 254.613281 76.273438 254.121094 78.164062 L 273.160156 83.230469 C 273.503906 81.976562 273.59375 80.664062 273.425781 79.375 C 273.257812 78.082031 272.835938 76.839844 272.183594 75.714844 Z M 272.183594 75.714844 " fill-opacity="1" fill-rule="nonzero"/></g></g></g></g><g clip-path="url(#cbe1c0e546)"><g clip-path="url(#a411601983)"><g clip-path="url(#752f35ec3b)"><g clip-path="url(#cbf56bc163)"><path stroke-linecap="round" transform="matrix(0.714644, 1.232846, -1.232846, 0.714644, 278.654578, 30.247813)" fill="none" stroke-linejoin="round" d="M 25.328258 33.767609 C 26.696468 33.768599 28.034558 33.362406 29.17219 32.602377 C 30.309822 31.842349 31.195785 30.762169 31.719756 29.4975 C 32.243726 28.232832 32.378828 26.840971 32.114103 25.499337 C 31.847006 24.156328 31.186166 22.924106 30.219028 21.957919 C 29.253264 20.989361 28.019009 20.330933 26.675916 20.062507 C 25.335193 19.795457 23.943684 19.933048 22.679322 20.458023 C 21.416335 20.980626 20.334696 21.868166 19.574186 23.005225 C 18.813676 24.142284 18.407907 25.481807 18.408291 26.847646 C 18.407797 28.685078 19.136773 30.444744 20.434735 31.742112 C 21.732697 33.039481 23.493197 33.768489 25.328258 33.767609 Z M 25.328258 33.767609 " stroke="#16262e" stroke-width="1.67" stroke-opacity="1" stroke-miterlimit="4"/></g></g></g></g><g clip-path="url(#379994202f)"><g clip-path="url(#ca5eebd3fd)"><g clip-path="url(#1a32f39425)"><g clip-path="url(#92f69569b3)"><path stroke-linecap="round" transform="matrix(0.714644, 1.232846, -1.232846, 0.714644, 278.654578, 30.247813)" fill="none" stroke-linejoin="round" d="M 35.211782 36.733876 L 30.252799 31.771273 " stroke="#16262e" stroke-width="1.67" stroke-opacity="1" stroke-miterlimit="4"/></g></g></g></g><path fill="#16262e" d="M 145.703125 310.707031 C 145.703125 311.285156 145.472656 311.839844 145.0625 312.25 C 144.65625 312.65625 144.101562 312.886719 143.523438 312.886719 L 131.550781 312.886719 C 130.972656 312.886719 130.421875 312.65625 130.011719 312.25 C 129.605469 311.839844 129.375 311.285156 129.375 310.707031 L 129.375 264.992188 C 129.375 264.417969 129.605469 263.863281 130.011719 263.453125 C 130.421875 263.046875 130.972656 262.816406 131.550781 262.816406 L 143.523438 262.816406 C 144.101562 262.816406 144.65625 263.046875 145.0625 263.453125 C 145.472656 263.863281 145.703125 264.417969 145.703125 264.992188 Z M 145.703125 310.707031 " fill-opacity="1" fill-rule="nonzero"/><path fill="#90e39a" d="M 163.117188 310.707031 C 163.117188 311.285156 162.886719 311.839844 162.480469 312.25 C 162.070312 312.65625 161.515625 312.886719 160.941406 312.886719 L 147.878906 312.886719 C 147.300781 312.886719 146.746094 312.65625 146.339844 312.25 C 145.929688 311.839844 145.703125 311.285156 145.703125 310.707031 L 145.703125 264.992188 C 145.703125 264.417969 145.929688 263.863281 146.339844 263.453125 C 146.746094 263.046875 147.300781 262.816406 147.878906 262.816406 L 160.941406 262.816406 C 161.515625 262.816406 162.070312 263.046875 162.480469 263.453125 C 162.886719 263.863281 163.117188 264.417969 163.117188 264.992188 Z M 163.117188 310.707031 " fill-opacity="1" fill-rule="nonzero"/><path fill="#3c7a89" d="M 179.441406 310.707031 C 179.441406 311.285156 179.214844 311.839844 178.804688 312.25 C 178.398438 312.65625 177.84375 312.886719 177.265625 312.886719 L 165.292969 312.886719 C 164.714844 312.886719 164.160156 312.65625 163.753906 312.25 C 163.34375 311.839844 163.117188 311.285156 163.117188 310.707031 L 163.117188 264.992188 C 163.117188 264.417969 163.34375 263.863281 163.753906 263.453125 C 164.160156 263.046875 164.714844 262.816406 165.292969 262.816406 L 177.265625 262.816406 C 177.84375 262.816406 178.398438 263.046875 178.804688 263.453125 C 179.214844 263.863281 179.441406 264.417969 179.441406 264.992188 Z M 179.441406 310.707031 " fill-opacity="1" fill-rule="nonzero"/><path fill="#ffffff" d="M 136.992188 306.355469 C 137.640625 306.355469 138.269531 306.164062 138.808594 305.804688 C 139.34375 305.445312 139.761719 304.9375 140.011719 304.339844 C 140.257812 303.742188 140.320312 303.085938 140.195312 302.453125 C 140.070312 301.820312 139.757812 301.238281 139.300781 300.78125 C 138.84375 300.324219 138.261719 300.011719 137.628906 299.886719 C 136.996094 299.761719 136.339844 299.824219 135.742188 300.074219 C 135.148438 300.320312 134.636719 300.738281 134.277344 301.277344 C 133.917969 301.8125 133.726562 302.445312 133.726562 303.089844 C 133.726562 303.957031 134.070312 304.785156 134.683594 305.398438 C 135.296875 306.011719 136.128906 306.355469 136.992188 306.355469 Z M 136.992188 306.355469 " fill-opacity="1" fill-rule="nonzero"/><path fill="#ffffff" d="M 154.410156 306.355469 C 155.054688 306.355469 155.6875 306.164062 156.222656 305.804688 C 156.761719 305.445312 157.179688 304.9375 157.425781 304.339844 C 157.671875 303.742188 157.738281 303.085938 157.609375 302.453125 C 157.484375 301.820312 157.175781 301.238281 156.71875 300.78125 C 156.261719 300.324219 155.679688 300.011719 155.046875 299.886719 C 154.414062 299.761719 153.757812 299.824219 153.160156 300.074219 C 152.5625 300.320312 152.050781 300.738281 151.695312 301.277344 C 151.335938 301.8125 151.144531 302.445312 151.144531 303.089844 C 151.144531 303.957031 151.488281 304.785156 152.097656 305.398438 C 152.710938 306.011719 153.542969 306.355469 154.410156 306.355469 Z M 154.410156 306.355469 " fill-opacity="1" fill-rule="nonzero"/><path fill="#ffffff" d="M 171.824219 306.355469 C 172.46875 306.355469 173.101562 306.164062 173.636719 305.804688 C 174.175781 305.445312 174.59375 304.9375 174.839844 304.339844 C 175.089844 303.742188 175.152344 303.085938 175.027344 302.453125 C 174.902344 301.820312 174.589844 301.238281 174.132812 300.78125 C 173.675781 300.324219 173.09375 300.011719 172.460938 299.886719 C 171.828125 299.761719 171.171875 299.824219 170.574219 300.074219 C 169.976562 300.320312 169.46875 300.738281 169.109375 301.277344 C 168.75 301.8125 168.558594 302.445312 168.558594 303.089844 C 168.558594 303.957031 168.902344 304.785156 169.515625 305.398438 C 170.128906 306.011719 170.957031 306.355469 171.824219 306.355469 Z M 171.824219 306.355469 " fill-opacity="1" fill-rule="nonzero"/><path fill="#138a36" d="M 140.257812 268.257812 L 140.257812 273.703125 L 133.726562 273.703125 L 133.726562 268.257812 C 133.726562 267.96875 133.84375 267.695312 134.046875 267.488281 C 134.25 267.285156 134.527344 267.171875 134.816406 267.171875 L 139.171875 267.171875 C 139.457031 267.171875 139.734375 267.285156 139.941406 267.488281 C 140.144531 267.695312 140.257812 267.96875 140.257812 268.257812 Z M 140.257812 268.257812 " fill-opacity="1" fill-rule="nonzero"/><path fill="#ffffff" d="M 140.257812 273.703125 L 140.257812 292.207031 C 140.257812 292.492188 140.144531 292.769531 139.941406 292.976562 C 139.734375 293.179688 139.457031 293.292969 139.171875 293.292969 L 134.816406 293.292969 C 134.527344 293.292969 134.25 293.179688 134.046875 292.976562 C 133.84375 292.769531 133.726562 292.492188 133.726562 292.207031 L 133.726562 273.703125 Z M 140.257812 273.703125 " fill-opacity="1" fill-rule="nonzero"/><path fill="#138a36" d="M 157.675781 268.257812 L 157.675781 273.703125 L 151.144531 273.703125 L 151.144531 268.257812 C 151.144531 267.96875 151.257812 267.695312 151.460938 267.488281 C 151.667969 267.285156 151.941406 267.171875 152.230469 267.171875 L 156.585938 267.171875 C 156.875 267.171875 157.152344 267.285156 157.355469 267.488281 C 157.558594 267.695312 157.675781 267.96875 157.675781 268.257812 Z M 157.675781 268.257812 " fill-opacity="1" fill-rule="nonzero"/><path fill="#ffffff" d="M 157.675781 273.703125 L 157.675781 292.207031 C 157.675781 292.492188 157.558594 292.769531 157.355469 292.976562 C 157.152344 293.179688 156.875 293.292969 156.585938 293.292969 L 152.230469 293.292969 C 151.941406 293.292969 151.667969 293.179688 151.460938 292.976562 C 151.257812 292.769531 151.144531 292.492188 151.144531 292.207031 L 151.144531 273.703125 Z M 157.675781 273.703125 " fill-opacity="1" fill-rule="nonzero"/><path fill="#138a36" d="M 175.089844 268.257812 L 175.089844 273.703125 L 168.558594 273.703125 L 168.558594 268.257812 C 168.558594 267.96875 168.671875 267.695312 168.878906 267.488281 C 169.082031 267.285156 169.359375 267.171875 169.648438 267.171875 L 174 267.171875 C 174.289062 267.171875 174.566406 267.285156 174.769531 267.488281 C 174.976562 267.695312 175.089844 267.96875 175.089844 268.257812 Z M 175.089844 268.257812 " fill-opacity="1" fill-rule="nonzero"/><path fill="#ffffff" d="M 175.089844 273.703125 L 175.089844 292.207031 C 175.089844 292.492188 174.976562 292.769531 174.769531 292.976562 C 174.566406 293.179688 174.289062 293.292969 174 293.292969 L 169.648438 293.292969 C 169.359375 293.292969 169.082031 293.179688 168.878906 292.976562 C 168.671875 292.769531 168.558594 292.492188 168.558594 292.207031 L 168.558594 273.703125 Z M 175.089844 273.703125 " fill-opacity="1" fill-rule="nonzero"/><path stroke-linecap="round" transform="matrix(1.425, 0.000000000000000177, -0.000000000000000177, 1.425, 127.098026, 260.541396)" fill="none" stroke-linejoin="round" d="M 13.056209 35.203953 C 13.056209 35.609655 12.894477 35.998909 12.606648 36.286738 C 12.32156 36.571826 11.932306 36.733559 11.526604 36.733559 L 3.12474 36.733559 C 2.719039 36.733559 2.332526 36.571826 2.044697 36.286738 C 1.759609 35.998909 1.597876 35.609655 1.597876 35.203953 L 1.597876 3.123363 C 1.597876 2.720402 1.759609 2.331148 2.044697 2.043319 C 2.332526 1.758231 2.719039 1.596499 3.12474 1.596499 L 11.526604 1.596499 C 11.932306 1.596499 12.32156 1.758231 12.606648 2.043319 C 12.894477 2.331148 13.056209 2.720402 13.056209 3.123363 Z M 13.056209 35.203953 " stroke="#16262e" stroke-width="1.67" stroke-opacity="1" stroke-miterlimit="4"/><path stroke-linecap="round" transform="matrix(1.425, 0.000000000000000177, -0.000000000000000177, 1.425, 127.098026, 260.541396)" fill="none" stroke-linejoin="round" d="M 25.276604 35.203953 C 25.276604 35.609655 25.114871 35.998909 24.829783 36.286738 C 24.541954 36.571826 24.1527 36.733559 23.74974 36.733559 L 14.583073 36.733559 C 14.177372 36.733559 13.788117 36.571826 13.503029 36.286738 C 13.215201 35.998909 13.056209 35.609655 13.056209 35.203953 L 13.056209 3.123363 C 13.056209 2.720402 13.215201 2.331148 13.503029 2.043319 C 13.788117 1.758231 14.177372 1.596499 14.583073 1.596499 L 23.74974 1.596499 C 24.1527 1.596499 24.541954 1.758231 24.829783 2.043319 C 25.114871 2.331148 25.276604 2.720402 25.276604 3.123363 Z M 25.276604 35.203953 " stroke="#16262e" stroke-width="1.67" stroke-opacity="1" stroke-miterlimit="4"/><path stroke-linecap="round" transform="matrix(1.425, 0.000000000000000177, -0.000000000000000177, 1.425, 127.098026, 260.541396)" fill="none" stroke-linejoin="round" d="M 36.732195 35.203953 C 36.732195 35.609655 36.573204 35.998909 36.285375 36.286738 C 36.000287 36.571826 35.611033 36.733559 35.205331 36.733559 L 26.803468 36.733559 C 26.397766 36.733559 26.008511 36.571826 25.723424 36.286738 C 25.435595 35.998909 25.276604 35.609655 25.276604 35.203953 L 25.276604 3.123363 C 25.276604 2.720402 25.435595 2.331148 25.723424 2.043319 C 26.008511 1.758231 26.397766 1.596499 26.803468 1.596499 L 35.205331 1.596499 C 35.611033 1.596499 36.000287 1.758231 36.285375 2.043319 C 36.573204 2.331148 36.732195 2.720402 36.732195 3.123363 Z M 36.732195 35.203953 " stroke="#16262e" stroke-width="1.67" stroke-opacity="1" stroke-miterlimit="4"/><path stroke-linecap="round" transform="matrix(1.425, 0.000000000000000177, -0.000000000000000177, 1.425, 127.098026, 260.541396)" fill="none" stroke-linejoin="round" d="M 6.943271 32.150225 C 7.398315 32.150225 7.839653 32.015905 8.217942 31.763712 C 8.59349 31.511519 8.886802 31.15516 9.06224 30.735752 C 9.234938 30.316344 9.278797 29.855818 9.191078 29.411739 C 9.103359 28.96766 8.88406 28.559217 8.563337 28.238493 C 8.242613 27.917769 7.83417 27.698471 7.390091 27.610752 C 6.946012 27.523033 6.485486 27.566892 6.066078 27.742331 C 5.649411 27.915028 5.290311 28.20834 5.038118 28.586629 C 4.785925 28.962177 4.651604 29.406256 4.651604 29.858559 C 4.651604 30.467111 4.892832 31.048252 5.323205 31.478625 C 5.753578 31.908997 6.33746 32.150225 6.943271 32.150225 Z M 6.943271 32.150225 " stroke="#16262e" stroke-width="1.67" stroke-opacity="1" stroke-miterlimit="4"/><path stroke-linecap="round" transform="matrix(1.425, 0.000000000000000177, -0.000000000000000177, 1.425, 127.098026, 260.541396)" fill="none" stroke-linejoin="round" d="M 19.166406 32.150225 C 19.618709 32.150225 20.062788 32.015905 20.438336 31.763712 C 20.816626 31.511519 21.109937 31.15516 21.282634 30.735752 C 21.455332 30.316344 21.501933 29.855818 21.411472 29.411739 C 21.323753 28.96766 21.107196 28.559217 20.786472 28.238493 C 20.465748 27.917769 20.057306 27.698471 19.613227 27.610752 C 19.169148 27.523033 18.708621 27.566892 18.289213 27.742331 C 17.869806 27.915028 17.510705 28.20834 17.261253 28.586629 C 17.00906 28.962177 16.87474 29.406256 16.87474 29.858559 C 16.87474 30.467111 17.115968 31.048252 17.543599 31.478625 C 17.973972 31.908997 18.557854 32.150225 19.166406 32.150225 Z M 19.166406 32.150225 " stroke="#16262e" stroke-width="1.67" stroke-opacity="1" stroke-miterlimit="4"/><path stroke-linecap="round" transform="matrix(1.425, 0.000000000000000177, -0.000000000000000177, 1.425, 127.098026, 260.541396)" fill="none" stroke-linejoin="round" d="M 31.386801 32.150225 C 31.839103 32.150225 32.283182 32.015905 32.65873 31.763712 C 33.03702 31.511519 33.330331 31.15516 33.503029 30.735752 C 33.678467 30.316344 33.722327 29.855818 33.634608 29.411739 C 33.546888 28.96766 33.32759 28.559217 33.006866 28.238493 C 32.686143 27.917769 32.2777 27.698471 31.833621 27.610752 C 31.389542 27.523033 30.929016 27.566892 30.509608 27.742331 C 30.0902 27.915028 29.73384 28.20834 29.481647 28.586629 C 29.229454 28.962177 29.095134 29.406256 29.095134 29.858559 C 29.095134 30.467111 29.336362 31.048252 29.766735 31.478625 C 30.197108 31.908997 30.778248 32.150225 31.386801 32.150225 Z M 31.386801 32.150225 " stroke="#16262e" stroke-width="1.67" stroke-opacity="1" stroke-miterlimit="4"/><path stroke-linecap="round" transform="matrix(1.425, 0.000000000000000177, -0.000000000000000177, 1.425, 127.098026, 260.541396)" fill="none" stroke-linejoin="round" d="M 9.234938 5.415029 L 9.234938 9.236301 L 4.651604 9.236301 L 4.651604 5.415029 C 4.651604 5.212178 4.733841 5.020292 4.876385 4.875007 C 5.018929 4.732463 5.213556 4.652968 5.416407 4.652968 L 8.472876 4.652968 C 8.672986 4.652968 8.867613 4.732463 9.012898 4.875007 C 9.155442 5.020292 9.234938 5.212178 9.234938 5.415029 Z M 9.234938 5.415029 " stroke="#16262e" stroke-width="1.67" stroke-opacity="1" stroke-miterlimit="4"/><path stroke-linecap="round" transform="matrix(1.425, 0.000000000000000177, -0.000000000000000177, 1.425, 127.098026, 260.541396)" fill="none" stroke-linejoin="round" d="M 9.234938 9.236301 L 9.234938 22.221498 C 9.234938 22.421607 9.155442 22.616235 9.012898 22.76152 C 8.867613 22.904064 8.672986 22.983559 8.472876 22.983559 L 5.416407 22.983559 C 5.213556 22.983559 5.018929 22.904064 4.876385 22.76152 C 4.733841 22.616235 4.651604 22.421607 4.651604 22.221498 L 4.651604 9.236301 Z M 9.234938 9.236301 " stroke="#16262e" stroke-width="1.67" stroke-opacity="1" stroke-miterlimit="4"/><path stroke-linecap="round" transform="matrix(1.425, 0.000000000000000177, -0.000000000000000177, 1.425, 127.098026, 260.541396)" fill="none" stroke-linejoin="round" d="M 21.458073 5.415029 L 21.458073 9.236301 L 16.87474 9.236301 L 16.87474 5.415029 C 16.87474 5.212178 16.954235 5.020292 17.096779 4.875007 C 17.242064 4.732463 17.43395 4.652968 17.636801 4.652968 L 20.69327 4.652968 C 20.896121 4.652968 21.090748 4.732463 21.233292 4.875007 C 21.375836 5.020292 21.458073 5.212178 21.458073 5.415029 Z M 21.458073 5.415029 " stroke="#16262e" stroke-width="1.67" stroke-opacity="1" stroke-miterlimit="4"/><path stroke-linecap="round" transform="matrix(1.425, 0.000000000000000177, -0.000000000000000177, 1.425, 127.098026, 260.541396)" fill="none" stroke-linejoin="round" d="M 21.458073 9.236301 L 21.458073 22.221498 C 21.458073 22.421607 21.375836 22.616235 21.233292 22.76152 C 21.090748 22.904064 20.896121 22.983559 20.69327 22.983559 L 17.636801 22.983559 C 17.43395 22.983559 17.242064 22.904064 17.096779 22.76152 C 16.954235 22.616235 16.87474 22.421607 16.87474 22.221498 L 16.87474 9.236301 Z M 21.458073 9.236301 " stroke="#16262e" stroke-width="1.67" stroke-opacity="1" stroke-miterlimit="4"/><path stroke-linecap="round" transform="matrix(1.425, 0.000000000000000177, -0.000000000000000177, 1.425, 127.098026, 260.541396)" fill="none" stroke-linejoin="round" d="M 33.678467 5.415029 L 33.678467 9.236301 L 29.095134 9.236301 L 29.095134 5.415029 C 29.095134 5.212178 29.17463 5.020292 29.319915 4.875007 C 29.462459 4.732463 29.657086 4.652968 29.859937 4.652968 L 32.913665 4.652968 C 33.116516 4.652968 33.311143 4.732463 33.453687 4.875007 C 33.598972 5.020292 33.678467 5.212178 33.678467 5.415029 Z M 33.678467 5.415029 " stroke="#16262e" stroke-width="1.67" stroke-opacity="1" stroke-miterlimit="4"/><path stroke-linecap="round" transform="matrix(1.425, 0.000000000000000177, -0.000000000000000177, 1.425, 127.098026, 260.541396)" fill="none" stroke-linejoin="round" d="M 33.678467 9.236301 L 33.678467 22.221498 C 33.678467 22.421607 33.598972 22.616235 33.453687 22.76152 C 33.311143 22.904064 33.116516 22.983559 32.913665 22.983559 L 29.859937 22.983559 C 29.657086 22.983559 29.462459 22.904064 29.319915 22.76152 C 29.17463 22.616235 29.095134 22.421607 29.095134 22.221498 L 29.095134 9.236301 Z M 33.678467 9.236301 " stroke="#16262e" stroke-width="1.67" stroke-opacity="1" stroke-miterlimit="4"/></svg>