<svg xmlns="http://www.w3.org/2000/svg" xmlns:xlink="http://www.w3.org/1999/xlink" width="1024" zoomAndPan="magnify" viewBox="0 0 768 576" height="768" preserveAspectRatio="xMidYMid meet" version="1.0"><defs><clipPath id="6003d2b097"><path d="M 206.207031 97.332031 L 590.207031 97.332031 L 590.207031 481.332031 L 206.207031 481.332031 Z M 206.207031 97.332031 " clip-rule="nonzero"/></clipPath><clipPath id="b584ef7486"><path d="M 507 47 L 533 47 L 533 82 L 507 82 Z M 507 47 " clip-rule="nonzero"/></clipPath><clipPath id="f1fd2e4ea9"><path d="M 566.445312 58.703125 L 537.519531 107.820312 L 488.402344 78.894531 L 517.328125 29.777344 Z M 566.445312 58.703125 " clip-rule="nonzero"/></clipPath><clipPath id="872197b3bd"><path d="M 566.445312 58.703125 L 537.519531 107.820312 L 488.402344 78.894531 L 517.328125 29.777344 Z M 566.445312 58.703125 " clip-rule="nonzero"/></clipPath><clipPath id="f8f44a4839"><path d="M 566.445312 58.703125 L 537.519531 107.820312 L 488.402344 78.894531 L 517.328125 29.777344 Z M 566.445312 58.703125 " clip-rule="nonzero"/></clipPath><clipPath id="5350b5a115"><path d="M 516 61 L 530 61 L 530 71 L 516 71 Z M 516 61 " clip-rule="nonzero"/></clipPath><clipPath id="652dfe4d40"><path d="M 566.445312 58.703125 L 537.519531 107.820312 L 488.402344 78.894531 L 517.328125 29.777344 Z M 566.445312 58.703125 " clip-rule="nonzero"/></clipPath><clipPath id="d8bef18772"><path d="M 566.445312 58.703125 L 537.519531 107.820312 L 488.402344 78.894531 L 517.328125 29.777344 Z M 566.445312 58.703125 " clip-rule="nonzero"/></clipPath><clipPath id="c651b4c042"><path d="M 566.445312 58.703125 L 537.519531 107.820312 L 488.402344 78.894531 L 517.328125 29.777344 Z M 566.445312 58.703125 " clip-rule="nonzero"/></clipPath><clipPath id="2ad7a579e1"><path d="M 523 61 L 546 61 L 546 85 L 523 85 Z M 523 61 " clip-rule="nonzero"/></clipPath><clipPath id="9246afb9ad"><path d="M 566.445312 58.703125 L 537.519531 107.820312 L 488.402344 78.894531 L 517.328125 29.777344 Z M 566.445312 58.703125 " clip-rule="nonzero"/></clipPath><clipPath id="12a1a57ed1"><path d="M 566.445312 58.703125 L 537.519531 107.820312 L 488.402344 78.894531 L 517.328125 29.777344 Z M 566.445312 58.703125 " clip-rule="nonzero"/></clipPath><clipPath id="d29817a13f"><path d="M 566.445312 58.703125 L 537.519531 107.820312 L 488.402344 78.894531 L 517.328125 29.777344 Z M 566.445312 58.703125 " clip-rule="nonzero"/></clipPath><clipPath id="fd243264c8"><path d="M 528 61 L 546 61 L 546 77 L 528 77 Z M 528 61 " clip-rule="nonzero"/></clipPath><clipPath id="45dc26eaf6"><path d="M 566.445312 58.703125 L 537.519531 107.820312 L 488.402344 78.894531 L 517.328125 29.777344 Z M 566.445312 58.703125 " clip-rule="nonzero"/></clipPath><clipPath id="30da0badd8"><path d="M 566.445312 58.703125 L 537.519531 107.820312 L 488.402344 78.894531 L 517.328125 29.777344 Z M 566.445312 58.703125 " clip-rule="nonzero"/></clipPath><clipPath id="81cdac1378"><path d="M 566.445312 58.703125 L 537.519531 107.820312 L 488.402344 78.894531 L 517.328125 29.777344 Z M 566.445312 58.703125 " clip-rule="nonzero"/></clipPath><clipPath id="f92b5eb71b"><path d="M 522 59 L 547 59 L 547 87 L 522 87 Z M 522 59 " clip-rule="nonzero"/></clipPath><clipPath id="1f958032f4"><path d="M 566.445312 58.703125 L 537.519531 107.820312 L 488.402344 78.894531 L 517.328125 29.777344 Z M 566.445312 58.703125 " clip-rule="nonzero"/></clipPath><clipPath id="4055de8704"><path d="M 566.445312 58.703125 L 537.519531 107.820312 L 488.402344 78.894531 L 517.328125 29.777344 Z M 566.445312 58.703125 " clip-rule="nonzero"/></clipPath><clipPath id="a8a7731776"><path d="M 566.445312 58.703125 L 537.519531 107.820312 L 488.402344 78.894531 L 517.328125 29.777344 Z M 566.445312 58.703125 " clip-rule="nonzero"/></clipPath><clipPath id="6f4adc1399"><path d="M 532 70 L 537 70 L 537 76 L 532 76 Z M 532 70 " clip-rule="nonzero"/></clipPath><clipPath id="5c76a65778"><path d="M 566.445312 58.703125 L 537.519531 107.820312 L 488.402344 78.894531 L 517.328125 29.777344 Z M 566.445312 58.703125 " clip-rule="nonzero"/></clipPath><clipPath id="1aaadaba73"><path d="M 566.445312 58.703125 L 537.519531 107.820312 L 488.402344 78.894531 L 517.328125 29.777344 Z M 566.445312 58.703125 " clip-rule="nonzero"/></clipPath><clipPath id="84dd294613"><path d="M 566.445312 58.703125 L 537.519531 107.820312 L 488.402344 78.894531 L 517.328125 29.777344 Z M 566.445312 58.703125 " clip-rule="nonzero"/></clipPath><clipPath id="97aaca7f08"><path d="M 531 69 L 538 69 L 538 77 L 531 77 Z M 531 69 " clip-rule="nonzero"/></clipPath><clipPath id="52ab826308"><path d="M 566.445312 58.703125 L 537.519531 107.820312 L 488.402344 78.894531 L 517.328125 29.777344 Z M 566.445312 58.703125 " clip-rule="nonzero"/></clipPath><clipPath id="ee61c543de"><path d="M 566.445312 58.703125 L 537.519531 107.820312 L 488.402344 78.894531 L 517.328125 29.777344 Z M 566.445312 58.703125 " clip-rule="nonzero"/></clipPath><clipPath id="e518fffe36"><path d="M 566.445312 58.703125 L 537.519531 107.820312 L 488.402344 78.894531 L 517.328125 29.777344 Z M 566.445312 58.703125 " clip-rule="nonzero"/></clipPath><clipPath id="dad334601a"><path d="M 536 70 L 551 70 L 551 86 L 536 86 Z M 536 70 " clip-rule="nonzero"/></clipPath><clipPath id="8860ac33c8"><path d="M 566.445312 58.703125 L 537.519531 107.820312 L 488.402344 78.894531 L 517.328125 29.777344 Z M 566.445312 58.703125 " clip-rule="nonzero"/></clipPath><clipPath id="4c5b0be8a5"><path d="M 566.445312 58.703125 L 537.519531 107.820312 L 488.402344 78.894531 L 517.328125 29.777344 Z M 566.445312 58.703125 " clip-rule="nonzero"/></clipPath><clipPath id="3cb4e832b1"><path d="M 566.445312 58.703125 L 537.519531 107.820312 L 488.402344 78.894531 L 517.328125 29.777344 Z M 566.445312 58.703125 " clip-rule="nonzero"/></clipPath><clipPath id="b9025411b0"><path d="M 514 39 L 527 39 L 527 52 L 514 52 Z M 514 39 " clip-rule="nonzero"/></clipPath><clipPath id="09d9ec4184"><path d="M 566.445312 58.703125 L 537.519531 107.820312 L 488.402344 78.894531 L 517.328125 29.777344 Z M 566.445312 58.703125 " clip-rule="nonzero"/></clipPath><clipPath id="129c9fbc18"><path d="M 566.445312 58.703125 L 537.519531 107.820312 L 488.402344 78.894531 L 517.328125 29.777344 Z M 566.445312 58.703125 " clip-rule="nonzero"/></clipPath><clipPath id="72c18f05a0"><path d="M 566.445312 58.703125 L 537.519531 107.820312 L 488.402344 78.894531 L 517.328125 29.777344 Z M 566.445312 58.703125 " clip-rule="nonzero"/></clipPath><clipPath id="5b91778981"><path d="M 513 37 L 529 37 L 529 53 L 513 53 Z M 513 37 " clip-rule="nonzero"/></clipPath><clipPath id="eaa21cf549"><path d="M 566.445312 58.703125 L 537.519531 107.820312 L 488.402344 78.894531 L 517.328125 29.777344 Z M 566.445312 58.703125 " clip-rule="nonzero"/></clipPath><clipPath id="785967f921"><path d="M 566.445312 58.703125 L 537.519531 107.820312 L 488.402344 78.894531 L 517.328125 29.777344 Z M 566.445312 58.703125 " clip-rule="nonzero"/></clipPath><clipPath id="ad1b3d2da4"><path d="M 566.445312 58.703125 L 537.519531 107.820312 L 488.402344 78.894531 L 517.328125 29.777344 Z M 566.445312 58.703125 " clip-rule="nonzero"/></clipPath><clipPath id="b72527753e"><path d="M 505 53 L 519 53 L 519 67 L 505 67 Z M 505 53 " clip-rule="nonzero"/></clipPath><clipPath id="16737ac9cd"><path d="M 566.445312 58.703125 L 537.519531 107.820312 L 488.402344 78.894531 L 517.328125 29.777344 Z M 566.445312 58.703125 " clip-rule="nonzero"/></clipPath><clipPath id="b4ea11a896"><path d="M 566.445312 58.703125 L 537.519531 107.820312 L 488.402344 78.894531 L 517.328125 29.777344 Z M 566.445312 58.703125 " clip-rule="nonzero"/></clipPath><clipPath id="de1a13c551"><path d="M 566.445312 58.703125 L 537.519531 107.820312 L 488.402344 78.894531 L 517.328125 29.777344 Z M 566.445312 58.703125 " clip-rule="nonzero"/></clipPath><clipPath id="8f74432935"><path d="M 504 52 L 520 52 L 520 68 L 504 68 Z M 504 52 " clip-rule="nonzero"/></clipPath><clipPath id="b5656a8eab"><path d="M 566.445312 58.703125 L 537.519531 107.820312 L 488.402344 78.894531 L 517.328125 29.777344 Z M 566.445312 58.703125 " clip-rule="nonzero"/></clipPath><clipPath id="f1da302f65"><path d="M 566.445312 58.703125 L 537.519531 107.820312 L 488.402344 78.894531 L 517.328125 29.777344 Z M 566.445312 58.703125 " clip-rule="nonzero"/></clipPath><clipPath id="3d49ff6f8c"><path d="M 566.445312 58.703125 L 537.519531 107.820312 L 488.402344 78.894531 L 517.328125 29.777344 Z M 566.445312 58.703125 " clip-rule="nonzero"/></clipPath><clipPath id="5c81583183"><path d="M 497 67 L 510 67 L 510 81 L 497 81 Z M 497 67 " clip-rule="nonzero"/></clipPath><clipPath id="d4b5f15807"><path d="M 566.445312 58.703125 L 537.519531 107.820312 L 488.402344 78.894531 L 517.328125 29.777344 Z M 566.445312 58.703125 " clip-rule="nonzero"/></clipPath><clipPath id="eb619c18fd"><path d="M 566.445312 58.703125 L 537.519531 107.820312 L 488.402344 78.894531 L 517.328125 29.777344 Z M 566.445312 58.703125 " clip-rule="nonzero"/></clipPath><clipPath id="b0196c55e4"><path d="M 566.445312 58.703125 L 537.519531 107.820312 L 488.402344 78.894531 L 517.328125 29.777344 Z M 566.445312 58.703125 " clip-rule="nonzero"/></clipPath><clipPath id="9dd066e81d"><path d="M 496 66 L 512 66 L 512 82 L 496 82 Z M 496 66 " clip-rule="nonzero"/></clipPath><clipPath id="d0cc1084dc"><path d="M 566.445312 58.703125 L 537.519531 107.820312 L 488.402344 78.894531 L 517.328125 29.777344 Z M 566.445312 58.703125 " clip-rule="nonzero"/></clipPath><clipPath id="753e6cc1ab"><path d="M 566.445312 58.703125 L 537.519531 107.820312 L 488.402344 78.894531 L 517.328125 29.777344 Z M 566.445312 58.703125 " clip-rule="nonzero"/></clipPath><clipPath id="ba6d58f899"><path d="M 566.445312 58.703125 L 537.519531 107.820312 L 488.402344 78.894531 L 517.328125 29.777344 Z M 566.445312 58.703125 " clip-rule="nonzero"/></clipPath><clipPath id="51e2d7f427"><path d="M 224 37 L 289 37 L 289 102 L 224 102 Z M 224 37 " clip-rule="nonzero"/></clipPath><clipPath id="3fce9e3129"><path d="M 260.882812 28.628906 L 297.519531 72.296875 L 253.851562 108.933594 L 217.214844 65.265625 Z M 260.882812 28.628906 " clip-rule="nonzero"/></clipPath><clipPath id="cb32d5e0a7"><path d="M 260.882812 28.628906 L 297.519531 72.296875 L 253.851562 108.933594 L 217.214844 65.265625 Z M 260.882812 28.628906 " clip-rule="nonzero"/></clipPath><clipPath id="74f28f4ab1"><path d="M 260.882812 28.628906 L 297.519531 72.296875 L 253.851562 108.933594 L 217.214844 65.265625 Z M 260.882812 28.628906 " clip-rule="nonzero"/></clipPath><clipPath id="de061c3ed3"><path d="M 224 37 L 289 37 L 289 73 L 224 73 Z M 224 37 " clip-rule="nonzero"/></clipPath><clipPath id="6309556378"><path d="M 260.882812 28.628906 L 297.519531 72.296875 L 253.851562 108.933594 L 217.214844 65.265625 Z M 260.882812 28.628906 " clip-rule="nonzero"/></clipPath><clipPath id="f3994d6288"><path d="M 260.882812 28.628906 L 297.519531 72.296875 L 253.851562 108.933594 L 217.214844 65.265625 Z M 260.882812 28.628906 " clip-rule="nonzero"/></clipPath><clipPath id="d8b9cc472b"><path d="M 260.882812 28.628906 L 297.519531 72.296875 L 253.851562 108.933594 L 217.214844 65.265625 Z M 260.882812 28.628906 " clip-rule="nonzero"/></clipPath><clipPath id="4a276b391c"><path d="M 223 35 L 290 35 L 290 103 L 223 103 Z M 223 35 " clip-rule="nonzero"/></clipPath><clipPath id="2635177416"><path d="M 260.882812 28.628906 L 297.519531 72.296875 L 253.851562 108.933594 L 217.214844 65.265625 Z M 260.882812 28.628906 " clip-rule="nonzero"/></clipPath><clipPath id="7e7b1f5fbe"><path d="M 260.882812 28.628906 L 297.519531 72.296875 L 253.851562 108.933594 L 217.214844 65.265625 Z M 260.882812 28.628906 " clip-rule="nonzero"/></clipPath><clipPath id="4d7d34bc52"><path d="M 260.882812 28.628906 L 297.519531 72.296875 L 253.851562 108.933594 L 217.214844 65.265625 Z M 260.882812 28.628906 " clip-rule="nonzero"/></clipPath><clipPath id="1d3761cf59"><path d="M 249 42 L 275 42 L 275 67 L 249 67 Z M 249 42 " clip-rule="nonzero"/></clipPath><clipPath id="4a5e828fd9"><path d="M 260.882812 28.628906 L 297.519531 72.296875 L 253.851562 108.933594 L 217.214844 65.265625 Z M 260.882812 28.628906 " clip-rule="nonzero"/></clipPath><clipPath id="f589edb836"><path d="M 260.882812 28.628906 L 297.519531 72.296875 L 253.851562 108.933594 L 217.214844 65.265625 Z M 260.882812 28.628906 " clip-rule="nonzero"/></clipPath><clipPath id="b65d85c1c7"><path d="M 260.882812 28.628906 L 297.519531 72.296875 L 253.851562 108.933594 L 217.214844 65.265625 Z M 260.882812 28.628906 " clip-rule="nonzero"/></clipPath><clipPath id="4a74283ecb"><path d="M 260 42 L 275 42 L 275 57 L 260 57 Z M 260 42 " clip-rule="nonzero"/></clipPath><clipPath id="0d36ec6cf0"><path d="M 260.882812 28.628906 L 297.519531 72.296875 L 253.851562 108.933594 L 217.214844 65.265625 Z M 260.882812 28.628906 " clip-rule="nonzero"/></clipPath><clipPath id="eab8883891"><path d="M 260.882812 28.628906 L 297.519531 72.296875 L 253.851562 108.933594 L 217.214844 65.265625 Z M 260.882812 28.628906 " clip-rule="nonzero"/></clipPath><clipPath id="8adc80ddc5"><path d="M 260.882812 28.628906 L 297.519531 72.296875 L 253.851562 108.933594 L 217.214844 65.265625 Z M 260.882812 28.628906 " clip-rule="nonzero"/></clipPath><clipPath id="2f610ff235"><path d="M 247 41 L 276 41 L 276 68 L 247 68 Z M 247 41 " clip-rule="nonzero"/></clipPath><clipPath id="ac5e103cde"><path d="M 260.882812 28.628906 L 297.519531 72.296875 L 253.851562 108.933594 L 217.214844 65.265625 Z M 260.882812 28.628906 " clip-rule="nonzero"/></clipPath><clipPath id="3a8d26a05a"><path d="M 260.882812 28.628906 L 297.519531 72.296875 L 253.851562 108.933594 L 217.214844 65.265625 Z M 260.882812 28.628906 " clip-rule="nonzero"/></clipPath><clipPath id="77cd7b775f"><path d="M 260.882812 28.628906 L 297.519531 72.296875 L 253.851562 108.933594 L 217.214844 65.265625 Z M 260.882812 28.628906 " clip-rule="nonzero"/></clipPath><clipPath id="ccd4ac72bf"><path d="M 268 64 L 279 64 L 279 77 L 268 77 Z M 268 64 " clip-rule="nonzero"/></clipPath><clipPath id="fbeffea971"><path d="M 260.882812 28.628906 L 297.519531 72.296875 L 253.851562 108.933594 L 217.214844 65.265625 Z M 260.882812 28.628906 " clip-rule="nonzero"/></clipPath><clipPath id="91d1ef7dcd"><path d="M 260.882812 28.628906 L 297.519531 72.296875 L 253.851562 108.933594 L 217.214844 65.265625 Z M 260.882812 28.628906 " clip-rule="nonzero"/></clipPath><clipPath id="0cc3e4d098"><path d="M 260.882812 28.628906 L 297.519531 72.296875 L 253.851562 108.933594 L 217.214844 65.265625 Z M 260.882812 28.628906 " clip-rule="nonzero"/></clipPath><clipPath id="d3ce7236ea"><path d="M 261 69 L 273 69 L 273 82 L 261 82 Z M 261 69 " clip-rule="nonzero"/></clipPath><clipPath id="056de022eb"><path d="M 260.882812 28.628906 L 297.519531 72.296875 L 253.851562 108.933594 L 217.214844 65.265625 Z M 260.882812 28.628906 " clip-rule="nonzero"/></clipPath><clipPath id="69a7c5049b"><path d="M 260.882812 28.628906 L 297.519531 72.296875 L 253.851562 108.933594 L 217.214844 65.265625 Z M 260.882812 28.628906 " clip-rule="nonzero"/></clipPath><clipPath id="0dbb4beeb4"><path d="M 260.882812 28.628906 L 297.519531 72.296875 L 253.851562 108.933594 L 217.214844 65.265625 Z M 260.882812 28.628906 " clip-rule="nonzero"/></clipPath><clipPath id="621b1712dc"><path d="M 240 57 L 266 57 L 266 87 L 240 87 Z M 240 57 " clip-rule="nonzero"/></clipPath><clipPath id="298afaffbc"><path d="M 260.882812 28.628906 L 297.519531 72.296875 L 253.851562 108.933594 L 217.214844 65.265625 Z M 260.882812 28.628906 " clip-rule="nonzero"/></clipPath><clipPath id="fa0aeac7bf"><path d="M 260.882812 28.628906 L 297.519531 72.296875 L 253.851562 108.933594 L 217.214844 65.265625 Z M 260.882812 28.628906 " clip-rule="nonzero"/></clipPath><clipPath id="bcdf0464eb"><path d="M 260.882812 28.628906 L 297.519531 72.296875 L 253.851562 108.933594 L 217.214844 65.265625 Z M 260.882812 28.628906 " clip-rule="nonzero"/></clipPath><clipPath id="111e9b7282"><path d="M 234 62 L 259 62 L 259 92 L 234 92 Z M 234 62 " clip-rule="nonzero"/></clipPath><clipPath id="e8af280b34"><path d="M 260.882812 28.628906 L 297.519531 72.296875 L 253.851562 108.933594 L 217.214844 65.265625 Z M 260.882812 28.628906 " clip-rule="nonzero"/></clipPath><clipPath id="f23b456ab9"><path d="M 260.882812 28.628906 L 297.519531 72.296875 L 253.851562 108.933594 L 217.214844 65.265625 Z M 260.882812 28.628906 " clip-rule="nonzero"/></clipPath><clipPath id="2719e6b1e3"><path d="M 260.882812 28.628906 L 297.519531 72.296875 L 253.851562 108.933594 L 217.214844 65.265625 Z M 260.882812 28.628906 " clip-rule="nonzero"/></clipPath><clipPath id="2cfb2a554c"><path d="M 228 480 L 281 480 L 281 533 L 228 533 Z M 228 480 " clip-rule="nonzero"/></clipPath><clipPath id="06c00f54de"><path d="M 218.398438 520.007812 L 246.945312 470.671875 L 296.28125 499.21875 L 267.734375 548.554688 Z M 218.398438 520.007812 " clip-rule="nonzero"/></clipPath><clipPath id="0176990a4d"><path d="M 218.398438 520.007812 L 246.945312 470.671875 L 296.28125 499.21875 L 267.734375 548.554688 Z M 218.398438 520.007812 " clip-rule="nonzero"/></clipPath><clipPath id="d809823c16"><path d="M 218.398438 520.007812 L 246.945312 470.671875 L 296.28125 499.21875 L 267.734375 548.554688 Z M 218.398438 520.007812 " clip-rule="nonzero"/></clipPath><clipPath id="8bbd78777e"><path d="M 228 497 L 280 497 L 280 533 L 228 533 Z M 228 497 " clip-rule="nonzero"/></clipPath><clipPath id="cb3bc5e617"><path d="M 218.398438 520.007812 L 246.945312 470.671875 L 296.28125 499.21875 L 267.734375 548.554688 Z M 218.398438 520.007812 " clip-rule="nonzero"/></clipPath><clipPath id="7534aef4e6"><path d="M 218.398438 520.007812 L 246.945312 470.671875 L 296.28125 499.21875 L 267.734375 548.554688 Z M 218.398438 520.007812 " clip-rule="nonzero"/></clipPath><clipPath id="8dbe5dd478"><path d="M 218.398438 520.007812 L 246.945312 470.671875 L 296.28125 499.21875 L 267.734375 548.554688 Z M 218.398438 520.007812 " clip-rule="nonzero"/></clipPath><clipPath id="42ae462d07"><path d="M 227 479 L 282 479 L 282 534 L 227 534 Z M 227 479 " clip-rule="nonzero"/></clipPath><clipPath id="f2c5ad5855"><path d="M 218.398438 520.007812 L 246.945312 470.671875 L 296.28125 499.21875 L 267.734375 548.554688 Z M 218.398438 520.007812 " clip-rule="nonzero"/></clipPath><clipPath id="ce52d7e4f3"><path d="M 218.398438 520.007812 L 246.945312 470.671875 L 296.28125 499.21875 L 267.734375 548.554688 Z M 218.398438 520.007812 " clip-rule="nonzero"/></clipPath><clipPath id="91c7879fd6"><path d="M 218.398438 520.007812 L 246.945312 470.671875 L 296.28125 499.21875 L 267.734375 548.554688 Z M 218.398438 520.007812 " clip-rule="nonzero"/></clipPath><clipPath id="aa5c6f0528"><path d="M 243 497 L 266 497 L 266 519 L 243 519 Z M 243 497 " clip-rule="nonzero"/></clipPath><clipPath id="e36de9cc1f"><path d="M 218.398438 520.007812 L 246.945312 470.671875 L 296.28125 499.21875 L 267.734375 548.554688 Z M 218.398438 520.007812 " clip-rule="nonzero"/></clipPath><clipPath id="be405f749b"><path d="M 218.398438 520.007812 L 246.945312 470.671875 L 296.28125 499.21875 L 267.734375 548.554688 Z M 218.398438 520.007812 " clip-rule="nonzero"/></clipPath><clipPath id="49797748f6"><path d="M 218.398438 520.007812 L 246.945312 470.671875 L 296.28125 499.21875 L 267.734375 548.554688 Z M 218.398438 520.007812 " clip-rule="nonzero"/></clipPath><clipPath id="6538354d39"><path d="M 243 502 L 264 502 L 264 519 L 243 519 Z M 243 502 " clip-rule="nonzero"/></clipPath><clipPath id="c745fe3c9c"><path d="M 218.398438 520.007812 L 246.945312 470.671875 L 296.28125 499.21875 L 267.734375 548.554688 Z M 218.398438 520.007812 " clip-rule="nonzero"/></clipPath><clipPath id="0435ec7ec7"><path d="M 218.398438 520.007812 L 246.945312 470.671875 L 296.28125 499.21875 L 267.734375 548.554688 Z M 218.398438 520.007812 " clip-rule="nonzero"/></clipPath><clipPath id="2cccc558dc"><path d="M 218.398438 520.007812 L 246.945312 470.671875 L 296.28125 499.21875 L 267.734375 548.554688 Z M 218.398438 520.007812 " clip-rule="nonzero"/></clipPath><clipPath id="e3a278a8b0"><path d="M 242 497 L 267 497 L 267 521 L 242 521 Z M 242 497 " clip-rule="nonzero"/></clipPath><clipPath id="3322bd5d12"><path d="M 218.398438 520.007812 L 246.945312 470.671875 L 296.28125 499.21875 L 267.734375 548.554688 Z M 218.398438 520.007812 " clip-rule="nonzero"/></clipPath><clipPath id="fca0470489"><path d="M 218.398438 520.007812 L 246.945312 470.671875 L 296.28125 499.21875 L 267.734375 548.554688 Z M 218.398438 520.007812 " clip-rule="nonzero"/></clipPath><clipPath id="5e8a1d8e83"><path d="M 218.398438 520.007812 L 246.945312 470.671875 L 296.28125 499.21875 L 267.734375 548.554688 Z M 218.398438 520.007812 " clip-rule="nonzero"/></clipPath><clipPath id="e19055e562"><path d="M 249 491 L 258 491 L 258 513 L 249 513 Z M 249 491 " clip-rule="nonzero"/></clipPath><clipPath id="e5ef322e71"><path d="M 218.398438 520.007812 L 246.945312 470.671875 L 296.28125 499.21875 L 267.734375 548.554688 Z M 218.398438 520.007812 " clip-rule="nonzero"/></clipPath><clipPath id="1af8df5628"><path d="M 218.398438 520.007812 L 246.945312 470.671875 L 296.28125 499.21875 L 267.734375 548.554688 Z M 218.398438 520.007812 " clip-rule="nonzero"/></clipPath><clipPath id="145fcaf5ae"><path d="M 218.398438 520.007812 L 246.945312 470.671875 L 296.28125 499.21875 L 267.734375 548.554688 Z M 218.398438 520.007812 " clip-rule="nonzero"/></clipPath><clipPath id="886ba6c05a"><path d="M 497 503 L 524 503 L 524 541 L 497 541 Z M 497 503 " clip-rule="nonzero"/></clipPath><clipPath id="2f3c28a315"><path d="M 517.03125 548.578125 L 488.445312 499.265625 L 537.757812 470.679688 L 566.34375 519.992188 Z M 517.03125 548.578125 " clip-rule="nonzero"/></clipPath><clipPath id="3aef8fa22d"><path d="M 517.03125 548.578125 L 488.445312 499.265625 L 537.757812 470.679688 L 566.34375 519.992188 Z M 517.03125 548.578125 " clip-rule="nonzero"/></clipPath><clipPath id="2d21880e63"><path d="M 517.03125 548.578125 L 488.445312 499.265625 L 537.757812 470.679688 L 566.34375 519.992188 Z M 517.03125 548.578125 " clip-rule="nonzero"/></clipPath><clipPath id="7ab224de76"><path d="M 504 481 L 559 481 L 559 540 L 504 540 Z M 504 481 " clip-rule="nonzero"/></clipPath><clipPath id="1144a4e5cc"><path d="M 517.03125 548.578125 L 488.445312 499.265625 L 537.757812 470.679688 L 566.34375 519.992188 Z M 517.03125 548.578125 " clip-rule="nonzero"/></clipPath><clipPath id="7d3acb5958"><path d="M 517.03125 548.578125 L 488.445312 499.265625 L 537.757812 470.679688 L 566.34375 519.992188 Z M 517.03125 548.578125 " clip-rule="nonzero"/></clipPath><clipPath id="31f9e83a15"><path d="M 517.03125 548.578125 L 488.445312 499.265625 L 537.757812 470.679688 L 566.34375 519.992188 Z M 517.03125 548.578125 " clip-rule="nonzero"/></clipPath><clipPath id="7c360011c8"><path d="M 520 506 L 559 506 L 559 540 L 520 540 Z M 520 506 " clip-rule="nonzero"/></clipPath><clipPath id="f0ac21542d"><path d="M 517.03125 548.578125 L 488.445312 499.265625 L 537.757812 470.679688 L 566.34375 519.992188 Z M 517.03125 548.578125 " clip-rule="nonzero"/></clipPath><clipPath id="964f92b773"><path d="M 517.03125 548.578125 L 488.445312 499.265625 L 537.757812 470.679688 L 566.34375 519.992188 Z M 517.03125 548.578125 " clip-rule="nonzero"/></clipPath><clipPath id="5e7ab3d04d"><path d="M 517.03125 548.578125 L 488.445312 499.265625 L 537.757812 470.679688 L 566.34375 519.992188 Z M 517.03125 548.578125 " clip-rule="nonzero"/></clipPath><clipPath id="ae624b9bfe"><path d="M 519 495 L 561 495 L 561 541 L 519 541 Z M 519 495 " clip-rule="nonzero"/></clipPath><clipPath id="b936e377bb"><path d="M 517.03125 548.578125 L 488.445312 499.265625 L 537.757812 470.679688 L 566.34375 519.992188 Z M 517.03125 548.578125 " clip-rule="nonzero"/></clipPath><clipPath id="d0fdfd00a4"><path d="M 517.03125 548.578125 L 488.445312 499.265625 L 537.757812 470.679688 L 566.34375 519.992188 Z M 517.03125 548.578125 " clip-rule="nonzero"/></clipPath><clipPath id="af9565e15a"><path d="M 517.03125 548.578125 L 488.445312 499.265625 L 537.757812 470.679688 L 566.34375 519.992188 Z M 517.03125 548.578125 " clip-rule="nonzero"/></clipPath><clipPath id="eea621614c"><path d="M 495 492 L 525 492 L 525 542 L 495 542 Z M 495 492 " clip-rule="nonzero"/></clipPath><clipPath id="cb36a5e9ca"><path d="M 517.03125 548.578125 L 488.445312 499.265625 L 537.757812 470.679688 L 566.34375 519.992188 Z M 517.03125 548.578125 " clip-rule="nonzero"/></clipPath><clipPath id="6d95fa029e"><path d="M 517.03125 548.578125 L 488.445312 499.265625 L 537.757812 470.679688 L 566.34375 519.992188 Z M 517.03125 548.578125 " clip-rule="nonzero"/></clipPath><clipPath id="81c6894bab"><path d="M 517.03125 548.578125 L 488.445312 499.265625 L 537.757812 470.679688 L 566.34375 519.992188 Z M 517.03125 548.578125 " clip-rule="nonzero"/></clipPath><clipPath id="dc68e3906f"><path d="M 500 504 L 520 504 L 520 538 L 500 538 Z M 500 504 " clip-rule="nonzero"/></clipPath><clipPath id="0910f02c26"><path d="M 517.03125 548.578125 L 488.445312 499.265625 L 537.757812 470.679688 L 566.34375 519.992188 Z M 517.03125 548.578125 " clip-rule="nonzero"/></clipPath><clipPath id="1a77ebecc1"><path d="M 517.03125 548.578125 L 488.445312 499.265625 L 537.757812 470.679688 L 566.34375 519.992188 Z M 517.03125 548.578125 " clip-rule="nonzero"/></clipPath><clipPath id="89ed00fbb0"><path d="M 517.03125 548.578125 L 488.445312 499.265625 L 537.757812 470.679688 L 566.34375 519.992188 Z M 517.03125 548.578125 " clip-rule="nonzero"/></clipPath><clipPath id="1430c310ae"><path d="M 522 486 L 543 486 L 543 507 L 522 507 Z M 522 486 " clip-rule="nonzero"/></clipPath><clipPath id="b9d88a3f01"><path d="M 517.03125 548.578125 L 488.445312 499.265625 L 537.757812 470.679688 L 566.34375 519.992188 Z M 517.03125 548.578125 " clip-rule="nonzero"/></clipPath><clipPath id="af77943720"><path d="M 517.03125 548.578125 L 488.445312 499.265625 L 537.757812 470.679688 L 566.34375 519.992188 Z M 517.03125 548.578125 " clip-rule="nonzero"/></clipPath><clipPath id="107631b10d"><path d="M 517.03125 548.578125 L 488.445312 499.265625 L 537.757812 470.679688 L 566.34375 519.992188 Z M 517.03125 548.578125 " clip-rule="nonzero"/></clipPath><clipPath id="7ad1930149"><path d="M 521 485 L 544 485 L 544 508 L 521 508 Z M 521 485 " clip-rule="nonzero"/></clipPath><clipPath id="986a70494b"><path d="M 517.03125 548.578125 L 488.445312 499.265625 L 537.757812 470.679688 L 566.34375 519.992188 Z M 517.03125 548.578125 " clip-rule="nonzero"/></clipPath><clipPath id="9c2a42ac4f"><path d="M 517.03125 548.578125 L 488.445312 499.265625 L 537.757812 470.679688 L 566.34375 519.992188 Z M 517.03125 548.578125 " clip-rule="nonzero"/></clipPath><clipPath id="9b2718c1f0"><path d="M 517.03125 548.578125 L 488.445312 499.265625 L 537.757812 470.679688 L 566.34375 519.992188 Z M 517.03125 548.578125 " clip-rule="nonzero"/></clipPath><clipPath id="4add34ed02"><path d="M 533 476 L 539 476 L 539 489 L 533 489 Z M 533 476 " clip-rule="nonzero"/></clipPath><clipPath id="2aad785a8e"><path d="M 517.03125 548.578125 L 488.445312 499.265625 L 537.757812 470.679688 L 566.34375 519.992188 Z M 517.03125 548.578125 " clip-rule="nonzero"/></clipPath><clipPath id="cbbc18f5ee"><path d="M 517.03125 548.578125 L 488.445312 499.265625 L 537.757812 470.679688 L 566.34375 519.992188 Z M 517.03125 548.578125 " clip-rule="nonzero"/></clipPath><clipPath id="d73c1f7d6b"><path d="M 517.03125 548.578125 L 488.445312 499.265625 L 537.757812 470.679688 L 566.34375 519.992188 Z M 517.03125 548.578125 " clip-rule="nonzero"/></clipPath><clipPath id="f352984286"><path d="M 522 486 L 543 486 L 543 507 L 522 507 Z M 522 486 " clip-rule="nonzero"/></clipPath><clipPath id="3cffa1a83e"><path d="M 517.03125 548.578125 L 488.445312 499.265625 L 537.757812 470.679688 L 566.34375 519.992188 Z M 517.03125 548.578125 " clip-rule="nonzero"/></clipPath><clipPath id="143eab723b"><path d="M 517.03125 548.578125 L 488.445312 499.265625 L 537.757812 470.679688 L 566.34375 519.992188 Z M 517.03125 548.578125 " clip-rule="nonzero"/></clipPath><clipPath id="b1e2f47601"><path d="M 517.03125 548.578125 L 488.445312 499.265625 L 537.757812 470.679688 L 566.34375 519.992188 Z M 517.03125 548.578125 " clip-rule="nonzero"/></clipPath><clipPath id="a261ac78b6"><path d="M 522 493 L 542 493 L 542 507 L 522 507 Z M 522 493 " clip-rule="nonzero"/></clipPath><clipPath id="733bd3a073"><path d="M 517.03125 548.578125 L 488.445312 499.265625 L 537.757812 470.679688 L 566.34375 519.992188 Z M 517.03125 548.578125 " clip-rule="nonzero"/></clipPath><clipPath id="1d28e42dda"><path d="M 517.03125 548.578125 L 488.445312 499.265625 L 537.757812 470.679688 L 566.34375 519.992188 Z M 517.03125 548.578125 " clip-rule="nonzero"/></clipPath><clipPath id="b9e1b2433b"><path d="M 517.03125 548.578125 L 488.445312 499.265625 L 537.757812 470.679688 L 566.34375 519.992188 Z M 517.03125 548.578125 " clip-rule="nonzero"/></clipPath><clipPath id="4e41fb8170"><path d="M 521 485 L 544 485 L 544 508 L 521 508 Z M 521 485 " clip-rule="nonzero"/></clipPath><clipPath id="5b59c59af9"><path d="M 517.03125 548.578125 L 488.445312 499.265625 L 537.757812 470.679688 L 566.34375 519.992188 Z M 517.03125 548.578125 " clip-rule="nonzero"/></clipPath><clipPath id="73b9d58977"><path d="M 517.03125 548.578125 L 488.445312 499.265625 L 537.757812 470.679688 L 566.34375 519.992188 Z M 517.03125 548.578125 " clip-rule="nonzero"/></clipPath><clipPath id="ddfc9050ea"><path d="M 517.03125 548.578125 L 488.445312 499.265625 L 537.757812 470.679688 L 566.34375 519.992188 Z M 517.03125 548.578125 " clip-rule="nonzero"/></clipPath><clipPath id="8bbc9d699a"><path d="M 533 476 L 539 476 L 539 489 L 533 489 Z M 533 476 " clip-rule="nonzero"/></clipPath><clipPath id="b8de4a1236"><path d="M 517.03125 548.578125 L 488.445312 499.265625 L 537.757812 470.679688 L 566.34375 519.992188 Z M 517.03125 548.578125 " clip-rule="nonzero"/></clipPath><clipPath id="f08840fdbc"><path d="M 517.03125 548.578125 L 488.445312 499.265625 L 537.757812 470.679688 L 566.34375 519.992188 Z M 517.03125 548.578125 " clip-rule="nonzero"/></clipPath><clipPath id="459223326e"><path d="M 517.03125 548.578125 L 488.445312 499.265625 L 537.757812 470.679688 L 566.34375 519.992188 Z M 517.03125 548.578125 " clip-rule="nonzero"/></clipPath></defs><g clip-path="url(#6003d2b097)"><path fill="#90e39a" d="M 554.292969 399.566406 C 554.445312 400.488281 554.214844 401.410156 553.679688 402.175781 C 548.996094 408.699219 543.78125 414.914062 538.332031 420.746094 C 537.71875 421.4375 536.796875 421.820312 535.875 421.898438 C 534.953125 421.898438 534.035156 421.589844 533.34375 420.976562 C 532.652344 420.363281 532.269531 419.441406 532.269531 418.519531 C 532.269531 417.601562 532.574219 416.679688 533.191406 415.988281 C 538.484375 410.386719 543.472656 404.324219 548 398.109375 C 548.691406 397.1875 549.765625 396.652344 550.839844 396.652344 C 551.605469 396.652344 552.296875 396.882812 552.910156 397.339844 C 553.679688 397.800781 554.140625 398.570312 554.292969 399.566406 Z M 478.703125 456.429688 C 478.167969 456.429688 477.707031 456.507812 477.171875 456.738281 C 470.1875 460.035156 462.898438 462.953125 455.605469 465.332031 C 453.765625 465.945312 452.765625 467.941406 453.382812 469.78125 C 453.996094 471.625 455.992188 472.621094 457.832031 472.007812 C 465.429688 469.550781 472.949219 466.558594 480.238281 463.105469 C 481.082031 462.722656 481.699219 462.03125 482.082031 461.113281 C 482.386719 460.191406 482.386719 459.269531 481.929688 458.425781 C 481.3125 457.199219 480.085938 456.429688 478.703125 456.429688 Z M 518.53125 431.03125 C 517.6875 431.03125 516.921875 431.335938 516.308594 431.875 C 510.398438 436.785156 504.027344 441.390625 497.582031 445.535156 C 495.972656 446.609375 495.433594 448.757812 496.507812 450.367188 C 497.582031 451.980469 499.730469 452.515625 501.34375 451.441406 C 508.097656 447.144531 514.617188 442.386719 520.835938 437.246094 C 522.292969 436.019531 522.523438 433.792969 521.296875 432.257812 C 520.527344 431.492188 519.605469 431.03125 518.53125 431.03125 Z M 581.6875 266.042969 C 582.6875 273.640625 583.144531 281.464844 583.144531 289.21875 C 583.144531 291.136719 584.757812 292.746094 586.675781 292.746094 C 588.59375 292.746094 590.207031 291.136719 590.207031 289.21875 C 590.207031 281.160156 589.667969 273.101562 588.671875 265.199219 C 588.441406 263.433594 586.984375 262.128906 585.140625 262.128906 C 584.988281 262.128906 584.835938 262.128906 584.679688 262.128906 C 582.839844 262.359375 581.457031 264.125 581.6875 266.042969 Z M 433.8125 471.085938 C 433.582031 471.085938 433.351562 471.085938 433.121094 471.164062 C 425.601562 472.621094 417.773438 473.621094 410.101562 474.082031 C 409.179688 474.15625 408.335938 474.539062 407.644531 475.230469 C 407.03125 475.921875 406.722656 476.84375 406.800781 477.761719 C 406.878906 478.683594 407.339844 479.605469 408.027344 480.21875 C 408.71875 480.832031 409.640625 481.140625 410.5625 481.0625 C 418.617188 480.527344 426.597656 479.527344 434.503906 478.070312 C 436.421875 477.6875 437.648438 475.84375 437.265625 473.925781 C 436.960938 472.238281 435.5 471.085938 433.8125 471.085938 Z M 574.859375 355.367188 C 574.476562 355.210938 574.015625 355.136719 573.554688 355.136719 C 572.097656 355.136719 570.792969 355.980469 570.253906 357.359375 C 567.414062 364.574219 564.113281 371.632812 560.355469 378.386719 C 559.894531 379.230469 559.816406 380.152344 560.046875 381.074219 C 560.277344 381.992188 560.890625 382.761719 561.734375 383.144531 C 562.582031 383.605469 563.5 383.683594 564.421875 383.453125 C 565.34375 383.222656 566.109375 382.609375 566.492188 381.761719 C 570.332031 374.703125 573.785156 367.414062 576.777344 359.894531 C 577.542969 358.128906 576.699219 356.132812 574.859375 355.367188 Z M 226.3125 357.898438 C 225.773438 356.515625 224.46875 355.671875 223.011719 355.671875 C 222.550781 355.671875 222.089844 355.75 221.707031 355.902344 C 220.863281 356.285156 220.171875 356.898438 219.789062 357.820312 C 219.40625 358.664062 219.40625 359.664062 219.789062 360.507812 C 222.78125 367.949219 226.234375 375.242188 230.070312 382.300781 C 230.53125 383.144531 231.300781 383.683594 232.21875 383.988281 C 233.140625 384.21875 234.0625 384.140625 234.90625 383.683594 C 235.75 383.222656 236.363281 382.453125 236.59375 381.535156 C 236.824219 380.613281 236.75 379.691406 236.289062 378.847656 C 232.527344 372.171875 229.152344 365.113281 226.3125 357.898438 Z M 248.71875 398.492188 C 248.027344 397.570312 246.953125 397.035156 245.878906 397.035156 C 245.113281 397.035156 244.421875 397.265625 243.808594 397.726562 C 243.039062 398.261719 242.582031 399.105469 242.425781 400.027344 C 242.273438 400.949219 242.503906 401.871094 243.039062 402.636719 C 247.796875 409.082031 252.941406 415.375 258.464844 421.207031 C 259.078125 421.898438 260 422.28125 260.921875 422.28125 C 261.839844 422.28125 262.761719 421.976562 263.453125 421.359375 C 264.144531 420.746094 264.527344 419.824219 264.527344 418.90625 C 264.527344 417.984375 264.21875 417.0625 263.605469 416.371094 C 258.3125 410.695312 253.324219 404.707031 248.71875 398.492188 Z M 214.722656 313.082031 C 214.492188 311.316406 212.960938 310.011719 211.195312 310.011719 C 211.039062 310.011719 210.886719 310.011719 210.734375 310.011719 C 208.816406 310.242188 207.433594 312.007812 207.664062 313.925781 C 208.660156 321.90625 210.195312 329.886719 212.191406 337.640625 C 212.652344 339.480469 214.570312 340.632812 216.488281 340.171875 C 217.410156 339.941406 218.175781 339.328125 218.636719 338.558594 C 219.097656 337.714844 219.25 336.792969 219.023438 335.875 C 217.179688 328.429688 215.722656 320.757812 214.722656 313.082031 Z M 386.847656 474.082031 C 379.097656 473.621094 371.347656 472.621094 363.828125 471.242188 C 363.597656 471.164062 363.367188 471.164062 363.136719 471.164062 C 361.449219 471.164062 359.992188 472.390625 359.683594 474.003906 C 359.53125 474.925781 359.683594 475.84375 360.21875 476.613281 C 360.757812 477.378906 361.523438 477.917969 362.445312 478.070312 C 370.425781 479.683594 378.40625 480.679688 386.386719 481.140625 C 387.308594 481.21875 388.230469 480.910156 388.921875 480.296875 C 389.613281 479.683594 390.070312 478.761719 390.148438 477.839844 C 390.226562 476.917969 389.917969 476 389.304688 475.308594 C 388.691406 474.539062 387.847656 474.15625 386.847656 474.082031 Z M 341.34375 465.5625 C 333.976562 463.183594 326.761719 460.34375 319.703125 457.042969 C 319.242188 456.8125 318.707031 456.738281 318.246094 456.738281 C 316.863281 456.738281 315.636719 457.503906 315.023438 458.734375 C 314.175781 460.496094 314.945312 462.570312 316.710938 463.414062 C 324 466.789062 331.519531 469.78125 339.117188 472.238281 C 340.039062 472.546875 340.960938 472.46875 341.804688 472.007812 C 342.648438 471.546875 343.261719 470.855469 343.570312 469.9375 C 344.183594 468.09375 343.183594 466.097656 341.34375 465.5625 Z M 299.367188 445.839844 C 292.84375 441.695312 286.550781 437.09375 280.566406 432.179688 C 279.953125 431.644531 279.109375 431.335938 278.339844 431.335938 C 277.265625 431.335938 276.269531 431.796875 275.65625 432.640625 C 274.425781 434.175781 274.65625 436.402344 276.113281 437.628906 C 282.332031 442.769531 288.855469 447.527344 295.605469 451.75 C 296.375 452.285156 297.371094 452.441406 298.292969 452.210938 C 299.214844 451.980469 299.980469 451.441406 300.519531 450.675781 C 301.054688 449.90625 301.207031 448.910156 300.976562 447.988281 C 300.671875 447.144531 300.132812 446.300781 299.367188 445.839844 Z M 585.679688 309.398438 C 585.523438 309.398438 585.371094 309.398438 585.21875 309.398438 C 583.453125 309.398438 581.917969 310.703125 581.6875 312.46875 C 580.765625 320.140625 579.308594 327.816406 577.390625 335.261719 C 576.929688 337.179688 578.082031 339.097656 579.921875 339.558594 C 581.839844 340.019531 583.761719 338.867188 584.21875 337.023438 C 586.214844 329.273438 587.675781 321.292969 588.671875 313.3125 C 588.824219 312.390625 588.519531 311.472656 587.980469 310.703125 C 587.445312 309.9375 586.597656 309.476562 585.679688 309.398438 Z M 260.84375 163.980469 C 261.765625 163.980469 262.6875 163.519531 263.300781 162.90625 C 268.59375 157.304688 274.273438 151.929688 280.257812 147.019531 C 280.949219 146.40625 281.410156 145.5625 281.488281 144.640625 C 281.5625 143.71875 281.257812 142.800781 280.71875 142.03125 C 280.027344 141.1875 279.03125 140.726562 278.035156 140.726562 C 277.191406 140.726562 276.421875 141.035156 275.808594 141.570312 C 269.667969 146.714844 263.761719 152.238281 258.234375 158.070312 C 257.621094 158.761719 257.238281 159.683594 257.3125 160.601562 C 257.3125 161.523438 257.773438 162.445312 258.386719 163.058594 C 259.078125 163.671875 259.921875 163.980469 260.84375 163.980469 Z M 231.300781 201.734375 C 232.988281 202.65625 235.136719 202.042969 236.058594 200.355469 C 239.816406 193.601562 243.960938 187 248.488281 180.785156 C 249.640625 179.25 249.257812 177.023438 247.722656 175.875 C 247.109375 175.414062 246.417969 175.183594 245.648438 175.183594 C 244.5 175.183594 243.425781 175.71875 242.8125 176.640625 C 238.054688 183.164062 233.753906 189.992188 229.839844 196.976562 C 229.382812 197.820312 229.304688 198.742188 229.535156 199.664062 C 229.839844 200.507812 230.457031 201.273438 231.300781 201.734375 Z M 340.960938 113.5625 C 348.328125 111.183594 355.847656 109.265625 363.445312 107.808594 C 364.363281 107.652344 365.207031 107.117188 365.667969 106.347656 C 366.207031 105.582031 366.359375 104.660156 366.207031 103.738281 C 365.898438 102.050781 364.441406 100.898438 362.753906 100.898438 C 362.523438 100.898438 362.292969 100.898438 362.0625 100.976562 C 354.160156 102.433594 346.332031 104.507812 338.734375 106.960938 C 336.890625 107.578125 335.894531 109.570312 336.507812 111.414062 C 337.121094 113.101562 339.117188 114.097656 340.960938 113.5625 Z M 577.3125 243.25 C 577.542969 244.171875 578.160156 244.9375 578.925781 245.398438 C 579.769531 245.859375 580.691406 246.011719 581.613281 245.78125 C 583.53125 245.324219 584.605469 243.402344 584.144531 241.484375 C 582.148438 233.734375 579.617188 225.984375 576.699219 218.539062 C 576.164062 217.160156 574.859375 216.316406 573.402344 216.316406 C 572.941406 216.316406 572.480469 216.390625 572.097656 216.546875 C 571.25 216.929688 570.5625 217.542969 570.175781 218.464844 C 569.792969 219.308594 569.792969 220.304688 570.101562 221.148438 C 573.015625 228.363281 575.394531 235.808594 577.3125 243.25 Z M 214.722656 246.011719 C 216.644531 246.472656 218.5625 245.324219 219.023438 243.480469 C 220.941406 235.960938 223.320312 228.59375 226.160156 221.378906 C 226.542969 220.535156 226.464844 219.539062 226.082031 218.695312 C 225.699219 217.851562 225.007812 217.160156 224.164062 216.851562 C 223.78125 216.699219 223.320312 216.621094 222.859375 216.621094 C 221.402344 216.621094 220.097656 217.464844 219.558594 218.847656 C 216.644531 226.292969 214.109375 234.042969 212.113281 241.792969 C 211.65625 243.632812 212.804688 245.550781 214.722656 246.011719 Z M 209.660156 293.4375 C 211.578125 293.4375 213.191406 291.824219 213.191406 289.90625 L 213.191406 289.445312 C 213.191406 281.695312 213.648438 273.867188 214.648438 266.273438 C 214.878906 264.355469 213.496094 262.589844 211.578125 262.359375 C 211.425781 262.359375 211.269531 262.359375 211.195312 262.359375 C 209.429688 262.359375 207.894531 263.664062 207.664062 265.429688 C 206.667969 273.332031 206.207031 281.464844 206.207031 289.445312 L 206.207031 289.90625 C 206.207031 291.824219 207.742188 293.4375 209.660156 293.4375 Z M 299.058594 133.285156 C 305.582031 129.140625 312.414062 125.378906 319.394531 122.082031 C 321.160156 121.234375 321.929688 119.164062 321.085938 117.398438 C 320.46875 116.171875 319.242188 115.402344 317.859375 115.402344 C 317.324219 115.402344 316.863281 115.480469 316.328125 115.710938 C 309.113281 119.085938 301.976562 123 295.222656 127.375 C 293.613281 128.449219 293.074219 130.597656 294.148438 132.210938 C 295.222656 133.820312 297.371094 134.359375 299.058594 133.285156 Z M 560.203125 200.199219 C 561.121094 201.886719 563.269531 202.503906 564.960938 201.582031 C 566.648438 200.660156 567.261719 198.511719 566.339844 196.824219 C 562.503906 189.839844 558.128906 183.011719 553.371094 176.488281 C 552.679688 175.566406 551.605469 175.03125 550.53125 175.03125 C 549.765625 175.03125 549.074219 175.261719 548.460938 175.71875 C 546.925781 176.871094 546.542969 179.097656 547.691406 180.632812 C 552.296875 186.847656 556.519531 193.445312 560.203125 200.199219 Z M 532.960938 162.75 C 533.574219 163.441406 534.492188 163.824219 535.414062 163.824219 C 536.335938 163.824219 537.257812 163.519531 537.949219 162.90625 C 538.636719 162.292969 539.023438 161.371094 539.023438 160.449219 C 539.023438 159.527344 538.714844 158.609375 538.101562 157.917969 C 532.574219 152.085938 526.667969 146.558594 520.527344 141.417969 C 519.914062 140.882812 519.070312 140.574219 518.300781 140.574219 C 517.226562 140.574219 516.230469 141.035156 515.617188 141.878906 C 515.003906 142.570312 514.773438 143.492188 514.847656 144.488281 C 514.925781 145.410156 515.386719 146.253906 516.078125 146.867188 C 521.984375 151.777344 527.664062 157.148438 532.960938 162.75 Z M 386.464844 104.890625 C 394.214844 104.429688 402.042969 104.429688 409.71875 104.890625 C 411.636719 104.96875 413.324219 103.433594 413.402344 101.589844 C 413.554688 99.671875 412.019531 97.984375 410.101562 97.832031 C 406.1875 97.601562 402.121094 97.445312 398.128906 97.445312 C 394.0625 97.445312 389.996094 97.601562 386.003906 97.832031 C 384.085938 97.984375 382.550781 99.597656 382.707031 101.589844 C 382.859375 103.507812 384.546875 104.96875 386.464844 104.890625 Z M 476.863281 122.003906 C 483.847656 125.304688 490.675781 129.0625 497.199219 133.207031 C 497.964844 133.746094 498.964844 133.898438 499.886719 133.667969 C 500.804688 133.4375 501.574219 132.898438 502.109375 132.132812 C 502.648438 131.367188 502.800781 130.367188 502.570312 129.445312 C 502.339844 128.527344 501.804688 127.757812 501.035156 127.222656 C 494.28125 122.925781 487.144531 119.011719 479.933594 115.558594 C 479.472656 115.328125 478.933594 115.25 478.398438 115.25 C 477.015625 115.25 475.789062 116.019531 475.175781 117.246094 C 474.332031 119.085938 475.097656 121.160156 476.863281 122.003906 Z M 432.738281 107.730469 C 440.335938 109.1875 447.855469 111.105469 455.222656 113.484375 C 456.144531 113.792969 457.066406 113.714844 457.910156 113.253906 C 458.753906 112.792969 459.367188 112.105469 459.675781 111.183594 C 459.980469 110.261719 459.902344 109.339844 459.445312 108.496094 C 458.984375 107.652344 458.292969 107.039062 457.371094 106.734375 C 449.773438 104.277344 441.871094 102.28125 434.042969 100.746094 C 433.8125 100.671875 433.582031 100.671875 433.351562 100.671875 C 431.664062 100.671875 430.207031 101.898438 429.898438 103.507812 C 429.59375 105.503906 430.820312 107.347656 432.738281 107.730469 Z M 432.738281 107.730469 " fill-opacity="1" fill-rule="nonzero"/></g><g clip-path="url(#b584ef7486)"><g clip-path="url(#f1fd2e4ea9)"><g clip-path="url(#872197b3bd)"><g clip-path="url(#f8f44a4839)"><path stroke-linecap="round" transform="matrix(-0.723135, 1.227885, -1.227885, -0.723135, 564.815592, 59.125626)" fill="none" stroke-linejoin="round" d="M 7.451559 27.216965 L 7.453292 23.557468 C 7.45347 23.363305 7.530233 23.17494 7.667203 23.040192 C 7.805145 22.901692 7.991485 22.823764 8.185648 22.823942 L 30.143181 22.824474 C 30.337344 22.824652 30.525709 22.901414 30.661848 23.040747 C 30.798958 23.176327 30.876886 23.362667 30.876707 23.55683 L 30.874974 27.216327 " stroke="#16262e" stroke-width="1.67" stroke-opacity="1" stroke-miterlimit="4"/></g></g></g></g><g clip-path="url(#5350b5a115)"><g clip-path="url(#652dfe4d40)"><g clip-path="url(#d8bef18772)"><g clip-path="url(#c651b4c042)"><path stroke-linecap="round" transform="matrix(-0.723135, 1.227885, -1.227885, -0.723135, 564.815592, 59.125626)" fill="none" stroke-linejoin="round" d="M 19.164382 18.432465 L 19.164447 27.215951 " stroke="#16262e" stroke-width="1.67" stroke-opacity="1" stroke-miterlimit="4"/></g></g></g></g><g clip-path="url(#2ad7a579e1)"><g clip-path="url(#9246afb9ad)"><g clip-path="url(#12a1a57ed1)"><g clip-path="url(#d29817a13f)"><path fill="#ffef5e" d="M 524.828125 79.375 C 524.351562 79.09375 524.003906 78.636719 523.867188 78.101562 C 523.726562 77.5625 523.808594 76.996094 524.089844 76.519531 L 532.558594 62.136719 C 532.839844 61.660156 533.296875 61.316406 533.832031 61.175781 C 534.367188 61.039062 534.9375 61.117188 535.414062 61.398438 L 544.402344 66.691406 C 544.878906 66.972656 545.226562 67.429688 545.363281 67.96875 C 545.5 68.503906 545.421875 69.070312 545.140625 69.546875 L 536.671875 83.929688 C 536.390625 84.40625 535.933594 84.75 535.398438 84.890625 C 534.859375 85.027344 534.292969 84.949219 533.816406 84.667969 Z M 524.828125 79.375 " fill-opacity="1" fill-rule="nonzero"/></g></g></g></g><g clip-path="url(#fd243264c8)"><g clip-path="url(#45dc26eaf6)"><g clip-path="url(#30da0badd8)"><g clip-path="url(#81cdac1378)"><path fill="#fbed00" d="M 540.90625 76.738281 L 545.140625 69.546875 C 545.421875 69.070312 545.5 68.503906 545.363281 67.96875 C 545.226562 67.429688 544.878906 66.972656 544.402344 66.691406 L 535.414062 61.398438 C 534.9375 61.117188 534.367188 61.039062 533.832031 61.175781 C 533.296875 61.316406 532.839844 61.660156 532.558594 62.136719 L 528.324219 69.328125 Z M 540.90625 76.738281 " fill-opacity="1" fill-rule="nonzero"/></g></g></g></g><g clip-path="url(#f92b5eb71b)"><g clip-path="url(#1f958032f4)"><g clip-path="url(#4055de8704)"><g clip-path="url(#a8a7731776)"><path stroke-linecap="round" transform="matrix(-0.723135, 1.227885, -1.227885, -0.723135, 564.815592, 59.125626)" fill="none" stroke-linejoin="round" d="M 26.484568 16.968658 C 26.484211 17.356984 26.331658 17.729962 26.056745 18.00321 C 25.780862 18.280212 25.409153 18.432314 25.020826 18.431958 L 13.307937 18.432972 C 12.919611 18.432616 12.548996 18.278671 12.273385 18.00515 C 12.000137 17.730237 11.844281 17.357557 11.844638 16.969231 L 11.844351 9.649266 C 11.844708 9.260939 11.997261 8.887962 12.274536 8.613323 C 12.549449 8.340074 12.919766 8.18561 13.308093 8.185966 L 25.020982 8.184951 C 25.409308 8.185308 25.779923 8.339253 26.055534 8.612774 C 26.330173 8.890049 26.484638 9.260366 26.484281 9.648693 Z M 26.484568 16.968658 " stroke="#16262e" stroke-width="1.67" stroke-opacity="1" stroke-miterlimit="4"/></g></g></g></g><g clip-path="url(#6f4adc1399)"><g clip-path="url(#5c76a65778)"><g clip-path="url(#1aaadaba73)"><g clip-path="url(#84dd294613)"><path fill="#3c7a89" d="M 532.816406 71.976562 C 532.230469 72.96875 532.5625 74.246094 533.554688 74.832031 C 534.546875 75.417969 535.828125 75.085938 536.414062 74.09375 C 536.996094 73.101562 536.667969 71.820312 535.671875 71.238281 C 534.679688 70.652344 533.402344 70.984375 532.816406 71.976562 Z M 532.816406 71.976562 " fill-opacity="1" fill-rule="nonzero"/></g></g></g></g><g clip-path="url(#97aaca7f08)"><g clip-path="url(#52ab826308)"><g clip-path="url(#ee61c543de)"><g clip-path="url(#e518fffe36)"><path stroke-linecap="round" transform="matrix(-0.723135, 1.227885, -1.227885, -0.723135, 564.815592, 59.125626)" fill="none" stroke-linejoin="round" d="M 19.166115 14.772968 C 19.974735 14.773942 20.628882 14.118288 20.629857 13.309668 C 20.630831 12.501048 19.973786 11.844539 19.165166 11.843565 C 18.357937 11.844952 17.700037 12.499636 17.702815 13.309227 C 17.701841 14.117846 18.357495 14.771994 19.166115 14.772968 Z M 19.166115 14.772968 " stroke="#16262e" stroke-width="1.67" stroke-opacity="1" stroke-miterlimit="4"/></g></g></g></g><g clip-path="url(#dad334601a)"><g clip-path="url(#8860ac33c8)"><g clip-path="url(#4c5b0be8a5)"><g clip-path="url(#3cb4e832b1)"><path stroke-linecap="round" transform="matrix(-0.723135, 1.227885, -1.227885, -0.723135, 564.815592, 59.125626)" fill="none" stroke-linejoin="round" d="M 23.557461 8.184731 L 23.557682 6.72121 C 23.556389 5.557622 23.094937 4.439162 22.269077 3.614845 C 21.44697 2.791498 20.329009 2.330084 19.16403 2.329015 C 18.000441 2.330307 16.881982 2.791759 16.060026 3.616228 C 15.23668 4.438335 14.772904 5.557687 14.774196 6.721276 L 14.773975 8.184796 " stroke="#16262e" stroke-width="1.67" stroke-opacity="1" stroke-miterlimit="4"/></g></g></g></g><g clip-path="url(#b9025411b0)"><g clip-path="url(#09d9ec4184)"><g clip-path="url(#129c9fbc18)"><g clip-path="url(#72c18f05a0)"><path fill="#90e39a" d="M 515.222656 42.242188 C 513.46875 45.222656 514.460938 49.058594 517.4375 50.8125 C 520.417969 52.566406 524.253906 51.574219 526.007812 48.59375 C 527.761719 45.617188 526.769531 41.78125 523.789062 40.027344 C 520.8125 38.273438 516.976562 39.265625 515.222656 42.242188 Z M 515.222656 42.242188 " fill-opacity="1" fill-rule="nonzero"/></g></g></g></g><g clip-path="url(#5b91778981)"><g clip-path="url(#eaa21cf549)"><g clip-path="url(#785967f921)"><g clip-path="url(#ad1b3d2da4)"><path stroke-linecap="round" transform="matrix(-0.723135, 1.227885, -1.227885, -0.723135, 564.815592, 59.125626)" fill="none" stroke-linejoin="round" d="M 7.451624 36.000451 C 9.878455 35.999621 11.84465 34.033629 11.845211 31.609161 C 11.844381 29.18233 9.878389 27.216135 7.451559 27.216965 C 5.02709 27.216404 3.060895 29.182396 3.061725 31.609226 C 3.061164 34.033695 5.027156 35.99989 7.451624 36.000451 Z M 7.451624 36.000451 " stroke="#16262e" stroke-width="1.67" stroke-opacity="1" stroke-miterlimit="4"/></g></g></g></g><g clip-path="url(#b72527753e)"><g clip-path="url(#16737ac9cd)"><g clip-path="url(#b4ea11a896)"><g clip-path="url(#de1a13c551)"><path fill="#138a36" d="M 506.75 56.625 C 504.996094 59.601562 505.988281 63.4375 508.96875 65.195312 C 511.945312 66.949219 515.785156 65.953125 517.539062 62.976562 C 519.292969 60 518.300781 56.160156 515.320312 54.40625 C 512.34375 52.652344 508.507812 53.644531 506.75 56.625 Z M 506.75 56.625 " fill-opacity="1" fill-rule="nonzero"/></g></g></g></g><g clip-path="url(#8f74432935)"><g clip-path="url(#b5656a8eab)"><g clip-path="url(#f1da302f65)"><g clip-path="url(#3d49ff6f8c)"><path stroke-linecap="round" transform="matrix(-0.723135, 1.227885, -1.227885, -0.723135, 564.815592, 59.125626)" fill="none" stroke-linejoin="round" d="M 19.165904 36.001798 C 21.590373 36.002359 23.556567 34.036368 23.5581 31.608146 C 23.558661 29.183677 21.588916 27.216512 19.164447 27.215951 C 16.739979 27.215389 14.771422 29.182772 14.772252 31.609603 C 14.771691 34.034071 16.737682 36.000266 19.165904 36.001798 Z M 19.165904 36.001798 " stroke="#16262e" stroke-width="1.67" stroke-opacity="1" stroke-miterlimit="4"/></g></g></g></g><g clip-path="url(#5c81583183)"><g clip-path="url(#d4b5f15807)"><g clip-path="url(#eb619c18fd)"><g clip-path="url(#b0196c55e4)"><path fill="#138a36" d="M 498.28125 71.003906 C 496.527344 73.984375 497.519531 77.820312 500.5 79.574219 C 503.476562 81.328125 507.3125 80.335938 509.066406 77.359375 C 510.820312 74.378906 509.828125 70.542969 506.851562 68.789062 C 503.871094 67.035156 500.035156 68.027344 498.28125 71.003906 Z M 498.28125 71.003906 " fill-opacity="1" fill-rule="nonzero"/></g></g></g></g><g clip-path="url(#9dd066e81d)"><g clip-path="url(#d0cc1084dc)"><g clip-path="url(#753e6cc1ab)"><g clip-path="url(#ba6d58f899)"><path stroke-linecap="round" transform="matrix(-0.723135, 1.227885, -1.227885, -0.723135, 564.815592, 59.125626)" fill="none" stroke-linejoin="round" d="M 30.876431 36.002174 C 33.303261 36.001344 35.269456 34.035353 35.268626 31.608522 C 35.269187 29.184054 33.303196 27.217859 30.878727 27.217298 C 28.451897 27.218128 26.485702 29.184119 26.485141 31.608588 C 26.485971 34.035418 28.451962 36.001613 30.876431 36.002174 Z M 30.876431 36.002174 " stroke="#16262e" stroke-width="1.67" stroke-opacity="1" stroke-miterlimit="4"/></g></g></g></g><g clip-path="url(#51e2d7f427)"><g clip-path="url(#3fce9e3129)"><g clip-path="url(#cb32d5e0a7)"><g clip-path="url(#74f28f4ab1)"><path fill="#e5dada" d="M 288.226562 71.484375 C 288.582031 71.90625 288.753906 72.457031 288.707031 73.007812 C 288.660156 73.558594 288.394531 74.066406 287.96875 74.421875 L 256.003906 101.238281 C 255.582031 101.59375 255.035156 101.769531 254.480469 101.71875 C 253.929688 101.671875 253.421875 101.40625 253.066406 100.980469 L 224.910156 67.417969 C 224.550781 66.996094 224.378906 66.449219 224.429688 65.894531 C 224.476562 65.34375 224.742188 64.835938 225.164062 64.480469 L 257.128906 37.664062 C 257.554688 37.308594 258.101562 37.136719 258.652344 37.183594 C 259.203125 37.230469 259.714844 37.496094 260.070312 37.921875 Z M 288.226562 71.484375 " fill-opacity="1" fill-rule="nonzero"/></g></g></g></g><g clip-path="url(#de061c3ed3)"><g clip-path="url(#6309556378)"><g clip-path="url(#f3994d6288)"><g clip-path="url(#d8b9cc472b)"><path fill="#ffffff" d="M 224.648438 67.027344 L 288.714844 72.644531 C 288.675781 72.214844 288.507812 71.808594 288.226562 71.484375 L 260.070312 37.921875 C 259.714844 37.496094 259.203125 37.230469 258.652344 37.183594 C 258.101562 37.136719 257.554688 37.308594 257.128906 37.664062 L 225.164062 64.480469 C 224.804688 64.785156 224.554688 65.199219 224.464844 65.664062 C 224.367188 66.125 224.433594 66.605469 224.648438 67.027344 Z M 224.648438 67.027344 " fill-opacity="1" fill-rule="nonzero"/></g></g></g></g><g clip-path="url(#4a276b391c)"><g clip-path="url(#2635177416)"><g clip-path="url(#7e7b1f5fbe)"><g clip-path="url(#4d7d34bc52)"><path stroke-linecap="round" transform="matrix(0.915879, 1.091691, -1.091691, 0.915879, 260.736054, 30.305598)" fill="none" stroke-linejoin="round" d="M 18.432322 3.793445 L 34.537399 3.793725 C 34.924533 3.792899 35.298162 3.948918 35.573127 4.222539 C 35.848092 4.49616 36.001293 4.868004 36.000357 5.257238 L 36.000015 34.537059 C 36.00084 34.924193 35.848684 35.297484 35.571201 35.572787 C 35.297579 35.847753 34.925736 36.000954 34.536502 36.000017 L 3.793445 35.999398 C 3.404549 36.002323 3.03302 35.848066 2.757717 35.570583 C 2.482752 35.296962 2.32955 34.925118 2.328725 34.537984 L 2.329067 5.258163 C 2.330004 4.868929 2.48426 4.4974 2.757881 4.222435 C 3.031502 3.94747 3.405108 3.792168 3.794342 3.793105 L 8.185811 3.791839 " stroke="#16262e" stroke-width="1.67" stroke-opacity="1" stroke-miterlimit="4"/></g></g></g></g><g clip-path="url(#1d3761cf59)"><g clip-path="url(#4a5e828fd9)"><g clip-path="url(#f589edb836)"><g clip-path="url(#b65d85c1c7)"><path fill="#90e39a" d="M 259.09375 65.96875 C 258.214844 66.707031 257.632812 66.375 257.8125 65.25 L 259.195312 56.355469 L 250.195312 56.160156 C 249.046875 56.136719 248.832031 55.507812 249.703125 54.777344 L 264.089844 42.707031 C 264.511719 42.351562 265.0625 42.179688 265.613281 42.230469 C 266.164062 42.277344 266.671875 42.542969 267.027344 42.964844 L 273.730469 50.957031 C 274.085938 51.382812 274.261719 51.929688 274.210938 52.480469 C 274.164062 53.03125 273.898438 53.539062 273.476562 53.894531 Z M 259.09375 65.96875 " fill-opacity="1" fill-rule="nonzero"/></g></g></g></g><g clip-path="url(#4a74283ecb)"><g clip-path="url(#0d36ec6cf0)"><g clip-path="url(#eab8883891)"><g clip-path="url(#8adc80ddc5)"><path fill="#138a36" d="M 270.28125 56.585938 L 273.476562 53.902344 C 273.902344 53.546875 274.167969 53.039062 274.214844 52.488281 C 274.261719 51.933594 274.089844 51.386719 273.734375 50.964844 L 267.03125 42.972656 C 266.675781 42.546875 266.164062 42.285156 265.613281 42.234375 C 265.0625 42.1875 264.515625 42.359375 264.089844 42.714844 L 260.894531 45.398438 Z M 270.28125 56.585938 " fill-opacity="1" fill-rule="nonzero"/></g></g></g></g><g clip-path="url(#2f610ff235)"><g clip-path="url(#ac5e103cde)"><g clip-path="url(#3a8d26a05a)"><g clip-path="url(#77cd7b775f)"><path stroke-linecap="round" transform="matrix(0.915879, 1.091691, -1.091691, 0.915879, 260.736054, 30.305598)" fill="none" stroke-linejoin="round" d="M 18.43226 16.968189 C 18.432754 17.77369 17.991734 17.936841 17.467964 17.332826 L 13.309838 12.577679 L 9.145536 17.328109 C 8.614953 17.934953 8.179943 17.766798 8.180125 16.969021 L 8.179849 3.790415 C 8.179024 3.403281 8.335042 3.029652 8.610763 2.756449 C 8.884384 2.481484 9.256228 2.328282 9.643362 2.327457 L 16.963402 2.328508 C 17.352636 2.329445 17.725927 2.481601 17.99913 2.757322 C 18.274095 3.030944 18.427296 3.402787 18.428122 3.789921 Z M 18.43226 16.968189 " stroke="#16262e" stroke-width="1.67" stroke-opacity="1" stroke-miterlimit="4"/></g></g></g></g><g clip-path="url(#ccd4ac72bf)"><g clip-path="url(#fbeffea971)"><g clip-path="url(#91d1ef7dcd)"><g clip-path="url(#0cc3e4d098)"><path stroke-linecap="round" transform="matrix(0.915879, 1.091691, -1.091691, 0.915879, 260.736054, 30.305598)" fill="none" stroke-linejoin="round" d="M 22.824501 11.110118 L 31.607777 11.111447 " stroke="#16262e" stroke-width="1.67" stroke-opacity="1" stroke-miterlimit="4"/></g></g></g></g><g clip-path="url(#d3ce7236ea)"><g clip-path="url(#056de022eb)"><g clip-path="url(#69a7c5049b)"><g clip-path="url(#0dbb4beeb4)"><path stroke-linecap="round" transform="matrix(0.915879, 1.091691, -1.091691, 0.915879, 260.736054, 30.305598)" fill="none" stroke-linejoin="round" d="M 22.823728 16.966923 L 31.608766 16.966151 " stroke="#16262e" stroke-width="1.67" stroke-opacity="1" stroke-miterlimit="4"/></g></g></g></g><g clip-path="url(#621b1712dc)"><g clip-path="url(#298afaffbc)"><g clip-path="url(#fa0aeac7bf)"><g clip-path="url(#bcdf0464eb)"><path stroke-linecap="round" transform="matrix(0.915879, 1.091691, -1.091691, 0.915879, 260.736054, 30.305598)" fill="none" stroke-linejoin="round" d="M 6.72174 22.823109 L 31.607992 22.822956 " stroke="#16262e" stroke-width="1.67" stroke-opacity="1" stroke-miterlimit="4"/></g></g></g></g><g clip-path="url(#111e9b7282)"><g clip-path="url(#e8af280b34)"><g clip-path="url(#f23b456ab9)"><g clip-path="url(#2719e6b1e3)"><path stroke-linecap="round" transform="matrix(0.915879, 1.091691, -1.091691, 0.915879, 260.736054, 30.305598)" fill="none" stroke-linejoin="round" d="M 6.720967 28.679913 L 30.873671 28.67979 " stroke="#16262e" stroke-width="1.67" stroke-opacity="1" stroke-miterlimit="4"/></g></g></g></g><g clip-path="url(#2cfb2a554c)"><g clip-path="url(#06c00f54de)"><g clip-path="url(#0176990a4d)"><g clip-path="url(#d809823c16)"><path fill="#e5dada" d="M 230.398438 520.429688 L 244.785156 528.753906 C 249.574219 531.449219 255.074219 532.609375 260.539062 532.074219 C 266.007812 531.542969 271.179688 529.339844 275.355469 525.769531 L 277.355469 524.109375 C 278.691406 523 279.585938 521.449219 279.886719 519.738281 L 280.328125 517.175781 C 281.339844 511.777344 280.671875 506.195312 278.410156 501.191406 C 276.148438 496.183594 272.402344 491.996094 267.679688 489.1875 L 253.292969 480.863281 C 252.726562 480.539062 252.074219 480.386719 251.421875 480.425781 C 250.769531 480.464844 250.144531 480.695312 249.625 481.089844 C 243.9375 485.417969 239.191406 490.859375 235.675781 497.074219 C 232.035156 503.226562 229.6875 510.050781 228.765625 517.136719 C 228.6875 517.785156 228.796875 518.441406 229.089844 519.027344 C 229.378906 519.613281 229.832031 520.101562 230.398438 520.429688 Z M 230.398438 520.429688 " fill-opacity="1" fill-rule="nonzero"/></g></g></g></g><g clip-path="url(#8bbd78777e)"><g clip-path="url(#cb3bc5e617)"><g clip-path="url(#7534aef4e6)"><g clip-path="url(#8dbe5dd478)"><path fill="#ffffff" d="M 235.675781 497.074219 C 232.035156 503.226562 229.6875 510.050781 228.765625 517.136719 C 228.6875 517.785156 228.796875 518.441406 229.089844 519.027344 C 229.378906 519.613281 229.832031 520.101562 230.398438 520.429688 L 244.785156 528.753906 C 249.574219 531.449219 255.074219 532.609375 260.539062 532.074219 C 266.007812 531.542969 271.179688 529.339844 275.355469 525.769531 L 277.355469 524.109375 C 278.015625 523.558594 278.578125 522.894531 279.007812 522.148438 Z M 235.675781 497.074219 " fill-opacity="1" fill-rule="nonzero"/></g></g></g></g><g clip-path="url(#42ae462d07)"><g clip-path="url(#f2c5ad5855)"><g clip-path="url(#ce52d7e4f3)"><g clip-path="url(#91c7879fd6)"><path stroke-linecap="round" transform="matrix(0.713663, -1.233414, 1.233414, 0.713663, 220.024721, 519.572878)" fill="none" stroke-linejoin="round" d="M 3.125409 6.602185 L 3.125436 18.266312 C 3.171402 22.122485 4.399689 25.870955 6.645365 29.002255 C 8.89004 32.1373 12.045886 34.504441 15.682093 35.786051 L 17.393382 36.417401 C 18.536738 36.838968 19.793075 36.837291 20.938019 36.418678 L 22.649629 35.786201 C 26.284242 34.503446 29.440045 32.135914 31.684568 29.00351 C 33.931463 25.869734 35.158413 22.122637 35.204594 18.266987 L 35.204567 6.60286 C 35.202436 6.144875 35.065704 5.695096 34.812711 5.312587 C 34.559719 4.930078 34.200074 4.631447 33.777844 4.454539 C 29.150044 2.521034 24.176887 1.550609 19.166386 1.599402 C 14.149918 1.550304 9.179762 2.522693 4.551727 4.453091 C 4.130405 4.633531 3.770235 4.930605 3.517296 5.314483 C 3.262985 5.695989 3.125651 6.142827 3.125409 6.602185 Z M 3.125409 6.602185 " stroke="#16262e" stroke-width="1.67" stroke-opacity="1" stroke-miterlimit="4"/></g></g></g></g><g clip-path="url(#aa5c6f0528)"><g clip-path="url(#e36de9cc1f)"><g clip-path="url(#be405f749b)"><g clip-path="url(#49797748f6)"><path fill="#3c7a89" d="M 263.933594 513.429688 C 266.945312 508.226562 265.167969 501.566406 259.964844 498.558594 C 254.761719 495.546875 248.105469 497.324219 245.09375 502.527344 C 242.082031 507.730469 243.859375 514.386719 249.0625 517.398438 C 254.265625 520.410156 260.925781 518.632812 263.933594 513.429688 Z M 263.933594 513.429688 " fill-opacity="1" fill-rule="nonzero"/></g></g></g></g><g clip-path="url(#6538354d39)"><g clip-path="url(#c745fe3c9c)"><g clip-path="url(#0435ec7ec7)"><g clip-path="url(#2cccc558dc)"><path fill="#90e39a" d="M 263.933594 513.429688 C 262.488281 515.925781 260.109375 517.75 257.320312 518.492188 C 254.53125 519.238281 251.5625 518.84375 249.0625 517.398438 C 246.566406 515.953125 244.742188 513.574219 244 510.785156 C 243.253906 507.996094 243.648438 505.027344 245.09375 502.527344 Z M 263.933594 513.429688 " fill-opacity="1" fill-rule="nonzero"/></g></g></g></g><g clip-path="url(#e3a278a8b0)"><g clip-path="url(#3322bd5d12)"><g clip-path="url(#fca0470489)"><g clip-path="url(#5e8a1d8e83)"><path stroke-linecap="round" transform="matrix(0.713663, -1.233414, 1.233414, 0.713663, 220.024721, 519.572878)" fill="none" stroke-linejoin="round" d="M 26.801153 16.874412 C 26.801143 18.385087 26.354519 19.862811 25.516018 21.11756 C 24.675144 22.373683 23.483236 23.351529 22.086534 23.931645 C 20.690833 24.508016 19.157519 24.660454 17.675511 24.365158 C 16.193504 24.069863 14.832595 23.343458 13.763945 22.273764 C 12.696668 21.206443 11.966462 19.845913 11.673543 18.365379 C 11.379253 16.882472 11.530099 15.347862 12.109428 13.951706 C 12.686384 12.556922 13.664962 11.363639 14.920514 10.523155 C 16.177439 9.685043 17.653392 9.236424 19.164068 9.236434 " stroke="#16262e" stroke-width="1.67" stroke-opacity="1" stroke-miterlimit="4"/></g></g></g></g><g clip-path="url(#e19055e562)"><g clip-path="url(#e5ef322e71)"><g clip-path="url(#1af8df5628)"><g clip-path="url(#145fcaf5ae)"><path stroke-linecap="round" transform="matrix(0.713663, -1.233414, 1.233414, 0.713663, 220.024721, 519.572878)" fill="none" stroke-linejoin="round" d="M 16.109752 16.108923 L 18.584869 17.967338 C 18.740539 18.083123 18.93668 18.137486 19.131717 18.113313 C 19.324381 18.090513 19.504077 17.99604 19.628726 17.844742 L 26.803472 9.23738 " stroke="#16262e" stroke-width="1.67" stroke-opacity="1" stroke-miterlimit="4"/></g></g></g></g><path fill="#3c7a89" d="M 170.738281 301.289062 C 171.316406 301.289062 171.871094 301.058594 172.28125 300.648438 C 172.6875 300.242188 172.917969 299.6875 172.917969 299.109375 L 172.917969 272.988281 C 172.917969 272.410156 172.6875 271.855469 172.28125 271.449219 C 171.871094 271.039062 171.316406 270.8125 170.738281 270.8125 L 149.226562 270.8125 C 148.824219 270.8125 148.425781 270.699219 148.085938 270.484375 C 147.742188 270.273438 147.460938 269.96875 147.28125 269.605469 L 145.21875 265.484375 C 145.039062 265.121094 144.757812 264.816406 144.417969 264.605469 C 144.074219 264.394531 143.675781 264.28125 143.273438 264.28125 L 131.554688 264.28125 C 130.980469 264.28125 130.425781 264.507812 130.015625 264.917969 C 129.609375 265.324219 129.378906 265.878906 129.378906 266.457031 L 129.378906 299.109375 C 129.378906 299.6875 129.609375 300.242188 130.015625 300.648438 C 130.425781 301.058594 130.980469 301.289062 131.554688 301.289062 Z M 170.738281 301.289062 " fill-opacity="1" fill-rule="nonzero"/><path fill="#90e39a" d="M 149.226562 270.8125 C 148.824219 270.8125 148.425781 270.699219 148.085938 270.484375 C 147.742188 270.273438 147.460938 269.96875 147.28125 269.605469 L 145.21875 265.484375 C 145.039062 265.121094 144.757812 264.816406 144.417969 264.605469 C 144.074219 264.394531 143.675781 264.28125 143.273438 264.28125 L 131.554688 264.28125 C 130.980469 264.28125 130.425781 264.507812 130.015625 264.917969 C 129.609375 265.324219 129.378906 265.878906 129.378906 266.457031 L 129.378906 299.109375 C 129.378906 299.6875 129.609375 300.242188 130.015625 300.648438 C 130.425781 301.058594 130.980469 301.289062 131.554688 301.289062 L 133.078125 301.289062 L 163.554688 270.8125 Z M 149.226562 270.8125 " fill-opacity="1" fill-rule="nonzero"/><path stroke-linecap="round" transform="matrix(1.425, 0, 0, 1.425, 127.102099, 262.004248)" fill="none" stroke-linejoin="round" d="M 32.151486 13.81829 L 32.151486 7.708093 C 32.151486 7.302391 31.989754 6.913137 31.704666 6.628049 C 31.416837 6.34022 31.027583 6.181229 30.621881 6.181229 L 15.525939 6.181229 C 15.243592 6.181229 14.963987 6.101733 14.7255 5.950966 C 14.484272 5.80294 14.286904 5.589124 14.160807 5.33419 L 12.713439 2.442194 C 12.587342 2.18726 12.389974 1.973444 12.151487 1.825418 C 11.910259 1.677391 11.630654 1.597896 11.348307 1.597896 L 3.124624 1.597896 C 2.721663 1.597896 2.332409 1.756887 2.04458 2.044716 C 1.759492 2.329804 1.59776 2.719058 1.59776 3.12476 L 1.59776 26.038684 C 1.59776 26.444386 1.759492 26.83364 2.04458 27.118728 C 2.332409 27.406557 2.721663 27.56829 3.124624 27.56829 L 13.818154 27.56829 " stroke="#16262e" stroke-width="1.67" stroke-opacity="1" stroke-miterlimit="4"/><path stroke-linecap="round" transform="matrix(1.425, 0, 0, 1.425, 127.102099, 262.004248)" fill-opacity="1" fill="#3c7a89" fill-rule="nonzero" stroke-linejoin="round" d="M 21.838987 32.148881 C 22.749075 32.148881 23.623526 31.787039 24.267715 31.142851 C 24.911903 30.498662 25.276487 29.62421 25.276487 28.714123 C 25.276487 27.801294 24.911903 26.926842 24.267715 26.282654 C 23.623526 25.638465 22.749075 25.276623 21.838987 25.276623 C 20.926158 25.276623 20.051706 25.638465 19.407518 26.282654 C 18.763329 26.926842 18.401487 27.801294 18.401487 28.714123 C 18.401487 29.62421 18.763329 30.498662 19.407518 31.142851 C 20.051706 31.787039 20.926158 32.148881 21.838987 32.148881 Z M 21.838987 32.148881 " stroke="#16262e" stroke-width="1.67" stroke-opacity="1" stroke-miterlimit="4"/><path stroke-linecap="round" transform="matrix(1.425, 0, 0, 1.425, 127.102099, 262.004248)" fill-opacity="1" fill="#3c7a89" fill-rule="nonzero" stroke-linejoin="round" d="M 33.29732 36.732215 C 33.746881 36.732215 34.193701 36.644495 34.610368 36.471798 C 35.027035 36.299101 35.408065 36.044166 35.726048 35.726184 C 36.046771 35.408201 36.298964 35.027171 36.471662 34.610504 C 36.644359 34.193837 36.732078 33.747017 36.732078 33.294715 C 36.732078 32.845153 36.644359 32.398333 36.471662 31.981667 C 36.298964 31.562259 36.046771 31.183969 35.726048 30.865987 C 35.408065 30.545263 35.027035 30.29307 34.610368 30.120373 C 34.193701 29.947675 33.746881 29.857215 33.29732 29.857215 C 32.384491 29.857215 31.510039 30.221798 30.86585 30.865987 C 30.221662 31.510175 29.85982 32.384627 29.85982 33.294715 C 29.85982 34.207544 30.221662 35.081995 30.86585 35.726184 C 31.510039 36.370372 32.384491 36.732215 33.29732 36.732215 Z M 33.29732 36.732215 " stroke="#16262e" stroke-width="1.67" stroke-opacity="1" stroke-miterlimit="4"/><path stroke-linecap="round" transform="matrix(1.425, 0, 0, 1.425, 127.102099, 262.004248)" fill-opacity="1" fill="#3c7a89" fill-rule="nonzero" stroke-linejoin="round" d="M 33.29732 25.276623 C 33.746881 25.276623 34.193701 25.186162 34.610368 25.013465 C 35.027035 24.840768 35.408065 24.588575 35.726048 24.267851 C 36.046771 23.949869 36.298964 23.571579 36.471662 23.154913 C 36.644359 22.735505 36.732078 22.288684 36.732078 21.839123 C 36.732078 21.38682 36.644359 20.94 36.471662 20.523334 C 36.298964 20.106667 36.046771 19.728378 35.726048 19.407654 C 35.408065 19.089671 35.027035 18.834737 34.610368 18.66204 C 34.193701 18.489343 33.746881 18.401623 33.29732 18.401623 C 32.384491 18.401623 31.510039 18.763465 30.86585 19.407654 C 30.221662 20.051842 29.85982 20.926294 29.85982 21.839123 C 29.85982 22.749211 30.221662 23.623662 30.86585 24.267851 C 31.510039 24.91204 32.384491 25.276623 33.29732 25.276623 Z M 33.29732 25.276623 " stroke="#16262e" stroke-width="1.67" stroke-opacity="1" stroke-miterlimit="4"/><path stroke-linecap="round" transform="matrix(1.425, 0, 0, 1.425, 127.102099, 262.004248)" fill="none" stroke-linejoin="round" d="M 24.780324 26.948772 L 30.355982 23.601733 " stroke="#16262e" stroke-width="1.67" stroke-opacity="1" stroke-miterlimit="4"/><path stroke-linecap="round" transform="matrix(1.425, 0, 0, 1.425, 127.102099, 262.004248)" fill="none" stroke-linejoin="round" d="M 25.029776 29.988794 L 30.10653 32.020044 " stroke="#16262e" stroke-width="1.67" stroke-opacity="1" stroke-miterlimit="4"/><g clip-path="url(#886ba6c05a)"><g clip-path="url(#2f3c28a315)"><g clip-path="url(#3aef8fa22d)"><g clip-path="url(#2d21880e63)"><path fill="#ffffff" d="M 505.082031 503.691406 L 522.546875 533.824219 C 523.125 534.824219 523.285156 536.011719 522.988281 537.128906 C 522.691406 538.242188 521.964844 539.195312 520.964844 539.773438 C 519.964844 540.355469 518.777344 540.511719 517.660156 540.214844 C 516.546875 539.917969 515.59375 539.191406 515.015625 538.191406 L 497.546875 508.058594 Z M 505.082031 503.691406 " fill-opacity="1" fill-rule="nonzero"/></g></g></g></g><g clip-path="url(#7ab224de76)"><g clip-path="url(#1144a4e5cc)"><g clip-path="url(#7d3acb5958)"><g clip-path="url(#31f9e83a15)"><path fill="#3c7a89" d="M 505.871094 500.714844 L 537.890625 482.15625 C 538.386719 481.867188 538.984375 481.789062 539.539062 481.9375 C 540.097656 482.085938 540.574219 482.449219 540.863281 482.949219 L 558.332031 513.082031 C 558.910156 514.082031 559.070312 515.269531 558.773438 516.386719 C 558.476562 517.5 557.746094 518.453125 556.75 519.03125 L 520.964844 539.773438 C 521.964844 539.195312 522.691406 538.242188 522.988281 537.128906 C 523.285156 536.011719 523.125 534.824219 522.546875 533.824219 L 505.082031 503.691406 C 504.789062 503.191406 504.710938 502.597656 504.859375 502.039062 C 505.007812 501.480469 505.371094 501.003906 505.871094 500.714844 Z M 505.871094 500.714844 " fill-opacity="1" fill-rule="nonzero"/></g></g></g></g><g clip-path="url(#7c360011c8)"><g clip-path="url(#f0ac21542d)"><g clip-path="url(#964f92b773)"><g clip-path="url(#5e7ab3d04d)"><path fill="#e5dada" d="M 553.019531 512.597656 L 521 531.15625 L 522.554688 533.832031 C 523.132812 534.832031 523.289062 536.019531 522.992188 537.136719 C 522.695312 538.253906 521.96875 539.203125 520.96875 539.785156 L 556.753906 519.042969 C 557.753906 518.460938 558.480469 517.507812 558.777344 516.394531 C 559.074219 515.277344 558.914062 514.089844 558.335938 513.089844 L 554.601562 506.648438 C 555.179688 507.648438 555.339844 508.835938 555.042969 509.949219 C 554.746094 511.066406 554.015625 512.019531 553.019531 512.597656 Z M 553.019531 512.597656 " fill-opacity="1" fill-rule="nonzero"/></g></g></g></g><g clip-path="url(#ae624b9bfe)"><g clip-path="url(#b936e377bb)"><g clip-path="url(#d0fdfd00a4)"><g clip-path="url(#af9565e15a)"><path stroke-linecap="round" transform="matrix(-0.714644, -1.232846, 1.232846, -0.714644, 517.46249, 546.953133)" fill="none" stroke-linejoin="round" d="M 19.294698 36.733935 L 6.186819 36.73371 C 5.376231 36.732772 4.598905 36.412086 4.025111 35.838671 C 3.451317 35.265255 3.132097 34.487707 3.129289 33.678116 L 3.130135 4.652146 " stroke="#16262e" stroke-width="1.67" stroke-opacity="1" stroke-miterlimit="4"/></g></g></g></g><g clip-path="url(#eea621614c)"><g clip-path="url(#cb36a5e9ca)"><g clip-path="url(#6d95fa029e)"><g clip-path="url(#81c6894bab)"><path stroke-linecap="round" transform="matrix(-0.714644, -1.232846, 1.232846, -0.714644, 517.46249, 546.953133)" fill="none" stroke-linejoin="round" d="M 32.155636 1.598303 L 6.186726 1.598362 C 5.376138 1.597424 4.599587 1.92039 4.027546 2.491812 C 3.451759 3.064231 3.131073 3.841558 3.130135 4.652146 C 3.131569 5.464108 3.452163 6.239284 4.025957 6.8127 C 4.599751 7.386116 5.377078 7.706801 6.187666 7.707739 L 30.628544 7.709102 C 31.035212 7.707199 31.423189 7.868727 31.710085 8.155435 C 31.994611 8.440768 32.156094 8.829044 32.155625 9.234338 L 32.155099 19.205245 " stroke="#16262e" stroke-width="1.67" stroke-opacity="1" stroke-miterlimit="4"/></g></g></g></g><g clip-path="url(#dc68e3906f)"><g clip-path="url(#0910f02c26)"><g clip-path="url(#1a77ebecc1)"><g clip-path="url(#89ed00fbb0)"><path stroke-linecap="round" transform="matrix(-0.714644, -1.232846, 1.232846, -0.714644, 517.46249, 546.953133)" fill="none" stroke-linejoin="round" d="M 6.187196 4.65305 L 30.629449 4.652041 " stroke="#16262e" stroke-width="1.67" stroke-opacity="1" stroke-miterlimit="4"/></g></g></g></g><g clip-path="url(#1430c310ae)"><g clip-path="url(#b9d88a3f01)"><g clip-path="url(#af77943720)"><g clip-path="url(#107631b10d)"><path fill="#ffffff" d="M 540.992188 491.597656 C 540.015625 489.910156 538.558594 488.550781 536.808594 487.691406 C 535.058594 486.832031 533.09375 486.511719 531.160156 486.769531 C 529.226562 487.027344 527.414062 487.851562 525.949219 489.140625 C 524.484375 490.429688 523.4375 492.121094 522.933594 494.007812 C 522.433594 495.890625 522.503906 497.882812 523.132812 499.726562 C 523.761719 501.570312 524.925781 503.1875 526.476562 504.375 C 528.023438 505.558594 529.890625 506.257812 531.835938 506.378906 C 533.78125 506.503906 535.71875 506.046875 537.40625 505.070312 C 539.671875 503.757812 541.320312 501.601562 541.992188 499.078125 C 542.664062 496.550781 542.304688 493.859375 540.992188 491.597656 Z M 540.992188 491.597656 " fill-opacity="1" fill-rule="nonzero"/></g></g></g></g><g clip-path="url(#7ad1930149)"><g clip-path="url(#986a70494b)"><g clip-path="url(#9c2a42ac4f)"><g clip-path="url(#9b2718c1f0)"><path stroke-linecap="round" transform="matrix(-0.714644, -1.232846, 1.232846, -0.714644, 517.46249, 546.953133)" fill="none" stroke-linejoin="round" d="M 25.326894 33.766915 C 26.695104 33.767905 28.033193 33.361712 29.170825 32.601683 C 30.308457 31.841654 31.194421 30.761474 31.718391 29.496806 C 32.242362 28.232137 32.379835 26.841651 32.112738 25.498642 C 31.845641 24.155634 31.187174 22.924787 30.219038 21.954853 C 29.2519 20.988666 28.017645 20.330239 26.676923 20.063188 C 25.336201 19.796137 23.944692 19.933728 22.677958 20.457328 C 21.414971 20.979931 20.333332 21.867472 19.575193 23.005905 C 18.814683 24.142964 18.410288 25.480116 18.409298 26.848326 C 18.408804 28.685759 19.13778 30.445424 20.433371 31.741418 C 21.731333 33.038786 23.491833 33.767795 25.326894 33.766915 Z M 25.326894 33.766915 " stroke="#16262e" stroke-width="1.67" stroke-opacity="1" stroke-miterlimit="4"/></g></g></g></g><g clip-path="url(#4add34ed02)"><g clip-path="url(#2aad785a8e)"><g clip-path="url(#cbbc18f5ee)"><g clip-path="url(#d73c1f7d6b)"><path stroke-linecap="round" transform="matrix(-0.714644, -1.232846, 1.232846, -0.714644, 517.46249, 546.953133)" fill="none" stroke-linejoin="round" d="M 35.210418 36.733181 L 30.253806 31.771953 " stroke="#16262e" stroke-width="1.67" stroke-opacity="1" stroke-miterlimit="4"/></g></g></g></g><g clip-path="url(#f352984286)"><g clip-path="url(#3cffa1a83e)"><g clip-path="url(#143eab723b)"><g clip-path="url(#b1e2f47601)"><path fill="#e3e3e3" d="M 540.992188 491.597656 C 540.015625 489.910156 538.558594 488.550781 536.808594 487.691406 C 535.058594 486.832031 533.09375 486.511719 531.160156 486.769531 C 529.226562 487.027344 527.414062 487.851562 525.949219 489.140625 C 524.484375 490.429688 523.4375 492.121094 522.933594 494.007812 C 522.433594 495.890625 522.503906 497.882812 523.132812 499.726562 C 523.761719 501.570312 524.925781 503.1875 526.476562 504.375 C 528.023438 505.558594 529.890625 506.257812 531.835938 506.378906 C 533.78125 506.503906 535.71875 506.046875 537.40625 505.070312 C 539.671875 503.757812 541.320312 501.601562 541.992188 499.078125 C 542.664062 496.550781 542.304688 493.859375 540.992188 491.597656 Z M 540.992188 491.597656 " fill-opacity="1" fill-rule="nonzero"/></g></g></g></g><g clip-path="url(#a261ac78b6)"><g clip-path="url(#733bd3a073)"><g clip-path="url(#1d28e42dda)"><g clip-path="url(#b9e1b2433b)"><path fill="#ffffff" d="M 523.933594 501.488281 C 524.910156 503.175781 526.371094 504.539062 528.125 505.398438 C 529.878906 506.257812 531.851562 506.574219 533.785156 506.3125 C 535.722656 506.050781 537.535156 505.21875 538.996094 503.921875 C 540.460938 502.628906 541.503906 500.925781 541.996094 499.039062 L 522.957031 493.972656 C 522.613281 495.226562 522.523438 496.535156 522.691406 497.828125 C 522.859375 499.117188 523.28125 500.363281 523.933594 501.488281 Z M 523.933594 501.488281 " fill-opacity="1" fill-rule="nonzero"/></g></g></g></g><g clip-path="url(#4e41fb8170)"><g clip-path="url(#5b59c59af9)"><g clip-path="url(#73b9d58977)"><g clip-path="url(#ddfc9050ea)"><path stroke-linecap="round" transform="matrix(-0.714644, -1.232846, 1.232846, -0.714644, 517.46249, 546.953133)" fill="none" stroke-linejoin="round" d="M 25.326894 33.766915 C 26.695104 33.767905 28.033193 33.361712 29.170825 32.601683 C 30.308457 31.841654 31.194421 30.761474 31.718391 29.496806 C 32.242362 28.232137 32.379835 26.841651 32.112738 25.498642 C 31.845641 24.155634 31.187174 22.924787 30.219038 21.954853 C 29.2519 20.988666 28.017645 20.330239 26.676923 20.063188 C 25.336201 19.796137 23.944692 19.933728 22.677958 20.457328 C 21.414971 20.979931 20.333332 21.867472 19.575193 23.005905 C 18.814683 24.142964 18.410288 25.480116 18.409298 26.848326 C 18.408804 28.685759 19.13778 30.445424 20.433371 31.741418 C 21.731333 33.038786 23.491833 33.767795 25.326894 33.766915 Z M 25.326894 33.766915 " stroke="#16262e" stroke-width="1.67" stroke-opacity="1" stroke-miterlimit="4"/></g></g></g></g><g clip-path="url(#8bbc9d699a)"><g clip-path="url(#b8de4a1236)"><g clip-path="url(#f08840fdbc)"><g clip-path="url(#459223326e)"><path stroke-linecap="round" transform="matrix(-0.714644, -1.232846, 1.232846, -0.714644, 517.46249, 546.953133)" fill="none" stroke-linejoin="round" d="M 35.210418 36.733181 L 30.25281 31.768207 " stroke="#16262e" stroke-width="1.67" stroke-opacity="1" stroke-miterlimit="4"/></g></g></g></g><path fill="#16262e" d="M 650.414062 266.492188 C 650.414062 265.914062 650.644531 265.359375 651.054688 264.953125 C 651.460938 264.542969 652.015625 264.316406 652.59375 264.316406 L 664.566406 264.316406 C 665.144531 264.316406 665.695312 264.542969 666.105469 264.953125 C 666.511719 265.359375 666.742188 265.914062 666.742188 266.492188 L 666.742188 312.207031 C 666.742188 312.785156 666.511719 313.339844 666.105469 313.746094 C 665.695312 314.15625 665.144531 314.382812 664.566406 314.382812 L 652.59375 314.382812 C 652.015625 314.382812 651.460938 314.15625 651.054688 313.746094 C 650.644531 313.339844 650.414062 312.785156 650.414062 312.207031 Z M 650.414062 266.492188 " fill-opacity="1" fill-rule="nonzero"/><path fill="#90e39a" d="M 633 266.492188 C 633 265.914062 633.230469 265.359375 633.636719 264.953125 C 634.046875 264.542969 634.601562 264.316406 635.175781 264.316406 L 648.238281 264.316406 C 648.816406 264.316406 649.371094 264.542969 649.777344 264.953125 C 650.1875 265.359375 650.414062 265.914062 650.414062 266.492188 L 650.414062 312.207031 C 650.414062 312.785156 650.1875 313.339844 649.777344 313.746094 C 649.371094 314.15625 648.816406 314.382812 648.238281 314.382812 L 635.175781 314.382812 C 634.601562 314.382812 634.046875 314.15625 633.636719 313.746094 C 633.230469 313.339844 633 312.785156 633 312.207031 Z M 633 266.492188 " fill-opacity="1" fill-rule="nonzero"/><path fill="#3c7a89" d="M 616.675781 266.492188 C 616.675781 265.914062 616.902344 265.359375 617.3125 264.953125 C 617.71875 264.542969 618.273438 264.316406 618.851562 264.316406 L 630.824219 264.316406 C 631.402344 264.316406 631.957031 264.542969 632.363281 264.953125 C 632.773438 265.359375 633 265.914062 633 266.492188 L 633 312.207031 C 633 312.785156 632.773438 313.339844 632.363281 313.746094 C 631.957031 314.15625 631.402344 314.382812 630.824219 314.382812 L 618.851562 314.382812 C 618.273438 314.382812 617.71875 314.15625 617.3125 313.746094 C 616.902344 313.339844 616.675781 312.785156 616.675781 312.207031 Z M 616.675781 266.492188 " fill-opacity="1" fill-rule="nonzero"/><path fill="#ffffff" d="M 659.125 270.847656 C 658.476562 270.847656 657.847656 271.039062 657.308594 271.394531 C 656.773438 271.753906 656.355469 272.265625 656.105469 272.863281 C 655.859375 273.457031 655.796875 274.113281 655.921875 274.75 C 656.046875 275.382812 656.359375 275.964844 656.816406 276.421875 C 657.273438 276.875 657.855469 277.1875 658.488281 277.3125 C 659.121094 277.441406 659.777344 277.375 660.375 277.128906 C 660.96875 276.882812 661.480469 276.460938 661.839844 275.925781 C 662.199219 275.386719 662.390625 274.757812 662.390625 274.113281 C 662.390625 273.246094 662.046875 272.414062 661.433594 271.800781 C 660.820312 271.191406 659.988281 270.847656 659.125 270.847656 Z M 659.125 270.847656 " fill-opacity="1" fill-rule="nonzero"/><path fill="#ffffff" d="M 641.707031 270.847656 C 641.0625 270.847656 640.429688 271.039062 639.894531 271.394531 C 639.355469 271.753906 638.9375 272.265625 638.691406 272.863281 C 638.445312 273.457031 638.378906 274.113281 638.507812 274.75 C 638.632812 275.382812 638.941406 275.964844 639.398438 276.421875 C 639.855469 276.875 640.4375 277.1875 641.070312 277.3125 C 641.703125 277.441406 642.359375 277.375 642.957031 277.128906 C 643.554688 276.882812 644.066406 276.460938 644.421875 275.925781 C 644.78125 275.386719 644.972656 274.757812 644.972656 274.113281 C 644.972656 273.246094 644.628906 272.414062 644.015625 271.800781 C 643.40625 271.191406 642.574219 270.847656 641.707031 270.847656 Z M 641.707031 270.847656 " fill-opacity="1" fill-rule="nonzero"/><path fill="#ffffff" d="M 624.292969 270.847656 C 623.648438 270.847656 623.015625 271.039062 622.480469 271.394531 C 621.941406 271.753906 621.523438 272.265625 621.277344 272.863281 C 621.027344 273.457031 620.964844 274.113281 621.089844 274.75 C 621.214844 275.382812 621.527344 275.964844 621.984375 276.421875 C 622.441406 276.875 623.023438 277.1875 623.65625 277.3125 C 624.289062 277.441406 624.945312 277.375 625.542969 277.128906 C 626.140625 276.882812 626.648438 276.460938 627.007812 275.925781 C 627.367188 275.386719 627.558594 274.757812 627.558594 274.113281 C 627.558594 273.246094 627.214844 272.414062 626.601562 271.800781 C 625.988281 271.191406 625.160156 270.847656 624.292969 270.847656 Z M 624.292969 270.847656 " fill-opacity="1" fill-rule="nonzero"/><path fill="#138a36" d="M 655.859375 308.941406 L 655.859375 303.5 L 662.390625 303.5 L 662.390625 308.941406 C 662.390625 309.230469 662.273438 309.507812 662.070312 309.710938 C 661.867188 309.914062 661.589844 310.03125 661.300781 310.03125 L 656.945312 310.03125 C 656.660156 310.03125 656.382812 309.914062 656.175781 309.710938 C 655.972656 309.507812 655.859375 309.230469 655.859375 308.941406 Z M 655.859375 308.941406 " fill-opacity="1" fill-rule="nonzero"/><path fill="#ffffff" d="M 655.859375 303.5 L 655.859375 284.996094 C 655.859375 284.707031 655.972656 284.429688 656.175781 284.226562 C 656.382812 284.023438 656.660156 283.90625 656.945312 283.90625 L 661.300781 283.90625 C 661.589844 283.90625 661.867188 284.023438 662.070312 284.226562 C 662.273438 284.429688 662.390625 284.707031 662.390625 284.996094 L 662.390625 303.5 Z M 655.859375 303.5 " fill-opacity="1" fill-rule="nonzero"/><path fill="#138a36" d="M 638.441406 308.941406 L 638.441406 303.5 L 644.972656 303.5 L 644.972656 308.941406 C 644.972656 309.230469 644.859375 309.507812 644.65625 309.710938 C 644.449219 309.914062 644.175781 310.03125 643.886719 310.03125 L 639.53125 310.03125 C 639.242188 310.03125 638.964844 309.914062 638.761719 309.710938 C 638.558594 309.507812 638.441406 309.230469 638.441406 308.941406 Z M 638.441406 308.941406 " fill-opacity="1" fill-rule="nonzero"/><path fill="#ffffff" d="M 638.441406 303.5 L 638.441406 284.996094 C 638.441406 284.707031 638.558594 284.429688 638.761719 284.226562 C 638.964844 284.023438 639.242188 283.90625 639.53125 283.90625 L 643.886719 283.90625 C 644.175781 283.90625 644.449219 284.023438 644.65625 284.226562 C 644.859375 284.429688 644.972656 284.707031 644.972656 284.996094 L 644.972656 303.5 Z M 638.441406 303.5 " fill-opacity="1" fill-rule="nonzero"/><path fill="#138a36" d="M 621.027344 308.941406 L 621.027344 303.5 L 627.558594 303.5 L 627.558594 308.941406 C 627.558594 309.230469 627.445312 309.507812 627.238281 309.710938 C 627.035156 309.914062 626.757812 310.03125 626.46875 310.03125 L 622.117188 310.03125 C 621.828125 310.03125 621.550781 309.914062 621.347656 309.710938 C 621.140625 309.507812 621.027344 309.230469 621.027344 308.941406 Z M 621.027344 308.941406 " fill-opacity="1" fill-rule="nonzero"/><path fill="#ffffff" d="M 621.027344 303.5 L 621.027344 284.996094 C 621.027344 284.707031 621.140625 284.429688 621.347656 284.226562 C 621.550781 284.023438 621.828125 283.90625 622.117188 283.90625 L 626.46875 283.90625 C 626.757812 283.90625 627.035156 284.023438 627.238281 284.226562 C 627.445312 284.429688 627.558594 284.707031 627.558594 284.996094 L 627.558594 303.5 Z M 621.027344 303.5 " fill-opacity="1" fill-rule="nonzero"/><path stroke-linecap="round" transform="matrix(-1.425, 0, 0, -1.425, 669.019076, 316.659674)" fill="none" stroke-linejoin="round" d="M 13.056149 35.205252 C 13.056149 35.610954 12.894417 36.000208 12.606588 36.285296 C 12.3215 36.573125 11.932246 36.732116 11.526544 36.732116 L 3.12468 36.732116 C 2.718979 36.732116 2.332466 36.573125 2.044637 36.285296 C 1.759549 36.000208 1.597817 35.610954 1.597817 35.205252 L 1.597817 3.124661 C 1.597817 2.71896 1.759549 2.329705 2.044637 2.044618 C 2.332466 1.756789 2.718979 1.597797 3.12468 1.597797 L 11.526544 1.597797 C 11.932246 1.597797 12.3215 1.756789 12.606588 2.044618 C 12.894417 2.329705 13.056149 2.71896 13.056149 3.124661 Z M 13.056149 35.205252 " stroke="#16262e" stroke-width="1.67" stroke-opacity="1" stroke-miterlimit="4"/><path stroke-linecap="round" transform="matrix(-1.425, 0, 0, -1.425, 669.019076, 316.659674)" fill="none" stroke-linejoin="round" d="M 25.276544 35.205252 C 25.276544 35.610954 25.114811 36.000208 24.829723 36.285296 C 24.541894 36.573125 24.15264 36.732116 23.74968 36.732116 L 14.583013 36.732116 C 14.177312 36.732116 13.788057 36.573125 13.50297 36.285296 C 13.215141 36.000208 13.056149 35.610954 13.056149 35.205252 L 13.056149 3.124661 C 13.056149 2.71896 13.215141 2.329705 13.50297 2.044618 C 13.788057 1.756789 14.177312 1.597797 14.583013 1.597797 L 23.74968 1.597797 C 24.15264 1.597797 24.541894 1.756789 24.829723 2.044618 C 25.114811 2.329705 25.276544 2.71896 25.276544 3.124661 Z M 25.276544 35.205252 " stroke="#16262e" stroke-width="1.67" stroke-opacity="1" stroke-miterlimit="4"/><path stroke-linecap="round" transform="matrix(-1.425, 0, 0, -1.425, 669.019076, 316.659674)" fill="none" stroke-linejoin="round" d="M 36.732135 35.205252 C 36.732135 35.610954 36.573144 36.000208 36.285315 36.285296 C 36.000227 36.573125 35.610973 36.732116 35.205271 36.732116 L 26.803408 36.732116 C 26.397706 36.732116 26.008451 36.573125 25.723364 36.285296 C 25.435535 36.000208 25.276544 35.610954 25.276544 35.205252 L 25.276544 3.124661 C 25.276544 2.71896 25.435535 2.329705 25.723364 2.044618 C 26.008451 1.756789 26.397706 1.597797 26.803408 1.597797 L 35.205271 1.597797 C 35.610973 1.597797 36.000227 1.756789 36.285315 2.044618 C 36.573144 2.329705 36.732135 2.71896 36.732135 3.124661 Z M 36.732135 35.205252 " stroke="#16262e" stroke-width="1.67" stroke-opacity="1" stroke-miterlimit="4"/><path stroke-linecap="round" transform="matrix(-1.425, 0, 0, -1.425, 669.019076, 316.659674)" fill="none" stroke-linejoin="round" d="M 6.943211 32.148783 C 7.398255 32.148783 7.839593 32.014463 8.217882 31.765011 C 8.59343 31.512818 8.886742 31.153717 9.06218 30.734309 C 9.234878 30.317643 9.278737 29.857116 9.191018 29.410296 C 9.103299 28.966217 8.884 28.557774 8.563277 28.237051 C 8.242553 27.919068 7.83411 27.69977 7.390031 27.612051 C 6.945952 27.52159 6.485426 27.568191 6.066018 27.740888 C 5.649351 27.913586 5.290251 28.209638 5.038058 28.585187 C 4.785865 28.963476 4.651544 29.404814 4.651544 29.857116 C 4.651544 30.465669 4.892773 31.049551 5.323145 31.479923 C 5.753518 31.907555 6.3374 32.148783 6.943211 32.148783 Z M 6.943211 32.148783 " stroke="#16262e" stroke-width="1.67" stroke-opacity="1" stroke-miterlimit="4"/><path stroke-linecap="round" transform="matrix(-1.425, 0, 0, -1.425, 669.019076, 316.659674)" fill="none" stroke-linejoin="round" d="M 19.166346 32.148783 C 19.618649 32.148783 20.062728 32.014463 20.438276 31.765011 C 20.816566 31.512818 21.109877 31.153717 21.282574 30.734309 C 21.455272 30.317643 21.501873 29.857116 21.411412 29.410296 C 21.323693 28.966217 21.107136 28.557774 20.786412 28.237051 C 20.465689 27.919068 20.057246 27.69977 19.613167 27.612051 C 19.169088 27.52159 18.708561 27.568191 18.289154 27.740888 C 17.869746 27.913586 17.510645 28.209638 17.261193 28.585187 C 17.009 28.963476 16.87468 29.404814 16.87468 29.857116 C 16.87468 30.465669 17.115908 31.049551 17.546281 31.479923 C 17.973912 31.907555 18.557794 32.148783 19.166346 32.148783 Z M 19.166346 32.148783 " stroke="#16262e" stroke-width="1.67" stroke-opacity="1" stroke-miterlimit="4"/><path stroke-linecap="round" transform="matrix(-1.425, 0, 0, -1.425, 669.019076, 316.659674)" fill="none" stroke-linejoin="round" d="M 31.386741 32.148783 C 31.839043 32.148783 32.283122 32.014463 32.65867 31.765011 C 33.03696 31.512818 33.330271 31.153717 33.502969 30.734309 C 33.678407 30.317643 33.722267 29.857116 33.634548 29.410296 C 33.546828 28.966217 33.32753 28.557774 33.006806 28.237051 C 32.686083 27.919068 32.27764 27.69977 31.833561 27.612051 C 31.389482 27.52159 30.928956 27.568191 30.509548 27.740888 C 30.09014 27.913586 29.73378 28.209638 29.481587 28.585187 C 29.229394 28.963476 29.095074 29.404814 29.095074 29.857116 C 29.095074 30.465669 29.336302 31.049551 29.766675 31.479923 C 30.197048 31.907555 30.778188 32.148783 31.386741 32.148783 Z M 31.386741 32.148783 " stroke="#16262e" stroke-width="1.67" stroke-opacity="1" stroke-miterlimit="4"/><path stroke-linecap="round" transform="matrix(-1.425, 0, 0, -1.425, 669.019076, 316.659674)" fill="none" stroke-linejoin="round" d="M 9.234878 5.416328 L 9.234878 9.234859 L 4.651544 9.234859 L 4.651544 5.416328 C 4.651544 5.213477 4.733781 5.01885 4.876325 4.876306 C 5.018869 4.733762 5.213496 4.651525 5.416347 4.651525 L 8.472816 4.651525 C 8.672926 4.651525 8.867553 4.733762 9.012838 4.876306 C 9.155382 5.01885 9.234878 5.213477 9.234878 5.416328 Z M 9.234878 5.416328 " stroke="#16262e" stroke-width="1.67" stroke-opacity="1" stroke-miterlimit="4"/><path stroke-linecap="round" transform="matrix(-1.425, 0, 0, -1.425, 669.019076, 316.659674)" fill="none" stroke-linejoin="round" d="M 9.234878 9.234859 L 9.234878 22.220055 C 9.234878 22.422906 9.155382 22.617533 9.012838 22.760077 C 8.867553 22.902621 8.672926 22.984858 8.472816 22.984858 L 5.416347 22.984858 C 5.213496 22.984858 5.018869 22.902621 4.876325 22.760077 C 4.733781 22.617533 4.651544 22.422906 4.651544 22.220055 L 4.651544 9.234859 Z M 9.234878 9.234859 " stroke="#16262e" stroke-width="1.67" stroke-opacity="1" stroke-miterlimit="4"/><path stroke-linecap="round" transform="matrix(-1.425, 0, 0, -1.425, 669.019076, 316.659674)" fill="none" stroke-linejoin="round" d="M 21.458013 5.416328 L 21.458013 9.234859 L 16.87468 9.234859 L 16.87468 5.416328 C 16.87468 5.213477 16.954176 5.01885 17.096719 4.876306 C 17.242004 4.733762 17.43389 4.651525 17.636741 4.651525 L 20.69321 4.651525 C 20.896061 4.651525 21.090688 4.733762 21.233232 4.876306 C 21.375776 5.01885 21.458013 5.213477 21.458013 5.416328 Z M 21.458013 5.416328 " stroke="#16262e" stroke-width="1.67" stroke-opacity="1" stroke-miterlimit="4"/><path stroke-linecap="round" transform="matrix(-1.425, 0, 0, -1.425, 669.019076, 316.659674)" fill="none" stroke-linejoin="round" d="M 21.458013 9.234859 L 21.458013 22.220055 C 21.458013 22.422906 21.375776 22.617533 21.233232 22.760077 C 21.090688 22.902621 20.896061 22.984858 20.69321 22.984858 L 17.636741 22.984858 C 17.43389 22.984858 17.242004 22.902621 17.096719 22.760077 C 16.954176 22.617533 16.87468 22.422906 16.87468 22.220055 L 16.87468 9.234859 Z M 21.458013 9.234859 " stroke="#16262e" stroke-width="1.67" stroke-opacity="1" stroke-miterlimit="4"/><path stroke-linecap="round" transform="matrix(-1.425, 0, 0, -1.425, 669.019076, 316.659674)" fill="none" stroke-linejoin="round" d="M 33.678407 5.416328 L 33.678407 9.234859 L 29.095074 9.234859 L 29.095074 5.416328 C 29.095074 5.213477 29.17457 5.01885 29.319855 4.876306 C 29.462399 4.733762 29.657026 4.651525 29.859877 4.651525 L 32.913605 4.651525 C 33.116456 4.651525 33.311083 4.733762 33.453627 4.876306 C 33.598912 5.01885 33.678407 5.213477 33.678407 5.416328 Z M 33.678407 5.416328 " stroke="#16262e" stroke-width="1.67" stroke-opacity="1" stroke-miterlimit="4"/><path stroke-linecap="round" transform="matrix(-1.425, 0, 0, -1.425, 669.019076, 316.659674)" fill="none" stroke-linejoin="round" d="M 33.678407 9.234859 L 33.678407 22.220055 C 33.678407 22.422906 33.598912 22.617533 33.453627 22.760077 C 33.311083 22.902621 33.116456 22.984858 32.913605 22.984858 L 29.859877 22.984858 C 29.657026 22.984858 29.462399 22.902621 29.319855 22.760077 C 29.17457 22.617533 29.095074 22.422906 29.095074 22.220055 L 29.095074 9.234859 Z M 33.678407 9.234859 " stroke="#16262e" stroke-width="1.67" stroke-opacity="1" stroke-miterlimit="4"/></svg>