<svg xmlns="http://www.w3.org/2000/svg" xmlns:xlink="http://www.w3.org/1999/xlink" width="500" zoomAndPan="magnify" viewBox="0 0 375 374.999991" height="500" preserveAspectRatio="xMidYMid meet" version="1.0"><defs><clipPath id="af2ce40657"><path d="M 37.5 55.308594 L 330 55.308594 L 330 320 L 37.5 320 Z M 37.5 55.308594 " clip-rule="nonzero"/></clipPath><clipPath id="d6ab18841c"><path d="M 52.5 55.308594 L 315.292969 55.308594 C 319.269531 55.308594 323.085938 56.886719 325.898438 59.699219 C 328.710938 62.515625 330.292969 66.328125 330.292969 70.308594 L 330.292969 304.683594 C 330.292969 308.660156 328.710938 312.476562 325.898438 315.289062 C 323.085938 318.101562 319.269531 319.683594 315.292969 319.683594 L 52.5 319.683594 C 48.523438 319.683594 44.707031 318.101562 41.894531 315.289062 C 39.082031 312.476562 37.5 308.660156 37.5 304.683594 L 37.5 70.308594 C 37.5 66.328125 39.082031 62.515625 41.894531 59.699219 C 44.707031 56.886719 48.523438 55.308594 52.5 55.308594 Z M 52.5 55.308594 " clip-rule="nonzero"/></clipPath><clipPath id="8755b92271"><path d="M 198.484375 37.5 L 341.632812 37.5 L 341.632812 139.078125 L 198.484375 139.078125 Z M 198.484375 37.5 " clip-rule="nonzero"/></clipPath><clipPath id="fd4d028e75"><path d="M 0.484375 0.5 L 143.632812 0.5 L 143.632812 102.078125 L 0.484375 102.078125 Z M 0.484375 0.5 " clip-rule="nonzero"/></clipPath><clipPath id="43c942594a"><rect x="0" width="144" y="0" height="103"/></clipPath><clipPath id="dca32fec25"><path d="M 103.203125 37.5 L 339 37.5 L 339 254 L 103.203125 254 Z M 103.203125 37.5 " clip-rule="nonzero"/></clipPath></defs><g clip-path="url(#af2ce40657)"><g clip-path="url(#d6ab18841c)"><path stroke-linecap="butt" transform="matrix(0.75, 0, 0, 0.75, 37.501317, 55.307819)" fill="none" stroke-linejoin="miter" d="M 19.998247 0.00103331 L 370.388917 0.00103331 C 375.691001 0.00103331 380.779544 2.1052 384.529544 5.855201 C 388.279545 9.61041 390.38892 14.693744 390.38892 20.001036 L 390.38892 332.501076 C 390.38892 337.80316 388.279545 342.891703 384.529544 346.641703 C 380.779544 350.391704 375.691001 352.501079 370.388917 352.501079 L 19.998247 352.501079 C 14.696163 352.501079 9.607621 350.391704 5.85762 346.641703 C 2.10762 342.891703 -0.00175568 337.80316 -0.00175568 332.501076 L -0.00175568 20.001036 C -0.00175568 14.693744 2.10762 9.61041 5.85762 5.855201 C 9.607621 2.1052 14.696163 0.00103331 19.998247 0.00103331 Z M 19.998247 0.00103331 " stroke="#154854" stroke-width="60" stroke-opacity="1" stroke-miterlimit="4"/></g></g><g clip-path="url(#8755b92271)"><g transform="matrix(1, 0, 0, 1, 198, 37)"><g clip-path="url(#43c942594a)"><g clip-path="url(#fd4d028e75)"><path fill="#ffffff" d="M 0.484375 0.5 L 143.722656 0.5 L 143.722656 102.078125 L 0.484375 102.078125 Z M 0.484375 0.5 " fill-opacity="1" fill-rule="nonzero"/></g></g></g></g><g clip-path="url(#dca32fec25)"><path fill="#3c7a89" d="M 334.789062 37.613281 L 327.804688 39.226562 C 323.515625 40.507812 318.960938 42.371094 314.140625 44.8125 L 306.714844 48.914062 C 301.628906 51.9375 296.28125 55.542969 290.664062 59.726562 C 279.433594 68.097656 267.140625 78.792969 253.789062 91.808594 C 221.109375 124.554688 192.128906 160.527344 166.847656 199.726562 C 162.359375 190.277344 155.65625 179.160156 146.734375 166.382812 C 141.984375 159.945312 137.09375 155.089844 132.0625 151.820312 C 126.449219 151.144531 117.222656 155.304688 104.386719 164.300781 C 103.566406 165.539062 103.367188 166.496094 103.785156 167.175781 C 115.308594 178.953125 123.363281 188.738281 127.949219 196.53125 C 136.503906 209.949219 145.480469 228.765625 154.875 252.988281 C 155.398438 253.800781 156.058594 254.074219 156.851562 253.8125 L 187.484375 234.523438 C 188.941406 233.519531 190.335938 232.179688 191.667969 230.503906 C 207.070312 187.214844 225.4375 152.011719 246.777344 124.886719 C 253.207031 115.746094 269.058594 99.613281 294.328125 76.492188 C 304.5625 67.371094 319.140625 56.304688 338.058594 43.289062 C 339.15625 40.804688 338.066406 38.914062 334.789062 37.613281 " fill-opacity="0.996" fill-rule="nonzero"/></g></svg>