<svg xmlns="http://www.w3.org/2000/svg" xmlns:xlink="http://www.w3.org/1999/xlink" width="500" zoomAndPan="magnify" viewBox="0 0 375 374.999991" height="500" preserveAspectRatio="xMidYMid meet" version="1.0"><defs><clipPath id="d64a74a57e"><path d="M 9.257812 98.378906 L 365.742188 98.378906 L 365.742188 276.621094 L 9.257812 276.621094 Z M 9.257812 98.378906 " clip-rule="nonzero"/></clipPath><clipPath id="22950491aa"><path d="M 276.621094 98.378906 L 9.257812 98.378906 L 9.257812 276.621094 L 276.621094 276.621094 L 365.742188 187.5 Z M 276.621094 98.378906 " clip-rule="nonzero"/></clipPath><clipPath id="1a67446ad5"><path d="M 0.257812 0.378906 L 356.742188 0.378906 L 356.742188 178.621094 L 0.257812 178.621094 Z M 0.257812 0.378906 " clip-rule="nonzero"/></clipPath><clipPath id="334a054904"><path d="M 267.621094 0.378906 L 0.257812 0.378906 L 0.257812 178.621094 L 267.621094 178.621094 L 356.742188 89.5 Z M 267.621094 0.378906 " clip-rule="nonzero"/></clipPath><clipPath id="f0aacbae1b"><rect x="0" width="357" y="0" height="179"/></clipPath></defs><g clip-path="url(#d64a74a57e)"><g clip-path="url(#22950491aa)"><g transform="matrix(1, 0, 0, 1, 9, 98)"><g clip-path="url(#f0aacbae1b)"><g clip-path="url(#1a67446ad5)"><g clip-path="url(#334a054904)"><path fill="#16697a" d="M 0.257812 0.378906 L 356.742188 0.378906 L 356.742188 178.621094 L 0.257812 178.621094 Z M 0.257812 0.378906 " fill-opacity="1" fill-rule="nonzero"/></g></g></g></g></g></g></svg>