<svg xmlns="http://www.w3.org/2000/svg" viewBox="0 0 40 40" id="Taking-Pictures-Cameras--Streamline-Ultimate" height="40" width="40">
  <desc>
    Taking Pictures Cameras Streamline Icon: https://streamlinehq.com
  </desc>
  <g id="Taking-Pictures-Cameras--Streamline-Ultimate.svg">
    <path d="M29.03333333333334 12.5h-1.55a0.38333333333333336 0.38333333333333336 0 0 1 -0.33333333333333337 -0.18333333333333335 3.3333333333333335 3.3333333333333335 0 0 0 -2.9333333333333336 -1.4833333333333334H20a3.3333333333333335 3.3333333333333335 0 0 0 -2.9333333333333336 1.4833333333333334 0.4 0.4 0 0 1 -0.33333333333333337 0.18333333333333335H10.600000000000001a3.65 3.65 0 0 0 -3.5166666666666666 3.6833333333333336V18.333333333333336a1.6666666666666667 1.6666666666666667 0 1 0 3.3333333333333335 0V16.183333333333337a0.5 0.5 0 0 1 0.18333333333333335 -0.35h7.366666666666667a1.6666666666666667 1.6666666666666667 0 0 0 1.5 -0.9166666666666667c0.08333333333333334 -0.16666666666666669 0.16666666666666669 -0.35 0.25 -0.5a0.38333333333333336 0.38333333333333336 0 0 1 0.3666666666666667 -0.23333333333333336h4.066666666666666a0.43333333333333335 0.43333333333333335 0 0 1 0.3666666666666667 0.21666666666666667l0.26666666666666666 0.5333333333333333a1.6666666666666667 1.6666666666666667 0 0 0 1.4833333333333334 0.9166666666666667h2.75a0.45000000000000007 0.45000000000000007 0 0 1 0.2 0.35v11.133333333333333a0.18333333333333335 0.18333333333333335 0 0 1 -0.18333333333333335 0.18333333333333335 1.6666666666666667 1.6666666666666667 0 0 0 0 3.3333333333333335 3.5166666666666666 3.5166666666666666 0 0 0 3.5166666666666666 -3.5166666666666666V16.183333333333337a3.65 3.65 0 0 0 -3.5166666666666666 -3.6833333333333336Z" fill="#ffa62b" stroke-width="1.6667"></path>
    <path d="M36.483333333333334 1.6666666666666667H35a0.43333333333333335 0.43333333333333335 0 0 1 -0.35 -0.18333333333333335A3.3333333333333335 3.3333333333333335 0 0 0 31.666666666666668 0h-4.183333333333334a3.3333333333333335 3.3333333333333335 0 0 0 -2.9333333333333336 1.4833333333333334 0.4 0.4 0 0 1 -0.33333333333333337 0.18333333333333335h-6.166666666666667a3.65 3.65 0 0 0 -3.5166666666666666 3.6833333333333336V7.5a1.6666666666666667 1.6666666666666667 0 0 0 3.3333333333333335 0V5.3500000000000005a0.5 0.5 0 0 1 0.18333333333333335 -0.35h7.366666666666667a1.6666666666666667 1.6666666666666667 0 0 0 1.5 -0.9166666666666667l0.25 -0.5a0.38333333333333336 0.38333333333333336 0 0 1 0.3666666666666667 -0.25H31.666666666666668a0.38333333333333336 0.38333333333333336 0 0 1 0.35 0.21666666666666667 5.4 5.4 0 0 1 0.2833333333333334 0.5333333333333333 1.6666666666666667 1.6666666666666667 0 0 0 1.4833333333333334 0.9166666666666667h2.75a0.45000000000000007 0.45000000000000007 0 0 1 0.2 0.35v11.133333333333333a0.18333333333333335 0.18333333333333335 0 0 1 -0.18333333333333335 0.18333333333333335 1.6666666666666667 1.6666666666666667 0 0 0 0 3.3333333333333335A3.5166666666666666 3.5166666666666666 0 0 0 40 16.483333333333334V5.3500000000000005A3.65 3.65 0 0 0 36.483333333333334 1.6666666666666667Z" fill="#ffa62b" stroke-width="1.6667"></path>
    <path d="M10 31.666666666666668a4.166666666666667 4.166666666666667 0 1 0 8.333333333333334 0 4.166666666666667 4.166666666666667 0 1 0 -8.333333333333334 0" fill="#ffa62b" stroke-width="1.6667"></path>
    <path d="M22.31666666666667 22.683333333333334h-3.2a0.4166666666666667 0.4166666666666667 0 0 1 -0.3666666666666667 -0.23333333333333336 2.566666666666667 2.566666666666667 0 0 0 -2.45 -1.6666666666666667H12.116666666666667a2.6 2.6 0 0 0 -2.466666666666667 1.6666666666666667 0.4 0.4 0 0 1 -0.3666666666666667 0.23333333333333336h-6.666666666666667A2.6833333333333336 2.6833333333333336 0 0 0 0 25.35v11.966666666666667A2.6833333333333336 2.6833333333333336 0 0 0 2.6833333333333336 40h19.633333333333333A2.6833333333333336 2.6833333333333336 0 0 0 25 37.31666666666667v-11.966666666666667a2.6833333333333336 2.6833333333333336 0 0 0 -2.6833333333333336 -2.666666666666667ZM20 31.666666666666668a5.833333333333334 5.833333333333334 0 1 1 -5.833333333333334 -5.833333333333334A5.833333333333334 5.833333333333334 0 0 1 20 31.666666666666668Z" fill="#ffa62b" stroke-width="1.6667"></path>
  </g>
</svg>