<svg xmlns="http://www.w3.org/2000/svg" fill="none" viewBox="-1.25 -1.25 40 40" id="Play-List-1--Streamline-Plump" height="40" width="40">
  <desc>
    Play List 1 Streamline Icon: https://streamlinehq.com
  </desc>
  <g id="play-list-1--screen-television-display-player-movies-movie-tv-media-players-video-entertainment">
    <path id="Rectangle 1105" fill="#62a2ce" d="M2.7648437500000003 6.4507812499999995c0.1625 -1.9960937500000002 1.6898437499999999 -3.5234375 3.6859375 -3.6859375C8.97265625 2.56015625 12.996875 2.34375 18.75 2.34375c5.753125 0 9.77734375 0.21640625000000002 12.29921875 0.42109375000000004 1.9960937500000002 0.1625 3.5234375 1.6898437499999999 3.6859375 3.6859375C34.93984375 8.97265625 35.15625 12.996875 35.15625 18.75c0 5.753125 -0.21640625000000002 9.77734375 -0.42109375000000004 12.29921875 -0.1625 1.9960937500000002 -1.6898437499999999 3.5234375 -3.6859375 3.6859375C28.52734375 34.93984375 24.503125 35.15625 18.75 35.15625c-5.753125 0 -9.77734375 -0.21640625000000002 -12.29921875 -0.42109375000000004 -1.9960937500000002 -0.1625 -3.5234375 -1.6898437499999999 -3.6859375 -3.6859375C2.56015625 28.52734375 2.34375 24.503125 2.34375 18.75c0 -5.753125 0.21640625000000002 -9.77734375 0.42109375000000004 -12.29921875Z" stroke-width="2.5"></path>
    <path id="Intersect" fill="#ffffff" d="M35.004687499999996 10.9375H2.496875c0.0765625 -1.8320312500000002 0.1734375 -3.3203125 0.26875 -4.4867187500000005 0.16171875 -1.9960937500000002 1.6898437499999999 -3.5234375 3.6859375 -3.6859375C8.973437500000001 2.56015625 12.99765625 2.34375 18.75 2.34375c5.753125 0 9.776562499999999 0.21640625000000002 12.29921875 0.42109375000000004 1.9960937500000002 0.1625 3.5234375 1.6898437499999999 3.6859375 3.6859375 0.09453125 1.1671875 0.19140625 2.6546875 0.26875 4.4867187500000005Z" stroke-width="2.5"></path>
    <path id="Rectangle 1106" fill="#ffffff" d="M13.557031250000001 18.65078125c0.1953125 -1.3515625 1.38671875 -2.1203125 2.66015625 -1.628125 0.8937499999999999 0.34609375 2.0984375 0.88515625 3.68203125 1.7265625 1.5140624999999999 0.8046875 2.68125 1.51640625 3.5624999999999996 2.10546875 1.3734375 0.91796875 1.3734375 2.68359375 0 3.6015625000000004 -0.8812499999999999 0.5890625 -2.0484375 1.30078125 -3.5624999999999996 2.10546875 -1.5835937500000001 0.8414062499999999 -2.78828125 1.38046875 -3.68203125 1.7265625 -1.2734375 0.4921875 -2.46484375 -0.2765625 -2.66015625 -1.628125A28.11875 28.11875 0 0 1 13.28125 22.65546875c0 -1.6234374999999999 0.12734375 -2.9765625 0.27578125 -4.0046875Z" stroke-width="2.5"></path>
    <path id="Rectangle 1104" stroke="#2d6a9c" stroke-linecap="round" stroke-linejoin="round" d="M2.7648437500000003 6.4507812499999995c0.1625 -1.9960937500000002 1.6898437499999999 -3.5234375 3.6859375 -3.6859375C8.97265625 2.56015625 12.996875 2.34375 18.75 2.34375c5.753125 0 9.77734375 0.21640625000000002 12.29921875 0.42109375000000004 1.9960937500000002 0.1625 3.5234375 1.6898437499999999 3.6859375 3.6859375C34.93984375 8.97265625 35.15625 12.996875 35.15625 18.75c0 5.753125 -0.21640625000000002 9.77734375 -0.42109375000000004 12.29921875 -0.1625 1.9960937500000002 -1.6898437499999999 3.5234375 -3.6859375 3.6859375C28.52734375 34.93984375 24.503125 35.15625 18.75 35.15625c-5.753125 0 -9.77734375 -0.21640625000000002 -12.29921875 -0.42109375000000004 -1.9960937500000002 -0.1625 -3.5234375 -1.6898437499999999 -3.6859375 -3.6859375C2.56015625 28.52734375 2.34375 24.503125 2.34375 18.75c0 -5.753125 0.21640625000000002 -9.77734375 0.42109375000000004 -12.29921875Z" stroke-width="2.5"></path>
    <path id="Rectangle 128" stroke="#2d6a9c" stroke-linecap="round" stroke-linejoin="round" d="M13.557031250000001 18.6515625c0.1953125 -1.3515625 1.38671875 -2.1203125 2.66015625 -1.628125 0.8937499999999999 0.34609375 2.0984375 0.88515625 3.68203125 1.7265625 1.5140624999999999 0.8046875 2.68125 1.51640625 3.5624999999999996 2.10546875 1.3734375 0.91796875 1.3734375 2.68359375 0 3.6015625000000004 -0.8812499999999999 0.5890625 -2.0484375 1.30078125 -3.5624999999999996 2.10546875 -1.5835937500000001 0.8414062499999999 -2.78828125 1.38046875 -3.68203125 1.7265625 -1.2734375 0.4921875 -2.46484375 -0.2765625 -2.66015625 -1.628125A28.11875 28.11875 0 0 1 13.28125 22.65625c0 -1.6234374999999999 0.12734375 -2.9765625 0.27578125 -4.0046875Z" stroke-width="2.5"></path>
    <path id="Intersect_2" stroke="#2d6a9c" stroke-linecap="round" stroke-linejoin="round" d="M35.004687499999996 10.9375H2.496875" stroke-width="2.5"></path>
    <path id="Vector 167" stroke="#2d6a9c" stroke-linecap="round" stroke-linejoin="round" d="m15.85078125 2.4609375 -6.25625 8.34140625" stroke-width="2.5"></path>
    <path id="Vector 168" stroke="#2d6a9c" stroke-linecap="round" stroke-linejoin="round" d="m28.68515625 2.6390625 -6.134375 8.178906249999999" stroke-width="2.5"></path>
  </g>
</svg>