<svg xmlns="http://www.w3.org/2000/svg" fill="none" viewBox="-1.25 -1.25 40 40" id="Check-Thick--Streamline-Plump" height="40" width="40">
  <desc>
    Check Thick Streamline Icon: https://streamlinehq.com
  </desc>
  <g id="check-thick--check-form-validation-checkmark-success-add-addition-1-tick">
    <path id="Vector 7 (Stroke)" fill="#8fbffa" fill-rule="evenodd" d="M34.137499999999996 7.13671875c0.765625 1.04375 0.5953125 2.44921875 -0.1171875 3.5296874999999996 -6.66796875 10.1015625 -11.4703125 16.23828125 -14.127343749999998 19.4140625 -1.3179687500000001 1.57421875 -3.60703125 1.6898437499999999 -5.09765625 0.2765625A128.89609375 128.89609375 0 0 1 3.87109375 18.5890625c-0.9453125 -1.15859375 -1.140625 -2.79375 -0.22031249999999997 -3.97265625 0.8 -1.0250000000000001 1.71328125 -1.9046875 2.5390625 -2.6015625 1.3695312499999999 -1.15625 3.346875 -0.8937499999999999 4.578125 0.40937500000000004 3.7992187500000005 4.025 6.0890625 6.8359375 6.0890625 6.8359375s3.7640624999999996 -5.5 9.803125 -13.9609375c0.93515625 -1.3101562500000001 2.6015625 -1.9203125 4.0093749999999995 -1.13984375 1.1304687500000001 0.6273437500000001 2.44453125 1.58203125 3.46796875 2.9765625Z" clip-rule="evenodd" stroke-width="2.5"></path>
    <path id="Vector 7 (Stroke)_2" fill-rule="evenodd" stroke="#2859c5" stroke-linecap="round" stroke-linejoin="round" d="M34.137499999999996 7.13671875c0.765625 1.04375 0.5953125 2.44921875 -0.1171875 3.5296874999999996 -6.66796875 10.1015625 -11.4703125 16.23828125 -14.127343749999998 19.4140625 -1.3179687500000001 1.57421875 -3.60703125 1.6898437499999999 -5.09765625 0.2765625A128.89609375 128.89609375 0 0 1 3.87109375 18.5890625c-0.9453125 -1.15859375 -1.140625 -2.79375 -0.22031249999999997 -3.97265625 0.8 -1.0250000000000001 1.71328125 -1.9046875 2.5390625 -2.6015625 1.3695312499999999 -1.15625 3.346875 -0.8937499999999999 4.578125 0.40937500000000004 3.7992187500000005 4.025 6.0890625 6.8359375 6.0890625 6.8359375s3.7640624999999996 -5.5 9.803125 -13.9609375c0.93515625 -1.3101562500000001 2.6015625 -1.9203125 4.0093749999999995 -1.13984375 1.1304687500000001 0.6273437500000001 2.44453125 1.58203125 3.46796875 2.9765625Z" clip-rule="evenodd" stroke-width="2.5"></path>
  </g>
</svg>