<svg xmlns="http://www.w3.org/2000/svg" fill="none" viewBox="-1.25 -1.25 40 40" id="No-Poverty--Streamline-Plump" height="40" width="40">
  <desc>
    No Poverty Streamline Icon: https://streamlinehq.com
  </desc>
  <g id="no-poverty">
    <path id="Ellipse 138" fill="#62a2ce" d="M31.25 7.03125c0 2.588828125 -2.098671875 4.6875 -4.6875 4.6875s-4.6875 -2.098671875 -4.6875 -4.6875c0 -2.5888359375 2.098671875 -4.6875 4.6875 -4.6875s4.6875 2.0986640625 4.6875 4.6875Z" stroke-width="2.5"></path>
    <path id="Ellipse 139" fill="#62a2ce" d="M6.25 7.03125c0 2.588828125 2.098671875 4.6875 4.6875 4.6875s4.6875 -2.098671875 4.6875 -4.6875c0 -2.5888359375 -2.098671875 -4.6875 -4.6875 -4.6875S6.25 4.442414062499999 6.25 7.03125Z" stroke-width="2.5"></path>
    <path id="Ellipse 140" fill="#ffffff" d="M14.0625 13.28125c0 2.588828125 2.098671875 4.6875 4.6875 4.6875s4.6875 -2.098671875 4.6875 -4.6875 -2.098671875 -4.6875 -4.6875 -4.6875 -4.6875 2.098671875 -4.6875 4.6875Z" stroke-width="2.5"></path>
    <path id="Union" fill="#ffffff" d="M22.5434375 18.06046875c1.56296875 0.083828125 2.802421875 1.2171093750000002 3.0764062500000002 2.758203125 0.25203125 1.417578125 0.54796875 3.3460156249999997 0.76421875 5.562421875 0.120546875 1.23515625 -0.785078125 2.307421875 -2.023984375 2.3792187499999997 -0.357890625 0.020781249999999998 -0.759375 0.041171875 -1.20453125 0.05984375l-0.31 4.1984375c-0.07648437500000001 1.036015625 -0.8271875 1.8975 -1.8598437499999998 2.01078125 -0.6396875 0.070234375 -1.411484375 0.126875 -2.235546875 0.126875s-1.5957812500000002 -0.05664062499999999 -2.2354687500000003 -0.126875c-1.03265625 -0.11328124999999999 -1.783359375 -0.9747656250000001 -1.8598437499999998 -2.01078125l-0.310078125 -4.1984375c-0.445078125 -0.018671875 -0.846484375 -0.0390625 -1.204375 -0.05984375 -1.23890625 -0.07171875000000001 -2.144375 -1.1440625 -2.02390625 -2.3791406250000002 0.21625 -2.2165625 0.512265625 -4.1450000000000005 0.764296875 -5.56265625 0.273984375 -1.541015625 1.5132812500000001 -2.67421875 3.0762500000000004 -2.758046875C15.922031249999998 18.008750000000003 17.1765625 17.96875 18.75 17.96875c1.5735937500000001 0 2.82828125 0.04 3.7934375 0.09171875Z" stroke-width="2.5"></path>
    <path id="Subtract" fill="#62a2ce" d="M14.0625 13.281171875c0 2.588828125 2.098671875 4.6875 4.6875 4.6875 -1.5734374999999998 0 -2.828203125 0.039921875 -3.793203125 0.09171875 -1.562890625 0.083828125 -2.8021875 1.21703125 -3.076171875 2.758046875 -0.25210937499999997 1.41765625 -0.548046875 3.34609375 -0.764296875 5.56265625 -0.120546875 1.235078125 0.7849999999999999 2.30734375 2.02390625 2.3791406250000002 0.357890625 0.020703125 0.759296875 0.04109375 1.204375 0.05984375l0.31 4.198359375c0.029921875 0.40421874999999996 0.16234375 0.7818749999999999 0.374140625 1.098828125 -0.331796875 0.24296875 -0.665546875 0.4734375 -1.008828125 0.6581250000000001 -0.27515625 0.14796875 -0.5809375 0.24445312500000002 -0.91 0.27703125 -0.605703125 0.06 -1.3215625 0.10375 -2.1213281250000002 0.10375 -0.776015625 0 -1.473125 -0.041171875 -2.0671874999999997 -0.0984375 -1.3097109375 -0.12617187500000002 -2.2476484375 -1.26140625 -2.3617578125 -2.628671875l-0.6318671875 -7.570703125c-0.5310546875 -0.029531250000000002 -1.0081328125 -0.073984375 -1.4285625 -0.125234375 -1.3359453125 -0.16289062499999998 -2.2286875 -1.386796875 -2.1507421874999997 -2.7878125 0.13797656249999998 -2.47984375 0.46459374999999997 -4.79546875 0.7713984375 -6.5509375 0.34289843750000004 -1.961875 1.91609375 -3.384453125 3.8249375000000003 -3.485234375 2.454953125 -0.1296875 4.60409375 -0.17109375 7.38221875 -0.184296875 -0.171328125 0.486953125 -0.26453125 1.01078125 -0.26453125 1.556328125Z" stroke-width="2.5"></path>
    <path id="Subtract_2" fill="#62a2ce" d="M23.17296875 11.72484375c0.171328125 0.486953125 0.26453125 1.01078125 0.26453125 1.556328125 0 2.588828125 -2.098671875 4.6875 -4.6875 4.6875 1.5735937500000001 0 2.828125 0.039921875 3.79328125 0.09171875 1.56296875 0.083828125 2.8023437500000004 1.2171093750000002 3.076328125 2.758203125 0.25210937499999997 1.417578125 0.548046875 3.3459375 0.764296875 5.562421875 0.12046875 1.23515625 -0.785078125 2.307421875 -2.023984375 2.3792187499999997 -0.357890625 0.020703125 -0.759375 0.04109375 -1.20453125 0.059765624999999996l-0.31 4.198515625000001c-0.02984375 0.404140625 -0.16234375 0.781796875 -0.374140625 1.0987500000000001 0.331796875 0.24296875 0.665546875 0.4734375 1.008828125 0.6581250000000001 0.27515625 0.14796875 0.5809375 0.24445312500000002 0.91 0.27703125 0.605703125 0.06 1.3215625 0.10375 2.1213281250000002 0.10375 0.776015625 0 1.473125 -0.041171875 2.0671874999999997 -0.0984375 1.3096875 -0.12617187500000002 2.24765625 -1.26140625 2.36171875 -2.628671875l0.631875 -7.570703125c0.5310937499999999 -0.029531250000000002 1.008203125 -0.073984375 1.42859375 -0.125234375 1.3359375 -0.16289062499999998 2.228671875 -1.386796875 2.1507031249999997 -2.7878125 -0.13796875 -2.47984375 -0.46453125 -4.79546875 -0.7713281249999999 -6.5509375 -0.34296875 -1.961875 -1.91609375 -3.384453125 -3.8249999999999997 -3.485234375 -2.454921875 -0.1296875 -4.6040625 -0.17109375 -7.3821875 -0.184296875Z" stroke-width="2.5"></path>
    <path id="Ellipse 135" stroke="#2d6a9c" stroke-linejoin="round" d="M21.875 7.03125a4.6875 4.6875 0 1 0 9.375 0 4.6875 4.6875 0 1 0 -9.375 0" stroke-width="2.5"></path>
    <path id="Ellipse 136" stroke="#2d6a9c" stroke-linejoin="round" d="M15.625 7.03125A4.6875 4.6875 0 1 1 6.25 7.03125a4.6875 4.6875 0 1 1 9.375 0" stroke-width="2.5"></path>
    <path id="Ellipse 137" stroke="#2d6a9c" stroke-linejoin="round" d="M23.4375 13.28125a4.6875 4.6875 0 1 1 -9.375 0 4.6875 4.6875 0 1 1 9.375 0" stroke-width="2.5"></path>
    <path id="Subtract_3" stroke="#2d6a9c" stroke-linecap="round" stroke-linejoin="round" d="M14.32703125 11.72484375c-2.778125 0.013203125 -4.9272656249999995 0.054609375 -7.38221875 0.184296875 -1.90884375 0.10078125 -3.4820390625 1.523359375 -3.8249375000000003 3.485234375 -0.3068046875 1.75546875 -0.6334218749999999 4.07109375 -0.7713984375 6.5509375 -0.0779453125 1.4010156249999999 0.814796875 2.624921875 2.1507421874999997 2.7878125 0.42042968750000004 0.051250000000000004 0.8975078125000001 0.095703125 1.4285625 0.125234375l0.6318671875 7.570703125c0.114109375 1.367265625 1.052046875 2.5025 2.3617578125 2.628671875 0.5940624999999999 0.057265625 1.291171875 0.0984375 2.0671874999999997 0.0984375 0.799765625 0 1.515625 -0.043750000000000004 2.1213281250000002 -0.10375 0.761328125 -0.075390625 1.3978906249999998 -0.49281250000000004 1.8193750000000002 -1.0990625" stroke-width="2.5"></path>
    <path id="Subtract_4" stroke="#2d6a9c" stroke-linecap="round" stroke-linejoin="round" d="M22.57078125 33.953359375c0.42148437499999997 0.6062500000000001 1.058046875 1.02375 1.819296875 1.0990625 0.605703125 0.06 1.321640625 0.10375 2.1214062499999997 0.10375 0.776015625 0 1.473125 -0.041171875 2.0671874999999997 -0.0984375 1.3096875 -0.12617187500000002 2.24765625 -1.26140625 2.36171875 -2.628671875l0.631875 -7.570703125c0.5310937499999999 -0.029531250000000002 1.008125 -0.073984375 1.42859375 -0.125234375 1.3359375 -0.16289062499999998 2.228671875 -1.386796875 2.1507031249999997 -2.7878125 -0.13796875 -2.47984375 -0.46453125 -4.79546875 -0.7713281249999999 -6.5509375 -0.34296875 -1.961875 -1.916171875 -3.384453125 -3.8249999999999997 -3.485234375 -2.454921875 -0.1296875 -4.604140625 -0.17109375 -7.3821875 -0.184296875" stroke-width="2.5"></path>
    <path id="Union_2" stroke="#2d6a9c" stroke-linejoin="round" d="M22.5434375 18.06046875c1.56296875 0.083828125 2.802421875 1.2171093750000002 3.0764062500000002 2.758203125 0.25203125 1.417578125 0.54796875 3.3460156249999997 0.76421875 5.562421875 0.120546875 1.23515625 -0.785078125 2.307421875 -2.023984375 2.3792187499999997 -0.357890625 0.020781249999999998 -0.759375 0.041171875 -1.20453125 0.05984375l-0.31 4.1984375c-0.07648437500000001 1.036015625 -0.8271875 1.8975 -1.8598437499999998 2.01078125 -0.6396875 0.070234375 -1.411484375 0.126875 -2.235546875 0.126875s-1.5957812500000002 -0.05664062499999999 -2.2354687500000003 -0.126875c-1.03265625 -0.11328124999999999 -1.783359375 -0.9747656250000001 -1.8598437499999998 -2.01078125l-0.310078125 -4.1984375c-0.445078125 -0.018671875 -0.846484375 -0.0390625 -1.204375 -0.05984375 -1.23890625 -0.07171875000000001 -2.144375 -1.1440625 -2.02390625 -2.3791406250000002 0.21625 -2.2165625 0.512265625 -4.1450000000000005 0.764296875 -5.56265625 0.273984375 -1.541015625 1.5132812500000001 -2.67421875 3.0762500000000004 -2.758046875C15.922031249999998 18.008750000000003 17.1765625 17.96875 18.75 17.96875c1.5735937500000001 0 2.82828125 0.04 3.7934375 0.09171875Z" stroke-width="2.5"></path>
  </g>
</svg>