<svg xmlns="http://www.w3.org/2000/svg" fill="none" viewBox="-1.25 -1.25 40 40" id="File-Check-Alternate--Streamline-Plump" height="40" width="40">
  <desc>
    File Check Alternate Streamline Icon: https://streamlinehq.com
  </desc>
  <g id="file-check-alternate--file-common-check">
    <path id="Subtract" fill="#62a2ce" d="M30.93984375 6.479687500000001c-3.08125 -3.0203125 -5.21328125 -3.86953125 -5.875 -4.0765625A126.42500000000001 126.42500000000001 0 0 0 21.09375 2.34375c-4.89375 0 -8.254687500000001 0.25 -10.35 0.48984375 -1.71953125 0.196875 -3.0078125 1.48671875 -3.196875 3.2070312500000004 -0.18046875 1.6375000000000002 -0.3703125 4.0796875 -0.4609375 7.5414062500000005 -0.0078125 0.2796875 0.27499999999999997 0.4765625 0.5390625 0.38515625A12.48203125 12.48203125 0 0 1 11.71875 13.28125c6.9039062499999995 0 12.5 5.5960937500000005 12.5 12.5 0 2.6625 -0.8328125000000001 5.13125 -2.2515625 7.1585937500000005 -0.1875 0.26875 -0.00078125 0.6515624999999999 0.32734375 0.6484375 4.2484375 -0.03671875 7.2296875 -0.265625 9.1484375 -0.484375 1.7203125 -0.196875 3.0078125 -1.48671875 3.19765625 -3.2070312500000004 0.24921875000000002 -2.2578125 0.515625 -6.047656249999999 0.515625 -11.928125000000001 0 -2.2453125000000003 -0.0390625 -4.18515625 -0.1015625 -5.8515625 -0.2734375 -0.765625 -1.2078125 -2.7875 -4.11484375 -5.6375Z" stroke-width="2.5"></path>
    <path id="Intersect" fill="#ffffff" d="M25.070312500000004 2.4054687500000003c0.66640625 0.20859375000000002 2.796875 1.0609375 5.87109375 4.075 2.89140625 2.83515625 3.83203125 4.85078125 4.1109374999999995 5.625l0.013281250000000001 0.36250000000000004c-1.6304687500000001 0.24296875 -4.5625 0.05703125 -6.7875000000000005 -0.14921875a3.64375 3.64375 0 0 1 -3.3031249999999996 -3.2890625c-0.209375 -2.18984375 -0.39609375 -5.053125 -0.14140624999999998 -6.632031250000001l0.23671875 0.0078125Z" stroke-width="2.5"></path>
    <path id="Ellipse 19" fill="#ffffff" d="M21.09375 25.78125c0 5.1773437499999995 -4.1976562500000005 9.375 -9.375 9.375S2.34375 30.958593750000002 2.34375 25.78125s4.1976562500000005 -9.375 9.375 -9.375 9.375 4.1976562500000005 9.375 9.375Z" stroke-width="2.5"></path>
    <path id="Subtract_2" stroke="#2d6a9c" stroke-linecap="round" stroke-linejoin="round" d="M22.765625 33.58359375c3.99921875 -0.04921875 6.8304687500000005 -0.26875 8.678125 -0.4796875 1.7187500000000002 -0.196875 3.0078125 -1.48671875 3.196875 -3.2070312500000004 0.24921875000000002 -2.2578125 0.515625 -6.047656249999999 0.515625 -11.928125000000001 0 -2.2468749999999997 -0.0390625 -4.18828125 -0.1015625 -5.85625 -0.27421874999999996 -0.7671875 -1.2109375 -2.7875 -4.1140625 -5.6328125 -3.0789062499999997 -3.01875 -5.2109375 -3.86875 -5.87421875 -4.0757812499999995A126.40312499999999 126.40312499999999 0 0 0 21.09375 2.34375c-4.89375 0 -8.254687500000001 0.25 -10.35 0.48984375 -1.71953125 0.196875 -3.0078125 1.48671875 -3.196875 3.2070312500000004 -0.17578125 1.5890624999999998 -0.359375 3.9375 -0.45312499999999994 7.2406250000000005" stroke-width="2.5"></path>
    <path id="Intersect_2" stroke="#2d6a9c" stroke-linecap="round" stroke-linejoin="round" d="M35.065625 12.46875c-1.6304687500000001 0.2421875 -4.5625 0.056249999999999994 -6.7875000000000005 -0.15a3.64375 3.64375 0 0 1 -3.3031249999999996 -3.2890625c-0.21015625000000002 -2.18984375 -0.39609375 -5.053125 -0.14140624999999998 -6.632031250000001" stroke-width="2.5"></path>
    <path id="Ellipse 18" stroke="#2d6a9c" stroke-linecap="round" stroke-linejoin="round" d="M2.34375 25.78125a9.375 9.375 0 1 0 18.75 0 9.375 9.375 0 1 0 -18.75 0" stroke-width="2.5"></path>
    <path id="Vector 972" stroke="#2d6a9c" stroke-linecap="round" stroke-linejoin="round" d="m15.625 22.65625 -4.5953124999999995 6.25L7.8125 25.260156249999998" stroke-width="2.5"></path>
  </g>
</svg>