<svg xmlns="http://www.w3.org/2000/svg" fill="none" viewBox="-1.25 -1.25 40 40" id="Notification-Alert--Streamline-Plump" height="40" width="40">
  <desc>
    Notification Alert Streamline Icon: https://streamlinehq.com
  </desc>
  <g id="notification-alert--android-phone-mobile-device-smartphone-iphone-alert">
    <path id="Subtract" fill="#8fbffa" d="M17.578125 2.40078125c0.34375 0.01171875 0.5078125 0.43750000000000006 0.2765625 0.69375A11.675 11.675 0 0 0 14.84375 10.9375c0 6.2015625 4.81640625 11.27734375 10.9125 11.69140625 -0.05 3.7679687500000005 -0.1671875 6.5570312500000005 -0.27890624999999997 8.4703125 -0.11484375 1.96875 -1.54140625 3.5390625 -3.50546875 3.7273437499999997C20.16328125 35 17.56015625 35.15625 14.0625 35.15625s-6.1015625 -0.15625 -7.909375000000001 -0.32968749999999997c-1.9640624999999998 -0.1875 -3.390625 -1.7578125 -3.50546875 -3.7273437499999997C2.5 28.580468749999998 2.34375 24.54140625 2.34375 18.75s0.15625 -9.83046875 0.30390625 -12.34921875c0.11484375 -1.96875 1.54140625 -3.5390625 3.50546875 -3.7273437499999997C7.96171875 2.5 10.56484375 2.34375 14.0625 2.34375c1.2921874999999998 0 2.4625 0.02109375 3.515625 0.05703125Z" stroke-width="2.5"></path>
    <path id="Subtract_2" fill="#ffffff" d="M17.578125 2.40078125c0.34375 0.01171875 0.5078125 0.43750000000000006 0.2765625 0.69375a11.7125 11.7125 0 0 0 -2.34375 3.93671875h-3.28515625a2.34375 2.34375 0 0 1 -2.32578125 -2.053125l-0.3171875 -2.5390625C10.871875000000001 2.38046875 12.36171875 2.34375 14.0625 2.34375c1.2921874999999998 0 2.4625 0.02109375 3.515625 0.05703125Z" stroke-width="2.5"></path>
    <path id="Ellipse 20" fill="#ffffff" d="M17.96875 10.9375a8.59375 8.59375 0 1 0 17.1875 0 8.59375 8.59375 0 1 0 -17.1875 0" stroke-width="2.5"></path>
    <path id="Rectangle 1095" stroke="#2859c5" stroke-linecap="round" stroke-linejoin="round" d="M25.74453125 23.4375c-0.05468750000000001 3.36171875 -0.1640625 5.8890625000000005 -0.2671875 7.6625 -0.11484375 1.96875 -1.54140625 3.5390625 -3.50546875 3.7265624999999996C20.16328125 35 17.56015625 35.15625 14.0625 35.15625s-6.1015625 -0.15625 -7.909375000000001 -0.32968749999999997c-1.9640624999999998 -0.1875 -3.390625 -1.7578125 -3.50546875 -3.7273437499999997C2.5 28.580468749999998 2.34375 24.54140625 2.34375 18.75s0.15625 -9.83046875 0.30390625 -12.34921875c0.11484375 -1.96875 1.54140625 -3.5390625 3.50546875 -3.7273437499999997C7.96171875 2.5 10.56484375 2.34375 14.0625 2.34375c1.134375 0 2.175 0.01640625 3.125 0.04453125" stroke-width="2.5"></path>
    <path id="Intersect" stroke="#2859c5" stroke-linecap="round" stroke-linejoin="round" d="m9.5828125 2.4390625 0.3171875 2.5390625A2.34375 2.34375 0 0 0 12.225781249999999 7.03125H14.84375" stroke-width="2.5"></path>
    <path id="Vector 1363" stroke="#2859c5" stroke-linecap="round" stroke-linejoin="round" d="M12.5 30.46875h3.125" stroke-width="2.5"></path>
    <path id="Ellipse 19" stroke="#2859c5" stroke-linejoin="round" d="M17.96875 10.9375a8.59375 8.59375 0 1 0 17.1875 0 8.59375 8.59375 0 1 0 -17.1875 0" stroke-width="2.5"></path>
    <path id="Vector 1192" stroke="#2859c5" stroke-linecap="round" stroke-linejoin="round" d="M26.5625 14.0625v0.78125" stroke-width="2.5"></path>
    <path id="Vector 1193" stroke="#2859c5" stroke-linecap="round" stroke-linejoin="round" d="M26.5625 10.9375V7.03125" stroke-width="2.5"></path>
  </g>
</svg>