<svg xmlns="http://www.w3.org/2000/svg" fill="none" viewBox="-1.25 -1.25 40 40" id="User-Protection-Check--Streamline-Plump" height="40" width="40">
  <desc>
    User Protection Check Streamline Icon: https://streamlinehq.com
  </desc>
  <g id="user-protection-check--shield-secure-security-person-check-protection">
    <path id="Subtract" fill="#62a2ce" d="M22.65625 10.9375a8.59375 8.59375 0 0 1 -4.72890625 7.67734375c0.25546875 0.08828125 0.50625 0.18515625 0.75234375 0.28984375 -1.0179687499999999 1.078125 -1.59375 2.49921875 -1.7164062500000001 3.8968750000000005A43.29921875 43.29921875 0 0 0 16.796875 26.5625c0 1.3203125 0.19453125 2.6265625 0.5703125 3.87421875A158.59375 158.59375 0 0 1 14.0625 30.46875c-5.1117187500000005 0 -8.0140625 -0.203125 -9.65078125 -0.4140625 -1.3445312500000002 -0.17500000000000002 -2.12109375 -1.26484375 -1.87265625 -2.59765625 0.76953125 -4.125 3.7390624999999997 -7.4859375 7.6585937500000005 -8.8421875A8.59375 8.59375 0 0 1 5.46875 10.9375C5.46875 6.19140625 9.31640625 2.34375 14.0625 2.34375s8.59375 3.84765625 8.59375 8.59375Z" stroke-width="2.5"></path>
    <path id="Rectangle 113" fill="#ffffff" d="M20.46484375 23.109375c0.1140625 -1.290625 0.9164062500000001 -2.3203125 2.19921875 -2.5015625C23.7875 20.44921875 25.5125 20.3125 28.125 20.3125c2.6125 0 4.3374999999999995 0.13671875 5.4609375 0.2953125 1.2828125 0.18125000000000002 2.0859375 1.2109375 2.1984375 2.5015625A39.546875 39.546875 0 0 1 35.9375 26.5625c0 3.5265625000000003 -1.86171875 6.8265625 -4.996875 8.440625C29.892968749999998 35.5421875 28.8703125 35.9375 28.125 35.9375c-0.7453124999999999 0 -1.7679687499999999 -0.3953125 -2.8156250000000003 -0.934375C22.173437500000002 33.3890625 20.3125 30.0890625 20.3125 26.5625c0 -1.3343749999999999 0.07109375 -2.52578125 0.15234375 -3.453125Z" stroke-width="2.5"></path>
    <path id="Rectangle 112" stroke="#2d6a9c" stroke-linecap="round" stroke-linejoin="round" d="M20.46484375 23.109375c0.1140625 -1.290625 0.9164062500000001 -2.3203125 2.19921875 -2.5015625C23.7875 20.44921875 25.5125 20.3125 28.125 20.3125c2.6125 0 4.3374999999999995 0.13671875 5.4609375 0.2953125 1.2828125 0.18125000000000002 2.0859375 1.2109375 2.1984375 2.5015625A39.546875 39.546875 0 0 1 35.9375 26.5625c0 3.5265625000000003 -1.86171875 6.8265625 -4.996875 8.440625C29.892968749999998 35.5421875 28.8703125 35.9375 28.125 35.9375c-0.7453124999999999 0 -1.7679687499999999 -0.3953125 -2.8156250000000003 -0.934375C22.173437500000002 33.3890625 20.3125 30.0890625 20.3125 26.5625c0 -1.3343749999999999 0.07109375 -2.52578125 0.15234375 -3.453125Z" stroke-width="2.5"></path>
    <path id="Vector 993" stroke="#2d6a9c" stroke-linecap="round" stroke-linejoin="round" d="m25.390625 27.161718750000002 2.5734375 2.91640625 3.6765625 -5.46875" stroke-width="2.5"></path>
    <path id="Union" stroke="#2d6a9c" stroke-linecap="round" stroke-linejoin="round" d="M17.92734375 18.614843750000002A8.59375 8.59375 0 0 0 22.65625 10.9375c0 -4.74609375 -3.84765625 -8.59375 -8.59375 -8.59375S5.46875 6.19140625 5.46875 10.9375a8.59375 8.59375 0 0 0 4.72890625 7.67734375c-3.9195312500000004 1.35625 -6.8890625 4.7171875000000005 -7.6585937500000005 8.84296875 -0.2484375 1.3328125 0.52734375 2.421875 1.87265625 2.59609375C6.0484375 30.265625 8.95078125 30.46875 14.0625 30.46875c0.83984375 0 1.6195312499999999 -0.0054687500000000005 2.34375 -0.015625" stroke-width="2.5"></path>
  </g>
</svg>