<svg xmlns="http://www.w3.org/2000/svg" fill="none" viewBox="-1.25 -1.25 40 40" id="Calendar-Mark--Streamline-Plump" height="40" width="40">
  <desc>
    Calendar Mark Streamline Icon: https://streamlinehq.com
  </desc>
  <g id="calendar-mark--calendar-date-day-month-mark">
    <path id="Rectangle 1097" fill="#ffffff" d="M3.01484375 31.228906249999998c0.24609375 1.7156250000000002 1.55703125 3.00859375 3.2750000000000004 3.2375000000000003 2.4453125 0.3265625 6.546875000000001 0.70234375 12.46015625 0.70234375 5.9125 0 10.0140625 -0.37578125 12.46015625 -0.70234375 1.7179687499999998 -0.22890624999999998 3.02890625 -1.5218749999999999 3.2750000000000004 -3.2375000000000003 0.31875 -2.221875 0.67109375 -5.7562500000000005 0.67109375 -10.51328125 0 -4.7578125 -0.35234375 -8.2921875 -0.67109375 -10.5140625 -0.24609375 -1.7156250000000002 -1.55703125 -3.0078125 -3.2750000000000004 -3.2375000000000003 -2.4453125 -0.32578124999999997 -6.546875000000001 -0.7015625 -12.46015625 -0.7015625 -5.9125 0 -10.0140625 0.375 -12.46015625 0.7015625 -1.7179687499999998 0.22890624999999998 -3.02890625 1.5218749999999999 -3.2750000000000004 3.2375000000000003C2.69609375 12.423437499999999 2.34375 15.9578125 2.34375 20.715625c0 4.757031250000001 0.35234375 8.29140625 0.67109375 10.51328125Z" stroke-width="2.5"></path>
    <path id="Subtract" stroke="#2d6a9c" stroke-linecap="round" stroke-linejoin="round" d="M8.59609375 6.7015625c-0.88828125 0.0859375 -1.65625 0.17578125 -2.30625 0.2625 -1.7179687499999998 0.22890624999999998 -3.02890625 1.5218749999999999 -3.2750000000000004 3.2375000000000003C2.69609375 12.423437499999999 2.34375 15.95859375 2.34375 20.715625c0 4.7578125 0.35234375 8.2921875 0.67109375 10.5140625 0.24609375 1.7156250000000002 1.55703125 3.0078125 3.2750000000000004 3.2375000000000003 2.4453125 0.32578124999999997 6.546875000000001 0.7015625 12.46015625 0.7015625 5.9125 0 10.0140625 -0.37578125 12.46015625 -0.7015625 1.7179687499999998 -0.2296875 3.02890625 -1.5218749999999999 3.2750000000000004 -3.2375000000000003 0.31875 -2.221875 0.67109375 -5.75703125 0.67109375 -10.5140625 0 -4.7578125 -0.35234375 -8.2921875 -0.67109375 -10.5140625 -0.24609375 -1.7156250000000002 -1.55703125 -3.0078125 -3.2750000000000004 -3.2375000000000003a64.19765625 64.19765625 0 0 0 -2.30625 -0.2625" stroke-width="2.5"></path>
    <path id="Subtract_2" stroke="#2d6a9c" stroke-linecap="round" stroke-linejoin="round" d="M22.65625 6.3203125a128.15390625 128.15390625 0 0 0 -3.90625 -0.057812499999999996c-1.403125 0 -2.7046875000000004 0.02109375 -3.90625 0.057812499999999996" stroke-width="2.5"></path>
    <path id="Vector 1380" stroke="#2d6a9c" stroke-linecap="round" stroke-linejoin="round" d="M17.1875 19.53125h3.125" stroke-width="2.5"></path>
    <path id="Vector 1381" stroke="#2d6a9c" stroke-linecap="round" stroke-linejoin="round" d="M25 19.53125h3.125" stroke-width="2.5"></path>
    <path id="Vector 1382" stroke="#2d6a9c" stroke-linecap="round" stroke-linejoin="round" d="M12.5 19.53125h-3.125" stroke-width="2.5"></path>
    <path id="Vector 1383" stroke="#2d6a9c" stroke-linecap="round" stroke-linejoin="round" d="M17.1875 27.34375h3.125" stroke-width="2.5"></path>
    <path id="Vector 1384" stroke="#2d6a9c" stroke-linecap="round" stroke-linejoin="round" d="M25 27.34375h3.125" stroke-width="2.5"></path>
    <path id="Vector 1385" stroke="#2d6a9c" stroke-linecap="round" stroke-linejoin="round" d="M12.5 27.34375h-3.125" stroke-width="2.5"></path>
    <path id="Vector" fill="#62a2ce" d="M8.60390625 7.2421875c0.03359375 1.625 1.10078125 2.8859375 2.72578125 2.9109375a25.7625 25.7625 0 0 0 0.778125 0c1.625 -0.025 2.6921875 -1.2859375 2.72578125 -2.9109375a47.8609375 47.8609375 0 0 0 0 -1.984375c-0.03359375 -1.625 -1.10078125 -2.8859375 -2.72578125 -2.9109375a25.346875 25.346875 0 0 0 -0.778125 0c-1.625 0.025 -2.6921875 1.2859375 -2.72578125 2.9109375a47.8609375 47.8609375 0 0 0 0 1.984375Z" stroke-width="2.5"></path>
    <path id="Vector_2" fill="#62a2ce" d="M22.66640625 7.2421875c0.03359375 1.625 1.10078125 2.8859375 2.72578125 2.9109375a25.7625 25.7625 0 0 0 0.778125 0c1.625 -0.025 2.6921875 -1.2859375 2.72578125 -2.9109375a47.8609375 47.8609375 0 0 0 0 -1.984375c-0.03359375 -1.625 -1.10078125 -2.8859375 -2.72578125 -2.9109375a25.346875 25.346875 0 0 0 -0.778125 0c-1.625 0.025 -2.6921875 1.2859375 -2.72578125 2.9109375a47.8609375 47.8609375 0 0 0 0 1.984375Z" stroke-width="2.5"></path>
    <path id="Vector_3" stroke="#2d6a9c" stroke-linecap="round" stroke-linejoin="round" d="M8.60390625 7.2421875c0.03359375 1.625 1.10078125 2.8859375 2.72578125 2.9109375a25.7625 25.7625 0 0 0 0.778125 0c1.625 -0.025 2.6921875 -1.2859375 2.72578125 -2.9109375a47.8609375 47.8609375 0 0 0 0 -1.984375c-0.03359375 -1.625 -1.10078125 -2.8859375 -2.72578125 -2.9109375a25.346875 25.346875 0 0 0 -0.778125 0c-1.625 0.025 -2.6921875 1.2859375 -2.72578125 2.9109375a47.8609375 47.8609375 0 0 0 0 1.984375Z" stroke-width="2.5"></path>
    <path id="Vector_4" stroke="#2d6a9c" stroke-linecap="round" stroke-linejoin="round" d="M22.66640625 7.2421875c0.03359375 1.625 1.10078125 2.8859375 2.72578125 2.9109375a25.7625 25.7625 0 0 0 0.778125 0c1.625 -0.025 2.6921875 -1.2859375 2.72578125 -2.9109375a47.8609375 47.8609375 0 0 0 0 -1.984375c-0.03359375 -1.625 -1.10078125 -2.8859375 -2.72578125 -2.9109375a25.346875 25.346875 0 0 0 -0.778125 0c-1.625 0.025 -2.6921875 1.2859375 -2.72578125 2.9109375a47.8609375 47.8609375 0 0 0 0 1.984375Z" stroke-width="2.5"></path>
  </g>
</svg>