<svg xmlns="http://www.w3.org/2000/svg" fill="none" viewBox="-1.25 -1.25 40 40" id="Computer-Pc-Desktop--Streamline-Plump" height="40" width="40">
  <desc>
    Computer Pc Desktop Streamline Icon: https://streamlinehq.com
  </desc>
  <g id="computer-pc-desktop--screen-desktop-monitor-device-electronics-display-pc-computer">
    <path id="Subtract" fill="#62a2ce" d="M16.6546875 6.29609375c0.09062500000000001 -1.91796875 1.421875 -3.48203125 3.3312500000000003 -3.68203125C21.39609375 2.465625 23.31015625 2.34375 25.78125 2.34375c2.47265625 0 4.3859375 0.121875 5.7953125000000005 0.27031249999999996 1.909375 0.2 3.24140625 1.7640625 3.3320312499999996 3.68203125C35.028124999999996 8.80703125 35.15625 12.87734375 35.15625 18.75c0 5.87265625 -0.12812500000000002 9.94296875 -0.24765625 12.453906250000001 -0.09062500000000001 1.91796875 -1.421875 3.48203125 -3.3320312499999996 3.68203125 -1.409375 0.1484375 -3.32265625 0.27031249999999996 -5.7953125000000005 0.27031249999999996 -0.9476562500000001 0 -1.8124999999999998 -0.01796875 -2.59921875 -0.0484375a2.27890625 2.27890625 0 0 0 -0.0078125 -0.153125c-0.04296875 -0.48828125 0.1796875 -1.359375 1.6546874999999999 -2.15703125 0.8085937499999999 -0.43750000000000006 1.86171875 -1.0093750000000001 2.6859375 -1.84375 0.9382812500000001 -0.9515625 1.51953125 -2.16171875 1.61171875 -3.7039062499999997 0.08984375 -1.4953125 0.1703125 -3.7296875 0.1703125 -6.937500000000001 0 -3.2078124999999997 -0.08046874999999999 -5.4421875 -0.1703125 -6.937500000000001 -0.18828124999999998 -3.1445312500000004 -2.6507812499999996 -5.5648437500000005 -5.76484375 -5.74453125 -1.4484375 -0.084375 -3.6171875 -0.1671875 -6.7578125 -0.196875 0.017187499999999998 -0.41015625 0.034374999999999996 -0.7890625 0.05078125 -1.1375Z" stroke-width="2.5"></path>
    <path id="Subtract_2" fill="#ffffff" d="M29.1640625 14.0625h5.964062500000001a228.10156250000003 228.10156250000003 0 0 0 -0.21875000000000003 -7.76640625c-0.09062500000000001 -1.91796875 -1.421875 -3.48203125 -3.3320312499999996 -3.68203125C30.16796875 2.465625 28.254687499999996 2.34375 25.78203125 2.34375c-2.4718750000000003 0 -4.3851562500000005 0.121875 -5.7945312499999995 0.27031249999999996 -1.909375 0.2 -3.24140625 1.7640625 -3.3320312499999996 3.68203125 -0.01640625 0.3484375 -0.03359375 0.7273437500000001 -0.05 1.1375 3.1390624999999996 0.0296875 5.3078125 0.11249999999999999 6.75625 0.196875 3.1140625 0.1796875 5.5765625 2.6007812500000003 5.76484375 5.74453125 0.0125 0.21406250000000002 0.025781250000000002 0.44296874999999997 0.0375 0.6875Z" stroke-width="2.5"></path>
    <path id="Rectangle 1096" stroke="#2d6a9c" stroke-linecap="round" stroke-linejoin="round" d="m16.61953125 7.03125 0.03359375 -0.73515625c0.09062500000000001 -1.91796875 1.421875 -3.48203125 3.3320312499999996 -3.68203125C21.39453125 2.465625 23.3078125 2.34375 25.78046875 2.34375c2.4718750000000003 0 4.3851562500000005 0.121875 5.7945312499999995 0.27031249999999996 1.909375 0.2 3.24140625 1.7640625 3.3320312499999996 3.68203125C35.026562500000004 8.80703125 35.15625 12.87734375 35.15625 18.75c0 5.87265625 -0.12890625 9.94296875 -0.2484375 12.453906250000001 -0.09062500000000001 1.91796875 -1.421875 3.48203125 -3.3312500000000003 3.68203125 -1.41015625 0.1484375 -3.3234375 0.27031249999999996 -5.7953125000000005 0.27031249999999996 -0.5484374999999999 0 -1.06796875 -0.00625 -1.56171875 -0.017187499999999998" stroke-width="2.5"></path>
    <path id="Subtract_3" fill="#62a2ce" d="M11.546875 29.67578125a265.878125 265.878125 0 0 0 5.03125 0l0.30078125 2.70078125A3.125 3.125 0 0 0 19.984375 35.15625H8.140625a3.125 3.125 0 0 0 3.10546875 -2.7796874999999996l0.3 -2.70078125Z" stroke-width="2.5"></path>
    <path id="Rectangle 1097" fill="#ffffff" d="M25.6171875 13.5859375c-0.08125 -1.35078125 -1.10859375 -2.36796875 -2.45859375 -2.4460937499999997C21.4296875 11.03984375 18.5625 10.9375 14.0625 10.9375c-4.5 0 -7.367968749999999 0.10234375000000001 -9.096093750000001 0.20234375000000002 -1.35 0.078125 -2.37734375 1.0953125 -2.45859375 2.4453125C2.42265625 15 2.34375 17.16328125 2.34375 20.3125c0 3.15 0.07890625000000001 5.3140624999999995 0.1640625 6.7265625 0.08125 1.35078125 1.10859375 2.36796875 2.45859375 2.4460937499999997C6.6953125 29.58515625 9.5625 29.6875 14.0625 29.6875c4.5 0 7.367968749999999 -0.10234375000000001 9.096093750000001 -0.20234375000000002 1.35 -0.078125 2.37734375 -1.0953125 2.45859375 -2.4453125 0.084375 -1.4140625 0.1640625 -3.57734375 0.1640625 -6.72734375 0 -3.15 -0.0796875 -5.3140624999999995 -0.1640625 -6.7265625Z" stroke-width="2.5"></path>
    <path id="Intersect" fill="#62a2ce" d="M2.4117187500000004 25c0.027343750000000003 0.80625 0.059375 1.48125 0.09375 2.0390625 0.08046874999999999 1.35078125 1.1078124999999999 2.36796875 2.45859375 2.4460937499999997 1.7265625 0.1 4.5953124999999995 0.20234375000000002 9.0953125 0.20234375000000002s7.36875 -0.10234375000000001 9.096093750000001 -0.20234375000000002c1.35078125 -0.078125 2.378125 -1.0953125 2.45859375 -2.4453125 0.03359375 -0.55859375 0.06640625 -1.23359375 0.09375 -2.03984375H2.4109374999999997Z" stroke-width="2.5"></path>
    <path id="Vector 2538" stroke="#2d6a9c" stroke-linecap="round" stroke-linejoin="round" d="M34.765625 14.0625H29.6875" stroke-width="2.5"></path>
    <path id="Vector 2539" stroke="#2d6a9c" stroke-linecap="round" stroke-linejoin="round" d="M29.6875 7.03125h-0.78125" stroke-width="2.5"></path>
    <path id="Vector 2540" stroke="#2d6a9c" stroke-linecap="round" stroke-linejoin="round" d="M21.875 7.03125h0.78125" stroke-width="2.5"></path>
    <path id="Subtract_4" stroke="#2d6a9c" stroke-linecap="round" stroke-linejoin="round" d="m11.546875 29.67578125 -0.30078125 2.70078125A3.125 3.125 0 0 1 8.140625 35.15625m8.4375 -5.48046875 0.30078125 2.70078125A3.125 3.125 0 0 0 19.984375 35.15625m0 0H8.140625m11.84375 0H20.3125m-12.171875 0H7.8125" stroke-width="2.5"></path>
    <path id="Rectangle 1098" stroke="#2d6a9c" stroke-linecap="round" stroke-linejoin="round" d="M25.6171875 13.5859375c-0.08125 -1.35078125 -1.10859375 -2.36796875 -2.45859375 -2.4460937499999997C21.4296875 11.03984375 18.5625 10.9375 14.0625 10.9375c-4.5 0 -7.367968749999999 0.10234375000000001 -9.096093750000001 0.20234375000000002 -1.35 0.078125 -2.37734375 1.0953125 -2.45859375 2.4453125C2.42265625 15 2.34375 17.16328125 2.34375 20.3125c0 3.15 0.07890625000000001 5.3140624999999995 0.1640625 6.7265625 0.08125 1.35078125 1.10859375 2.36796875 2.45859375 2.4460937499999997C6.6953125 29.58515625 9.5625 29.6875 14.0625 29.6875c4.5 0 7.367968749999999 -0.10234375000000001 9.096093750000001 -0.20234375000000002 1.35 -0.078125 2.37734375 -1.0953125 2.45859375 -2.4453125 0.084375 -1.4140625 0.1640625 -3.57734375 0.1640625 -6.72734375 0 -3.15 -0.0796875 -5.3140624999999995 -0.1640625 -6.7265625Z" stroke-width="2.5"></path>
    <path id="Intersect_2" stroke="#2d6a9c" stroke-linecap="round" stroke-linejoin="round" d="M2.4117187500000004 25h23.29609375" stroke-width="2.5"></path>
  </g>
</svg>