<svg xmlns="http://www.w3.org/2000/svg" fill="none" viewBox="-1.25 -1.25 40 40" id="Add-Layer-2--Streamline-Plump" height="40" width="40">
  <desc>
    Add Layer 2 Streamline Icon: https://streamlinehq.com
  </desc>
  <g id="add-layer-2--layer-add-design-plus-layers-square-box">
    <path id="Subtract" fill="#62a2ce" d="M31.21328125 2.6203125000000003c1.99765625 0.1421875 3.5234375 1.6687500000000002 3.6664062499999996 3.6671875 0.14296875 1.9960937500000002 0.2765625 4.9375 0.2765625 8.946875 0 4.01015625 -0.13359375 6.95078125 -0.2765625 8.94765625 -0.1421875 1.99765625 -1.6687500000000002 3.5234375 -3.6671875 3.6664062499999996 -0.87734375 0.0625 -1.9375 0.12421875 -3.19140625 0.17265625 0.0625 -1.59765625 0.10390625 -3.5085937499999997 0.10390625 -5.75546875 0 -4.01015625 -0.13359375 -6.95078125 -0.2765625 -8.94765625 -0.1421875 -1.99765625 -1.6687500000000002 -3.5234375 -3.6671875 -3.6664062499999996C22.1859375 9.5078125 19.2453125 9.375 15.234375 9.375c-2.2468749999999997 0 -4.1578125 0.0421875 -5.75546875 0.10390625 0.0484375 -1.25390625 0.10937500000000001 -2.3140625000000004 0.171875 -3.19140625 0.14296875 -1.9984374999999999 1.66953125 -3.5249999999999995 3.66796875 -3.6671875C15.314843750000001 2.4765625 18.256249999999998 2.34375 22.265625 2.34375c4.01015625 0 6.95078125 0.13359375 8.94765625 0.2765625Z" stroke-width="2.5"></path>
    <path id="Rectangle 1098" fill="#ffffff" d="M27.8484375 13.31796875c-0.1421875 -1.99765625 -1.6687500000000002 -3.5234375 -3.6671875 -3.6664062499999996C22.18515625 9.5078125 19.243750000000002 9.375 15.234375 9.375c-4.01015625 0 -6.95078125 0.13359375 -8.946875 0.2765625 -1.9984374999999999 0.1421875 -3.5249999999999995 1.6687500000000002 -3.6671875 3.6671875C2.4765625 15.3140625 2.34375 18.255468750000002 2.34375 22.265625s0.13359375 6.95078125 0.2765625 8.94765625c0.1421875 1.99765625 1.6687500000000002 3.5234375 3.6671875 3.6664062499999996 1.9960937500000002 0.14296875 4.9375 0.2765625 8.946875 0.2765625 4.01015625 0 6.95078125 -0.13359375 8.946875 -0.2765625 1.9984374999999999 -0.1421875 3.5249999999999995 -1.6687500000000002 3.6671875 -3.6671875 0.14296875 -1.9960937500000002 0.2765625 -4.9375 0.2765625 -8.946875 0 -4.01015625 -0.13359375 -6.95078125 -0.2765625 -8.94765625Z" stroke-width="2.5"></path>
    <path id="Union" fill="#62a2ce" d="M13.990625000000001 15.29140625c-0.8296875 0.0828125 -1.365625 0.771875 -1.40234375 1.6054687500000002 -0.026562500000000003 0.615625 -0.053125000000000006 1.4765625 -0.0703125 2.65234375a94.5703125 94.5703125 0 0 0 -2.65234375 0.0703125c-0.8328125000000001 0.03671875 -1.5234375 0.57265625 -1.6054687500000002 1.40234375 -0.03359375 0.340625 -0.05703125 0.75234375 -0.05703125 1.2437500000000001 0 0.490625 0.0234375 0.903125 0.05703125 1.2437500000000001 0.0828125 0.8296875 0.77265625 1.365625 1.6054687500000002 1.40234375 0.615625 0.026562500000000003 1.4765625 0.053125000000000006 2.65234375 0.0703125 0.017187499999999998 1.175 0.043750000000000004 2.0367187500000004 0.0703125 2.65234375 0.03671875 0.8328125000000001 0.57265625 1.5234375 1.40234375 1.6054687500000002 0.340625 0.03359375 0.75234375 0.05703125 1.2437500000000001 0.05703125 0.490625 0 0.903125 -0.0234375 1.2437500000000001 -0.05703125 0.8296875 -0.0828125 1.365625 -0.77265625 1.40234375 -1.6054687500000002 0.026562500000000003 -0.615625 0.053125000000000006 -1.4765625 0.0703125 -2.65234375a94.5703125 94.5703125 0 0 0 2.65234375 -0.0703125c0.8335937499999999 -0.03671875 1.5234375 -0.57265625 1.6054687500000002 -1.40234375 0.03359375 -0.340625 0.05703125 -0.75234375 0.05703125 -1.2437500000000001 0 -0.490625 -0.0234375 -0.903125 -0.05703125 -1.2437500000000001 -0.0828125 -0.8296875 -0.771875 -1.365625 -1.6054687500000002 -1.40234375 -0.615625 -0.026562500000000003 -1.4765625 -0.053125000000000006 -2.65234375 -0.0703125a93.44140625 93.44140625 0 0 0 -0.0703125 -2.65234375c-0.03671875 -0.8335937499999999 -0.57265625 -1.5234375 -1.40234375 -1.6054687500000002A12.599218749999999 12.599218749999999 0 0 0 15.234375 15.234375c-0.490625 0 -0.903125 0.0234375 -1.2437500000000001 0.05703125Z" stroke-width="2.5"></path>
    <path id="Rectangle 1096" stroke="#2d6a9c" stroke-linecap="round" stroke-linejoin="round" d="M9.7859375 5.46875c0.43125 -1.58125 1.7890625 -2.7234375 3.49453125 -2.8460937499999996C15.27734375 2.47890625 18.23046875 2.34375 22.265625 2.34375c4.010937500000001 0 6.9515625 0.13359375 8.94765625 0.2765625 1.99765625 0.1421875 3.5249999999999995 1.6687500000000002 3.6671875 3.6671875 0.14296875 1.9960937500000002 0.2765625 4.9375 0.2765625 8.946875 0 4.03515625 -0.13515624999999998 6.987500000000001 -0.27890624999999997 8.984375 -0.12265625 1.7054687499999999 -1.265625 3.0640625 -2.8460937499999996 3.49453125" stroke-width="2.5"></path>
    <path id="Rectangle 1097" stroke="#2d6a9c" stroke-linecap="round" stroke-linejoin="round" d="M27.8484375 13.31796875c-0.1421875 -1.99765625 -1.6687500000000002 -3.5234375 -3.6671875 -3.6664062499999996C22.18515625 9.5078125 19.243750000000002 9.375 15.234375 9.375c-4.01015625 0 -6.95078125 0.13359375 -8.946875 0.2765625 -1.9984374999999999 0.1421875 -3.5249999999999995 1.6687500000000002 -3.6671875 3.6671875C2.4765625 15.3140625 2.34375 18.255468750000002 2.34375 22.265625s0.13359375 6.95078125 0.2765625 8.94765625c0.1421875 1.99765625 1.6687500000000002 3.5234375 3.6671875 3.6664062499999996 1.9960937500000002 0.14296875 4.9375 0.2765625 8.946875 0.2765625 4.01015625 0 6.95078125 -0.13359375 8.946875 -0.2765625 1.9984374999999999 -0.1421875 3.5249999999999995 -1.6687500000000002 3.6671875 -3.6671875 0.14296875 -1.9960937500000002 0.2765625 -4.9375 0.2765625 -8.946875 0 -4.01015625 -0.13359375 -6.95078125 -0.2765625 -8.94765625Z" stroke-width="2.5"></path>
    <path id="Union_2" stroke="#2d6a9c" stroke-linecap="round" stroke-linejoin="round" d="M16.478125 29.23984375c0.8296875 -0.0828125 1.365625 -0.77265625 1.40234375 -1.6054687500000002 0.026562500000000003 -0.615625 0.053125000000000006 -1.4765625 0.0703125 -2.65234375a94.5703125 94.5703125 0 0 0 2.65234375 -0.0703125c0.8335937499999999 -0.03671875 1.5234375 -0.57265625 1.6054687500000002 -1.40234375 0.03359375 -0.340625 0.05703125 -0.75234375 0.05703125 -1.2437500000000001 0 -0.490625 -0.0234375 -0.903125 -0.05703125 -1.2437500000000001 -0.0828125 -0.8296875 -0.771875 -1.365625 -1.6054687500000002 -1.40234375 -0.615625 -0.026562500000000003 -1.4765625 -0.053125000000000006 -2.65234375 -0.0703125a93.44140625 93.44140625 0 0 0 -0.0703125 -2.65234375c-0.03671875 -0.8335937499999999 -0.57265625 -1.5234375 -1.40234375 -1.6054687500000002A12.599218749999999 12.599218749999999 0 0 0 15.234375 15.234375c-0.490625 0 -0.903125 0.0234375 -1.2437500000000001 0.05703125 -0.8296875 0.0828125 -1.365625 0.771875 -1.40234375 1.6054687500000002 -0.026562500000000003 0.615625 -0.053125000000000006 1.4765625 -0.0703125 2.65234375a94.5703125 94.5703125 0 0 0 -2.65234375 0.0703125c-0.8328125000000001 0.03671875 -1.5234375 0.57265625 -1.6054687500000002 1.40234375 -0.03359375 0.340625 -0.05703125 0.75234375 -0.05703125 1.2437500000000001 0 0.490625 0.0234375 0.903125 0.05703125 1.2437500000000001 0.0828125 0.8296875 0.77265625 1.365625 1.6054687500000002 1.40234375 0.615625 0.026562500000000003 1.4765625 0.053125000000000006 2.65234375 0.0703125 0.017187499999999998 1.175 0.043750000000000004 2.0367187500000004 0.0703125 2.65234375 0.03671875 0.8328125000000001 0.57265625 1.5234375 1.40234375 1.6054687500000002 0.340625 0.03359375 0.75234375 0.05703125 1.2437500000000001 0.05703125 0.490625 0 0.903125 -0.0234375 1.2437500000000001 -0.05703125Z" stroke-width="2.5"></path>
  </g>
</svg>