<svg xmlns="http://www.w3.org/2000/svg" fill="none" viewBox="-1.25 -1.25 40 40" id="Book-1--Streamline-Plump" height="40" width="40">
  <desc>
    Book 1 Streamline Icon: https://streamlinehq.com
  </desc>
  <g id="book-1--content-books-book-close">
    <path id="Rectangle 1097" fill="#ffffff" d="M29.568671875000003 34.762265625c1.9929687500000002 -0.17046875 3.49734375 -1.7165625 3.643984375 -3.7114062500000005C33.398125 28.528906250000002 33.59375 24.504453125 33.59375 18.75s-0.19562500000000002 -9.77890625 -0.38109375 -12.30084375c-0.146640625 -1.9948671875000001 -1.6509375 -3.5409375 -3.643984375 -3.7114218749999996C27.272578125000003 2.5413046875000003 23.72625 2.34375 18.75 2.34375c-4.976171875 0 -8.522499999999999 0.19754687499999998 -10.818671875 0.3939765625 -1.9929843749999998 0.170484375 -3.497296875 1.7165546875 -3.6439765625000002 3.7114218749999996C4.1019140625 8.97109375 3.90625 12.995546875 3.90625 18.75c0 5.754453125 0.19565625 9.77890625 0.3810859375 12.300859375 0.1466796875 1.9948437499999998 1.651 3.5409375 3.6439921875000003 3.7114062500000005C10.227500000000001 34.958671875 13.773750000000001 35.15625 18.75 35.15625c4.97625 0 8.522499999999999 -0.19757812500000002 10.818671875 -0.393984375Z" stroke-width="2.5"></path>
    <path id="Intersect" fill="#62a2ce" d="M10.9375 2.5325781249999997v32.43453125c-1.1728125 -0.062109375 -2.17203125 -0.133671875 -3.006171875 -0.20500000000000002 -1.9929999999999999 -0.17046875 -3.4973125 -1.7165625 -3.6439921875000003 -3.7114062500000005C4.10190625 28.528750000000002 3.90625 24.504296875 3.90625 18.74984375s0.1956640625 -9.77890625 0.3811015625 -12.3008359375c0.1466796875 -1.9948750000000002 1.6509921875 -3.5409453125 3.6439765625000002 -3.7114296875 0.83421875 -0.071359375 1.833359375 -0.1428671875 3.006171875 -0.20500000000000002Z" stroke-width="2.5"></path>
    <path id="Rectangle 1096" stroke="#2d6a9c" stroke-linecap="round" stroke-linejoin="round" d="M29.568671875000003 34.762265625c1.9929687500000002 -0.17046875 3.49734375 -1.7165625 3.643984375 -3.7114062500000005C33.398125 28.528906250000002 33.59375 24.504453125 33.59375 18.75s-0.19562500000000002 -9.77890625 -0.38109375 -12.30084375c-0.146640625 -1.9948671875000001 -1.6509375 -3.5409375 -3.643984375 -3.7114218749999996C27.272578125000003 2.5413046875000003 23.72625 2.34375 18.75 2.34375c-4.976171875 0 -8.522499999999999 0.19754687499999998 -10.818671875 0.3939765625 -1.9929843749999998 0.170484375 -3.497296875 1.7165546875 -3.6439765625000002 3.7114218749999996C4.1019140625 8.97109375 3.90625 12.995546875 3.90625 18.75c0 5.754453125 0.19565625 9.77890625 0.3810859375 12.300859375 0.1466796875 1.9948437499999998 1.651 3.5409375 3.6439921875000003 3.7114062500000005C10.227500000000001 34.958671875 13.773750000000001 35.15625 18.75 35.15625c4.97625 0 8.522499999999999 -0.19757812500000002 10.818671875 -0.393984375Z" stroke-width="2.5"></path>
    <path id="Intersect_2" stroke="#2d6a9c" stroke-linecap="round" stroke-linejoin="round" d="M10.9375 2.5325781249999997v32.43453125" stroke-width="2.5"></path>
    <path id="Vector 1022" stroke="#2d6a9c" stroke-linecap="round" stroke-linejoin="round" d="M17.1875 9.375h9.375" stroke-width="2.5"></path>
    <path id="Vector 1023" stroke="#2d6a9c" stroke-linecap="round" stroke-linejoin="round" d="M17.1875 14.84375h4.6875" stroke-width="2.5"></path>
  </g>
</svg>