<svg xmlns="http://www.w3.org/2000/svg" fill="none" viewBox="-1.25 -1.25 40 40" id="Multiple-File-1--Streamline-Plump" height="40" width="40">
  <desc>
    Multiple File 1 Streamline Icon: https://streamlinehq.com
  </desc>
  <g id="multiple-file-1--file-common-double">
    <path id="Subtract" fill="#99c2e0" d="M17.193749999999998 9.39296875c0.40625 0.0078125 0.8109375 0.06406250000000001 1.18359375 0.22656249999999997 0.8500000000000001 0.37109375 2.44375 1.27109375 4.55546875 3.375 1.9757812499999998 1.9671874999999999 2.8937500000000003 3.484375 3.3085937500000004 4.3648437499999995 0.19375 0.4109375 0.26640625 0.8640625000000001 0.278125 1.3179687500000001 0.027343750000000003 1.07421875 0.04296875 2.2671875 0.04296875 3.58828125 0 4.44921875 -0.18046875 7.448437500000001 -0.36484375 9.3515625 -0.1671875 1.7234375 -1.4484375 3.015625 -3.1703124999999996 3.1953125 -1.7046875 0.1765625 -4.25 0.34375 -7.79296875 0.34375 -3.54296875 0 -6.0882812500000005 -0.1671875 -7.79296875 -0.34375 -1.721875 -0.1796875 -3.003125 -1.4718749999999998 -3.1703124999999996 -3.1953125C4.08671875 29.7140625 3.90625 26.71484375 3.90625 22.265625s0.18046875 -7.448437500000001 0.36484375 -9.3515625c0.1671875 -1.7234375 1.4484375 -3.015625 3.1703124999999996 -3.1953125 1.7046875 -0.1765625 4.25 -0.34375 7.79296875 -0.34375 0.690625 0 1.34375 0.00625 1.959375 0.01796875Z" stroke-width="2.5"></path>
    <path id="Subtract_2" fill="#ffffff" d="M24.83671875 2.375c0.47812499999999997 0.13984375 2.3578124999999996 0.828125 5.12734375 3.5875 2.5914062500000004 2.58125 3.36328125 4.38671875 3.5671874999999997 4.9984375 0.0390625 1.24609375 0.0625 2.66484375 0.0625 4.2734375 0 4.44921875 -0.18046875 7.448437500000001 -0.36484375 9.3515625 -0.1671875 1.7234375 -1.4484375 3.015625 -3.1703124999999996 3.1953125 -1.7046875 0.1765625 -4.25 0.34375 -7.79296875 0.34375 -3.54296875 0 -6.0882812500000005 -0.1671875 -7.79296875 -0.34375 -1.721875 -0.1796875 -3.003125 -1.4718749999999998 -3.1703124999999996 -3.1953125C11.11796875 22.6828125 10.9375 19.68359375 10.9375 15.234375s0.18046875 -7.448437500000001 0.36484375 -9.3515625c0.1671875 -1.7234375 1.4484375 -3.015625 3.1703124999999996 -3.1953125C16.177343750000002 2.5109375 18.72265625 2.34375 22.265625 2.34375c0.9242187500000001 0 1.7796875 0.01171875 2.5710937499999997 0.03125Z" stroke-width="2.5"></path>
    <path id="Intersect" fill="#99c2e0" d="M24.526562499999997 2.35c0.571875 0.18125000000000002 2.4078125 0.92578125 5.05859375 3.5664062500000004 2.4890625 2.4796875 3.3000000000000003 4.24296875 3.540625 4.921093750000001l0.010937500000000001 0.31796874999999997c-1.3046875 0.19765625 -3.57890625 0.0703125 -5.4320312500000005 -0.09375a3.6140625 3.6140625 0 0 1 -3.2921875000000003 -3.2890625c-0.165625 -1.85703125 -0.29296875 -4.1351562500000005 -0.08750000000000001 -5.42890625l0.2015625 0.00625Z" stroke-width="2.5"></path>
    <path id="Subtract_3" stroke="#2d6a9c" stroke-linecap="round" stroke-linejoin="round" d="M26.19765625 31.6171875c-0.1671875 1.7234375 -1.4484375 3.015625 -3.1703124999999996 3.1953125 -1.7046875 0.1765625 -4.25 0.34375 -7.79296875 0.34375 -3.54296875 0 -6.0882812500000005 -0.1671875 -7.79296875 -0.34375 -1.721875 -0.1796875 -3.003125 -1.4718749999999998 -3.1703124999999996 -3.1953125C4.08671875 29.7140625 3.90625 26.715625 3.90625 22.265625c0 -4.44921875 0.18046875 -7.448437500000001 0.36484375 -9.3515625 0.1671875 -1.7234375 1.4484375 -3.015625 3.1703124999999996 -3.1953125" stroke-width="2.5"></path>
    <path id="Subtract_4" stroke="#2d6a9c" stroke-linecap="round" stroke-linejoin="round" d="M24.83671875 2.375c0.47812499999999997 0.13984375 2.3578124999999996 0.828125 5.12734375 3.5875 2.5914062500000004 2.58125 3.36328125 4.38671875 3.5671874999999997 4.9984375 0.0390625 1.24609375 0.0625 2.66484375 0.0625 4.2734375 0 4.44921875 -0.18046875 7.448437500000001 -0.36484375 9.3515625 -0.1671875 1.7234375 -1.4484375 3.015625 -3.1703124999999996 3.1953125 -1.7046875 0.1765625 -4.25 0.34375 -7.79296875 0.34375 -3.54296875 0 -6.0882812500000005 -0.1671875 -7.79296875 -0.34375 -1.721875 -0.1796875 -3.003125 -1.4718749999999998 -3.1703124999999996 -3.1953125C11.11796875 22.6828125 10.9375 19.68359375 10.9375 15.234375s0.18046875 -7.448437500000001 0.36484375 -9.3515625c0.1671875 -1.7234375 1.4484375 -3.015625 3.1703124999999996 -3.1953125C16.177343750000002 2.5109375 18.72265625 2.34375 22.265625 2.34375c0.9242187500000001 0 1.7796875 0.01171875 2.5710937499999997 0.03125Z" stroke-width="2.5"></path>
    <path id="Intersect_2" stroke="#2d6a9c" stroke-linecap="round" stroke-linejoin="round" d="M33.51640625 11.2015625c-1.3046875 0.1984375 -3.578125 0.0703125 -5.4320312500000005 -0.09296874999999999a3.6140625 3.6140625 0 0 1 -3.2921875000000003 -3.2890625c-0.16484374999999998 -1.8578125 -0.2921875 -4.1359375 -0.08750000000000001 -5.4296875" stroke-width="2.5"></path>
  </g>
</svg>