<svg xmlns="http://www.w3.org/2000/svg" fill="none" viewBox="-1.25 -1.25 40 40" id="Loading-Circle--Streamline-Plump" height="40" width="40">
  <desc>
    Loading Circle Streamline Icon: https://streamlinehq.com
  </desc>
  <g id="loading-circle--progress-loading-load-half-wait-waiting">
    <path id="Subtract" fill="#62a2ce" d="M16.40625 33.188203125c0 0.9509375 -0.8459375 1.6864062499999999 -1.7667187500000001 1.44890625C7.56790625 32.812734375000005 2.34375 26.39140625 2.34375 18.75 2.34375 9.689062499999999 9.689062499999999 2.34375 18.75 2.34375c7.717734375 0 14.19078125 5.3289609375 15.940312500000001 12.508046875000002 0.223359375 0.9165625000000001 -0.510234375 1.749765625 -1.453671875 1.749765625h-1.6648437499999997c-0.7531249999999999 0 -1.38828125 -0.541796875 -1.6071875 -1.2624218749999998C28.5040625 10.530703125 24.035703124999998 7.03125 18.75 7.03125 12.277890625 7.03125 7.03125 12.277890625 7.03125 18.75c0 5.22375 3.417890625 9.649218750000001 8.139375 11.16203125 0.70765625 0.226796875 1.235625 0.85640625 1.235625 1.59953125v1.676640625Z" stroke-width="2.5"></path>
    <path id="Subtract_2" fill="#62a2ce" d="M25.986562499999998 29.496328124999998c-0.52046875 -0.520390625 -1.32890625 -0.5965625 -1.98671875 -0.26640625 -0.53484375 0.2684375 -1.093046875 0.49718749999999995 -1.670859375 0.682265625 -0.70765625 0.22671875000000002 -1.2352343749999999 0.8562500000000001 -1.2352343749999999 1.5993750000000002v1.676640625c0 0.951015625 0.8453125 1.6865625 1.76609375 1.4490625 1.4478906249999999 -0.3734375 2.818359375 -0.9396875000000001 4.0824218750000005 -1.66953125 0.8284375 -0.47843750000000007 0.9117968750000001 -1.6039062499999999 0.23539062500000002 -2.2803125l-1.19109375 -1.19109375Z" stroke-width="2.5"></path>
    <path id="Subtract_3" fill="#62a2ce" d="M29.856640625000004 22.497578125c0.234296875 -0.694609375 0.8582031250000001 -1.208515625 1.59125 -1.208515625h1.6889843750000002c0.95859375 0 1.6959374999999999 0.858125 1.4440625 1.7830468750000001 -0.400859375 1.4715624999999999 -1.00140625 2.860859375 -1.77078125 4.136875 -0.48843749999999997 0.8101562499999999 -1.5992968749999998 0.882578125 -2.2682031250000003 0.213671875l-1.179140625 -1.179140625c-0.530390625 -0.530390625 -0.598515625 -1.3580468749999999 -0.247734375 -2.021015625 0.29117187499999997 -0.55046875 0.53984375 -1.1268749999999998 0.7415625 -1.724921875Z" stroke-width="2.5"></path>
    <path id="Subtract_4" stroke="#2d6a9c" stroke-linecap="round" stroke-linejoin="round" d="M16.40625 33.188203125c0 0.9509375 -0.8459375 1.6864062499999999 -1.7667187500000001 1.44890625C7.56790625 32.812734375000005 2.34375 26.39140625 2.34375 18.75 2.34375 9.689062499999999 9.689062499999999 2.34375 18.75 2.34375c7.717734375 0 14.19078125 5.3289609375 15.940312500000001 12.508046875000002 0.223359375 0.9165625000000001 -0.510234375 1.749765625 -1.453671875 1.749765625h-1.6648437499999997c-0.7531249999999999 0 -1.38828125 -0.541796875 -1.6071875 -1.2624218749999998C28.5040625 10.530703125 24.035703124999998 7.03125 18.75 7.03125 12.277890625 7.03125 7.03125 12.277890625 7.03125 18.75c0 5.22375 3.417890625 9.649218750000001 8.139375 11.16203125 0.70765625 0.226796875 1.235625 0.85640625 1.235625 1.59953125v1.676640625Z" stroke-width="2.5"></path>
    <path id="Subtract_5" stroke="#2d6a9c" stroke-linecap="round" stroke-linejoin="round" d="M25.986562499999998 29.496328124999998c-0.52046875 -0.520390625 -1.32890625 -0.5965625 -1.98671875 -0.26640625 -0.53484375 0.2684375 -1.093046875 0.49718749999999995 -1.670859375 0.682265625 -0.70765625 0.22671875000000002 -1.2352343749999999 0.8562500000000001 -1.2352343749999999 1.5993750000000002v1.676640625c0 0.951015625 0.8453125 1.6865625 1.76609375 1.4490625 1.4478906249999999 -0.3734375 2.818359375 -0.9396875000000001 4.0824218750000005 -1.66953125 0.8284375 -0.47843750000000007 0.9117968750000001 -1.6039062499999999 0.23539062500000002 -2.2803125l-1.19109375 -1.19109375Z" stroke-width="2.5"></path>
    <path id="Subtract_6" stroke="#2d6a9c" stroke-linecap="round" stroke-linejoin="round" d="M29.856640625000004 22.497578125c0.234296875 -0.694609375 0.8582031250000001 -1.208515625 1.59125 -1.208515625h1.6889843750000002c0.95859375 0 1.6959374999999999 0.858125 1.4440625 1.7830468750000001 -0.400859375 1.4715624999999999 -1.00140625 2.860859375 -1.77078125 4.136875 -0.48843749999999997 0.8101562499999999 -1.5992968749999998 0.882578125 -2.2682031250000003 0.213671875l-1.179140625 -1.179140625c-0.530390625 -0.530390625 -0.598515625 -1.3580468749999999 -0.247734375 -2.021015625 0.29117187499999997 -0.55046875 0.53984375 -1.1268749999999998 0.7415625 -1.724921875Z" stroke-width="2.5"></path>
  </g>
</svg>