<svg xmlns="http://www.w3.org/2000/svg" fill="none" viewBox="-1.25 -1.25 40 40" id="Reset-Clock--Streamline-Plump" height="40" width="40">
  <desc>
    Reset Clock Streamline Icon: https://streamlinehq.com
  </desc>
  <g id="reset-clock--timer-countdown-clock">
    <path id="Union" fill="#99c2e0" d="M8.1171875 31.429687499999996c0.828125 0.69296875 2.04765625 0.43046875 2.6374999999999997 -0.4734375l0.4265625 -0.6546875c0.5890625 -0.903125 0.32109374999999996 -2.1015625 -0.47109375 -2.8328124999999997a11.6875 11.6875 0 0 1 -3.77890625 -8.61875c0 -6.471875000000001 5.246875 -11.71875 11.71875 -11.71875 6.471875000000001 0 11.71875 5.246875 11.71875 11.71875 0 3.3093749999999997 -1.371875 6.29765625 -3.578125 8.428906249999999a41.352343749999996 41.352343749999996 0 0 0 -2.3046875 -2.4093750000000003c-0.746875 -0.7125 -1.8414062500000001 -0.34140625 -2.02578125 0.675 -0.3921875 2.1546875 -0.5671875 4.6226562499999995 -0.6421874999999999 6.67421875a2.2468749999999997 2.2468749999999997 0 0 0 1.9390625000000001 2.31015625c2.0210937500000004 0.28125 4.46484375 0.5359375000000001 6.6460937499999995 0.5265625 1.04375 -0.00390625 1.60625 -1.0375 1.02734375 -1.90625a40.421875 40.421875 0 0 0 -1.6367187500000002 -2.25859375 16.3625 16.3625 0 0 0 5.2625 -12.040625c0 -9.060937500000001 -7.3453124999999995 -16.40625 -16.40625 -16.40625s-16.40625 7.3453124999999995 -16.40625 16.40625c0 5.0515625 2.2828125 9.5703125 5.8734375 12.5796875Z" stroke-width="2.5"></path>
    <path id="Union_2" stroke="#2d6a9c" stroke-linecap="round" stroke-linejoin="round" d="M8.1171875 31.429687499999996c0.828125 0.69296875 2.04765625 0.43046875 2.6374999999999997 -0.4734375l0.4265625 -0.6546875c0.5890625 -0.903125 0.32109374999999996 -2.1015625 -0.47109375 -2.8328124999999997a11.6875 11.6875 0 0 1 -3.77890625 -8.61875c0 -6.471875000000001 5.246875 -11.71875 11.71875 -11.71875 6.471875000000001 0 11.71875 5.246875 11.71875 11.71875 0 3.3093749999999997 -1.371875 6.29765625 -3.578125 8.428906249999999a41.352343749999996 41.352343749999996 0 0 0 -2.3046875 -2.4093750000000003c-0.746875 -0.7125 -1.8414062500000001 -0.34140625 -2.02578125 0.675 -0.3921875 2.1546875 -0.5671875 4.6226562499999995 -0.6421874999999999 6.67421875a2.2468749999999997 2.2468749999999997 0 0 0 1.9390625000000001 2.31015625c2.0210937500000004 0.28125 4.46484375 0.5359375000000001 6.6460937499999995 0.5265625 1.04375 -0.00390625 1.60625 -1.0375 1.02734375 -1.90625a40.421875 40.421875 0 0 0 -1.6367187500000002 -2.25859375 16.3625 16.3625 0 0 0 5.2625 -12.040625c0 -9.060937500000001 -7.3453124999999995 -16.40625 -16.40625 -16.40625s-16.40625 7.3453124999999995 -16.40625 16.40625c0 5.0515625 2.2828125 9.5703125 5.8734375 12.5796875Z" stroke-width="2.5"></path>
    <path id="Vector 1439" stroke="#2d6a9c" stroke-linecap="round" stroke-linejoin="round" d="M18.75 11.71875v7.03125l-4.6875 4.6875" stroke-width="2.5"></path>
  </g>
</svg>