<svg xmlns="http://www.w3.org/2000/svg" fill="none" viewBox="-1.25 -1.25 40 40" id="Script-2--Streamline-Plump" height="40" width="40">
  <desc>
    Script 2 Streamline Icon: https://streamlinehq.com
  </desc>
  <g id="script-2--language-programming-code">
    <path id="Vector" fill="#62a2ce" d="M5.46875 28.400703125c0.288828125 4.81671875 -1.953125 5.7904687500000005 -3.125 5.7904687500000005C2.34375 34.191171874999995 7.421875 35.15625 14.84375 35.15625c3.5038281249999996 0 6.485234375 -0.21507812499999998 8.656640625000001 -0.44218749999999996 2.239140625 -0.23414062500000002 3.85109375 -2.1525781250000002 3.788671875 -4.403046875C27.102500000000003 23.589453125000002 26.487109375 17.8203125 26.205000000000002 10.15625c-0.08796875 -2.3909296875 0 -7.03125 3.4825000000000004 -7.8125L9.375 2.34375C6.786164062499999 2.34375 4.69178125 4.4390390625 4.7269765625 7.027632812499999 4.79428125 11.977109375 4.976328125 20.18890625 5.46875 28.400703125Z" stroke-width="2.5"></path>
    <path id="Subtract" fill="#ffffff" d="M29.68734375 2.34375c-3.481953125 0.7811406249999999 -3.57046875 5.42021875 -3.4825000000000004 7.811484374999999 3.436953125 -0.017109375 5.7796875 -0.239765625 7.203671875 -0.439921875 1.041796875 -0.14640625000000002 1.747578125 -1.048984375 1.747578125 -2.101046875v-0.506796875c0 -3.0487812499999998 -2.3436718749999996 -4.76371875 -4.6875 -4.76371875l-0.78125 0Z" stroke-width="2.5"></path>
    <path id="Vector_2" stroke="#2d6a9c" stroke-linecap="round" stroke-linejoin="round" d="M5.46875 28.400703125c0.288828125 4.81671875 -1.953125 5.7904687500000005 -3.125 5.7904687500000005C2.34375 34.191171874999995 7.421875 35.15625 14.84375 35.15625c3.5038281249999996 0 6.485234375 -0.21507812499999998 8.656640625000001 -0.44218749999999996 2.239140625 -0.23414062500000002 3.85109375 -2.1525781250000002 3.788671875 -4.403046875C27.102500000000003 23.589453125000002 26.487109375 17.8203125 26.205000000000002 10.15625c-0.08796875 -2.3909296875 0 -7.03125 3.4825000000000004 -7.8125L9.375 2.34375C6.786164062499999 2.34375 4.69178125 4.4390390625 4.7269765625 7.027632812499999 4.79428125 11.977109375 4.976328125 20.18890625 5.46875 28.400703125Z" stroke-width="2.5"></path>
    <path id="Subtract_2" stroke="#2d6a9c" stroke-linecap="round" stroke-linejoin="round" d="m29.6871875 2.3437578125000003 0.78125 -0.0000078125c2.3438281250000004 0 4.6875 1.7149375000000002 4.6875 4.76371875v0.506796875c0 1.0520625000000001 -0.70578125 1.954640625 -1.747578125 2.101046875 -1.423984375 0.20015624999999998 -3.76671875 0.42281250000000004 -7.203671875 0.439921875" stroke-width="2.5"></path>
    <path id="Vector 1679" stroke="#2d6a9c" stroke-linecap="round" stroke-linejoin="round" d="M13.28125 10.15625h7.8125" stroke-width="2.5"></path>
    <path id="Vector 1680" stroke="#2d6a9c" stroke-linecap="round" stroke-linejoin="round" d="m10.15625 15.625 10.9375 0" stroke-width="2.5"></path>
    <path id="Vector 1681" stroke="#2d6a9c" stroke-linecap="round" stroke-linejoin="round" d="m10.546875 21.09375 10.9375 0" stroke-width="2.5"></path>
    <path id="Vector 1682" stroke="#2d6a9c" stroke-linecap="round" stroke-linejoin="round" d="m10.9375 26.5625 10.9375 0" stroke-width="2.5"></path>
  </g>
</svg>