<svg xmlns="http://www.w3.org/2000/svg" fill="none" viewBox="-1.25 -1.25 40 40" id="Task-List-Edit--Streamline-Plump" height="40" width="40">
  <desc>
    Task List Edit Streamline Icon: https://streamlinehq.com
  </desc>
  <g id="task-list-edit--task-list-edit-work">
    <path id="Subtract" fill="#62a2ce" d="M26.253125 6.479687500000001c-3.0789062499999997 -3.01875 -5.2109375 -3.86875 -5.875 -4.0765625A126.43203125 126.43203125 0 0 0 16.40625 2.34375c-4.89375 0 -8.254687500000001 0.25 -10.35 0.48984375 -1.71953125 0.196875 -3.0078125 1.48671875 -3.196875 3.2070312500000004C2.609375 8.2984375 2.34375 12.088281250000001 2.34375 17.96875c0 5.88046875 0.26640625 9.6703125 0.515625 11.928125000000001 0.1890625 1.7203125 1.47734375 3.01015625 3.196875 3.2070312500000004 1.690625 0.19296875 4.20546875 0.39375 7.6851562499999995 0.4640625 -0.1171875 -2.02890625 -0.06796875 -3.47890625 0.01171875 -4.4281250000000005 0.13203125000000002 -1.578125 0.8859374999999999 -2.859375 1.7828125 -3.7554687500000004l9.640625 -9.640625c1.2054687499999999 -1.2054687499999999 3.1468749999999996 -2.24609375 5.2375 -2.18125 -0.013281250000000001 -0.50390625 -0.028124999999999997 -0.9859375 -0.045312500000000006 -1.44765625 -0.27421874999999996 -0.765625 -1.21015625 -2.7867187500000004 -4.115625 -5.63515625Z" stroke-width="2.5"></path>
    <path id="Intersect" fill="#ffffff" d="M20.3796875 2.40390625c0.665625 0.209375 2.796875 1.0609375 5.871875 4.0757812499999995 2.90625 2.8484374999999997 3.84140625 4.8703125 4.115625 5.635937500000001l0.0125 0.3515625c-1.6304687500000001 0.24296875 -4.56328125 0.056249999999999994 -6.7890625 -0.14921875a3.64375 3.64375 0 0 1 -3.3039062500000003 -3.28984375c-0.209375 -2.1890625 -0.3953125 -5.0515625 -0.140625 -6.63125l0.23359375 0.0078125Z" stroke-width="2.5"></path>
    <path id="Rectangle 63" fill="#ffffff" d="M34.11328125 24.68125c1.1359375 -1.13515625 1.5703124999999998 -2.79453125 0.6203125 -4.08984375a13.88515625 13.88515625 0 0 0 -1.3828125 -1.5984375c-0.578125 -0.578125 -1.1171875 -1.0296875 -1.5992187500000001 -1.3828125 -1.29453125 -0.95 -2.95390625 -0.515625 -4.08984375 0.61953125l-9.640625 9.640625c-0.42421875000000003 0.42500000000000004 -0.71484375 0.9632812500000001 -0.7648437499999999 1.5625 -0.06796875 0.81328125 -0.11796875 2.1953125 0.013281250000000001 4.240625a1.5 1.5 0 0 0 1.4007812499999999 1.4007812499999999c2.04453125 0.13125 3.4273437499999995 0.08125 4.240625 0.0125 0.5984375 -0.05 1.1375 -0.33984375 1.5625 -0.765625l9.640625 -9.63984375Z" stroke-width="2.5"></path>
    <path id="Intersect_2" fill="#62a2ce" d="M32.03125 26.7640625c-0.00234375 -0.010937500000000001 -0.37734375 -1.65390625 -2.5875 -3.8640624999999997 -2.2171875 -2.2171875 -3.8640624999999997 -2.58671875 -3.8640624999999997 -2.58671875l2.08203125 -2.0828124999999997c1.1359375 -1.13515625 2.7953125 -1.5703124999999998 4.090625 -0.61953125a13.8859375 13.8859375 0 0 1 1.59765625 1.3828125c0.578125 0.578125 1.03046875 1.1171875 1.3828125 1.5984375 0.95078125 1.2953124999999999 0.515625 2.9546875 -0.61953125 4.08984375L32.03125 26.7640625Z" stroke-width="2.5"></path>
    <path id="Subtract_2" stroke="#2d6a9c" stroke-linecap="round" stroke-linejoin="round" d="M30.36875 12.11484375c-0.27421874999999996 -0.765625 -1.21015625 -2.7867187500000004 -4.115625 -5.63515625 -3.0789062499999997 -3.01875 -5.2109375 -3.86875 -5.875 -4.0765625A126.43203125 126.43203125 0 0 0 16.40625 2.34375c-4.89375 0 -8.254687500000001 0.25 -10.35 0.48984375 -1.71953125 0.196875 -3.0078125 1.48671875 -3.196875 3.2070312500000004C2.609375 8.2984375 2.34375 12.088281250000001 2.34375 17.96875c0 5.88046875 0.26640625 9.6703125 0.515625 11.928125000000001 0.1890625 1.7203125 1.47734375 3.01015625 3.196875 3.2070312500000004 1.4828124999999999 0.16953125 3.5992187500000004 0.34375 6.44375 0.43203125000000003" stroke-width="2.5"></path>
    <path id="Intersect_3" stroke="#2d6a9c" stroke-linecap="round" stroke-linejoin="round" d="M30.379687500000003 12.4671875c-1.6304687500000001 0.24296875 -4.56328125 0.056249999999999994 -6.7890625 -0.14921875a3.64375 3.64375 0 0 1 -3.3039062500000003 -3.28984375c-0.209375 -2.1890625 -0.3953125 -5.0515625 -0.140625 -6.63125" stroke-width="2.5"></path>
    <path id="Rectangle 64" stroke="#2d6a9c" stroke-linecap="round" stroke-linejoin="round" d="M32.03125 26.7640625s-0.36953125 -1.646875 -2.5875 -3.8640624999999997C27.2265625 20.682031249999998 25.5796875 20.3125 25.5796875 20.3125" stroke-width="2.5"></path>
    <path id="Vector 1455" stroke="#2d6a9c" stroke-linecap="round" stroke-linejoin="round" d="m7.8125 10.15625 3.125 3.125 3.90625 -5.46875" stroke-width="2.5"></path>
    <path id="Vector 1456" stroke="#2d6a9c" stroke-linecap="round" stroke-linejoin="round" d="m7.8125 18.75 3.125 3.125 3.90625 -5.46875" stroke-width="2.5"></path>
    <path id="Rectangle 65" stroke="#2d6a9c" stroke-linecap="round" stroke-linejoin="round" d="M34.11328125 24.68125c1.1359375 -1.13515625 1.5703124999999998 -2.79453125 0.6203125 -4.08984375a13.88515625 13.88515625 0 0 0 -1.3828125 -1.5984375c-0.578125 -0.578125 -1.1171875 -1.0296875 -1.5992187500000001 -1.3828125 -1.29453125 -0.95 -2.95390625 -0.515625 -4.08984375 0.61953125l-9.640625 9.640625c-0.42421875000000003 0.42500000000000004 -0.71484375 0.9632812500000001 -0.7648437499999999 1.5625 -0.06796875 0.81328125 -0.11796875 2.1953125 0.013281250000000001 4.240625a1.5 1.5 0 0 0 1.4007812499999999 1.4007812499999999c2.04453125 0.13125 3.4273437499999995 0.08125 4.240625 0.0125 0.5984375 -0.05 1.1375 -0.33984375 1.5625 -0.765625l9.640625 -9.63984375Z" stroke-width="2.5"></path>
  </g>
</svg>