<svg xmlns="http://www.w3.org/2000/svg" fill="none" viewBox="-1.25 -1.25 40 40" id="Insert-Side--Streamline-Plump" height="40" width="40">
  <desc>
    Insert Side Streamline Icon: https://streamlinehq.com
  </desc>
  <g id="insert-side--points-bullet-align-paragraph-formatting-bullets-text">
    <path id="Rectangle 1106" fill="#62a2ce" d="M21.13234375 22.838906249999997c0.043828124999999996 -0.49093749999999997 0.422734375 -0.81140625 0.9146093750000001 -0.8429687499999999C22.906640624999998 21.940703125 24.658203125 21.875 28.125 21.875s5.218359375 0.065703125 6.078046875 0.12093749999999999c0.49187500000000006 0.0315625 0.8707812500000001 0.35203125 0.9146093750000001 0.8429687499999999 0.0225 0.25109375 0.038593749999999996 0.57546875 0.038593749999999996 0.98921875s-0.01609375 0.738125 -0.038593749999999996 0.98921875c-0.043828124999999996 0.49093749999999997 -0.422734375 0.81140625 -0.9146093750000001 0.8429687499999999C33.343359375 25.715546875 31.591796875 25.78125 28.125 25.78125s-5.218359375 -0.065703125 -6.078046875 -0.12093749999999999c-0.49187500000000006 -0.0315625 -0.8707812500000001 -0.35203125 -0.9146093750000001 -0.8429687499999999C21.109843750000003 24.56625 21.09375 24.241875 21.09375 23.828125s0.01609375 -0.738125 0.038593749999999996 -0.98921875Z" stroke-width="2.5"></path>
    <path id="Rectangle 1105" fill="#62a2ce" d="M21.117421875 31.46828125c0.02859375 -0.50765625 0.39015625 -0.864765625 0.8972656250000001 -0.9028125C22.661484375 30.516953125 23.802109375 30.46875 25.78125 30.46875s3.119765625 0.048203125 3.7665625 0.09671874999999999c0.507109375 0.038046875 0.8686718750000001 0.39515625000000004 0.8972656250000001 0.902890625 0.01390625 0.24593750000000003 0.023671875000000002 0.5590625 0.023671875000000002 0.953515625 0 0.394453125 -0.009765625 0.707578125 -0.023671875000000002 0.953515625 -0.02859375 0.5077343750000001 -0.39015625 0.86484375 -0.8972656250000001 0.902890625C28.901015625 34.326796875 27.760390625 34.375 25.78125 34.375s-3.119765625 -0.048203125 -3.7665625 -0.09671874999999999c-0.507109375 -0.038046875 -0.8686718750000001 -0.39515625000000004 -0.8972656250000001 -0.902890625C21.103515625 33.129453125000005 21.09375 32.816328125 21.09375 32.421875c0 -0.394453125 0.009765625 -0.707578125 0.023671875000000002 -0.9535937499999999Z" stroke-width="2.5"></path>
    <path id="Rectangle 1104" fill="#62a2ce" d="M21.117421875 12.718281249999999c0.02859375 -0.50765625 0.39015625 -0.864765625 0.8972656250000001 -0.9028125C22.661484375 11.766953125 23.802109375 11.71875 25.78125 11.71875s3.119765625 0.048203125 3.7665625 0.09671874999999999c0.507109375 0.038046875 0.8686718750000001 0.39515625000000004 0.8972656250000001 0.902890625 0.01390625 0.24593750000000003 0.023671875000000002 0.5590625 0.023671875000000002 0.953515625 0 0.394453125 -0.009765625 0.707578125 -0.023671875000000002 0.953515625 -0.02859375 0.5077343750000001 -0.39015625 0.86484375 -0.8972656250000001 0.902890625C28.901015625 15.576796875000001 27.760390625 15.625 25.78125 15.625s-3.119765625 -0.048203125 -3.7665625 -0.09671874999999999c-0.507109375 -0.038046875 -0.8686718750000001 -0.39515625000000004 -0.8972656250000001 -0.902890625C21.103515625 14.379453125 21.09375 14.066328125 21.09375 13.671875c0 -0.394453125 0.009765625 -0.707578125 0.023671875000000002 -0.9535937499999999Z" stroke-width="2.5"></path>
    <path id="Rectangle 1103" fill="#62a2ce" d="M21.13234375 4.0888828125c0.043828124999999996 -0.49093749999999997 0.422734375 -0.811390625 0.9146093750000001 -0.8429687499999999C22.906640624999998 3.1907187500000003 24.658203125 3.125 28.125 3.125s5.218359375 0.06571875 6.078046875 0.12091406249999999c0.49187500000000006 0.031578125 0.8707812500000001 0.35203125 0.9146093750000001 0.8429687499999999C35.14015625 4.3400078125 35.15625 4.6643359375 35.15625 5.078125c0 0.41378125 -0.01609375 0.7381171875 -0.038593749999999996 0.9892421874999999 -0.043828124999999996 0.49093749999999997 -0.422734375 0.811390625 -0.9146093750000001 0.8429687499999999C33.343359375 6.96553125 31.591796875 7.03125 28.125 7.03125s-5.218359375 -0.06571875 -6.078046875 -0.12091406249999999c-0.49187500000000006 -0.031578125 -0.8707812500000001 -0.35203125 -0.9146093750000001 -0.8429687499999999C21.109843750000003 5.8162421875 21.09375 5.4919062499999995 21.09375 5.078125c0 -0.41378906249999997 0.01609375 -0.7381171875 0.038593749999999996 -0.9892421874999999Z" stroke-width="2.5"></path>
    <path id="Rectangle 1102" fill="#ffffff" d="M16.282578125 23.6490625c-0.08328125 -1.332734375 -1.09890625 -2.348359375 -2.431640625 -2.431640625C12.782265625 21.150546875 11.305859375 21.09375 9.375 21.09375c-1.930890625 0 -3.40728125 0.056796875000000004 -4.47596875 0.12359375 -1.332671875 0.083359375 -2.3483203125000003 1.0989843750000001 -2.4316484375 2.43171875C2.4005625 24.717734375 2.34375 26.194140625 2.34375 28.125s0.0568125 3.407265625 0.1236328125 4.4759375c0.083328125 1.332734375 1.0989765625 2.348359375 2.4316484375 2.43171875C5.9677187499999995 35.099453125000004 7.444109375000001 35.15625 9.375 35.15625c1.9308593749999998 0 3.407265625 -0.056796875000000004 4.4759375 -0.12359375 1.332734375 -0.083359375 2.348359375 -1.0989843750000001 2.431640625 -2.43171875C16.349453125 31.532265625 16.40625 30.055859375 16.40625 28.125s-0.056796875000000004 -3.407265625 -0.123671875 -4.4759375Z" stroke-width="2.5"></path>
    <path id="Rectangle 1101" fill="#ffffff" d="M16.282578125 4.89903125c-0.08328125 -1.3326640625000001 -1.09890625 -2.3483203125000003 -2.431640625 -2.4316484375C12.782265625 2.4005625 11.305859375 2.34375 9.375 2.34375c-1.930890625 0 -3.40728125 0.0568125 -4.47596875 0.1236328125 -1.332671875 0.083328125 -2.3483203125000003 1.0989765625 -2.4316484375 2.4316484375C2.4005625 5.9677187499999995 2.34375 7.444109375000001 2.34375 9.375c0 1.9308593749999998 0.0568125 3.407265625 0.1236328125 4.4759375 0.083328125 1.332734375 1.0989765625 2.348359375 2.4316484375 2.43171875C5.9677187499999995 16.349453125 7.444109375000001 16.40625 9.375 16.40625c1.9308593749999998 0 3.407265625 -0.056796875000000004 4.4759375 -0.12359375 1.332734375 -0.083359375 2.348359375 -1.0989843750000001 2.431640625 -2.43171875C16.349453125 12.782265625 16.40625 11.305859375 16.40625 9.375c0 -1.930890625 -0.056796875000000004 -3.4072734375 -0.123671875 -4.47596875Z" stroke-width="2.5"></path>
    <path id="Rectangle 1096" stroke="#2d6a9c" stroke-linecap="round" stroke-linejoin="round" d="M16.282578125 4.89903125c-0.08328125 -1.3326640625000001 -1.09890625 -2.3483203125000003 -2.431640625 -2.4316484375C12.782265625 2.4005625 11.305859375 2.34375 9.375 2.34375c-1.930890625 0 -3.40728125 0.0568125 -4.47596875 0.1236328125 -1.332671875 0.083328125 -2.3483203125000003 1.0989765625 -2.4316484375 2.4316484375C2.4005625 5.9677187499999995 2.34375 7.444109375000001 2.34375 9.375c0 1.9308593749999998 0.0568125 3.407265625 0.1236328125 4.4759375 0.083328125 1.332734375 1.0989765625 2.348359375 2.4316484375 2.43171875C5.9677187499999995 16.349453125 7.444109375000001 16.40625 9.375 16.40625c1.9308593749999998 0 3.407265625 -0.056796875000000004 4.4759375 -0.12359375 1.332734375 -0.083359375 2.348359375 -1.0989843750000001 2.431640625 -2.43171875C16.349453125 12.782265625 16.40625 11.305859375 16.40625 9.375c0 -1.930890625 -0.056796875000000004 -3.4072734375 -0.123671875 -4.47596875Z" stroke-width="2.5"></path>
    <path id="Rectangle 1096_2" stroke="#2d6a9c" stroke-linecap="round" stroke-linejoin="round" d="M16.282578125 23.6490625c-0.08328125 -1.332734375 -1.09890625 -2.348359375 -2.431640625 -2.431640625C12.782265625 21.150546875 11.305859375 21.09375 9.375 21.09375c-1.930890625 0 -3.40728125 0.056796875000000004 -4.47596875 0.12359375 -1.332671875 0.083359375 -2.3483203125000003 1.0989843750000001 -2.4316484375 2.43171875C2.4005625 24.717734375 2.34375 26.194140625 2.34375 28.125s0.0568125 3.407265625 0.1236328125 4.4759375c0.083328125 1.332734375 1.0989765625 2.348359375 2.4316484375 2.43171875C5.9677187499999995 35.099453125000004 7.444109375000001 35.15625 9.375 35.15625c1.9308593749999998 0 3.407265625 -0.056796875000000004 4.4759375 -0.12359375 1.332734375 -0.083359375 2.348359375 -1.0989843750000001 2.431640625 -2.43171875C16.349453125 31.532265625 16.40625 30.055859375 16.40625 28.125s-0.056796875000000004 -3.407265625 -0.123671875 -4.4759375Z" stroke-width="2.5"></path>
    <path id="Rectangle 1098" stroke="#2d6a9c" stroke-linecap="round" stroke-linejoin="round" d="M21.13234375 4.0888828125c0.043828124999999996 -0.49093749999999997 0.422734375 -0.811390625 0.9146093750000001 -0.8429687499999999C22.906640624999998 3.1907187500000003 24.658203125 3.125 28.125 3.125s5.218359375 0.06571875 6.078046875 0.12091406249999999c0.49187500000000006 0.031578125 0.8707812500000001 0.35203125 0.9146093750000001 0.8429687499999999C35.14015625 4.3400078125 35.15625 4.6643359375 35.15625 5.078125c0 0.41378125 -0.01609375 0.7381171875 -0.038593749999999996 0.9892421874999999 -0.043828124999999996 0.49093749999999997 -0.422734375 0.811390625 -0.9146093750000001 0.8429687499999999C33.343359375 6.96553125 31.591796875 7.03125 28.125 7.03125s-5.218359375 -0.06571875 -6.078046875 -0.12091406249999999c-0.49187500000000006 -0.031578125 -0.8707812500000001 -0.35203125 -0.9146093750000001 -0.8429687499999999C21.109843750000003 5.8162421875 21.09375 5.4919062499999995 21.09375 5.078125c0 -0.41378906249999997 0.01609375 -0.7381171875 0.038593749999999996 -0.9892421874999999Z" stroke-width="2.5"></path>
    <path id="Rectangle 1100" stroke="#2d6a9c" stroke-linecap="round" stroke-linejoin="round" d="M21.117421875 12.718281249999999c0.02859375 -0.50765625 0.39015625 -0.864765625 0.8972656250000001 -0.9028125C22.661484375 11.766953125 23.802109375 11.71875 25.78125 11.71875s3.119765625 0.048203125 3.7665625 0.09671874999999999c0.507109375 0.038046875 0.8686718750000001 0.39515625000000004 0.8972656250000001 0.902890625 0.01390625 0.24593750000000003 0.023671875000000002 0.5590625 0.023671875000000002 0.953515625 0 0.394453125 -0.009765625 0.707578125 -0.023671875000000002 0.953515625 -0.02859375 0.5077343750000001 -0.39015625 0.86484375 -0.8972656250000001 0.902890625C28.901015625 15.576796875000001 27.760390625 15.625 25.78125 15.625s-3.119765625 -0.048203125 -3.7665625 -0.09671874999999999c-0.507109375 -0.038046875 -0.8686718750000001 -0.39515625000000004 -0.8972656250000001 -0.902890625C21.103515625 14.379453125 21.09375 14.066328125 21.09375 13.671875c0 -0.394453125 0.009765625 -0.707578125 0.023671875000000002 -0.9535937499999999Z" stroke-width="2.5"></path>
    <path id="Rectangle 70" stroke="#2d6a9c" stroke-linecap="round" stroke-linejoin="round" d="M21.117421875 31.46828125c0.02859375 -0.50765625 0.39015625 -0.864765625 0.8972656250000001 -0.9028125C22.661484375 30.516953125 23.802109375 30.46875 25.78125 30.46875s3.119765625 0.048203125 3.7665625 0.09671874999999999c0.507109375 0.038046875 0.8686718750000001 0.39515625000000004 0.8972656250000001 0.902890625 0.01390625 0.24593750000000003 0.023671875000000002 0.5590625 0.023671875000000002 0.953515625 0 0.394453125 -0.009765625 0.707578125 -0.023671875000000002 0.953515625 -0.02859375 0.5077343750000001 -0.39015625 0.86484375 -0.8972656250000001 0.902890625C28.901015625 34.326796875 27.760390625 34.375 25.78125 34.375s-3.119765625 -0.048203125 -3.7665625 -0.09671874999999999c-0.507109375 -0.038046875 -0.8686718750000001 -0.39515625000000004 -0.8972656250000001 -0.902890625C21.103515625 33.129453125000005 21.09375 32.816328125 21.09375 32.421875c0 -0.394453125 0.009765625 -0.707578125 0.023671875000000002 -0.9535937499999999Z" stroke-width="2.5"></path>
    <path id="Rectangle 75" stroke="#2d6a9c" stroke-linecap="round" stroke-linejoin="round" d="M21.13234375 22.838906249999997c0.043828124999999996 -0.49093749999999997 0.422734375 -0.81140625 0.9146093750000001 -0.8429687499999999C22.906640624999998 21.940703125 24.658203125 21.875 28.125 21.875s5.218359375 0.065703125 6.078046875 0.12093749999999999c0.49187500000000006 0.0315625 0.8707812500000001 0.35203125 0.9146093750000001 0.8429687499999999 0.0225 0.25109375 0.038593749999999996 0.57546875 0.038593749999999996 0.98921875s-0.01609375 0.738125 -0.038593749999999996 0.98921875c-0.043828124999999996 0.49093749999999997 -0.422734375 0.81140625 -0.9146093750000001 0.8429687499999999C33.343359375 25.715546875 31.591796875 25.78125 28.125 25.78125s-5.218359375 -0.065703125 -6.078046875 -0.12093749999999999c-0.49187500000000006 -0.0315625 -0.8707812500000001 -0.35203125 -0.9146093750000001 -0.8429687499999999C21.109843750000003 24.56625 21.09375 24.241875 21.09375 23.828125s0.01609375 -0.738125 0.038593749999999996 -0.98921875Z" stroke-width="2.5"></path>
  </g>
</svg>