<svg xmlns="http://www.w3.org/2000/svg" fill="none" viewBox="-1.25 -1.25 40 40" id="Threat-Phone--Streamline-Plump" height="40" width="40">
  <desc>
    Threat Phone Streamline Icon: https://streamlinehq.com
  </desc>
  <g id="threat-phone--bug-phone-file-threat-danger-mobile">
    <path id="Subtract" fill="#62a2ce" d="M19.140625 2.46796875v3.253125a4.840625 4.840625 0 0 1 -0.58515625 2.28828125c-0.20546875 0.3828125 -0.415625 0.78125 -0.62890625 1.1953125 -1.1867187499999998 2.296875 -2.0054687500000004 4.1312500000000005 -2.571875 5.58046875 -0.771875 1.975 -0.5578124999999999 4.09140625 0.60546875 5.7632812499999995 1.1359375 1.6343750000000001 2.9734375 2.56171875 4.94140625 2.69921875 1.3375 0.09375 2.96484375 0.16875 4.84296875 0.18593749999999998 -0.05468750000000001 3.36328125 -0.16328125 5.89140625 -0.2671875 7.6656249999999995 -0.11484375 1.96875 -1.54140625 3.5390625 -3.50546875 3.7273437499999997C20.16328125 35 17.56015625 35.15625 14.0625 35.15625s-6.1015625 -0.15625 -7.909375000000001 -0.32968749999999997c-1.9640624999999998 -0.1875 -3.390625 -1.7578125 -3.50546875 -3.7273437499999997C2.5 28.580468749999998 2.34375 24.54140625 2.34375 18.75s0.15625 -9.83046875 0.30390625 -12.34921875c0.11484375 -1.96875 1.54140625 -3.5390625 3.50546875 -3.7273437499999997C7.96171875 2.5 10.56484375 2.34375 14.0625 2.34375c1.97109375 0 3.6578125000000004 0.05 5.078125 0.12421875Z" stroke-width="2.5"></path>
    <path id="Rectangle 1097" fill="#ffffff" d="M21.11953125 20.1296875c-2.2796875 -0.15859375 -3.68515625 -2.078125 -2.85390625 -4.20703125 0.52109375 -1.3328125 1.29296875 -3.06796875 2.4375 -5.284375 1.1953125 -2.3140625000000004 2.2546875 -4.1031249999999995 3.1328125 -5.4578125 1.3765625 -2.121875 4.0765625 -2.121875 5.453125 0 0.878125 1.3546875 1.9375 3.14375 3.1328125 5.4578125 1.1453125 2.2164062500000004 1.9171875 3.9515624999999996 2.4375 5.284375 0.83203125 2.1281250000000003 -0.57421875 4.0484375 -2.85390625 4.20703125A78.4375 78.4375 0 0 1 26.5625 20.3125a78.4375 78.4375 0 0 1 -5.4429687499999995 -0.18281250000000002Z" stroke-width="2.5"></path>
    <path id="Intersect" fill="#ffffff" d="m9.5828125 2.4390625 0.3171875 2.5390625A2.34375 2.34375 0 0 0 12.225781249999999 7.03125h3.67421875a2.34375 2.34375 0 0 0 2.32578125 -2.053125l0.3171875 -2.5390625C17.25390625 2.38046875 15.764062500000001 2.34375 14.0625 2.34375c-1.7007812500000001 0 -3.190625 0.03671875 -4.4796875 0.0953125Z" stroke-width="2.5"></path>
    <path id="Rectangle 1095" stroke="#2d6a9c" stroke-linecap="round" stroke-linejoin="round" d="M25.73046875 24.21875a178.4765625 178.4765625 0 0 1 -0.253125 6.88046875c-0.11484375 1.96875 -1.54140625 3.5390625 -3.50546875 3.7273437499999997C20.16328125 35 17.56015625 35.15625 14.0625 35.15625s-6.1015625 -0.15625 -7.909375000000001 -0.32968749999999997c-1.9640624999999998 -0.1875 -3.390625 -1.7578125 -3.50546875 -3.7273437499999997C2.5 28.580468749999998 2.34375 24.54140625 2.34375 18.75s0.15625 -9.83046875 0.30390625 -12.34921875c0.11484375 -1.96875 1.54140625 -3.5390625 3.50546875 -3.7273437499999997C7.96171875 2.5 10.56484375 2.34375 14.0625 2.34375a92.08359375 92.08359375 0 0 1 6.640625 0.22265624999999997" stroke-width="2.5"></path>
    <path id="Intersect_2" stroke="#2d6a9c" stroke-linecap="round" stroke-linejoin="round" d="m9.5828125 2.4390625 0.3171875 2.5390625A2.34375 2.34375 0 0 0 12.225781249999999 7.03125h3.67421875a2.34375 2.34375 0 0 0 2.32578125 -2.05234375l0.3171875 -2.5390625" stroke-width="2.5"></path>
    <path id="Vector 1363" stroke="#2d6a9c" stroke-linecap="round" stroke-linejoin="round" d="M12.5 31.25h3.125" stroke-width="2.5"></path>
    <path id="Rectangle 128" stroke="#2d6a9c" stroke-linejoin="round" d="M21.11953125 20.1296875c-2.2796875 -0.15859375 -3.68515625 -2.078125 -2.85390625 -4.20703125 0.52109375 -1.3328125 1.29296875 -3.06796875 2.4375 -5.284375 1.1953125 -2.3140625000000004 2.2546875 -4.1031249999999995 3.1328125 -5.4578125 1.3765625 -2.121875 4.0765625 -2.121875 5.453125 0 0.878125 1.3546875 1.9375 3.14375 3.1328125 5.4578125 1.1453125 2.2164062500000004 1.9171875 3.9515624999999996 2.4375 5.284375 0.83203125 2.1281250000000003 -0.57421875 4.0484375 -2.85390625 4.20703125A78.4375 78.4375 0 0 1 26.5625 20.3125a78.4375 78.4375 0 0 1 -5.4429687499999995 -0.18281250000000002Z" stroke-width="2.5"></path>
    <path id="Vector 1479" stroke="#2d6a9c" stroke-linecap="round" stroke-linejoin="round" d="m26.5625 8.59375 0 3.90625" stroke-width="2.5"></path>
    <path id="Vector 1480" stroke="#2d6a9c" stroke-linecap="round" stroke-linejoin="round" d="M26.5625 15.625v0.78125" stroke-width="2.5"></path>
  </g>
</svg>