<svg xmlns="http://www.w3.org/2000/svg" xmlns:xlink="http://www.w3.org/1999/xlink" width="500" zoomAndPan="magnify" viewBox="0 0 375 374.999991" height="500" preserveAspectRatio="xMidYMid meet" version="1.0"><defs><clipPath id="0419299499"><path d="M 3.53125 3.53125 L 371.46875 3.53125 L 371.46875 371.46875 L 3.53125 371.46875 Z M 3.53125 3.53125 " clip-rule="nonzero"/></clipPath><clipPath id="733c65e342"><path d="M 187.5 3.53125 C 85.898438 3.53125 3.53125 85.898438 3.53125 187.5 C 3.53125 289.101562 85.898438 371.46875 187.5 371.46875 C 289.101562 371.46875 371.46875 289.101562 371.46875 187.5 C 371.46875 85.898438 289.101562 3.53125 187.5 3.53125 Z M 187.5 3.53125 " clip-rule="nonzero"/></clipPath><clipPath id="1de5c88e2c"><path d="M 32.128906 32.128906 L 342.871094 32.128906 L 342.871094 342.871094 L 32.128906 342.871094 Z M 32.128906 32.128906 " clip-rule="nonzero"/></clipPath><clipPath id="af084543f5"><path d="M 187.5 32.128906 C 101.691406 32.128906 32.128906 101.691406 32.128906 187.5 C 32.128906 273.308594 101.691406 342.871094 187.5 342.871094 C 273.308594 342.871094 342.871094 273.308594 342.871094 187.5 C 342.871094 101.691406 273.308594 32.128906 187.5 32.128906 Z M 187.5 32.128906 " clip-rule="nonzero"/></clipPath><clipPath id="74532e2232"><path d="M 119.507812 86.019531 L 255.492188 86.019531 L 255.492188 229 L 119.507812 229 Z M 119.507812 86.019531 " clip-rule="nonzero"/></clipPath><clipPath id="3f23c8abc0"><path d="M 164 251 L 213 251 L 213 288.980469 L 164 288.980469 Z M 164 251 " clip-rule="nonzero"/></clipPath></defs><g clip-path="url(#0419299499)"><g clip-path="url(#733c65e342)"><path fill="#263542" d="M 3.53125 3.53125 L 371.46875 3.53125 L 371.46875 371.46875 L 3.53125 371.46875 Z M 3.53125 3.53125 " fill-opacity="1" fill-rule="nonzero"/></g></g><g clip-path="url(#1de5c88e2c)"><g clip-path="url(#af084543f5)"><path fill="#ffffff" d="M 32.128906 32.128906 L 342.871094 32.128906 L 342.871094 342.871094 L 32.128906 342.871094 Z M 32.128906 32.128906 " fill-opacity="1" fill-rule="nonzero"/></g></g><g clip-path="url(#74532e2232)"><path fill="#263542" d="M 234.871094 100.503906 C 221.699219 90.988281 205.042969 86.160156 185.375 86.160156 C 170.25 86.160156 157.238281 89.597656 146.714844 96.371094 C 129.867188 107.097656 120.789062 125.304688 119.726562 150.484375 L 119.507812 155.71875 L 165.601562 155.71875 L 165.601562 150.695312 C 165.601562 144.828125 167.359375 139.054688 170.828125 133.53125 C 173.871094 128.691406 179.136719 126.335938 186.921875 126.335938 C 194.886719 126.335938 200.269531 128.230469 202.925781 131.96875 C 206.007812 136.304688 207.503906 140.972656 207.503906 146.234375 C 207.503906 150.644531 206.199219 154.585938 203.5 158.304688 L 203.4375 158.394531 C 201.945312 160.574219 199.910156 162.640625 197.367188 164.554688 L 188.296875 171.65625 C 178.597656 179.226562 172.664062 185.929688 170.164062 192.15625 C 167.777344 198.089844 166.367188 208.113281 165.847656 222.800781 L 165.664062 228.003906 L 209.429688 228.003906 L 209.488281 223.039062 C 209.566406 216.953125 210.027344 212.519531 210.867188 209.859375 C 212.113281 205.914062 214.738281 202.359375 218.679688 199.296875 L 227.464844 192.472656 C 236.832031 185.167969 243.066406 179.230469 246.503906 174.335938 C 252.464844 166.140625 255.488281 156.019531 255.488281 144.25 C 255.488281 125.105469 248.550781 110.386719 234.871094 100.503906 " fill-opacity="1" fill-rule="nonzero"/></g><g clip-path="url(#3f23c8abc0)"><path fill="#263542" d="M 164.976562 288.832031 L 212.09375 288.832031 L 212.09375 251.597656 L 164.976562 251.597656 L 164.976562 288.832031 " fill-opacity="1" fill-rule="nonzero"/></g></svg>