<svg xmlns="http://www.w3.org/2000/svg" xmlns:xlink="http://www.w3.org/1999/xlink" width="500" zoomAndPan="magnify" viewBox="0 0 375 374.999991" height="500" preserveAspectRatio="xMidYMid meet" version="1.0"><defs><clipPath id="582596f5cf"><path d="M 51.539062 51.539062 L 323.460938 51.539062 L 323.460938 323.460938 L 51.539062 323.460938 Z M 51.539062 51.539062 " clip-rule="nonzero"/></clipPath><clipPath id="9e12d67420"><path d="M 187.5 51.539062 C 112.410156 51.539062 51.539062 112.410156 51.539062 187.5 C 51.539062 262.589844 112.410156 323.460938 187.5 323.460938 C 262.589844 323.460938 323.460938 262.589844 323.460938 187.5 C 323.460938 112.410156 262.589844 51.539062 187.5 51.539062 Z M 187.5 51.539062 " clip-rule="nonzero"/></clipPath><clipPath id="4b45db63c7"><path d="M 72.675781 72.675781 L 302.324219 72.675781 L 302.324219 302.324219 L 72.675781 302.324219 Z M 72.675781 72.675781 " clip-rule="nonzero"/></clipPath><clipPath id="3da552a78a"><path d="M 187.5 72.675781 C 124.082031 72.675781 72.675781 124.082031 72.675781 187.5 C 72.675781 250.914062 124.082031 302.324219 187.5 302.324219 C 250.914062 302.324219 302.324219 250.914062 302.324219 187.5 C 302.324219 124.082031 250.914062 72.675781 187.5 72.675781 Z M 187.5 72.675781 " clip-rule="nonzero"/></clipPath><clipPath id="e157f78853"><path d="M 137.25 112.5 L 237.75 112.5 L 237.75 218 L 137.25 218 Z M 137.25 112.5 " clip-rule="nonzero"/></clipPath><clipPath id="4c371cb548"><path d="M 170 234 L 206 234 L 206 262.5 L 170 262.5 Z M 170 234 " clip-rule="nonzero"/></clipPath></defs><g clip-path="url(#582596f5cf)"><g clip-path="url(#9e12d67420)"><path fill="#263542" d="M 51.539062 51.539062 L 323.460938 51.539062 L 323.460938 323.460938 L 51.539062 323.460938 Z M 51.539062 51.539062 " fill-opacity="1" fill-rule="nonzero"/></g></g><g clip-path="url(#4b45db63c7)"><g clip-path="url(#3da552a78a)"><path fill="#ffffff" d="M 72.675781 72.675781 L 302.324219 72.675781 L 302.324219 302.324219 L 72.675781 302.324219 Z M 72.675781 72.675781 " fill-opacity="1" fill-rule="nonzero"/></g></g><g clip-path="url(#e157f78853)"><path fill="#263542" d="M 222.507812 123.207031 C 212.773438 116.171875 200.464844 112.605469 185.929688 112.605469 C 174.75 112.605469 165.136719 115.148438 157.359375 120.152344 C 144.90625 128.078125 138.195312 141.535156 137.414062 160.144531 L 137.25 164.011719 L 171.316406 164.011719 L 171.316406 160.300781 C 171.316406 155.964844 172.617188 151.695312 175.179688 147.613281 C 177.425781 144.035156 181.320312 142.296875 187.074219 142.296875 C 192.957031 142.296875 196.9375 143.699219 198.902344 146.460938 C 201.175781 149.664062 202.28125 153.113281 202.28125 157 C 202.28125 160.261719 201.320312 163.175781 199.324219 165.925781 L 199.277344 165.992188 C 198.175781 167.601562 196.671875 169.128906 194.792969 170.542969 L 188.089844 175.792969 C 180.921875 181.382812 176.535156 186.339844 174.6875 190.941406 C 172.925781 195.324219 171.882812 202.734375 171.496094 213.589844 L 171.363281 217.433594 L 203.707031 217.433594 L 203.75 213.765625 C 203.808594 209.269531 204.148438 205.992188 204.769531 204.027344 C 205.6875 201.109375 207.632812 198.484375 210.542969 196.21875 L 217.035156 191.175781 C 223.957031 185.777344 228.566406 181.386719 231.105469 177.769531 C 235.511719 171.714844 237.746094 164.234375 237.746094 155.535156 C 237.746094 141.386719 232.621094 130.511719 222.507812 123.207031 " fill-opacity="1" fill-rule="nonzero"/></g><g clip-path="url(#4c371cb548)"><path fill="#263542" d="M 170.855469 262.390625 L 205.675781 262.390625 L 205.675781 234.871094 L 170.855469 234.871094 L 170.855469 262.390625 " fill-opacity="1" fill-rule="nonzero"/></g></svg>